<svg width="75" height="57" viewBox="0 0 75 57" fill="none" xmlns="http://www.w3.org/2000/svg">
<mask id="path-1-outside-1_2609_92764" maskUnits="userSpaceOnUse" x="0.703125" y="-0.5" width="75" height="57" fill="black">
<rect fill="white" x="0.703125" y="-0.5" width="75" height="57"/>
<path d="M22.8963 54.6186C18.6208 54.602 14.9418 53.5497 11.8594 51.4616C8.7936 49.3736 6.43209 46.3492 4.77489 42.3885C3.13427 38.4278 2.32224 33.6634 2.33881 28.0952C2.33881 22.5436 3.15913 17.8123 4.79975 13.9013C6.45695 9.99029 8.81845 7.01562 11.8843 4.97727C14.9667 2.92235 18.6373 1.89488 22.8963 1.89488C27.1553 1.89488 30.8177 2.92235 33.8836 4.97727C36.9659 7.0322 39.3357 10.0151 40.9929 13.9261C42.6501 17.8205 43.4704 22.5436 43.4539 28.0952C43.4539 33.6799 42.6253 38.4527 40.9681 42.4134C39.3275 46.3741 36.9742 49.3984 33.9084 51.4865C30.8426 53.5746 27.1719 54.6186 22.8963 54.6186ZM22.8963 45.6946C25.813 45.6946 28.1414 44.228 29.8814 41.2947C31.6215 38.3615 32.4832 33.9616 32.4667 28.0952C32.4667 24.2339 32.0689 21.0189 31.2735 18.4503C30.4946 15.8816 29.3843 13.951 27.9425 12.6584C26.5173 11.3658 24.8353 10.7195 22.8963 10.7195C19.9962 10.7195 17.6762 12.1695 15.9361 15.0696C14.1961 17.9697 13.3177 22.3116 13.3012 28.0952C13.3012 32.0062 13.6906 35.2708 14.4695 37.8892C15.2649 40.491 16.3836 42.4465 17.8253 43.7557C19.2671 45.0483 20.9574 45.6946 22.8963 45.6946ZM73.2772 2.59091V53.5H62.5137V12.8075H62.2154L50.557 20.1158V10.5703L63.16 2.59091H73.2772Z"/>
</mask>
<path d="M22.8963 54.6186L22.8905 56.1186H22.8963V54.6186ZM11.8594 51.4616L11.015 52.7014L11.0181 52.7035L11.8594 51.4616ZM4.77489 42.3885L3.38907 42.9625L3.39113 42.9675L4.77489 42.3885ZM2.33881 28.0952L3.83881 28.0996V28.0952H2.33881ZM4.79975 13.9013L3.41861 13.316L3.41653 13.321L4.79975 13.9013ZM11.8843 4.97727L12.7148 6.22639L12.7163 6.22535L11.8843 4.97727ZM33.8836 4.97727L33.0484 6.22328L33.0515 6.22535L33.8836 4.97727ZM40.9929 13.9261L39.6118 14.5114L39.6127 14.5135L40.9929 13.9261ZM43.4539 28.0952L41.9539 28.0907V28.0952H43.4539ZM40.9681 42.4134L39.5843 41.8344L39.5823 41.8393L40.9681 42.4134ZM33.9084 51.4865L34.7528 52.7263L33.9084 51.4865ZM29.8814 41.2947L31.1715 42.06L29.8814 41.2947ZM32.4667 28.0952H30.9666L30.9667 28.0994L32.4667 28.0952ZM31.2735 18.4503L29.838 18.8856L29.8406 18.894L31.2735 18.4503ZM27.9425 12.6584L26.9348 13.7695L26.9412 13.7752L27.9425 12.6584ZM15.9361 15.0696L14.6499 14.2979L14.6499 14.2979L15.9361 15.0696ZM13.3012 28.0952L11.8012 28.0909V28.0952H13.3012ZM14.4695 37.8892L13.0317 38.3169L13.035 38.3278L14.4695 37.8892ZM17.8253 43.7557L16.8169 44.8662L16.824 44.8725L17.8253 43.7557ZM22.8963 54.6186L22.9022 53.1186C18.879 53.103 15.5012 52.1169 12.7007 50.2198L11.8594 51.4616L11.0181 52.7035C14.3824 54.9825 18.3625 56.101 22.8905 56.1186L22.8963 54.6186ZM11.8594 51.4616L12.7038 50.2219C9.91387 48.3217 7.72185 45.5456 6.15865 41.8095L4.77489 42.3885L3.39113 42.9675C5.14233 47.1528 7.67332 50.4254 11.015 52.7014L11.8594 51.4616ZM4.77489 42.3885L6.16071 41.8145C4.61506 38.083 3.82266 33.5259 3.83881 28.0996L2.33881 28.0952L0.838819 28.0907C0.821825 33.8008 1.65348 38.7725 3.38908 42.9625L4.77489 42.3885ZM2.33881 28.0952H3.83881C3.83881 22.6842 4.63925 18.1615 6.18297 14.4815L4.79975 13.9013L3.41653 13.321C1.679 17.463 0.838812 22.4029 0.838812 28.0952H2.33881ZM4.79975 13.9013L6.18088 14.4865C7.74156 10.8033 9.92945 8.07824 12.7148 6.22639L11.8843 4.97727L11.0538 3.72816C7.70745 5.95301 5.17233 9.17729 3.41862 13.3161L4.79975 13.9013ZM11.8843 4.97727L12.7163 6.22535C15.5169 4.35827 18.8879 3.39488 22.8963 3.39488V1.89488V0.394884C18.3868 0.394884 14.4164 1.48643 11.0522 3.7292L11.8843 4.97727ZM22.8963 1.89488V3.39488C26.905 3.39488 30.266 4.35833 33.0484 6.22327L33.8836 4.97727L34.7187 3.73127C31.3695 1.48637 27.4057 0.394884 22.8963 0.394884V1.89488ZM33.8836 4.97727L33.0515 6.22535C35.8557 8.09483 38.0517 10.8296 39.6118 14.5114L40.9929 13.9261L42.3741 13.3409C40.6197 9.20073 38.0762 5.96956 34.7156 3.7292L33.8836 4.97727ZM40.9929 13.9261L39.6127 14.5135C41.1696 18.1722 41.97 22.6821 41.9539 28.0907L43.4539 28.0952L44.9539 28.0996C44.9709 22.405 44.1306 17.4689 42.3732 13.3388L40.9929 13.9261ZM43.4539 28.0952H41.9539C41.9539 33.5382 41.1455 38.1032 39.5843 41.8344L40.9681 42.4134L42.3518 42.9923C44.1051 38.8021 44.9539 33.8217 44.9539 28.0952H43.4539ZM40.9681 42.4134L39.5823 41.8393C38.0356 45.5732 35.8525 48.3475 33.064 50.2467L33.9084 51.4865L34.7528 52.7263C38.0959 50.4493 40.6193 47.1749 42.3539 42.9874L40.9681 42.4134ZM33.9084 51.4865L33.064 50.2467C30.2836 52.1404 26.9181 53.1186 22.8963 53.1186V54.6186V56.1186C27.4258 56.1186 31.4016 55.0087 34.7528 52.7263L33.9084 51.4865ZM22.8963 45.6946V47.1946C26.4408 47.1946 29.2154 45.3574 31.1715 42.06L29.8814 41.2947L28.5913 40.5294C27.0673 43.0986 25.1852 44.1946 22.8963 44.1946V45.6946ZM29.8814 41.2947L31.1715 42.06C33.1166 38.7812 33.9835 34.0571 33.9666 28.0909L32.4667 28.0952L30.9667 28.0994C30.983 33.8662 30.1264 37.9418 28.5913 40.5294L29.8814 41.2947ZM32.4667 28.0952H33.9667C33.9667 24.1431 33.561 20.7665 32.7063 18.0066L31.2735 18.4503L29.8406 18.894C30.5768 21.2713 30.9667 24.3247 30.9667 28.0952H32.4667ZM31.2735 18.4503L32.7089 18.015C31.8799 15.2809 30.6542 13.075 28.9438 11.5415L27.9425 12.6584L26.9412 13.7752C28.1143 14.827 29.1093 16.4824 29.838 18.8856L31.2735 18.4503ZM27.9425 12.6584L28.9502 11.5473C27.2467 10.0023 25.2046 9.21946 22.8963 9.21946V10.7195V12.2195C24.4659 12.2195 25.7879 12.7293 26.9348 13.7695L27.9425 12.6584ZM22.8963 10.7195V9.21946C19.3734 9.21946 16.6077 11.0348 14.6499 14.2979L15.9361 15.0696L17.2224 15.8413C18.7446 13.3043 20.6191 12.2195 22.8963 12.2195V10.7195ZM15.9361 15.0696L14.6499 14.2979C12.7039 17.5411 11.818 22.2057 11.8012 28.0909L13.3012 28.0952L14.8012 28.0995C14.8174 22.4174 15.6882 18.3983 17.2224 15.8413L15.9361 15.0696ZM13.3012 28.0952H11.8012C11.8012 32.0941 12.198 35.5141 13.0318 38.3169L14.4695 37.8892L15.9072 37.4615C15.1832 35.0276 14.8012 31.9182 14.8012 28.0952H13.3012ZM14.4695 37.8892L13.035 38.3278C13.8796 41.0901 15.1112 43.3172 16.8169 44.8662L17.8253 43.7557L18.8337 42.6452C17.656 41.5758 16.6503 39.892 15.904 37.4506L14.4695 37.8892ZM17.8253 43.7557L16.824 44.8725C18.5413 46.4122 20.5884 47.1946 22.8963 47.1946V45.6946V44.1946C21.3265 44.1946 19.9928 43.6844 18.8266 42.6388L17.8253 43.7557ZM73.2772 2.59091H74.7772V1.09091H73.2772V2.59091ZM73.2772 53.5V55H74.7772V53.5H73.2772ZM62.5137 53.5H61.0137V55H62.5137V53.5ZM62.5137 12.8075H64.0137V11.3075H62.5137V12.8075ZM62.2154 12.8075V11.3075H61.7841L61.4187 11.5366L62.2154 12.8075ZM50.557 20.1158H49.057V22.8264L51.3537 21.3867L50.557 20.1158ZM50.557 10.5703L49.7546 9.30297L49.057 9.74465V10.5703H50.557ZM63.16 2.59091V1.09091H62.7251L62.3576 1.32357L63.16 2.59091ZM73.2772 2.59091H71.7772V53.5H73.2772H74.7772V2.59091H73.2772ZM73.2772 53.5V52H62.5137V53.5V55H73.2772V53.5ZM62.5137 53.5H64.0137V12.8075H62.5137H61.0137V53.5H62.5137ZM62.5137 12.8075V11.3075H62.2154V12.8075V14.3075H62.5137V12.8075ZM62.2154 12.8075L61.4187 11.5366L49.7603 18.8448L50.557 20.1158L51.3537 21.3867L63.0121 14.0785L62.2154 12.8075ZM50.557 20.1158H52.057V10.5703H50.557H49.057V20.1158H50.557ZM50.557 10.5703L51.3594 11.8377L63.9624 3.85825L63.16 2.59091L62.3576 1.32357L49.7546 9.30297L50.557 10.5703ZM63.16 2.59091V4.09091H73.2772V2.59091V1.09091H63.16V2.59091Z" fill="#EB971B" mask="url(#path-1-outside-1_2609_92764)"/>
</svg>
