<svg width="89" height="57" viewBox="0 0 89 57" fill="none" xmlns="http://www.w3.org/2000/svg">
<mask id="path-1-outside-1_2609_92762" maskUnits="userSpaceOnUse" x="0.525391" y="-0.5" width="89" height="57" fill="black">
<rect fill="white" x="0.525391" y="-0.5" width="89" height="57"/>
<path d="M22.6948 54.6186C18.4192 54.602 14.7402 53.5497 11.6578 51.4616C8.59203 49.3736 6.23053 46.3492 4.57333 42.3885C2.93271 38.4278 2.12068 33.6634 2.13725 28.0952C2.13725 22.5436 2.95756 17.8123 4.59819 13.9013C6.25539 9.99029 8.61689 7.01562 11.6827 4.97727C14.7651 2.92235 18.4358 1.89488 22.6948 1.89488C26.9538 1.89488 30.6162 2.92235 33.682 4.97727C36.7644 7.0322 39.1342 10.0151 40.7914 13.9261C42.4486 17.8205 43.2689 22.5436 43.2523 28.0952C43.2523 33.6799 42.4237 38.4527 40.7665 42.4134C39.1259 46.3741 36.7727 49.3984 33.7069 51.4865C30.641 53.5746 26.9703 54.6186 22.6948 54.6186ZM22.6948 45.6946C25.6114 45.6946 27.9398 44.228 29.6799 41.2947C31.4199 38.3615 32.2817 33.9616 32.2651 28.0952C32.2651 24.2339 31.8674 21.0189 31.0719 18.4503C30.293 15.8816 29.1827 13.951 27.7409 12.6584C26.3158 11.3658 24.6337 10.7195 22.6948 10.7195C19.7947 10.7195 17.4746 12.1695 15.7346 15.0696C13.9945 17.9697 13.1162 22.3116 13.0996 28.0952C13.0996 32.0062 13.4891 35.2708 14.2679 37.8892C15.0634 40.491 16.182 42.4465 17.6238 43.7557C19.0655 45.0483 20.7559 45.6946 22.6948 45.6946ZM50.9272 53.5V45.7443L69.0487 28.9652C70.5898 27.4737 71.8825 26.1314 72.9265 24.9382C73.9871 23.745 74.7908 22.5767 75.3377 21.4332C75.8846 20.2732 76.158 19.022 76.158 17.6797C76.158 16.1882 75.8183 14.9039 75.1389 13.8267C74.4594 12.733 73.5314 11.8961 72.3548 11.316C71.1781 10.7195 69.8441 10.4212 68.3526 10.4212C66.7949 10.4212 65.436 10.736 64.2759 11.3658C63.1159 11.9955 62.221 12.8987 61.5913 14.0753C60.9615 15.2519 60.6467 16.6522 60.6467 18.2763H50.43C50.43 14.9453 51.1841 12.0535 52.6921 9.60085C54.2002 7.1482 56.3131 5.25071 59.0309 3.90838C61.7487 2.56605 64.8808 1.89488 68.4272 1.89488C72.073 1.89488 75.2466 2.54119 77.9478 3.83381C80.6656 5.10985 82.7785 6.88305 84.2866 9.15341C85.7946 11.4238 86.5487 14.0256 86.5487 16.9588C86.5487 18.8812 86.1675 20.7786 85.4052 22.6513C84.6594 24.5239 83.3254 26.6037 81.4031 28.8906C79.4807 31.161 76.7712 33.8871 73.2745 37.0689L65.842 44.3523V44.7003H87.2198V53.5H50.9272Z"/>
</mask>
<path d="M22.6948 54.6186L22.689 56.1186H22.6948V54.6186ZM11.6578 51.4616L10.8135 52.7014L10.8166 52.7035L11.6578 51.4616ZM4.57333 42.3885L3.18751 42.9625L3.18957 42.9675L4.57333 42.3885ZM2.13725 28.0952L3.63725 28.0996V28.0952H2.13725ZM4.59819 13.9013L3.21705 13.316L3.21496 13.321L4.59819 13.9013ZM11.6827 4.97727L12.5132 6.22639L12.5148 6.22535L11.6827 4.97727ZM33.682 4.97727L32.8468 6.22328L32.8499 6.22535L33.682 4.97727ZM40.7914 13.9261L39.4102 14.5114L39.4111 14.5135L40.7914 13.9261ZM43.2523 28.0952L41.7523 28.0907V28.0952H43.2523ZM40.7665 42.4134L39.3827 41.8344L39.3807 41.8393L40.7665 42.4134ZM33.7069 51.4865L34.5512 52.7263L33.7069 51.4865ZM29.6799 41.2947L30.9699 42.06L29.6799 41.2947ZM32.2651 28.0952H30.7651L30.7651 28.0994L32.2651 28.0952ZM31.0719 18.4503L29.6364 18.8856L29.639 18.894L31.0719 18.4503ZM27.7409 12.6584L26.7332 13.7695L26.7396 13.7752L27.7409 12.6584ZM15.7346 15.0696L14.4483 14.2979L14.4483 14.2979L15.7346 15.0696ZM13.0996 28.0952L11.5996 28.0909V28.0952H13.0996ZM14.2679 37.8892L12.8302 38.3169L12.8335 38.3278L14.2679 37.8892ZM17.6238 43.7557L16.6154 44.8662L16.6224 44.8725L17.6238 43.7557ZM22.6948 54.6186L22.7006 53.1186C18.6774 53.103 15.2997 52.1169 12.4991 50.2198L11.6578 51.4616L10.8166 52.7035C14.1808 54.9825 18.161 56.101 22.689 56.1186L22.6948 54.6186ZM11.6578 51.4616L12.5022 50.2219C9.71231 48.3217 7.52029 45.5456 5.95709 41.8095L4.57333 42.3885L3.18957 42.9675C4.94077 47.1528 7.47175 50.4254 10.8135 52.7014L11.6578 51.4616ZM4.57333 42.3885L5.95914 41.8145C4.41349 38.083 3.6211 33.5259 3.63724 28.0996L2.13725 28.0952L0.637258 28.0907C0.620264 33.8008 1.45192 38.7725 3.18752 42.9625L4.57333 42.3885ZM2.13725 28.0952H3.63725C3.63725 22.6842 4.43769 18.1615 5.98141 14.4815L4.59819 13.9013L3.21496 13.321C1.47744 17.463 0.637251 22.4029 0.637251 28.0952H2.13725ZM4.59819 13.9013L5.97932 14.4865C7.54 10.8033 9.72789 8.07824 12.5132 6.22639L11.6827 4.97727L10.8522 3.72816C7.50589 5.95301 4.97077 9.17729 3.21706 13.3161L4.59819 13.9013ZM11.6827 4.97727L12.5148 6.22535C15.3154 4.35827 18.6863 3.39488 22.6948 3.39488V1.89488V0.394884C18.1852 0.394884 14.2148 1.48643 10.8507 3.7292L11.6827 4.97727ZM22.6948 1.89488V3.39488C26.7034 3.39488 30.0645 4.35833 32.8468 6.22327L33.682 4.97727L34.5172 3.73127C31.1679 1.48637 27.2041 0.394884 22.6948 0.394884V1.89488ZM33.682 4.97727L32.8499 6.22535C35.6542 8.09483 37.8502 10.8296 39.4102 14.5114L40.7914 13.9261L42.1725 13.3409C40.4182 9.20073 37.8746 5.96956 34.514 3.7292L33.682 4.97727ZM40.7914 13.9261L39.4111 14.5135C40.9681 18.1722 41.7685 22.6821 41.7523 28.0907L43.2523 28.0952L44.7523 28.0996C44.7693 22.405 43.9291 17.4689 42.1716 13.3388L40.7914 13.9261ZM43.2523 28.0952H41.7523C41.7523 33.5382 40.9439 38.1032 39.3828 41.8344L40.7665 42.4134L42.1503 42.9923C43.9035 38.8021 44.7523 33.8217 44.7523 28.0952H43.2523ZM40.7665 42.4134L39.3807 41.8393C37.834 45.5732 35.651 48.3475 32.8625 50.2467L33.7069 51.4865L34.5512 52.7263C37.8944 50.4493 40.4177 47.1749 42.1523 42.9874L40.7665 42.4134ZM33.7069 51.4865L32.8625 50.2467C30.0821 52.1404 26.7165 53.1186 22.6948 53.1186V54.6186V56.1186C27.2242 56.1186 31.2 55.0087 34.5512 52.7263L33.7069 51.4865ZM22.6948 45.6946V47.1946C26.2392 47.1946 29.0139 45.3574 30.9699 42.06L29.6799 41.2947L28.3898 40.5294C26.8657 43.0986 24.9837 44.1946 22.6948 44.1946V45.6946ZM29.6799 41.2947L30.9699 42.06C32.915 38.7812 33.7819 34.0571 33.7651 28.0909L32.2651 28.0952L30.7651 28.0994C30.7814 33.8662 29.9248 37.9418 28.3898 40.5294L29.6799 41.2947ZM32.2651 28.0952H33.7651C33.7651 24.1431 33.3595 20.7665 32.5048 18.0066L31.0719 18.4503L29.639 18.894C30.3752 21.2713 30.7651 24.3247 30.7651 28.0952H32.2651ZM31.0719 18.4503L32.5074 18.015C31.6783 15.2809 30.4526 13.075 28.7423 11.5415L27.7409 12.6584L26.7396 13.7752C27.9128 14.827 28.9078 16.4824 29.6365 18.8856L31.0719 18.4503ZM27.7409 12.6584L28.7487 11.5473C27.0452 10.0023 25.0031 9.21946 22.6948 9.21946V10.7195V12.2195C24.2643 12.2195 25.5863 12.7293 26.7332 13.7695L27.7409 12.6584ZM22.6948 10.7195V9.21946C19.1719 9.21946 16.4062 11.0348 14.4483 14.2979L15.7346 15.0696L17.0208 15.8413C18.543 13.3043 20.4175 12.2195 22.6948 12.2195V10.7195ZM15.7346 15.0696L14.4483 14.2979C12.5024 17.5411 11.6165 22.2057 11.5996 28.0909L13.0996 28.0952L14.5996 28.0995C14.6159 22.4174 15.4866 18.3983 17.0208 15.8413L15.7346 15.0696ZM13.0996 28.0952H11.5996C11.5996 32.0941 11.9965 35.5141 12.8302 38.3169L14.2679 37.8892L15.7057 37.4615C14.9816 35.0276 14.5996 31.9182 14.5996 28.0952H13.0996ZM14.2679 37.8892L12.8335 38.3278C13.678 41.0901 14.9096 43.3172 16.6154 44.8662L17.6238 43.7557L18.6321 42.6452C17.4544 41.5758 16.4488 39.892 15.7024 37.4506L14.2679 37.8892ZM17.6238 43.7557L16.6224 44.8725C18.3398 46.4122 20.3868 47.1946 22.6948 47.1946V45.6946V44.1946C21.1249 44.1946 19.7913 43.6844 18.6251 42.6388L17.6238 43.7557ZM50.9272 53.5H49.4272V55H50.9272V53.5ZM50.9272 45.7443L49.9081 44.6437L49.4272 45.0889V45.7443H50.9272ZM69.0487 28.9652L70.0678 30.0658L70.0799 30.0546L70.0918 30.0431L69.0487 28.9652ZM72.9265 24.9382L71.8053 23.9416L71.7976 23.9505L72.9265 24.9382ZM75.3377 21.4332L76.6909 22.0804L76.6945 22.0729L75.3377 21.4332ZM75.1388 13.8267L73.8647 14.6182L73.8702 14.627L75.1388 13.8267ZM72.3548 11.316L71.6764 12.6539L71.684 12.6577L71.6915 12.6615L72.3548 11.316ZM61.5913 14.0753L62.9138 14.7831V14.7831L61.5913 14.0753ZM60.6467 18.2763V19.7763H62.1467V18.2763H60.6467ZM50.43 18.2763H48.93V19.7763H50.43V18.2763ZM52.6921 9.60085L53.9699 10.3865V10.3865L52.6921 9.60085ZM59.0309 3.90838L58.3666 2.56347H58.3666L59.0309 3.90838ZM77.9478 3.83381L77.3003 5.1869L77.3103 5.1916L77.9478 3.83381ZM84.2866 9.15341L83.0371 9.98335V9.98335L84.2866 9.15341ZM85.4052 22.6513L84.0158 22.0857L84.0116 22.0963L85.4052 22.6513ZM81.4031 28.8906L82.5478 29.8599L82.5513 29.8558L81.4031 28.8906ZM73.2745 37.0689L72.265 35.9595L72.2445 35.9781L72.2246 35.9975L73.2745 37.0689ZM65.842 44.3523L64.7921 43.2809L64.342 43.722V44.3523H65.842ZM65.842 44.7003H64.342V46.2003H65.842V44.7003ZM87.2198 44.7003H88.7198V43.2003H87.2198V44.7003ZM87.2198 53.5V55H88.7198V53.5H87.2198ZM50.9272 53.5H52.4272V45.7443H50.9272H49.4272V53.5H50.9272ZM50.9272 45.7443L51.9463 46.845L70.0678 30.0658L69.0487 28.9652L68.0295 27.8646L49.9081 44.6437L50.9272 45.7443ZM69.0487 28.9652L70.0918 30.0431C71.6532 28.5321 72.9764 27.159 74.0554 25.926L72.9265 24.9382L71.7976 23.9505C70.7885 25.1037 69.5265 26.4154 68.0055 27.8873L69.0487 28.9652ZM72.9265 24.9382L74.0476 25.9348C75.1786 24.6624 76.0701 23.3785 76.6909 22.0804L75.3377 21.4332L73.9845 20.7861C73.5116 21.7749 72.7956 22.8276 71.8054 23.9417L72.9265 24.9382ZM75.3377 21.4332L76.6945 22.0729C77.3401 20.7034 77.658 19.2326 77.658 17.6797H76.158H74.658C74.658 18.8114 74.4291 19.843 73.9809 20.7936L75.3377 21.4332ZM76.158 17.6797H77.658C77.658 15.9542 77.2624 14.3817 76.4075 13.0264L75.1388 13.8267L73.8702 14.627C74.3742 15.4261 74.658 16.4222 74.658 17.6797H76.158ZM75.1388 13.8267L76.413 13.0352C75.5828 11.6987 74.441 10.6721 73.018 9.97064L72.3548 11.316L71.6915 12.6615C72.6217 13.12 73.336 13.7672 73.8647 14.6182L75.1388 13.8267ZM72.3548 11.316L73.0331 9.9782C71.6202 9.26181 70.0488 8.92116 68.3526 8.92116V10.4212V11.9212C69.6394 11.9212 70.7361 12.1771 71.6764 12.6539L72.3548 11.316ZM68.3526 10.4212V8.92116C66.59 8.92116 64.9765 9.2787 63.5603 10.0475L64.2759 11.3658L64.9916 12.684C65.8954 12.1934 66.9997 11.9212 68.3526 11.9212V10.4212ZM64.2759 11.3658L63.5603 10.0475C62.1397 10.8187 61.0352 11.9355 60.2688 13.3675L61.5913 14.0753L62.9138 14.7831C63.4068 13.8619 64.0921 13.1723 64.9916 12.684L64.2759 11.3658ZM61.5913 14.0753L60.2688 13.3675C59.4998 14.8042 59.1467 16.4583 59.1467 18.2763H60.6467H62.1467C62.1467 16.8461 62.4233 15.6996 62.9138 14.7831L61.5913 14.0753ZM60.6467 18.2763V16.7763H50.43V18.2763V19.7763H60.6467V18.2763ZM50.43 18.2763H51.93C51.93 15.1784 52.6287 12.5678 53.9699 10.3865L52.6921 9.60085L51.4143 8.81519C49.7394 11.5392 48.93 14.7122 48.93 18.2763H50.43ZM52.6921 9.60085L53.9699 10.3865C55.3222 8.18725 57.2164 6.47755 59.6951 5.25328L59.0309 3.90838L58.3666 2.56347C55.4098 4.02387 53.0782 6.10915 51.4143 8.81519L52.6921 9.60085ZM59.0309 3.90838L59.6951 5.25328C62.174 4.02896 65.0722 3.39488 68.4272 3.39488V1.89488V0.394884C64.6894 0.394884 61.3234 1.10314 58.3666 2.56347L59.0309 3.90838ZM68.4272 1.89488V3.39488C71.8968 3.39488 74.8404 4.00971 77.3003 5.18687L77.9478 3.83381L78.5953 2.48075C75.6528 1.07267 72.2493 0.394884 68.4272 0.394884V1.89488ZM77.9478 3.83381L77.3103 5.1916C79.8057 6.36321 81.6961 7.96444 83.0371 9.98335L84.2866 9.15341L85.5361 8.32346C83.861 5.80166 81.5255 3.85648 78.5853 2.47602L77.9478 3.83381ZM84.2866 9.15341L83.0371 9.98335C84.3692 11.9888 85.0487 14.2973 85.0487 16.9588H86.5487H88.0487C88.0487 13.7539 87.22 10.8587 85.5361 8.32346L84.2866 9.15341ZM86.5487 16.9588H85.0487C85.0487 18.6773 84.7089 20.3832 84.0159 22.0857L85.4052 22.6513L86.7945 23.2168C87.6261 21.174 88.0487 19.085 88.0487 16.9588H86.5487ZM85.4052 22.6513L84.0116 22.0963C83.3464 23.7667 82.1188 25.7079 80.2548 27.9254L81.4031 28.8906L82.5513 29.8558C84.532 27.4994 85.9725 25.2811 86.7988 23.2062L85.4052 22.6513ZM81.4031 28.8906L80.2583 27.9213C78.3949 30.122 75.738 32.7991 72.265 35.9595L73.2745 37.0689L74.284 38.1783C77.8043 34.975 80.5665 32.1999 82.5478 29.8599L81.4031 28.8906ZM73.2745 37.0689L72.2246 35.9975L64.7921 43.2809L65.842 44.3523L66.8918 45.4236L74.3244 38.1402L73.2745 37.0689ZM65.842 44.3523H64.342V44.7003H65.842H67.342V44.3523H65.842ZM65.842 44.7003V46.2003H87.2198V44.7003V43.2003H65.842V44.7003ZM87.2198 44.7003H85.7198V53.5H87.2198H88.7198V44.7003H87.2198ZM87.2198 53.5V52H50.9272V53.5V55H87.2198V53.5Z" fill="#EB971B" mask="url(#path-1-outside-1_2609_92762)"/>
</svg>
