<svg width="91" height="57" viewBox="0 0 91 57" fill="none" xmlns="http://www.w3.org/2000/svg">
<mask id="path-1-outside-1_2609_92760" maskUnits="userSpaceOnUse" x="0.25" y="-0.5" width="91" height="57" fill="black">
<rect fill="white" x="0.25" y="-0.5" width="91" height="57"/>
<path d="M22.4684 54.6186C18.1929 54.602 14.5139 53.5497 11.4315 51.4616C8.36569 49.3736 6.00419 46.3492 4.34699 42.3885C2.70636 38.4278 1.89434 33.6634 1.91091 28.0952C1.91091 22.5436 2.73122 17.8123 4.37185 13.9013C6.02904 9.99029 8.39055 7.01562 11.4564 4.97727C14.5388 2.92235 18.2094 1.89488 22.4684 1.89488C26.7274 1.89488 30.3898 2.92235 33.4557 4.97727C36.538 7.0322 38.9078 10.0151 40.565 13.9261C42.2222 17.8205 43.0425 22.5436 43.026 28.0952C43.026 33.6799 42.1974 38.4527 40.5402 42.4134C38.8995 46.3741 36.5463 49.3984 33.4805 51.4865C30.4147 53.5746 26.744 54.6186 22.4684 54.6186ZM22.4684 45.6946C25.3851 45.6946 27.7135 44.228 29.4535 41.2947C31.1936 38.3615 32.0553 33.9616 32.0388 28.0952C32.0388 24.2339 31.641 21.0189 30.8456 18.4503C30.0667 15.8816 28.9564 13.951 27.5146 12.6584C26.0894 11.3658 24.4074 10.7195 22.4684 10.7195C19.5683 10.7195 17.2483 12.1695 15.5082 15.0696C13.7682 17.9697 12.8898 22.3116 12.8733 28.0952C12.8733 32.0062 13.2627 35.2708 14.0416 37.8892C14.837 40.491 15.9557 42.4465 17.3974 43.7557C18.8392 45.0483 20.5295 45.6946 22.4684 45.6946ZM69.5183 54.196C65.8062 54.196 62.5001 53.558 59.6 52.282C56.7165 50.9893 54.4378 49.2161 52.7641 46.9624C51.1069 44.692 50.2534 42.0736 50.2037 39.1072H61.0418C61.1081 40.3501 61.5141 41.4439 62.2598 42.3885C63.0221 43.3165 64.033 44.0374 65.2925 44.5511C66.5519 45.0649 67.9689 45.3217 69.5432 45.3217C71.1838 45.3217 72.6339 45.0317 73.8933 44.4517C75.1528 43.8717 76.1388 43.0679 76.8514 42.0405C77.564 41.013 77.9203 39.8281 77.9203 38.4858C77.9203 37.1269 77.5392 35.9254 76.7769 34.8814C76.0311 33.8208 74.9539 32.9922 73.5453 32.3956C72.1533 31.799 70.4961 31.5007 68.5737 31.5007H63.8259V23.5959H68.5737C70.1978 23.5959 71.6313 23.3142 72.8742 22.7507C74.1336 22.1873 75.1114 21.4084 75.8074 20.4141C76.5034 19.4032 76.8514 18.2266 76.8514 16.8842C76.8514 15.6082 76.5448 14.4896 75.9317 13.5284C75.3351 12.5507 74.4899 11.7884 73.3962 11.2415C72.319 10.6946 71.0595 10.4212 69.6178 10.4212C68.1594 10.4212 66.8254 10.6863 65.6156 11.2166C64.4059 11.7303 63.4364 12.4678 62.7073 13.429C61.9781 14.3901 61.5886 15.517 61.5389 16.8097H51.2229C51.2726 13.8764 52.1095 11.2912 53.7335 9.05398C55.3576 6.81676 57.5451 5.06842 60.296 3.80895C63.0636 2.53291 66.1874 1.89488 69.6675 1.89488C73.1807 1.89488 76.2548 2.53291 78.8898 3.80895C81.5247 5.08499 83.5714 6.80847 85.0297 8.9794C86.5046 11.1338 87.2338 13.5533 87.2172 16.2379C87.2338 19.0883 86.3472 21.4664 84.5574 23.3722C82.7842 25.2779 80.4724 26.4877 77.622 27.0014V27.3991C81.3673 27.8797 84.2177 29.1806 86.1732 31.3018C88.1452 33.4065 89.123 36.0414 89.1064 39.2067C89.123 42.1068 88.2861 44.6837 86.5957 46.9375C84.922 49.1913 82.6102 50.9645 79.6604 52.2571C76.7106 53.5497 73.3299 54.196 69.5183 54.196Z"/>
</mask>
<path d="M22.4684 54.6186L22.4626 56.1186H22.4684V54.6186ZM11.4315 51.4616L10.5871 52.7014L10.5902 52.7035L11.4315 51.4616ZM4.34699 42.3885L2.96117 42.9625L2.96323 42.9675L4.34699 42.3885ZM1.91091 28.0952L3.41091 28.0996V28.0952H1.91091ZM4.37185 13.9013L2.99071 13.316L2.98862 13.321L4.37185 13.9013ZM11.4564 4.97727L12.2869 6.22639L12.2884 6.22535L11.4564 4.97727ZM33.4557 4.97727L32.6205 6.22328L32.6236 6.22535L33.4557 4.97727ZM40.565 13.9261L39.1839 14.5114L39.1848 14.5135L40.565 13.9261ZM43.026 28.0952L41.526 28.0907V28.0952H43.026ZM40.5402 42.4134L39.1564 41.8344L39.1544 41.8393L40.5402 42.4134ZM33.4805 51.4865L34.3249 52.7263L33.4805 51.4865ZM29.4535 41.2947L30.7436 42.06L29.4535 41.2947ZM32.0388 28.0952H30.5387L30.5388 28.0994L32.0388 28.0952ZM30.8456 18.4503L29.4101 18.8856L29.4127 18.894L30.8456 18.4503ZM27.5146 12.6584L26.5069 13.7695L26.5133 13.7752L27.5146 12.6584ZM15.5082 15.0696L14.222 14.2979L14.222 14.2979L15.5082 15.0696ZM12.8733 28.0952L11.3733 28.0909V28.0952H12.8733ZM14.0416 37.8892L12.6038 38.3169L12.6071 38.3278L14.0416 37.8892ZM17.3974 43.7557L16.389 44.8662L16.3961 44.8725L17.3974 43.7557ZM22.4684 54.6186L22.4743 53.1186C18.4511 53.103 15.0733 52.1169 12.2728 50.2198L11.4315 51.4616L10.5902 52.7035C13.9545 54.9825 17.9346 56.101 22.4626 56.1186L22.4684 54.6186ZM11.4315 51.4616L12.2759 50.2219C9.48597 48.3217 7.29395 45.5456 5.73075 41.8095L4.34699 42.3885L2.96323 42.9675C4.71443 47.1528 7.24541 50.4254 10.5871 52.7014L11.4315 51.4616ZM4.34699 42.3885L5.7328 41.8145C4.18715 38.083 3.39475 33.5259 3.4109 28.0996L1.91091 28.0952L0.410917 28.0907C0.393923 33.8008 1.22558 38.7725 2.96118 42.9625L4.34699 42.3885ZM1.91091 28.0952H3.41091C3.41091 22.6842 4.21135 18.1615 5.75507 14.4815L4.37185 13.9013L2.98862 13.321C1.2511 17.463 0.41091 22.4029 0.41091 28.0952H1.91091ZM4.37185 13.9013L5.75298 14.4865C7.31366 10.8033 9.50155 8.07824 12.2869 6.22639L11.4564 4.97727L10.6259 3.72816C7.27955 5.95301 4.74443 9.17729 2.99072 13.3161L4.37185 13.9013ZM11.4564 4.97727L12.2884 6.22535C15.089 4.35827 18.46 3.39488 22.4684 3.39488V1.89488V0.394884C17.9589 0.394884 13.9885 1.48643 10.6243 3.7292L11.4564 4.97727ZM22.4684 1.89488V3.39488C26.4771 3.39488 29.8381 4.35833 32.6205 6.22327L33.4557 4.97727L34.2908 3.73127C30.9416 1.48637 26.9778 0.394884 22.4684 0.394884V1.89488ZM33.4557 4.97727L32.6236 6.22535C35.4278 8.09483 37.6238 10.8296 39.1839 14.5114L40.565 13.9261L41.9462 13.3409C40.1918 9.20073 37.6483 5.96956 34.2877 3.7292L33.4557 4.97727ZM40.565 13.9261L39.1848 14.5135C40.7417 18.1722 41.5421 22.6821 41.526 28.0907L43.026 28.0952L44.526 28.0996C44.543 22.405 43.7027 17.4689 41.9453 13.3388L40.565 13.9261ZM43.026 28.0952H41.526C41.526 33.5382 40.7176 38.1032 39.1564 41.8344L40.5402 42.4134L41.9239 42.9923C43.6772 38.8021 44.526 33.8217 44.526 28.0952H43.026ZM40.5402 42.4134L39.1544 41.8393C37.6077 45.5732 35.4246 48.3475 32.6361 50.2467L33.4805 51.4865L34.3249 52.7263C37.668 50.4493 40.1914 47.1749 41.926 42.9874L40.5402 42.4134ZM33.4805 51.4865L32.6361 50.2467C29.8557 52.1404 26.4902 53.1186 22.4684 53.1186V54.6186V56.1186C26.9979 56.1186 30.9737 55.0087 34.3249 52.7263L33.4805 51.4865ZM22.4684 45.6946V47.1946C26.0129 47.1946 28.7875 45.3574 30.7436 42.06L29.4535 41.2947L28.1634 40.5294C26.6394 43.0986 24.7573 44.1946 22.4684 44.1946V45.6946ZM29.4535 41.2947L30.7436 42.06C32.6887 38.7812 33.5556 34.0571 33.5387 28.0909L32.0388 28.0952L30.5388 28.0994C30.555 33.8662 29.6985 37.9418 28.1634 40.5294L29.4535 41.2947ZM32.0388 28.0952H33.5388C33.5388 24.1431 33.1331 20.7665 32.2784 18.0066L30.8456 18.4503L29.4127 18.894C30.1489 21.2713 30.5388 24.3247 30.5388 28.0952H32.0388ZM30.8456 18.4503L32.281 18.015C31.452 15.2809 30.2263 13.075 28.5159 11.5415L27.5146 12.6584L26.5133 13.7752C27.6864 14.827 28.6814 16.4824 29.4101 18.8856L30.8456 18.4503ZM27.5146 12.6584L28.5223 11.5473C26.8188 10.0023 24.7767 9.21946 22.4684 9.21946V10.7195V12.2195C24.038 12.2195 25.36 12.7293 26.5069 13.7695L27.5146 12.6584ZM22.4684 10.7195V9.21946C18.9455 9.21946 16.1798 11.0348 14.222 14.2979L15.5082 15.0696L16.7945 15.8413C18.3167 13.3043 20.1912 12.2195 22.4684 12.2195V10.7195ZM15.5082 15.0696L14.222 14.2979C12.276 17.5411 11.3901 22.2057 11.3733 28.0909L12.8733 28.0952L14.3733 28.0995C14.3895 22.4174 15.2603 18.3983 16.7945 15.8413L15.5082 15.0696ZM12.8733 28.0952H11.3733C11.3733 32.0941 11.7701 35.5141 12.6039 38.3169L14.0416 37.8892L15.4793 37.4615C14.7553 35.0276 14.3733 31.9182 14.3733 28.0952H12.8733ZM14.0416 37.8892L12.6071 38.3278C13.4517 41.0901 14.6833 43.3172 16.389 44.8662L17.3974 43.7557L18.4058 42.6452C17.2281 41.5758 16.2224 39.892 15.476 37.4506L14.0416 37.8892ZM17.3974 43.7557L16.3961 44.8725C18.1134 46.4122 20.1605 47.1946 22.4684 47.1946V45.6946V44.1946C20.8986 44.1946 19.5649 43.6844 18.3987 42.6388L17.3974 43.7557ZM59.6 52.282L58.9864 53.6508L58.9959 53.6549L59.6 52.282ZM52.7641 46.9624L51.5525 47.8467L51.5598 47.8567L52.7641 46.9624ZM50.2037 39.1072V37.6072H48.6784L48.7039 39.1324L50.2037 39.1072ZM61.0418 39.1072L62.5396 39.0274L62.4639 37.6072H61.0418V39.1072ZM62.2598 42.3885L61.0825 43.318L61.0915 43.3294L61.1007 43.3406L62.2598 42.3885ZM65.2925 44.5511L64.726 45.94L65.2925 44.5511ZM73.8933 44.4517L73.2659 43.0892L73.8933 44.4517ZM76.8514 42.0405L78.084 42.8953V42.8953L76.8514 42.0405ZM76.7769 34.8814L75.5498 35.7442L75.5575 35.7551L75.5654 35.7659L76.7769 34.8814ZM73.5453 32.3956L72.9544 33.7743L72.9603 33.7768L73.5453 32.3956ZM63.8259 31.5007H62.3259V33.0007H63.8259V31.5007ZM63.8259 23.5959V22.0959H62.3259V23.5959H63.8259ZM72.8742 22.7507L72.2616 21.3815L72.2548 21.3845L72.8742 22.7507ZM75.8074 20.4141L77.0363 21.2743L77.0429 21.2647L75.8074 20.4141ZM75.9317 13.5284L74.6512 14.3097L74.659 14.3225L74.6671 14.3351L75.9317 13.5284ZM73.3962 11.2415L72.7171 12.579L72.7254 12.5831L73.3962 11.2415ZM65.6156 11.2166L66.2019 12.5973L66.2099 12.5939L66.2178 12.5904L65.6156 11.2166ZM62.7073 13.429L63.9023 14.3356V14.3356L62.7073 13.429ZM61.5389 16.8097V18.3097H62.9823L63.0378 16.8673L61.5389 16.8097ZM51.2229 16.8097L49.7231 16.7842L49.6972 18.3097H51.2229V16.8097ZM53.7335 9.05398L54.9474 9.93517L54.9474 9.93516L53.7335 9.05398ZM60.296 3.80895L60.9204 5.17281L60.9241 5.17112L60.296 3.80895ZM78.8898 3.80895L79.5436 2.45892L79.5436 2.45892L78.8898 3.80895ZM85.0297 8.9794L83.7845 9.81587L83.792 9.82677L85.0297 8.9794ZM87.2172 16.2379L85.7172 16.2287L85.7172 16.2377L85.7172 16.2466L87.2172 16.2379ZM84.5574 23.3722L83.464 22.3453L83.4592 22.3504L84.5574 23.3722ZM77.622 27.0014L77.356 25.5252L76.122 25.7476V27.0014H77.622ZM77.622 27.3991H76.122V28.719L77.4311 28.8869L77.622 27.3991ZM86.1732 31.3018L85.0703 32.3186L85.0786 32.3275L86.1732 31.3018ZM89.1064 39.2067L87.6064 39.1988L87.6064 39.207L87.6064 39.2152L89.1064 39.2067ZM86.5957 46.9375L85.3957 46.0375L85.3915 46.0432L86.5957 46.9375ZM79.6604 52.2571L79.0583 50.8832L79.6604 52.2571ZM69.5183 54.196V52.696C65.9789 52.696 62.884 52.0881 60.2041 50.909L59.6 52.282L58.9959 53.6549C62.1162 55.0279 65.6335 55.696 69.5183 55.696V54.196ZM59.6 52.282L60.2136 50.9132C57.5344 49.7122 55.4706 48.0909 53.9683 46.068L52.7641 46.9624L51.5598 47.8567C53.4051 50.3414 55.8986 52.2665 58.9864 53.6507L59.6 52.282ZM52.7641 46.9624L53.9756 46.078C52.5112 44.0718 51.7483 41.7574 51.7035 39.0821L50.2037 39.1072L48.7039 39.1324C48.7585 42.3899 49.7025 45.3122 51.5525 47.8467L52.7641 46.9624ZM50.2037 39.1072V40.6072H61.0418V39.1072V37.6072H50.2037V39.1072ZM61.0418 39.1072L59.5439 39.1871C59.6261 40.7283 60.1378 42.1214 61.0825 43.318L62.2598 42.3885L63.4371 41.459C62.8903 40.7664 62.59 39.972 62.5396 39.0274L61.0418 39.1072ZM62.2598 42.3885L61.1007 43.3406C62.0412 44.4855 63.2667 45.3448 64.726 45.94L65.2925 44.5511L65.859 43.1622C64.7993 42.73 64.0031 42.1476 63.4189 41.4364L62.2598 42.3885ZM65.2925 44.5511L64.726 45.94C66.1913 46.5377 67.8048 46.8217 69.5432 46.8217V45.3217V43.8217C68.1329 43.8217 66.9126 43.592 65.859 43.1622L65.2925 44.5511ZM69.5432 45.3217V46.8217C71.3612 46.8217 73.0318 46.4999 74.5208 45.8142L73.8933 44.4517L73.2659 43.0892C72.2359 43.5636 71.0064 43.8217 69.5432 43.8217V45.3217ZM73.8933 44.4517L74.5208 45.8142C75.9965 45.1346 77.2024 44.1664 78.084 42.8953L76.8514 42.0405L75.6189 41.1856C75.0752 41.9695 74.3092 42.6088 73.2659 43.0892L73.8933 44.4517ZM76.8514 42.0405L78.084 42.8953C78.9837 41.598 79.4203 40.11 79.4203 38.4858H77.9203H76.4203C76.4203 39.5462 76.1443 40.428 75.6189 41.1856L76.8514 42.0405ZM77.9203 38.4858H79.4203C79.4203 36.8263 78.9481 35.3114 77.9883 33.9968L76.7769 34.8814L75.5654 35.7659C76.1302 36.5395 76.4203 37.4275 76.4203 38.4858H77.9203ZM76.7769 34.8814L78.0039 34.0186C77.0698 32.6901 75.7501 31.7004 74.1303 31.0144L73.5453 32.3956L72.9603 33.7768C74.1577 34.284 74.9925 34.9515 75.5498 35.7442L76.7769 34.8814ZM73.5453 32.3956L74.1362 31.0169C72.5145 30.3218 70.6466 30.0007 68.5737 30.0007V31.5007V33.0007C70.3456 33.0007 71.7921 33.2762 72.9544 33.7743L73.5453 32.3956ZM68.5737 31.5007V30.0007H63.8259V31.5007V33.0007H68.5737V31.5007ZM63.8259 31.5007H65.3259V23.5959H63.8259H62.3259V31.5007H63.8259ZM63.8259 23.5959V25.0959H68.5737V23.5959V22.0959H63.8259V23.5959ZM68.5737 23.5959V25.0959C70.3714 25.0959 72.0226 24.7837 73.4935 24.1169L72.8742 22.7507L72.2548 21.3845C71.2399 21.8446 70.0242 22.0959 68.5737 22.0959V23.5959ZM72.8742 22.7507L73.4867 24.1199C74.9593 23.4612 76.1642 22.52 77.0362 21.2743L75.8074 20.4141L74.5785 19.5539C74.0585 20.2968 73.308 20.9134 72.2616 21.3815L72.8742 22.7507ZM75.8074 20.4141L77.0429 21.2647C77.9273 19.9801 78.3514 18.5006 78.3514 16.8842H76.8514H75.3514C75.3514 17.9526 75.0795 18.8262 74.5719 19.5634L75.8074 20.4141ZM76.8514 16.8842H78.3514C78.3514 15.3575 77.981 13.9519 77.1963 12.7217L75.9317 13.5284L74.6671 14.3351C75.1087 15.0273 75.3514 15.8589 75.3514 16.8842H76.8514ZM75.9317 13.5284L77.2121 12.7471C76.4589 11.5127 75.3947 10.5637 74.067 9.89984L73.3962 11.2415L72.7254 12.5831C73.5851 13.013 74.2113 13.5887 74.6512 14.3097L75.9317 13.5284ZM73.3962 11.2415L74.0752 9.90398C72.7506 9.2315 71.2502 8.92116 69.6178 8.92116V10.4212V11.9212C70.8689 11.9212 71.8874 12.1577 72.7171 12.579L73.3962 11.2415ZM69.6178 10.4212V8.92116C67.9738 8.92116 66.432 9.22099 65.0134 9.84281L65.6156 11.2166L66.2178 12.5904C67.2188 12.1516 68.345 11.9212 69.6178 11.9212V10.4212ZM65.6156 11.2166L65.0293 9.83595C63.601 10.4425 62.4134 11.3344 61.5122 12.5224L62.7073 13.429L63.9023 14.3356C64.4594 13.6012 65.2108 13.0182 66.2019 12.5973L65.6156 11.2166ZM62.7073 13.429L61.5122 12.5224C60.5834 13.7467 60.1007 15.1754 60.04 16.752L61.5389 16.8097L63.0378 16.8673C63.0766 15.8587 63.3727 15.0336 63.9023 14.3356L62.7073 13.429ZM61.5389 16.8097V15.3097H51.2229V16.8097V18.3097H61.5389V16.8097ZM51.2229 16.8097L52.7227 16.8351C52.7675 14.1898 53.5156 11.9076 54.9474 9.93517L53.7335 9.05398L52.5196 8.17279C50.7034 10.6748 49.7777 13.5631 49.7231 16.7842L51.2229 16.8097ZM53.7335 9.05398L54.9474 9.93516C56.4057 7.92624 58.3815 6.33521 60.9204 5.1728L60.296 3.80895L59.6716 2.44509C56.7087 3.80162 54.3094 5.70727 52.5196 8.17279L53.7335 9.05398ZM60.296 3.80895L60.9241 5.17112C63.4685 3.99794 66.3735 3.39488 69.6675 3.39488V1.89488V0.394884C66.0013 0.394884 62.6586 1.06787 59.668 2.44677L60.296 3.80895ZM69.6675 1.89488V3.39488C72.999 3.39488 75.8416 3.99943 78.236 5.15897L78.8898 3.80895L79.5436 2.45892C76.6681 1.06638 73.3625 0.394884 69.6675 0.394884V1.89488ZM78.8898 3.80895L78.236 5.15897C80.661 6.33336 82.4915 7.89093 83.7846 9.81583L85.0297 8.9794L86.2748 8.14297C84.6512 5.72602 82.3884 3.83662 79.5436 2.45892L78.8898 3.80895ZM85.0297 8.9794L83.792 9.82677C85.0891 11.7215 85.732 13.8404 85.7172 16.2287L87.2172 16.2379L88.7172 16.2472C88.7356 13.2661 87.9201 10.546 86.2674 8.13203L85.0297 8.9794ZM87.2172 16.2379L85.7172 16.2466C85.7318 18.7504 84.9656 20.7463 83.464 22.3453L84.5574 23.3722L85.6508 24.399C87.7287 22.1864 88.7358 19.4262 88.7172 16.2292L87.2172 16.2379ZM84.5574 23.3722L83.4592 22.3504C81.9318 23.992 79.925 25.0622 77.356 25.5252L77.622 27.0014L77.8881 28.4776C81.0199 27.9132 83.6366 26.5638 85.6556 24.3939L84.5574 23.3722ZM77.622 27.0014H76.122V27.3991H77.622H79.122V27.0014H77.622ZM77.622 27.3991L77.4311 28.8869C80.936 29.3367 83.4194 30.5278 85.0703 32.3186L86.1732 31.3018L87.276 30.2851C85.0159 27.8335 81.7986 26.4228 77.8129 25.9113L77.622 27.3991ZM86.1732 31.3018L85.0786 32.3275C86.7617 34.1237 87.6212 36.3765 87.6064 39.1988L89.1064 39.2067L90.6064 39.2145C90.6247 35.7064 89.5287 32.6892 87.2677 30.2762L86.1732 31.3018ZM89.1064 39.2067L87.6064 39.2152C87.6212 41.7982 86.8835 44.0539 85.3958 46.0375L86.5957 46.9375L87.7958 47.8375C89.6887 45.3135 90.6248 42.4153 90.6064 39.1981L89.1064 39.2067ZM86.5957 46.9375L85.3915 46.0432C83.895 48.0583 81.8048 49.6797 79.0583 50.8832L79.6604 52.2571L80.2624 53.631C83.4156 52.2493 85.9489 50.3243 87.8 47.8318L86.5957 46.9375ZM79.6604 52.2571L79.0583 50.8832C76.3299 52.0788 73.1601 52.696 69.5183 52.696V54.196V55.696C73.4996 55.696 77.0912 55.0206 80.2624 53.631L79.6604 52.2571Z" fill="#EB971B" mask="url(#path-1-outside-1_2609_92760)"/>
</svg>
