<svg width="69" height="68" viewBox="0 0 69 68" fill="none" xmlns="http://www.w3.org/2000/svg">
<g filter="url(#filter0_d_3872_97209)">
<g clip-path="url(#clip0_3872_97209)">
<rect x="4.5" y="4" width="60" height="60" rx="30" fill="url(#paint0_radial_3872_97209)"/>
<path d="M30.7871 22H25.2754C23.745 22 22.5 23.245 22.5 24.7754V30.2871C22.5 31.8175 23.745 33.0625 25.2754 33.0625H30.7871C32.3175 33.0625 33.5625 31.8175 33.5625 30.2871V24.7754C33.5625 23.245 32.3175 22 30.7871 22ZM31.6875 30.2871C31.6875 30.7836 31.2836 31.1875 30.7871 31.1875H25.2754C24.7789 31.1875 24.375 30.7836 24.375 30.2871V24.7754C24.375 24.2789 24.7789 23.875 25.2754 23.875H30.7871C31.2836 23.875 31.6875 24.2789 31.6875 24.7754V30.2871ZM43.6875 22H38.25C36.6992 22 35.4375 23.2617 35.4375 24.8125V30.25C35.4375 31.8008 36.6992 33.0625 38.25 33.0625H43.6875C45.2383 33.0625 46.5 31.8008 46.5 30.25V24.8125C46.5 23.2617 45.2383 22 43.6875 22ZM44.625 30.25C44.625 30.7669 44.2044 31.1875 43.6875 31.1875H38.25C37.7331 31.1875 37.3125 30.7669 37.3125 30.25V24.8125C37.3125 24.2956 37.7331 23.875 38.25 23.875H43.6875C44.2044 23.875 44.625 24.2956 44.625 24.8125V30.25ZM30.7871 34.9375H25.2754C23.745 34.9375 22.5 36.1825 22.5 37.7129V43.2246C22.5 44.755 23.745 46 25.2754 46H30.7871C32.3175 46 33.5625 44.755 33.5625 43.2246V37.7129C33.5625 36.1825 32.3175 34.9375 30.7871 34.9375ZM31.6875 43.2246C31.6875 43.7211 31.2836 44.125 30.7871 44.125H25.2754C24.7789 44.125 24.375 43.7211 24.375 43.2246V37.7129C24.375 37.2164 24.7789 36.8125 25.2754 36.8125H30.7871C31.2836 36.8125 31.6875 37.2164 31.6875 37.7129V43.2246ZM43.6875 34.9375H38.25C36.6992 34.9375 35.4375 36.1992 35.4375 37.75V43.1875C35.4375 44.7383 36.6992 46 38.25 46H43.6875C45.2383 46 46.5 44.7383 46.5 43.1875V37.75C46.5 36.1992 45.2383 34.9375 43.6875 34.9375ZM44.625 43.1875C44.625 43.7044 44.2044 44.125 43.6875 44.125H38.25C37.7331 44.125 37.3125 43.7044 37.3125 43.1875V37.75C37.3125 37.2331 37.7331 36.8125 38.25 36.8125H43.6875C44.2044 36.8125 44.625 37.2331 44.625 37.75V43.1875Z" fill="#EB971B"/>
<rect x="5" y="4.5" width="59" height="59" rx="29.5" stroke="#F3F3F1"/>
</g>
</g>
<defs>
<filter id="filter0_d_3872_97209" x="0.5" y="0" width="68" height="68" filterUnits="userSpaceOnUse" color-interpolation-filters="sRGB">
<feFlood flood-opacity="0" result="BackgroundImageFix"/>
<feColorMatrix in="SourceAlpha" type="matrix" values="0 0 0 0 0 0 0 0 0 0 0 0 0 0 0 0 0 0 127 0" result="hardAlpha"/>
<feMorphology radius="1" operator="dilate" in="SourceAlpha" result="effect1_dropShadow_3872_97209"/>
<feOffset/>
<feGaussianBlur stdDeviation="1.5"/>
<feComposite in2="hardAlpha" operator="out"/>
<feColorMatrix type="matrix" values="0 0 0 0 0.952941 0 0 0 0 0.952941 0 0 0 0 0.945098 0 0 0 1 0"/>
<feBlend mode="normal" in2="BackgroundImageFix" result="effect1_dropShadow_3872_97209"/>
<feBlend mode="normal" in="SourceGraphic" in2="effect1_dropShadow_3872_97209" result="shape"/>
</filter>
<radialGradient id="paint0_radial_3872_97209" cx="0" cy="0" r="1" gradientUnits="userSpaceOnUse" gradientTransform="translate(34.5 34) scale(39.6 20.4)">
<stop stop-color="#F0ECE7"/>
<stop offset="1" stop-color="white"/>
</radialGradient>
<clipPath id="clip0_3872_97209">
<rect x="4.5" y="4" width="60" height="60" rx="30" fill="white"/>
</clipPath>
</defs>
</svg>
