<svg width="164" height="57" viewBox="0 0 164 57" fill="none" xmlns="http://www.w3.org/2000/svg">
<rect x="0.71543" y="0.71543" width="162.069" height="55.5691" rx="7.86973" fill="white"/>
<rect x="0.71543" y="0.71543" width="162.069" height="55.5691" rx="7.86973" stroke="black" stroke-width="1.43086"/>
<path d="M35.3491 29.7111C35.3664 28.3949 35.7245 27.1043 36.3901 25.9595C37.0556 24.8146 38.007 23.8528 39.1556 23.1634C38.4259 22.1459 37.4633 21.3086 36.3442 20.718C35.225 20.1273 33.9803 19.7995 32.7087 19.7607C29.9963 19.4827 27.3667 21.3453 25.9844 21.3453C24.5755 21.3453 22.4474 19.7883 20.1557 19.8343C18.6734 19.8811 17.2288 20.3019 15.9626 21.0558C14.6964 21.8097 13.6519 22.871 12.9307 24.1362C9.80681 29.4166 12.1369 37.1771 15.1294 41.4454C16.6266 43.5355 18.3764 45.8701 20.666 45.7874C22.9065 45.6966 23.7433 44.3925 26.4477 44.3925C29.1271 44.3925 29.9121 45.7874 32.2482 45.7347C34.6524 45.6966 36.1671 43.6354 37.6118 41.5255C38.6875 40.0362 39.5153 38.3903 40.0645 36.6486C38.6677 36.0719 37.4758 35.1065 36.6372 33.8728C35.7987 32.6391 35.3507 31.1917 35.3491 29.7111Z" fill="black"/>
<path d="M30.9374 16.9539C32.2483 15.4176 32.8941 13.4429 32.7377 11.4492C30.735 11.6546 28.8851 12.589 27.5566 14.0664C26.907 14.7881 26.4095 15.6278 26.0925 16.5374C25.7755 17.4469 25.6453 18.4086 25.7092 19.3673C26.7109 19.3774 27.7018 19.1654 28.6075 18.7474C29.5131 18.3293 30.3097 17.7161 30.9374 16.9539Z" fill="black"/>
<path d="M52.7358 13.0176H55.0393C57.0298 13.0176 57.9981 14.2012 57.9981 16.3482C57.9981 18.4952 57.02 19.6934 55.0393 19.6934H52.7358V13.0176ZM53.846 13.9518V18.7592H54.917C56.2375 18.7592 56.8586 17.9621 56.8586 16.3628C56.8586 14.7538 56.2326 13.9518 54.917 13.9518H53.846ZM61.5096 14.4359C62.8594 14.4359 63.8033 15.3114 63.8033 16.7639V17.4339C63.8033 18.9353 62.8594 19.7814 61.5096 19.7814C60.1402 19.7814 59.2061 18.9451 59.2061 17.4388V16.7688C59.2061 15.3554 60.1549 14.4359 61.5096 14.4359ZM61.5145 15.3114C60.7417 15.3114 60.3016 15.9569 60.3016 16.8226V17.3997C60.3016 18.2653 60.7124 18.906 61.5145 18.906C62.3068 18.906 62.7127 18.2702 62.7127 17.3997V16.8226C62.7127 15.9569 62.2872 15.3114 61.5145 15.3114ZM71.775 14.524L70.4154 19.6934H69.3101L68.2293 15.8787H68.2L67.1387 19.6934H66.0285L64.6102 14.524H65.7791L66.6105 18.4658H66.6594L67.7011 14.524H68.7233L69.7943 18.4658H69.8432L70.6893 14.524H71.775ZM72.851 19.6934V14.524H73.9171V15.4532H73.9709C74.103 15.0473 74.4795 14.4457 75.5261 14.4457C76.5678 14.4457 77.2672 15.0228 77.2672 16.2014V19.6934H76.1815V16.5193C76.1815 15.7319 75.7707 15.37 75.1593 15.37C74.3573 15.37 73.9367 15.9863 73.9367 16.8226V19.6934H72.851ZM78.9104 19.6934V12.6655H79.9962V19.6934H78.9104ZM83.7228 14.4359C85.0726 14.4359 86.0165 15.3114 86.0165 16.7639V17.4339C86.0165 18.9353 85.0726 19.7814 83.7228 19.7814C82.3535 19.7814 81.4193 18.9451 81.4193 17.4388V16.7688C81.4193 15.3554 82.3681 14.4359 83.7228 14.4359ZM83.7277 15.3114C82.955 15.3114 82.5148 15.9569 82.5148 16.8226V17.3997C82.5148 18.2653 82.9257 18.906 83.7277 18.906C84.52 18.906 84.9259 18.2702 84.9259 17.3997V16.8226C84.9259 15.9569 84.5004 15.3114 83.7277 15.3114ZM88.8287 19.7716C87.8261 19.7716 87.1365 19.1554 87.1365 18.1919C87.1365 17.2774 87.7723 16.6612 88.9656 16.6612H90.2714V16.177C90.2714 15.5852 89.8948 15.3065 89.2982 15.3065C88.7113 15.3065 88.4472 15.551 88.364 15.8933H87.3321C87.3957 15.0277 88.0462 14.4457 89.3324 14.4457C90.4377 14.4457 91.3522 14.9054 91.3522 16.1917V19.6934H90.3203V19.0233H90.2714C90.0415 19.4195 89.5916 19.7716 88.8287 19.7716ZM89.1661 18.9304C89.7823 18.9304 90.2714 18.5098 90.2714 17.9474V17.3899H89.1368C88.5059 17.3899 88.2271 17.7078 88.2271 18.1381C88.2271 18.6761 88.677 18.9304 89.1661 18.9304ZM94.6974 14.4555C95.4261 14.4555 95.9836 14.7783 96.1842 15.3016H96.238V12.6655H97.3237V19.6934H96.2673V18.8668H96.2135C96.057 19.3901 95.4359 19.7618 94.6827 19.7618C93.4943 19.7618 92.7216 18.9157 92.7216 17.5513V16.6661C92.7216 15.3016 93.509 14.4555 94.6974 14.4555ZM95.0006 15.3456C94.2768 15.3456 93.8269 15.8836 93.8269 16.8226V17.3899C93.8269 18.3338 94.2817 18.8717 95.0251 18.8717C95.7587 18.8717 96.238 18.3387 96.238 17.4583V16.6758C96.238 15.8787 95.7147 15.3456 95.0006 15.3456ZM103.285 14.4359C104.635 14.4359 105.579 15.3114 105.579 16.7639V17.4339C105.579 18.9353 104.635 19.7814 103.285 19.7814C101.916 19.7814 100.982 18.9451 100.982 17.4388V16.7688C100.982 15.3554 101.931 14.4359 103.285 14.4359ZM103.29 15.3114C102.518 15.3114 102.077 15.9569 102.077 16.8226V17.3997C102.077 18.2653 102.488 18.906 103.29 18.906C104.083 18.906 104.488 18.2702 104.488 17.3997V16.8226C104.488 15.9569 104.063 15.3114 103.29 15.3114ZM106.978 19.6934V14.524H108.044V15.4532H108.098C108.23 15.0473 108.606 14.4457 109.653 14.4457C110.695 14.4457 111.394 15.0228 111.394 16.2014V19.6934H110.308V16.5193C110.308 15.7319 109.898 15.37 109.286 15.37C108.484 15.37 108.064 15.9863 108.064 16.8226V19.6934H106.978ZM115.595 14.5582V13.2671H116.656V14.5582H117.815V15.4092H116.656V18.1528C116.656 18.7152 116.867 18.8717 117.449 18.8717C117.595 18.8717 117.791 18.862 117.874 18.8522V19.6836C117.786 19.6983 117.424 19.7276 117.18 19.7276C115.923 19.7276 115.58 19.2777 115.58 18.2408V15.4092H114.793V14.5582H115.595ZM119.185 19.6934V12.6655H120.266V15.4532H120.319C120.432 15.0864 120.853 14.4457 121.889 14.4457C122.897 14.4457 123.616 15.0277 123.616 16.2063V19.6934H122.535V16.5242C122.535 15.7368 122.1 15.37 121.483 15.37C120.706 15.37 120.266 15.9814 120.266 16.8226V19.6934H119.185ZM127.259 19.7814C125.851 19.7814 124.975 18.9157 124.975 17.4583V16.759C124.975 15.2918 125.934 14.4359 127.196 14.4359C128.492 14.4359 129.406 15.3358 129.406 16.759V17.3654H126.051V17.6197C126.051 18.3631 126.491 18.9109 127.254 18.9109C127.822 18.9109 128.213 18.6419 128.286 18.3191H129.348C129.284 18.9157 128.653 19.7814 127.259 19.7814ZM126.051 16.6563H128.345V16.5878C128.345 15.8102 127.89 15.2918 127.201 15.2918C126.511 15.2918 126.051 15.8102 126.051 16.5878V16.6563Z" fill="black"/>
<path d="M53.8918 39.6934H52.0177L55.8308 28.6191H57.8915L61.6965 39.6934H59.7494L58.7677 36.6267H54.8816L53.8918 39.6934ZM56.8693 30.5338H56.7963L55.2954 35.215H58.354L56.8693 30.5338ZM66.8687 39.8151C65.7573 39.8151 64.9135 39.2877 64.4592 38.5008H64.3943V42.541H62.5932V31.1179H64.3456V32.3755H64.4105C64.8811 31.556 65.7573 31.0044 66.9093 31.0044C68.8321 31.0044 70.2032 32.4566 70.2032 35.0203V35.7829C70.2032 38.3304 68.8483 39.8151 66.8687 39.8151ZM66.455 38.3304C67.5989 38.3304 68.3778 37.4136 68.3778 35.6855V35.0852C68.3778 33.422 67.6476 32.4728 66.4225 32.4728C65.165 32.4728 64.3781 33.495 64.3781 35.0771V35.6855C64.3781 37.3081 65.1731 38.3304 66.455 38.3304ZM76.0244 39.8151C74.913 39.8151 74.0692 39.2877 73.6149 38.5008H73.55V42.541H71.7489V31.1179H73.5013V32.3755H73.5662C74.0368 31.556 74.913 31.0044 76.065 31.0044C77.9878 31.0044 79.3589 32.4566 79.3589 35.0203V35.7829C79.3589 38.3304 78.004 39.8151 76.0244 39.8151ZM75.6107 38.3304C76.7546 38.3304 77.5334 37.4136 77.5334 35.6855V35.0852C77.5334 33.422 76.8033 32.4728 75.5782 32.4728C74.3207 32.4728 73.5337 33.495 73.5337 35.0771V35.6855C73.5337 37.3081 74.3288 38.3304 75.6107 38.3304ZM83.0912 36.6185H84.8923C84.9734 37.5759 85.8172 38.3953 87.383 38.3953C88.819 38.3953 89.6709 37.7219 89.6709 36.6753C89.6709 35.8316 89.103 35.3773 87.9185 35.0933L86.1012 34.639C84.6733 34.3063 83.3914 33.4545 83.3914 31.6534C83.3914 29.5359 85.2412 28.3758 87.3911 28.3758C89.5411 28.3758 91.334 29.5359 91.3746 31.6047H89.606C89.5248 30.6636 88.8028 29.8848 87.3668 29.8848C86.1012 29.8848 85.2412 30.4851 85.2412 31.5155C85.2412 32.2375 85.7442 32.7568 86.7745 32.992L88.5837 33.4383C90.2469 33.8439 91.5125 34.6309 91.5125 36.5131C91.5125 38.6873 89.752 39.9124 87.2451 39.9124C84.1622 39.9124 83.1318 38.1113 83.0912 36.6185ZM93.7073 31.1179V29.0329H95.4759V31.1179H97.1472V32.562H95.4759V37.1378C95.4759 38.0708 95.8248 38.3304 96.7902 38.3304C96.9444 38.3304 97.0904 38.3304 97.1959 38.3142V39.6934C97.0498 39.7177 96.7091 39.7502 96.344 39.7502C94.259 39.7502 93.6829 39.0038 93.6829 37.2838V32.562H92.4984V31.1179H93.7073ZM102.011 30.9719C104.477 30.9719 105.816 32.7081 105.816 35.0446V35.7342C105.816 38.1519 104.486 39.8394 102.011 39.8394C99.5366 39.8394 98.1899 38.1519 98.1899 35.7342V35.0446C98.1899 32.7162 99.5448 30.9719 102.011 30.9719ZM102.011 32.416C100.672 32.416 100.007 33.5113 100.007 35.069V35.7261C100.007 37.2595 100.664 38.3872 102.011 38.3872C103.358 38.3872 104.007 37.2676 104.007 35.7261V35.069C104.007 33.5032 103.35 32.416 102.011 32.416ZM107.337 39.6934V31.1179H109.139V32.2456H109.203C109.423 31.7102 110.063 30.9962 111.256 30.9962C111.491 30.9962 111.694 31.0125 111.865 31.0449V32.6351C111.71 32.5945 111.394 32.5702 111.094 32.5702C109.65 32.5702 109.163 33.4626 109.163 34.6146V39.6934H107.337ZM116.234 39.8394C113.938 39.8394 112.477 38.3223 112.477 35.7829V34.9148C112.477 32.5215 113.905 30.9719 116.161 30.9719C118.448 30.9719 119.828 32.5783 119.828 34.9959V35.8154H114.254V36.0182C114.254 37.4623 115.033 38.4196 116.258 38.4196C117.175 38.4196 117.799 37.9653 118.018 37.227H119.73C119.471 38.6143 118.351 39.8394 116.234 39.8394ZM114.254 34.5578H118.067V34.5416C118.067 33.3247 117.313 32.3673 116.169 32.3673C115.008 32.3673 114.254 33.3247 114.254 34.5416V34.5578Z" fill="black"/>
</svg>
