<svg width="200" height="57" viewBox="0 0 200 57" fill="none" xmlns="http://www.w3.org/2000/svg">
<rect x="0.71543" y="0.71543" width="198.569" height="55.5691" rx="7.86973" fill="white"/>
<rect x="0.71543" y="0.71543" width="198.569" height="55.5691" rx="7.86973" stroke="black" stroke-width="1.43086"/>
<path d="M35.3491 29.7111C35.3664 28.3949 35.7245 27.1043 36.3901 25.9595C37.0556 24.8146 38.007 23.8528 39.1556 23.1634C38.4259 22.1459 37.4633 21.3086 36.3442 20.718C35.225 20.1273 33.9803 19.7995 32.7087 19.7607C29.9963 19.4827 27.3667 21.3453 25.9844 21.3453C24.5755 21.3453 22.4474 19.7883 20.1557 19.8343C18.6734 19.8811 17.2288 20.3019 15.9626 21.0558C14.6964 21.8097 13.6519 22.871 12.9307 24.1362C9.80681 29.4166 12.1369 37.1771 15.1294 41.4454C16.6266 43.5355 18.3764 45.8701 20.666 45.7874C22.9065 45.6966 23.7433 44.3925 26.4477 44.3925C29.1271 44.3925 29.9121 45.7874 32.2482 45.7347C34.6524 45.6966 36.1671 43.6354 37.6118 41.5255C38.6875 40.0362 39.5153 38.3903 40.0645 36.6486C38.6677 36.0719 37.4758 35.1065 36.6372 33.8728C35.7987 32.6391 35.3507 31.1917 35.3491 29.7111Z" fill="black"/>
<path d="M30.9374 16.9539C32.2483 15.4176 32.8941 13.4429 32.7377 11.4492C30.735 11.6546 28.8851 12.589 27.5566 14.0664C26.907 14.7881 26.4095 15.6278 26.0925 16.5374C25.7755 17.4469 25.6453 18.4086 25.7092 19.3673C26.7109 19.3774 27.7018 19.1654 28.6075 18.7474C29.5131 18.3293 30.3097 17.7161 30.9374 16.9539Z" fill="black"/>
<path d="M52.6436 17.5341H55.6052C58.1644 17.5341 59.4094 19.0558 59.4094 21.8162C59.4094 24.5766 58.1518 26.1172 55.6052 26.1172H52.6436V17.5341ZM54.0709 18.7351V24.9162H55.448C57.1457 24.9162 57.9443 23.8913 57.9443 21.8351C57.9443 19.7664 57.1394 18.7351 55.448 18.7351H54.0709ZM63.9241 19.3576C65.6596 19.3576 66.8732 20.4832 66.8732 22.3507V23.2122C66.8732 25.1426 65.6596 26.2304 63.9241 26.2304C62.1635 26.2304 60.9625 25.1551 60.9625 23.2184V22.357C60.9625 20.5398 62.1824 19.3576 63.9241 19.3576ZM63.9304 20.4832C62.9369 20.4832 62.371 21.3132 62.371 22.4262V23.1681C62.371 24.2811 62.8992 25.1048 63.9304 25.1048C64.9491 25.1048 65.471 24.2874 65.471 23.1681V22.4262C65.471 21.3132 64.9239 20.4832 63.9304 20.4832ZM77.1226 19.4708L75.3745 26.1172H73.9534L72.5638 21.2126H72.5261L71.1616 26.1172H69.7342L67.9107 19.4708H69.4135L70.4825 24.5389H70.5454L71.8847 19.4708H73.1989L74.5759 24.5389H74.6388L75.7266 19.4708H77.1226ZM78.5059 26.1172V19.4708H79.8767V20.6655H79.9459C80.1156 20.1436 80.5998 19.3702 81.9454 19.3702C83.2848 19.3702 84.1839 20.1122 84.1839 21.6276V26.1172H82.788V22.0363C82.788 21.0239 82.2598 20.5586 81.4738 20.5586C80.4426 20.5586 79.9018 21.3509 79.9018 22.4262V26.1172H78.5059ZM86.2967 26.1172V17.0814H87.6926V26.1172H86.2967ZM92.484 19.3576C94.2195 19.3576 95.4331 20.4832 95.4331 22.3507V23.2122C95.4331 25.1426 94.2195 26.2304 92.484 26.2304C90.7234 26.2304 89.5224 25.1551 89.5224 23.2184V22.357C89.5224 20.5398 90.7423 19.3576 92.484 19.3576ZM92.4903 20.4832C91.4968 20.4832 90.9309 21.3132 90.9309 22.4262V23.1681C90.9309 24.2811 91.4591 25.1048 92.4903 25.1048C93.509 25.1048 94.0309 24.2874 94.0309 23.1681V22.4262C94.0309 21.3132 93.4838 20.4832 92.4903 20.4832ZM99.0487 26.2178C97.7596 26.2178 96.873 25.4255 96.873 24.1868C96.873 23.0109 97.6905 22.2187 99.2247 22.2187H100.904V21.5961C100.904 20.8353 100.419 20.4769 99.6523 20.4769C98.8978 20.4769 98.5582 20.7913 98.4513 21.2314H97.1246C97.2063 20.1185 98.0426 19.3702 99.6963 19.3702C101.117 19.3702 102.293 19.9613 102.293 21.615V26.1172H100.966V25.2557H100.904C100.608 25.7651 100.03 26.2178 99.0487 26.2178ZM99.4825 25.1363C100.275 25.1363 100.904 24.5955 100.904 23.8724V23.1556H99.4448C98.6337 23.1556 98.2752 23.5643 98.2752 24.1176C98.2752 24.8093 98.8537 25.1363 99.4825 25.1363ZM106.594 19.3828C107.531 19.3828 108.248 19.7978 108.506 20.4706H108.575V17.0814H109.971V26.1172H108.613V25.0545H108.543C108.342 25.7273 107.544 26.2052 106.575 26.2052C105.047 26.2052 104.054 25.1174 104.054 23.3631V22.2249C104.054 20.4706 105.066 19.3828 106.594 19.3828ZM106.984 20.5272C106.053 20.5272 105.475 21.2189 105.475 22.4262V23.1556C105.475 24.3691 106.06 25.0608 107.016 25.0608C107.959 25.0608 108.575 24.3754 108.575 23.2436V22.2375C108.575 21.2126 107.902 20.5272 106.984 20.5272ZM117.636 19.3576C119.371 19.3576 120.585 20.4832 120.585 22.3507V23.2122C120.585 25.1426 119.371 26.2304 117.636 26.2304C115.875 26.2304 114.674 25.1551 114.674 23.2184V22.357C114.674 20.5398 115.894 19.3576 117.636 19.3576ZM117.642 20.4832C116.649 20.4832 116.083 21.3132 116.083 22.4262V23.1681C116.083 24.2811 116.611 25.1048 117.642 25.1048C118.661 25.1048 119.183 24.2874 119.183 23.1681V22.4262C119.183 21.3132 118.636 20.4832 117.642 20.4832ZM122.383 26.1172V19.4708H123.754V20.6655H123.823C123.993 20.1436 124.477 19.3702 125.823 19.3702C127.162 19.3702 128.061 20.1122 128.061 21.6276V26.1172H126.665V22.0363C126.665 21.0239 126.137 20.5586 125.351 20.5586C124.32 20.5586 123.779 21.3509 123.779 22.4262V26.1172H122.383ZM133.463 19.5148V17.8548H134.827V19.5148H136.317V20.6089H134.827V24.1365C134.827 24.8596 135.098 25.0608 135.846 25.0608C136.034 25.0608 136.286 25.0482 136.393 25.0357V26.1046C136.28 26.1235 135.814 26.1612 135.5 26.1612C133.884 26.1612 133.444 25.5827 133.444 24.2497V20.6089H132.431V19.5148H133.463ZM138.078 26.1172V17.0814H139.468V20.6655H139.537C139.681 20.1939 140.222 19.3702 141.555 19.3702C142.851 19.3702 143.775 20.1185 143.775 21.6339V26.1172H142.385V22.0426C142.385 21.0302 141.826 20.5586 141.033 20.5586C140.034 20.5586 139.468 21.3446 139.468 22.4262V26.1172H138.078ZM148.459 26.2304C146.648 26.2304 145.523 25.1174 145.523 23.2436V22.3444C145.523 20.458 146.755 19.3576 148.378 19.3576C150.044 19.3576 151.22 20.5146 151.22 22.3444V23.1241H146.906V23.4511C146.906 24.4069 147.472 25.1111 148.453 25.1111C149.183 25.1111 149.686 24.7653 149.78 24.3503H151.144C151.063 25.1174 150.251 26.2304 148.459 26.2304ZM146.906 22.2124H149.855V22.1243C149.855 21.1246 149.271 20.458 148.384 20.458C147.497 20.458 146.906 21.1246 146.906 22.1243V22.2124Z" fill="black"/>
<path d="M54.6683 46.1172H51.7632L57.6739 28.9511H60.8682L66.7663 46.1172H63.7481L62.2264 41.3635H56.2025L54.6683 46.1172ZM59.2836 31.919H59.1704L56.8439 39.1753H61.585L59.2836 31.919ZM74.7838 46.3058C73.0609 46.3058 71.753 45.4884 71.0487 44.2685H70.9481V50.5313H68.1562V32.8244H70.8726V34.7737H70.9732C71.7027 33.5035 73.0609 32.6484 74.8466 32.6484C77.8271 32.6484 79.9525 34.8995 79.9525 38.8735V40.0556C79.9525 44.0044 77.8523 46.3058 74.7838 46.3058ZM74.1424 44.0044C75.9156 44.0044 77.1229 42.5834 77.1229 39.9047V38.9741C77.1229 36.396 75.991 34.9246 74.0921 34.9246C72.1428 34.9246 70.9229 36.5092 70.9229 38.9615V39.9047C70.9229 42.4199 72.1554 44.0044 74.1424 44.0044ZM88.976 46.3058C87.2531 46.3058 85.9452 45.4884 85.2409 44.2685H85.1403V50.5313H82.3485V32.8244H85.0649V34.7737H85.1655C85.8949 33.5035 87.2531 32.6484 89.0389 32.6484C92.0193 32.6484 94.1447 34.8995 94.1447 38.8735V40.0556C94.1447 44.0044 92.0445 46.3058 88.976 46.3058ZM88.3346 44.0044C90.1078 44.0044 91.3151 42.5834 91.3151 39.9047V38.9741C91.3151 36.396 90.1833 34.9246 88.2843 34.9246C86.335 34.9246 85.1152 36.5092 85.1152 38.9615V39.9047C85.1152 42.4199 86.3476 44.0044 88.3346 44.0044ZM99.9302 41.3509H102.722C102.848 42.8349 104.156 44.105 106.583 44.105C108.809 44.105 110.129 43.0612 110.129 41.4389C110.129 40.1311 109.249 39.4268 107.413 38.9866L104.596 38.2824C102.383 37.7668 100.396 36.4463 100.396 33.6545C100.396 30.3721 103.263 28.5738 106.595 28.5738C109.928 28.5738 112.707 30.3721 112.77 33.579H110.029C109.903 32.1202 108.784 30.9129 106.558 30.9129C104.596 30.9129 103.263 31.8435 103.263 33.4407C103.263 34.5599 104.043 35.3648 105.64 35.7295L108.444 36.4212C111.022 37.05 112.984 38.2698 112.984 41.1874C112.984 44.5578 110.255 46.4567 106.369 46.4567C101.59 46.4567 99.9931 43.6649 99.9302 41.3509ZM116.386 32.8244V29.5924H119.128V32.8244H121.718V35.063H119.128V42.1558C119.128 43.602 119.668 44.0044 121.165 44.0044C121.404 44.0044 121.63 44.0044 121.794 43.9793V46.1172C121.567 46.1549 121.039 46.2052 120.473 46.2052C117.241 46.2052 116.348 45.0482 116.348 42.3821V35.063H114.512V32.8244H116.386ZM129.258 32.5981C133.081 32.5981 135.156 35.2893 135.156 38.9112V39.9801C135.156 43.7278 133.094 46.3436 129.258 46.3436C125.422 46.3436 123.335 43.7278 123.335 39.9801V38.9112C123.335 35.3019 125.435 32.5981 129.258 32.5981ZM129.258 34.8366C127.183 34.8366 126.152 36.5343 126.152 38.9489V39.9676C126.152 42.3444 127.17 44.0925 129.258 44.0925C131.345 44.0925 132.352 42.357 132.352 39.9676V38.9489C132.352 36.5218 131.333 34.8366 129.258 34.8366ZM137.514 46.1172V32.8244H140.306V34.5725H140.407C140.746 33.7425 141.74 32.6358 143.588 32.6358C143.953 32.6358 144.268 32.661 144.532 32.7113V35.1761C144.293 35.1133 143.802 35.0755 143.337 35.0755C141.098 35.0755 140.344 36.4589 140.344 38.2447V46.1172H137.514ZM151.304 46.3436C147.745 46.3436 145.481 43.9919 145.481 40.0556V38.71C145.481 35.0001 147.695 32.5981 151.191 32.5981C154.737 32.5981 156.875 35.0881 156.875 38.8357V40.1059H148.236V40.4203C148.236 42.6588 149.443 44.1428 151.342 44.1428C152.763 44.1428 153.731 43.4385 154.071 42.2941H156.724C156.322 44.4446 154.586 46.3436 151.304 46.3436ZM148.236 38.1566H154.146V38.1315C154.146 36.2451 152.977 34.7611 151.203 34.7611C149.405 34.7611 148.236 36.2451 148.236 38.1315V38.1566Z" fill="black"/>
</svg>
