<svg width="30" height="35" viewBox="0 0 30 35" fill="none" xmlns="http://www.w3.org/2000/svg">
<path d="M24.3491 18.7111C24.3664 17.3949 24.7245 16.1043 25.3901 14.9595C26.0556 13.8146 27.007 12.8528 28.1556 12.1634C27.4259 11.1459 26.4633 10.3086 25.3442 9.71798C24.225 9.12732 22.9803 8.79955 21.7087 8.7607C18.9963 8.48273 16.3667 10.3453 14.9844 10.3453C13.5755 10.3453 11.4474 8.7883 9.1557 8.83433C7.6734 8.88109 6.22879 9.30191 4.9626 10.0558C3.69642 10.8097 2.65186 11.871 1.93069 13.1362C-1.19319 18.4166 1.13695 26.1771 4.12941 30.4454C5.62662 32.5355 7.3764 34.8701 9.666 34.7874C11.9065 34.6966 12.7433 33.3925 15.4477 33.3925C18.1271 33.3925 18.9121 34.7874 21.2482 34.7347C23.6524 34.6966 25.1671 32.6354 26.6118 30.5255C27.6875 29.0362 28.5153 27.3903 29.0645 25.6486C27.6677 25.0719 26.4758 24.1065 25.6372 22.8728C24.7987 21.6391 24.3507 20.1917 24.3491 18.7111Z" fill="black"/>
<path d="M19.9374 5.95392C21.2483 4.4176 21.8941 2.44291 21.7377 0.449219C19.735 0.654574 17.8851 1.58904 16.5566 3.06641C15.907 3.78815 15.4095 4.6278 15.0925 5.53736C14.7755 6.44693 14.6453 7.40857 14.7092 8.36731C15.7109 8.37738 16.7018 8.16541 17.6075 7.74737C18.5131 7.32933 19.3097 6.71612 19.9374 5.95392Z" fill="black"/>
</svg>
