<svg width="10" height="10" viewBox="0 0 10 10" fill="none" xmlns="http://www.w3.org/2000/svg">
<path d="M0.000306779 0.555521V7.7773C0.000306779 7.92463 0.0588344 8.06593 0.163015 8.17011C0.267195 8.27429 0.408494 8.33282 0.555828 8.33282C0.703161 8.33282 0.84446 8.27429 0.948641 8.17011C1.05282 8.06593 1.11135 7.92463 1.11135 7.7773V1.89641L9.05114 9.83689C9.15538 9.94113 9.29675 9.99969 9.44417 9.99969C9.59159 9.99969 9.73296 9.94113 9.8372 9.83689C9.94144 9.73266 10 9.59128 10 9.44386C10 9.29645 9.94144 9.15507 9.8372 9.05083L1.89672 1.11104H7.77761C7.92494 1.11104 8.06624 1.05251 8.17042 0.948334C8.2746 0.844154 8.33313 0.702855 8.33313 0.555521C8.33313 0.408188 8.2746 0.266889 8.17042 0.162709C8.06624 0.0585281 7.92494 0 7.77761 0H0.555828C0.408494 0 0.267195 0.0585281 0.163015 0.162709C0.0588344 0.266889 0.000306779 0.408188 0.000306779 0.555521Z" fill="white"/>
</svg>
