<svg width="26" height="26" viewBox="0 0 26 26" fill="none" xmlns="http://www.w3.org/2000/svg">
<path d="M5.97528 6.42082V16.6015C5.97528 16.8092 6.05778 17.0084 6.20465 17.1552C6.35151 17.3021 6.5507 17.3846 6.7584 17.3846C6.9661 17.3846 7.16529 17.3021 7.31216 17.1552C7.45902 17.0084 7.54153 16.8092 7.54153 16.6015V8.31109L18.7344 19.5049C18.8813 19.6519 19.0806 19.7344 19.2884 19.7344C19.4962 19.7344 19.6955 19.6519 19.8425 19.5049C19.9894 19.358 20.072 19.1587 20.072 18.9508C20.072 18.743 19.9894 18.5437 19.8425 18.3968L8.64867 7.20395H16.939C17.1467 7.20395 17.3459 7.12144 17.4928 6.97458C17.6397 6.82771 17.7222 6.62852 17.7222 6.42082C17.7222 6.21312 17.6397 6.01393 17.4928 5.86707C17.3459 5.7202 17.1467 5.6377 16.939 5.6377H6.7584C6.5507 5.6377 6.35151 5.7202 6.20465 5.86707C6.05778 6.01393 5.97528 6.21312 5.97528 6.42082Z" fill="#EDA133"/>
</svg>
