<svg width="15" height="15" viewBox="0 0 15 15" fill="none" xmlns="http://www.w3.org/2000/svg">
<path d="M-6.0887e-06 0.833308V11.6663C-6.0887e-06 11.8873 0.0877879 12.0993 0.244064 12.2556C0.400339 12.4118 0.612294 12.4996 0.833301 12.4996C1.05431 12.4996 1.26626 12.4118 1.42254 12.2556C1.57882 12.0993 1.66661 11.8873 1.66661 11.6663V2.8447L13.5767 14.7558C13.733 14.9122 13.9451 15 14.1662 15C14.3874 15 14.5994 14.9122 14.7558 14.7558C14.9122 14.5994 15 14.3874 15 14.1662C15 13.9451 14.9122 13.733 14.7558 13.5767L2.8447 1.66662H11.6663C11.8873 1.66662 12.0993 1.57882 12.2555 1.42255C12.4118 1.26627 12.4996 1.05432 12.4996 0.833308C12.4996 0.612301 12.4118 0.400346 12.2555 0.24407C12.0993 0.0877948 11.8873 0 11.6663 0H0.833301C0.612294 0 0.400339 0.0877948 0.244064 0.24407C0.0877879 0.400346 -6.0887e-06 0.612301 -6.0887e-06 0.833308Z" fill="#EDA133"/>
</svg>
