<svg width="223" height="514" viewBox="0 0 223 514" fill="none" xmlns="http://www.w3.org/2000/svg">
<path d="M15.2773 326.5C15.2773 326.04 15.1868 325.585 15.0109 325.161C14.835 324.736 14.5772 324.35 14.2522 324.025C13.9272 323.7 13.5414 323.442 13.1167 323.266C12.6921 323.091 12.237 323 11.7773 323H3.77734C2.84909 323 1.95885 323.369 1.30247 324.025C0.646093 324.681 0.277344 325.572 0.277344 326.5V334.5C0.277344 335.428 0.646093 336.319 1.30247 336.975C1.95885 337.631 2.84909 338 3.77734 338H11.7773C12.237 338 12.6921 337.909 13.1167 337.734C13.5414 337.558 13.9272 337.3 14.2522 336.975C14.5772 336.65 14.835 336.264 15.0109 335.839C15.1868 335.415 15.2773 334.96 15.2773 334.5V326.5ZM15.2773 342.5C15.2773 342.04 15.1868 341.585 15.0109 341.161C14.835 340.736 14.5772 340.35 14.2522 340.025C13.9272 339.7 13.5414 339.442 13.1167 339.266C12.6921 339.091 12.237 339 11.7773 339H3.77734C2.84909 339 1.95885 339.369 1.30247 340.025C0.646093 340.681 0.277344 341.572 0.277344 342.5V350.5C0.277344 351.428 0.646093 352.319 1.30247 352.975C1.95885 353.631 2.84909 354 3.77734 354H11.7773C12.237 354 12.6921 353.909 13.1167 353.734C13.5414 353.558 13.9272 353.3 14.2522 352.975C14.5772 352.65 14.835 352.264 15.0109 351.839C15.1868 351.415 15.2773 350.96 15.2773 350.5V342.5ZM15.2773 422.5C15.2773 422.04 15.1868 421.585 15.0109 421.161C14.835 420.736 14.5772 420.35 14.2522 420.025C13.9272 419.7 13.5414 419.442 13.1167 419.266C12.6921 419.091 12.237 419 11.7773 419H3.77734C2.84909 419 1.95885 419.369 1.30247 420.025C0.646093 420.681 0.277344 421.572 0.277344 422.5V430.5C0.277344 431.428 0.646093 432.319 1.30247 432.975C1.95885 433.631 2.84909 434 3.77734 434H11.7773C12.237 434 12.6921 433.909 13.1167 433.734C13.5414 433.558 13.9272 433.3 14.2522 432.975C14.5772 432.65 14.835 432.264 15.0109 431.839C15.1868 431.415 15.2773 430.96 15.2773 430.5V422.5ZM15.2773 438.5C15.2773 438.04 15.1868 437.585 15.0109 437.161C14.835 436.736 14.5772 436.35 14.2522 436.025C13.9272 435.7 13.5414 435.442 13.1167 435.266C12.6921 435.091 12.237 435 11.7773 435H3.77734C2.84909 435 1.95885 435.369 1.30247 436.025C0.646093 436.681 0.277344 437.572 0.277344 438.5V446.5C0.277344 447.428 0.646093 448.319 1.30247 448.975C1.95885 449.631 2.84909 450 3.77734 450H11.7773C12.237 450 12.6921 449.909 13.1167 449.734C13.5414 449.558 13.9272 449.3 14.2522 448.975C14.5772 448.65 14.835 448.264 15.0109 447.839C15.1868 447.415 15.2773 446.96 15.2773 446.5V438.5ZM15.2773 454.5C15.2773 454.04 15.1868 453.585 15.0109 453.161C14.835 452.736 14.5772 452.35 14.2522 452.025C13.9272 451.7 13.5414 451.442 13.1167 451.266C12.6921 451.091 12.237 451 11.7773 451H3.77734C2.84909 451 1.95885 451.369 1.30247 452.025C0.646093 452.681 0.277344 453.572 0.277344 454.5V462.5C0.277344 463.428 0.646093 464.319 1.30247 464.975C1.95885 465.631 2.84909 466 3.77734 466H11.7773C12.237 466 12.6921 465.909 13.1167 465.734C13.5414 465.558 13.9272 465.3 14.2522 464.975C14.5772 464.65 14.835 464.264 15.0109 463.839C15.1868 463.415 15.2773 462.96 15.2773 462.5V454.5ZM15.2773 470.5C15.2773 470.04 15.1868 469.585 15.0109 469.161C14.835 468.736 14.5772 468.35 14.2522 468.025C13.9272 467.7 13.5414 467.442 13.1167 467.266C12.6921 467.091 12.237 467 11.7773 467H3.77734C2.84909 467 1.95885 467.369 1.30247 468.025C0.646093 468.681 0.277344 469.572 0.277344 470.5V478.5C0.277344 479.428 0.646093 480.319 1.30247 480.975C1.95885 481.631 2.84909 482 3.77734 482H11.7773C12.237 482 12.6921 481.909 13.1167 481.734C13.5414 481.558 13.9272 481.3 14.2522 480.975C14.5772 480.65 14.835 480.264 15.0109 479.839C15.1868 479.415 15.2773 478.96 15.2773 478.5V470.5ZM31.2773 326.5C31.2773 326.04 31.1868 325.585 31.0109 325.161C30.835 324.736 30.5772 324.35 30.2522 324.025C29.9272 323.7 29.5414 323.442 29.1167 323.266C28.6921 323.091 28.237 323 27.7773 323H19.7773C18.8491 323 17.9588 323.369 17.3025 324.025C16.6461 324.681 16.2773 325.572 16.2773 326.5V334.5C16.2773 335.428 16.6461 336.319 17.3025 336.975C17.9588 337.631 18.8491 338 19.7773 338H27.7773C28.237 338 28.6921 337.909 29.1167 337.734C29.5414 337.558 29.9272 337.3 30.2522 336.975C30.5772 336.65 30.835 336.264 31.0109 335.839C31.1868 335.415 31.2773 334.96 31.2773 334.5V326.5ZM31.2773 342.5C31.2773 342.04 31.1868 341.585 31.0109 341.161C30.835 340.736 30.5772 340.35 30.2522 340.025C29.9272 339.7 29.5414 339.442 29.1167 339.266C28.6921 339.091 28.237 339 27.7773 339H19.7773C18.8491 339 17.9588 339.369 17.3025 340.025C16.6461 340.681 16.2773 341.572 16.2773 342.5V350.5C16.2773 351.428 16.6461 352.319 17.3025 352.975C17.9588 353.631 18.8491 354 19.7773 354H27.7773C28.237 354 28.6921 353.909 29.1167 353.734C29.5414 353.558 29.9272 353.3 30.2522 352.975C30.5772 352.65 30.835 352.264 31.0109 351.839C31.1868 351.415 31.2773 350.96 31.2773 350.5V342.5ZM31.2773 422.5C31.2773 422.04 31.1868 421.585 31.0109 421.161C30.835 420.736 30.5772 420.35 30.2522 420.025C29.9272 419.7 29.5414 419.442 29.1167 419.266C28.6921 419.091 28.237 419 27.7773 419H19.7773C18.8491 419 17.9588 419.369 17.3025 420.025C16.6461 420.681 16.2773 421.572 16.2773 422.5V430.5C16.2773 431.428 16.6461 432.319 17.3025 432.975C17.9588 433.631 18.8491 434 19.7773 434H27.7773C28.237 434 28.6921 433.909 29.1167 433.734C29.5414 433.558 29.9272 433.3 30.2522 432.975C30.5772 432.65 30.835 432.264 31.0109 431.839C31.1868 431.415 31.2773 430.96 31.2773 430.5V422.5ZM31.2773 438.5C31.2773 438.04 31.1868 437.585 31.0109 437.161C30.835 436.736 30.5772 436.35 30.2522 436.025C29.9272 435.7 29.5414 435.442 29.1167 435.266C28.6921 435.091 28.237 435 27.7773 435H19.7773C18.8491 435 17.9588 435.369 17.3025 436.025C16.6461 436.681 16.2773 437.572 16.2773 438.5V446.5C16.2773 447.428 16.6461 448.319 17.3025 448.975C17.9588 449.631 18.8491 450 19.7773 450H27.7773C28.237 450 28.6921 449.909 29.1167 449.734C29.5414 449.558 29.9272 449.3 30.2522 448.975C30.5772 448.65 30.835 448.264 31.0109 447.839C31.1868 447.415 31.2773 446.96 31.2773 446.5V438.5ZM31.2773 454.5C31.2773 454.04 31.1868 453.585 31.0109 453.161C30.835 452.736 30.5772 452.35 30.2522 452.025C29.9272 451.7 29.5414 451.442 29.1167 451.266C28.6921 451.091 28.237 451 27.7773 451H19.7773C18.8491 451 17.9588 451.369 17.3025 452.025C16.6461 452.681 16.2773 453.572 16.2773 454.5V462.5C16.2773 463.428 16.6461 464.319 17.3025 464.975C17.9588 465.631 18.8491 466 19.7773 466H27.7773C28.237 466 28.6921 465.909 29.1167 465.734C29.5414 465.558 29.9272 465.3 30.2522 464.975C30.5772 464.65 30.835 464.264 31.0109 463.839C31.1868 463.415 31.2773 462.96 31.2773 462.5V454.5ZM31.2773 470.5C31.2773 470.04 31.1868 469.585 31.0109 469.161C30.835 468.736 30.5772 468.35 30.2522 468.025C29.9272 467.7 29.5414 467.442 29.1167 467.266C28.6921 467.091 28.237 467 27.7773 467H19.7773C18.8491 467 17.9588 467.369 17.3025 468.025C16.6461 468.681 16.2773 469.572 16.2773 470.5V478.5C16.2773 479.428 16.6461 480.319 17.3025 480.975C17.9588 481.631 18.8491 482 19.7773 482H27.7773C28.237 482 28.6921 481.909 29.1167 481.734C29.5414 481.558 29.9272 481.3 30.2522 480.975C30.5772 480.65 30.835 480.264 31.0109 479.839C31.1868 479.415 31.2773 478.96 31.2773 478.5V470.5ZM47.2773 390.5C47.2773 389.572 46.9086 388.681 46.2522 388.025C45.5958 387.369 44.7056 387 43.7773 387H35.7773C34.8491 387 33.9588 387.369 33.3025 388.025C32.6461 388.681 32.2773 389.572 32.2773 390.5V398.5C32.2773 399.428 32.6461 400.319 33.3025 400.975C33.9588 401.631 34.8491 402 35.7773 402H43.7773C44.7056 402 45.5958 401.631 46.2522 400.975C46.9086 400.319 47.2773 399.428 47.2773 398.5V390.5ZM47.2773 406.5C47.2773 405.572 46.9086 404.681 46.2522 404.025C45.5958 403.369 44.7056 403 43.7773 403H35.7773C34.8491 403 33.9588 403.369 33.3025 404.025C32.6461 404.681 32.2773 405.572 32.2773 406.5V414.5C32.2773 415.428 32.6461 416.319 33.3025 416.975C33.9588 417.631 34.8491 418 35.7773 418H43.7773C44.7056 418 45.5958 417.631 46.2522 416.975C46.9086 416.319 47.2773 415.428 47.2773 414.5V406.5ZM47.2773 454.5C47.2773 453.572 46.9086 452.681 46.2522 452.025C45.5958 451.369 44.7056 451 43.7773 451H35.7773C34.8491 451 33.9588 451.369 33.3025 452.025C32.6461 452.681 32.2773 453.572 32.2773 454.5V462.5C32.2773 463.428 32.6461 464.319 33.3025 464.975C33.9588 465.631 34.8491 466 35.7773 466H43.7773C44.7056 466 45.5958 465.631 46.2522 464.975C46.9086 464.319 47.2773 463.428 47.2773 462.5V454.5ZM47.2773 470.5C47.2773 469.572 46.9086 468.681 46.2522 468.025C45.5958 467.369 44.7056 467 43.7773 467H35.7773C34.8491 467 33.9588 467.369 33.3025 468.025C32.6461 468.681 32.2773 469.572 32.2773 470.5V478.5C32.2773 479.428 32.6461 480.319 33.3025 480.975C33.9588 481.631 34.8491 482 35.7773 482H43.7773C44.7056 482 45.5958 481.631 46.2522 480.975C46.9086 480.319 47.2773 479.428 47.2773 478.5V470.5ZM47.2773 486.5C47.2773 485.572 46.9086 484.682 46.2522 484.025C45.5958 483.369 44.7056 483 43.7773 483H35.7773C34.8491 483 33.9588 483.369 33.3025 484.025C32.6461 484.682 32.2773 485.572 32.2773 486.5V494.5C32.2773 495.428 32.6461 496.318 33.3025 496.975C33.9588 497.631 34.8491 498 35.7773 498H43.7773C44.7056 498 45.5958 497.631 46.2522 496.975C46.9086 496.318 47.2773 495.428 47.2773 494.5V486.5ZM47.2773 502.5C47.2773 501.572 46.9086 500.682 46.2522 500.025C45.5958 499.369 44.7056 499 43.7773 499H35.7773C34.8491 499 33.9588 499.369 33.3025 500.025C32.6461 500.682 32.2773 501.572 32.2773 502.5V510.5C32.2773 511.428 32.6461 512.318 33.3025 512.975C33.9588 513.631 34.8491 514 35.7773 514H43.7773C44.7056 514 45.5958 513.631 46.2522 512.975C46.9086 512.318 47.2773 511.428 47.2773 510.5V502.5ZM63.2773 390.5C63.2773 389.572 62.9086 388.681 62.2522 388.025C61.5958 387.369 60.7056 387 59.7773 387H51.7773C50.8491 387 49.9588 387.369 49.3025 388.025C48.6461 388.681 48.2773 389.572 48.2773 390.5V398.5C48.2773 399.428 48.6461 400.319 49.3025 400.975C49.9588 401.631 50.8491 402 51.7773 402H59.7773C60.7056 402 61.5958 401.631 62.2522 400.975C62.9086 400.319 63.2773 399.428 63.2773 398.5V390.5ZM63.2773 406.5C63.2773 405.572 62.9086 404.681 62.2522 404.025C61.5958 403.369 60.7056 403 59.7773 403H51.7773C50.8491 403 49.9588 403.369 49.3025 404.025C48.6461 404.681 48.2773 405.572 48.2773 406.5V414.5C48.2773 415.428 48.6461 416.319 49.3025 416.975C49.9588 417.631 50.8491 418 51.7773 418H59.7773C60.7056 418 61.5958 417.631 62.2522 416.975C62.9086 416.319 63.2773 415.428 63.2773 414.5V406.5ZM63.2773 454.5C63.2773 453.572 62.9086 452.681 62.2522 452.025C61.5958 451.369 60.7056 451 59.7773 451H51.7773C50.8491 451 49.9588 451.369 49.3025 452.025C48.6461 452.681 48.2773 453.572 48.2773 454.5V462.5C48.2773 463.428 48.6461 464.319 49.3025 464.975C49.9588 465.631 50.8491 466 51.7773 466H59.7773C60.7056 466 61.5958 465.631 62.2522 464.975C62.9086 464.319 63.2773 463.428 63.2773 462.5V454.5ZM63.2773 470.5C63.2773 469.572 62.9086 468.681 62.2522 468.025C61.5958 467.369 60.7056 467 59.7773 467H51.7773C50.8491 467 49.9588 467.369 49.3025 468.025C48.6461 468.681 48.2773 469.572 48.2773 470.5V478.5C48.2773 479.428 48.6461 480.319 49.3025 480.975C49.9588 481.631 50.8491 482 51.7773 482H59.7773C60.7056 482 61.5958 481.631 62.2522 480.975C62.9086 480.319 63.2773 479.428 63.2773 478.5V470.5ZM63.2773 486.5C63.2773 485.572 62.9086 484.682 62.2522 484.025C61.5958 483.369 60.7056 483 59.7773 483H51.7773C50.8491 483 49.9588 483.369 49.3025 484.025C48.6461 484.682 48.2773 485.572 48.2773 486.5V494.5C48.2773 495.428 48.6461 496.318 49.3025 496.975C49.9588 497.631 50.8491 498 51.7773 498H59.7773C60.7056 498 61.5958 497.631 62.2522 496.975C62.9086 496.318 63.2773 495.428 63.2773 494.5V486.5ZM63.2773 502.5C63.2773 501.572 62.9086 500.682 62.2522 500.025C61.5958 499.369 60.7056 499 59.7773 499H51.7773C50.8491 499 49.9588 499.369 49.3025 500.025C48.6461 500.682 48.2773 501.572 48.2773 502.5V510.5C48.2773 511.428 48.6461 512.318 49.3025 512.975C49.9588 513.631 50.8491 514 51.7773 514H59.7773C60.7056 514 61.5958 513.631 62.2522 512.975C62.9086 512.318 63.2773 511.428 63.2773 510.5V502.5ZM79.2773 326.5C79.2773 325.572 78.9086 324.681 78.2522 324.025C77.5958 323.369 76.7056 323 75.7773 323H67.7773C66.8491 323 65.9588 323.369 65.3025 324.025C64.6461 324.681 64.2773 325.572 64.2773 326.5V334.5C64.2773 335.428 64.6461 336.319 65.3025 336.975C65.9588 337.631 66.8491 338 67.7773 338H75.7773C76.7056 338 77.5958 337.631 78.2522 336.975C78.9086 336.319 79.2773 335.428 79.2773 334.5V326.5ZM79.2773 342.5C79.2773 341.572 78.9086 340.681 78.2522 340.025C77.5958 339.369 76.7056 339 75.7773 339H67.7773C66.8491 339 65.9588 339.369 65.3025 340.025C64.6461 340.681 64.2773 341.572 64.2773 342.5V350.5C64.2773 351.428 64.6461 352.319 65.3025 352.975C65.9588 353.631 66.8491 354 67.7773 354H75.7773C76.7056 354 77.5958 353.631 78.2522 352.975C78.9086 352.319 79.2773 351.428 79.2773 350.5V342.5ZM79.2773 358.5C79.2773 357.572 78.9086 356.681 78.2522 356.025C77.5958 355.369 76.7056 355 75.7773 355H67.7773C66.8491 355 65.9588 355.369 65.3025 356.025C64.6461 356.681 64.2773 357.572 64.2773 358.5V366.5C64.2773 367.428 64.6461 368.319 65.3025 368.975C65.9588 369.631 66.8491 370 67.7773 370H75.7773C76.7056 370 77.5958 369.631 78.2522 368.975C78.9086 368.319 79.2773 367.428 79.2773 366.5V358.5ZM79.2773 374.5C79.2773 373.572 78.9086 372.681 78.2522 372.025C77.5958 371.369 76.7056 371 75.7773 371H67.7773C66.8491 371 65.9588 371.369 65.3025 372.025C64.6461 372.681 64.2773 373.572 64.2773 374.5V382.5C64.2773 383.428 64.6461 384.319 65.3025 384.975C65.9588 385.631 66.8491 386 67.7773 386H75.7773C76.7056 386 77.5958 385.631 78.2522 384.975C78.9086 384.319 79.2773 383.428 79.2773 382.5V374.5ZM79.2773 422.5C79.2773 421.572 78.9086 420.681 78.2522 420.025C77.5958 419.369 76.7056 419 75.7773 419H67.7773C66.8491 419 65.9588 419.369 65.3025 420.025C64.6461 420.681 64.2773 421.572 64.2773 422.5V430.5C64.2773 431.428 64.6461 432.319 65.3025 432.975C65.9588 433.631 66.8491 434 67.7773 434H75.7773C76.7056 434 77.5958 433.631 78.2522 432.975C78.9086 432.319 79.2773 431.428 79.2773 430.5V422.5ZM79.2773 438.5C79.2773 437.572 78.9086 436.681 78.2522 436.025C77.5958 435.369 76.7056 435 75.7773 435H67.7773C66.8491 435 65.9588 435.369 65.3025 436.025C64.6461 436.681 64.2773 437.572 64.2773 438.5V446.5C64.2773 447.428 64.6461 448.319 65.3025 448.975C65.9588 449.631 66.8491 450 67.7773 450H75.7773C76.7056 450 77.5958 449.631 78.2522 448.975C78.9086 448.319 79.2773 447.428 79.2773 446.5V438.5ZM95.2773 326.5C95.2773 325.572 94.9086 324.681 94.2522 324.025C93.5958 323.369 92.7056 323 91.7773 323H83.7773C82.8491 323 81.9588 323.369 81.3025 324.025C80.6461 324.681 80.2773 325.572 80.2773 326.5V334.5C80.2773 335.428 80.6461 336.319 81.3025 336.975C81.9588 337.631 82.8491 338 83.7773 338H91.7773C92.7056 338 93.5958 337.631 94.2522 336.975C94.9086 336.319 95.2773 335.428 95.2773 334.5V326.5ZM95.2773 342.5C95.2773 341.572 94.9086 340.681 94.2522 340.025C93.5958 339.369 92.7056 339 91.7773 339H83.7773C82.8491 339 81.9588 339.369 81.3025 340.025C80.6461 340.681 80.2773 341.572 80.2773 342.5V350.5C80.2773 351.428 80.6461 352.319 81.3025 352.975C81.9588 353.631 82.8491 354 83.7773 354H91.7773C92.7056 354 93.5958 353.631 94.2522 352.975C94.9086 352.319 95.2773 351.428 95.2773 350.5V342.5ZM95.2773 358.5C95.2773 357.572 94.9086 356.681 94.2522 356.025C93.5958 355.369 92.7056 355 91.7773 355H83.7773C82.8491 355 81.9588 355.369 81.3025 356.025C80.6461 356.681 80.2773 357.572 80.2773 358.5V366.5C80.2773 367.428 80.6461 368.319 81.3025 368.975C81.9588 369.631 82.8491 370 83.7773 370H91.7773C92.7056 370 93.5958 369.631 94.2522 368.975C94.9086 368.319 95.2773 367.428 95.2773 366.5V358.5ZM95.2773 374.5C95.2773 373.572 94.9086 372.681 94.2522 372.025C93.5958 371.369 92.7056 371 91.7773 371H83.7773C82.8491 371 81.9588 371.369 81.3025 372.025C80.6461 372.681 80.2773 373.572 80.2773 374.5V382.5C80.2773 383.428 80.6461 384.319 81.3025 384.975C81.9588 385.631 82.8491 386 83.7773 386H91.7773C92.7056 386 93.5958 385.631 94.2522 384.975C94.9086 384.319 95.2773 383.428 95.2773 382.5V374.5ZM95.2773 422.5C95.2773 421.572 94.9086 420.681 94.2522 420.025C93.5958 419.369 92.7056 419 91.7773 419H83.7773C82.8491 419 81.9588 419.369 81.3025 420.025C80.6461 420.681 80.2773 421.572 80.2773 422.5V430.5C80.2773 431.428 80.6461 432.319 81.3025 432.975C81.9588 433.631 82.8491 434 83.7773 434H91.7773C92.7056 434 93.5958 433.631 94.2522 432.975C94.9086 432.319 95.2773 431.428 95.2773 430.5V422.5ZM95.2773 438.5C95.2773 437.572 94.9086 436.681 94.2522 436.025C93.5958 435.369 92.7056 435 91.7773 435H83.7773C82.8491 435 81.9588 435.369 81.3025 436.025C80.6461 436.681 80.2773 437.572 80.2773 438.5V446.5C80.2773 447.428 80.6461 448.319 81.3025 448.975C81.9588 449.631 82.8491 450 83.7773 450H91.7773C92.7056 450 93.5958 449.631 94.2522 448.975C94.9086 448.319 95.2773 447.428 95.2773 446.5V438.5ZM111.277 326.5C111.277 325.572 110.909 324.681 110.252 324.025C109.596 323.369 108.706 323 107.777 323H99.7773C98.8491 323 97.9588 323.369 97.3025 324.025C96.6461 324.681 96.2773 325.572 96.2773 326.5V334.5C96.2773 335.428 96.6461 336.319 97.3025 336.975C97.9588 337.631 98.8491 338 99.7773 338H107.777C108.706 338 109.596 337.631 110.252 336.975C110.909 336.319 111.277 335.428 111.277 334.5V326.5ZM111.277 342.5C111.277 341.572 110.909 340.681 110.252 340.025C109.596 339.369 108.706 339 107.777 339H99.7773C98.8491 339 97.9588 339.369 97.3025 340.025C96.6461 340.681 96.2773 341.572 96.2773 342.5V350.5C96.2773 351.428 96.6461 352.319 97.3025 352.975C97.9588 353.631 98.8491 354 99.7773 354H107.777C108.706 354 109.596 353.631 110.252 352.975C110.909 352.319 111.277 351.428 111.277 350.5V342.5ZM111.277 358.5C111.277 357.572 110.909 356.681 110.252 356.025C109.596 355.369 108.706 355 107.777 355H99.7773C98.8491 355 97.9588 355.369 97.3025 356.025C96.6461 356.681 96.2773 357.572 96.2773 358.5V366.5C96.2773 367.428 96.6461 368.319 97.3025 368.975C97.9588 369.631 98.8491 370 99.7773 370H107.777C108.706 370 109.596 369.631 110.252 368.975C110.909 368.319 111.277 367.428 111.277 366.5V358.5ZM111.277 374.5C111.277 373.572 110.909 372.681 110.252 372.025C109.596 371.369 108.706 371 107.777 371H99.7773C98.8491 371 97.9588 371.369 97.3025 372.025C96.6461 372.681 96.2773 373.572 96.2773 374.5V382.5C96.2773 383.428 96.6461 384.319 97.3025 384.975C97.9588 385.631 98.8491 386 99.7773 386H107.777C108.706 386 109.596 385.631 110.252 384.975C110.909 384.319 111.277 383.428 111.277 382.5V374.5ZM111.277 390.5C111.277 389.572 110.909 388.681 110.252 388.025C109.596 387.369 108.706 387 107.777 387H99.7773C98.8491 387 97.9588 387.369 97.3025 388.025C96.6461 388.681 96.2773 389.572 96.2773 390.5V398.5C96.2773 399.428 96.6461 400.319 97.3025 400.975C97.9588 401.631 98.8491 402 99.7773 402H107.777C108.706 402 109.596 401.631 110.252 400.975C110.909 400.319 111.277 399.428 111.277 398.5V390.5ZM111.277 406.5C111.277 405.572 110.909 404.681 110.252 404.025C109.596 403.369 108.706 403 107.777 403H99.7773C98.8491 403 97.9588 403.369 97.3025 404.025C96.6461 404.681 96.2773 405.572 96.2773 406.5V414.5C96.2773 415.428 96.6461 416.319 97.3025 416.975C97.9588 417.631 98.8491 418 99.7773 418H107.777C108.706 418 109.596 417.631 110.252 416.975C110.909 416.319 111.277 415.428 111.277 414.5V406.5ZM127.277 326.5C127.277 325.572 126.909 324.681 126.252 324.025C125.596 323.369 124.706 323 123.777 323H115.777C114.849 323 113.959 323.369 113.302 324.025C112.646 324.681 112.277 325.572 112.277 326.5V334.5C112.277 335.428 112.646 336.319 113.302 336.975C113.959 337.631 114.849 338 115.777 338H123.777C124.706 338 125.596 337.631 126.252 336.975C126.909 336.319 127.277 335.428 127.277 334.5V326.5ZM127.277 342.5C127.277 341.572 126.909 340.681 126.252 340.025C125.596 339.369 124.706 339 123.777 339H115.777C114.849 339 113.959 339.369 113.302 340.025C112.646 340.681 112.277 341.572 112.277 342.5V350.5C112.277 351.428 112.646 352.319 113.302 352.975C113.959 353.631 114.849 354 115.777 354H123.777C124.706 354 125.596 353.631 126.252 352.975C126.909 352.319 127.277 351.428 127.277 350.5V342.5ZM127.277 358.5C127.277 357.572 126.909 356.681 126.252 356.025C125.596 355.369 124.706 355 123.777 355H115.777C114.849 355 113.959 355.369 113.302 356.025C112.646 356.681 112.277 357.572 112.277 358.5V366.5C112.277 367.428 112.646 368.319 113.302 368.975C113.959 369.631 114.849 370 115.777 370H123.777C124.706 370 125.596 369.631 126.252 368.975C126.909 368.319 127.277 367.428 127.277 366.5V358.5ZM127.277 374.5C127.277 373.572 126.909 372.681 126.252 372.025C125.596 371.369 124.706 371 123.777 371H115.777C114.849 371 113.959 371.369 113.302 372.025C112.646 372.681 112.277 373.572 112.277 374.5V382.5C112.277 383.428 112.646 384.319 113.302 384.975C113.959 385.631 114.849 386 115.777 386H123.777C124.706 386 125.596 385.631 126.252 384.975C126.909 384.319 127.277 383.428 127.277 382.5V374.5ZM127.277 390.5C127.277 389.572 126.909 388.681 126.252 388.025C125.596 387.369 124.706 387 123.777 387H115.777C114.849 387 113.959 387.369 113.302 388.025C112.646 388.681 112.277 389.572 112.277 390.5V398.5C112.277 399.428 112.646 400.319 113.302 400.975C113.959 401.631 114.849 402 115.777 402H123.777C124.706 402 125.596 401.631 126.252 400.975C126.909 400.319 127.277 399.428 127.277 398.5V390.5ZM127.277 406.5C127.277 405.572 126.909 404.681 126.252 404.025C125.596 403.369 124.706 403 123.777 403H115.777C114.849 403 113.959 403.369 113.302 404.025C112.646 404.681 112.277 405.572 112.277 406.5V414.5C112.277 415.428 112.646 416.319 113.302 416.975C113.959 417.631 114.849 418 115.777 418H123.777C124.706 418 125.596 417.631 126.252 416.975C126.909 416.319 127.277 415.428 127.277 414.5V406.5ZM143.277 326.5C143.277 325.572 142.909 324.681 142.252 324.025C141.596 323.369 140.706 323 139.777 323H131.777C130.849 323 129.959 323.369 129.302 324.025C128.646 324.681 128.277 325.572 128.277 326.5V334.5C128.277 335.428 128.646 336.319 129.302 336.975C129.959 337.631 130.849 338 131.777 338H139.777C140.706 338 141.596 337.631 142.252 336.975C142.909 336.319 143.277 335.428 143.277 334.5V326.5ZM143.277 342.5C143.277 341.572 142.909 340.681 142.252 340.025C141.596 339.369 140.706 339 139.777 339H131.777C130.849 339 129.959 339.369 129.302 340.025C128.646 340.681 128.277 341.572 128.277 342.5V350.5C128.277 351.428 128.646 352.319 129.302 352.975C129.959 353.631 130.849 354 131.777 354H139.777C140.706 354 141.596 353.631 142.252 352.975C142.909 352.319 143.277 351.428 143.277 350.5V342.5ZM143.277 294.5C143.277 293.572 142.909 292.681 142.252 292.025C141.596 291.369 140.706 291 139.777 291H131.777C130.849 291 129.959 291.369 129.302 292.025C128.646 292.681 128.277 293.572 128.277 294.5V302.5C128.277 303.428 128.646 304.319 129.302 304.975C129.959 305.631 130.849 306 131.777 306H139.777C140.706 306 141.596 305.631 142.252 304.975C142.909 304.319 143.277 303.428 143.277 302.5V294.5ZM143.277 310.5C143.277 309.572 142.909 308.681 142.252 308.025C141.596 307.369 140.706 307 139.777 307H131.777C130.849 307 129.959 307.369 129.302 308.025C128.646 308.681 128.277 309.572 128.277 310.5V318.5C128.277 319.428 128.646 320.319 129.302 320.975C129.959 321.631 130.849 322 131.777 322H139.777C140.706 322 141.596 321.631 142.252 320.975C142.909 320.319 143.277 319.428 143.277 318.5V310.5ZM143.277 358.5C143.277 357.572 142.909 356.681 142.252 356.025C141.596 355.369 140.706 355 139.777 355H131.777C130.849 355 129.959 355.369 129.302 356.025C128.646 356.681 128.277 357.572 128.277 358.5V366.5C128.277 367.428 128.646 368.319 129.302 368.975C129.959 369.631 130.849 370 131.777 370H139.777C140.706 370 141.596 369.631 142.252 368.975C142.909 368.319 143.277 367.428 143.277 366.5V358.5ZM143.277 374.5C143.277 373.572 142.909 372.681 142.252 372.025C141.596 371.369 140.706 371 139.777 371H131.777C130.849 371 129.959 371.369 129.302 372.025C128.646 372.681 128.277 373.572 128.277 374.5V382.5C128.277 383.428 128.646 384.319 129.302 384.975C129.959 385.631 130.849 386 131.777 386H139.777C140.706 386 141.596 385.631 142.252 384.975C142.909 384.319 143.277 383.428 143.277 382.5V374.5ZM159.277 326.5C159.277 325.572 158.909 324.681 158.252 324.025C157.596 323.369 156.706 323 155.777 323H147.777C146.849 323 145.959 323.369 145.302 324.025C144.646 324.681 144.277 325.572 144.277 326.5V334.5C144.277 335.428 144.646 336.319 145.302 336.975C145.959 337.631 146.849 338 147.777 338H155.777C156.706 338 157.596 337.631 158.252 336.975C158.909 336.319 159.277 335.428 159.277 334.5V326.5ZM159.277 342.5C159.277 341.572 158.909 340.681 158.252 340.025C157.596 339.369 156.706 339 155.777 339H147.777C146.849 339 145.959 339.369 145.302 340.025C144.646 340.681 144.277 341.572 144.277 342.5V350.5C144.277 351.428 144.646 352.319 145.302 352.975C145.959 353.631 146.849 354 147.777 354H155.777C156.706 354 157.596 353.631 158.252 352.975C158.909 352.319 159.277 351.428 159.277 350.5V342.5ZM143.277 422.5C143.277 421.572 142.909 420.681 142.252 420.025C141.596 419.369 140.706 419 139.777 419H131.777C130.849 419 129.959 419.369 129.302 420.025C128.646 420.681 128.277 421.572 128.277 422.5V430.5C128.277 431.428 128.646 432.319 129.302 432.975C129.959 433.631 130.849 434 131.777 434H139.777C140.706 434 141.596 433.631 142.252 432.975C142.909 432.319 143.277 431.428 143.277 430.5V422.5ZM143.277 438.5C143.277 437.572 142.909 436.681 142.252 436.025C141.596 435.369 140.706 435 139.777 435H131.777C130.849 435 129.959 435.369 129.302 436.025C128.646 436.681 128.277 437.572 128.277 438.5V446.5C128.277 447.428 128.646 448.319 129.302 448.975C129.959 449.631 130.849 450 131.777 450H139.777C140.706 450 141.596 449.631 142.252 448.975C142.909 448.319 143.277 447.428 143.277 446.5V438.5ZM159.277 294.5C159.277 293.572 158.909 292.681 158.252 292.025C157.596 291.369 156.706 291 155.777 291H147.777C146.849 291 145.959 291.369 145.302 292.025C144.646 292.681 144.277 293.572 144.277 294.5V302.5C144.277 303.428 144.646 304.319 145.302 304.975C145.959 305.631 146.849 306 147.777 306H155.777C156.706 306 157.596 305.631 158.252 304.975C158.909 304.319 159.277 303.428 159.277 302.5V294.5ZM159.277 310.5C159.277 309.572 158.909 308.681 158.252 308.025C157.596 307.369 156.706 307 155.777 307H147.777C146.849 307 145.959 307.369 145.302 308.025C144.646 308.681 144.277 309.572 144.277 310.5V318.5C144.277 319.428 144.646 320.319 145.302 320.975C145.959 321.631 146.849 322 147.777 322H155.777C156.706 322 157.596 321.631 158.252 320.975C158.909 320.319 159.277 319.428 159.277 318.5V310.5ZM159.277 358.5C159.277 357.572 158.909 356.681 158.252 356.025C157.596 355.369 156.706 355 155.777 355H147.777C146.849 355 145.959 355.369 145.302 356.025C144.646 356.681 144.277 357.572 144.277 358.5V366.5C144.277 367.428 144.646 368.319 145.302 368.975C145.959 369.631 146.849 370 147.777 370H155.777C156.706 370 157.596 369.631 158.252 368.975C158.909 368.319 159.277 367.428 159.277 366.5V358.5ZM159.277 374.5C159.277 373.572 158.909 372.681 158.252 372.025C157.596 371.369 156.706 371 155.777 371H147.777C146.849 371 145.959 371.369 145.302 372.025C144.646 372.681 144.277 373.572 144.277 374.5V382.5C144.277 383.428 144.646 384.319 145.302 384.975C145.959 385.631 146.849 386 147.777 386H155.777C156.706 386 157.596 385.631 158.252 384.975C158.909 384.319 159.277 383.428 159.277 382.5V374.5ZM159.277 422.5C159.277 421.572 158.909 420.681 158.252 420.025C157.596 419.369 156.706 419 155.777 419H147.777C146.849 419 145.959 419.369 145.302 420.025C144.646 420.681 144.277 421.572 144.277 422.5V430.5C144.277 431.428 144.646 432.319 145.302 432.975C145.959 433.631 146.849 434 147.777 434H155.777C156.706 434 157.596 433.631 158.252 432.975C158.909 432.319 159.277 431.428 159.277 430.5V422.5ZM159.277 438.5C159.277 437.572 158.909 436.681 158.252 436.025C157.596 435.369 156.706 435 155.777 435H147.777C146.849 435 145.959 435.369 145.302 436.025C144.646 436.681 144.277 437.572 144.277 438.5V446.5C144.277 447.428 144.646 448.319 145.302 448.975C145.959 449.631 146.849 450 147.777 450H155.777C156.706 450 157.596 449.631 158.252 448.975C158.909 448.319 159.277 447.428 159.277 446.5V438.5ZM175.277 358.5C175.277 357.572 174.909 356.681 174.252 356.025C173.596 355.369 172.706 355 171.777 355H163.777C162.849 355 161.959 355.369 161.302 356.025C160.646 356.681 160.277 357.572 160.277 358.5V366.5C160.277 367.428 160.646 368.319 161.302 368.975C161.959 369.631 162.849 370 163.777 370H171.777C172.706 370 173.596 369.631 174.252 368.975C174.909 368.319 175.277 367.428 175.277 366.5V358.5ZM175.277 374.5C175.277 373.572 174.909 372.681 174.252 372.025C173.596 371.369 172.706 371 171.777 371H163.777C162.849 371 161.959 371.369 161.302 372.025C160.646 372.681 160.277 373.572 160.277 374.5V382.5C160.277 383.428 160.646 384.319 161.302 384.975C161.959 385.631 162.849 386 163.777 386H171.777C172.706 386 173.596 385.631 174.252 384.975C174.909 384.319 175.277 383.428 175.277 382.5V374.5ZM191.277 358.5C191.277 357.572 190.909 356.681 190.252 356.025C189.596 355.369 188.706 355 187.777 355H179.777C178.849 355 177.959 355.369 177.302 356.025C176.646 356.681 176.277 357.572 176.277 358.5V366.5C176.277 367.428 176.646 368.319 177.302 368.975C177.959 369.631 178.849 370 179.777 370H187.777C188.706 370 189.596 369.631 190.252 368.975C190.909 368.319 191.277 367.428 191.277 366.5V358.5ZM191.277 374.5C191.277 373.572 190.909 372.681 190.252 372.025C189.596 371.369 188.706 371 187.777 371H179.777C178.849 371 177.959 371.369 177.302 372.025C176.646 372.681 176.277 373.572 176.277 374.5V382.5C176.277 383.428 176.646 384.319 177.302 384.975C177.959 385.631 178.849 386 179.777 386H187.777C188.706 386 189.596 385.631 190.252 384.975C190.909 384.319 191.277 383.428 191.277 382.5V374.5ZM15.7823 340.451C15.3203 339.649 14.6433 338.952 13.8283 338.504C14.6519 338.052 15.3296 337.374 15.7823 336.551C16.2253 337.343 16.9423 338.047 17.7283 338.504C16.9223 338.975 16.2253 339.631 15.7823 340.451ZM15.7823 436.451C15.3203 435.649 14.6433 434.952 13.8283 434.504C14.6519 434.052 15.3296 433.374 15.7823 432.551C16.2253 433.343 16.9423 434.047 17.7283 434.504C16.9223 434.975 16.2253 435.631 15.7823 436.451ZM15.7823 452.451C15.3203 451.649 14.6433 450.952 13.8283 450.504C14.6519 450.052 15.3296 449.374 15.7823 448.551C16.2253 449.343 16.9423 450.047 17.7283 450.504C16.9223 450.975 16.2253 451.631 15.7823 452.451ZM15.7823 468.451C15.3203 467.649 14.6433 466.952 13.8283 466.504C14.6519 466.052 15.3296 465.374 15.7823 464.551C16.2253 465.343 16.9423 466.047 17.7283 466.504C16.9223 466.975 16.2253 467.631 15.7823 468.451ZM31.7823 420.451C31.3203 419.649 30.6433 418.952 29.8283 418.504C30.6519 418.052 31.3296 417.374 31.7823 416.551C32.2253 417.343 32.9423 418.047 33.7283 418.504C32.9223 418.975 32.2253 419.631 31.7823 420.451ZM31.7823 452.451C31.3203 451.649 30.6433 450.952 29.8283 450.504C30.6519 450.052 31.3296 449.374 31.7823 448.551C32.2253 449.343 32.9423 450.047 33.7283 450.504C32.9223 450.975 32.2253 451.631 31.7823 452.451ZM31.7823 468.451C31.3203 467.649 30.6433 466.952 29.8283 466.504C30.6519 466.052 31.3296 465.374 31.7823 464.551C32.2253 465.343 32.9423 466.047 33.7283 466.504C32.9223 466.975 32.2253 467.631 31.7823 468.451ZM31.7823 484.451C31.3203 483.649 30.6433 482.952 29.8283 482.504C30.6519 482.052 31.3296 481.374 31.7823 480.551C32.2253 481.343 32.9423 482.047 33.7283 482.504C32.9223 482.975 32.2253 483.631 31.7823 484.451ZM47.7823 404.451C47.3203 403.649 46.6433 402.952 45.8283 402.504C46.6519 402.052 47.3296 401.374 47.7823 400.551C48.2253 401.343 48.9423 402.047 49.7283 402.504C48.9223 402.975 48.2253 403.631 47.7823 404.451ZM47.7823 468.451C47.3203 467.649 46.6433 466.952 45.8283 466.504C46.6519 466.052 47.3296 465.374 47.7823 464.551C48.2253 465.343 48.9423 466.047 49.7283 466.504C48.9223 466.975 48.2253 467.631 47.7823 468.451ZM47.7823 484.451C47.3203 483.649 46.6433 482.952 45.8283 482.504C46.6519 482.052 47.3296 481.374 47.7823 480.551C48.2253 481.343 48.9423 482.047 49.7283 482.504C48.9223 482.975 48.2253 483.631 47.7823 484.451ZM47.7823 500.451C47.3203 499.649 46.6433 498.952 45.8283 498.504C46.6519 498.052 47.3296 497.374 47.7823 496.551C48.2253 497.343 48.9423 498.047 49.7283 498.504C48.9223 498.974 48.2253 499.631 47.7823 500.451ZM63.7823 388.451C63.3203 387.649 62.6433 386.952 61.8283 386.504C62.6519 386.052 63.3296 385.374 63.7823 384.551C64.2253 385.343 64.9423 386.047 65.7283 386.504C64.9233 386.975 64.2253 387.631 63.7823 388.451ZM63.7823 420.451C63.3203 419.649 62.6433 418.952 61.8283 418.504C62.6519 418.052 63.3296 417.374 63.7823 416.551C64.2253 417.343 64.9423 418.047 65.7283 418.504C64.9233 418.975 64.2253 419.631 63.7823 420.451ZM63.7823 452.451C63.3203 451.649 62.6433 450.952 61.8283 450.504C62.6519 450.052 63.3296 449.374 63.7823 448.551C64.2253 449.343 64.9423 450.047 65.7283 450.504C64.9233 450.975 64.2253 451.631 63.7823 452.451ZM79.7823 340.451C79.3203 339.649 78.6433 338.952 77.8283 338.504C78.6519 338.052 79.3296 337.374 79.7823 336.551C80.2253 337.343 80.9423 338.047 81.7283 338.504C80.9233 338.975 80.2253 339.631 79.7823 340.451ZM79.7823 356.451C79.3203 355.649 78.6433 354.952 77.8283 354.504C78.6519 354.052 79.3296 353.374 79.7823 352.551C80.2253 353.343 80.9423 354.047 81.7283 354.504C80.9233 354.975 80.2253 355.631 79.7823 356.451ZM79.7823 372.451C79.3203 371.649 78.6433 370.952 77.8283 370.504C78.6519 370.052 79.3296 369.374 79.7823 368.551C80.2253 369.343 80.9423 370.047 81.7283 370.504C80.9233 370.975 80.2253 371.631 79.7823 372.451ZM79.7823 436.451C79.3203 435.649 78.6433 434.952 77.8283 434.504C78.6519 434.052 79.3296 433.374 79.7823 432.551C80.2253 433.343 80.9423 434.047 81.7283 434.504C80.9233 434.975 80.2253 435.631 79.7823 436.451ZM95.7823 340.451C95.3203 339.649 94.6433 338.952 93.8283 338.504C94.6519 338.052 95.3296 337.374 95.7823 336.551C96.2253 337.343 96.9423 338.047 97.7283 338.504C96.9233 338.975 96.2253 339.631 95.7823 340.451ZM95.7823 356.451C95.3203 355.649 94.6433 354.952 93.8283 354.504C94.6519 354.052 95.3296 353.374 95.7823 352.551C96.2253 353.343 96.9423 354.047 97.7283 354.504C96.9233 354.975 96.2253 355.631 95.7823 356.451ZM95.7823 372.451C95.3203 371.649 94.6433 370.952 93.8283 370.504C94.6519 370.052 95.3296 369.374 95.7823 368.551C96.2253 369.343 96.9423 370.047 97.7283 370.504C96.9233 370.975 96.2253 371.631 95.7823 372.451ZM95.7823 388.451C95.3203 387.649 94.6433 386.952 93.8283 386.504C94.6519 386.052 95.3296 385.374 95.7823 384.551C96.2253 385.343 96.9423 386.047 97.7283 386.504C96.9233 386.975 96.2253 387.631 95.7823 388.451ZM95.7823 420.451C95.3203 419.649 94.6433 418.952 93.8283 418.504C94.6519 418.052 95.3296 417.374 95.7823 416.551C96.2253 417.343 96.9423 418.047 97.7283 418.504C96.9233 418.975 96.2253 419.631 95.7823 420.451ZM111.782 340.451C111.32 339.649 110.643 338.952 109.828 338.504C110.652 338.052 111.33 337.374 111.782 336.551C112.225 337.343 112.943 338.047 113.728 338.504C112.923 338.974 112.225 339.631 111.782 340.451ZM111.782 356.451C111.32 355.649 110.643 354.952 109.828 354.504C110.652 354.052 111.33 353.374 111.782 352.551C112.225 353.343 112.943 354.047 113.728 354.504C112.923 354.974 112.225 355.631 111.782 356.451ZM111.782 372.451C111.32 371.649 110.643 370.952 109.828 370.504C110.652 370.052 111.33 369.374 111.782 368.551C112.225 369.343 112.943 370.047 113.728 370.504C112.923 370.974 112.225 371.631 111.782 372.451ZM111.782 388.451C111.32 387.649 110.643 386.952 109.828 386.504C110.652 386.052 111.33 385.374 111.782 384.551C112.225 385.343 112.943 386.047 113.728 386.504C112.923 386.974 112.225 387.631 111.782 388.451ZM111.782 404.451C111.32 403.649 110.643 402.952 109.828 402.504C110.652 402.052 111.33 401.374 111.782 400.551C112.225 401.343 112.943 402.047 113.728 402.504C112.923 402.974 112.225 403.631 111.782 404.451ZM127.782 340.451C127.32 339.649 126.643 338.952 125.828 338.504C126.652 338.052 127.33 337.374 127.782 336.551C128.225 337.343 128.943 338.047 129.728 338.504C128.923 338.974 128.225 339.631 127.782 340.451ZM143.782 340.451C143.32 339.649 142.643 338.952 141.828 338.504C142.652 338.052 143.33 337.374 143.782 336.551C144.225 337.343 144.943 338.047 145.728 338.504C144.923 338.974 144.225 339.631 143.782 340.451ZM127.782 356.451C127.32 355.649 126.643 354.952 125.828 354.504C126.652 354.052 127.33 353.374 127.782 352.551C128.225 353.343 128.943 354.047 129.728 354.504C128.923 354.974 128.225 355.631 127.782 356.451ZM127.782 372.451C127.32 371.649 126.643 370.952 125.828 370.504C126.652 370.052 127.33 369.374 127.782 368.551C128.225 369.343 128.943 370.047 129.728 370.504C128.923 370.974 128.225 371.631 127.782 372.451ZM127.782 388.451C127.32 387.649 126.643 386.952 125.828 386.504C126.652 386.052 127.33 385.374 127.782 384.551C128.225 385.343 128.943 386.047 129.728 386.504C128.923 386.974 128.225 387.631 127.782 388.451ZM127.782 420.451C127.32 419.649 126.643 418.952 125.828 418.504C126.652 418.052 127.33 417.374 127.782 416.551C128.225 417.343 128.943 418.047 129.728 418.504C128.923 418.974 128.225 419.631 127.782 420.451ZM143.782 308.451C143.32 307.649 142.643 306.952 141.828 306.504C142.652 306.052 143.33 305.374 143.782 304.551C144.225 305.343 144.943 306.047 145.728 306.504C144.923 306.974 144.225 307.631 143.782 308.451ZM159.778 292.451C159.316 291.649 158.639 290.952 157.824 290.504C158.648 290.052 159.326 289.374 159.778 288.551C160.221 289.343 160.939 290.047 161.724 290.504C160.919 290.974 160.221 291.631 159.778 292.451ZM143.782 356.451C143.32 355.649 142.643 354.952 141.828 354.504C142.652 354.052 143.33 353.374 143.782 352.551C144.225 353.343 144.943 354.047 145.728 354.504C144.923 354.974 144.225 355.631 143.782 356.451ZM143.782 372.451C143.32 371.649 142.643 370.952 141.828 370.504C142.652 370.052 143.33 369.374 143.782 368.551C144.225 369.343 144.943 370.047 145.728 370.504C144.923 370.974 144.225 371.631 143.782 372.451ZM143.782 436.451C143.32 435.649 142.643 434.952 141.828 434.504C142.652 434.052 143.33 433.374 143.782 432.551C144.225 433.343 144.943 434.047 145.728 434.504C144.923 434.975 144.225 435.631 143.782 436.451ZM159.782 356.451C159.32 355.649 158.643 354.952 157.828 354.504C158.652 354.052 159.33 353.374 159.782 352.551C160.225 353.343 160.943 354.047 161.728 354.504C160.923 354.974 160.225 355.631 159.782 356.451ZM159.782 372.451C159.32 371.649 158.643 370.952 157.828 370.504C158.652 370.052 159.33 369.374 159.782 368.551C160.225 369.343 160.943 370.047 161.728 370.504C160.923 370.974 160.225 371.631 159.782 372.451ZM175.782 372.451C175.32 371.649 174.643 370.952 173.828 370.504C174.652 370.052 175.33 369.374 175.782 368.551C176.225 369.343 176.943 370.047 177.728 370.504C176.923 370.974 176.225 371.631 175.782 372.451ZM219.777 114C220.706 114 221.596 113.631 222.252 112.975C222.909 112.318 223.277 111.428 223.277 110.5V102.5C223.277 101.572 222.909 100.682 222.252 100.025C221.596 99.3688 220.706 99 219.777 99H211.777C210.849 99 209.959 99.3688 209.302 100.025C208.646 100.682 208.277 101.572 208.277 102.5V110.5C208.277 111.428 208.646 112.318 209.302 112.975C209.959 113.631 210.849 114 211.777 114H219.777ZM203.777 114C204.706 114 205.596 113.631 206.252 112.975C206.909 112.318 207.277 111.428 207.277 110.5V102.5C207.277 101.572 206.909 100.682 206.252 100.025C205.596 99.3688 204.706 99 203.777 99H195.777C194.849 99 193.959 99.3688 193.302 100.025C192.646 100.682 192.277 101.572 192.277 102.5V110.5C192.277 111.428 192.646 112.318 193.302 112.975C193.959 113.631 194.849 114 195.777 114H203.777ZM187.777 114C188.706 114 189.596 113.631 190.252 112.975C190.909 112.318 191.277 111.428 191.277 110.5V102.5C191.277 101.572 190.909 100.682 190.252 100.025C189.596 99.3688 188.706 99 187.777 99H179.777C178.849 99 177.959 99.3688 177.302 100.025C176.646 100.682 176.277 101.572 176.277 102.5V110.5C176.277 111.428 176.646 112.318 177.302 112.975C177.959 113.631 178.849 114 179.777 114H187.777ZM171.777 114C172.706 114 173.596 113.631 174.252 112.975C174.909 112.318 175.277 111.428 175.277 110.5V102.5C175.277 101.572 174.909 100.682 174.252 100.025C173.596 99.3688 172.706 99 171.777 99H163.777C162.849 99 161.959 99.3688 161.302 100.025C160.646 100.682 160.277 101.572 160.277 102.5V110.5C160.277 111.428 160.646 112.318 161.302 112.975C161.959 113.631 162.849 114 163.777 114H171.777ZM123.777 114C124.706 114 125.596 113.631 126.252 112.975C126.909 112.318 127.277 111.428 127.277 110.5V102.5C127.277 101.572 126.909 100.682 126.252 100.025C125.596 99.3688 124.706 99 123.777 99H115.777C114.849 99 113.959 99.3688 113.302 100.025C112.646 100.682 112.277 101.572 112.277 102.5V110.5C112.277 111.428 112.646 112.318 113.302 112.975C113.959 113.631 114.849 114 115.777 114H123.777ZM107.777 114C108.706 114 109.596 113.631 110.252 112.975C110.909 112.318 111.277 111.428 111.277 110.5V102.5C111.277 101.572 110.909 100.682 110.252 100.025C109.596 99.3688 108.706 99 107.777 99H99.7773C98.8491 99 97.9588 99.3688 97.3025 100.025C96.6461 100.682 96.2773 101.572 96.2773 102.5V110.5C96.2773 111.428 96.6461 112.318 97.3025 112.975C97.9588 113.631 98.8491 114 99.7773 114H107.777ZM91.7773 114C92.7056 114 93.5958 113.631 94.2522 112.975C94.9086 112.318 95.2773 111.428 95.2773 110.5V102.5C95.2773 101.572 94.9086 100.682 94.2522 100.025C93.5958 99.3688 92.7056 99 91.7773 99H83.7773C82.8491 99 81.9588 99.3688 81.3025 100.025C80.6461 100.682 80.2773 101.572 80.2773 102.5V110.5C80.2773 111.428 80.6461 112.318 81.3025 112.975C81.9588 113.631 82.8491 114 83.7773 114H91.7773ZM75.7773 114C76.7056 114 77.5958 113.631 78.2522 112.975C78.9086 112.318 79.2773 111.428 79.2773 110.5V102.5C79.2773 101.572 78.9086 100.682 78.2522 100.025C77.5958 99.3688 76.7056 99 75.7773 99H67.7773C66.8491 99 65.9588 99.3688 65.3025 100.025C64.6461 100.682 64.2773 101.572 64.2773 102.5V110.5C64.2773 111.428 64.6461 112.318 65.3025 112.975C65.9588 113.631 66.8491 114 67.7773 114H75.7773ZM175.277 6.5C175.277 5.57174 174.909 4.6815 174.252 4.02513C173.596 3.36875 172.706 3 171.777 3H163.777C162.849 3 161.959 3.36875 161.302 4.02513C160.646 4.6815 160.277 5.57174 160.277 6.5V14.5C160.277 15.4283 160.646 16.3185 161.302 16.9749C161.959 17.6312 162.849 18 163.777 18H171.777C172.706 18 173.596 17.6312 174.252 16.9749C174.909 16.3185 175.277 15.4283 175.277 14.5V6.5ZM175.277 22.5C175.277 21.5717 174.909 20.6815 174.252 20.0251C173.596 19.3688 172.706 19 171.777 19H163.777C162.849 19 161.959 19.3688 161.302 20.0251C160.646 20.6815 160.277 21.5717 160.277 22.5V30.5C160.277 31.4283 160.646 32.3185 161.302 32.9749C161.959 33.6312 162.849 34 163.777 34H171.777C172.706 34 173.596 33.6312 174.252 32.9749C174.909 32.3185 175.277 31.4283 175.277 30.5V22.5ZM123.777 130C124.706 130 125.596 129.631 126.252 128.975C126.909 128.318 127.277 127.428 127.277 126.5V118.5C127.277 117.572 126.909 116.682 126.252 116.025C125.596 115.369 124.706 115 123.777 115H115.777C114.849 115 113.959 115.369 113.302 116.025C112.646 116.682 112.277 117.572 112.277 118.5V126.5C112.277 127.428 112.646 128.318 113.302 128.975C113.959 129.631 114.849 130 115.777 130H123.777ZM107.777 130C108.706 130 109.596 129.631 110.252 128.975C110.909 128.318 111.277 127.428 111.277 126.5V118.5C111.277 117.572 110.909 116.682 110.252 116.025C109.596 115.369 108.706 115 107.777 115H99.7773C98.8491 115 97.9588 115.369 97.3025 116.025C96.6461 116.682 96.2773 117.572 96.2773 118.5V126.5C96.2773 127.428 96.6461 128.318 97.3025 128.975C97.9588 129.631 98.8491 130 99.7773 130H107.777ZM91.7773 130C92.7056 130 93.5958 129.631 94.2522 128.975C94.9086 128.318 95.2773 127.428 95.2773 126.5V118.5C95.2773 117.572 94.9086 116.682 94.2522 116.025C93.5958 115.369 92.7056 115 91.7773 115H83.7773C82.8491 115 81.9588 115.369 81.3025 116.025C80.6461 116.682 80.2773 117.572 80.2773 118.5V126.5C80.2773 127.428 80.6461 128.318 81.3025 128.975C81.9588 129.631 82.8491 130 83.7773 130H91.7773ZM75.7773 130C76.7056 130 77.5958 129.631 78.2522 128.975C78.9086 128.318 79.2773 127.428 79.2773 126.5V118.5C79.2773 117.572 78.9086 116.682 78.2522 116.025C77.5958 115.369 76.7056 115 75.7773 115H67.7773C66.8491 115 65.9588 115.369 65.3025 116.025C64.6461 116.682 64.2773 117.572 64.2773 118.5V126.5C64.2773 127.428 64.6461 128.318 65.3025 128.975C65.9588 129.631 66.8491 130 67.7773 130H75.7773ZM155.777 146C156.706 146 157.596 145.631 158.252 144.975C158.909 144.318 159.277 143.428 159.277 142.5V134.5C159.277 133.572 158.909 132.682 158.252 132.025C157.596 131.369 156.706 131 155.777 131H147.777C146.849 131 145.959 131.369 145.302 132.025C144.646 132.682 144.277 133.572 144.277 134.5V142.5C144.277 143.428 144.646 144.318 145.302 144.975C145.959 145.631 146.849 146 147.777 146H155.777ZM139.777 146C140.706 146 141.596 145.631 142.252 144.975C142.909 144.318 143.277 143.428 143.277 142.5V134.5C143.277 133.572 142.909 132.682 142.252 132.025C141.596 131.369 140.706 131 139.777 131H131.777C130.849 131 129.959 131.369 129.302 132.025C128.646 132.682 128.277 133.572 128.277 134.5V142.5C128.277 143.428 128.646 144.318 129.302 144.975C129.959 145.631 130.849 146 131.777 146H139.777ZM91.7773 146C92.7056 146 93.5958 145.631 94.2522 144.975C94.9086 144.318 95.2773 143.428 95.2773 142.5V134.5C95.2773 133.572 94.9086 132.682 94.2522 132.025C93.5958 131.369 92.7056 131 91.7773 131H83.7773C82.8491 131 81.9588 131.369 81.3025 132.025C80.6461 132.682 80.2773 133.572 80.2773 134.5V142.5C80.2773 143.428 80.6461 144.318 81.3025 144.975C81.9588 145.631 82.8491 146 83.7773 146H91.7773ZM75.7773 146C76.7056 146 77.5958 145.631 78.2522 144.975C78.9086 144.318 79.2773 143.428 79.2773 142.5V134.5C79.2773 133.572 78.9086 132.682 78.2522 132.025C77.5958 131.369 76.7056 131 75.7773 131H67.7773C66.8491 131 65.9588 131.369 65.3025 132.025C64.6461 132.682 64.2773 133.572 64.2773 134.5V142.5C64.2773 143.428 64.6461 144.318 65.3025 144.975C65.9588 145.631 66.8491 146 67.7773 146H75.7773ZM59.7773 146C60.7056 146 61.5958 145.631 62.2522 144.975C62.9086 144.318 63.2773 143.428 63.2773 142.5V134.5C63.2773 133.572 62.9086 132.682 62.2522 132.025C61.5958 131.369 60.7056 131 59.7773 131H51.7773C50.8491 131 49.9588 131.369 49.3025 132.025C48.6461 132.682 48.2773 133.572 48.2773 134.5V142.5C48.2773 143.428 48.6461 144.318 49.3025 144.975C49.9588 145.631 50.8491 146 51.7773 146H59.7773ZM43.7773 146C44.7056 146 45.5958 145.631 46.2522 144.975C46.9086 144.318 47.2773 143.428 47.2773 142.5V134.5C47.2773 133.572 46.9086 132.682 46.2522 132.025C45.5958 131.369 44.7056 131 43.7773 131H35.7773C34.8491 131 33.9588 131.369 33.3025 132.025C32.6461 132.682 32.2773 133.572 32.2773 134.5V142.5C32.2773 143.428 32.6461 144.318 33.3025 144.975C33.9588 145.631 34.8491 146 35.7773 146H43.7773ZM155.777 162C156.706 162 157.596 161.631 158.252 160.975C158.909 160.318 159.277 159.428 159.277 158.5V150.5C159.277 149.572 158.909 148.682 158.252 148.025C157.596 147.369 156.706 147 155.777 147H147.777C146.849 147 145.959 147.369 145.302 148.025C144.646 148.682 144.277 149.572 144.277 150.5V158.5C144.277 159.428 144.646 160.318 145.302 160.975C145.959 161.631 146.849 162 147.777 162H155.777ZM139.777 162C140.706 162 141.596 161.631 142.252 160.975C142.909 160.318 143.277 159.428 143.277 158.5V150.5C143.277 149.572 142.909 148.682 142.252 148.025C141.596 147.369 140.706 147 139.777 147H131.777C130.849 147 129.959 147.369 129.302 148.025C128.646 148.682 128.277 149.572 128.277 150.5V158.5C128.277 159.428 128.646 160.318 129.302 160.975C129.959 161.631 130.849 162 131.777 162H139.777ZM91.7773 162C92.7056 162 93.5958 161.631 94.2522 160.975C94.9086 160.318 95.2773 159.428 95.2773 158.5V150.5C95.2773 149.572 94.9086 148.682 94.2522 148.025C93.5958 147.369 92.7056 147 91.7773 147H83.7773C82.8491 147 81.9588 147.369 81.3025 148.025C80.6461 148.682 80.2773 149.572 80.2773 150.5V158.5C80.2773 159.428 80.6461 160.318 81.3025 160.975C81.9588 161.631 82.8491 162 83.7773 162H91.7773ZM75.7773 162C76.7056 162 77.5958 161.631 78.2522 160.975C78.9086 160.318 79.2773 159.428 79.2773 158.5V150.5C79.2773 149.572 78.9086 148.682 78.2522 148.025C77.5958 147.369 76.7056 147 75.7773 147H67.7773C66.8491 147 65.9588 147.369 65.3025 148.025C64.6461 148.682 64.2773 149.572 64.2773 150.5V158.5C64.2773 159.428 64.6461 160.318 65.3025 160.975C65.9588 161.631 66.8491 162 67.7773 162H75.7773ZM59.7773 162C60.7056 162 61.5958 161.631 62.2522 160.975C62.9086 160.318 63.2773 159.428 63.2773 158.5V150.5C63.2773 149.572 62.9086 148.682 62.2522 148.025C61.5958 147.369 60.7056 147 59.7773 147H51.7773C50.8491 147 49.9588 147.369 49.3025 148.025C48.6461 148.682 48.2773 149.572 48.2773 150.5V158.5C48.2773 159.428 48.6461 160.318 49.3025 160.975C49.9588 161.631 50.8491 162 51.7773 162H59.7773ZM43.7773 162C44.7056 162 45.5958 161.631 46.2522 160.975C46.9086 160.318 47.2773 159.428 47.2773 158.5V150.5C47.2773 149.572 46.9086 148.682 46.2522 148.025C45.5958 147.369 44.7056 147 43.7773 147H35.7773C34.8491 147 33.9588 147.369 33.3025 148.025C32.6461 148.682 32.2773 149.572 32.2773 150.5V158.5C32.2773 159.428 32.6461 160.318 33.3025 160.975C33.9588 161.631 34.8491 162 35.7773 162H43.7773ZM175.277 38.5C175.277 37.5717 174.909 36.6815 174.252 36.0251C173.596 35.3687 172.706 35 171.777 35H163.777C162.849 35 161.959 35.3687 161.302 36.0251C160.646 36.6815 160.277 37.5717 160.277 38.5V46.5C160.277 47.4283 160.646 48.3185 161.302 48.9749C161.959 49.6313 162.849 50 163.777 50H171.777C172.706 50 173.596 49.6313 174.252 48.9749C174.909 48.3185 175.277 47.4283 175.277 46.5V38.5ZM175.277 54.5C175.277 53.5717 174.909 52.6815 174.252 52.0251C173.596 51.3687 172.706 51 171.777 51H163.777C162.849 51 161.959 51.3687 161.302 52.0251C160.646 52.6815 160.277 53.5717 160.277 54.5V62.5C160.277 63.4283 160.646 64.3185 161.302 64.9749C161.959 65.6313 162.849 66 163.777 66H171.777C172.706 66 173.596 65.6313 174.252 64.9749C174.909 64.3185 175.277 63.4283 175.277 62.5V54.5ZM219.777 130C220.706 130 221.596 129.631 222.252 128.975C222.909 128.318 223.277 127.428 223.277 126.5V118.5C223.277 117.572 222.909 116.682 222.252 116.025C221.596 115.369 220.706 115 219.777 115H211.777C210.849 115 209.959 115.369 209.302 116.025C208.646 116.682 208.277 117.572 208.277 118.5V126.5C208.277 127.428 208.646 128.318 209.302 128.975C209.959 129.631 210.849 130 211.777 130H219.777ZM203.777 130C204.706 130 205.596 129.631 206.252 128.975C206.909 128.318 207.277 127.428 207.277 126.5V118.5C207.277 117.572 206.909 116.682 206.252 116.025C205.596 115.369 204.706 115 203.777 115H195.777C194.849 115 193.959 115.369 193.302 116.025C192.646 116.682 192.277 117.572 192.277 118.5V126.5C192.277 127.428 192.646 128.318 193.302 128.975C193.959 129.631 194.849 130 195.777 130H203.777ZM191.277 6.5C191.277 5.57174 190.909 4.6815 190.252 4.02513C189.596 3.36875 188.706 3 187.777 3H179.777C178.849 3 177.959 3.36875 177.302 4.02513C176.646 4.6815 176.277 5.57174 176.277 6.5V14.5C176.277 15.4283 176.646 16.3185 177.302 16.9749C177.959 17.6312 178.849 18 179.777 18H187.777C188.706 18 189.596 17.6312 190.252 16.9749C190.909 16.3185 191.277 15.4283 191.277 14.5V6.5ZM191.277 22.5C191.277 21.5717 190.909 20.6815 190.252 20.0251C189.596 19.3688 188.706 19 187.777 19H179.777C178.849 19 177.959 19.3688 177.302 20.0251C176.646 20.6815 176.277 21.5717 176.277 22.5V30.5C176.277 31.4283 176.646 32.3185 177.302 32.9749C177.959 33.6312 178.849 34 179.777 34H187.777C188.706 34 189.596 33.6312 190.252 32.9749C190.909 32.3185 191.277 31.4283 191.277 30.5V22.5ZM191.277 38.5C191.277 37.5717 190.909 36.6815 190.252 36.0251C189.596 35.3687 188.706 35 187.777 35H179.777C178.849 35 177.959 35.3687 177.302 36.0251C176.646 36.6815 176.277 37.5717 176.277 38.5V46.5C176.277 47.4283 176.646 48.3185 177.302 48.9749C177.959 49.6313 178.849 50 179.777 50H187.777C188.706 50 189.596 49.6313 190.252 48.9749C190.909 48.3185 191.277 47.4283 191.277 46.5V38.5ZM191.277 54.5C191.277 53.5717 190.909 52.6815 190.252 52.0251C189.596 51.3687 188.706 51 187.777 51H179.777C178.849 51 177.959 51.3687 177.302 52.0251C176.646 52.6815 176.277 53.5717 176.277 54.5V62.5C176.277 63.4283 176.646 64.3185 177.302 64.9749C177.959 65.6313 178.849 66 179.777 66H187.777C188.706 66 189.596 65.6313 190.252 64.9749C190.909 64.3185 191.277 63.4283 191.277 62.5V54.5ZM207.277 -25.5C207.277 -26.4283 206.909 -27.3185 206.252 -27.9749C205.596 -28.6313 204.706 -29 203.777 -29H195.777C194.849 -29 193.959 -28.6313 193.302 -27.9749C192.646 -27.3185 192.277 -26.4283 192.277 -25.5V-17.5C192.277 -16.5717 192.646 -15.6815 193.302 -15.0251C193.959 -14.3687 194.849 -14 195.777 -14H203.777C204.706 -14 205.596 -14.3687 206.252 -15.0251C206.909 -15.6815 207.277 -16.5717 207.277 -17.5V-25.5ZM207.277 -9.5C207.277 -10.4283 206.909 -11.3185 206.252 -11.9749C205.596 -12.6313 204.706 -13 203.777 -13H195.777C194.849 -13 193.959 -12.6313 193.302 -11.9749C192.646 -11.3185 192.277 -10.4283 192.277 -9.5V-1.5C192.277 -0.571743 192.646 0.318497 193.302 0.974874C193.959 1.63125 194.849 2 195.777 2H203.777C204.706 2 205.596 1.63125 206.252 0.974874C206.909 0.318497 207.277 -0.571743 207.277 -1.5V-9.5ZM207.277 38.5C207.277 37.5717 206.909 36.6815 206.252 36.0251C205.596 35.3687 204.706 35 203.777 35H195.777C194.849 35 193.959 35.3687 193.302 36.0251C192.646 36.6815 192.277 37.5717 192.277 38.5V46.5C192.277 47.4283 192.646 48.3185 193.302 48.9749C193.959 49.6313 194.849 50 195.777 50H203.777C204.706 50 205.596 49.6313 206.252 48.9749C206.909 48.3185 207.277 47.4283 207.277 46.5V38.5ZM207.277 86.5C207.277 85.5717 206.909 84.6815 206.252 84.0251C205.596 83.3687 204.706 83 203.777 83H195.777C194.849 83 193.959 83.3687 193.302 84.0251C192.646 84.6815 192.277 85.5717 192.277 86.5V94.5C192.277 95.4283 192.646 96.3185 193.302 96.9749C193.959 97.6313 194.849 98 195.777 98H203.777C204.706 98 205.596 97.6313 206.252 96.9749C206.909 96.3185 207.277 95.4283 207.277 94.5V86.5ZM207.277 54.5C207.277 53.5717 206.909 52.6815 206.252 52.0251C205.596 51.3687 204.706 51 203.777 51H195.777C194.849 51 193.959 51.3687 193.302 52.0251C192.646 52.6815 192.277 53.5717 192.277 54.5V62.5C192.277 63.4283 192.646 64.3185 193.302 64.9749C193.959 65.6313 194.849 66 195.777 66H203.777C204.706 66 205.596 65.6313 206.252 64.9749C206.909 64.3185 207.277 63.4283 207.277 62.5V54.5ZM207.277 70.5C207.277 69.5717 206.909 68.6815 206.252 68.0251C205.596 67.3687 204.706 67 203.777 67H195.777C194.849 67 193.959 67.3687 193.302 68.0251C192.646 68.6815 192.277 69.5717 192.277 70.5V78.5C192.277 79.4283 192.646 80.3185 193.302 80.9749C193.959 81.6313 194.849 82 195.777 82H203.777C204.706 82 205.596 81.6313 206.252 80.9749C206.909 80.3185 207.277 79.4283 207.277 78.5V70.5ZM175.277 86.5C175.277 85.5717 174.909 84.6815 174.252 84.0251C173.596 83.3687 172.706 83 171.777 83H163.777C162.849 83 161.959 83.3687 161.302 84.0251C160.646 84.6815 160.277 85.5717 160.277 86.5V94.5C160.277 95.4283 160.646 96.3185 161.302 96.9749C161.959 97.6313 162.849 98 163.777 98H171.777C172.706 98 173.596 97.6313 174.252 96.9749C174.909 96.3185 175.277 95.4283 175.277 94.5V86.5ZM223.277 -25.5C223.277 -26.4283 222.909 -27.3185 222.252 -27.9749C221.596 -28.6313 220.706 -29 219.777 -29H211.777C210.849 -29 209.959 -28.6313 209.302 -27.9749C208.646 -27.3185 208.277 -26.4283 208.277 -25.5V-17.5C208.277 -16.5717 208.646 -15.6815 209.302 -15.0251C209.959 -14.3687 210.849 -14 211.777 -14H219.777C220.706 -14 221.596 -14.3687 222.252 -15.0251C222.909 -15.6815 223.277 -16.5717 223.277 -17.5V-25.5ZM223.277 -9.5C223.277 -10.4283 222.909 -11.3185 222.252 -11.9749C221.596 -12.6313 220.706 -13 219.777 -13H211.777C210.849 -13 209.959 -12.6313 209.302 -11.9749C208.646 -11.3185 208.277 -10.4283 208.277 -9.5V-1.5C208.277 -0.571743 208.646 0.318497 209.302 0.974874C209.959 1.63125 210.849 2 211.777 2H219.777C220.706 2 221.596 1.63125 222.252 0.974874C222.909 0.318497 223.277 -0.571743 223.277 -1.5V-9.5ZM223.277 86.5C223.277 85.5717 222.909 84.6815 222.252 84.0251C221.596 83.3687 220.706 83 219.777 83H211.777C210.849 83 209.959 83.3687 209.302 84.0251C208.646 84.6815 208.277 85.5717 208.277 86.5V94.5C208.277 95.4283 208.646 96.3185 209.302 96.9749C209.959 97.6313 210.849 98 211.777 98H219.777C220.706 98 221.596 97.6313 222.252 96.9749C222.909 96.3185 223.277 95.4283 223.277 94.5V86.5ZM223.277 38.5C223.277 37.5717 222.909 36.6815 222.252 36.0251C221.596 35.3687 220.706 35 219.777 35H211.777C210.849 35 209.959 35.3687 209.302 36.0251C208.646 36.6815 208.277 37.5717 208.277 38.5V46.5C208.277 47.4283 208.646 48.3185 209.302 48.9749C209.959 49.6313 210.849 50 211.777 50H219.777C220.706 50 221.596 49.6313 222.252 48.9749C222.909 48.3185 223.277 47.4283 223.277 46.5V38.5ZM223.277 54.5C223.277 53.5717 222.909 52.6815 222.252 52.0251C221.596 51.3687 220.706 51 219.777 51H211.777C210.849 51 209.959 51.3687 209.302 52.0251C208.646 52.6815 208.277 53.5717 208.277 54.5V62.5C208.277 63.4283 208.646 64.3185 209.302 64.9749C209.959 65.6313 210.849 66 211.777 66H219.777C220.706 66 221.596 65.6313 222.252 64.9749C222.909 64.3185 223.277 63.4283 223.277 62.5V54.5ZM223.277 70.5C223.277 69.5717 222.909 68.6815 222.252 68.0251C221.596 67.3687 220.706 67 219.777 67H211.777C210.849 67 209.959 67.3687 209.302 68.0251C208.646 68.6815 208.277 69.5717 208.277 70.5V78.5C208.277 79.4283 208.646 80.3185 209.302 80.9749C209.959 81.6313 210.849 82 211.777 82H219.777C220.706 82 221.596 81.6313 222.252 80.9749C222.909 80.3185 223.277 79.4283 223.277 78.5V70.5ZM191.277 86.5C191.277 85.5717 190.909 84.6815 190.252 84.0251C189.596 83.3687 188.706 83 187.777 83H179.777C178.849 83 177.959 83.3687 177.302 84.0251C176.646 84.6815 176.277 85.5717 176.277 86.5V94.5C176.277 95.4283 176.646 96.3185 177.302 96.9749C177.959 97.6313 178.849 98 179.777 98H187.777C188.706 98 189.596 97.6313 190.252 96.9749C190.909 96.3185 191.277 95.4283 191.277 94.5V86.5ZM219.777 178C220.706 178 221.596 177.631 222.252 176.975C222.909 176.318 223.277 175.428 223.277 174.5V166.5C223.277 165.572 222.909 164.682 222.252 164.025C221.596 163.369 220.706 163 219.777 163H211.777C210.849 163 209.959 163.369 209.302 164.025C208.646 164.682 208.277 165.572 208.277 166.5V174.5C208.277 175.428 208.646 176.318 209.302 176.975C209.959 177.631 210.849 178 211.777 178H219.777ZM203.777 178C204.706 178 205.596 177.631 206.252 176.975C206.909 176.318 207.277 175.428 207.277 174.5V166.5C207.277 165.572 206.909 164.682 206.252 164.025C205.596 163.369 204.706 163 203.777 163H195.777C194.849 163 193.959 163.369 193.302 164.025C192.646 164.682 192.277 165.572 192.277 166.5V174.5C192.277 175.428 192.646 176.318 193.302 176.975C193.959 177.631 194.849 178 195.777 178H203.777ZM187.777 178C188.706 178 189.596 177.631 190.252 176.975C190.909 176.318 191.277 175.428 191.277 174.5V166.5C191.277 165.572 190.909 164.682 190.252 164.025C189.596 163.369 188.706 163 187.777 163H179.777C178.849 163 177.959 163.369 177.302 164.025C176.646 164.682 176.277 165.572 176.277 166.5V174.5C176.277 175.428 176.646 176.318 177.302 176.975C177.959 177.631 178.849 178 179.777 178H187.777ZM171.777 178C172.706 178 173.596 177.631 174.252 176.975C174.909 176.318 175.277 175.428 175.277 174.5V166.5C175.277 165.572 174.909 164.682 174.252 164.025C173.596 163.369 172.706 163 171.777 163H163.777C162.849 163 161.959 163.369 161.302 164.025C160.646 164.682 160.277 165.572 160.277 166.5V174.5C160.277 175.428 160.646 176.318 161.302 176.975C161.959 177.631 162.849 178 163.777 178H171.777ZM123.777 178C124.706 178 125.596 177.631 126.252 176.975C126.909 176.318 127.277 175.428 127.277 174.5V166.5C127.277 165.572 126.909 164.682 126.252 164.025C125.596 163.369 124.706 163 123.777 163H115.777C114.849 163 113.959 163.369 113.302 164.025C112.646 164.682 112.277 165.572 112.277 166.5V174.5C112.277 175.428 112.646 176.318 113.302 176.975C113.959 177.631 114.849 178 115.777 178H123.777ZM107.777 178C108.706 178 109.596 177.631 110.252 176.975C110.909 176.318 111.277 175.428 111.277 174.5V166.5C111.277 165.572 110.909 164.682 110.252 164.025C109.596 163.369 108.706 163 107.777 163H99.7773C98.8491 163 97.9588 163.369 97.3025 164.025C96.6461 164.682 96.2773 165.572 96.2773 166.5V174.5C96.2773 175.428 96.6461 176.318 97.3025 176.975C97.9588 177.631 98.8491 178 99.7773 178H107.777ZM219.777 194C220.706 194 221.596 193.631 222.252 192.975C222.909 192.318 223.277 191.428 223.277 190.5V182.5C223.277 181.572 222.909 180.682 222.252 180.025C221.596 179.369 220.706 179 219.777 179H211.777C210.849 179 209.959 179.369 209.302 180.025C208.646 180.682 208.277 181.572 208.277 182.5V190.5C208.277 191.428 208.646 192.318 209.302 192.975C209.959 193.631 210.849 194 211.777 194H219.777ZM203.777 194C204.706 194 205.596 193.631 206.252 192.975C206.909 192.318 207.277 191.428 207.277 190.5V182.5C207.277 181.572 206.909 180.682 206.252 180.025C205.596 179.369 204.706 179 203.777 179H195.777C194.849 179 193.959 179.369 193.302 180.025C192.646 180.682 192.277 181.572 192.277 182.5V190.5C192.277 191.428 192.646 192.318 193.302 192.975C193.959 193.631 194.849 194 195.777 194H203.777ZM187.777 194C188.706 194 189.596 193.631 190.252 192.975C190.909 192.318 191.277 191.428 191.277 190.5V182.5C191.277 181.572 190.909 180.682 190.252 180.025C189.596 179.369 188.706 179 187.777 179H179.777C178.849 179 177.959 179.369 177.302 180.025C176.646 180.682 176.277 181.572 176.277 182.5V190.5C176.277 191.428 176.646 192.318 177.302 192.975C177.959 193.631 178.849 194 179.777 194H187.777ZM171.777 194C172.706 194 173.596 193.631 174.252 192.975C174.909 192.318 175.277 191.428 175.277 190.5V182.5C175.277 181.572 174.909 180.682 174.252 180.025C173.596 179.369 172.706 179 171.777 179H163.777C162.849 179 161.959 179.369 161.302 180.025C160.646 180.682 160.277 181.572 160.277 182.5V190.5C160.277 191.428 160.646 192.318 161.302 192.975C161.959 193.631 162.849 194 163.777 194H171.777ZM123.777 194C124.706 194 125.596 193.631 126.252 192.975C126.909 192.318 127.277 191.428 127.277 190.5V182.5C127.277 181.572 126.909 180.682 126.252 180.025C125.596 179.369 124.706 179 123.777 179H115.777C114.849 179 113.959 179.369 113.302 180.025C112.646 180.682 112.277 181.572 112.277 182.5V190.5C112.277 191.428 112.646 192.318 113.302 192.975C113.959 193.631 114.849 194 115.777 194H123.777ZM107.777 194C108.706 194 109.596 193.631 110.252 192.975C110.909 192.318 111.277 191.428 111.277 190.5V182.5C111.277 181.572 110.909 180.682 110.252 180.025C109.596 179.369 108.706 179 107.777 179H99.7773C98.8491 179 97.9588 179.369 97.3025 180.025C96.6461 180.682 96.2773 181.572 96.2773 182.5V190.5C96.2773 191.428 96.6461 192.318 97.3025 192.975C97.9588 193.631 98.8491 194 99.7773 194H107.777ZM219.777 210C220.706 210 221.596 209.631 222.252 208.975C222.909 208.318 223.277 207.428 223.277 206.5V198.5C223.277 197.572 222.909 196.682 222.252 196.025C221.596 195.369 220.706 195 219.777 195H211.777C210.849 195 209.959 195.369 209.302 196.025C208.646 196.682 208.277 197.572 208.277 198.5V206.5C208.277 207.428 208.646 208.318 209.302 208.975C209.959 209.631 210.849 210 211.777 210H219.777ZM203.777 210C204.706 210 205.596 209.631 206.252 208.975C206.909 208.318 207.277 207.428 207.277 206.5V198.5C207.277 197.572 206.909 196.682 206.252 196.025C205.596 195.369 204.706 195 203.777 195H195.777C194.849 195 193.959 195.369 193.302 196.025C192.646 196.682 192.277 197.572 192.277 198.5V206.5C192.277 207.428 192.646 208.318 193.302 208.975C193.959 209.631 194.849 210 195.777 210H203.777ZM187.777 210C188.706 210 189.596 209.631 190.252 208.975C190.909 208.318 191.277 207.428 191.277 206.5V198.5C191.277 197.572 190.909 196.682 190.252 196.025C189.596 195.369 188.706 195 187.777 195H179.777C178.849 195 177.959 195.369 177.302 196.025C176.646 196.682 176.277 197.572 176.277 198.5V206.5C176.277 207.428 176.646 208.318 177.302 208.975C177.959 209.631 178.849 210 179.777 210H187.777ZM171.777 210C172.706 210 173.596 209.631 174.252 208.975C174.909 208.318 175.277 207.428 175.277 206.5V198.5C175.277 197.572 174.909 196.682 174.252 196.025C173.596 195.369 172.706 195 171.777 195H163.777C162.849 195 161.959 195.369 161.302 196.025C160.646 196.682 160.277 197.572 160.277 198.5V206.5C160.277 207.428 160.646 208.318 161.302 208.975C161.959 209.631 162.849 210 163.777 210H171.777ZM155.777 210C156.706 210 157.596 209.631 158.252 208.975C158.909 208.318 159.277 207.428 159.277 206.5V198.5C159.277 197.572 158.909 196.682 158.252 196.025C157.596 195.369 156.706 195 155.777 195H147.777C146.849 195 145.959 195.369 145.302 196.025C144.646 196.682 144.277 197.572 144.277 198.5V206.5C144.277 207.428 144.646 208.318 145.302 208.975C145.959 209.631 146.849 210 147.777 210H155.777ZM139.777 210C140.706 210 141.596 209.631 142.252 208.975C142.909 208.318 143.277 207.428 143.277 206.5V198.5C143.277 197.572 142.909 196.682 142.252 196.025C141.596 195.369 140.706 195 139.777 195H131.777C130.849 195 129.959 195.369 129.302 196.025C128.646 196.682 128.277 197.572 128.277 198.5V206.5C128.277 207.428 128.646 208.318 129.302 208.975C129.959 209.631 130.849 210 131.777 210H139.777ZM219.777 226C220.706 226 221.596 225.631 222.252 224.975C222.909 224.318 223.277 223.428 223.277 222.5V214.5C223.277 213.572 222.909 212.682 222.252 212.025C221.596 211.369 220.706 211 219.777 211H211.777C210.849 211 209.959 211.369 209.302 212.025C208.646 212.682 208.277 213.572 208.277 214.5V222.5C208.277 223.428 208.646 224.318 209.302 224.975C209.959 225.631 210.849 226 211.777 226H219.777ZM203.777 226C204.706 226 205.596 225.631 206.252 224.975C206.909 224.318 207.277 223.428 207.277 222.5V214.5C207.277 213.572 206.909 212.682 206.252 212.025C205.596 211.369 204.706 211 203.777 211H195.777C194.849 211 193.959 211.369 193.302 212.025C192.646 212.682 192.277 213.572 192.277 214.5V222.5C192.277 223.428 192.646 224.318 193.302 224.975C193.959 225.631 194.849 226 195.777 226H203.777ZM187.777 226C188.706 226 189.596 225.631 190.252 224.975C190.909 224.318 191.277 223.428 191.277 222.5V214.5C191.277 213.572 190.909 212.682 190.252 212.025C189.596 211.369 188.706 211 187.777 211H179.777C178.849 211 177.959 211.369 177.302 212.025C176.646 212.682 176.277 213.572 176.277 214.5V222.5C176.277 223.428 176.646 224.318 177.302 224.975C177.959 225.631 178.849 226 179.777 226H187.777ZM109.827 114.505C110.628 114.043 111.326 113.366 111.773 112.551C112.226 113.375 112.904 114.052 113.727 114.505C112.934 114.947 112.231 115.666 111.773 116.451C111.303 115.645 110.647 114.947 109.827 114.505ZM93.8273 114.505C94.6283 114.043 95.3263 113.366 95.7733 112.551C96.2258 113.375 96.9036 114.053 97.7273 114.505C96.9343 114.947 96.2313 115.666 95.7733 116.451C95.3033 115.645 94.6473 114.947 93.8273 114.505ZM77.8273 114.505C78.6283 114.043 79.3263 113.366 79.7733 112.551C80.2258 113.375 80.9036 114.053 81.7273 114.505C80.9343 114.947 80.2313 115.666 79.7733 116.451C79.3033 115.645 78.6473 114.947 77.8273 114.505ZM125.827 130.505C126.628 130.043 127.326 129.366 127.773 128.551C128.226 129.375 128.904 130.052 129.727 130.505C128.934 130.947 128.231 131.666 127.773 132.451C127.303 131.645 126.647 130.947 125.827 130.505ZM93.8273 130.505C94.6283 130.043 95.3263 129.366 95.7733 128.551C96.2258 129.375 96.9036 130.053 97.7273 130.505C96.9343 130.947 96.2313 131.666 95.7733 132.451C95.3033 131.645 94.6473 130.947 93.8273 130.505ZM77.8273 130.505C78.6283 130.043 79.3263 129.366 79.7733 128.551C80.2258 129.375 80.9036 130.053 81.7273 130.505C80.9343 130.947 80.2313 131.666 79.7733 132.451C79.3033 131.645 78.6473 130.947 77.8273 130.505ZM61.8273 130.505C62.6283 130.043 63.3263 129.366 63.7733 128.551C64.2258 129.375 64.9036 130.053 65.7273 130.505C64.9343 130.947 64.2313 131.666 63.7733 132.451C63.3033 131.645 62.6473 130.947 61.8273 130.505ZM141.827 146.505C142.628 146.043 143.326 145.366 143.773 144.551C144.226 145.375 144.904 146.052 145.727 146.505C144.934 146.947 144.231 147.666 143.773 148.451C143.303 147.645 142.647 146.947 141.827 146.505ZM77.8273 146.505C78.6283 146.043 79.3263 145.366 79.7733 144.551C80.2258 145.375 80.9036 146.053 81.7273 146.505C80.9343 146.947 80.2313 147.666 79.7733 148.451C79.3033 147.645 78.6473 146.947 77.8273 146.505ZM61.8273 146.505C62.6283 146.043 63.3263 145.366 63.7733 144.551C64.2258 145.375 64.9036 146.053 65.7273 146.505C64.9343 146.947 64.2313 147.666 63.7733 148.451C63.3033 147.645 62.6473 146.947 61.8273 146.505ZM45.8273 146.505C46.6283 146.043 47.3263 145.366 47.7733 144.551C48.2258 145.375 48.9036 146.053 49.7273 146.505C48.9343 146.947 48.2313 147.666 47.7733 148.451C47.3033 147.645 46.6473 146.947 45.8273 146.505ZM171.777 226C172.706 226 173.596 225.631 174.252 224.975C174.909 224.318 175.277 223.428 175.277 222.5V214.5C175.277 213.572 174.909 212.682 174.252 212.025C173.596 211.369 172.706 211 171.777 211H163.777C162.849 211 161.959 211.369 161.302 212.025C160.646 212.682 160.277 213.572 160.277 214.5V222.5C160.277 223.428 160.646 224.318 161.302 224.975C161.959 225.631 162.849 226 163.777 226H171.777ZM155.777 226C156.706 226 157.596 225.631 158.252 224.975C158.909 224.318 159.277 223.428 159.277 222.5V214.5C159.277 213.572 158.909 212.682 158.252 212.025C157.596 211.369 156.706 211 155.777 211H147.777C146.849 211 145.959 211.369 145.302 212.025C144.646 212.682 144.277 213.572 144.277 214.5V222.5C144.277 223.428 144.646 224.318 145.302 224.975C145.959 225.631 146.849 226 147.777 226H155.777ZM139.777 226C140.706 226 141.596 225.631 142.252 224.975C142.909 224.318 143.277 223.428 143.277 222.5V214.5C143.277 213.572 142.909 212.682 142.252 212.025C141.596 211.369 140.706 211 139.777 211H131.777C130.849 211 129.959 211.369 129.302 212.025C128.646 212.682 128.277 213.572 128.277 214.5V222.5C128.277 223.428 128.646 224.318 129.302 224.975C129.959 225.631 130.849 226 131.777 226H139.777ZM219.777 242C220.706 242 221.596 241.631 222.252 240.975C222.909 240.319 223.277 239.428 223.277 238.5V230.5C223.277 229.572 222.909 228.681 222.252 228.025C221.596 227.369 220.706 227 219.777 227H211.777C210.849 227 209.959 227.369 209.302 228.025C208.646 228.681 208.277 229.572 208.277 230.5V238.5C208.277 239.428 208.646 240.319 209.302 240.975C209.959 241.631 210.849 242 211.777 242H219.777ZM203.777 242C204.706 242 205.596 241.631 206.252 240.975C206.909 240.319 207.277 239.428 207.277 238.5V230.5C207.277 229.572 206.909 228.681 206.252 228.025C205.596 227.369 204.706 227 203.777 227H195.777C194.849 227 193.959 227.369 193.302 228.025C192.646 228.681 192.277 229.572 192.277 230.5V238.5C192.277 239.428 192.646 240.319 193.302 240.975C193.959 241.631 194.849 242 195.777 242H203.777ZM187.777 242C188.706 242 189.596 241.631 190.252 240.975C190.909 240.319 191.277 239.428 191.277 238.5V230.5C191.277 229.572 190.909 228.681 190.252 228.025C189.596 227.369 188.706 227 187.777 227H179.777C178.849 227 177.959 227.369 177.302 228.025C176.646 228.681 176.277 229.572 176.277 230.5V238.5C176.277 239.428 176.646 240.319 177.302 240.975C177.959 241.631 178.849 242 179.777 242H187.777ZM171.777 242C172.706 242 173.596 241.631 174.252 240.975C174.909 240.319 175.277 239.428 175.277 238.5V230.5C175.277 229.572 174.909 228.681 174.252 228.025C173.596 227.369 172.706 227 171.777 227H163.777C162.849 227 161.959 227.369 161.302 228.025C160.646 228.681 160.277 229.572 160.277 230.5V238.5C160.277 239.428 160.646 240.319 161.302 240.975C161.959 241.631 162.849 242 163.777 242H171.777ZM123.777 242C124.706 242 125.596 241.631 126.252 240.975C126.909 240.319 127.277 239.428 127.277 238.5V230.5C127.277 229.572 126.909 228.681 126.252 228.025C125.596 227.369 124.706 227 123.777 227H115.777C114.849 227 113.959 227.369 113.302 228.025C112.646 228.681 112.277 229.572 112.277 230.5V238.5C112.277 239.428 112.646 240.319 113.302 240.975C113.959 241.631 114.849 242 115.777 242H123.777ZM107.777 242C108.706 242 109.596 241.631 110.252 240.975C110.909 240.319 111.277 239.428 111.277 238.5V230.5C111.277 229.572 110.909 228.681 110.252 228.025C109.596 227.369 108.706 227 107.777 227H99.7773C98.8491 227 97.9588 227.369 97.3025 228.025C96.6461 228.681 96.2773 229.572 96.2773 230.5V238.5C96.2773 239.428 96.6461 240.319 97.3025 240.975C97.9588 241.631 98.8491 242 99.7773 242H107.777ZM219.777 258C220.706 258 221.596 257.631 222.252 256.975C222.909 256.319 223.277 255.428 223.277 254.5V246.5C223.277 245.572 222.909 244.681 222.252 244.025C221.596 243.369 220.706 243 219.777 243H211.777C210.849 243 209.959 243.369 209.302 244.025C208.646 244.681 208.277 245.572 208.277 246.5V254.5C208.277 255.428 208.646 256.319 209.302 256.975C209.959 257.631 210.849 258 211.777 258H219.777ZM203.777 258C204.706 258 205.596 257.631 206.252 256.975C206.909 256.319 207.277 255.428 207.277 254.5V246.5C207.277 245.572 206.909 244.681 206.252 244.025C205.596 243.369 204.706 243 203.777 243H195.777C194.849 243 193.959 243.369 193.302 244.025C192.646 244.681 192.277 245.572 192.277 246.5V254.5C192.277 255.428 192.646 256.319 193.302 256.975C193.959 257.631 194.849 258 195.777 258H203.777ZM187.777 258C188.706 258 189.596 257.631 190.252 256.975C190.909 256.319 191.277 255.428 191.277 254.5V246.5C191.277 245.572 190.909 244.681 190.252 244.025C189.596 243.369 188.706 243 187.777 243H179.777C178.849 243 177.959 243.369 177.302 244.025C176.646 244.681 176.277 245.572 176.277 246.5V254.5C176.277 255.428 176.646 256.319 177.302 256.975C177.959 257.631 178.849 258 179.777 258H187.777ZM171.777 258C172.706 258 173.596 257.631 174.252 256.975C174.909 256.319 175.277 255.428 175.277 254.5V246.5C175.277 245.572 174.909 244.681 174.252 244.025C173.596 243.369 172.706 243 171.777 243H163.777C162.849 243 161.959 243.369 161.302 244.025C160.646 244.681 160.277 245.572 160.277 246.5V254.5C160.277 255.428 160.646 256.319 161.302 256.975C161.959 257.631 162.849 258 163.777 258H171.777ZM123.777 258C124.706 258 125.596 257.631 126.252 256.975C126.909 256.319 127.277 255.428 127.277 254.5V246.5C127.277 245.572 126.909 244.681 126.252 244.025C125.596 243.369 124.706 243 123.777 243H115.777C114.849 243 113.959 243.369 113.302 244.025C112.646 244.681 112.277 245.572 112.277 246.5V254.5C112.277 255.428 112.646 256.319 113.302 256.975C113.959 257.631 114.849 258 115.777 258H123.777ZM107.777 258C108.706 258 109.596 257.631 110.252 256.975C110.909 256.319 111.277 255.428 111.277 254.5V246.5C111.277 245.572 110.909 244.681 110.252 244.025C109.596 243.369 108.706 243 107.777 243H99.7773C98.8491 243 97.9588 243.369 97.3025 244.025C96.6461 244.681 96.2773 245.572 96.2773 246.5V254.5C96.2773 255.428 96.6461 256.319 97.3025 256.975C97.9588 257.631 98.8491 258 99.7773 258H107.777ZM187.777 274C188.706 274 189.596 273.631 190.252 272.975C190.909 272.319 191.277 271.428 191.277 270.5V262.5C191.277 261.572 190.909 260.681 190.252 260.025C189.596 259.369 188.706 259 187.777 259H179.777C178.849 259 177.959 259.369 177.302 260.025C176.646 260.681 176.277 261.572 176.277 262.5V270.5C176.277 271.428 176.646 272.319 177.302 272.975C177.959 273.631 178.849 274 179.777 274H187.777ZM171.777 274C172.706 274 173.596 273.631 174.252 272.975C174.909 272.319 175.277 271.428 175.277 270.5V262.5C175.277 261.572 174.909 260.681 174.252 260.025C173.596 259.369 172.706 259 171.777 259H163.777C162.849 259 161.959 259.369 161.302 260.025C160.646 260.681 160.277 261.572 160.277 262.5V270.5C160.277 271.428 160.646 272.319 161.302 272.975C161.959 273.631 162.849 274 163.777 274H171.777ZM187.777 290C188.706 290 189.596 289.631 190.252 288.975C190.909 288.319 191.277 287.428 191.277 286.5V278.5C191.277 277.572 190.909 276.681 190.252 276.025C189.596 275.369 188.706 275 187.777 275H179.777C178.849 275 177.959 275.369 177.302 276.025C176.646 276.681 176.277 277.572 176.277 278.5V286.5C176.277 287.428 176.646 288.319 177.302 288.975C177.959 289.631 178.849 290 179.777 290H187.777ZM171.777 290C172.706 290 173.596 289.631 174.252 288.975C174.909 288.319 175.277 287.428 175.277 286.5V278.5C175.277 277.572 174.909 276.681 174.252 276.025C173.596 275.369 172.706 275 171.777 275H163.777C162.849 275 161.959 275.369 161.302 276.025C160.646 276.681 160.277 277.572 160.277 278.5V286.5C160.277 287.428 160.646 288.319 161.302 288.975C161.959 289.631 162.849 290 163.777 290H171.777ZM205.827 114.505C206.628 114.043 207.326 113.366 207.773 112.551C208.226 113.375 208.904 114.052 209.727 114.505C208.934 114.947 208.231 115.666 207.773 116.451C207.303 115.645 206.647 114.947 205.827 114.505ZM221.827 114.505C222.628 114.043 223.326 113.366 223.773 112.551C224.226 113.375 224.904 114.052 225.727 114.505C224.934 114.947 224.231 115.666 223.773 116.451C223.303 115.645 222.647 114.947 221.827 114.505ZM175.782 20.45C175.32 19.65 174.643 18.952 173.828 18.504C174.652 18.0517 175.33 17.3743 175.782 16.551C176.225 17.343 176.943 18.047 177.728 18.504C176.923 18.974 176.225 19.63 175.782 20.45ZM175.782 36.45C175.32 35.65 174.643 34.952 173.828 34.504C174.652 34.0517 175.33 33.3743 175.782 32.551C176.225 33.343 176.943 34.047 177.728 34.504C176.923 34.974 176.225 35.63 175.782 36.45ZM175.782 52.45C175.32 51.65 174.643 50.952 173.828 50.504C174.652 50.0517 175.33 49.3743 175.782 48.551C176.225 49.343 176.943 50.047 177.728 50.504C176.923 50.974 176.225 51.63 175.782 52.45ZM191.782 4.45C191.32 3.65 190.643 2.952 189.828 2.504C190.652 2.05168 191.33 1.37428 191.782 0.551001C192.225 1.343 192.943 2.047 193.728 2.504C192.923 2.974 192.225 3.63 191.782 4.45ZM191.782 36.45C191.32 35.65 190.643 34.952 189.828 34.504C190.652 34.0517 191.33 33.3743 191.782 32.551C192.225 33.343 192.943 34.047 193.728 34.504C192.923 34.974 192.225 35.63 191.782 36.45ZM191.782 52.45C191.32 51.65 190.643 50.952 189.828 50.504C190.652 50.0517 191.33 49.3743 191.782 48.551C192.225 49.343 192.943 50.047 193.728 50.504C192.923 50.974 192.225 51.63 191.782 52.45ZM191.782 68.45C191.32 67.65 190.643 66.952 189.828 66.504C190.652 66.0517 191.33 65.3743 191.782 64.551C192.225 65.343 192.943 66.047 193.728 66.504C192.923 66.974 192.225 67.63 191.782 68.45ZM207.782 100.451C207.32 99.649 206.643 98.952 205.828 98.504C206.652 98.0518 207.33 97.3744 207.782 96.551C208.225 97.343 208.943 98.047 209.728 98.504C208.923 98.974 208.225 99.631 207.782 100.451ZM223.782 100.451C223.32 99.649 222.643 98.952 221.828 98.504C222.652 98.0518 223.33 97.3744 223.782 96.551C224.225 97.343 224.943 98.047 225.728 98.504C224.923 98.974 224.225 99.631 223.782 100.451ZM191.778 100.451C191.316 99.649 190.639 98.952 189.824 98.504C190.648 98.0518 191.326 97.3744 191.778 96.551C192.221 97.343 192.939 98.047 193.724 98.504C192.919 98.974 192.221 99.631 191.778 100.451ZM207.782 -11.55C207.32 -12.35 206.643 -13.048 205.828 -13.496C206.652 -13.9483 207.33 -14.6257 207.782 -15.449C208.225 -14.657 208.943 -13.953 209.728 -13.496C208.923 -13.026 208.225 -12.37 207.782 -11.55ZM223.782 -11.55C223.32 -12.35 222.643 -13.048 221.828 -13.496C222.652 -13.9483 223.33 -14.6257 223.782 -15.449C224.225 -14.657 224.943 -13.953 225.728 -13.496C224.923 -13.026 224.225 -12.37 223.782 -11.55ZM207.782 52.45C207.32 51.65 206.643 50.952 205.828 50.504C206.652 50.0517 207.33 49.3743 207.782 48.551C208.225 49.343 208.943 50.047 209.728 50.504C208.923 50.974 208.225 51.63 207.782 52.45ZM223.782 52.45C223.32 51.65 222.643 50.952 221.828 50.504C222.652 50.0517 223.33 49.3743 223.782 48.551C224.225 49.343 224.943 50.047 225.728 50.504C224.923 50.974 224.225 51.63 223.782 52.45ZM207.782 68.45C207.32 67.65 206.643 66.952 205.828 66.504C206.652 66.0517 207.33 65.3743 207.782 64.551C208.225 65.343 208.943 66.047 209.728 66.504C208.923 66.974 208.225 67.63 207.782 68.45ZM223.782 68.45C223.32 67.65 222.643 66.952 221.828 66.504C222.652 66.0517 223.33 65.3743 223.782 64.551C224.225 65.343 224.943 66.047 225.728 66.504C224.923 66.974 224.225 67.63 223.782 68.45ZM207.782 84.451C207.32 83.649 206.643 82.952 205.828 82.504C206.652 82.0518 207.33 81.3744 207.782 80.551C208.225 81.343 208.943 82.047 209.728 82.504C208.923 82.974 208.225 83.631 207.782 84.451ZM223.782 84.451C223.32 83.649 222.643 82.952 221.828 82.504C222.652 82.0518 223.33 81.3744 223.782 80.551C224.225 81.343 224.943 82.047 225.728 82.504C224.923 82.974 224.225 83.631 223.782 84.451ZM175.782 100.451C175.32 99.649 174.643 98.952 173.828 98.504C174.652 98.0518 175.33 97.3744 175.782 96.551C176.225 97.343 176.943 98.047 177.728 98.504C176.923 98.974 176.225 99.631 175.782 100.451ZM157.827 162.505C158.628 162.043 159.326 161.366 159.773 160.551C160.226 161.375 160.904 162.052 161.727 162.505C160.934 162.947 160.231 163.666 159.773 164.451C159.303 163.645 158.647 162.947 157.827 162.505ZM125.827 162.505C126.628 162.043 127.326 161.366 127.773 160.551C128.226 161.375 128.904 162.052 129.727 162.505C128.934 162.947 128.231 163.666 127.773 164.451C127.303 163.645 126.647 162.947 125.827 162.505ZM93.8273 162.505C94.6283 162.043 95.3263 161.366 95.7733 160.551C96.2258 161.375 96.9036 162.053 97.7273 162.505C96.9343 162.947 96.2313 163.666 95.7733 164.451C95.3033 163.645 94.6473 162.947 93.8273 162.505ZM205.827 178.505C206.628 178.043 207.326 177.366 207.773 176.551C208.226 177.375 208.904 178.052 209.727 178.505C208.934 178.947 208.231 179.666 207.773 180.451C207.303 179.645 206.647 178.947 205.827 178.505ZM221.827 178.505C222.628 178.043 223.326 177.366 223.773 176.551C224.226 177.375 224.904 178.052 225.727 178.505C224.934 178.947 224.231 179.666 223.773 180.451C223.303 179.645 222.647 178.947 221.827 178.505ZM189.827 178.505C190.628 178.043 191.326 177.366 191.773 176.551C192.226 177.375 192.904 178.052 193.727 178.505C192.934 178.947 192.231 179.666 191.773 180.451C191.303 179.645 190.647 178.947 189.827 178.505ZM173.827 178.505C174.628 178.043 175.326 177.366 175.773 176.551C176.226 177.375 176.904 178.052 177.727 178.505C176.934 178.947 176.231 179.666 175.773 180.451C175.303 179.645 174.647 178.947 173.827 178.505ZM109.827 178.505C110.628 178.043 111.326 177.366 111.773 176.551C112.226 177.375 112.904 178.052 113.727 178.505C112.934 178.947 112.231 179.666 111.773 180.451C111.303 179.645 110.647 178.947 109.827 178.505ZM205.827 194.505C206.628 194.043 207.326 193.366 207.773 192.551C208.226 193.375 208.904 194.052 209.727 194.505C208.934 194.947 208.231 195.666 207.773 196.451C207.303 195.645 206.647 194.947 205.827 194.505ZM221.827 194.505C222.628 194.043 223.326 193.366 223.773 192.551C224.226 193.375 224.904 194.052 225.727 194.505C224.934 194.947 224.231 195.666 223.773 196.451C223.303 195.645 222.647 194.947 221.827 194.505ZM189.827 194.505C190.628 194.043 191.326 193.366 191.773 192.551C192.226 193.375 192.904 194.052 193.727 194.505C192.934 194.947 192.231 195.666 191.773 196.451C191.303 195.645 190.647 194.947 189.827 194.505ZM173.827 194.505C174.628 194.043 175.326 193.366 175.773 192.551C176.226 193.375 176.904 194.052 177.727 194.505C176.934 194.947 176.231 195.666 175.773 196.451C175.303 195.645 174.647 194.947 173.827 194.505ZM157.827 194.505C158.628 194.043 159.326 193.366 159.773 192.551C160.226 193.375 160.904 194.052 161.727 194.505C160.934 194.947 160.231 195.666 159.773 196.451C159.303 195.645 158.647 194.947 157.827 194.505ZM125.827 194.505C126.628 194.043 127.326 193.366 127.773 192.551C128.226 193.375 128.904 194.052 129.727 194.505C128.934 194.947 128.231 195.666 127.773 196.451C127.303 195.645 126.647 194.947 125.827 194.505ZM205.827 210.505C206.628 210.043 207.326 209.366 207.773 208.551C208.226 209.375 208.904 210.052 209.727 210.505C208.934 210.947 208.231 211.666 207.773 212.451C207.303 211.645 206.647 210.947 205.827 210.505ZM221.827 210.505C222.628 210.043 223.326 209.366 223.773 208.551C224.226 209.375 224.904 210.052 225.727 210.505C224.934 210.947 224.231 211.666 223.773 212.451C223.303 211.645 222.647 210.947 221.827 210.505ZM189.827 210.505C190.628 210.043 191.326 209.366 191.773 208.551C192.226 209.375 192.904 210.052 193.727 210.505C192.934 210.947 192.231 211.666 191.773 212.451C191.303 211.645 190.647 210.947 189.827 210.505ZM173.827 210.505C174.628 210.043 175.326 209.366 175.773 208.551C176.226 209.375 176.904 210.052 177.727 210.505C176.934 210.947 176.231 211.666 175.773 212.451C175.303 211.645 174.647 210.947 173.827 210.505ZM157.827 210.505C158.628 210.043 159.326 209.366 159.773 208.551C160.226 209.375 160.904 210.052 161.727 210.505C160.934 210.947 160.231 211.666 159.773 212.451C159.303 211.645 158.647 210.947 157.827 210.505ZM141.827 210.505C142.628 210.043 143.326 209.366 143.773 208.551C144.226 209.375 144.904 210.052 145.727 210.505C144.934 210.947 144.231 211.666 143.773 212.451C143.303 211.645 142.647 210.947 141.827 210.505ZM205.827 226.505C206.628 226.043 207.326 225.366 207.773 224.551C208.226 225.375 208.904 226.052 209.727 226.505C208.934 226.947 208.231 227.666 207.773 228.451C207.303 227.645 206.647 226.947 205.827 226.505ZM221.827 226.505C222.628 226.043 223.326 225.366 223.773 224.551C224.226 225.375 224.904 226.052 225.727 226.505C224.934 226.947 224.231 227.666 223.773 228.451C223.303 227.645 222.647 226.947 221.827 226.505ZM189.827 226.505C190.628 226.043 191.326 225.366 191.773 224.551C192.226 225.375 192.904 226.052 193.727 226.505C192.934 226.947 192.231 227.666 191.773 228.451C191.303 227.645 190.647 226.947 189.827 226.505ZM173.827 226.505C174.628 226.043 175.326 225.366 175.773 224.551C176.226 225.375 176.904 226.052 177.727 226.505C176.934 226.947 176.231 227.666 175.773 228.451C175.303 227.645 174.647 226.947 173.827 226.505ZM157.827 226.505C158.628 226.043 159.326 225.366 159.773 224.551C160.226 225.375 160.904 226.052 161.727 226.505C160.934 226.947 160.231 227.666 159.773 228.451C159.303 227.645 158.647 226.947 157.827 226.505ZM125.827 226.505C126.628 226.043 127.326 225.366 127.773 224.551C128.226 225.375 128.904 226.052 129.727 226.505C128.934 226.947 128.231 227.666 127.773 228.451C127.303 227.645 126.647 226.947 125.827 226.505ZM205.827 242.505C206.628 242.043 207.326 241.366 207.773 240.551C208.226 241.375 208.904 242.052 209.727 242.505C208.934 242.947 208.231 243.666 207.773 244.451C207.303 243.645 206.647 242.947 205.827 242.505ZM221.827 242.505C222.628 242.043 223.326 241.366 223.773 240.551C224.226 241.375 224.904 242.052 225.727 242.505C224.934 242.947 224.231 243.666 223.773 244.451C223.303 243.645 222.647 242.947 221.827 242.505ZM189.827 242.505C190.628 242.043 191.326 241.366 191.773 240.551C192.226 241.375 192.904 242.052 193.727 242.505C192.934 242.947 192.231 243.666 191.773 244.451C191.303 243.645 190.647 242.947 189.827 242.505ZM173.827 242.505C174.628 242.043 175.326 241.366 175.773 240.551C176.226 241.375 176.904 242.052 177.727 242.505C176.934 242.947 176.231 243.666 175.773 244.451C175.303 243.645 174.647 242.947 173.827 242.505ZM109.827 242.505C110.628 242.043 111.326 241.366 111.773 240.551C112.226 241.375 112.904 242.052 113.727 242.505C112.934 242.947 112.231 243.666 111.773 244.451C111.303 243.645 110.647 242.947 109.827 242.505ZM189.827 258.505C190.628 258.043 191.326 257.366 191.773 256.551C192.226 257.375 192.904 258.052 193.727 258.505C192.934 258.947 192.231 259.666 191.773 260.451C191.303 259.645 190.647 258.947 189.827 258.505ZM173.827 258.505C174.628 258.043 175.326 257.366 175.773 256.551C176.226 257.375 176.904 258.052 177.727 258.505C176.934 258.947 176.231 259.666 175.773 260.451C175.303 259.645 174.647 258.947 173.827 258.505ZM173.827 274.505C174.628 274.043 175.326 273.366 175.773 272.551C176.226 273.375 176.904 274.052 177.727 274.505C176.934 274.947 176.231 275.666 175.773 276.451C175.303 275.645 174.647 274.947 173.827 274.505Z" fill="#FAEAD1"/>
</svg>
