<svg width="633" height="548" viewBox="0 0 633 548" fill="none" xmlns="http://www.w3.org/2000/svg">
<g opacity="0.15">
<path d="M482.793 283.862L537.873 199.535C537.237 198.926 536.885 197.978 537.006 196.826C537.225 194.758 538.886 192.897 540.708 192.679C542.53 192.461 543.836 193.968 543.617 196.036C543.399 198.104 541.738 199.966 539.916 200.184C539.49 200.235 539.097 200.184 538.743 200.067L484.01 283.863L487.303 297.263L408.981 407.282L408.186 406.643L486.08 297.213L482.806 283.848L482.793 283.862ZM542.319 196.191C542.452 194.928 541.655 194.009 540.543 194.142C539.43 194.275 538.416 195.411 538.283 196.674C538.149 197.937 538.946 198.857 540.059 198.724C541.172 198.591 542.186 197.455 542.319 196.191Z" fill="#F99F1B"/>
<path d="M555.351 275.712C555.564 273.693 557.189 271.873 558.967 271.66C560.746 271.448 562.023 272.922 561.81 274.94C561.596 276.959 559.972 278.779 558.193 278.992C556.415 279.204 555.138 277.731 555.351 275.712ZM561.1 275.025C561.268 273.44 560.268 272.3 558.882 272.465C557.497 272.631 556.226 274.055 556.06 275.627C555.894 277.2 556.893 278.352 558.278 278.187C559.664 278.021 560.934 276.598 561.1 275.025Z" fill="#F99F1B"/>
<path d="M556.379 278.639L514.96 335.802L482.876 339.636L448.211 391.492L447.391 390.893L482.44 338.465L514.556 334.627L555.586 277.988L556.379 278.639Z" fill="#F99F1B"/>
<path d="M498.859 317.912C498.64 319.98 496.979 321.842 495.157 322.059C493.335 322.277 492.029 320.77 492.248 318.702C492.466 316.634 494.127 314.772 495.949 314.554C496.604 314.476 497.18 314.627 497.654 314.938C501.845 309.521 536.178 262.34 554.656 236.887L553.019 215.353L573.994 179.819C573.325 179.215 572.943 178.245 573.067 177.069C573.286 175.001 574.947 173.139 576.769 172.922C578.591 172.704 579.896 174.211 579.678 176.279C579.46 178.347 577.798 180.209 575.977 180.426C575.584 180.473 575.211 180.432 574.878 180.325L554.152 215.438L555.791 237.057L555.614 237.298C553.422 240.311 503.812 308.638 498.363 315.672C498.753 316.261 498.941 317.034 498.848 317.913L498.859 317.912ZM578.39 176.445C578.523 175.182 577.726 174.262 576.613 174.395C575.501 174.528 574.487 175.664 574.353 176.927C574.22 178.191 575.017 179.11 576.13 178.977C577.242 178.844 578.256 177.708 578.39 176.445ZM493.535 318.548C493.402 319.811 494.199 320.731 495.311 320.598C496.424 320.465 497.438 319.329 497.571 318.066C497.705 316.802 496.908 315.883 495.795 316.016C494.682 316.149 493.668 317.285 493.535 318.548Z" fill="#F99F1B"/>
<path d="M452.852 288.311C452.686 288.355 452.508 288.413 452.333 288.434C450.511 288.652 449.206 287.145 449.424 285.077C449.642 283.009 451.304 281.147 453.125 280.929C454.947 280.712 456.253 282.218 456.035 284.287C455.884 285.711 455.034 287.035 453.931 287.791L455.337 303.042L413.798 361.539L413.63 361.4C414.096 362.091 414.333 363.004 414.222 364.056C413.965 366.496 412.01 368.686 409.861 368.943C407.712 369.2 406.164 367.428 406.422 364.989C406.68 362.549 408.635 360.347 410.796 360.088C411.712 359.979 412.502 360.251 413.103 360.779L454.21 302.895L452.863 288.31L452.852 288.311ZM454.749 284.428C454.882 283.165 454.085 282.245 452.972 282.378C451.86 282.511 450.846 283.647 450.712 284.91C450.579 286.174 451.376 287.093 452.489 286.96C453.601 286.827 454.615 285.691 454.749 284.428ZM407.404 364.871C407.212 366.692 408.364 368.021 409.968 367.83C411.571 367.638 413.037 365.996 413.229 364.175C413.421 362.355 412.269 361.025 410.666 361.217C409.062 361.408 407.596 363.051 407.404 364.871Z" fill="#F99F1B"/>
<path d="M507.543 176.595C507.642 175.654 508.062 174.736 508.711 173.998C509.371 173.259 510.183 172.807 511.012 172.708C511.841 172.609 512.577 172.888 513.096 173.474C514.124 174.659 513.879 176.975 512.572 178.44C511.913 179.179 511.1 179.631 510.271 179.73C509.442 179.829 508.707 179.55 508.187 178.964C507.668 178.365 507.445 177.524 507.544 176.583L507.543 176.595ZM512.081 177.887C512.582 177.326 512.883 176.617 512.954 175.949C513.024 175.28 512.867 174.626 512.473 174.172C511.676 173.252 510.215 173.427 509.201 174.563C508.187 175.699 508.012 177.358 508.809 178.278C509.605 179.198 511.067 179.023 512.081 177.887Z" fill="#F99F1B"/>
<path d="M390.863 227.394C390.651 229.401 389.039 231.207 387.271 231.419C386.879 231.465 386.506 231.424 386.174 231.305L365.848 262.531L367.054 288.138L366.901 288.364C366.098 289.549 347.115 317.337 345.099 319.595L344.928 319.787L323.323 323.225L293.46 367.243C294.386 368.172 294.901 369.614 294.721 371.323C294.385 374.506 291.832 377.366 289.028 377.702C286.224 378.037 284.218 375.721 284.554 372.538C284.89 369.355 287.443 366.495 290.246 366.16C291.152 366.051 291.961 366.248 292.653 366.63L322.873 322.08L344.577 318.618C346.695 316.005 359.266 297.738 365.929 287.979L364.72 262.396L385.291 230.787C384.664 230.202 384.321 229.264 384.437 228.162C384.649 226.156 386.262 224.349 388.029 224.138C389.796 223.927 391.064 225.389 390.852 227.396L390.863 227.394ZM285.861 372.394C285.61 374.772 287.108 376.5 289.203 376.25C291.297 376 293.203 373.864 293.454 371.487C293.705 369.109 292.207 367.38 290.113 367.631C288.018 367.881 286.112 370.016 285.861 372.394ZM385.539 228.031C385.399 229.356 386.235 230.32 387.402 230.18C388.569 230.041 389.632 228.85 389.772 227.525C389.912 226.2 389.076 225.236 387.909 225.375C386.742 225.515 385.679 226.705 385.539 228.031Z" fill="#F99F1B"/>
<path d="M553.507 335.741C553.752 333.413 555.609 331.333 557.66 331.088C559.711 330.842 561.171 332.527 560.925 334.855C560.679 337.183 558.822 339.264 556.771 339.509C554.72 339.754 553.261 338.07 553.507 335.741Z" fill="#F99F1B"/>
<path d="M504.296 132.283L487.736 134.262L416.78 244.391L418.242 260.235L376.945 318.385C377.394 319.237 377.594 320.301 377.47 321.477C377.134 324.66 374.58 327.521 371.777 327.856C368.973 328.191 366.966 325.875 367.302 322.693C367.638 319.51 370.192 316.649 372.995 316.314C374.348 316.152 375.515 316.624 376.327 317.505L417.105 260.089L415.649 244.294L487.105 133.396L487.298 133.104L504.436 131.056C504.977 128.484 507.086 126.264 509.398 125.987C511.896 125.689 513.693 127.748 513.393 130.597C513.092 133.445 510.82 135.991 508.311 136.291C505.998 136.567 504.309 134.812 504.305 132.294L504.296 132.283ZM368.601 322.537C368.35 324.915 369.847 326.644 371.942 326.393C374.037 326.143 375.942 324.008 376.193 321.63C376.444 319.252 374.946 317.524 372.852 317.774C370.757 318.024 368.852 320.16 368.601 322.537ZM512.096 130.739C512.31 128.708 511.023 127.224 509.234 127.437C507.445 127.651 505.808 129.485 505.594 131.516C505.379 133.547 506.655 135.033 508.455 134.818C510.255 134.603 511.881 132.77 512.096 130.739Z" fill="#F99F1B"/>
<path d="M432.278 290.53C432.278 290.53 432.289 290.528 432.3 290.527C434.122 290.309 435.428 291.816 435.209 293.884C434.991 295.952 433.329 297.814 431.508 298.032C429.686 298.249 428.38 296.742 428.598 294.674C428.771 293.04 429.843 291.554 431.185 290.88L430.962 272.993L493.141 179.271L507.567 175.982L507.545 177.207L493.638 180.385L432.074 273.178L432.288 290.541L432.278 290.53ZM429.875 294.522C429.741 295.785 430.538 296.705 431.651 296.572C432.764 296.439 433.778 295.303 433.911 294.039C434.044 292.776 433.247 291.857 432.135 291.99C431.022 292.123 430.008 293.259 429.875 294.522Z" fill="#F99F1B"/>
<path d="M475.23 260.094C474.984 262.422 473.127 264.503 471.076 264.748C469.025 264.993 467.566 263.309 467.812 260.981C468.057 258.653 469.914 256.572 471.965 256.327C472.423 256.272 472.848 256.331 473.244 256.455L500.572 216.152C500.236 215.654 500.059 214.99 500.138 214.235C500.324 212.476 501.729 210.902 503.278 210.717C504.827 210.532 505.931 211.806 505.746 213.565C505.56 215.323 504.155 216.897 502.606 217.082C502.126 217.14 501.694 217.044 501.328 216.844L474.129 256.949C474.921 257.612 475.374 258.732 475.23 260.094ZM504.458 213.718C504.559 212.765 503.964 212.078 503.124 212.178C502.284 212.279 501.526 213.127 501.426 214.081C501.325 215.034 501.92 215.721 502.76 215.621C503.6 215.521 504.358 214.672 504.458 213.718Z" fill="#F99F1B"/>
<path d="M347.584 353.998C347.411 353.701 347.331 353.332 347.376 352.911C347.489 351.833 348.345 350.875 349.294 350.762C350.243 350.648 350.915 351.424 350.801 352.501C350.687 353.579 349.832 354.537 348.883 354.65C348.709 354.671 348.549 354.653 348.392 354.611L330.442 380.771C330.496 380.973 330.515 381.203 330.489 381.451C330.382 382.466 329.576 383.37 328.681 383.476C327.786 383.583 327.153 382.852 327.26 381.837C327.367 380.821 328.173 379.918 329.068 379.811C329.33 379.779 329.573 379.824 329.777 379.934L347.574 353.987L347.584 353.998Z" fill="#F99F1B"/>
<path d="M569.694 15.8783C569.448 18.2065 567.592 20.2871 565.541 20.5322C565.006 20.596 564.519 20.5198 564.084 20.3516L548.782 43.3711L537.215 43.7629L520.618 68.2333C521.41 68.8968 521.862 70.0165 521.719 71.3788C521.473 73.707 519.616 75.7875 517.565 76.0326C515.514 76.2777 514.055 74.5935 514.3 72.2653C514.546 69.9371 516.403 67.8566 518.454 67.6115C518.912 67.5567 519.337 67.616 519.733 67.7399L536.816 42.5389L548.383 42.147L563.249 19.7911C562.545 19.1172 562.151 18.0515 562.286 16.7759C562.531 14.4477 564.388 12.3672 566.439 12.1221C568.49 11.877 569.95 13.5612 569.704 15.8894L569.694 15.8783Z" fill="#F99F1B"/>
<path d="M369.257 363.704L371.84 360.156L374.305 362.219L371.722 365.767L369.257 363.704Z" fill="#F99F1B"/>
<path d="M377.003 353.056L379.586 349.508L382.051 351.571L379.468 355.119L377.003 353.056Z" fill="#F99F1B"/>
<path d="M384.768 342.384L387.352 338.835L389.817 340.898L387.234 344.446L384.768 342.384Z" fill="#F99F1B"/>
<path d="M392.526 331.736L395.109 328.188L397.575 330.25L394.992 333.799L392.526 331.736Z" fill="#F99F1B"/>
<path d="M400.288 321.094L402.871 317.546L405.337 319.609L402.753 323.157L400.288 321.094Z" fill="#F99F1B"/>
<path d="M408.052 310.438L410.635 306.89L413.1 308.953L410.517 312.501L408.052 310.438Z" fill="#F99F1B"/>
<path d="M541.54 166.189L544.123 162.641L546.588 164.704L544.005 168.252L541.54 166.189Z" fill="#F99F1B"/>
<path d="M549.331 155.517L551.914 151.969L554.379 154.032L551.796 157.58L549.331 155.517Z" fill="#F99F1B"/>
<path d="M557.057 144.861L559.641 141.312L562.106 143.375L559.523 146.924L557.057 144.861Z" fill="#F99F1B"/>
<path d="M564.811 134.22L567.395 130.672L569.86 132.735L567.277 136.283L564.811 134.22Z" fill="#F99F1B"/>
<path d="M572.579 123.556L575.162 120.008L577.628 122.071L575.044 125.619L572.579 123.556Z" fill="#F99F1B"/>
<path d="M580.35 112.892L582.934 109.344L585.399 111.407L582.816 114.955L580.35 112.892Z" fill="#F99F1B"/>
<path d="M521.917 352.275L524.5 348.727L526.965 350.79L524.382 354.338L521.917 352.275Z" fill="#F99F1B"/>
<path d="M529.651 341.626L532.234 338.078L534.7 340.141L532.117 343.689L529.651 341.626Z" fill="#F99F1B"/>
<path d="M537.421 330.954L540.004 327.406L542.469 329.469L539.886 333.017L537.421 330.954Z" fill="#F99F1B"/>
<path d="M545.173 320.29L547.756 316.742L550.221 318.805L547.638 322.353L545.173 320.29Z" fill="#F99F1B"/>
<path d="M552.919 309.649L555.502 306.101L557.967 308.164L555.384 311.712L552.919 309.649Z" fill="#F99F1B"/>
<path d="M560.712 298.986L563.295 295.438L565.76 297.5L563.177 301.049L560.712 298.986Z" fill="#F99F1B"/>
<path d="M521.86 108.692L544.819 77.7262L567.607 97.3554L544.648 128.321L521.86 108.692ZM544.824 80.0244L523.938 108.187L544.662 126.045L565.548 97.8827L544.824 80.0244Z" fill="#F99F1B"/>
<path d="M530.491 106.566L544.797 87.2729L558.995 99.5036L544.689 118.797L530.491 106.566ZM544.794 89.3397L532.361 106.098L544.692 116.73L557.125 99.9716L544.794 89.3397Z" fill="#F99F1B"/>
<path d="M539.355 104.371L544.729 97.125L550.061 101.72L544.687 108.965L539.355 104.371Z" fill="#F99F1B"/>
<path d="M489.135 352.423L507.864 368.563L488.988 394.015L470.258 377.875L489.135 352.423ZM506.162 368.974L489.13 354.307L471.973 377.45L489.005 392.118L506.162 368.974Z" fill="#F99F1B"/>
<path d="M489.113 360.271L500.784 370.322L489.028 386.18L477.357 376.13L489.113 360.271ZM499.247 370.701L489.106 361.972L478.894 375.75L489.035 384.48L499.247 370.701Z" fill="#F99F1B"/>
<path d="M484.623 374.319L489.037 368.367L493.417 372.141L489.003 378.093L484.623 374.319Z" fill="#F99F1B"/>
<path d="M400.205 208.456L402.639 204.922L405.185 206.871L402.751 210.405L400.205 208.456Z" fill="#F99F1B"/>
<path d="M407.514 197.846L409.947 194.312L412.493 196.261L410.06 199.795L407.514 197.846Z" fill="#F99F1B"/>
<path d="M414.75 187.26L417.184 183.727L419.729 185.676L417.296 189.209L414.75 187.26Z" fill="#F99F1B"/>
<path d="M506.761 46.5841C506.542 48.6522 504.881 50.5138 503.059 50.7315C502.372 50.8136 501.753 50.6552 501.274 50.2967L479.25 84.134L478.538 101.998L437.194 160.595C437.533 161.166 437.692 161.905 437.604 162.735C437.386 164.803 435.724 166.664 433.902 166.882C432.081 167.1 430.775 165.593 430.993 163.525C431.211 161.456 432.873 159.595 434.695 159.377C435.393 159.294 436.01 159.465 436.5 159.822L477.453 101.773L478.162 83.9339L500.57 49.5126C500.232 48.9417 500.062 48.2039 500.15 47.3741C500.368 45.306 502.03 43.4445 503.851 43.2267C505.673 43.009 506.979 44.516 506.761 46.5841ZM432.291 163.369C432.158 164.633 432.955 165.552 434.068 165.419C435.18 165.286 436.194 164.15 436.328 162.887C436.461 161.624 435.664 160.704 434.551 160.837C433.439 160.97 432.425 162.106 432.291 163.369ZM501.437 47.2203C501.304 48.4835 502.101 49.4031 503.213 49.2702C504.326 49.1372 505.34 48.0011 505.474 46.7379C505.607 45.4748 504.81 44.5551 503.697 44.6881C502.584 44.821 501.57 45.9571 501.437 47.2203Z" fill="#F99F1B"/>
<g style="mix-blend-mode:overlay" opacity="0.38">
<path d="M508.959 315.819C509.393 311.708 512.691 308.012 516.313 307.579C517.284 307.463 518.174 307.601 518.957 307.936L559.708 251.697L591.77 247.865L625.578 197.286C624.933 196.153 624.632 194.721 624.802 193.111C625.236 189 628.534 185.304 632.156 184.871C635.778 184.438 638.371 187.43 637.937 191.542C637.503 195.653 634.204 199.349 630.582 199.782C629.317 199.933 628.182 199.665 627.263 199.078L592.803 250.628L560.665 254.468L520.871 309.394C521.821 310.601 522.311 312.292 522.103 314.261C521.669 318.372 518.37 322.068 514.748 322.501C511.127 322.933 508.534 319.942 508.968 315.83L508.959 315.819ZM635.374 191.836C635.638 189.334 634.064 187.517 631.86 187.78C629.656 188.044 627.653 190.288 627.389 192.79C627.125 195.292 628.699 197.109 630.903 196.845C633.107 196.582 635.11 194.337 635.374 191.836ZM519.53 314.556C519.794 312.054 518.219 310.237 516.015 310.501C513.812 310.764 511.808 313.009 511.544 315.51C511.28 318.012 512.855 319.829 515.058 319.566C517.262 319.302 519.265 317.057 519.53 314.556Z" fill="#F99F1B"/>
</g>
<g style="mix-blend-mode:overlay" opacity="0.38">
<path d="M564.294 67.0931C564.729 62.9816 568.027 59.2859 571.649 58.8531C572.62 58.7371 573.51 58.8753 574.293 59.2096L615.044 2.97077L647.106 -0.860757L680.914 -51.4401C680.269 -52.5735 679.968 -54.0048 680.138 -55.6148C680.572 -59.7263 683.87 -63.422 687.492 -63.8548C691.114 -64.2876 693.707 -61.2959 693.272 -57.1844C692.838 -53.0729 689.54 -49.3772 685.918 -48.9444C684.653 -48.7932 683.518 -49.061 682.599 -49.6483L648.139 1.90152L616.001 5.74217L576.207 60.6683C577.157 61.8754 577.647 63.5655 577.439 65.5346C577.005 69.6461 573.706 73.3418 570.084 73.7746C566.463 74.2074 563.87 71.2157 564.304 67.1042L564.294 67.0931ZM690.71 -56.8904C690.974 -59.392 689.4 -61.2092 687.196 -60.9458C684.992 -60.6825 682.989 -58.4377 682.725 -55.9361C682.461 -53.4346 684.035 -51.6174 686.239 -51.8807C688.443 -52.1441 690.446 -54.3888 690.71 -56.8904ZM574.865 65.8299C575.13 63.3283 573.555 61.5111 571.351 61.7744C569.148 62.0378 567.144 64.2826 566.88 66.7842C566.616 69.2857 568.191 71.1029 570.394 70.8396C572.598 70.5762 574.601 68.3314 574.865 65.8299Z" fill="#F99F1B"/>
</g>
<g style="mix-blend-mode:overlay" opacity="0.38">
<path d="M325.734 337.841C326.306 338.445 326.59 339.328 326.517 340.327C326.433 341.426 325.935 342.476 325.215 343.271L327.259 359.008L287.195 419.152L286.455 418.616C286.953 419.303 287.214 420.201 287.138 421.225C287.057 422.396 286.567 423.567 285.766 424.531C284.965 425.483 283.951 426.105 282.9 426.268C281.859 426.441 280.899 426.14 280.221 425.426C279.542 424.713 279.21 423.676 279.303 422.491C279.318 422.343 279.335 422.182 279.351 422.033C279.513 421.011 279.973 420.015 280.664 419.186C281.465 418.234 282.478 417.612 283.529 417.45C284.165 417.349 284.759 417.437 285.284 417.668L324.514 358.786L322.681 344.625C320.976 344.756 319.731 343.388 319.874 341.415C319.889 341.278 319.902 341.155 319.915 341.031C320.049 340.171 320.439 339.33 321.031 338.623C321.708 337.821 322.572 337.289 323.46 337.147C324.347 337.004 325.151 337.25 325.733 337.853L325.734 337.841ZM283.466 418.558C282.688 418.687 281.929 419.145 281.326 419.853C280.734 420.559 280.373 421.434 280.301 422.323C280.24 423.199 280.481 423.977 280.985 424.516C281.489 425.042 282.197 425.276 282.986 425.145C283.765 425.015 284.524 424.557 285.127 423.85C285.644 423.238 285.992 422.487 286.116 421.726C286.127 421.615 286.139 421.503 286.152 421.379C286.212 420.504 285.971 419.726 285.468 419.187C284.964 418.66 284.256 418.427 283.466 418.558ZM323.361 338.589C322.824 338.678 322.295 338.998 321.877 339.488C321.459 339.978 321.211 340.595 321.168 341.199C321.079 342.457 321.912 343.335 323.03 343.153C324.083 342.978 325.011 341.938 325.198 340.779C325.206 340.704 325.215 340.618 325.223 340.543C325.265 339.939 325.096 339.397 324.748 339.023C324.4 338.648 323.909 338.499 323.361 338.589Z" fill="#F99F1B"/>
</g>
<g style="mix-blend-mode:overlay" opacity="0.38">
<path d="M580.356 -85.0671C579.969 -81.4014 577.024 -78.1026 573.795 -77.7167C573.544 -77.6868 573.32 -77.7089 573.084 -77.7174L537.201 -22.586L539.344 22.8288L538.694 23.7746C535.102 29.0339 503.481 75.3166 499.901 79.3271L499.193 80.121L461.045 86.196L408.385 163.826C409.496 165.442 410.067 167.587 409.806 170.064C409.211 175.698 404.689 180.775 399.715 181.37C394.74 181.964 391.189 177.852 391.784 172.217C392.379 166.583 396.911 161.505 401.875 160.911C403.009 160.776 404.051 160.908 405.007 161.234L459.172 81.3943L497.715 75.2476C502.032 69.6571 521.492 41.4331 534.678 22.1269L532.537 -23.2025L569.425 -79.8846C568.811 -80.9118 568.508 -82.2206 568.665 -83.7067C569.052 -87.3723 571.996 -90.6711 575.225 -91.057C578.454 -91.4429 580.768 -88.7725 580.381 -85.1068L580.356 -85.0671ZM394.06 171.982C393.615 176.193 396.276 179.25 399.985 178.806C403.695 178.363 407.077 174.584 407.522 170.373C407.966 166.163 405.305 163.106 401.596 163.549C397.887 163.992 394.504 167.772 394.06 171.982ZM570.919 -83.9394C570.682 -81.6979 572.094 -80.069 574.068 -80.305C576.043 -80.541 577.839 -82.5531 578.076 -84.7946C578.312 -87.0361 576.901 -88.6649 574.926 -88.4289C572.952 -88.193 571.156 -86.1809 570.919 -83.9394Z" fill="#F99F1B"/>
</g>
<g style="mix-blend-mode:overlay" opacity="0.38">
<path d="M500.754 288.352L503.264 284.859L505.606 286.336L503.096 289.828L500.754 288.352Z" fill="#F99F1B"/>
<path d="M507.535 278.258L510.045 274.765L512.387 276.242L509.877 279.734L507.535 278.258Z" fill="#F99F1B"/>
<path d="M514.305 268.164L516.814 264.671L519.157 266.148L516.647 269.641L514.305 268.164Z" fill="#F99F1B"/>
<path d="M521.092 258.07L523.602 254.578L525.944 256.054L523.434 259.547L521.092 258.07Z" fill="#F99F1B"/>
<path d="M527.898 248L530.408 244.507L532.751 245.984L530.241 249.477L527.898 248Z" fill="#F99F1B"/>
<path d="M534.65 237.906L537.16 234.414L539.503 235.89L536.993 239.383L534.65 237.906Z" fill="#F99F1B"/>
</g>
<g style="mix-blend-mode:overlay" opacity="0.38">
<path d="M255.767 365.402L260.682 358.562L265.278 361.46L260.363 368.299L255.767 365.402Z" fill="#F99F1B"/>
<path d="M269.085 345.636L274 338.797L278.596 341.694L273.682 348.533L269.085 345.636Z" fill="#F99F1B"/>
<path d="M282.363 325.862L287.277 319.023L291.874 321.921L286.959 328.76L282.363 325.862Z" fill="#F99F1B"/>
<path d="M295.646 306.097L300.561 299.258L305.157 302.155L300.242 308.994L295.646 306.097Z" fill="#F99F1B"/>
<path d="M308.925 286.339L313.84 279.5L318.436 282.398L313.521 289.237L308.925 286.339Z" fill="#F99F1B"/>
<path d="M322.21 266.566L327.125 259.727L331.721 262.624L326.807 269.463L322.21 266.566Z" fill="#F99F1B"/>
</g>
<path d="M321.903 -18.2107L266.823 66.1159C267.459 66.7247 267.811 67.673 267.69 68.8247C267.472 70.8929 265.81 72.7544 263.988 72.9721C262.166 73.1899 260.861 71.6829 261.079 69.6148C261.297 67.5467 262.959 65.6851 264.781 65.4674C265.206 65.4166 265.599 65.4674 265.953 65.5841L320.686 -18.212L317.393 -31.6115L395.728 -141.644L396.522 -141.006L318.628 -31.5756L321.903 -18.2107ZM262.368 69.4485C262.234 70.7117 263.031 71.6314 264.144 71.4984C265.257 71.3654 266.271 70.2294 266.404 68.9662C266.537 67.703 265.74 66.7834 264.628 66.9163C263.515 67.0493 262.501 68.1854 262.368 69.4485Z" fill="#F99F1B"/>
<path d="M305.847 -52.2509C306.065 -54.319 307.726 -56.1806 309.548 -56.3983C311.37 -56.616 312.676 -55.1091 312.457 -53.0409C312.239 -50.9728 310.578 -49.1113 308.756 -48.8936C308.101 -48.8153 307.525 -48.9665 307.051 -49.2768C302.86 -43.8604 268.527 3.32114 250.049 28.7744L251.686 50.3076L230.711 85.8415C231.38 86.4463 231.762 87.4156 231.638 88.592C231.42 90.6602 229.758 92.5217 227.936 92.7394C226.115 92.9572 224.809 91.4502 225.027 89.3821C225.245 87.3139 226.907 85.4524 228.729 85.2347C229.121 85.1878 229.494 85.2288 229.827 85.3357L250.553 50.2229L248.914 28.6043L249.091 28.3631C251.283 25.3499 300.893 -42.9772 306.343 -50.0114C305.952 -50.6006 305.765 -51.3729 305.857 -52.2522L305.847 -52.2509ZM226.303 89.2295C226.17 90.4927 226.967 91.4124 228.08 91.2794C229.192 91.1464 230.206 90.0104 230.34 88.7472C230.473 87.484 229.676 86.5644 228.563 86.6973C227.451 86.8303 226.437 87.9664 226.303 89.2295ZM311.17 -52.8871C311.304 -54.1503 310.507 -55.0699 309.394 -54.937C308.281 -54.804 307.267 -53.6679 307.134 -52.4047C307 -51.1416 307.797 -50.2219 308.91 -50.3549C310.023 -50.4879 311.037 -51.6239 311.17 -52.8871Z" fill="#F99F1B"/>
<path d="M297.154 89.0803C297.054 90.0215 296.634 90.9399 295.986 91.6777C295.326 92.4168 294.513 92.8685 293.684 92.9676C292.855 93.0667 292.12 92.7877 291.6 92.2018C290.573 91.0162 290.817 88.7003 292.124 87.2358C292.784 86.4966 293.597 86.0449 294.426 85.9458C295.255 85.8468 295.99 86.1257 296.51 86.7117C297.028 87.31 297.252 88.1515 297.153 89.0927L297.154 89.0803ZM292.626 87.7872C292.125 88.3484 291.824 89.0569 291.754 89.7256C291.683 90.3943 291.84 91.0481 292.234 91.5024C293.031 92.422 294.493 92.2474 295.507 91.1113C296.521 89.9752 296.696 88.3157 295.899 87.3961C295.102 86.4764 293.64 86.6511 292.626 87.7872Z" fill="#F99F1B"/>
<path d="M413.835 38.2697C414.046 36.2635 415.659 34.4567 417.426 34.2455C417.819 34.1986 418.192 34.2397 418.524 34.3589L438.85 3.13338L437.643 -22.4742L437.796 -22.7004C438.6 -23.8847 457.583 -51.6726 459.599 -53.9311L459.77 -54.1228L481.374 -57.5605L511.237 -101.579C510.312 -102.508 509.796 -103.95 509.977 -105.659C510.313 -108.842 512.866 -111.702 515.669 -112.038C518.473 -112.373 520.48 -110.057 520.144 -106.874C519.808 -103.691 517.255 -100.831 514.451 -100.496C513.546 -100.387 512.737 -100.584 512.045 -100.966L481.824 -56.416L460.12 -52.9541C458.002 -50.341 445.432 -32.0745 438.768 -22.3152L439.977 3.26762L419.406 34.8771C420.034 35.4624 420.376 36.3997 420.26 37.5018C420.048 39.508 418.436 41.3148 416.668 41.526C414.901 41.7372 413.634 40.2746 413.845 38.2684L413.835 38.2697ZM518.836 -106.73C519.087 -109.108 517.589 -110.836 515.495 -110.586C513.4 -110.336 511.494 -108.2 511.243 -105.823C510.992 -103.445 512.49 -101.716 514.585 -101.967C516.679 -102.217 518.585 -104.352 518.836 -106.73ZM419.158 37.6335C419.298 36.3084 418.463 35.3444 417.295 35.4839C416.128 35.6234 415.065 36.8142 414.925 38.1393C414.786 39.4644 415.621 40.4284 416.788 40.2889C417.955 40.1494 419.018 38.9586 419.158 37.6335Z" fill="#F99F1B"/>
<path d="M300.406 133.383L316.966 131.404L387.922 21.275L386.46 5.43133L427.757 -52.7192C427.308 -53.5705 427.108 -54.6349 427.232 -55.8113C427.568 -58.994 430.121 -61.8548 432.925 -62.1898C435.729 -62.5249 437.735 -60.2091 437.399 -57.0264C437.063 -53.8437 434.51 -50.9829 431.707 -50.6479C430.354 -50.4862 429.186 -50.9581 428.375 -51.8393L387.597 5.57666L389.053 21.3721L317.596 132.271L317.404 132.563L300.266 134.611C299.725 137.182 297.616 139.403 295.304 139.679C292.805 139.977 291.009 137.918 291.309 135.07C291.61 132.221 293.882 129.675 296.391 129.375C298.704 129.099 300.393 130.854 300.396 133.372L300.406 133.383ZM436.111 -56.8601C436.362 -59.2379 434.864 -60.9664 432.769 -60.7161C430.675 -60.4658 428.769 -58.3305 428.518 -55.9528C428.267 -53.575 429.765 -51.8465 431.86 -52.0968C433.954 -52.3471 435.86 -54.4824 436.111 -56.8601ZM292.617 134.925C292.403 136.956 293.689 138.441 295.478 138.227C297.267 138.014 298.904 136.179 299.119 134.148C299.333 132.117 298.058 130.631 296.258 130.847C294.458 131.062 292.831 132.894 292.617 134.925Z" fill="#F99F1B"/>
<path d="M372.432 -24.8679C372.432 -24.8679 372.421 -24.8666 372.41 -24.8653C370.589 -24.6476 369.283 -26.1546 369.501 -28.2227C369.719 -30.2908 371.381 -32.1524 373.203 -32.3701C375.024 -32.5878 376.33 -31.0809 376.112 -29.0127C375.939 -27.378 374.867 -25.8926 373.525 -25.2186L373.748 -7.33152L311.569 86.3907L297.143 89.6798L297.165 88.4544L311.073 85.2762L372.636 -7.51662L372.423 -24.879L372.432 -24.8679ZM374.825 -28.8589C374.958 -30.1221 374.161 -31.0417 373.048 -30.9088C371.936 -30.7758 370.922 -29.6397 370.788 -28.3765C370.655 -27.1133 371.452 -26.1937 372.565 -26.3267C373.677 -26.4596 374.691 -27.5957 374.825 -28.8589Z" fill="#F99F1B"/>
<path d="M329.471 5.55703C329.717 3.22883 331.574 1.1483 333.625 0.903206C335.675 0.658114 337.135 2.34232 336.889 4.67052C336.643 6.99872 334.786 9.07926 332.736 9.32435C332.277 9.3791 331.853 9.3198 331.457 9.19596L304.129 49.4997C304.464 49.9977 304.642 50.6612 304.562 51.4166C304.377 53.1752 302.972 54.7492 301.423 54.9344C299.874 55.1195 298.769 53.8453 298.955 52.0867C299.141 50.3282 300.546 48.7541 302.095 48.569C302.575 48.5116 303.006 48.6068 303.373 48.8075L330.571 8.70256C329.78 8.03904 329.327 6.91927 329.471 5.55703ZM300.242 51.9329C300.142 52.8865 300.737 53.5734 301.577 53.4731C302.417 53.3727 303.174 52.524 303.275 51.5705C303.376 50.6169 302.78 49.9299 301.94 50.0303C301.1 50.1307 300.343 50.9793 300.242 51.9329Z" fill="#F99F1B"/>
<path d="M234.996 249.792C235.241 247.463 237.098 245.383 239.149 245.138C239.684 245.074 240.171 245.15 240.606 245.318L255.908 222.299L267.475 221.907L284.072 197.437C283.28 196.773 282.827 195.653 282.971 194.291C283.217 191.963 285.074 189.882 287.125 189.637C289.176 189.392 290.635 191.076 290.389 193.405C290.144 195.733 288.287 197.813 286.236 198.058C285.778 198.113 285.353 198.054 284.957 197.93L267.873 223.131L256.306 223.523L241.441 245.879C242.145 246.553 242.539 247.618 242.404 248.894C242.158 251.222 240.301 253.303 238.251 253.548C236.2 253.793 234.74 252.109 234.986 249.78L234.996 249.792Z" fill="#F99F1B"/>
<path d="M258.089 100.978L260.672 97.4297L263.137 99.4926L260.554 103.041L258.089 100.978Z" fill="#F99F1B"/>
<path d="M250.339 111.626L252.922 108.078L255.387 110.141L252.804 113.689L250.339 111.626Z" fill="#F99F1B"/>
<path d="M242.569 122.267L245.152 118.719L247.618 120.782L245.035 124.33L242.569 122.267Z" fill="#F99F1B"/>
<path d="M234.817 132.962L237.4 129.414L239.866 131.477L237.283 135.025L234.817 132.962Z" fill="#F99F1B"/>
<path d="M227.073 143.603L229.656 140.055L232.122 142.118L229.538 145.666L227.073 143.603Z" fill="#F99F1B"/>
<path d="M219.302 154.251L221.885 150.703L224.35 152.766L221.767 156.314L219.302 154.251Z" fill="#F99F1B"/>
<path d="M282.832 156.949L259.873 187.915L237.084 168.285L260.043 137.32L282.832 156.949ZM259.879 185.615L280.765 157.453L260.04 139.595L239.154 167.757L259.879 185.615Z" fill="#F99F1B"/>
<path d="M274.2 159.082L259.895 178.375L245.696 166.144L260.002 146.851L274.2 159.082ZM259.908 176.307L272.341 159.548L260.01 148.917L247.577 165.675L259.908 176.307Z" fill="#F99F1B"/>
<path d="M254.581 163.948L259.955 156.703L265.287 161.297L259.913 168.543L254.581 163.948Z" fill="#F99F1B"/>
<path d="M399.559 58.776L401.992 55.2422L404.538 57.191L402.105 60.7249L399.559 58.776Z" fill="#F99F1B"/>
<path d="M392.258 69.3854L394.691 65.8516L397.238 67.8004L394.804 71.3342L392.258 69.3854Z" fill="#F99F1B"/>
<path d="M384.9 80.0101L387.334 76.4766L389.88 78.426L387.446 81.9595L384.9 80.0101Z" fill="#F99F1B"/>
<path d="M297.923 219.087C298.141 217.019 299.803 215.157 301.624 214.94C302.312 214.858 302.93 215.016 303.41 215.374L325.433 181.537L326.145 163.673L367.489 105.076C367.151 104.505 366.992 103.766 367.08 102.937C367.298 100.868 368.959 99.007 370.781 98.7892C372.603 98.5715 373.909 100.078 373.69 102.147C373.472 104.215 371.811 106.076 369.989 106.294C369.291 106.377 368.673 106.207 368.183 105.849L327.231 163.898L326.522 181.737L304.113 216.159C304.451 216.729 304.621 217.467 304.534 218.297C304.315 220.365 302.654 222.227 300.832 222.444C299.01 222.662 297.704 221.155 297.923 219.087ZM372.404 102.288C372.538 101.025 371.741 100.105 370.628 100.238C369.515 100.371 368.501 101.507 368.368 102.77C368.235 104.034 369.032 104.953 370.144 104.82C371.257 104.687 372.271 103.551 372.404 102.288ZM303.246 218.451C303.38 217.188 302.583 216.268 301.47 216.401C300.357 216.534 299.343 217.67 299.21 218.933C299.077 220.196 299.874 221.116 300.986 220.983C302.099 220.85 303.113 219.714 303.246 218.451Z" fill="#F99F1B"/>
<g style="mix-blend-mode:overlay" opacity="0.38">
<path d="M295.734 -50.1564C295.3 -46.0449 292.002 -42.3492 288.38 -41.9164C287.409 -41.8004 286.519 -41.9385 285.735 -42.2729L244.985 13.966L212.923 17.7975L179.114 68.3768C179.759 69.5103 180.061 70.9416 179.891 72.5515C179.457 76.663 176.158 80.3587 172.536 80.7915C168.915 81.2243 166.322 78.2326 166.756 74.1211C167.19 70.0096 170.489 66.314 174.11 65.8811C175.376 65.7299 176.511 65.9978 177.429 66.585L211.89 15.0352L244.028 11.1946L283.821 -43.7316C282.871 -44.9387 282.382 -46.6288 282.59 -48.5978C283.024 -52.7093 286.322 -56.405 289.944 -56.8379C293.566 -57.2707 296.159 -54.279 295.724 -50.1675L295.734 -50.1564ZM169.318 73.8272C169.054 76.3287 170.629 78.1459 172.833 77.8826C175.036 77.6192 177.04 75.3744 177.304 72.8729C177.568 70.3713 175.993 68.5541 173.79 68.8174C171.586 69.0808 169.582 71.3256 169.318 73.8272ZM285.174 -48.8944C284.91 -46.3929 286.485 -44.5757 288.688 -44.839C290.892 -45.1024 292.895 -47.3471 293.16 -49.8487C293.424 -52.3503 291.849 -54.1675 289.645 -53.9041C287.442 -53.6408 285.438 -51.396 285.174 -48.8944Z" fill="#F99F1B"/>
</g>
<g style="mix-blend-mode:overlay" opacity="0.38">
<path d="M240.408 198.562C239.974 202.673 236.675 206.369 233.054 206.802C232.083 206.918 231.192 206.78 230.409 206.445L189.659 262.684L157.597 266.516L123.788 317.095C124.433 318.228 124.734 319.66 124.565 321.27C124.13 325.381 120.832 329.077 117.21 329.51C113.588 329.943 110.996 326.951 111.43 322.839C111.864 318.728 115.162 315.032 118.784 314.599C120.05 314.448 121.185 314.716 122.103 315.303L156.563 263.753L188.702 259.913L228.495 204.987C227.545 203.78 227.056 202.089 227.264 200.12C227.698 196.009 230.996 192.313 234.618 191.88C238.24 191.448 240.832 194.439 240.398 198.551L240.408 198.562ZM113.992 322.545C113.728 325.047 115.303 326.864 117.506 326.601C119.71 326.337 121.714 324.093 121.978 321.591C122.242 319.089 120.667 317.272 118.463 317.536C116.26 317.799 114.256 320.044 113.992 322.545ZM229.837 199.825C229.573 202.327 231.148 204.144 233.351 203.881C235.555 203.617 237.558 201.372 237.822 198.871C238.087 196.369 236.512 194.552 234.308 194.815C232.105 195.079 230.101 197.324 229.837 199.825Z" fill="#F99F1B"/>
</g>
<g style="mix-blend-mode:overlay" opacity="0.38">
<path d="M206.668 363.747C206.048 363.198 205.718 362.345 205.735 361.364C205.753 360.274 206.2 359.206 206.88 358.379L203.908 343.058L241.023 280.956L241.803 281.425C241.257 280.781 240.95 279.913 240.959 278.909C240.974 277.746 241.401 276.558 242.153 275.563C242.904 274.568 243.902 273.887 244.952 273.639C246.001 273.391 246.979 273.617 247.708 274.263C248.437 274.91 248.826 275.915 248.811 277.078C248.806 277.226 248.8 277.385 248.784 277.534C248.677 278.55 248.268 279.564 247.618 280.425C246.866 281.419 245.868 282.101 244.818 282.349C244.178 282.499 243.58 282.448 243.028 282.269L206.686 343.068L209.356 356.86C211.074 356.606 212.417 357.864 212.384 359.812C212.38 359.947 212.378 360.069 212.365 360.193C212.275 361.048 211.925 361.909 211.373 362.647C210.735 363.494 209.887 364.072 209.004 364.275C208.11 364.48 207.289 364.297 206.668 363.747ZM244.849 281.245C245.633 281.065 246.377 280.549 246.939 279.809C247.502 279.069 247.823 278.175 247.839 277.305C247.856 276.434 247.558 275.687 247.016 275.202C246.475 274.716 245.739 274.548 244.955 274.727C244.172 274.906 243.428 275.423 242.865 276.163C242.377 276.808 242.07 277.566 241.991 278.321C241.979 278.433 241.967 278.544 241.965 278.667C241.948 279.537 242.247 280.284 242.788 280.77C243.329 281.255 244.065 281.424 244.849 281.245ZM209.037 362.841C209.578 362.715 210.089 362.36 210.488 361.848C210.876 361.337 211.104 360.711 211.113 360.11C211.136 358.873 210.242 358.062 209.114 358.332C208.065 358.579 207.186 359.663 207.063 360.827C207.055 360.901 207.046 360.988 207.038 361.062C207.029 361.662 207.233 362.176 207.606 362.523C207.98 362.857 208.484 362.98 209.036 362.853L209.037 362.841Z" fill="#F99F1B"/>
</g>
<g style="mix-blend-mode:overlay" opacity="0.38">
<path d="M224.346 350.733C224.733 347.068 227.677 343.769 230.906 343.383C231.157 343.353 231.381 343.375 231.617 343.384L267.5 288.252L265.358 242.837L266.007 241.892C269.599 236.632 301.22 190.35 304.8 186.339L305.508 185.545L343.656 179.47L396.316 101.84C395.205 100.224 394.634 98.0792 394.896 95.6024C395.49 89.9677 400.012 84.8908 404.986 84.2964C409.961 83.7019 413.512 87.814 412.918 93.4487C412.323 99.0835 407.79 104.162 402.827 104.755C401.692 104.89 400.65 104.758 399.694 104.432L345.53 184.272L306.987 190.419C302.669 196.009 283.21 224.233 270.023 243.539L272.164 288.869L235.277 345.551C235.89 346.578 236.193 347.887 236.036 349.373C235.649 353.039 232.705 356.337 229.476 356.723C226.247 357.109 223.933 354.439 224.32 350.773L224.346 350.733ZM410.651 93.6951C411.096 89.4846 408.434 86.4277 404.725 86.8709C401.016 87.3142 397.634 91.0933 397.189 95.3039C396.745 99.5145 399.406 102.571 403.115 102.128C406.824 101.685 410.207 97.9057 410.651 93.6951ZM233.782 349.606C234.019 347.364 232.607 345.735 230.633 345.971C228.658 346.207 226.862 348.219 226.626 350.461C226.389 352.702 227.801 354.331 229.775 354.095C231.75 353.859 233.545 351.847 233.782 349.606Z" fill="#F99F1B"/>
</g>
<g style="mix-blend-mode:overlay" opacity="0.38">
<path d="M285.541 -0.491743L288.051 -3.98438L290.393 -2.50775L287.883 0.984881L285.541 -0.491743Z" fill="#F99F1B"/>
<path d="M278.758 9.59418L281.268 6.10156L283.61 7.57818L281.1 11.0708L278.758 9.59418Z" fill="#F99F1B"/>
<path d="M271.99 19.6875L274.5 16.1948L276.842 17.6714L274.332 21.1641L271.99 19.6875Z" fill="#F99F1B"/>
<path d="M265.195 29.789L267.705 26.2964L270.047 27.773L267.538 31.2656L265.195 29.789Z" fill="#F99F1B"/>
</g>
<g style="mix-blend-mode:overlay" opacity="0.38">
<path d="M472.984 3.02657L477.898 -3.8125L482.495 -0.914979L477.58 5.92409L472.984 3.02657Z" fill="#F99F1B"/>
</g>
</g>
</svg>
