<svg width="272" height="878" viewBox="0 0 272 878" fill="none" xmlns="http://www.w3.org/2000/svg">
<g opacity="0.67">
<g opacity="0.3">
<path d="M370.071 370.744L278.84 375.439C278.649 374.697 278.063 374.021 277.103 373.612C275.378 372.877 273.162 373.315 272.166 374.588C271.171 375.86 271.764 377.494 273.489 378.229C275.214 378.963 277.429 378.525 278.425 377.253C278.658 376.956 278.796 376.639 278.864 376.323L369.521 371.658L378.566 379.948L500.518 368.976L500.375 368.103L379.08 379.01L370.055 370.747L370.071 370.744ZM274.199 377.322C273.145 376.873 272.783 375.876 273.391 375.099C273.999 374.322 275.351 374.055 276.405 374.503C277.458 374.952 277.821 375.949 277.213 376.726C276.604 377.503 275.252 377.771 274.199 377.322Z" fill="#F99F1B"/>
<path d="M389.564 397.583C391.289 398.318 393.504 397.88 394.5 396.607C395.496 395.335 394.902 393.701 393.177 392.966C391.453 392.232 389.237 392.67 388.241 393.942C387.883 394.399 387.741 394.897 387.771 395.387C381.615 396.179 328.979 401.443 300.603 404.25L284.414 393.669L246.983 393.97C246.81 393.206 246.221 392.498 245.24 392.08C243.515 391.346 241.299 391.783 240.303 393.056C239.307 394.328 239.901 395.962 241.626 396.697C243.351 397.431 245.566 396.993 246.562 395.721C246.777 395.447 246.913 395.149 246.98 394.853L283.968 394.555L300.223 405.175L300.493 405.148C303.854 404.812 380.03 397.271 388.028 396.238C388.314 396.787 388.836 397.263 389.57 397.575L389.564 397.583ZM242.34 395.802C241.286 395.354 240.924 394.356 241.532 393.579C242.141 392.802 243.493 392.535 244.546 392.983C245.6 393.432 245.962 394.429 245.354 395.206C244.746 395.984 243.393 396.251 242.34 395.802ZM392.474 393.865C393.527 394.314 393.89 395.311 393.281 396.088C392.673 396.865 391.321 397.133 390.267 396.684C389.214 396.235 388.852 395.238 389.46 394.461C390.068 393.684 391.42 393.417 392.474 393.865Z" fill="#F99F1B"/>
<path d="M274.531 342.713C273.746 342.379 272.834 342.295 271.96 342.461C271.08 342.635 270.357 343.049 269.904 343.628C269.451 344.207 269.337 344.88 269.563 345.524C270.03 346.81 271.961 347.632 273.704 347.288C274.584 347.114 275.307 346.701 275.76 346.122C276.214 345.543 276.327 344.87 276.102 344.225C275.866 343.576 275.306 343.043 274.521 342.709L274.531 342.713ZM273.492 346.679C272.824 346.811 272.131 346.729 271.573 346.492C271.015 346.254 270.573 345.853 270.394 345.36C270.031 344.362 270.83 343.342 272.183 343.074C273.535 342.807 274.919 343.396 275.281 344.394C275.643 345.391 274.844 346.412 273.492 346.679Z" fill="#F99F1B"/>
<path d="M241.16 321.026L250.212 309.462L368.916 304.064L380.711 312.043L445.123 306.319C445.589 307.025 446.335 307.638 447.317 308.055C449.971 309.186 453.376 308.513 454.908 306.555C456.441 304.597 455.529 302.086 452.874 300.955C450.22 299.825 446.815 300.498 445.282 302.456C444.543 303.4 444.386 304.481 444.711 305.473L381.111 311.127L369.352 303.173L249.816 308.612L249.499 308.63L240.131 320.598C237.865 319.887 235.165 320.504 233.9 322.12C232.535 323.864 233.341 326.107 235.716 327.118C238.092 328.13 241.122 327.531 242.494 325.779C243.758 324.164 243.143 322.135 241.164 321.038L241.16 321.026ZM452.165 301.862C454.148 302.706 454.829 304.581 453.684 306.044C452.539 307.506 449.997 308.009 448.014 307.164C446.031 306.32 445.35 304.445 446.495 302.982C447.64 301.52 450.182 301.017 452.165 301.862ZM236.416 326.208C234.722 325.486 234.137 323.876 235.115 322.627C236.093 321.377 238.276 320.946 239.97 321.667C241.663 322.388 242.254 323.991 241.27 325.248C240.287 326.505 238.109 326.929 236.416 326.208Z" fill="#F99F1B"/>
<path d="M120.029 319.529C121.971 320.356 124.447 319.867 125.568 318.434C125.861 318.061 126.021 317.662 126.086 317.263L151.111 315.782L156.655 307.274L183.406 305.451C183.57 306.333 184.245 307.159 185.381 307.643C187.323 308.47 189.799 307.981 190.92 306.549C192.041 305.116 191.378 303.29 189.436 302.463C187.494 301.636 185.018 302.125 183.897 303.558C183.647 303.878 183.501 304.222 183.419 304.573L155.873 306.443L150.329 314.951L126.023 316.393C125.812 315.572 125.152 314.814 124.089 314.361C122.147 313.534 119.67 314.023 118.549 315.456C117.428 316.888 118.092 318.714 120.034 319.541L120.029 319.529Z" fill="#F99F1B"/>
<path d="M250.95 363.694L246.992 364.091L247.498 366.837L251.456 366.44L250.95 363.694Z" fill="#F99F1B"/>
<path d="M239.038 364.902L235.08 365.299L235.586 368.044L239.544 367.648L239.038 364.902Z" fill="#F99F1B"/>
<path d="M227.171 366.082L223.213 366.479L223.719 369.225L227.677 368.828L227.171 366.082Z" fill="#F99F1B"/>
<path d="M215.284 367.263L211.326 367.659L211.832 370.405L215.79 370.008L215.284 367.263Z" fill="#F99F1B"/>
<path d="M203.39 368.462L199.432 368.859L199.938 371.604L203.896 371.207L203.39 368.462Z" fill="#F99F1B"/>
<path d="M191.484 369.662L187.525 370.058L188.031 372.804L191.989 372.407L191.484 369.662Z" fill="#F99F1B"/>
<path d="M214.664 323.964L179.926 327.738L185.043 353.361L219.781 349.587L214.664 323.964ZM181.73 328.74L213.326 325.303L217.986 348.609L186.39 352.046L181.73 328.74Z" fill="#F99F1B"/>
<path d="M209.083 329.51L187.439 331.862L190.628 347.827L212.272 345.475L209.083 329.51ZM189.065 332.758L207.868 330.709L210.645 344.579L191.842 346.628L189.065 332.758Z" fill="#F99F1B"/>
<path d="M203.348 335.209L195.219 336.094L196.418 342.09L204.547 341.205L203.348 335.209Z" fill="#F99F1B"/>
<path d="M172.663 285.661C174.388 286.395 176.604 285.957 177.6 284.685C177.975 284.205 178.131 283.672 178.066 283.157L214.639 281.331L229.006 288.557L293.79 282.991C294.086 283.493 294.595 283.933 295.287 284.228C297.012 284.963 299.228 284.525 300.224 283.252C301.219 281.98 300.626 280.346 298.901 279.611C297.176 278.877 294.96 279.315 293.965 280.587C293.583 281.075 293.438 281.612 293.497 282.135L229.321 287.645L214.974 280.428L177.768 282.288C177.472 281.786 176.969 281.339 176.277 281.044C174.552 280.309 172.337 280.747 171.341 282.019C170.345 283.292 170.939 284.926 172.663 285.661ZM298.191 280.518C299.245 280.967 299.607 281.964 298.999 282.741C298.391 283.518 297.038 283.785 295.985 283.337C294.931 282.888 294.569 281.891 295.177 281.114C295.786 280.337 297.138 280.069 298.191 280.518ZM175.573 281.943C176.627 282.391 176.989 283.389 176.381 284.166C175.773 284.943 174.421 285.21 173.367 284.762C172.314 284.313 171.951 283.316 172.56 282.538C173.168 281.761 174.52 281.494 175.573 281.943Z" fill="#F99F1B"/>
<g style="mix-blend-mode:overlay" opacity="0.38">
<path d="M383.343 404.248C379.914 402.787 375.515 403.657 373.535 406.186C373.005 406.864 372.71 407.592 372.619 408.325L309.957 414.469L292.431 436.859L237.361 440.254C236.762 439.278 235.773 438.43 234.43 437.858C231.001 436.398 226.603 437.267 224.623 439.797C222.643 442.326 223.822 445.57 227.251 447.031C230.68 448.491 235.078 447.622 237.058 445.092C237.75 444.209 238.053 443.241 238.007 442.297L294.135 438.834L311.702 416.391L372.899 410.394C373.418 411.631 374.525 412.733 376.168 413.432C379.597 414.892 383.995 414.023 385.975 411.494C387.955 408.964 386.776 405.72 383.347 404.26L383.343 404.248ZM228.642 445.236C226.555 444.347 225.84 442.377 227.044 440.838C228.249 439.299 230.92 438.771 233.007 439.659C235.093 440.548 235.809 442.519 234.604 444.057C233.4 445.596 230.728 446.124 228.642 445.236ZM377.564 411.63C375.478 410.741 374.762 408.77 375.967 407.232C377.171 405.693 379.843 405.165 381.929 406.053C384.016 406.942 384.732 408.912 383.527 410.451C382.323 411.99 379.651 412.518 377.564 411.63Z" fill="#F99F1B"/>
</g>
<g style="mix-blend-mode:overlay" opacity="0.38">
<path d="M162.747 337.721C159.318 336.261 154.919 337.131 152.94 339.66C152.409 340.338 152.115 341.066 152.023 341.799L89.3609 347.943L71.8354 370.333L16.7654 373.728C16.1663 372.752 15.1773 371.904 13.8346 371.332C10.4056 369.872 6.00693 370.741 4.02718 373.27C2.04745 375.8 3.22608 379.044 6.65509 380.505C10.0841 381.965 14.4828 381.095 16.4625 378.566C17.1542 377.682 17.4574 376.715 17.4113 375.771L73.5394 372.308L91.1066 349.865L152.303 343.868C152.822 345.105 153.93 346.207 155.572 346.906C159.001 348.366 163.4 347.497 165.379 344.968C167.359 342.438 166.18 339.194 162.751 337.733L162.747 337.721ZM8.04608 378.71C5.95976 377.821 5.24384 375.851 6.44838 374.312C7.65292 372.773 10.3247 372.245 12.411 373.133C14.4974 374.022 15.2133 375.992 14.0087 377.531C12.8042 379.07 10.1324 379.598 8.04608 378.71ZM156.969 345.104C154.882 344.215 154.167 342.244 155.371 340.705C156.576 339.167 159.247 338.638 161.334 339.527C163.42 340.415 164.136 342.386 162.931 343.925C161.727 345.464 159.055 345.992 156.969 345.104Z" fill="#F99F1B"/>
</g>
<g style="mix-blend-mode:overlay" opacity="0.38">
<path d="M17.5987 291.277C17.7497 291.981 18.2711 292.599 19.0497 293.012C19.9153 293.472 20.9574 293.601 21.9154 293.451L32.616 302.335L98.2417 301.465L98.2257 300.676C98.4849 301.365 99.0285 301.972 99.8218 302.402C100.743 302.896 101.871 303.091 102.993 302.96C104.115 302.828 105.103 302.375 105.773 301.695C106.442 301.016 106.708 300.184 106.529 299.356C106.351 298.529 105.737 297.8 104.816 297.306C104.698 297.246 104.569 297.181 104.445 297.128C103.598 296.767 102.615 296.633 101.644 296.748C100.522 296.879 99.5344 297.332 98.8646 298.012C98.4567 298.428 98.2261 298.898 98.1166 299.39L33.8653 300.246L24.2303 292.252C25.2078 291.074 24.8266 289.52 23.2798 288.699C23.1722 288.643 23.0749 288.591 22.9716 288.547C22.2589 288.244 21.4238 288.132 20.5934 288.225C19.6386 288.337 18.8005 288.721 18.2408 289.295C17.6752 289.877 17.4476 290.573 17.5987 291.277ZM99.7464 298.469C100.242 297.959 100.985 297.625 101.822 297.524C102.658 297.423 103.506 297.571 104.198 297.937C104.889 298.302 105.342 298.851 105.478 299.468C105.615 300.084 105.415 300.71 104.919 301.22C104.423 301.73 103.68 302.064 102.844 302.165C102.116 302.251 101.381 302.151 100.751 301.883C100.658 301.843 100.565 301.804 100.468 301.752C99.7761 301.387 99.3238 300.839 99.187 300.222C99.0502 299.605 99.2507 298.979 99.7464 298.469ZM19.3777 289.901C19.7215 289.55 20.2318 289.321 20.815 289.244C21.3924 289.175 21.9879 289.276 22.4642 289.53C23.4477 290.05 23.6797 291.073 22.9579 291.802C22.2881 292.482 21.0384 292.671 20.0676 292.257C20.0056 292.231 19.9333 292.2 19.8713 292.174C19.3951 291.92 19.0837 291.544 18.9798 291.114C18.8862 290.688 19.0175 290.256 19.3673 289.897L19.3777 289.901Z" fill="#F99F1B"/>
</g>
<g style="mix-blend-mode:overlay" opacity="0.38">
<path d="M35.8438 283.677C38.901 284.979 42.8272 284.203 44.5923 281.948C44.7295 281.773 44.8134 281.596 44.9136 281.415L104.502 278.441L139.238 299.775L140.275 299.699C146.037 299.288 196.738 295.668 201.512 294.725L202.456 294.538L224.501 268.557L309.372 262.769C310.139 264.304 311.567 265.664 313.633 266.544C318.332 268.545 324.37 267.358 327.089 263.884C329.809 260.41 328.183 255.96 323.484 253.958C318.784 251.957 312.74 253.152 310.027 256.618C309.407 257.41 309.039 258.249 308.863 259.108L221.573 265.065L199.294 291.312C192.944 292.123 161.946 294.463 140.798 295.97L106.128 274.674L44.8663 277.728C44.3363 276.821 43.4446 276.025 42.2052 275.497C39.1481 274.196 35.2218 274.972 33.4568 277.227C31.6917 279.482 32.7437 282.378 35.8009 283.68L35.8438 283.677ZM322.268 255.564C325.78 257.059 326.979 260.383 324.951 262.974C322.924 265.564 318.422 266.46 314.91 264.965C311.398 263.469 310.199 260.145 312.227 257.555C314.254 254.965 318.757 254.068 322.268 255.564ZM41.0019 277.088C42.8713 277.884 43.513 279.65 42.4337 281.029C41.3544 282.408 38.9595 282.881 37.0901 282.085C35.2207 281.289 34.579 279.523 35.6583 278.144C36.7376 276.765 39.1324 276.292 41.0019 277.088Z" fill="#F99F1B"/>
</g>
<path d="M205.405 118.827L296.636 114.133C296.827 114.874 297.413 115.551 298.374 115.96C300.098 116.694 302.314 116.256 303.31 114.984C304.306 113.712 303.712 112.077 301.987 111.343C300.262 110.608 298.047 111.046 297.051 112.319C296.818 112.616 296.68 112.933 296.612 113.249L205.955 117.914L196.91 109.623L74.9419 120.598L75.0846 121.472L196.38 110.565L205.405 118.827ZM301.273 112.237C302.327 112.686 302.689 113.684 302.081 114.461C301.473 115.238 300.12 115.505 299.067 115.056C298.013 114.608 297.651 113.61 298.259 112.833C298.868 112.056 300.22 111.789 301.273 112.237Z" fill="#F99F1B"/>
<path d="M244.642 67.9262C246.326 68.6431 248.493 68.2149 249.465 66.9731C250.437 65.7313 249.856 64.1331 248.172 63.4162C246.489 62.6992 244.322 63.1275 243.35 64.3693C242.378 65.611 242.959 67.2093 244.642 67.9262ZM247.785 63.9114C249.107 64.4744 249.551 65.7197 248.793 66.6872C248.036 67.6548 246.342 67.9896 245.03 67.431C243.718 66.8724 243.264 65.6227 244.022 64.6552C244.779 63.6876 246.473 63.3528 247.785 63.9114Z" fill="#F99F1B"/>
<path d="M242.829 65.8952L179.144 72.1324L161.607 94.5377L105.146 98.0206L105.246 98.8961L162.324 95.3814L179.885 72.9455L242.978 66.761L242.829 65.8952Z" fill="#F99F1B"/>
<path d="M185.902 91.9839C184.177 91.2493 181.961 91.6872 180.965 92.9595C179.97 94.2317 180.563 95.866 182.288 96.6005C184.013 97.3351 186.229 96.8972 187.224 95.6249C187.582 95.1678 187.724 94.6696 187.695 94.1796C193.85 93.3881 246.486 88.1239 274.862 85.3169L291.051 95.8983L328.483 95.5968C328.656 96.3611 329.245 97.069 330.226 97.4869C331.951 98.2214 334.166 97.7835 335.162 96.5113C336.158 95.239 335.564 93.6047 333.84 92.8702C332.115 92.1357 329.899 92.5736 328.903 93.8458C328.689 94.1201 328.552 94.4175 328.485 94.7141L291.497 95.0116L275.242 84.3918L274.973 84.4192C271.611 84.7552 195.435 92.2956 187.438 93.3288C187.151 92.7801 186.629 92.3038 185.896 91.9915L185.902 91.9839ZM333.142 93.7615C334.195 94.2102 334.558 95.2076 333.949 95.9846C333.341 96.7617 331.989 97.0289 330.936 96.5803C329.882 96.1317 329.52 95.1343 330.128 94.3572C330.736 93.5801 332.088 93.3129 333.142 93.7615ZM182.992 95.7016C181.938 95.2529 181.576 94.2556 182.184 93.4785C182.792 92.7014 184.145 92.4342 185.198 92.8828C186.252 93.3315 186.614 94.3288 186.006 95.1059C185.397 95.883 184.045 96.1502 182.992 95.7016Z" fill="#F99F1B"/>
<path d="M188.357 139.358C188.247 139.464 188.121 139.573 188.025 139.694C187.029 140.967 187.623 142.601 189.348 143.335C191.073 144.07 193.288 143.632 194.284 142.36C195.28 141.088 194.686 139.453 192.962 138.719C191.774 138.213 190.347 138.276 189.254 138.775L177.9 131.096L113.106 136.85L113.138 137.037C112.807 136.388 112.196 135.813 111.318 135.439C109.284 134.573 106.677 135.088 105.502 136.589C104.328 138.089 105.02 140.02 107.055 140.886C109.089 141.753 111.706 141.242 112.887 139.733C113.388 139.094 113.531 138.383 113.389 137.702L177.505 132.005L188.363 139.351L188.357 139.358ZM192.258 139.618C193.311 140.066 193.674 141.064 193.065 141.841C192.457 142.618 191.105 142.885 190.052 142.437C188.998 141.988 188.636 140.99 189.244 140.213C189.852 139.436 191.204 139.169 192.258 139.618ZM107.591 140.201C106.073 139.554 105.549 138.112 106.426 136.992C107.302 135.872 109.257 135.486 110.776 136.132C112.294 136.779 112.818 138.221 111.941 139.341C111.065 140.461 109.11 140.847 107.591 140.201Z" fill="#F99F1B"/>
<path d="M208.195 212.328C206.522 211.615 204.371 212.04 203.405 213.275C203.19 213.549 203.054 213.846 202.998 214.147L169.247 215.834L149.66 203.805L149.413 203.822C148.118 203.91 117.678 206.082 114.989 206.613L114.761 206.658L102.279 221.374L54.1536 224.658C53.8422 223.56 52.9415 222.547 51.5162 221.94C48.8618 220.81 45.4569 221.483 43.9244 223.441C42.3919 225.398 43.3042 227.91 45.9586 229.04C48.613 230.171 52.0179 229.498 53.5504 227.54C54.0453 226.908 54.2566 226.215 54.2696 225.53L102.975 222.208L115.522 207.429C118.535 206.975 138.586 205.478 149.276 204.718L168.842 216.738L203.005 215.034C203.182 215.759 203.763 216.424 204.683 216.815C206.356 217.528 208.506 217.103 209.472 215.869C210.438 214.634 209.862 213.048 208.189 212.336L208.195 212.328ZM46.6638 228.122C44.6808 227.277 43.9998 225.403 45.1447 223.94C46.2896 222.477 48.8311 221.975 50.8141 222.819C52.7972 223.664 53.4782 225.539 52.3332 227.001C51.1883 228.464 48.6469 228.966 46.6638 228.122ZM205.285 216.046C204.18 215.575 203.8 214.53 204.438 213.714C205.076 212.899 206.493 212.619 207.599 213.09C208.704 213.56 209.083 214.606 208.445 215.421C207.807 216.236 206.39 216.516 205.285 216.046Z" fill="#F99F1B"/>
<path d="M196.623 43.2418C198.564 44.0687 201.041 43.5793 202.162 42.147C203.283 40.7148 202.619 38.8883 200.678 38.0614C198.736 37.2345 196.26 37.7239 195.139 39.1561C194.018 40.5884 194.681 42.4149 196.623 43.2418Z" fill="#F99F1B"/>
<path d="M334.312 168.533L325.26 180.098L206.556 185.495L194.762 177.517L130.349 183.241C129.883 182.534 129.137 181.922 128.156 181.504C125.501 180.374 122.096 181.047 120.564 183.005C119.031 184.962 119.944 187.474 122.598 188.604C125.252 189.735 128.657 189.062 130.19 187.104C130.929 186.159 131.087 185.078 130.761 184.087L194.361 178.433L206.121 186.386L325.656 180.947L325.973 180.93L335.341 168.961C337.607 169.672 340.308 169.055 341.572 167.44C342.937 165.695 342.131 163.453 339.756 162.441C337.38 161.429 334.35 162.028 332.979 163.78C331.715 165.396 332.329 167.425 334.308 168.521L334.312 168.533ZM123.312 187.71C121.329 186.865 120.648 184.991 121.793 183.528C122.938 182.065 125.479 181.563 127.462 182.407C129.445 183.252 130.126 185.126 128.981 186.589C127.836 188.052 125.295 188.554 123.312 187.71ZM339.051 163.36C340.745 164.081 341.329 165.691 340.352 166.941C339.374 168.19 337.191 168.621 335.497 167.9C333.803 167.179 333.212 165.576 334.196 164.319C335.18 163.062 337.357 162.638 339.051 163.36Z" fill="#F99F1B"/>
<path d="M177.288 153.833C177.288 153.833 177.294 153.825 177.3 153.818C178.296 152.546 177.702 150.911 175.978 150.177C174.253 149.442 172.037 149.88 171.041 151.152C170.045 152.425 170.639 154.059 172.364 154.793C173.727 155.374 175.381 155.215 176.518 154.5L190.48 162.437L292.312 156.498L301.428 147.104L300.455 146.588L291.66 155.641L190.838 161.523L177.284 153.821L177.288 153.833ZM173.068 153.894C172.014 153.446 171.652 152.448 172.26 151.671C172.868 150.894 174.22 150.627 175.274 151.076C176.327 151.524 176.69 152.522 176.081 153.299C175.473 154.076 174.121 154.343 173.068 153.894Z" fill="#F99F1B"/>
<path d="M220.662 134.822C218.72 133.995 216.244 134.485 215.123 135.917C214.002 137.349 214.665 139.176 216.607 140.003C218.548 140.829 221.025 140.34 222.146 138.908C222.396 138.588 222.542 138.243 222.624 137.892L266.681 134.897C266.921 135.365 267.362 135.786 267.992 136.054C269.459 136.679 271.332 136.309 272.179 135.227C273.026 134.145 272.524 132.763 271.057 132.139C269.591 131.514 267.717 131.884 266.87 132.966C266.608 133.301 266.488 133.667 266.479 134.029L222.637 137.014C222.473 136.132 221.798 135.306 220.662 134.822ZM270.354 133.038C271.149 133.376 271.42 134.121 270.96 134.708C270.501 135.295 269.491 135.494 268.696 135.156C267.901 134.817 267.63 134.072 268.089 133.485C268.548 132.899 269.558 132.699 270.354 133.038Z" fill="#F99F1B"/>
<path d="M89.0513 189.787C89.2065 190.046 89.4611 190.266 89.8123 190.416C90.7108 190.798 91.8512 190.573 92.37 189.91C92.8888 189.247 92.5832 188.406 91.6847 188.023C90.7861 187.641 89.6457 187.866 89.1269 188.529C89.0315 188.651 88.973 188.778 88.9352 188.915L60.2425 191.018C60.1086 190.89 59.9362 190.776 59.7297 190.688C58.8828 190.327 57.8075 190.54 57.3185 191.164C56.8296 191.789 57.1177 192.582 57.9646 192.943C58.8115 193.303 59.8868 193.091 60.3757 192.466C60.5188 192.283 60.594 192.082 60.5997 191.881L89.0556 189.799L89.0513 189.787Z" fill="#F99F1B"/>
<path d="M94.7082 166.166L90.75 166.563L91.2559 169.308L95.214 168.912L94.7082 166.166Z" fill="#F99F1B"/>
<path d="M106.581 164.978L102.623 165.375L103.129 168.12L107.087 167.723L106.581 164.978Z" fill="#F99F1B"/>
<path d="M118.472 163.79L114.514 164.187L115.02 166.933L118.978 166.536L118.472 163.79Z" fill="#F99F1B"/>
<path d="M130.362 162.593L126.404 162.99L126.91 165.735L130.868 165.338L130.362 162.593Z" fill="#F99F1B"/>
<path d="M142.253 161.402L138.295 161.799L138.801 164.544L142.759 164.148L142.253 161.402Z" fill="#F99F1B"/>
<path d="M154.144 160.206L150.186 160.603L150.691 163.348L154.65 162.951L154.144 160.206Z" fill="#F99F1B"/>
<path d="M172.786 56.6154L168.828 57.0122L169.334 59.7575L173.292 59.3607L172.786 56.6154Z" fill="#F99F1B"/>
<path d="M184.661 55.4269L180.703 55.8237L181.209 58.569L185.167 58.1722L184.661 55.4269Z" fill="#F99F1B"/>
<path d="M196.564 54.2438L192.605 54.6406L193.111 57.3859L197.069 56.9891L196.564 54.2438Z" fill="#F99F1B"/>
<path d="M208.454 53.0468L204.496 53.4436L205.002 56.1889L208.96 55.7921L208.454 53.0468Z" fill="#F99F1B"/>
<path d="M220.333 51.851L216.375 52.2478L216.881 54.9931L220.839 54.5963L220.333 51.851Z" fill="#F99F1B"/>
<path d="M232.234 50.6588L228.275 51.0557L228.781 53.8009L232.739 53.4041L232.234 50.6588Z" fill="#F99F1B"/>
<path d="M154.369 84.2741L150.157 63.2115L121.602 66.3179L125.814 87.3806L154.369 84.2741ZM149.057 64.3175L152.88 83.4673L126.918 86.2866L123.096 67.1368L149.057 64.3175Z" fill="#F99F1B"/>
<path d="M148.2 80.8949L145.581 67.7731L127.792 69.7049L130.411 82.8266L148.2 80.8949ZM144.577 68.7573L146.85 80.1572L131.394 81.8337L129.122 70.4338L144.577 68.7573Z" fill="#F99F1B"/>
<path d="M140.846 72.4671L134.168 73.1936L135.153 78.1193L141.831 77.3928L140.846 72.4671Z" fill="#F99F1B"/>
<path d="M230.778 210.519L226.898 210.81L227.278 213.566L231.157 213.276L230.778 210.519Z" fill="#F99F1B"/>
<path d="M242.42 209.645L238.541 209.936L238.921 212.692L242.8 212.402L242.42 209.645Z" fill="#F99F1B"/>
<path d="M254.1 208.739L250.221 209.03L250.601 211.786L254.48 211.495L254.1 208.739Z" fill="#F99F1B"/>
<g style="mix-blend-mode:overlay" opacity="0.38">
<path d="M192.13 85.3114C195.559 86.7717 199.958 85.9023 201.938 83.373C202.468 82.695 202.763 81.9671 202.854 81.2342L265.516 75.0897L283.042 52.6996L338.112 49.3048C338.711 50.2812 339.7 51.1289 341.043 51.7007C344.472 53.161 348.87 52.2916 350.85 49.7624C352.83 47.2331 351.651 43.9886 348.222 42.5283C344.793 41.0681 340.394 41.9374 338.415 44.4667C337.723 45.3504 337.42 46.3183 337.466 47.2623L281.338 50.7245L263.771 73.1679L202.574 79.1645C202.055 77.9276 200.948 76.8263 199.305 76.127C195.876 74.6667 191.478 75.5361 189.498 78.0653C187.518 80.5946 188.697 83.8391 192.126 85.2994L192.13 85.3114ZM346.831 44.323C348.918 45.2115 349.633 47.1822 348.429 48.7211C347.224 50.26 344.553 50.7881 342.466 49.8996C340.38 49.0111 339.664 47.0404 340.869 45.5015C342.073 43.9626 344.745 43.4345 346.831 44.323ZM197.903 77.9369C199.989 78.8254 200.705 80.7961 199.5 82.335C198.296 83.8739 195.624 84.402 193.538 83.5135C191.451 82.625 190.735 80.6543 191.94 79.1154C193.144 77.5765 195.816 77.0484 197.903 77.9369Z" fill="#F99F1B"/>
</g>
<g style="mix-blend-mode:overlay" opacity="0.38">
<path d="M91.8672 213.212C91.651 212.52 91.0851 211.924 90.2664 211.544C89.365 211.13 88.3138 211.048 87.3629 211.243L75.9151 202.873L10.4943 206.807L10.5798 207.595C10.2658 206.923 9.67761 206.337 8.83824 205.949C7.8809 205.501 6.73829 205.36 5.61738 205.542C4.5068 205.73 3.55859 206.22 2.95515 206.938C2.34735 207.644 2.1499 208.495 2.40383 209.314C2.65776 210.133 3.32216 210.832 4.29579 211.277C4.41973 211.33 4.554 211.387 4.67794 211.44C5.55467 211.763 6.54674 211.85 7.5107 211.692C8.62128 211.504 9.56949 211.014 10.1729 210.296C10.5394 209.863 10.7391 209.379 10.7954 208.885L74.8473 205.029L85.1509 212.556C84.2766 213.778 84.7881 215.306 86.4049 216.056C86.5185 216.104 86.6218 216.148 86.725 216.192C87.4615 216.465 88.2999 216.538 89.1232 216.401C90.0605 216.241 90.8692 215.824 91.3832 215.22C91.8972 214.616 92.0672 213.906 91.8569 213.207L91.8672 213.212ZM9.26723 209.87C8.81287 210.398 8.10947 210.768 7.28021 210.913C6.4569 211.05 5.60549 210.941 4.87377 210.609C4.15835 210.274 3.65558 209.755 3.45957 209.144C3.27389 208.536 3.41085 207.904 3.87117 207.369C4.32554 206.841 5.02894 206.47 5.8582 206.326C6.57343 206.204 7.32156 206.268 7.97544 206.506C8.0684 206.546 8.16135 206.585 8.26463 206.629C8.98006 206.964 9.48283 207.483 9.67884 208.095C9.86452 208.702 9.72756 209.334 9.26723 209.87ZM90.2149 214.671C89.9021 215.036 89.4109 215.294 88.8363 215.395C88.2618 215.495 87.6646 215.414 87.1705 215.183C86.1408 214.704 85.8274 213.697 86.4769 212.937C87.0907 212.224 88.3289 211.979 89.3252 212.342C89.3871 212.369 89.4594 212.399 89.5214 212.426C90.0156 212.657 90.3654 213.019 90.5019 213.443C90.6384 213.867 90.5337 214.299 90.2149 214.671Z" fill="#F99F1B"/>
</g>
<g style="mix-blend-mode:overlay" opacity="0.38">
<path d="M539.631 205.881C536.574 204.579 532.647 205.355 530.882 207.61C530.745 207.786 530.661 207.963 530.561 208.144L470.973 211.118L436.237 189.784L435.199 189.86C429.438 190.271 378.736 193.891 373.963 194.834L373.018 195.021L350.974 221.002L266.103 226.79C265.336 225.254 263.908 223.895 261.842 223.015C257.142 221.014 251.104 222.201 248.385 225.675C245.666 229.148 247.291 233.599 251.991 235.6C256.69 237.602 262.734 236.407 265.448 232.941C266.068 232.148 266.435 231.309 266.612 230.45L353.901 224.494L376.181 198.247C382.53 197.436 413.529 195.096 434.677 193.589L469.347 214.885L530.608 211.831C531.138 212.737 532.03 213.533 533.269 214.061C536.326 215.363 540.253 214.587 542.018 212.332C543.783 210.077 542.731 207.181 539.674 205.879L539.631 205.881ZM253.211 234.007C249.699 232.511 248.5 229.187 250.527 226.597C252.555 224.007 257.057 223.111 260.569 224.606C264.081 226.101 265.279 229.426 263.252 232.016C261.225 234.606 256.722 235.502 253.211 234.007ZM534.473 212.471C532.603 211.675 531.962 209.908 533.041 208.53C534.12 207.151 536.515 206.677 538.384 207.473C540.254 208.27 540.896 210.036 539.816 211.415C538.737 212.794 536.342 213.267 534.473 212.471Z" fill="#F99F1B"/>
</g>
<g style="mix-blend-mode:overlay" opacity="0.38">
<path d="M213.861 100.639L209.898 100.972L209.905 103.415L213.868 103.082L213.861 100.639Z" fill="#F99F1B"/>
<path d="M224.865 99.939L220.902 100.272L220.909 102.715L224.872 102.382L224.865 99.939Z" fill="#F99F1B"/>
<path d="M235.871 99.231L231.908 99.564L231.915 102.007L235.878 101.674L235.871 99.231Z" fill="#F99F1B"/>
<path d="M246.873 98.5223L242.91 98.8552L242.917 101.298L246.88 100.965L246.873 98.5223Z" fill="#F99F1B"/>
<path d="M257.873 97.8299L253.91 98.1628L253.917 100.606L257.88 100.273L257.873 97.8299Z" fill="#F99F1B"/>
<path d="M268.891 97.1204L264.928 97.4534L264.935 99.8965L268.897 99.5635L268.891 97.1204Z" fill="#F99F1B"/>
</g>
<g style="mix-blend-mode:overlay" opacity="0.38">
<path d="M46.1326 248.295L38.3711 248.947L38.3846 253.742L46.1461 253.09L46.1326 248.295Z" fill="#F99F1B"/>
<path d="M67.658 246.915L59.8965 247.567L59.91 252.362L67.6715 251.71L67.658 246.915Z" fill="#F99F1B"/>
<path d="M89.2283 245.533L81.4668 246.185L81.4803 250.98L89.2418 250.328L89.2283 245.533Z" fill="#F99F1B"/>
<path d="M110.785 244.148L103.023 244.8L103.037 249.595L110.798 248.943L110.785 244.148Z" fill="#F99F1B"/>
<path d="M132.32 242.772L124.559 243.424L124.572 248.219L132.334 247.567L132.32 242.772Z" fill="#F99F1B"/>
<path d="M153.892 241.399L146.131 242.051L146.144 246.845L153.906 246.193L153.892 241.399Z" fill="#F99F1B"/>
</g>
</g>
<g opacity="0.3">
<path d="M370.071 782.386L278.84 787.081C278.649 786.339 278.063 785.663 277.103 785.254C275.378 784.519 273.162 784.957 272.166 786.23C271.171 787.502 271.764 789.136 273.489 789.871C275.214 790.605 277.429 790.167 278.425 788.895C278.658 788.598 278.796 788.281 278.864 787.965L369.521 783.3L378.566 791.591L500.518 780.618L500.375 779.745L379.08 790.652L370.055 782.39L370.071 782.386ZM274.199 788.964C273.145 788.515 272.783 787.518 273.391 786.741C273.999 785.964 275.351 785.697 276.405 786.145C277.458 786.594 277.821 787.591 277.213 788.368C276.604 789.145 275.252 789.413 274.199 788.964Z" fill="#F99F1B"/>
<path d="M389.566 809.225C391.291 809.96 393.506 809.522 394.502 808.25C395.498 806.977 394.904 805.343 393.179 804.608C391.455 803.874 389.239 804.312 388.243 805.584C387.885 806.041 387.743 806.539 387.773 807.029C381.617 807.821 328.981 813.085 300.605 815.892L284.416 805.311L246.985 805.612C246.812 804.848 246.223 804.14 245.242 803.722C243.517 802.988 241.301 803.426 240.305 804.698C239.309 805.97 239.903 807.604 241.628 808.339C243.353 809.073 245.568 808.635 246.564 807.363C246.779 807.089 246.915 806.792 246.982 806.495L283.97 806.197L300.225 816.817L300.495 816.79C303.856 816.454 380.032 808.913 388.03 807.88C388.316 808.429 388.838 808.905 389.572 809.218L389.566 809.225ZM242.342 807.444C241.288 806.996 240.926 805.998 241.534 805.221C242.143 804.444 243.495 804.177 244.548 804.626C245.602 805.074 245.964 806.072 245.356 806.849C244.748 807.626 243.395 807.893 242.342 807.444ZM392.476 805.507C393.529 805.956 393.892 806.953 393.283 807.731C392.675 808.508 391.323 808.775 390.269 808.326C389.216 807.878 388.854 806.88 389.462 806.103C390.07 805.326 391.422 805.059 392.476 805.507Z" fill="#F99F1B"/>
<path d="M274.531 754.355C273.746 754.021 272.834 753.937 271.96 754.103C271.08 754.277 270.357 754.691 269.904 755.27C269.451 755.849 269.337 756.521 269.563 757.166C270.03 758.452 271.961 759.274 273.704 758.93C274.584 758.756 275.307 758.342 275.76 757.763C276.214 757.184 276.327 756.512 276.102 755.867C275.866 755.218 275.306 754.685 274.521 754.351L274.531 754.355ZM273.492 758.321C272.824 758.453 272.131 758.371 271.573 758.134C271.015 757.896 270.573 757.494 270.394 757.002C270.031 756.004 270.83 754.983 272.183 754.716C273.535 754.449 274.919 755.038 275.281 756.036C275.643 757.033 274.844 758.054 273.492 758.321Z" fill="#F99F1B"/>
<path d="M241.16 732.668L250.212 721.103L368.916 715.706L380.711 723.685L445.123 717.961C445.589 718.667 446.335 719.279 447.317 719.697C449.971 720.828 453.376 720.155 454.908 718.197C456.441 716.239 455.529 713.727 452.874 712.597C450.22 711.467 446.815 712.14 445.282 714.098C444.543 715.042 444.386 716.123 444.711 717.115L381.111 722.768L369.352 714.815L249.816 720.254L249.499 720.272L240.131 732.24C237.865 731.529 235.165 732.146 233.9 733.761C232.535 735.506 233.341 737.749 235.716 738.76C238.092 739.772 241.122 739.173 242.494 737.421C243.758 735.806 243.143 733.776 241.164 732.68L241.16 732.668ZM452.165 713.504C454.148 714.348 454.829 716.223 453.684 717.685C452.539 719.148 449.997 719.65 448.014 718.806C446.031 717.961 445.35 716.087 446.495 714.624C447.64 713.161 450.182 712.659 452.165 713.504ZM236.416 737.849C234.722 737.128 234.137 735.518 235.115 734.268C236.093 733.019 238.276 732.588 239.97 733.309C241.663 734.03 242.254 735.633 241.27 736.89C240.287 738.147 238.109 738.571 236.416 737.849Z" fill="#F99F1B"/>
<path d="M120.029 731.171C121.971 731.998 124.447 731.508 125.568 730.076C125.861 729.703 126.021 729.304 126.086 728.905L151.111 727.423L156.655 718.916L183.406 717.093C183.57 717.975 184.245 718.801 185.381 719.285C187.323 720.112 189.799 719.622 190.92 718.19C192.041 716.758 191.378 714.931 189.436 714.105C187.494 713.278 185.018 713.767 183.897 715.199C183.647 715.519 183.501 715.864 183.419 716.215L155.873 718.085L150.329 726.593L126.023 728.035C125.812 727.214 125.152 726.455 124.089 726.002C122.147 725.176 119.67 725.665 118.549 727.097C117.428 728.529 118.092 730.356 120.034 731.183L120.029 731.171Z" fill="#F99F1B"/>
<path d="M250.952 775.337L246.994 775.733L247.5 778.479L251.458 778.082L250.952 775.337Z" fill="#F99F1B"/>
<path d="M239.038 776.544L235.08 776.941L235.586 779.686L239.544 779.289L239.038 776.544Z" fill="#F99F1B"/>
<path d="M227.171 777.724L223.213 778.121L223.719 780.866L227.677 780.47L227.171 777.724Z" fill="#F99F1B"/>
<path d="M215.284 778.904L211.326 779.301L211.832 782.047L215.79 781.65L215.284 778.904Z" fill="#F99F1B"/>
<path d="M203.392 780.104L199.434 780.501L199.939 783.246L203.898 782.849L203.392 780.104Z" fill="#F99F1B"/>
<path d="M191.484 781.303L187.525 781.7L188.031 784.445L191.989 784.049L191.484 781.303Z" fill="#F99F1B"/>
<path d="M214.666 735.606L179.928 739.38L185.045 765.004L219.783 761.229L214.666 735.606ZM181.732 740.382L213.328 736.946L217.988 760.251L186.392 763.688L181.732 740.382Z" fill="#F99F1B"/>
<path d="M209.085 741.152L187.44 743.504L190.63 759.469L212.274 757.116L209.085 741.152ZM189.067 744.4L207.87 742.351L210.647 756.221L191.844 758.269L189.067 744.4Z" fill="#F99F1B"/>
<path d="M203.348 746.851L195.219 747.735L196.418 753.732L204.547 752.847L203.348 746.851Z" fill="#F99F1B"/>
<path d="M172.665 697.302C174.39 698.037 176.606 697.599 177.602 696.327C177.977 695.847 178.133 695.314 178.068 694.799L214.641 692.973L229.008 700.199L293.792 694.633C294.088 695.135 294.597 695.575 295.289 695.87C297.014 696.604 299.23 696.166 300.226 694.894C301.221 693.622 300.628 691.988 298.903 691.253C297.178 690.519 294.962 690.957 293.967 692.229C293.585 692.716 293.44 693.254 293.499 693.777L229.323 699.287L214.976 692.07L177.77 693.93C177.474 693.428 176.971 692.98 176.279 692.686C174.554 691.951 172.339 692.389 171.343 693.661C170.347 694.934 170.941 696.568 172.665 697.302ZM298.193 692.16C299.247 692.608 299.609 693.606 299.001 694.383C298.393 695.16 297.04 695.427 295.987 694.979C294.933 694.53 294.571 693.532 295.179 692.755C295.788 691.978 297.14 691.711 298.193 692.16ZM175.575 693.585C176.629 694.033 176.991 695.031 176.383 695.808C175.775 696.585 174.423 696.852 173.369 696.403C172.316 695.955 171.953 694.957 172.561 694.18C173.17 693.403 174.522 693.136 175.575 693.585Z" fill="#F99F1B"/>
<g style="mix-blend-mode:overlay" opacity="0.38">
<path d="M383.345 815.889C379.916 814.429 375.517 815.298 373.537 817.828C373.007 818.506 372.712 819.234 372.62 819.967L309.959 826.111L292.433 848.501L237.363 851.896C236.764 850.92 235.775 850.072 234.432 849.5C231.003 848.04 226.605 848.909 224.625 851.438C222.645 853.968 223.824 857.212 227.253 858.672C230.682 860.133 235.08 859.263 237.06 856.734C237.752 855.85 238.055 854.882 238.009 853.939L294.137 850.476L311.704 828.033L372.901 822.036C373.42 823.273 374.527 824.374 376.169 825.074C379.598 826.534 383.997 825.665 385.977 823.135C387.957 820.606 386.778 817.362 383.349 815.901L383.345 815.889ZM228.644 856.878C226.557 855.989 225.842 854.019 227.046 852.48C228.251 850.941 230.922 850.413 233.009 851.301C235.095 852.19 235.811 854.16 234.606 855.699C233.402 857.238 230.73 857.766 228.644 856.878ZM377.566 823.272C375.48 822.383 374.764 820.412 375.969 818.873C377.173 817.335 379.845 816.806 381.931 817.695C384.018 818.583 384.734 820.554 383.529 822.093C382.325 823.632 379.653 824.16 377.566 823.272Z" fill="#F99F1B"/>
</g>
<g style="mix-blend-mode:overlay" opacity="0.38">
<path d="M162.749 749.364C159.32 747.903 154.921 748.773 152.942 751.302C152.411 751.98 152.116 752.708 152.025 753.441L89.3628 759.585L71.8374 781.975L16.7673 785.37C16.1682 784.394 15.1792 783.546 13.8366 782.974C10.4076 781.514 6.00888 782.383 4.02914 784.913C2.0494 787.442 3.22803 790.686 6.65704 792.147C10.086 793.607 14.4847 792.738 16.4645 790.208C17.1562 789.325 17.4593 788.357 17.4133 787.413L73.5414 783.95L91.1086 761.507L152.305 755.51C152.824 756.747 153.932 757.849 155.574 758.548C159.003 760.008 163.401 759.139 165.381 756.61C167.361 754.08 166.182 750.836 162.753 749.376L162.749 749.364ZM8.04803 790.352C5.96171 789.463 5.24579 787.493 6.45033 785.954C7.65488 784.415 10.3267 783.887 12.413 784.775C14.4993 785.664 15.2152 787.635 14.0107 789.173C12.8061 790.712 10.1344 791.24 8.04803 790.352ZM156.971 756.746C154.884 755.857 154.169 753.886 155.373 752.348C156.578 750.809 159.249 750.281 161.336 751.169C163.422 752.058 164.138 754.028 162.933 755.567C161.729 757.106 159.057 757.634 156.971 756.746Z" fill="#F99F1B"/>
</g>
<g style="mix-blend-mode:overlay" opacity="0.38">
<path d="M17.5987 702.919C17.7497 703.623 18.2711 704.241 19.0497 704.654C19.9153 705.114 20.9574 705.243 21.9154 705.092L32.616 713.976L98.2417 713.106L98.2257 712.317C98.4849 713.007 99.0285 713.614 99.8218 714.043C100.743 714.537 101.871 714.733 102.993 714.601C104.115 714.47 105.103 714.017 105.773 713.337C106.442 712.657 106.708 711.826 106.529 710.998C106.351 710.17 105.737 709.442 104.816 708.948C104.698 708.887 104.569 708.822 104.445 708.77C103.598 708.409 102.615 708.275 101.644 708.389C100.522 708.521 99.5344 708.974 98.8646 709.654C98.4567 710.069 98.2261 710.54 98.1166 711.032L33.8653 711.888L24.2303 703.894C25.2078 702.716 24.8266 701.162 23.2798 700.34C23.1722 700.284 23.0749 700.233 22.9716 700.189C22.2589 699.885 21.4238 699.773 20.5934 699.867C19.6386 699.978 18.8005 700.363 18.2408 700.937C17.6752 701.519 17.4476 702.214 17.5987 702.919ZM99.7464 710.111C100.242 709.6 100.985 709.267 101.822 709.166C102.658 709.065 103.506 709.213 104.198 709.578C104.889 709.944 105.342 710.492 105.478 711.109C105.615 711.726 105.415 712.352 104.919 712.862C104.423 713.372 103.68 713.706 102.844 713.806C102.116 713.892 101.381 713.793 100.751 713.525C100.658 713.485 100.565 713.445 100.468 713.394C99.7761 713.028 99.3238 712.48 99.187 711.863C99.0502 711.246 99.2507 710.621 99.7464 710.111ZM19.3777 701.543C19.7215 701.192 20.2318 700.962 20.815 700.885C21.3924 700.816 21.9879 700.918 22.4642 701.171C23.4477 701.692 23.6797 702.715 22.9579 703.444C22.2881 704.123 21.0384 704.312 20.0676 703.899C20.0056 703.873 19.9333 703.842 19.8713 703.815C19.3951 703.562 19.0837 703.185 18.9798 702.755C18.8862 702.329 19.0175 701.898 19.3673 701.539L19.3777 701.543Z" fill="#F99F1B"/>
</g>
<g style="mix-blend-mode:overlay" opacity="0.38">
<path d="M35.8458 695.319C38.903 696.621 42.8292 695.845 44.5943 693.59C44.7314 693.415 44.8153 693.237 44.9155 693.057L104.504 690.083L139.24 711.417L140.277 711.341C146.038 710.93 196.74 707.31 201.513 706.367L202.458 706.18L224.502 680.198L309.373 674.411C310.141 675.946 311.569 677.306 313.635 678.186C318.334 680.187 324.372 679 327.091 675.526C329.811 672.052 328.185 667.602 323.486 665.6C318.786 663.599 312.742 664.794 310.029 668.26C309.409 669.052 309.041 669.891 308.865 670.75L221.575 676.707L199.296 702.954C192.946 703.764 161.948 706.105 140.8 707.612L106.13 686.316L44.8682 689.37C44.3382 688.463 43.4466 687.667 42.2072 687.139C39.15 685.837 35.2238 686.613 33.4587 688.868C31.6936 691.123 32.7457 694.019 35.8029 695.321L35.8458 695.319ZM322.27 667.206C325.782 668.701 326.981 672.025 324.953 674.616C322.926 677.206 318.424 678.102 314.912 676.607C311.4 675.111 310.201 671.787 312.229 669.197C314.256 666.606 318.759 665.71 322.27 667.206ZM41.0038 688.73C42.8733 689.526 43.5149 691.292 42.4356 692.671C41.3563 694.05 38.9615 694.523 37.0921 693.727C35.2226 692.931 34.5809 691.165 35.6602 689.786C36.7396 688.407 39.1344 687.933 41.0038 688.73Z" fill="#F99F1B"/>
</g>
<path d="M205.407 530.469L296.638 525.775C296.829 526.516 297.415 527.192 298.376 527.601C300.1 528.336 302.316 527.898 303.312 526.626C304.308 525.354 303.714 523.719 301.989 522.985C300.264 522.25 298.049 522.688 297.053 523.96C296.82 524.258 296.682 524.575 296.614 524.891L205.957 529.555L196.912 521.265L74.9439 532.24L75.0866 533.114L196.381 522.207L205.407 530.469ZM301.275 523.879C302.329 524.328 302.691 525.325 302.083 526.102C301.475 526.879 300.122 527.147 299.069 526.698C298.015 526.249 297.653 525.252 298.261 524.475C298.87 523.698 300.222 523.431 301.275 523.879Z" fill="#F99F1B"/>
<path d="M244.642 479.568C246.326 480.285 248.493 479.857 249.465 478.615C250.437 477.373 249.856 475.775 248.172 475.058C246.489 474.341 244.322 474.769 243.35 476.011C242.378 477.253 242.959 478.851 244.642 479.568ZM247.785 475.553C249.107 476.116 249.551 477.362 248.793 478.329C248.036 479.297 246.342 479.631 245.03 479.073C243.718 478.514 243.264 477.265 244.022 476.297C244.779 475.329 246.473 474.995 247.785 475.553Z" fill="#F99F1B"/>
<path d="M242.831 477.537L179.146 483.774L161.609 506.18L105.148 509.662L105.247 510.538L162.326 507.023L179.887 484.587L242.979 478.403L242.831 477.537Z" fill="#F99F1B"/>
<path d="M185.904 503.626C184.179 502.891 181.963 503.329 180.967 504.601C179.971 505.874 180.565 507.508 182.29 508.242C184.015 508.977 186.23 508.539 187.226 507.267C187.584 506.81 187.726 506.311 187.697 505.821C193.852 505.03 246.488 499.766 274.864 496.959L291.053 507.54L328.485 507.239C328.658 508.003 329.247 508.711 330.228 509.129C331.953 509.863 334.168 509.425 335.164 508.153C336.16 506.881 335.566 505.247 333.841 504.512C332.117 503.778 329.901 504.215 328.905 505.488C328.691 505.762 328.554 506.059 328.487 506.356L291.499 506.653L275.244 496.034L274.975 496.061C271.613 496.397 195.437 503.937 187.44 504.971C187.153 504.422 186.631 503.946 185.898 503.633L185.904 503.626ZM333.144 505.403C334.197 505.852 334.56 506.849 333.951 507.626C333.343 508.404 331.991 508.671 330.937 508.222C329.884 507.773 329.522 506.776 330.13 505.999C330.738 505.222 332.09 504.955 333.144 505.403ZM182.994 507.343C181.94 506.895 181.578 505.897 182.186 505.12C182.794 504.343 184.146 504.076 185.2 504.525C186.253 504.973 186.616 505.971 186.008 506.748C185.399 507.525 184.047 507.792 182.994 507.343Z" fill="#F99F1B"/>
<path d="M188.359 551C188.249 551.106 188.123 551.214 188.027 551.336C187.031 552.609 187.625 554.243 189.35 554.977C191.075 555.712 193.29 555.274 194.286 554.002C195.282 552.729 194.688 551.095 192.964 550.361C191.776 549.855 190.349 549.918 189.256 550.417L177.902 542.738L113.108 548.492L113.14 548.679C112.809 548.03 112.198 547.455 111.32 547.081C109.286 546.214 106.679 546.73 105.504 548.23C104.329 549.731 105.022 551.662 107.057 552.528C109.091 553.395 111.708 552.884 112.889 551.375C113.39 550.735 113.533 550.024 113.391 549.344L177.507 543.646L188.365 550.993L188.359 551ZM192.26 551.26C193.313 551.708 193.676 552.706 193.067 553.483C192.459 554.26 191.107 554.527 190.054 554.078C189 553.63 188.638 552.632 189.246 551.855C189.854 551.078 191.206 550.811 192.26 551.26ZM107.593 551.842C106.075 551.196 105.551 549.754 106.428 548.634C107.304 547.514 109.259 547.128 110.778 547.774C112.296 548.421 112.82 549.863 111.943 550.983C111.067 552.103 109.112 552.489 107.593 551.842Z" fill="#F99F1B"/>
<path d="M208.197 623.97C206.524 623.257 204.373 623.682 203.407 624.916C203.192 625.191 203.056 625.488 202.999 625.789L169.249 627.475L149.662 615.447L149.415 615.464C148.12 615.552 117.68 617.724 114.991 618.255L114.763 618.3L102.281 633.015L54.1555 636.3C53.8441 635.202 52.9435 634.189 51.5181 633.582C48.8638 632.452 45.4589 633.125 43.9263 635.082C42.3938 637.04 43.3062 639.552 45.9606 640.682C48.6149 641.813 52.0198 641.14 53.5524 639.182C54.0473 638.549 54.2586 637.857 54.2716 637.172L102.977 633.85L115.523 619.071C118.537 618.617 138.588 617.12 149.278 616.36L168.844 628.38L203.007 626.676C203.184 627.401 203.765 628.066 204.685 628.457C206.358 629.17 208.508 628.745 209.474 627.51C210.44 626.276 209.864 624.69 208.191 623.977L208.197 623.97ZM46.6658 639.764C44.6827 638.919 44.0018 637.045 45.1467 635.582C46.2916 634.119 48.8331 633.617 50.8161 634.461C52.7991 635.306 53.4801 637.18 52.3352 638.643C51.1903 640.106 48.6488 640.608 46.6658 639.764ZM205.287 627.688C204.182 627.217 203.802 626.171 204.44 625.356C205.078 624.541 206.495 624.261 207.6 624.732C208.706 625.202 209.085 626.248 208.447 627.063C207.809 627.878 206.392 628.158 205.287 627.688Z" fill="#F99F1B"/>
<path d="M196.623 454.884C198.564 455.711 201.041 455.221 202.162 453.789C203.283 452.357 202.619 450.53 200.678 449.703C198.736 448.876 196.26 449.366 195.139 450.798C194.018 452.23 194.681 454.057 196.623 454.884Z" fill="#F99F1B"/>
<path d="M334.314 580.175L325.262 591.74L206.558 597.137L194.764 589.158L130.351 594.883C129.885 594.176 129.139 593.564 128.158 593.146C125.503 592.015 122.098 592.688 120.566 594.646C119.033 596.604 119.946 599.116 122.6 600.246C125.254 601.377 128.659 600.704 130.192 598.746C130.931 597.801 131.089 596.72 130.763 595.728L194.363 590.075L206.123 598.028L325.658 592.589L325.975 592.571L335.343 580.603C337.609 581.314 340.31 580.697 341.574 579.082C342.939 577.337 342.133 575.094 339.758 574.083C337.382 573.071 334.352 573.67 332.981 575.422C331.716 577.037 332.331 579.067 334.31 580.163L334.314 580.175ZM123.314 599.352C121.331 598.507 120.65 596.632 121.795 595.17C122.94 593.707 125.481 593.205 127.464 594.049C129.447 594.894 130.128 596.768 128.983 598.231C127.838 599.694 125.297 600.196 123.314 599.352ZM339.053 575.001C340.746 575.723 341.331 577.333 340.353 578.582C339.376 579.832 337.192 580.263 335.499 579.542C333.805 578.821 333.214 577.218 334.198 575.961C335.182 574.704 337.359 574.28 339.053 575.001Z" fill="#F99F1B"/>
<path d="M177.29 565.475C177.29 565.475 177.296 565.467 177.302 565.46C178.298 564.187 177.704 562.553 175.979 561.819C174.255 561.084 172.039 561.522 171.043 562.794C170.047 564.066 170.641 565.701 172.366 566.435C173.729 567.016 175.382 566.857 176.52 566.142L190.482 574.079L292.314 568.14L301.43 558.746L300.456 558.23L291.662 567.283L190.84 573.165L177.286 565.463L177.29 565.475ZM173.069 565.536C172.016 565.088 171.654 564.09 172.262 563.313C172.87 562.536 174.222 562.269 175.276 562.718C176.329 563.166 176.692 564.164 176.083 564.941C175.475 565.718 174.123 565.985 173.069 565.536Z" fill="#F99F1B"/>
<path d="M220.664 546.464C218.722 545.637 216.246 546.126 215.125 547.559C214.003 548.991 214.667 550.817 216.609 551.644C218.55 552.471 221.027 551.982 222.148 550.55C222.398 550.23 222.544 549.885 222.626 549.534L266.683 546.539C266.923 547.006 267.364 547.428 267.994 547.696C269.461 548.321 271.334 547.951 272.181 546.869C273.028 545.787 272.526 544.405 271.059 543.781C269.593 543.156 267.719 543.526 266.872 544.608C266.61 544.943 266.489 545.308 266.481 545.671L222.639 548.656C222.475 547.774 221.8 546.948 220.664 546.464ZM270.356 544.679C271.151 545.018 271.422 545.763 270.962 546.35C270.503 546.936 269.493 547.136 268.698 546.797C267.903 546.459 267.632 545.714 268.091 545.127C268.55 544.54 269.56 544.341 270.356 544.679Z" fill="#F99F1B"/>
<path d="M89.0513 601.429C89.2065 601.688 89.4611 601.908 89.8123 602.058C90.7108 602.44 91.8512 602.215 92.37 601.552C92.8888 600.889 92.5832 600.048 91.6847 599.665C90.7861 599.283 89.6457 599.508 89.1269 600.171C89.0315 600.293 88.973 600.42 88.9352 600.557L60.2425 602.66C60.1086 602.532 59.9362 602.418 59.7297 602.33C58.8828 601.969 57.8075 602.182 57.3185 602.806C56.8296 603.431 57.1177 604.224 57.9646 604.585C58.8115 604.945 59.8868 604.733 60.3757 604.108C60.5188 603.925 60.594 603.724 60.5997 603.523L89.0556 601.441L89.0513 601.429Z" fill="#F99F1B"/>
<path d="M94.7101 577.808L90.752 578.205L91.2578 580.95L95.216 580.554L94.7101 577.808Z" fill="#F99F1B"/>
<path d="M106.581 576.62L102.623 577.017L103.129 579.762L107.087 579.365L106.581 576.62Z" fill="#F99F1B"/>
<path d="M118.474 575.432L114.516 575.829L115.021 578.574L118.98 578.178L118.474 575.432Z" fill="#F99F1B"/>
<path d="M130.364 574.235L126.406 574.632L126.912 577.377L130.87 576.98L130.364 574.235Z" fill="#F99F1B"/>
<path d="M142.255 573.044L138.297 573.441L138.803 576.186L142.761 575.789L142.255 573.044Z" fill="#F99F1B"/>
<path d="M154.146 571.848L150.188 572.244L150.693 574.99L154.652 574.593L154.146 571.848Z" fill="#F99F1B"/>
<path d="M172.786 468.257L168.828 468.654L169.334 471.399L173.292 471.003L172.786 468.257Z" fill="#F99F1B"/>
<path d="M184.661 467.069L180.703 467.466L181.209 470.211L185.167 469.814L184.661 467.069Z" fill="#F99F1B"/>
<path d="M196.564 465.886L192.605 466.282L193.111 469.028L197.069 468.631L196.564 465.886Z" fill="#F99F1B"/>
<path d="M208.454 464.689L204.496 465.085L205.002 467.831L208.96 467.434L208.454 464.689Z" fill="#F99F1B"/>
<path d="M220.335 463.493L216.377 463.89L216.883 466.635L220.841 466.238L220.335 463.493Z" fill="#F99F1B"/>
<path d="M232.236 462.301L228.277 462.698L228.783 465.443L232.741 465.046L232.236 462.301Z" fill="#F99F1B"/>
<path d="M154.371 495.916L150.159 474.853L121.604 477.96L125.815 499.022L154.371 495.916ZM149.059 475.959L152.882 495.109L126.92 497.928L123.097 478.779L149.059 475.959Z" fill="#F99F1B"/>
<path d="M148.202 492.537L145.583 479.415L127.794 481.347L130.413 494.468L148.202 492.537ZM144.579 480.399L146.852 491.799L131.396 493.476L129.123 482.076L144.579 480.399Z" fill="#F99F1B"/>
<path d="M140.846 484.109L134.168 484.835L135.153 489.761L141.831 489.035L140.846 484.109Z" fill="#F99F1B"/>
<path d="M230.778 622.161L226.898 622.452L227.278 625.208L231.157 624.918L230.778 622.161Z" fill="#F99F1B"/>
<path d="M242.42 621.287L238.541 621.578L238.921 624.334L242.8 624.044L242.42 621.287Z" fill="#F99F1B"/>
<path d="M254.102 620.38L250.223 620.672L250.603 623.428L254.482 623.137L254.102 620.38Z" fill="#F99F1B"/>
<g style="mix-blend-mode:overlay" opacity="0.38">
<path d="M192.132 496.953C195.561 498.414 199.96 497.544 201.94 495.015C202.47 494.337 202.765 493.609 202.856 492.876L265.518 486.732L283.044 464.341L338.114 460.947C338.713 461.923 339.702 462.771 341.045 463.343C344.474 464.803 348.872 463.933 350.852 461.404C352.832 458.875 351.653 455.63 348.224 454.17C344.795 452.71 340.396 453.579 338.417 456.109C337.725 456.992 337.422 457.96 337.468 458.904L281.34 462.366L263.773 484.81L202.576 490.806C202.057 489.569 200.95 488.468 199.307 487.769C195.878 486.309 191.48 487.178 189.5 489.707C187.52 492.236 188.699 495.481 192.128 496.941L192.132 496.953ZM346.833 455.965C348.919 456.853 349.635 458.824 348.431 460.363C347.226 461.902 344.554 462.43 342.468 461.541C340.382 460.653 339.666 458.682 340.87 457.143C342.075 455.604 344.747 455.076 346.833 455.965ZM197.904 489.579C199.991 490.467 200.707 492.438 199.502 493.977C198.298 495.516 195.626 496.044 193.539 495.155C191.453 494.267 190.737 492.296 191.942 490.757C193.146 489.218 195.818 488.69 197.904 489.579Z" fill="#F99F1B"/>
</g>
<g style="mix-blend-mode:overlay" opacity="0.38">
<path d="M91.8692 624.853C91.6529 624.162 91.087 623.565 90.2683 623.186C89.367 622.772 88.3157 622.69 87.3649 622.884L75.917 614.515L10.4962 618.449L10.5817 619.237C10.2677 618.565 9.67956 617.979 8.8402 617.591C7.88286 617.143 6.74024 617.001 5.61933 617.184C4.50875 617.372 3.56055 617.862 2.9571 618.58C2.3493 619.286 2.15186 620.136 2.40579 620.956C2.65971 621.775 3.32411 622.474 4.29774 622.919C4.42168 622.972 4.55595 623.029 4.67989 623.082C5.55663 623.405 6.54869 623.492 7.51265 623.334C8.62324 623.146 9.57144 622.656 10.1749 621.938C10.5414 621.505 10.7411 621.021 10.7973 620.527L74.8493 616.671L85.1528 624.197C84.2786 625.42 84.7901 626.948 86.4068 627.697C86.5204 627.746 86.6237 627.79 86.727 627.834C87.4635 628.107 88.3018 628.179 89.1251 628.042C90.0625 627.883 90.8712 627.466 91.3852 626.862C91.8992 626.258 92.0691 625.548 91.8588 624.849L91.8692 624.853ZM9.26919 621.512C8.81483 622.039 8.11142 622.41 7.28216 622.555C6.45886 622.692 5.60744 622.583 4.87573 622.251C4.1603 621.916 3.65753 621.397 3.46152 620.786C3.27584 620.178 3.4128 619.546 3.87313 619.011C4.32749 618.483 5.03089 618.112 5.86016 617.967C6.57538 617.845 7.32351 617.91 7.97739 618.148C8.07035 618.187 8.1633 618.227 8.26659 618.271C8.98201 618.606 9.48478 619.125 9.68079 619.737C9.86647 620.344 9.72951 620.976 9.26919 621.512ZM90.2169 626.313C89.904 626.678 89.4129 626.936 88.8383 627.037C88.2637 627.137 87.6666 627.056 87.1724 626.825C86.1428 626.346 85.8293 625.339 86.4789 624.579C87.0927 623.865 88.3308 623.621 89.3271 623.984C89.3891 624.011 89.4614 624.041 89.5234 624.068C90.0175 624.298 90.3674 624.661 90.5039 625.085C90.6404 625.508 90.5357 625.941 90.2169 626.313Z" fill="#F99F1B"/>
</g>
<g style="mix-blend-mode:overlay" opacity="0.38">
<path d="M539.631 617.523C536.574 616.221 532.647 616.997 530.882 619.252C530.745 619.427 530.661 619.605 530.561 619.786L470.973 622.76L436.237 601.426L435.199 601.502C429.438 601.913 378.736 605.532 373.963 606.476L373.018 606.663L350.974 632.644L266.103 638.432C265.336 636.896 263.908 635.536 261.842 634.657C257.142 632.655 251.104 633.842 248.385 637.316C245.666 640.79 247.291 645.241 251.991 647.242C256.69 649.243 262.734 648.049 265.448 644.583C266.068 643.79 266.435 642.951 266.612 642.092L353.901 636.135L376.181 609.888C382.53 609.078 413.529 606.738 434.677 605.231L469.347 626.526L530.608 623.473C531.138 624.379 532.03 625.175 533.269 625.703C536.326 627.005 540.253 626.229 542.018 623.974C543.783 621.719 542.731 618.823 539.674 617.521L539.631 617.523ZM253.211 645.649C249.699 644.153 248.5 640.829 250.527 638.239C252.555 635.649 257.057 634.752 260.569 636.248C264.081 637.743 265.279 641.067 263.252 643.658C261.225 646.248 256.722 647.144 253.211 645.649ZM534.473 624.113C532.603 623.317 531.962 621.55 533.041 620.171C534.12 618.792 536.515 618.319 538.384 619.115C540.254 619.911 540.896 621.678 539.816 623.057C538.737 624.436 536.342 624.909 534.473 624.113Z" fill="#F99F1B"/>
</g>
<g style="mix-blend-mode:overlay" opacity="0.38">
<path d="M213.861 512.281L209.898 512.614L209.905 515.057L213.868 514.724L213.861 512.281Z" fill="#F99F1B"/>
<path d="M224.869 511.581L220.906 511.914L220.913 514.357L224.876 514.024L224.869 511.581Z" fill="#F99F1B"/>
<path d="M235.871 510.872L231.908 511.205L231.915 513.648L235.878 513.315L235.871 510.872Z" fill="#F99F1B"/>
<path d="M246.875 510.164L242.912 510.497L242.919 512.94L246.882 512.607L246.875 510.164Z" fill="#F99F1B"/>
<path d="M257.873 509.472L253.91 509.805L253.917 512.248L257.88 511.915L257.873 509.472Z" fill="#F99F1B"/>
<path d="M268.891 508.763L264.928 509.095L264.935 511.539L268.897 511.206L268.891 508.763Z" fill="#F99F1B"/>
</g>
<g style="mix-blend-mode:overlay" opacity="0.38">
<path d="M46.1326 659.937L38.3711 660.589L38.3846 665.384L46.1461 664.732L46.1326 659.937Z" fill="#F99F1B"/>
<path d="M67.6599 658.557L59.8984 659.209L59.912 664.004L67.6735 663.352L67.6599 658.557Z" fill="#F99F1B"/>
<path d="M89.2302 657.175L81.4688 657.827L81.4823 662.622L89.2437 661.97L89.2302 657.175Z" fill="#F99F1B"/>
<path d="M110.785 655.79L103.023 656.442L103.037 661.237L110.798 660.584L110.785 655.79Z" fill="#F99F1B"/>
<path d="M132.32 654.414L124.559 655.066L124.572 659.861L132.334 659.209L132.32 654.414Z" fill="#F99F1B"/>
<path d="M153.892 653.041L146.131 653.693L146.144 658.488L153.906 657.835L153.892 653.041Z" fill="#F99F1B"/>
</g>
</g>
</g>
</svg>
