<svg width="343" height="160" viewBox="0 0 343 160" fill="none" xmlns="http://www.w3.org/2000/svg">
<g opacity="0.1">
<g clip-path="url(#clip0_2609_94819)">
<path d="M26.7313 15.4682C26.7313 16.7392 26.492 17.767 25.9388 18.5634C25.4641 19.3559 24.7502 19.9914 23.9538 20.4661C23.1574 20.9407 22.2081 21.1801 21.1763 21.337C20.1446 21.4939 19.0344 21.5763 18.0026 21.5763H1.34951C0.478605 21.5763 0 21.1016 0 20.1483V1.50625C0 0.635343 0.474682 0.156738 1.34951 0.156738H17.7712C19.0422 0.156738 20.2309 0.235198 21.2626 0.396041C22.2944 0.55296 23.2477 0.870723 24.0401 1.34933C24.8325 1.82793 25.3896 2.45953 25.7858 3.25198C26.1821 4.04442 26.4214 5.07617 26.4214 6.26484C26.4214 7.29658 26.2644 8.24987 25.8643 8.96386C25.4681 9.7563 24.7541 10.3918 23.7223 10.8665C24.5932 11.1843 25.3072 11.7374 25.8643 12.3729C26.4998 13.1654 26.7352 14.1187 26.7352 15.4682H26.7313ZM22.7651 15.5466C22.7651 14.9896 22.6867 14.5149 22.6082 14.1187C22.5297 13.7224 22.212 13.4047 21.8942 13.1654C21.5765 12.9261 21.0233 12.7692 20.3878 12.6083C19.7523 12.4475 18.8814 12.4514 17.9281 12.4514H3.88769V18.4026H18.2458C19.1991 18.4026 19.9916 18.3241 20.5447 18.2457C21.1018 18.1672 21.5765 17.9279 21.8942 17.771C22.212 17.5317 22.4513 17.2963 22.5297 16.9001C22.6082 16.5038 22.7691 16.1076 22.7691 15.5506L22.7651 15.5466ZM4.04461 9.20316H18.085C18.9559 9.20316 19.6699 9.20316 20.3054 9.1247C20.8625 9.04624 21.4156 8.8854 21.7334 8.72848C22.0511 8.57156 22.3689 8.25379 22.5258 7.85757C22.6827 7.46135 22.7651 6.98667 22.7651 6.35114C22.7651 5.87646 22.6867 5.39786 22.6082 5.00163C22.5297 4.60541 22.2904 4.28765 21.9727 4.13073C21.6549 3.89143 21.1802 3.73451 20.6232 3.65605C20.0661 3.57759 19.2737 3.49913 18.3243 3.49913H4.04461V9.211V9.20316Z" fill="#EB971C"/>
<path d="M50.6898 4.75977C51.3253 4.75977 51.8 4.83823 52.1178 4.99907C52.4355 5.15599 52.5924 5.55613 52.5924 6.10927V16.4228C52.5924 19.8319 49.815 21.5776 44.2639 21.5776H37.2025C31.6515 21.5776 28.874 19.8319 28.874 16.4228V6.10927C28.874 5.55221 29.0309 5.15599 29.3487 4.99907C29.6665 4.84215 30.1411 4.75977 30.7767 4.75977C31.4122 4.75977 31.8869 4.83823 32.2046 4.99907C32.5224 5.15599 32.6793 5.55613 32.6793 6.10927V16.4228C32.6793 17.0583 33.0755 17.533 33.7895 17.9293C34.5035 18.3255 35.7746 18.5648 37.3595 18.5648H44.1815C45.8488 18.5648 47.0375 18.3255 47.7515 17.9293C48.4654 17.533 48.8617 16.976 48.8617 16.4228V6.10927C48.8617 5.55221 49.0186 5.15599 49.3364 4.99907C49.5757 4.84215 50.0503 4.75977 50.6859 4.75977H50.6898Z" fill="#EB971C"/>
<path d="M54.8135 9.35733C54.8135 8.00782 55.3705 6.89762 56.5592 6.10517C57.7479 5.31273 59.4936 4.9165 61.7964 4.9165H65.841C66.3157 4.9165 66.555 4.99496 66.7119 5.31273C66.8688 5.63049 66.9512 5.94825 66.9512 6.42293C66.9512 6.89761 66.8728 7.29384 66.7119 7.53314C66.5511 7.77244 66.2372 7.92936 65.841 7.92936H61.7964C60.6862 7.92936 59.8114 8.08628 59.3367 8.32558C58.862 8.56489 58.5442 8.96111 58.5442 9.43579V10.2282C58.5442 10.7029 58.7835 11.0207 59.3367 11.3384C59.8898 11.6562 60.7647 11.7347 61.9533 11.7347H68.4576C71.2351 11.7347 73.2162 12.1309 74.4088 12.9233C75.5975 13.7158 76.233 14.826 76.233 16.254V17.2072C76.233 17.9212 76.0761 18.5567 75.7583 19.1099C75.4406 19.663 74.9659 20.1416 74.2519 20.5379C73.6164 20.9341 72.7455 21.2518 71.6353 21.4088C70.5251 21.5657 69.3364 21.7265 67.826 21.7265H55.9276C55.4529 21.7265 55.2136 21.6481 55.0567 21.3303C54.8998 21.0125 54.8174 20.6948 54.8174 20.2201C54.8174 19.7454 54.8959 19.3492 55.0567 19.1099C55.2175 18.8706 55.5314 18.7137 55.9276 18.7137H68.4616C69.254 18.7137 69.8895 18.7137 70.4466 18.6352C71.0037 18.5567 71.3999 18.4783 71.7177 18.3174C72.0354 18.1605 72.2747 17.9997 72.3532 17.8428C72.5101 17.6858 72.5101 17.4465 72.5101 17.2072V16.1755C72.5101 15.9362 72.4316 15.7008 72.3532 15.54C72.2747 15.3791 72.0354 15.2222 71.7177 15.0653C71.3999 14.9084 71.0037 14.826 70.529 14.7475C70.0543 14.6691 69.4188 14.6691 68.6263 14.6691H62.0436C59.6623 14.6691 57.8381 14.2728 56.6494 13.4804C55.4608 12.688 54.8252 11.6562 54.8252 10.3067V9.35341L54.8135 9.35733Z" fill="#EB971C"/>
<path d="M77.9766 1.90265C77.9766 1.26713 78.1335 0.792444 78.5336 0.474682C78.9338 0.15692 79.4869 0 80.2794 0C81.0718 0 81.7073 0.15692 82.0251 0.474682C82.3429 0.792444 82.5822 1.26713 82.5822 1.90265C82.5822 2.53818 82.4252 3.01286 82.0251 3.33062C81.6249 3.64838 81.0718 3.8053 80.2794 3.8053C79.4869 3.8053 78.8514 3.64838 78.5336 3.33062C78.2159 3.01286 77.9766 2.53818 77.9766 1.90265ZM82.2605 20.3093C82.2605 20.8664 82.1035 21.2626 81.7858 21.4195C81.468 21.5765 80.9933 21.6588 80.3578 21.6588C79.7223 21.6588 79.2476 21.5804 78.9298 21.4195C78.6121 21.2626 78.4552 20.8625 78.4552 20.3093V6.3474C78.4552 5.79034 78.6121 5.39411 78.9298 5.2372C79.2476 5.08028 79.7223 4.99789 80.3578 4.99789C80.9933 4.99789 81.468 5.07635 81.7858 5.2372C82.1035 5.39411 82.2605 5.79426 82.2605 6.3474V20.3093Z" fill="#EB971C"/>
<path d="M86.7825 21.6494C86.147 21.6494 85.6723 21.571 85.3546 21.4101C85.0368 21.2532 84.8799 20.853 84.8799 20.2999V9.98636C84.8799 6.57727 87.6574 4.83154 93.2084 4.83154H99.6343C105.185 4.83154 107.963 6.57727 107.963 9.98636V20.2999C107.963 20.857 107.806 21.2532 107.488 21.4101C107.17 21.567 106.696 21.6494 106.06 21.6494C105.425 21.6494 104.95 21.571 104.632 21.4101C104.314 21.2532 104.157 20.853 104.157 20.2999V9.98636C104.157 9.35083 103.761 8.87615 103.047 8.47993C102.333 8.0837 101.062 7.8444 99.4773 7.8444H93.2908C91.6235 7.8444 90.4348 8.0837 89.7209 8.47993C89.0069 8.87615 88.6107 9.43321 88.6107 9.98636V20.2999C88.6107 20.857 88.4537 21.2532 88.136 21.4101C87.8182 21.567 87.422 21.6494 86.7865 21.6494H86.7825Z" fill="#EB971C"/>
<path d="M114.228 14.9102V16.4166C114.228 16.9737 114.624 17.5268 115.338 17.923C116.052 18.3193 117.323 18.5586 118.908 18.5586H122.321C122.796 18.5586 123.035 18.637 123.192 18.9548C123.349 19.1941 123.349 19.5903 123.349 20.065C123.349 20.5397 123.27 20.9359 123.192 21.1752C123.035 21.4145 122.796 21.5714 122.321 21.5714H118.829C113.278 21.5714 110.501 19.8257 110.501 16.4166V9.99075C110.501 6.58167 113.278 4.83594 118.829 4.83594H125.652C128.586 4.83594 130.728 5.23216 132.077 6.10699C133.427 6.98181 134.062 8.24894 134.062 9.99467V13.4038C134.062 13.9608 133.984 14.357 133.745 14.5924C133.505 14.8278 133.031 14.9102 132.317 14.9102H114.232H114.228ZM114.228 11.9719H130.253V9.98683C130.253 9.27284 129.857 8.79816 129.143 8.40194C128.429 8.00572 127.24 7.84487 125.495 7.84487H118.912C117.245 7.84487 116.056 8.08418 115.342 8.4804C114.628 8.87662 114.232 9.43369 114.232 9.98683V11.9719H114.228Z" fill="#EB971C"/>
<path d="M135.881 9.35733C135.881 8.00782 136.438 6.89762 137.627 6.10517C138.816 5.31273 140.561 4.9165 142.864 4.9165H146.909C147.383 4.9165 147.623 4.99496 147.78 5.31273C147.937 5.63049 148.019 5.94825 148.019 6.42293C148.019 6.89761 147.94 7.29384 147.78 7.53314C147.619 7.77244 147.305 7.92936 146.909 7.92936H142.864C141.754 7.92936 140.879 8.08628 140.404 8.32558C139.93 8.56489 139.612 8.96111 139.612 9.43579V10.2282C139.612 10.7029 139.93 11.0207 140.404 11.3384C140.961 11.6562 141.832 11.7347 143.021 11.7347H149.525C152.303 11.7347 154.284 12.1309 155.477 12.9233C156.669 13.7158 157.301 14.826 157.301 16.254V17.2072C157.301 17.9212 157.144 18.5567 156.826 19.1099C156.508 19.667 156.034 20.1416 155.32 20.5379C154.684 20.9341 153.813 21.2518 152.703 21.4088C151.593 21.5657 150.404 21.7265 148.894 21.7265H136.917C136.442 21.7265 136.203 21.6481 136.046 21.3303C135.889 21.0125 135.807 20.6948 135.807 20.2201C135.807 19.7454 135.885 19.3492 136.046 19.1099C136.207 18.8706 136.521 18.7137 136.917 18.7137H149.451C150.243 18.7137 150.879 18.7137 151.436 18.6352C151.993 18.5567 152.389 18.4783 152.707 18.3174C153.025 18.1566 153.182 17.9997 153.342 17.8428C153.503 17.6858 153.499 17.4465 153.499 17.2072V16.1755C153.499 15.9362 153.421 15.7008 153.342 15.54C153.264 15.3791 153.025 15.2222 152.707 15.0653C152.389 14.9084 151.993 14.826 151.518 14.7475C151.044 14.6691 150.408 14.6691 149.616 14.6691H143.033C140.652 14.6691 138.827 14.2728 137.639 13.4804C136.45 12.688 135.814 11.6562 135.814 10.3067L135.893 9.35341L135.881 9.35733Z" fill="#EB971C"/>
<path d="M159.203 9.35733C159.203 8.00782 159.761 6.89762 160.949 6.10517C162.138 5.31273 163.884 4.9165 166.186 4.9165H170.231C170.706 4.9165 170.945 4.99496 171.102 5.31273C171.259 5.63049 171.341 5.94825 171.341 6.42293C171.341 6.89761 171.263 7.29384 171.102 7.53314C170.941 7.77244 170.627 7.92936 170.231 7.92936H166.186C165.076 7.92936 164.201 8.08628 163.727 8.32558C163.252 8.56489 162.934 8.96111 162.934 9.43579V10.2282C162.934 10.7029 163.252 11.0207 163.727 11.3384C164.284 11.6562 165.155 11.7347 166.343 11.7347H172.848C175.625 11.7347 177.606 12.1309 178.799 12.9233C179.991 13.7158 180.623 14.826 180.623 16.254V17.2072C180.623 17.9212 180.466 18.5567 180.148 19.1099C179.831 19.667 179.356 20.1416 178.642 20.5379C178.006 20.9341 177.135 21.2518 176.025 21.4088C174.915 21.5657 173.726 21.7265 172.216 21.7265H160.239C159.764 21.7265 159.525 21.6481 159.368 21.3303C159.211 21.0125 159.129 20.6948 159.129 20.2201C159.129 19.7454 159.207 19.3492 159.368 19.1099C159.529 18.8706 159.843 18.7137 160.239 18.7137H172.773C173.566 18.7137 174.201 18.7137 174.758 18.6352C175.315 18.5567 175.711 18.4783 176.029 18.3174C176.347 18.1566 176.504 17.9997 176.665 17.8428C176.826 17.6858 176.822 17.4465 176.822 17.2072V16.1755C176.822 15.9362 176.743 15.7008 176.665 15.54C176.586 15.3791 176.347 15.2222 176.029 15.0653C175.711 14.9084 175.315 14.826 174.84 14.7475C174.366 14.6691 173.73 14.6691 172.938 14.6691H166.355C163.974 14.6691 162.15 14.2728 160.961 13.4804C159.772 12.688 159.137 11.6562 159.137 10.3067L159.215 9.35341L159.203 9.35733Z" fill="#EB971C"/>
<path d="M219.97 15.4682C219.97 16.7392 219.73 17.767 219.177 18.5634C218.702 19.3559 217.988 19.9914 217.192 20.4661C216.4 20.9407 215.446 21.1801 214.415 21.337C213.383 21.4939 212.273 21.5763 211.241 21.5763H194.584C193.713 21.5763 193.234 21.1016 193.234 20.1483V1.50625C193.234 0.635343 193.709 0.156738 194.584 0.156738H211.006C212.277 0.156738 213.465 0.235198 214.497 0.396041C215.529 0.55296 216.482 0.870723 217.274 1.34933C218.067 1.82401 218.624 2.45953 219.02 3.25198C219.416 4.04442 219.656 5.07617 219.656 6.26484C219.656 7.29658 219.499 8.24987 219.099 8.96386C218.702 9.7563 217.988 10.3918 216.957 10.8665C217.828 11.1843 218.542 11.7374 219.099 12.3729C219.656 13.1654 219.97 14.1187 219.97 15.4682ZM215.921 15.5466C215.921 14.9896 215.843 14.5149 215.764 14.1187C215.686 13.7224 215.368 13.4047 215.05 13.1654C214.654 12.9261 214.179 12.7692 213.544 12.6083C212.908 12.4475 212.037 12.4514 211.084 12.4514H197.122V18.4026H211.48C212.434 18.4026 213.226 18.3241 213.779 18.2457C214.336 18.1672 214.811 17.9279 215.129 17.771C215.446 17.5317 215.686 17.2963 215.764 16.9001C215.843 16.5038 215.921 16.1076 215.921 15.5506V15.5466ZM197.201 9.20316H211.241C212.112 9.20316 212.826 9.20316 213.461 9.1247C214.018 9.04624 214.572 8.8854 214.889 8.72848C215.207 8.57156 215.525 8.25379 215.682 7.85757C215.839 7.46135 215.921 6.98667 215.921 6.35114C215.921 5.87646 215.843 5.39786 215.764 5.00163C215.686 4.60541 215.446 4.28765 215.129 4.13073C214.811 3.89143 214.336 3.73451 213.779 3.65605C213.222 3.57759 212.43 3.49913 211.48 3.49913H197.279L197.201 9.211V9.20316Z" fill="#EB971C"/>
<path d="M243.846 4.75977C244.482 4.75977 244.956 4.83823 245.274 4.99907C245.592 5.15599 245.749 5.55613 245.749 6.10927V16.4228C245.749 19.8319 242.971 21.5776 237.42 21.5776H230.359C224.808 21.5776 222.03 19.8319 222.03 16.4228V6.10927C222.03 5.55221 222.187 5.15599 222.505 4.99907C222.823 4.84215 223.297 4.75977 223.933 4.75977C224.568 4.75977 225.043 4.83823 225.361 4.99907C225.679 5.15599 225.836 5.55613 225.836 6.10927V16.4228C225.836 17.0583 226.232 17.533 226.946 17.9293C227.66 18.3255 228.931 18.5648 230.516 18.5648H237.338C239.005 18.5648 240.194 18.3255 240.908 17.9293C241.622 17.533 242.018 16.976 242.018 16.4228V6.10927C242.018 5.55221 242.175 5.15599 242.493 4.99907C242.81 4.84215 243.207 4.75977 243.842 4.75977H243.846Z" fill="#EB971C"/>
<path d="M247.889 1.90265C247.889 1.26713 248.046 0.792444 248.446 0.474682C248.846 0.15692 249.399 0 250.191 0C250.984 0 251.619 0.15692 251.937 0.474682C252.255 0.792444 252.494 1.26713 252.494 1.90265C252.494 2.53818 252.337 3.01286 251.937 3.33062C251.537 3.64838 250.984 3.8053 250.191 3.8053C249.399 3.8053 248.763 3.64838 248.446 3.33062C248.128 3.01286 247.889 2.53818 247.889 1.90265ZM252.173 20.3093C252.173 20.8664 252.016 21.2626 251.698 21.4195C251.38 21.5765 250.905 21.6588 250.27 21.6588C249.634 21.6588 249.16 21.5804 248.842 21.4195C248.524 21.2626 248.367 20.8625 248.367 20.3093V6.3474C248.367 5.79034 248.524 5.39411 248.842 5.2372C249.16 5.08028 249.634 4.99789 250.27 4.99789C250.905 4.99789 251.38 5.07635 251.698 5.2372C252.016 5.39804 252.173 5.79426 252.173 6.3474V20.3093Z" fill="#EB971C"/>
<path d="M258.676 20.307C258.676 20.8641 258.519 21.2603 258.202 21.4173C257.884 21.5742 257.409 21.6566 256.774 21.6566C256.138 21.6566 255.664 21.5781 255.346 21.4173C255.028 21.2603 254.871 20.8602 254.871 20.307V1.42568C254.871 0.868616 255.028 0.472394 255.346 0.315474C255.664 0.158555 256.138 0.0761719 256.774 0.0761719C257.409 0.0761719 257.884 0.154632 258.202 0.315474C258.519 0.472394 258.676 0.872539 258.676 1.42568V20.307Z" fill="#EB971C"/>
<path d="M281.206 1.42568C281.206 0.868616 281.363 0.472394 281.681 0.315474C281.999 0.158555 282.473 0.0761719 283.109 0.0761719C283.744 0.0761719 284.219 0.154632 284.537 0.315474C284.854 0.472394 285.011 0.872539 285.011 1.42568V16.4194C285.011 19.8284 282.234 21.5742 276.683 21.5742H269.621C264.07 21.5742 261.293 19.8284 261.293 16.4194V9.9935C261.293 6.58442 264.07 4.83869 269.621 4.83869H281.363L281.206 1.4296V1.42568ZM269.625 7.85154C267.958 7.85154 266.769 8.09085 266.055 8.48707C265.342 8.88329 264.945 9.44036 264.945 9.9935V16.4194C264.945 16.9764 265.342 17.5296 266.055 17.9258C266.769 18.322 268.041 18.5613 269.625 18.5613H276.447C278.115 18.5613 279.303 18.322 280.017 17.9258C280.731 17.5296 281.128 16.9725 281.128 16.4194V7.85154H269.625Z" fill="#EB971C"/>
<path d="M287.158 1.90265C287.158 1.26713 287.315 0.792444 287.715 0.474682C288.115 0.15692 288.669 0 289.461 0C290.253 0 290.889 0.15692 291.207 0.474682C291.524 0.792444 291.764 1.26713 291.764 1.90265C291.764 2.53818 291.607 3.01286 291.207 3.33062C290.807 3.64838 290.253 3.8053 289.461 3.8053C288.669 3.8053 288.033 3.64838 287.715 3.33062C287.397 3.01286 287.158 2.53818 287.158 1.90265ZM291.36 20.3093C291.36 20.8664 291.203 21.2626 290.885 21.4195C290.567 21.5765 290.093 21.6588 289.457 21.6588C288.822 21.6588 288.347 21.5804 288.029 21.4195C287.711 21.2626 287.554 20.8625 287.554 20.3093V6.3474C287.554 5.79034 287.711 5.39411 288.029 5.2372C288.347 5.08028 288.822 4.99789 289.457 4.99789C290.093 4.99789 290.567 5.07635 290.885 5.2372C291.203 5.39804 291.36 5.79426 291.36 6.3474V20.3093Z" fill="#EB971C"/>
<path d="M295.881 21.6494C295.246 21.6494 294.771 21.571 294.453 21.4101C294.135 21.2532 293.979 20.853 293.979 20.2999V9.98636C293.979 6.57727 296.756 4.83154 302.307 4.83154H308.733C314.284 4.83154 317.061 6.57727 317.061 9.98636V20.2999C317.061 20.857 316.904 21.2532 316.587 21.4101C316.269 21.567 315.794 21.6494 315.159 21.6494C314.523 21.6494 314.049 21.571 313.731 21.4101C313.413 21.2532 313.256 20.853 313.256 20.2999V9.98636C313.256 9.35083 312.86 8.87615 312.146 8.47993C311.432 8.0837 310.161 7.8444 308.576 7.8444H302.389C300.722 7.8444 299.533 8.0837 298.819 8.47993C298.105 8.87615 297.709 9.43321 297.709 9.98636V20.2999C297.709 20.857 297.552 21.2532 297.235 21.4101C296.995 21.567 296.521 21.6494 295.885 21.6494H295.881Z" fill="#EB971C"/>
<path d="M331.342 26.42C330.867 26.42 330.628 26.2631 330.471 26.0238C330.314 25.7845 330.314 25.3883 330.314 24.9136C330.314 24.4389 330.393 24.0427 330.471 23.8034C330.55 23.5641 330.867 23.4072 331.342 23.4072H335.387C336.815 23.4072 337.846 23.2503 338.4 22.8501C338.957 22.4539 339.27 21.9792 339.27 21.2652V21.1083H327.925C322.374 21.1083 319.597 19.3626 319.597 15.9535V9.92385C319.597 6.51477 322.374 4.76904 327.925 4.76904H334.669C340.22 4.76904 342.997 6.51477 342.997 9.92385V21.1868C342.997 22.9325 342.362 24.1996 341.012 24.996C339.741 25.8669 337.839 26.267 335.3 26.267L331.334 26.424L331.342 26.42ZM339.353 18.2484V9.99839C339.353 9.44133 338.957 8.88818 338.243 8.49196C337.529 8.09574 336.258 7.85644 334.673 7.85644H328.168C326.501 7.85644 325.312 8.09574 324.598 8.49196C323.885 8.88818 323.488 9.44525 323.488 9.99839V16.028C323.488 16.6636 323.885 17.1382 324.598 17.5345C325.312 17.9307 326.584 18.17 328.168 18.17H339.353V18.2484Z" fill="#EB971C"/>
</g>
<g clip-path="url(#clip1_2609_94819)">
<path d="M26.7313 49.8896C26.7313 51.1606 26.492 52.1884 25.9388 52.9848C25.4641 53.7772 24.7502 54.4128 23.9538 54.8875C23.1574 55.3621 22.2081 55.6014 21.1763 55.7584C20.1446 55.9153 19.0344 55.9977 18.0026 55.9977H1.34951C0.478605 55.9977 0 55.523 0 54.5697V35.9276C0 35.0567 0.474682 34.5781 1.34951 34.5781H17.7712C19.0422 34.5781 20.2309 34.6566 21.2626 34.8174C22.2944 34.9743 23.2477 35.2921 24.0401 35.7707C24.8325 36.2493 25.3896 36.8809 25.7858 37.6734C26.1821 38.4658 26.4214 39.4976 26.4214 40.6862C26.4214 41.718 26.2644 42.6713 25.8643 43.3852C25.4681 44.1777 24.7541 44.8132 23.7223 45.2879C24.5932 45.6057 25.3072 46.1588 25.8643 46.7943C26.4998 47.5868 26.7352 48.5401 26.7352 49.8896H26.7313ZM22.7651 49.968C22.7651 49.411 22.6867 48.9363 22.6082 48.5401C22.5297 48.1438 22.212 47.8261 21.8942 47.5868C21.5765 47.3475 21.0233 47.1905 20.3878 47.0297C19.7523 46.8689 18.8814 46.8728 17.9281 46.8728H3.88769V52.824H18.2458C19.1991 52.824 19.9916 52.7455 20.5447 52.667C21.1018 52.5886 21.5765 52.3493 21.8942 52.1924C22.212 51.9531 22.4513 51.7177 22.5297 51.3215C22.6082 50.9252 22.7691 50.529 22.7691 49.9719L22.7651 49.968ZM4.04461 43.6245H18.085C18.9559 43.6245 19.6699 43.6245 20.3054 43.5461C20.8625 43.4676 21.4156 43.3068 21.7334 43.1499C22.0511 42.9929 22.3689 42.6752 22.5258 42.279C22.6827 41.8827 22.7651 41.4081 22.7651 40.7725C22.7651 40.2978 22.6867 39.8192 22.6082 39.423C22.5297 39.0268 22.2904 38.709 21.9727 38.5521C21.6549 38.3128 21.1802 38.1559 20.6232 38.0774C20.0661 37.999 19.2737 37.9205 18.3243 37.9205H4.04461V43.6324V43.6245Z" fill="#EB971C"/>
<path d="M50.6898 39.1768C51.3253 39.1768 51.8 39.2552 52.1178 39.4161C52.4355 39.573 52.5924 39.9731 52.5924 40.5263V50.8398C52.5924 54.2489 49.815 55.9946 44.2639 55.9946H37.2025C31.6515 55.9946 28.874 54.2489 28.874 50.8398V40.5263C28.874 39.9692 29.0309 39.573 29.3487 39.4161C29.6665 39.2591 30.1411 39.1768 30.7767 39.1768C31.4122 39.1768 31.8869 39.2552 32.2046 39.4161C32.5224 39.573 32.6793 39.9731 32.6793 40.5263V50.8398C32.6793 51.4753 33.0755 51.95 33.7895 52.3462C34.5035 52.7425 35.7746 52.9818 37.3595 52.9818H44.1815C45.8488 52.9818 47.0375 52.7425 47.7515 52.3462C48.4654 51.95 48.8617 51.393 48.8617 50.8398V40.5263C48.8617 39.9692 49.0186 39.573 49.3364 39.4161C49.5757 39.2591 50.0503 39.1768 50.6859 39.1768H50.6898Z" fill="#EB971C"/>
<path d="M54.8135 43.7743C54.8135 42.4248 55.3705 41.3146 56.5592 40.5222C57.7479 39.7297 59.4936 39.3335 61.7964 39.3335H65.841C66.3157 39.3335 66.555 39.412 66.7119 39.7297C66.8688 40.0475 66.9512 40.3652 66.9512 40.8399C66.9512 41.3146 66.8728 41.7108 66.7119 41.9501C66.5511 42.1894 66.2372 42.3464 65.841 42.3464H61.7964C60.6862 42.3464 59.8114 42.5033 59.3367 42.7426C58.862 42.9819 58.5442 43.3781 58.5442 43.8528V44.6452C58.5442 45.1199 58.7835 45.4377 59.3367 45.7554C59.8898 46.0732 60.7647 46.1517 61.9533 46.1517H68.4576C71.2351 46.1517 73.2162 46.5479 74.4088 47.3403C75.5975 48.1328 76.233 49.243 76.233 50.6709V51.6242C76.233 52.3382 76.0761 52.9737 75.7583 53.5269C75.4406 54.08 74.9659 54.5586 74.2519 54.9549C73.6164 55.3511 72.7455 55.6688 71.6353 55.8258C70.5251 55.9827 69.3364 56.1435 67.826 56.1435H55.9276C55.4529 56.1435 55.2136 56.0651 55.0567 55.7473C54.8998 55.4295 54.8174 55.1118 54.8174 54.6371C54.8174 54.1624 54.8959 53.7662 55.0567 53.5269C55.2175 53.2876 55.5314 53.1307 55.9276 53.1307H68.4616C69.254 53.1307 69.8895 53.1307 70.4466 53.0522C71.0037 52.9737 71.3999 52.8953 71.7177 52.7344C72.0354 52.5775 72.2747 52.4167 72.3532 52.2598C72.5101 52.1028 72.5101 51.8635 72.5101 51.6242V50.5925C72.5101 50.3532 72.4316 50.1178 72.3532 49.957C72.2747 49.7961 72.0354 49.6392 71.7177 49.4823C71.3999 49.3254 71.0037 49.243 70.529 49.1645C70.0543 49.0861 69.4188 49.0861 68.6263 49.0861H62.0436C59.6623 49.0861 57.8381 48.6898 56.6494 47.8974C55.4608 47.1049 54.8252 46.0732 54.8252 44.7237V43.7704L54.8135 43.7743Z" fill="#EB971C"/>
<path d="M77.9766 36.3196C77.9766 35.6841 78.1335 35.2094 78.5336 34.8917C78.9338 34.5739 79.4869 34.417 80.2794 34.417C81.0718 34.417 81.7073 34.5739 82.0251 34.8917C82.3429 35.2094 82.5822 35.6841 82.5822 36.3196C82.5822 36.9552 82.4252 37.4299 82.0251 37.7476C81.6249 38.0654 81.0718 38.2223 80.2794 38.2223C79.4869 38.2223 78.8514 38.0654 78.5336 37.7476C78.2159 37.4299 77.9766 36.9552 77.9766 36.3196ZM82.2605 54.7263C82.2605 55.2834 82.1035 55.6796 81.7858 55.8365C81.468 55.9935 80.9933 56.0758 80.3578 56.0758C79.7223 56.0758 79.2476 55.9974 78.9298 55.8365C78.6121 55.6796 78.4552 55.2795 78.4552 54.7263V40.7644C78.4552 40.2073 78.6121 39.8111 78.9298 39.6542C79.2476 39.4973 79.7223 39.4149 80.3578 39.4149C80.9933 39.4149 81.468 39.4933 81.7858 39.6542C82.1035 39.8111 82.2605 40.2113 82.2605 40.7644V54.7263Z" fill="#EB971C"/>
<path d="M86.7825 56.0708C86.147 56.0708 85.6723 55.9923 85.3546 55.8315C85.0368 55.6746 84.8799 55.2744 84.8799 54.7213V44.4077C84.8799 40.9987 87.6574 39.2529 93.2084 39.2529H99.6343C105.185 39.2529 107.963 40.9987 107.963 44.4077V54.7213C107.963 55.2784 107.806 55.6746 107.488 55.8315C107.17 55.9884 106.696 56.0708 106.06 56.0708C105.425 56.0708 104.95 55.9923 104.632 55.8315C104.314 55.6746 104.157 55.2744 104.157 54.7213V44.4077C104.157 43.7722 103.761 43.2975 103.047 42.9013C102.333 42.5051 101.062 42.2658 99.4773 42.2658H93.2908C91.6235 42.2658 90.4348 42.5051 89.7209 42.9013C89.0069 43.2975 88.6107 43.8546 88.6107 44.4077V54.7213C88.6107 55.2784 88.4537 55.6746 88.136 55.8315C87.8182 55.9884 87.422 56.0708 86.7865 56.0708H86.7825Z" fill="#EB971C"/>
<path d="M114.228 49.3316V50.838C114.228 51.3951 114.624 51.9482 115.338 52.3444C116.052 52.7407 117.323 52.98 118.908 52.98H122.321C122.796 52.98 123.035 53.0584 123.192 53.3762C123.349 53.6155 123.349 54.0117 123.349 54.4864C123.349 54.9611 123.27 55.3573 123.192 55.5966C123.035 55.8359 122.796 55.9928 122.321 55.9928H118.829C113.278 55.9928 110.501 54.2471 110.501 50.838V44.4121C110.501 41.0031 113.278 39.2573 118.829 39.2573H125.652C128.586 39.2573 130.728 39.6535 132.077 40.5284C133.427 41.4032 134.062 42.6703 134.062 44.4161V47.8251C134.062 48.3822 133.984 48.7784 133.745 49.0138C133.505 49.2492 133.031 49.3316 132.317 49.3316H114.232H114.228ZM114.228 46.3932H130.253V44.4082C130.253 43.6942 129.857 43.2195 129.143 42.8233C128.429 42.4271 127.24 42.2663 125.495 42.2663H118.912C117.245 42.2663 116.056 42.5056 115.342 42.9018C114.628 43.298 114.232 43.8551 114.232 44.4082V46.3932H114.228Z" fill="#EB971C"/>
<path d="M135.881 43.7743C135.881 42.4248 136.438 41.3146 137.627 40.5222C138.816 39.7297 140.561 39.3335 142.864 39.3335H146.909C147.383 39.3335 147.623 39.412 147.78 39.7297C147.937 40.0475 148.019 40.3652 148.019 40.8399C148.019 41.3146 147.94 41.7108 147.78 41.9501C147.619 42.1894 147.305 42.3464 146.909 42.3464H142.864C141.754 42.3464 140.879 42.5033 140.404 42.7426C139.93 42.9819 139.612 43.3781 139.612 43.8528V44.6452C139.612 45.1199 139.93 45.4377 140.404 45.7554C140.961 46.0732 141.832 46.1517 143.021 46.1517H149.525C152.303 46.1517 154.284 46.5479 155.477 47.3403C156.669 48.1328 157.301 49.243 157.301 50.6709V51.6242C157.301 52.3382 157.144 52.9737 156.826 53.5269C156.508 54.0839 156.034 54.5586 155.32 54.9549C154.684 55.3511 153.813 55.6688 152.703 55.8258C151.593 55.9827 150.404 56.1435 148.894 56.1435H136.917C136.442 56.1435 136.203 56.0651 136.046 55.7473C135.889 55.4295 135.807 55.1118 135.807 54.6371C135.807 54.1624 135.885 53.7662 136.046 53.5269C136.207 53.2876 136.521 53.1307 136.917 53.1307H149.451C150.243 53.1307 150.879 53.1307 151.436 53.0522C151.993 52.9737 152.389 52.8953 152.707 52.7344C153.025 52.5736 153.182 52.4167 153.342 52.2598C153.503 52.1028 153.499 51.8635 153.499 51.6242V50.5925C153.499 50.3532 153.421 50.1178 153.342 49.957C153.264 49.7961 153.025 49.6392 152.707 49.4823C152.389 49.3254 151.993 49.243 151.518 49.1645C151.044 49.0861 150.408 49.0861 149.616 49.0861H143.033C140.652 49.0861 138.827 48.6898 137.639 47.8974C136.45 47.1049 135.814 46.0732 135.814 44.7237L135.893 43.7704L135.881 43.7743Z" fill="#EB971C"/>
<path d="M159.203 43.7743C159.203 42.4248 159.761 41.3146 160.949 40.5222C162.138 39.7297 163.884 39.3335 166.186 39.3335H170.231C170.706 39.3335 170.945 39.412 171.102 39.7297C171.259 40.0475 171.341 40.3652 171.341 40.8399C171.341 41.3146 171.263 41.7108 171.102 41.9501C170.941 42.1894 170.627 42.3464 170.231 42.3464H166.186C165.076 42.3464 164.201 42.5033 163.727 42.7426C163.252 42.9819 162.934 43.3781 162.934 43.8528V44.6452C162.934 45.1199 163.252 45.4377 163.727 45.7554C164.284 46.0732 165.155 46.1517 166.343 46.1517H172.848C175.625 46.1517 177.606 46.5479 178.799 47.3403C179.991 48.1328 180.623 49.243 180.623 50.6709V51.6242C180.623 52.3382 180.466 52.9737 180.148 53.5269C179.831 54.0839 179.356 54.5586 178.642 54.9549C178.006 55.3511 177.135 55.6688 176.025 55.8258C174.915 55.9827 173.726 56.1435 172.216 56.1435H160.239C159.764 56.1435 159.525 56.0651 159.368 55.7473C159.211 55.4295 159.129 55.1118 159.129 54.6371C159.129 54.1624 159.207 53.7662 159.368 53.5269C159.529 53.2876 159.843 53.1307 160.239 53.1307H172.773C173.566 53.1307 174.201 53.1307 174.758 53.0522C175.315 52.9737 175.711 52.8953 176.029 52.7344C176.347 52.5736 176.504 52.4167 176.665 52.2598C176.826 52.1028 176.822 51.8635 176.822 51.6242V50.5925C176.822 50.3532 176.743 50.1178 176.665 49.957C176.586 49.7961 176.347 49.6392 176.029 49.4823C175.711 49.3254 175.315 49.243 174.84 49.1645C174.366 49.0861 173.73 49.0861 172.938 49.0861H166.355C163.974 49.0861 162.15 48.6898 160.961 47.8974C159.772 47.1049 159.137 46.0732 159.137 44.7237L159.215 43.7704L159.203 43.7743Z" fill="#EB971C"/>
<path d="M219.97 49.8896C219.97 51.1606 219.73 52.1884 219.177 52.9848C218.702 53.7772 217.988 54.4128 217.192 54.8875C216.4 55.3621 215.446 55.6014 214.415 55.7584C213.383 55.9153 212.273 55.9977 211.241 55.9977H194.584C193.713 55.9977 193.234 55.523 193.234 54.5697V35.9276C193.234 35.0567 193.709 34.5781 194.584 34.5781H211.006C212.277 34.5781 213.465 34.6566 214.497 34.8174C215.529 34.9743 216.482 35.2921 217.274 35.7707C218.067 36.2454 218.624 36.8809 219.02 37.6734C219.416 38.4658 219.656 39.4976 219.656 40.6862C219.656 41.718 219.499 42.6713 219.099 43.3852C218.702 44.1777 217.988 44.8132 216.957 45.2879C217.828 45.6057 218.542 46.1588 219.099 46.7943C219.656 47.5868 219.97 48.5401 219.97 49.8896ZM215.921 49.968C215.921 49.411 215.843 48.9363 215.764 48.5401C215.686 48.1438 215.368 47.8261 215.05 47.5868C214.654 47.3475 214.179 47.1905 213.544 47.0297C212.908 46.8689 212.037 46.8728 211.084 46.8728H197.122V52.824H211.48C212.434 52.824 213.226 52.7455 213.779 52.667C214.336 52.5886 214.811 52.3493 215.129 52.1924C215.446 51.9531 215.686 51.7177 215.764 51.3215C215.843 50.9252 215.921 50.529 215.921 49.9719V49.968ZM197.201 43.6245H211.241C212.112 43.6245 212.826 43.6245 213.461 43.5461C214.018 43.4676 214.572 43.3068 214.889 43.1499C215.207 42.9929 215.525 42.6752 215.682 42.279C215.839 41.8827 215.921 41.4081 215.921 40.7725C215.921 40.2978 215.843 39.8192 215.764 39.423C215.686 39.0268 215.446 38.709 215.129 38.5521C214.811 38.3128 214.336 38.1559 213.779 38.0774C213.222 37.999 212.43 37.9205 211.48 37.9205H197.279L197.201 43.6324V43.6245Z" fill="#EB971C"/>
<path d="M243.846 39.1768C244.482 39.1768 244.956 39.2552 245.274 39.4161C245.592 39.573 245.749 39.9731 245.749 40.5263V50.8398C245.749 54.2489 242.971 55.9946 237.42 55.9946H230.359C224.808 55.9946 222.03 54.2489 222.03 50.8398V40.5263C222.03 39.9692 222.187 39.573 222.505 39.4161C222.823 39.2591 223.297 39.1768 223.933 39.1768C224.568 39.1768 225.043 39.2552 225.361 39.4161C225.679 39.573 225.836 39.9731 225.836 40.5263V50.8398C225.836 51.4753 226.232 51.95 226.946 52.3462C227.66 52.7425 228.931 52.9818 230.516 52.9818H237.338C239.005 52.9818 240.194 52.7425 240.908 52.3462C241.622 51.95 242.018 51.393 242.018 50.8398V40.5263C242.018 39.9692 242.175 39.573 242.493 39.4161C242.81 39.2591 243.207 39.1768 243.842 39.1768H243.846Z" fill="#EB971C"/>
<path d="M247.889 36.3196C247.889 35.6841 248.046 35.2094 248.446 34.8917C248.846 34.5739 249.399 34.417 250.191 34.417C250.984 34.417 251.619 34.5739 251.937 34.8917C252.255 35.2094 252.494 35.6841 252.494 36.3196C252.494 36.9552 252.337 37.4299 251.937 37.7476C251.537 38.0654 250.984 38.2223 250.191 38.2223C249.399 38.2223 248.763 38.0654 248.446 37.7476C248.128 37.4299 247.889 36.9552 247.889 36.3196ZM252.173 54.7263C252.173 55.2834 252.016 55.6796 251.698 55.8365C251.38 55.9935 250.905 56.0758 250.27 56.0758C249.634 56.0758 249.16 55.9974 248.842 55.8365C248.524 55.6796 248.367 55.2795 248.367 54.7263V40.7644C248.367 40.2073 248.524 39.8111 248.842 39.6542C249.16 39.4973 249.634 39.4149 250.27 39.4149C250.905 39.4149 251.38 39.4933 251.698 39.6542C252.016 39.815 252.173 40.2113 252.173 40.7644V54.7263Z" fill="#EB971C"/>
<path d="M258.676 54.724C258.676 55.2811 258.519 55.6773 258.202 55.8342C257.884 55.9912 257.409 56.0735 256.774 56.0735C256.138 56.0735 255.664 55.9951 255.346 55.8342C255.028 55.6773 254.871 55.2772 254.871 54.724V35.8427C254.871 35.2856 255.028 34.8894 255.346 34.7325C255.664 34.5755 256.138 34.4932 256.774 34.4932C257.409 34.4932 257.884 34.5716 258.202 34.7325C258.519 34.8894 258.676 35.2895 258.676 35.8427V54.724Z" fill="#EB971C"/>
<path d="M281.206 35.8427C281.206 35.2856 281.363 34.8894 281.681 34.7325C281.999 34.5755 282.473 34.4932 283.109 34.4932C283.744 34.4932 284.219 34.5716 284.537 34.7325C284.854 34.8894 285.011 35.2895 285.011 35.8427V50.8364C285.011 54.2454 282.234 55.9912 276.683 55.9912H269.621C264.07 55.9912 261.293 54.2454 261.293 50.8364V44.4105C261.293 41.0014 264.07 39.2557 269.621 39.2557H281.363L281.206 35.8466V35.8427ZM269.625 42.2685C267.958 42.2685 266.769 42.5078 266.055 42.9041C265.342 43.3003 264.945 43.8573 264.945 44.4105V50.8364C264.945 51.3934 265.342 51.9466 266.055 52.3428C266.769 52.739 268.041 52.9783 269.625 52.9783H276.447C278.115 52.9783 279.303 52.739 280.017 52.3428C280.731 51.9466 281.128 51.3895 281.128 50.8364V42.2685H269.625Z" fill="#EB971C"/>
<path d="M287.158 36.3196C287.158 35.6841 287.315 35.2094 287.715 34.8917C288.115 34.5739 288.669 34.417 289.461 34.417C290.253 34.417 290.889 34.5739 291.207 34.8917C291.524 35.2094 291.764 35.6841 291.764 36.3196C291.764 36.9552 291.607 37.4299 291.207 37.7476C290.807 38.0654 290.253 38.2223 289.461 38.2223C288.669 38.2223 288.033 38.0654 287.715 37.7476C287.397 37.4299 287.158 36.9552 287.158 36.3196ZM291.36 54.7263C291.36 55.2834 291.203 55.6796 290.885 55.8365C290.567 55.9935 290.093 56.0758 289.457 56.0758C288.822 56.0758 288.347 55.9974 288.029 55.8365C287.711 55.6796 287.554 55.2795 287.554 54.7263V40.7644C287.554 40.2073 287.711 39.8111 288.029 39.6542C288.347 39.4973 288.822 39.4149 289.457 39.4149C290.093 39.4149 290.567 39.4933 290.885 39.6542C291.203 39.815 291.36 40.2113 291.36 40.7644V54.7263Z" fill="#EB971C"/>
<path d="M295.881 56.0708C295.246 56.0708 294.771 55.9923 294.453 55.8315C294.135 55.6746 293.979 55.2744 293.979 54.7213V44.4077C293.979 40.9987 296.756 39.2529 302.307 39.2529H308.733C314.284 39.2529 317.061 40.9987 317.061 44.4077V54.7213C317.061 55.2784 316.904 55.6746 316.587 55.8315C316.269 55.9884 315.794 56.0708 315.159 56.0708C314.523 56.0708 314.049 55.9923 313.731 55.8315C313.413 55.6746 313.256 55.2744 313.256 54.7213V44.4077C313.256 43.7722 312.86 43.2975 312.146 42.9013C311.432 42.5051 310.161 42.2658 308.576 42.2658H302.389C300.722 42.2658 299.533 42.5051 298.819 42.9013C298.105 43.2975 297.709 43.8546 297.709 44.4077V54.7213C297.709 55.2784 297.552 55.6746 297.235 55.8315C296.995 55.9884 296.521 56.0708 295.885 56.0708H295.881Z" fill="#EB971C"/>
<path d="M331.342 60.837C330.867 60.837 330.628 60.6801 330.471 60.4408C330.314 60.2015 330.314 59.8053 330.314 59.3306C330.314 58.8559 330.393 58.4597 330.471 58.2204C330.55 57.9811 330.867 57.8242 331.342 57.8242H335.387C336.815 57.8242 337.846 57.6673 338.4 57.2671C338.957 56.8709 339.27 56.3962 339.27 55.6822V55.5253H327.925C322.374 55.5253 319.597 53.7796 319.597 50.3705V44.3408C319.597 40.9318 322.374 39.186 327.925 39.186H334.669C340.22 39.186 342.997 40.9318 342.997 44.3408V55.6038C342.997 57.3495 342.362 58.6166 341.012 59.413C339.741 60.2839 337.839 60.684 335.3 60.684L331.334 60.8409L331.342 60.837ZM339.353 52.6654V44.4154C339.353 43.8583 338.957 43.3052 338.243 42.909C337.529 42.5127 336.258 42.2734 334.673 42.2734H328.168C326.501 42.2734 325.312 42.5127 324.598 42.909C323.885 43.3052 323.488 43.8622 323.488 44.4154V50.445C323.488 51.0805 323.885 51.5552 324.598 51.9515C325.312 52.3477 326.584 52.587 328.168 52.587H339.353V52.6654Z" fill="#EB971C"/>
</g>
<g clip-path="url(#clip2_2609_94819)">
<path d="M26.7313 84.3022C26.7313 85.5732 26.492 86.601 25.9388 87.3974C25.4641 88.1898 24.7502 88.8254 23.9538 89.3001C23.1574 89.7747 22.2081 90.014 21.1763 90.171C20.1446 90.3279 19.0344 90.4103 18.0026 90.4103H1.34951C0.478605 90.4103 0 89.9356 0 88.9823V70.3402C0 69.4693 0.474682 68.9907 1.34951 68.9907H17.7712C19.0422 68.9907 20.2309 69.0692 21.2626 69.23C22.2944 69.3869 23.2477 69.7047 24.0401 70.1833C24.8325 70.6619 25.3896 71.2935 25.7858 72.086C26.1821 72.8784 26.4214 73.9102 26.4214 75.0988C26.4214 76.1306 26.2644 77.0839 25.8643 77.7978C25.4681 78.5903 24.7541 79.2258 23.7223 79.7005C24.5932 80.0183 25.3072 80.5714 25.8643 81.2069C26.4998 81.9994 26.7352 82.9527 26.7352 84.3022H26.7313ZM22.7651 84.3806C22.7651 83.8236 22.6867 83.3489 22.6082 82.9527C22.5297 82.5564 22.212 82.2387 21.8942 81.9994C21.5765 81.7601 21.0233 81.6031 20.3878 81.4423C19.7523 81.2815 18.8814 81.2854 17.9281 81.2854H3.88769V87.2366H18.2458C19.1991 87.2366 19.9916 87.1581 20.5447 87.0796C21.1018 87.0012 21.5765 86.7619 21.8942 86.605C22.212 86.3657 22.4513 86.1303 22.5297 85.7341C22.6082 85.3378 22.7691 84.9416 22.7691 84.3845L22.7651 84.3806ZM4.04461 78.0371H18.085C18.9559 78.0371 19.6699 78.0371 20.3054 77.9587C20.8625 77.8802 21.4156 77.7194 21.7334 77.5625C22.0511 77.4055 22.3689 77.0878 22.5258 76.6916C22.6827 76.2953 22.7651 75.8207 22.7651 75.1851C22.7651 74.7104 22.6867 74.2318 22.6082 73.8356C22.5297 73.4394 22.2904 73.1216 21.9727 72.9647C21.6549 72.7254 21.1802 72.5685 20.6232 72.49C20.0661 72.4116 19.2737 72.3331 18.3243 72.3331H4.04461V78.045V78.0371Z" fill="#EB971C"/>
<path d="M50.6898 73.5894C51.3253 73.5894 51.8 73.6678 52.1178 73.8287C52.4355 73.9856 52.5924 74.3857 52.5924 74.9389V85.2524C52.5924 88.6615 49.815 90.4072 44.2639 90.4072H37.2025C31.6515 90.4072 28.874 88.6615 28.874 85.2524V74.9389C28.874 74.3818 29.0309 73.9856 29.3487 73.8287C29.6665 73.6717 30.1411 73.5894 30.7767 73.5894C31.4122 73.5894 31.8869 73.6678 32.2046 73.8287C32.5224 73.9856 32.6793 74.3857 32.6793 74.9389V85.2524C32.6793 85.8879 33.0755 86.3626 33.7895 86.7588C34.5035 87.1551 35.7746 87.3944 37.3595 87.3944H44.1815C45.8488 87.3944 47.0375 87.1551 47.7515 86.7588C48.4654 86.3626 48.8617 85.8056 48.8617 85.2524V74.9389C48.8617 74.3818 49.0186 73.9856 49.3364 73.8287C49.5757 73.6717 50.0503 73.5894 50.6859 73.5894H50.6898Z" fill="#EB971C"/>
<path d="M54.8135 78.2001C54.8135 76.8506 55.3705 75.7404 56.5592 74.9479C57.7479 74.1555 59.4936 73.7593 61.7964 73.7593H65.841C66.3157 73.7593 66.555 73.8377 66.7119 74.1555C66.8688 74.4733 66.9512 74.791 66.9512 75.2657C66.9512 75.7404 66.8728 76.1366 66.7119 76.3759C66.5511 76.6152 66.2372 76.7721 65.841 76.7721H61.7964C60.6862 76.7721 59.8114 76.9291 59.3367 77.1684C58.862 77.4077 58.5442 77.8039 58.5442 78.2786V79.071C58.5442 79.5457 58.7835 79.8635 59.3367 80.1812C59.8898 80.499 60.7647 80.5774 61.9533 80.5774H68.4576C71.2351 80.5774 73.2162 80.9737 74.4088 81.7661C75.5975 82.5585 76.233 83.6688 76.233 85.0967V86.05C76.233 86.764 76.0761 87.3995 75.7583 87.9527C75.4406 88.5058 74.9659 88.9844 74.2519 89.3806C73.6164 89.7769 72.7455 90.0946 71.6353 90.2515C70.5251 90.4085 69.3364 90.5693 67.826 90.5693H55.9276C55.4529 90.5693 55.2136 90.4908 55.0567 90.1731C54.8998 89.8553 54.8174 89.5376 54.8174 89.0629C54.8174 88.5882 54.8959 88.192 55.0567 87.9527C55.2175 87.7134 55.5314 87.5564 55.9276 87.5564H68.4616C69.254 87.5564 69.8895 87.5564 70.4466 87.478C71.0037 87.3995 71.3999 87.3211 71.7177 87.1602C72.0354 87.0033 72.2747 86.8425 72.3532 86.6855C72.5101 86.5286 72.5101 86.2893 72.5101 86.05V85.0183C72.5101 84.779 72.4316 84.5436 72.3532 84.3827C72.2747 84.2219 72.0354 84.065 71.7177 83.9081C71.3999 83.7511 71.0037 83.6688 70.529 83.5903C70.0543 83.5118 69.4188 83.5118 68.6263 83.5118H62.0436C59.6623 83.5118 57.8381 83.1156 56.6494 82.3232C55.4608 81.5307 54.8252 80.499 54.8252 79.1495V78.1962L54.8135 78.2001Z" fill="#EB971C"/>
<path d="M77.9766 70.7366C77.9766 70.1011 78.1335 69.6264 78.5336 69.3087C78.9338 68.9909 79.4869 68.834 80.2794 68.834C81.0718 68.834 81.7073 68.9909 82.0251 69.3087C82.3429 69.6264 82.5822 70.1011 82.5822 70.7366C82.5822 71.3722 82.4252 71.8468 82.0251 72.1646C81.6249 72.4824 81.0718 72.6393 80.2794 72.6393C79.4869 72.6393 78.8514 72.4824 78.5336 72.1646C78.2159 71.8468 77.9766 71.3722 77.9766 70.7366ZM82.2605 89.1433C82.2605 89.7004 82.1035 90.0966 81.7858 90.2535C81.468 90.4104 80.9933 90.4928 80.3578 90.4928C79.7223 90.4928 79.2476 90.4144 78.9298 90.2535C78.6121 90.0966 78.4552 89.6965 78.4552 89.1433V75.1814C78.4552 74.6243 78.6121 74.2281 78.9298 74.0712C79.2476 73.9143 79.7223 73.8319 80.3578 73.8319C80.9933 73.8319 81.468 73.9103 81.7858 74.0712C82.1035 74.2281 82.2605 74.6282 82.2605 75.1814V89.1433Z" fill="#EB971C"/>
<path d="M86.7825 90.4922C86.147 90.4922 85.6723 90.4137 85.3546 90.2529C85.0368 90.096 84.8799 89.6958 84.8799 89.1427V78.8291C84.8799 75.42 87.6574 73.6743 93.2084 73.6743H99.6343C105.185 73.6743 107.963 75.42 107.963 78.8291V89.1427C107.963 89.6997 107.806 90.096 107.488 90.2529C107.17 90.4098 106.696 90.4922 106.06 90.4922C105.425 90.4922 104.95 90.4137 104.632 90.2529C104.314 90.096 104.157 89.6958 104.157 89.1427V78.8291C104.157 78.1936 103.761 77.7189 103.047 77.3227C102.333 76.9265 101.062 76.6872 99.4773 76.6872H93.2908C91.6235 76.6872 90.4348 76.9265 89.7209 77.3227C89.0069 77.7189 88.6107 78.276 88.6107 78.8291V89.1427C88.6107 89.6997 88.4537 90.096 88.136 90.2529C87.8182 90.4098 87.422 90.4922 86.7865 90.4922H86.7825Z" fill="#EB971C"/>
<path d="M114.228 83.7534V85.2599C114.228 85.8169 114.624 86.3701 115.338 86.7663C116.052 87.1625 117.323 87.4018 118.908 87.4018H122.321C122.796 87.4018 123.035 87.4803 123.192 87.7981C123.349 88.0374 123.349 88.4336 123.349 88.9083C123.349 89.3829 123.27 89.7792 123.192 90.0185C123.035 90.2578 122.796 90.4147 122.321 90.4147H118.829C113.278 90.4147 110.501 88.669 110.501 85.2599V78.834C110.501 75.4249 113.278 73.6792 118.829 73.6792H125.652C128.586 73.6792 130.728 74.0754 132.077 74.9502C133.427 75.8251 134.062 77.0922 134.062 78.8379V82.247C134.062 82.8041 133.984 83.2003 133.745 83.4357C133.505 83.6711 133.031 83.7534 132.317 83.7534H114.232H114.228ZM114.228 80.8151H130.253V78.8301C130.253 78.1161 129.857 77.6414 129.143 77.2452C128.429 76.849 127.24 76.6881 125.495 76.6881H118.912C117.245 76.6881 116.056 76.9274 115.342 77.3237C114.628 77.7199 114.232 78.2769 114.232 78.8301V80.8151H114.228Z" fill="#EB971C"/>
<path d="M135.881 78.2001C135.881 76.8506 136.438 75.7404 137.627 74.9479C138.816 74.1555 140.561 73.7593 142.864 73.7593H146.909C147.383 73.7593 147.623 73.8377 147.78 74.1555C147.937 74.4733 148.019 74.791 148.019 75.2657C148.019 75.7404 147.94 76.1366 147.78 76.3759C147.619 76.6152 147.305 76.7721 146.909 76.7721H142.864C141.754 76.7721 140.879 76.9291 140.404 77.1684C139.93 77.4077 139.612 77.8039 139.612 78.2786V79.071C139.612 79.5457 139.93 79.8635 140.404 80.1812C140.961 80.499 141.832 80.5774 143.021 80.5774H149.525C152.303 80.5774 154.284 80.9737 155.477 81.7661C156.669 82.5585 157.301 83.6688 157.301 85.0967V86.05C157.301 86.764 157.144 87.3995 156.826 87.9527C156.508 88.5097 156.034 88.9844 155.32 89.3806C154.684 89.7769 153.813 90.0946 152.703 90.2515C151.593 90.4085 150.404 90.5693 148.894 90.5693H136.917C136.442 90.5693 136.203 90.4908 136.046 90.1731C135.889 89.8553 135.807 89.5376 135.807 89.0629C135.807 88.5882 135.885 88.192 136.046 87.9527C136.207 87.7134 136.521 87.5564 136.917 87.5564H149.451C150.243 87.5564 150.879 87.5564 151.436 87.478C151.993 87.3995 152.389 87.3211 152.707 87.1602C153.025 86.9994 153.182 86.8425 153.342 86.6855C153.503 86.5286 153.499 86.2893 153.499 86.05V85.0183C153.499 84.779 153.421 84.5436 153.342 84.3827C153.264 84.2219 153.025 84.065 152.707 83.9081C152.389 83.7511 151.993 83.6688 151.518 83.5903C151.044 83.5118 150.408 83.5118 149.616 83.5118H143.033C140.652 83.5118 138.827 83.1156 137.639 82.3232C136.45 81.5307 135.814 80.499 135.814 79.1495L135.893 78.1962L135.881 78.2001Z" fill="#EB971C"/>
<path d="M159.203 78.2001C159.203 76.8506 159.761 75.7404 160.949 74.9479C162.138 74.1555 163.884 73.7593 166.186 73.7593H170.231C170.706 73.7593 170.945 73.8377 171.102 74.1555C171.259 74.4733 171.341 74.791 171.341 75.2657C171.341 75.7404 171.263 76.1366 171.102 76.3759C170.941 76.6152 170.627 76.7721 170.231 76.7721H166.186C165.076 76.7721 164.201 76.9291 163.727 77.1684C163.252 77.4077 162.934 77.8039 162.934 78.2786V79.071C162.934 79.5457 163.252 79.8635 163.727 80.1812C164.284 80.499 165.155 80.5774 166.343 80.5774H172.848C175.625 80.5774 177.606 80.9737 178.799 81.7661C179.991 82.5585 180.623 83.6688 180.623 85.0967V86.05C180.623 86.764 180.466 87.3995 180.148 87.9527C179.831 88.5097 179.356 88.9844 178.642 89.3806C178.006 89.7769 177.135 90.0946 176.025 90.2515C174.915 90.4085 173.726 90.5693 172.216 90.5693H160.239C159.764 90.5693 159.525 90.4908 159.368 90.1731C159.211 89.8553 159.129 89.5376 159.129 89.0629C159.129 88.5882 159.207 88.192 159.368 87.9527C159.529 87.7134 159.843 87.5564 160.239 87.5564H172.773C173.566 87.5564 174.201 87.5564 174.758 87.478C175.315 87.3995 175.711 87.3211 176.029 87.1602C176.347 86.9994 176.504 86.8425 176.665 86.6855C176.826 86.5286 176.822 86.2893 176.822 86.05V85.0183C176.822 84.779 176.743 84.5436 176.665 84.3827C176.586 84.2219 176.347 84.065 176.029 83.9081C175.711 83.7511 175.315 83.6688 174.84 83.5903C174.366 83.5118 173.73 83.5118 172.938 83.5118H166.355C163.974 83.5118 162.15 83.1156 160.961 82.3232C159.772 81.5307 159.137 80.499 159.137 79.1495L159.215 78.1962L159.203 78.2001Z" fill="#EB971C"/>
<path d="M219.97 84.3022C219.97 85.5732 219.73 86.601 219.177 87.3974C218.702 88.1898 217.988 88.8254 217.192 89.3001C216.4 89.7747 215.446 90.014 214.415 90.171C213.383 90.3279 212.273 90.4103 211.241 90.4103H194.584C193.713 90.4103 193.234 89.9356 193.234 88.9823V70.3402C193.234 69.4693 193.709 68.9907 194.584 68.9907H211.006C212.277 68.9907 213.465 69.0692 214.497 69.23C215.529 69.3869 216.482 69.7047 217.274 70.1833C218.067 70.658 218.624 71.2935 219.02 72.086C219.416 72.8784 219.656 73.9102 219.656 75.0988C219.656 76.1306 219.499 77.0839 219.099 77.7978C218.702 78.5903 217.988 79.2258 216.957 79.7005C217.828 80.0183 218.542 80.5714 219.099 81.2069C219.656 81.9994 219.97 82.9527 219.97 84.3022ZM215.921 84.3806C215.921 83.8236 215.843 83.3489 215.764 82.9527C215.686 82.5564 215.368 82.2387 215.05 81.9994C214.654 81.7601 214.179 81.6031 213.544 81.4423C212.908 81.2815 212.037 81.2854 211.084 81.2854H197.122V87.2366H211.48C212.434 87.2366 213.226 87.1581 213.779 87.0796C214.336 87.0012 214.811 86.7619 215.129 86.605C215.446 86.3657 215.686 86.1303 215.764 85.7341C215.843 85.3378 215.921 84.9416 215.921 84.3845V84.3806ZM197.201 78.0371H211.241C212.112 78.0371 212.826 78.0371 213.461 77.9587C214.018 77.8802 214.572 77.7194 214.889 77.5625C215.207 77.4055 215.525 77.0878 215.682 76.6916C215.839 76.2953 215.921 75.8207 215.921 75.1851C215.921 74.7104 215.843 74.2318 215.764 73.8356C215.686 73.4394 215.446 73.1216 215.129 72.9647C214.811 72.7254 214.336 72.5685 213.779 72.49C213.222 72.4116 212.43 72.3331 211.48 72.3331H197.279L197.201 78.045V78.0371Z" fill="#EB971C"/>
<path d="M243.846 73.5894C244.482 73.5894 244.956 73.6678 245.274 73.8287C245.592 73.9856 245.749 74.3857 245.749 74.9389V85.2524C245.749 88.6615 242.971 90.4072 237.42 90.4072H230.359C224.808 90.4072 222.03 88.6615 222.03 85.2524V74.9389C222.03 74.3818 222.187 73.9856 222.505 73.8287C222.823 73.6717 223.297 73.5894 223.933 73.5894C224.568 73.5894 225.043 73.6678 225.361 73.8287C225.679 73.9856 225.836 74.3857 225.836 74.9389V85.2524C225.836 85.8879 226.232 86.3626 226.946 86.7588C227.66 87.1551 228.931 87.3944 230.516 87.3944H237.338C239.005 87.3944 240.194 87.1551 240.908 86.7588C241.622 86.3626 242.018 85.8056 242.018 85.2524V74.9389C242.018 74.3818 242.175 73.9856 242.493 73.8287C242.81 73.6717 243.207 73.5894 243.842 73.5894H243.846Z" fill="#EB971C"/>
<path d="M247.889 70.7366C247.889 70.1011 248.046 69.6264 248.446 69.3087C248.846 68.9909 249.399 68.834 250.191 68.834C250.984 68.834 251.619 68.9909 251.937 69.3087C252.255 69.6264 252.494 70.1011 252.494 70.7366C252.494 71.3722 252.337 71.8468 251.937 72.1646C251.537 72.4824 250.984 72.6393 250.191 72.6393C249.399 72.6393 248.763 72.4824 248.446 72.1646C248.128 71.8468 247.889 71.3722 247.889 70.7366ZM252.173 89.1433C252.173 89.7004 252.016 90.0966 251.698 90.2535C251.38 90.4104 250.905 90.4928 250.27 90.4928C249.634 90.4928 249.16 90.4144 248.842 90.2535C248.524 90.0966 248.367 89.6965 248.367 89.1433V75.1814C248.367 74.6243 248.524 74.2281 248.842 74.0712C249.16 73.9143 249.634 73.8319 250.27 73.8319C250.905 73.8319 251.38 73.9103 251.698 74.0712C252.016 74.232 252.173 74.6282 252.173 75.1814V89.1433Z" fill="#EB971C"/>
<path d="M258.676 89.1454C258.676 89.7025 258.519 90.0987 258.202 90.2556C257.884 90.4125 257.409 90.4949 256.774 90.4949C256.138 90.4949 255.664 90.4165 255.346 90.2556C255.028 90.0987 254.871 89.6986 254.871 89.1454V70.2641C254.871 69.707 255.028 69.3108 255.346 69.1539C255.664 68.9969 256.138 68.9146 256.774 68.9146C257.409 68.9146 257.884 68.993 258.202 69.1539C258.519 69.3108 258.676 69.7109 258.676 70.2641V89.1454Z" fill="#EB971C"/>
<path d="M281.206 70.2641C281.206 69.707 281.363 69.3108 281.681 69.1539C281.999 68.9969 282.473 68.9146 283.109 68.9146C283.744 68.9146 284.219 68.993 284.537 69.1539C284.854 69.3108 285.011 69.7109 285.011 70.2641V85.2577C285.011 88.6668 282.234 90.4126 276.683 90.4126H269.621C264.07 90.4126 261.293 88.6668 261.293 85.2577V78.8319C261.293 75.4228 264.07 73.6771 269.621 73.6771H281.363L281.206 70.268V70.2641ZM269.625 76.6899C267.958 76.6899 266.769 76.9292 266.055 77.3254C265.342 77.7217 264.945 78.2787 264.945 78.8319V85.2577C264.945 85.8148 265.342 86.3679 266.055 86.7642C266.769 87.1604 268.041 87.3997 269.625 87.3997H276.447C278.115 87.3997 279.303 87.1604 280.017 86.7642C280.731 86.3679 281.128 85.8109 281.128 85.2577V76.6899H269.625Z" fill="#EB971C"/>
<path d="M287.158 70.7366C287.158 70.1011 287.315 69.6264 287.715 69.3087C288.115 68.9909 288.669 68.834 289.461 68.834C290.253 68.834 290.889 68.9909 291.207 69.3087C291.524 69.6264 291.764 70.1011 291.764 70.7366C291.764 71.3722 291.607 71.8468 291.207 72.1646C290.807 72.4824 290.253 72.6393 289.461 72.6393C288.669 72.6393 288.033 72.4824 287.715 72.1646C287.397 71.8468 287.158 71.3722 287.158 70.7366ZM291.36 89.1433C291.36 89.7004 291.203 90.0966 290.885 90.2535C290.567 90.4104 290.093 90.4928 289.457 90.4928C288.822 90.4928 288.347 90.4144 288.029 90.2535C287.711 90.0966 287.554 89.6965 287.554 89.1433V75.1814C287.554 74.6243 287.711 74.2281 288.029 74.0712C288.347 73.9143 288.822 73.8319 289.457 73.8319C290.093 73.8319 290.567 73.9103 290.885 74.0712C291.203 74.232 291.36 74.6282 291.36 75.1814V89.1433Z" fill="#EB971C"/>
<path d="M295.881 90.4922C295.246 90.4922 294.771 90.4137 294.453 90.2529C294.135 90.096 293.979 89.6958 293.979 89.1427V78.8291C293.979 75.42 296.756 73.6743 302.307 73.6743H308.733C314.284 73.6743 317.061 75.42 317.061 78.8291V89.1427C317.061 89.6997 316.904 90.096 316.587 90.2529C316.269 90.4098 315.794 90.4922 315.159 90.4922C314.523 90.4922 314.049 90.4137 313.731 90.2529C313.413 90.096 313.256 89.6958 313.256 89.1427V78.8291C313.256 78.1936 312.86 77.7189 312.146 77.3227C311.432 76.9265 310.161 76.6872 308.576 76.6872H302.389C300.722 76.6872 299.533 76.9265 298.819 77.3227C298.105 77.7189 297.709 78.276 297.709 78.8291V89.1427C297.709 89.6997 297.552 90.096 297.235 90.2529C296.995 90.4098 296.521 90.4922 295.885 90.4922H295.881Z" fill="#EB971C"/>
<path d="M331.342 95.254C330.867 95.254 330.628 95.0971 330.471 94.8578C330.314 94.6185 330.314 94.2223 330.314 93.7476C330.314 93.2729 330.393 92.8767 330.471 92.6374C330.55 92.3981 330.867 92.2412 331.342 92.2412H335.387C336.815 92.2412 337.846 92.0842 338.4 91.6841C338.957 91.2879 339.27 90.8132 339.27 90.0992V89.9423H327.925C322.374 89.9423 319.597 88.1966 319.597 84.7875V78.7578C319.597 75.3488 322.374 73.603 327.925 73.603H334.669C340.22 73.603 342.997 75.3488 342.997 78.7578V90.0207C342.997 91.7665 342.362 93.0336 341.012 93.83C339.741 94.7009 337.839 95.101 335.3 95.101L331.334 95.2579L331.342 95.254ZM339.353 87.0824V78.8324C339.353 78.2753 338.957 77.7222 338.243 77.3259C337.529 76.9297 336.258 76.6904 334.673 76.6904H328.168C326.501 76.6904 325.312 76.9297 324.598 77.3259C323.885 77.7222 323.488 78.2792 323.488 78.8324V84.862C323.488 85.4975 323.885 85.9722 324.598 86.3684C325.312 86.7647 326.584 87.004 328.168 87.004H339.353V87.0824Z" fill="#EB971C"/>
</g>
</g>
<g opacity="0.1">
<g clip-path="url(#clip3_2609_94819)">
<path d="M26.7313 113.718C26.7313 114.989 26.492 116.017 25.9388 116.813C25.4641 117.606 24.7502 118.241 23.9538 118.716C23.1574 119.191 22.2081 119.43 21.1763 119.587C20.1446 119.744 19.0344 119.826 18.0026 119.826H1.34951C0.478605 119.826 0 119.352 0 118.398V99.7562C0 98.8853 0.474682 98.4067 1.34951 98.4067H17.7712C19.0422 98.4067 20.2309 98.4852 21.2626 98.646C22.2944 98.803 23.2477 99.1207 24.0401 99.5993C24.8325 100.078 25.3896 100.71 25.7858 101.502C26.1821 102.294 26.4214 103.326 26.4214 104.515C26.4214 105.547 26.2644 106.5 25.8643 107.214C25.4681 108.006 24.7541 108.642 23.7223 109.117C24.5932 109.434 25.3072 109.987 25.8643 110.623C26.4998 111.415 26.7352 112.369 26.7352 113.718H26.7313ZM22.7651 113.797C22.7651 113.24 22.6867 112.765 22.6082 112.369C22.5297 111.972 22.212 111.655 21.8942 111.415C21.5765 111.176 21.0233 111.019 20.3878 110.858C19.7523 110.697 18.8814 110.701 17.9281 110.701H3.88769V116.653H18.2458C19.1991 116.653 19.9916 116.574 20.5447 116.496C21.1018 116.417 21.5765 116.178 21.8942 116.021C22.212 115.782 22.4513 115.546 22.5297 115.15C22.6082 114.754 22.7691 114.358 22.7691 113.801L22.7651 113.797ZM4.04461 107.453H18.085C18.9559 107.453 19.6699 107.453 20.3054 107.375C20.8625 107.296 21.4156 107.135 21.7334 106.978C22.0511 106.822 22.3689 106.504 22.5258 106.108C22.6827 105.711 22.7651 105.237 22.7651 104.601C22.7651 104.126 22.6867 103.648 22.6082 103.252C22.5297 102.855 22.2904 102.538 21.9727 102.381C21.6549 102.141 21.1802 101.985 20.6232 101.906C20.0661 101.828 19.2737 101.749 18.3243 101.749H4.04461V107.461V107.453Z" fill="#EB971C"/>
<path d="M50.6898 103.01C51.3253 103.01 51.8 103.088 52.1178 103.249C52.4355 103.406 52.5924 103.806 52.5924 104.359V114.673C52.5924 118.082 49.815 119.828 44.2639 119.828H37.2025C31.6515 119.828 28.874 118.082 28.874 114.673V104.359C28.874 103.802 29.0309 103.406 29.3487 103.249C29.6665 103.092 30.1411 103.01 30.7767 103.01C31.4122 103.01 31.8869 103.088 32.2046 103.249C32.5224 103.406 32.6793 103.806 32.6793 104.359V114.673C32.6793 115.308 33.0755 115.783 33.7895 116.179C34.5035 116.575 35.7746 116.815 37.3595 116.815H44.1815C45.8488 116.815 47.0375 116.575 47.7515 116.179C48.4654 115.783 48.8617 115.226 48.8617 114.673V104.359C48.8617 103.802 49.0186 103.406 49.3364 103.249C49.5757 103.092 50.0503 103.01 50.6859 103.01H50.6898Z" fill="#EB971C"/>
<path d="M54.8135 107.607C54.8135 106.258 55.3705 105.148 56.5592 104.355C57.7479 103.563 59.4936 103.167 61.7964 103.167H65.841C66.3157 103.167 66.555 103.245 66.7119 103.563C66.8688 103.88 66.9512 104.198 66.9512 104.673C66.9512 105.148 66.8728 105.544 66.7119 105.783C66.5511 106.022 66.2372 106.179 65.841 106.179H61.7964C60.6862 106.179 59.8114 106.336 59.3367 106.576C58.862 106.815 58.5442 107.211 58.5442 107.686V108.478C58.5442 108.953 58.7835 109.271 59.3367 109.588C59.8898 109.906 60.7647 109.985 61.9533 109.985H68.4576C71.2351 109.985 73.2162 110.381 74.4088 111.173C75.5975 111.966 76.233 113.076 76.233 114.504V115.457C76.233 116.171 76.0761 116.807 75.7583 117.36C75.4406 117.913 74.9659 118.392 74.2519 118.788C73.6164 119.184 72.7455 119.502 71.6353 119.659C70.5251 119.816 69.3364 119.977 67.826 119.977H55.9276C55.4529 119.977 55.2136 119.898 55.0567 119.58C54.8998 119.263 54.8174 118.945 54.8174 118.47C54.8174 117.995 54.8959 117.599 55.0567 117.36C55.2175 117.121 55.5314 116.964 55.9276 116.964H68.4616C69.254 116.964 69.8895 116.964 70.4466 116.885C71.0037 116.807 71.3999 116.728 71.7177 116.567C72.0354 116.411 72.2747 116.25 72.3532 116.093C72.5101 115.936 72.5101 115.697 72.5101 115.457V114.425C72.5101 114.186 72.4316 113.951 72.3532 113.79C72.2747 113.629 72.0354 113.472 71.7177 113.315C71.3999 113.158 71.0037 113.076 70.529 112.998C70.0543 112.919 69.4188 112.919 68.6263 112.919H62.0436C59.6623 112.919 57.8381 112.523 56.6494 111.73C55.4608 110.938 54.8252 109.906 54.8252 108.557V107.603L54.8135 107.607Z" fill="#EB971C"/>
<path d="M77.9766 100.153C77.9766 99.5171 78.1335 99.0424 78.5336 98.7247C78.9338 98.4069 79.4869 98.25 80.2794 98.25C81.0718 98.25 81.7073 98.4069 82.0251 98.7247C82.3429 99.0424 82.5822 99.5171 82.5822 100.153C82.5822 100.788 82.4252 101.263 82.0251 101.581C81.6249 101.898 81.0718 102.055 80.2794 102.055C79.4869 102.055 78.8514 101.898 78.5336 101.581C78.2159 101.263 77.9766 100.788 77.9766 100.153ZM82.2605 118.559C82.2605 119.116 82.1035 119.513 81.7858 119.67C81.468 119.826 80.9933 119.909 80.3578 119.909C79.7223 119.909 79.2476 119.83 78.9298 119.67C78.6121 119.513 78.4552 119.112 78.4552 118.559V104.597C78.4552 104.04 78.6121 103.644 78.9298 103.487C79.2476 103.33 79.7223 103.248 80.3578 103.248C80.9933 103.248 81.468 103.326 81.7858 103.487C82.1035 103.644 82.2605 104.044 82.2605 104.597V118.559Z" fill="#EB971C"/>
<path d="M86.7825 119.899C86.147 119.899 85.6723 119.821 85.3546 119.66C85.0368 119.503 84.8799 119.103 84.8799 118.55V108.236C84.8799 104.827 87.6574 103.082 93.2084 103.082H99.6343C105.185 103.082 107.963 104.827 107.963 108.236V118.55C107.963 119.107 107.806 119.503 107.488 119.66C107.17 119.817 106.696 119.899 106.06 119.899C105.425 119.899 104.95 119.821 104.632 119.66C104.314 119.503 104.157 119.103 104.157 118.55V108.236C104.157 107.601 103.761 107.126 103.047 106.73C102.333 106.334 101.062 106.094 99.4773 106.094H93.2908C91.6235 106.094 90.4348 106.334 89.7209 106.73C89.0069 107.126 88.6107 107.683 88.6107 108.236V118.55C88.6107 119.107 88.4537 119.503 88.136 119.66C87.8182 119.817 87.422 119.899 86.7865 119.899H86.7825Z" fill="#EB971C"/>
<path d="M114.228 113.16V114.667C114.228 115.224 114.624 115.777 115.338 116.173C116.052 116.569 117.323 116.809 118.908 116.809H122.321C122.796 116.809 123.035 116.887 123.192 117.205C123.349 117.444 123.349 117.84 123.349 118.315C123.349 118.79 123.27 119.186 123.192 119.425C123.035 119.665 122.796 119.821 122.321 119.821H118.829C113.278 119.821 110.501 118.076 110.501 114.667V108.241C110.501 104.832 113.278 103.086 118.829 103.086H125.652C128.586 103.086 130.728 103.482 132.077 104.357C133.427 105.232 134.062 106.499 134.062 108.245V111.654C134.062 112.211 133.984 112.607 133.745 112.842C133.505 113.078 133.031 113.16 132.317 113.16H114.232H114.228ZM114.228 110.222H130.253V108.237C130.253 107.523 129.857 107.048 129.143 106.652C128.429 106.256 127.24 106.095 125.495 106.095H118.912C117.245 106.095 116.056 106.334 115.342 106.73C114.628 107.127 114.232 107.684 114.232 108.237V110.222H114.228Z" fill="#EB971C"/>
<path d="M135.881 107.607C135.881 106.258 136.438 105.148 137.627 104.355C138.816 103.563 140.561 103.167 142.864 103.167H146.909C147.383 103.167 147.623 103.245 147.78 103.563C147.937 103.88 148.019 104.198 148.019 104.673C148.019 105.148 147.94 105.544 147.78 105.783C147.619 106.022 147.305 106.179 146.909 106.179H142.864C141.754 106.179 140.879 106.336 140.404 106.576C139.93 106.815 139.612 107.211 139.612 107.686V108.478C139.612 108.953 139.93 109.271 140.404 109.588C140.961 109.906 141.832 109.985 143.021 109.985H149.525C152.303 109.985 154.284 110.381 155.477 111.173C156.669 111.966 157.301 113.076 157.301 114.504V115.457C157.301 116.171 157.144 116.807 156.826 117.36C156.508 117.917 156.034 118.392 155.32 118.788C154.684 119.184 153.813 119.502 152.703 119.659C151.593 119.816 150.404 119.977 148.894 119.977H136.917C136.442 119.977 136.203 119.898 136.046 119.58C135.889 119.263 135.807 118.945 135.807 118.47C135.807 117.995 135.885 117.599 136.046 117.36C136.207 117.121 136.521 116.964 136.917 116.964H149.451C150.243 116.964 150.879 116.964 151.436 116.885C151.993 116.807 152.389 116.728 152.707 116.567C153.025 116.407 153.182 116.25 153.342 116.093C153.503 115.936 153.499 115.697 153.499 115.457V114.425C153.499 114.186 153.421 113.951 153.342 113.79C153.264 113.629 153.025 113.472 152.707 113.315C152.389 113.158 151.993 113.076 151.518 112.998C151.044 112.919 150.408 112.919 149.616 112.919H143.033C140.652 112.919 138.827 112.523 137.639 111.73C136.45 110.938 135.814 109.906 135.814 108.557L135.893 107.603L135.881 107.607Z" fill="#EB971C"/>
<path d="M159.203 107.607C159.203 106.258 159.761 105.148 160.949 104.355C162.138 103.563 163.884 103.167 166.186 103.167H170.231C170.706 103.167 170.945 103.245 171.102 103.563C171.259 103.88 171.341 104.198 171.341 104.673C171.341 105.148 171.263 105.544 171.102 105.783C170.941 106.022 170.627 106.179 170.231 106.179H166.186C165.076 106.179 164.201 106.336 163.727 106.576C163.252 106.815 162.934 107.211 162.934 107.686V108.478C162.934 108.953 163.252 109.271 163.727 109.588C164.284 109.906 165.155 109.985 166.343 109.985H172.848C175.625 109.985 177.606 110.381 178.799 111.173C179.991 111.966 180.623 113.076 180.623 114.504V115.457C180.623 116.171 180.466 116.807 180.148 117.36C179.831 117.917 179.356 118.392 178.642 118.788C178.006 119.184 177.135 119.502 176.025 119.659C174.915 119.816 173.726 119.977 172.216 119.977H160.239C159.764 119.977 159.525 119.898 159.368 119.58C159.211 119.263 159.129 118.945 159.129 118.47C159.129 117.995 159.207 117.599 159.368 117.36C159.529 117.121 159.843 116.964 160.239 116.964H172.773C173.566 116.964 174.201 116.964 174.758 116.885C175.315 116.807 175.711 116.728 176.029 116.567C176.347 116.407 176.504 116.25 176.665 116.093C176.826 115.936 176.822 115.697 176.822 115.457V114.425C176.822 114.186 176.743 113.951 176.665 113.79C176.586 113.629 176.347 113.472 176.029 113.315C175.711 113.158 175.315 113.076 174.84 112.998C174.366 112.919 173.73 112.919 172.938 112.919H166.355C163.974 112.919 162.15 112.523 160.961 111.73C159.772 110.938 159.137 109.906 159.137 108.557L159.215 107.603L159.203 107.607Z" fill="#EB971C"/>
<path d="M219.97 113.718C219.97 114.989 219.73 116.017 219.177 116.813C218.702 117.606 217.988 118.241 217.192 118.716C216.4 119.191 215.446 119.43 214.415 119.587C213.383 119.744 212.273 119.826 211.241 119.826H194.584C193.713 119.826 193.234 119.352 193.234 118.398V99.7562C193.234 98.8853 193.709 98.4067 194.584 98.4067H211.006C212.277 98.4067 213.465 98.4852 214.497 98.646C215.529 98.803 216.482 99.1207 217.274 99.5993C218.067 100.074 218.624 100.71 219.02 101.502C219.416 102.294 219.656 103.326 219.656 104.515C219.656 105.547 219.499 106.5 219.099 107.214C218.702 108.006 217.988 108.642 216.957 109.117C217.828 109.434 218.542 109.987 219.099 110.623C219.656 111.415 219.97 112.369 219.97 113.718ZM215.921 113.797C215.921 113.24 215.843 112.765 215.764 112.369C215.686 111.972 215.368 111.655 215.05 111.415C214.654 111.176 214.179 111.019 213.544 110.858C212.908 110.697 212.037 110.701 211.084 110.701H197.122V116.653H211.48C212.434 116.653 213.226 116.574 213.779 116.496C214.336 116.417 214.811 116.178 215.129 116.021C215.446 115.782 215.686 115.546 215.764 115.15C215.843 114.754 215.921 114.358 215.921 113.801V113.797ZM197.201 107.453H211.241C212.112 107.453 212.826 107.453 213.461 107.375C214.018 107.296 214.572 107.135 214.889 106.978C215.207 106.822 215.525 106.504 215.682 106.108C215.839 105.711 215.921 105.237 215.921 104.601C215.921 104.126 215.843 103.648 215.764 103.252C215.686 102.855 215.446 102.538 215.129 102.381C214.811 102.141 214.336 101.985 213.779 101.906C213.222 101.828 212.43 101.749 211.48 101.749H197.279L197.201 107.461V107.453Z" fill="#EB971C"/>
<path d="M243.846 103.01C244.482 103.01 244.956 103.088 245.274 103.249C245.592 103.406 245.749 103.806 245.749 104.359V114.673C245.749 118.082 242.971 119.828 237.42 119.828H230.359C224.808 119.828 222.03 118.082 222.03 114.673V104.359C222.03 103.802 222.187 103.406 222.505 103.249C222.823 103.092 223.297 103.01 223.933 103.01C224.568 103.01 225.043 103.088 225.361 103.249C225.679 103.406 225.836 103.806 225.836 104.359V114.673C225.836 115.308 226.232 115.783 226.946 116.179C227.66 116.575 228.931 116.815 230.516 116.815H237.338C239.005 116.815 240.194 116.575 240.908 116.179C241.622 115.783 242.018 115.226 242.018 114.673V104.359C242.018 103.802 242.175 103.406 242.493 103.249C242.81 103.092 243.207 103.01 243.842 103.01H243.846Z" fill="#EB971C"/>
<path d="M247.889 100.153C247.889 99.5171 248.046 99.0424 248.446 98.7247C248.846 98.4069 249.399 98.25 250.191 98.25C250.984 98.25 251.619 98.4069 251.937 98.7247C252.255 99.0424 252.494 99.5171 252.494 100.153C252.494 100.788 252.337 101.263 251.937 101.581C251.537 101.898 250.984 102.055 250.191 102.055C249.399 102.055 248.763 101.898 248.446 101.581C248.128 101.263 247.889 100.788 247.889 100.153ZM252.173 118.559C252.173 119.116 252.016 119.513 251.698 119.67C251.38 119.826 250.905 119.909 250.27 119.909C249.634 119.909 249.16 119.83 248.842 119.67C248.524 119.513 248.367 119.112 248.367 118.559V104.597C248.367 104.04 248.524 103.644 248.842 103.487C249.16 103.33 249.634 103.248 250.27 103.248C250.905 103.248 251.38 103.326 251.698 103.487C252.016 103.648 252.173 104.044 252.173 104.597V118.559Z" fill="#EB971C"/>
<path d="M258.676 118.557C258.676 119.114 258.519 119.51 258.202 119.667C257.884 119.824 257.409 119.907 256.774 119.907C256.138 119.907 255.664 119.828 255.346 119.667C255.028 119.51 254.871 119.11 254.871 118.557V99.6757C254.871 99.1186 255.028 98.7224 255.346 98.5655C255.664 98.4086 256.138 98.3262 256.774 98.3262C257.409 98.3262 257.884 98.4046 258.202 98.5655C258.519 98.7224 258.676 99.1225 258.676 99.6757V118.557Z" fill="#EB971C"/>
<path d="M281.206 99.6757C281.206 99.1186 281.363 98.7224 281.681 98.5655C281.999 98.4086 282.473 98.3262 283.109 98.3262C283.744 98.3262 284.219 98.4046 284.537 98.5655C284.854 98.7224 285.011 99.1225 285.011 99.6757V114.669C285.011 118.078 282.234 119.824 276.683 119.824H269.621C264.07 119.824 261.293 118.078 261.293 114.669V108.243C261.293 104.834 264.07 103.089 269.621 103.089H281.363L281.206 99.6796V99.6757ZM269.625 106.102C267.958 106.102 266.769 106.341 266.055 106.737C265.342 107.133 264.945 107.69 264.945 108.243V114.669C264.945 115.226 265.342 115.78 266.055 116.176C266.769 116.572 268.041 116.811 269.625 116.811H276.447C278.115 116.811 279.303 116.572 280.017 116.176C280.731 115.78 281.128 115.223 281.128 114.669V106.102H269.625Z" fill="#EB971C"/>
<path d="M287.158 100.153C287.158 99.5171 287.315 99.0424 287.715 98.7247C288.115 98.4069 288.669 98.25 289.461 98.25C290.253 98.25 290.889 98.4069 291.207 98.7247C291.524 99.0424 291.764 99.5171 291.764 100.153C291.764 100.788 291.607 101.263 291.207 101.581C290.807 101.898 290.253 102.055 289.461 102.055C288.669 102.055 288.033 101.898 287.715 101.581C287.397 101.263 287.158 100.788 287.158 100.153ZM291.36 118.559C291.36 119.116 291.203 119.513 290.885 119.67C290.567 119.826 290.093 119.909 289.457 119.909C288.822 119.909 288.347 119.83 288.029 119.67C287.711 119.513 287.554 119.112 287.554 118.559V104.597C287.554 104.04 287.711 103.644 288.029 103.487C288.347 103.33 288.822 103.248 289.457 103.248C290.093 103.248 290.567 103.326 290.885 103.487C291.203 103.648 291.36 104.044 291.36 104.597V118.559Z" fill="#EB971C"/>
<path d="M295.881 119.899C295.246 119.899 294.771 119.821 294.453 119.66C294.135 119.503 293.979 119.103 293.979 118.55V108.236C293.979 104.827 296.756 103.082 302.307 103.082H308.733C314.284 103.082 317.061 104.827 317.061 108.236V118.55C317.061 119.107 316.904 119.503 316.587 119.66C316.269 119.817 315.794 119.899 315.159 119.899C314.523 119.899 314.049 119.821 313.731 119.66C313.413 119.503 313.256 119.103 313.256 118.55V108.236C313.256 107.601 312.86 107.126 312.146 106.73C311.432 106.334 310.161 106.094 308.576 106.094H302.389C300.722 106.094 299.533 106.334 298.819 106.73C298.105 107.126 297.709 107.683 297.709 108.236V118.55C297.709 119.107 297.552 119.503 297.235 119.66C296.995 119.817 296.521 119.899 295.885 119.899H295.881Z" fill="#EB971C"/>
<path d="M331.342 124.67C330.867 124.67 330.628 124.513 330.471 124.274C330.314 124.035 330.314 123.638 330.314 123.164C330.314 122.689 330.393 122.293 330.471 122.053C330.55 121.814 330.867 121.657 331.342 121.657H335.387C336.815 121.657 337.846 121.5 338.4 121.1C338.957 120.704 339.27 120.229 339.27 119.515V119.358H327.925C322.374 119.358 319.597 117.613 319.597 114.203V108.174C319.597 104.765 322.374 103.019 327.925 103.019H334.669C340.22 103.019 342.997 104.765 342.997 108.174V119.437C342.997 121.182 342.362 122.45 341.012 123.246C339.741 124.117 337.839 124.517 335.3 124.517L331.334 124.674L331.342 124.67ZM339.353 116.498V108.248C339.353 107.691 338.957 107.138 338.243 106.742C337.529 106.346 336.258 106.106 334.673 106.106H328.168C326.501 106.106 325.312 106.346 324.598 106.742C323.885 107.138 323.488 107.695 323.488 108.248V114.278C323.488 114.914 323.885 115.388 324.598 115.784C325.312 116.181 326.584 116.42 328.168 116.42H339.353V116.498Z" fill="#EB971C"/>
</g>
<g clip-path="url(#clip4_2609_94819)">
<path d="M26.7313 148.14C26.7313 149.411 26.492 150.438 25.9388 151.235C25.4641 152.027 24.7502 152.663 23.9538 153.137C23.1574 153.612 22.2081 153.851 21.1763 154.008C20.1446 154.165 19.0344 154.248 18.0026 154.248H1.34951C0.478605 154.248 0 153.773 0 152.82V134.178C0 133.307 0.474682 132.828 1.34951 132.828H17.7712C19.0422 132.828 20.2309 132.907 21.2626 133.067C22.2944 133.224 23.2477 133.542 24.0401 134.021C24.8325 134.499 25.3896 135.131 25.7858 135.923C26.1821 136.716 26.4214 137.748 26.4214 138.936C26.4214 139.968 26.2644 140.921 25.8643 141.635C25.4681 142.428 24.7541 143.063 23.7223 143.538C24.5932 143.856 25.3072 144.409 25.8643 145.044C26.4998 145.837 26.7352 146.79 26.7352 148.14H26.7313ZM22.7651 148.218C22.7651 147.661 22.6867 147.186 22.6082 146.79C22.5297 146.394 22.212 146.076 21.8942 145.837C21.5765 145.597 21.0233 145.441 20.3878 145.28C19.7523 145.119 18.8814 145.123 17.9281 145.123H3.88769V151.074H18.2458C19.1991 151.074 19.9916 150.996 20.5447 150.917C21.1018 150.839 21.5765 150.599 21.8942 150.442C22.212 150.203 22.4513 149.968 22.5297 149.571C22.6082 149.175 22.7691 148.779 22.7691 148.222L22.7651 148.218ZM4.04461 141.875H18.085C18.9559 141.875 19.6699 141.875 20.3054 141.796C20.8625 141.718 21.4156 141.557 21.7334 141.4C22.0511 141.243 22.3689 140.925 22.5258 140.529C22.6827 140.133 22.7651 139.658 22.7651 139.023C22.7651 138.548 22.6867 138.069 22.6082 137.673C22.5297 137.277 22.2904 136.959 21.9727 136.802C21.6549 136.563 21.1802 136.406 20.6232 136.327C20.0661 136.249 19.2737 136.171 18.3243 136.171H4.04461V141.882V141.875Z" fill="#EB971C"/>
<path d="M50.6898 137.427C51.3253 137.427 51.8 137.505 52.1178 137.666C52.4355 137.823 52.5924 138.223 52.5924 138.776V149.09C52.5924 152.499 49.815 154.245 44.2639 154.245H37.2025C31.6515 154.245 28.874 152.499 28.874 149.09V138.776C28.874 138.219 29.0309 137.823 29.3487 137.666C29.6665 137.509 30.1411 137.427 30.7767 137.427C31.4122 137.427 31.8869 137.505 32.2046 137.666C32.5224 137.823 32.6793 138.223 32.6793 138.776V149.09C32.6793 149.725 33.0755 150.2 33.7895 150.596C34.5035 150.992 35.7746 151.232 37.3595 151.232H44.1815C45.8488 151.232 47.0375 150.992 47.7515 150.596C48.4654 150.2 48.8617 149.643 48.8617 149.09V138.776C48.8617 138.219 49.0186 137.823 49.3364 137.666C49.5757 137.509 50.0503 137.427 50.6859 137.427H50.6898Z" fill="#EB971C"/>
<path d="M54.8135 142.024C54.8135 140.675 55.3705 139.565 56.5592 138.772C57.7479 137.98 59.4936 137.583 61.7964 137.583H65.841C66.3157 137.583 66.555 137.662 66.7119 137.98C66.8688 138.297 66.9512 138.615 66.9512 139.09C66.9512 139.565 66.8728 139.961 66.7119 140.2C66.5511 140.439 66.2372 140.596 65.841 140.596H61.7964C60.6862 140.596 59.8114 140.753 59.3367 140.993C58.862 141.232 58.5442 141.628 58.5442 142.103V142.895C58.5442 143.37 58.7835 143.688 59.3367 144.005C59.8898 144.323 60.7647 144.402 61.9533 144.402H68.4576C71.2351 144.402 73.2162 144.798 74.4088 145.59C75.5975 146.383 76.233 147.493 76.233 148.921V149.874C76.233 150.588 76.0761 151.224 75.7583 151.777C75.4406 152.33 74.9659 152.809 74.2519 153.205C73.6164 153.601 72.7455 153.919 71.6353 154.076C70.5251 154.233 69.3364 154.394 67.826 154.394H55.9276C55.4529 154.394 55.2136 154.315 55.0567 153.997C54.8998 153.68 54.8174 153.362 54.8174 152.887C54.8174 152.412 54.8959 152.016 55.0567 151.777C55.2175 151.538 55.5314 151.381 55.9276 151.381H68.4616C69.254 151.381 69.8895 151.381 70.4466 151.302C71.0037 151.224 71.3999 151.145 71.7177 150.984C72.0354 150.828 72.2747 150.667 72.3532 150.51C72.5101 150.353 72.5101 150.114 72.5101 149.874V148.842C72.5101 148.603 72.4316 148.368 72.3532 148.207C72.2747 148.046 72.0354 147.889 71.7177 147.732C71.3999 147.575 71.0037 147.493 70.529 147.415C70.0543 147.336 69.4188 147.336 68.6263 147.336H62.0436C59.6623 147.336 57.8381 146.94 56.6494 146.147C55.4608 145.355 54.8252 144.323 54.8252 142.974V142.02L54.8135 142.024Z" fill="#EB971C"/>
<path d="M77.9766 134.57C77.9766 133.934 78.1335 133.459 78.5336 133.142C78.9338 132.824 79.4869 132.667 80.2794 132.667C81.0718 132.667 81.7073 132.824 82.0251 133.142C82.3429 133.459 82.5822 133.934 82.5822 134.57C82.5822 135.205 82.4252 135.68 82.0251 135.998C81.6249 136.315 81.0718 136.472 80.2794 136.472C79.4869 136.472 78.8514 136.315 78.5336 135.998C78.2159 135.68 77.9766 135.205 77.9766 134.57ZM82.2605 152.976C82.2605 153.533 82.1035 153.93 81.7858 154.087C81.468 154.243 80.9933 154.326 80.3578 154.326C79.7223 154.326 79.2476 154.247 78.9298 154.087C78.6121 153.93 78.4552 153.529 78.4552 152.976V139.014C78.4552 138.457 78.6121 138.061 78.9298 137.904C79.2476 137.747 79.7223 137.665 80.3578 137.665C80.9933 137.665 81.468 137.743 81.7858 137.904C82.1035 138.061 82.2605 138.461 82.2605 139.014V152.976Z" fill="#EB971C"/>
<path d="M86.7825 154.321C86.147 154.321 85.6723 154.242 85.3546 154.081C85.0368 153.925 84.8799 153.524 84.8799 152.971V142.658C84.8799 139.249 87.6574 137.503 93.2084 137.503H99.6343C105.185 137.503 107.963 139.249 107.963 142.658V152.971C107.963 153.528 107.806 153.925 107.488 154.081C107.17 154.238 106.696 154.321 106.06 154.321C105.425 154.321 104.95 154.242 104.632 154.081C104.314 153.925 104.157 153.524 104.157 152.971V142.658C104.157 142.022 103.761 141.548 103.047 141.151C102.333 140.755 101.062 140.516 99.4773 140.516H93.2908C91.6235 140.516 90.4348 140.755 89.7209 141.151C89.0069 141.548 88.6107 142.105 88.6107 142.658V152.971C88.6107 153.528 88.4537 153.925 88.136 154.081C87.8182 154.238 87.422 154.321 86.7865 154.321H86.7825Z" fill="#EB971C"/>
<path d="M114.228 147.582V149.088C114.228 149.645 114.624 150.198 115.338 150.594C116.052 150.991 117.323 151.23 118.908 151.23H122.321C122.796 151.23 123.035 151.308 123.192 151.626C123.349 151.865 123.349 152.262 123.349 152.736C123.349 153.211 123.27 153.607 123.192 153.847C123.035 154.086 122.796 154.243 122.321 154.243H118.829C113.278 154.243 110.501 152.497 110.501 149.088V142.662C110.501 139.253 113.278 137.507 118.829 137.507H125.652C128.586 137.507 130.728 137.904 132.077 138.778C133.427 139.653 134.062 140.92 134.062 142.666V146.075C134.062 146.632 133.984 147.028 133.745 147.264C133.505 147.499 133.031 147.582 132.317 147.582H114.232H114.228ZM114.228 144.643H130.253V142.658C130.253 141.944 129.857 141.47 129.143 141.073C128.429 140.677 127.24 140.516 125.495 140.516H118.912C117.245 140.516 116.056 140.756 115.342 141.152C114.628 141.548 114.232 142.105 114.232 142.658V144.643H114.228Z" fill="#EB971C"/>
<path d="M135.881 142.024C135.881 140.675 136.438 139.565 137.627 138.772C138.816 137.98 140.561 137.583 142.864 137.583H146.909C147.383 137.583 147.623 137.662 147.78 137.98C147.937 138.297 148.019 138.615 148.019 139.09C148.019 139.565 147.94 139.961 147.78 140.2C147.619 140.439 147.305 140.596 146.909 140.596H142.864C141.754 140.596 140.879 140.753 140.404 140.993C139.93 141.232 139.612 141.628 139.612 142.103V142.895C139.612 143.37 139.93 143.688 140.404 144.005C140.961 144.323 141.832 144.402 143.021 144.402H149.525C152.303 144.402 154.284 144.798 155.477 145.59C156.669 146.383 157.301 147.493 157.301 148.921V149.874C157.301 150.588 157.144 151.224 156.826 151.777C156.508 152.334 156.034 152.809 155.32 153.205C154.684 153.601 153.813 153.919 152.703 154.076C151.593 154.233 150.404 154.394 148.894 154.394H136.917C136.442 154.394 136.203 154.315 136.046 153.997C135.889 153.68 135.807 153.362 135.807 152.887C135.807 152.412 135.885 152.016 136.046 151.777C136.207 151.538 136.521 151.381 136.917 151.381H149.451C150.243 151.381 150.879 151.381 151.436 151.302C151.993 151.224 152.389 151.145 152.707 150.984C153.025 150.824 153.182 150.667 153.342 150.51C153.503 150.353 153.499 150.114 153.499 149.874V148.842C153.499 148.603 153.421 148.368 153.342 148.207C153.264 148.046 153.025 147.889 152.707 147.732C152.389 147.575 151.993 147.493 151.518 147.415C151.044 147.336 150.408 147.336 149.616 147.336H143.033C140.652 147.336 138.827 146.94 137.639 146.147C136.45 145.355 135.814 144.323 135.814 142.974L135.893 142.02L135.881 142.024Z" fill="#EB971C"/>
<path d="M159.203 142.024C159.203 140.675 159.761 139.565 160.949 138.772C162.138 137.98 163.884 137.583 166.186 137.583H170.231C170.706 137.583 170.945 137.662 171.102 137.98C171.259 138.297 171.341 138.615 171.341 139.09C171.341 139.565 171.263 139.961 171.102 140.2C170.941 140.439 170.627 140.596 170.231 140.596H166.186C165.076 140.596 164.201 140.753 163.727 140.993C163.252 141.232 162.934 141.628 162.934 142.103V142.895C162.934 143.37 163.252 143.688 163.727 144.005C164.284 144.323 165.155 144.402 166.343 144.402H172.848C175.625 144.402 177.606 144.798 178.799 145.59C179.991 146.383 180.623 147.493 180.623 148.921V149.874C180.623 150.588 180.466 151.224 180.148 151.777C179.831 152.334 179.356 152.809 178.642 153.205C178.006 153.601 177.135 153.919 176.025 154.076C174.915 154.233 173.726 154.394 172.216 154.394H160.239C159.764 154.394 159.525 154.315 159.368 153.997C159.211 153.68 159.129 153.362 159.129 152.887C159.129 152.412 159.207 152.016 159.368 151.777C159.529 151.538 159.843 151.381 160.239 151.381H172.773C173.566 151.381 174.201 151.381 174.758 151.302C175.315 151.224 175.711 151.145 176.029 150.984C176.347 150.824 176.504 150.667 176.665 150.51C176.826 150.353 176.822 150.114 176.822 149.874V148.842C176.822 148.603 176.743 148.368 176.665 148.207C176.586 148.046 176.347 147.889 176.029 147.732C175.711 147.575 175.315 147.493 174.84 147.415C174.366 147.336 173.73 147.336 172.938 147.336H166.355C163.974 147.336 162.15 146.94 160.961 146.147C159.772 145.355 159.137 144.323 159.137 142.974L159.215 142.02L159.203 142.024Z" fill="#EB971C"/>
<path d="M219.97 148.14C219.97 149.411 219.73 150.438 219.177 151.235C218.702 152.027 217.988 152.663 217.192 153.137C216.4 153.612 215.446 153.851 214.415 154.008C213.383 154.165 212.273 154.248 211.241 154.248H194.584C193.713 154.248 193.234 153.773 193.234 152.82V134.178C193.234 133.307 193.709 132.828 194.584 132.828H211.006C212.277 132.828 213.465 132.907 214.497 133.067C215.529 133.224 216.482 133.542 217.274 134.021C218.067 134.495 218.624 135.131 219.02 135.923C219.416 136.716 219.656 137.748 219.656 138.936C219.656 139.968 219.499 140.921 219.099 141.635C218.702 142.428 217.988 143.063 216.957 143.538C217.828 143.856 218.542 144.409 219.099 145.044C219.656 145.837 219.97 146.79 219.97 148.14ZM215.921 148.218C215.921 147.661 215.843 147.186 215.764 146.79C215.686 146.394 215.368 146.076 215.05 145.837C214.654 145.597 214.179 145.441 213.544 145.28C212.908 145.119 212.037 145.123 211.084 145.123H197.122V151.074H211.48C212.434 151.074 213.226 150.996 213.779 150.917C214.336 150.839 214.811 150.599 215.129 150.442C215.446 150.203 215.686 149.968 215.764 149.571C215.843 149.175 215.921 148.779 215.921 148.222V148.218ZM197.201 141.875H211.241C212.112 141.875 212.826 141.875 213.461 141.796C214.018 141.718 214.572 141.557 214.889 141.4C215.207 141.243 215.525 140.925 215.682 140.529C215.839 140.133 215.921 139.658 215.921 139.023C215.921 138.548 215.843 138.069 215.764 137.673C215.686 137.277 215.446 136.959 215.129 136.802C214.811 136.563 214.336 136.406 213.779 136.327C213.222 136.249 212.43 136.171 211.48 136.171H197.279L197.201 141.882V141.875Z" fill="#EB971C"/>
<path d="M243.846 137.427C244.482 137.427 244.956 137.505 245.274 137.666C245.592 137.823 245.749 138.223 245.749 138.776V149.09C245.749 152.499 242.971 154.245 237.42 154.245H230.359C224.808 154.245 222.03 152.499 222.03 149.09V138.776C222.03 138.219 222.187 137.823 222.505 137.666C222.823 137.509 223.297 137.427 223.933 137.427C224.568 137.427 225.043 137.505 225.361 137.666C225.679 137.823 225.836 138.223 225.836 138.776V149.09C225.836 149.725 226.232 150.2 226.946 150.596C227.66 150.992 228.931 151.232 230.516 151.232H237.338C239.005 151.232 240.194 150.992 240.908 150.596C241.622 150.2 242.018 149.643 242.018 149.09V138.776C242.018 138.219 242.175 137.823 242.493 137.666C242.81 137.509 243.207 137.427 243.842 137.427H243.846Z" fill="#EB971C"/>
<path d="M247.889 134.57C247.889 133.934 248.046 133.459 248.446 133.142C248.846 132.824 249.399 132.667 250.191 132.667C250.984 132.667 251.619 132.824 251.937 133.142C252.255 133.459 252.494 133.934 252.494 134.57C252.494 135.205 252.337 135.68 251.937 135.998C251.537 136.315 250.984 136.472 250.191 136.472C249.399 136.472 248.763 136.315 248.446 135.998C248.128 135.68 247.889 135.205 247.889 134.57ZM252.173 152.976C252.173 153.533 252.016 153.93 251.698 154.087C251.38 154.243 250.905 154.326 250.27 154.326C249.634 154.326 249.16 154.247 248.842 154.087C248.524 153.93 248.367 153.529 248.367 152.976V139.014C248.367 138.457 248.524 138.061 248.842 137.904C249.16 137.747 249.634 137.665 250.27 137.665C250.905 137.665 251.38 137.743 251.698 137.904C252.016 138.065 252.173 138.461 252.173 139.014V152.976Z" fill="#EB971C"/>
<path d="M258.676 152.974C258.676 153.531 258.519 153.927 258.202 154.084C257.884 154.241 257.409 154.324 256.774 154.324C256.138 154.324 255.664 154.245 255.346 154.084C255.028 153.927 254.871 153.527 254.871 152.974V134.093C254.871 133.536 255.028 133.139 255.346 132.982C255.664 132.826 256.138 132.743 256.774 132.743C257.409 132.743 257.884 132.822 258.202 132.982C258.519 133.139 258.676 133.54 258.676 134.093V152.974Z" fill="#EB971C"/>
<path d="M281.206 134.093C281.206 133.536 281.363 133.139 281.681 132.982C281.999 132.826 282.473 132.743 283.109 132.743C283.744 132.743 284.219 132.822 284.537 132.982C284.854 133.139 285.011 133.54 285.011 134.093V149.086C285.011 152.495 282.234 154.241 276.683 154.241H269.621C264.07 154.241 261.293 152.495 261.293 149.086V142.66C261.293 139.251 264.07 137.506 269.621 137.506H281.363L281.206 134.097V134.093ZM269.625 140.519C267.958 140.519 266.769 140.758 266.055 141.154C265.342 141.55 264.945 142.107 264.945 142.66V149.086C264.945 149.643 265.342 150.197 266.055 150.593C266.769 150.989 268.041 151.228 269.625 151.228H276.447C278.115 151.228 279.303 150.989 280.017 150.593C280.731 150.197 281.128 149.639 281.128 149.086V140.519H269.625Z" fill="#EB971C"/>
<path d="M287.158 134.57C287.158 133.934 287.315 133.459 287.715 133.142C288.115 132.824 288.669 132.667 289.461 132.667C290.253 132.667 290.889 132.824 291.207 133.142C291.524 133.459 291.764 133.934 291.764 134.57C291.764 135.205 291.607 135.68 291.207 135.998C290.807 136.315 290.253 136.472 289.461 136.472C288.669 136.472 288.033 136.315 287.715 135.998C287.397 135.68 287.158 135.205 287.158 134.57ZM291.36 152.976C291.36 153.533 291.203 153.93 290.885 154.087C290.567 154.243 290.093 154.326 289.457 154.326C288.822 154.326 288.347 154.247 288.029 154.087C287.711 153.93 287.554 153.529 287.554 152.976V139.014C287.554 138.457 287.711 138.061 288.029 137.904C288.347 137.747 288.822 137.665 289.457 137.665C290.093 137.665 290.567 137.743 290.885 137.904C291.203 138.065 291.36 138.461 291.36 139.014V152.976Z" fill="#EB971C"/>
<path d="M295.881 154.321C295.246 154.321 294.771 154.242 294.453 154.081C294.135 153.925 293.979 153.524 293.979 152.971V142.658C293.979 139.249 296.756 137.503 302.307 137.503H308.733C314.284 137.503 317.061 139.249 317.061 142.658V152.971C317.061 153.528 316.904 153.925 316.587 154.081C316.269 154.238 315.794 154.321 315.159 154.321C314.523 154.321 314.049 154.242 313.731 154.081C313.413 153.925 313.256 153.524 313.256 152.971V142.658C313.256 142.022 312.86 141.548 312.146 141.151C311.432 140.755 310.161 140.516 308.576 140.516H302.389C300.722 140.516 299.533 140.755 298.819 141.151C298.105 141.548 297.709 142.105 297.709 142.658V152.971C297.709 153.528 297.552 153.925 297.235 154.081C296.995 154.238 296.521 154.321 295.885 154.321H295.881Z" fill="#EB971C"/>
<path d="M331.342 159.087C330.867 159.087 330.628 158.93 330.471 158.691C330.314 158.452 330.314 158.055 330.314 157.581C330.314 157.106 330.393 156.71 330.471 156.47C330.55 156.231 330.867 156.074 331.342 156.074H335.387C336.815 156.074 337.846 155.917 338.4 155.517C338.957 155.121 339.27 154.646 339.27 153.932V153.775H327.925C322.374 153.775 319.597 152.03 319.597 148.62V142.591C319.597 139.182 322.374 137.436 327.925 137.436H334.669C340.22 137.436 342.997 139.182 342.997 142.591V153.854C342.997 155.599 342.362 156.867 341.012 157.663C339.741 158.534 337.839 158.934 335.3 158.934L331.334 159.091L331.342 159.087ZM339.353 150.915V142.665C339.353 142.108 338.957 141.555 338.243 141.159C337.529 140.763 336.258 140.523 334.673 140.523H328.168C326.501 140.523 325.312 140.763 324.598 141.159C323.885 141.555 323.488 142.112 323.488 142.665V148.695C323.488 149.331 323.885 149.805 324.598 150.201C325.312 150.598 326.584 150.837 328.168 150.837H339.353V150.915Z" fill="#EB971C"/>
</g>
</g>
<defs>
<clipPath id="clip0_2609_94819">
<rect width="343" height="26.4169" fill="white"/>
</clipPath>
<clipPath id="clip1_2609_94819">
<rect width="343" height="26.4169" fill="white" transform="translate(0 34.417)"/>
</clipPath>
<clipPath id="clip2_2609_94819">
<rect width="343" height="26.4169" fill="white" transform="translate(0 68.834)"/>
</clipPath>
<clipPath id="clip3_2609_94819">
<rect width="343" height="26.4169" fill="white" transform="translate(0 98.25)"/>
</clipPath>
<clipPath id="clip4_2609_94819">
<rect width="343" height="26.4169" fill="white" transform="translate(0 132.667)"/>
</clipPath>
</defs>
</svg>
