<svg width="33" height="16" viewBox="0 0 33 16" fill="none" xmlns="http://www.w3.org/2000/svg">
<g clip-path="url(#clip0_3036_5391)">
<path d="M16.1472 10.4182C16.2095 11.131 16.1267 11.7205 15.8546 12.1939C15.6268 12.6617 15.2564 13.0541 14.8352 13.3597C14.414 13.6653 13.8907 13.8454 13.3206 13.9849C12.7489 14.1245 12.1304 14.2234 11.551 14.2741L2.20337 15.0919C1.7144 15.1347 1.42277 14.8914 1.37596 14.3564L0.460784 3.89594C0.417865 3.40538 0.661243 3.11534 1.1518 3.07242L10.3661 2.26628C11.0789 2.20391 11.7495 2.19003 12.3368 2.22824C12.924 2.26644 13.473 2.39758 13.9408 2.62541C14.4087 2.85323 14.7527 3.18307 15.0139 3.60814C15.275 4.03321 15.4591 4.60101 15.5174 5.26779C15.5681 5.84725 15.5259 6.38845 15.3386 6.80796C15.1552 7.27193 14.7848 7.66427 14.2303 7.98154C14.7348 8.11657 15.1637 8.39259 15.5061 8.72257C15.9006 9.13598 16.0808 9.65932 16.147 10.4166L16.1472 10.4182ZM13.9253 10.6574C13.8981 10.3462 13.8301 10.0818 13.7662 9.86342C13.7023 9.64505 13.509 9.4828 13.3195 9.365C13.13 9.2472 12.8111 9.18552 12.4461 9.12786C12.0827 9.07007 11.5921 9.11299 11.0587 9.15966L3.17962 9.84899L3.47172 13.1876L11.5286 12.4828C12.0621 12.4361 12.5043 12.3526 12.8115 12.2809C13.1188 12.2093 13.3755 12.0524 13.5455 11.948C13.7116 11.7991 13.8333 11.654 13.8583 11.4279C13.8833 11.2017 13.9528 10.9717 13.9254 10.6589L13.9253 10.6574ZM3.10866 8.01392L10.9878 7.32459C11.4767 7.28181 11.8784 7.24667 12.2301 7.17111C12.5374 7.09943 12.8424 6.98316 13.0124 6.8787C13.1824 6.77424 13.3447 6.58088 13.4141 6.35084C13.4836 6.12081 13.5047 5.85021 13.4735 5.493C13.4501 5.22629 13.3823 4.96347 13.3183 4.74351C13.2544 4.52514 13.1055 4.359 12.9199 4.28565C12.7304 4.16785 12.4559 4.10228 12.1393 4.08519C11.8243 4.06796 11.3743 4.06254 10.8408 4.10921L2.82837 4.81021L3.1088 8.01551L3.10866 8.01392Z" fill="#F99F1B"/>
<path d="M32.5202 8.98556C32.5826 9.69838 32.4998 10.2879 32.2276 10.7613C31.9998 11.2291 31.6294 11.6215 31.2082 11.9271C30.787 12.2327 30.2637 12.4128 29.6936 12.5523C29.1219 12.6919 28.5035 12.7908 27.924 12.8415L18.5764 13.6593C18.0874 13.7021 17.7958 13.4588 17.749 12.9238L16.8338 2.46332C16.7911 1.97435 17.0343 1.68272 17.5248 1.6398L26.7391 0.83366C27.4519 0.771296 28.1226 0.757413 28.7098 0.79562C29.2971 0.833828 29.846 0.964967 30.3139 1.19279C30.7817 1.42061 31.1258 1.75045 31.3869 2.17552C31.6481 2.6006 31.8321 3.16839 31.8904 3.83517C31.9411 4.41463 31.8989 4.95584 31.7116 5.37535C31.5283 5.83931 31.1579 6.23166 30.6033 6.54892C31.1079 6.68395 31.5367 6.95998 31.8791 7.28996C32.2737 7.70336 32.4538 8.22671 32.5201 8.98398L32.5202 8.98556ZM30.2983 9.22475C30.2711 8.91358 30.2032 8.64917 30.1393 8.4308C30.0754 8.21243 29.882 8.05018 29.6925 7.93238C29.5031 7.81458 29.1841 7.7529 28.8191 7.69525C28.4558 7.63745 27.9652 7.68037 27.4318 7.72704L19.5527 8.41637L19.8448 11.755L27.9017 11.0501C28.4351 11.0035 28.8773 10.92 29.1846 10.8483C29.4919 10.7766 29.7485 10.6198 29.9185 10.5154C30.0847 10.3664 30.2064 10.2214 30.2314 9.99527C30.2564 9.76912 30.3258 9.53908 30.2985 9.22633L30.2983 9.22475ZM19.4817 6.5813L27.3608 5.89197C27.8498 5.84919 28.2514 5.81405 28.6032 5.73849C28.9104 5.66681 29.2154 5.55055 29.3854 5.44609C29.5555 5.34163 29.7177 5.14826 29.7872 4.91823C29.8566 4.68819 29.8778 4.41759 29.8465 4.06038C29.8232 3.79367 29.7554 3.53085 29.6913 3.31089C29.6275 3.09252 29.4785 2.92638 29.293 2.85303C29.1035 2.73523 28.829 2.66966 28.5123 2.65258C28.1973 2.63535 27.7473 2.62992 27.2139 2.67659L19.2014 3.37759L19.4818 6.58289L19.4817 6.5813Z" fill="#F99F1B"/>
</g>
<defs>
<clipPath id="clip0_3036_5391">
<rect width="31.4934" height="12.0654" fill="white" transform="translate(0.394531 3.13867) rotate(-5)"/>
</clipPath>
</defs>
</svg>
