<svg width="617" height="86" viewBox="0 0 617 86" fill="none" xmlns="http://www.w3.org/2000/svg">
<path d="M103.701 60.7237C103.701 65.689 102.775 69.7042 100.634 72.8152C98.7962 75.9108 96.0326 78.3935 92.9501 80.2478C89.8828 82.1021 86.1929 83.037 82.1993 83.65C78.2057 84.263 73.9084 84.5848 69.9148 84.5848H5.44035C2.06934 84.5848 0.216797 82.7305 0.216797 79.0065V6.18196C0.216797 2.77981 2.05416 0.910156 5.44035 0.910156H69.0037C73.9236 0.910156 78.5246 1.21666 82.5182 1.84498C86.5118 2.45798 90.2016 3.69931 93.2689 5.56896C96.3363 7.42329 98.4925 9.90595 100.026 13.0016C101.56 16.0973 102.486 20.1277 102.486 24.7712C102.486 28.8017 101.879 32.5257 100.33 35.3148C98.7962 38.4105 96.0326 40.8932 92.039 42.7475C95.41 43.9888 98.1737 46.1496 100.33 48.6323C102.486 51.7279 103.701 55.4519 103.701 60.7237ZM88.0302 61.0302C88.0302 58.8541 87.7265 56.9997 87.4229 55.4519C87.1192 53.9041 85.8892 52.6628 84.6592 51.7279C83.1256 50.7931 81.2882 50.1801 78.8282 49.5518C76.3683 48.9235 72.9974 48.9388 69.3075 48.9388H15.2649V72.1868H70.8411C74.531 72.1868 77.5983 71.8803 79.7394 71.5738C81.8956 71.2673 83.733 70.3325 84.9629 69.7195C86.1929 68.7847 87.1192 67.8652 87.4229 66.3174C87.7265 64.7695 88.0302 63.2217 88.0302 61.0456V61.0302ZM15.5686 36.2497H69.9148C73.2858 36.2497 76.0495 36.2497 78.5094 35.9432C80.6656 35.6367 82.8067 35.0083 84.0367 34.3953C85.2666 33.7823 86.4966 32.541 87.1039 30.9932C87.7113 29.4454 88.0302 27.591 88.0302 25.1084C88.0302 23.254 87.7265 21.3844 87.4229 19.8366C87.1192 18.2887 86.1929 17.0474 84.9629 16.4344C83.733 15.4996 81.8956 14.8866 79.7394 14.5801C77.5831 14.2736 74.5158 13.9671 70.8411 13.9671H15.8723L15.5686 36.2803V36.2497Z" fill="#D0D1D4"/>
<path d="M202.312 9.89746C204.772 9.89746 206.609 10.204 207.839 10.8323C209.069 11.4453 209.676 13.0084 209.676 15.1693V55.4588C209.676 68.7762 198.925 75.5958 177.439 75.5958H150.106C128.62 75.5958 117.869 68.7762 117.869 55.4588V15.1693C117.869 12.9931 118.477 11.4453 119.707 10.8323C120.936 10.2193 122.774 9.89746 125.234 9.89746C127.694 9.89746 129.531 10.204 130.761 10.8323C131.991 11.4453 132.598 13.0084 132.598 15.1693V55.4588C132.598 57.9414 134.132 59.7957 136.896 61.3436C139.659 62.8914 144.579 63.8262 150.714 63.8262H177.12C183.574 63.8262 188.175 62.8914 190.938 61.3436C193.702 59.7957 195.235 57.6196 195.235 55.4588V15.1693C195.235 12.9931 195.843 11.4453 197.073 10.8323C198.303 10.2193 199.836 9.89746 202.296 9.89746H202.312Z" fill="#D0D1D4"/>
<path d="M223.844 7.87502C223.844 5.39236 224.451 3.53804 226 2.29671C227.549 1.05538 229.69 0.442383 232.757 0.442383C235.825 0.442383 238.284 1.05538 239.514 2.29671C240.744 3.53804 241.671 5.39236 241.671 7.87502C241.671 10.3577 241.063 12.212 239.514 13.4533C237.965 14.6947 235.825 15.3077 232.757 15.3077C229.69 15.3077 227.23 14.6947 226 13.4533C224.77 12.212 223.844 10.3577 223.844 7.87502ZM240.425 79.78C240.425 81.9562 239.818 83.504 238.588 84.117C237.358 84.73 235.521 85.0518 233.061 85.0518C230.601 85.0518 228.764 84.7453 227.534 84.117C226.304 83.504 225.696 81.9408 225.696 79.78V25.2383C225.696 23.0621 226.304 21.5143 227.534 20.9013C228.764 20.2883 230.601 19.9665 233.061 19.9665C235.521 19.9665 237.358 20.273 238.588 20.9013C239.818 21.5296 240.425 23.0774 240.425 25.2383V79.78Z" fill="#D0D1D4"/>
<path d="M270.569 79.6269C270.569 81.803 269.962 83.3508 268.732 83.9638C267.502 84.5768 265.664 84.8987 263.204 84.8987C260.744 84.8987 258.907 84.5922 257.677 83.9638C256.447 83.3508 255.84 81.7877 255.84 79.6269V5.86751C255.84 3.69136 256.447 2.14353 257.677 1.53053C258.907 0.917529 260.744 0.595703 263.204 0.595703C265.664 0.595703 267.502 0.902204 268.732 1.53053C269.962 2.14353 270.569 3.70668 270.569 5.86751V79.6269Z" fill="#D0D1D4"/>
<path d="M361.814 6.02864C361.814 3.85249 362.421 2.30466 363.651 1.69166C364.881 1.07866 366.719 0.756836 369.179 0.756836C371.639 0.756836 373.476 1.06334 374.706 1.69166C375.936 2.30466 376.543 3.86782 376.543 6.02864V64.6009C376.543 77.9183 365.792 84.738 344.306 84.738H316.974C295.487 84.738 284.736 77.9183 284.736 64.6009V39.4985C284.736 26.181 295.487 19.3614 316.974 19.3614H362.421L361.814 6.04397V6.02864ZM316.989 31.131C310.535 31.131 305.934 32.0659 303.171 33.6137C300.407 35.1615 298.873 37.3377 298.873 39.4985V64.6009C298.873 66.777 300.407 68.9379 303.171 70.4857C305.934 72.0335 310.854 72.9683 316.989 72.9683H343.395C349.849 72.9683 354.449 72.0335 357.213 70.4857C359.977 68.9379 361.51 66.7617 361.51 64.6009V31.131H316.989Z" fill="#D0D1D4"/>
<path d="M390.713 7.87502C390.713 5.39236 391.32 3.53804 392.869 2.29671C394.418 1.05538 396.559 0.442383 399.626 0.442383C402.694 0.442383 405.154 1.05538 406.384 2.29671C407.614 3.53804 408.54 5.39236 408.54 7.87502C408.54 10.3577 407.932 12.212 406.384 13.4533C404.835 14.6947 402.694 15.3077 399.626 15.3077C396.559 15.3077 394.099 14.6947 392.869 13.4533C391.639 12.212 390.713 10.3577 390.713 7.87502ZM406.976 79.78C406.976 81.9562 406.368 83.504 405.138 84.117C403.908 84.73 402.071 85.0518 399.611 85.0518C397.151 85.0518 395.314 84.7453 394.084 84.117C392.854 83.504 392.247 81.9408 392.247 79.78V25.2383C392.247 23.0621 392.854 21.5143 394.084 20.9013C395.314 20.2883 397.151 19.9665 399.611 19.9665C402.071 19.9665 403.908 20.273 405.138 20.9013C406.368 21.5296 406.976 23.0774 406.976 25.2383V79.78Z" fill="#D0D1D4"/>
<path d="M430.072 75.5958C427.612 75.5958 425.774 75.2893 424.544 74.661C423.314 74.048 422.707 72.4849 422.707 70.324V30.0345C422.707 16.7171 433.458 9.89746 454.944 9.89746H479.817C501.303 9.89746 512.054 16.7171 512.054 30.0345V70.324C512.054 72.5002 511.447 74.048 510.217 74.661C508.987 75.274 507.149 75.5958 504.689 75.5958C502.23 75.5958 500.392 75.2893 499.162 74.661C497.932 74.048 497.325 72.4849 497.325 70.324V30.0345C497.325 27.5519 495.791 25.6976 493.028 24.1497C490.264 22.6019 485.344 21.6671 479.209 21.6671H455.263C448.81 21.6671 444.209 22.6019 441.445 24.1497C438.681 25.6976 437.148 27.8737 437.148 30.0345V70.324C437.148 72.5002 436.54 74.048 435.31 74.661C434.384 75.274 432.547 75.5958 430.087 75.5958H430.072Z" fill="#D0D1D4"/>
<path d="M571.686 85.029C569.848 85.029 568.922 84.416 568.315 83.4812C567.707 82.5463 567.707 80.9985 567.707 79.1442C567.707 77.2899 568.011 75.742 568.315 74.8072C568.618 73.8724 569.848 73.2594 571.686 73.2594H587.341C592.869 73.2594 596.862 72.6464 599.003 71.0832C601.159 69.5354 602.374 67.6811 602.374 64.8919V64.2789H558.46C536.973 64.2789 526.223 57.4593 526.223 44.1418V20.5873C526.223 7.26983 536.973 0.450195 558.46 0.450195H584.562C606.049 0.450195 616.8 7.26983 616.8 20.5873V64.5854C616.8 71.4051 614.34 76.355 609.116 79.466C604.196 82.8682 596.832 84.4313 587.007 84.4313L571.655 85.0443L571.686 85.029ZM602.693 53.107V20.8785C602.693 18.7023 601.159 16.5415 598.396 14.9936C595.632 13.4458 590.712 12.511 584.578 12.511H559.401C552.948 12.511 548.347 13.4458 545.583 14.9936C542.82 16.5415 541.286 18.7176 541.286 20.8785V44.433C541.286 46.9157 542.82 48.77 545.583 50.3178C548.347 51.8657 553.267 52.8005 559.401 52.8005H602.693V53.107Z" fill="#D0D1D4"/>
</svg>
