<svg width="663" height="51" viewBox="0 0 663 51" fill="none" xmlns="http://www.w3.org/2000/svg">
<g opacity="0.6">
<path d="M62.3946 29.8864C62.3946 32.2984 61.9405 34.2488 60.8909 35.7601C59.9901 37.2638 58.6352 38.4698 57.124 39.3706C55.6127 40.2714 53.8112 40.7255 51.8533 41.0233C49.8954 41.3211 47.7886 41.4774 45.8307 41.4774H14.2289C12.5762 41.4774 11.668 40.5766 11.668 38.7676V3.39147C11.668 1.73879 12.5688 0.830566 14.2289 0.830566H45.3915C47.8035 0.830566 50.0592 0.979456 52.017 1.28468C53.9749 1.58246 55.784 2.18546 57.2877 3.09369C58.7915 4.00191 59.8486 5.20048 60.6005 6.70426C61.3524 8.20805 61.8065 10.1659 61.8065 12.4216C61.8065 14.3795 61.5088 16.1885 60.7494 17.5434C59.9975 19.0472 58.6426 20.2532 56.6847 21.154C58.3374 21.757 59.6923 22.8067 60.7494 24.0127C61.9554 25.5165 62.4021 27.3255 62.4021 29.8864H62.3946ZM54.8683 30.0353C54.8683 28.9781 54.7194 28.0774 54.5705 27.3255C54.4216 26.5736 53.8186 25.9706 53.2156 25.5165C52.6126 25.0623 51.5629 24.7646 50.3569 24.4593C49.1509 24.1541 47.4982 24.1616 45.6892 24.1616H19.0454V35.4548H46.2922C48.1012 35.4548 49.605 35.3059 50.6547 35.1571C51.7118 35.0082 52.6126 34.5541 53.2156 34.2563C53.8186 33.8022 54.2727 33.3555 54.4216 32.6036C54.5705 31.8517 54.8757 31.0998 54.8757 30.0427L54.8683 30.0353ZM19.3432 17.9975H45.987C47.6397 17.9975 48.9946 17.9975 50.2006 17.8486C51.2577 17.6998 52.3074 17.3945 52.9104 17.0968C53.5134 16.799 54.1164 16.196 54.4142 15.4441C54.7119 14.6922 54.8683 13.7914 54.8683 12.5854C54.8683 11.6846 54.7194 10.7764 54.5705 10.0245C54.4216 9.27261 53.9675 8.6696 53.3645 8.37182C52.7615 7.91771 51.8607 7.61993 50.8036 7.47104C49.7465 7.32215 48.2427 7.17326 46.4411 7.17326H19.3432V18.0124V17.9975Z" fill="#EB971B"/>
<path d="M107.86 9.55762C109.066 9.55762 109.966 9.70651 110.569 10.0117C111.172 10.3095 111.47 11.0688 111.47 12.1185V31.6901C111.47 38.1593 106.2 41.4721 95.6656 41.4721H82.2656C71.7316 41.4721 66.4609 38.1593 66.4609 31.6901V12.1185C66.4609 11.0614 66.7587 10.3095 67.3617 10.0117C67.9647 9.71395 68.8655 9.55762 70.0715 9.55762C71.2775 9.55762 72.1783 9.70651 72.7813 10.0117C73.3843 10.3095 73.6821 11.0688 73.6821 12.1185V31.6901C73.6821 32.8961 74.434 33.7968 75.7889 34.5487C77.1438 35.3006 79.5558 35.7547 82.5634 35.7547H95.5093C98.6732 35.7547 100.929 35.3006 102.284 34.5487C103.639 33.7968 104.391 32.7397 104.391 31.6901V12.1185C104.391 11.0614 104.688 10.3095 105.291 10.0117C105.745 9.71395 106.646 9.55762 107.852 9.55762H107.86Z" fill="#EB971B"/>
<path d="M115.689 18.2924C115.689 15.7315 116.747 13.6247 119.002 12.1209C121.258 10.6171 124.571 9.86523 128.941 9.86523H136.616C137.517 9.86523 137.971 10.0141 138.269 10.6171C138.566 11.2201 138.723 11.8231 138.723 12.7239C138.723 13.6247 138.574 14.3766 138.269 14.8307C137.963 15.2848 137.368 15.5826 136.616 15.5826H128.941C126.834 15.5826 125.174 15.8804 124.273 16.3345C123.372 16.7886 122.769 17.5405 122.769 18.4413V19.9451C122.769 20.8458 123.223 21.4488 124.273 22.0518C125.323 22.6548 126.983 22.8037 129.238 22.8037H141.581C146.852 22.8037 150.612 23.5556 152.875 25.0594C155.13 26.5632 156.336 28.67 156.336 31.3798V33.1888C156.336 34.5437 156.039 35.7497 155.436 36.7994C154.833 37.849 153.932 38.7573 152.577 39.5091C151.371 40.261 149.718 40.864 147.611 41.1618C145.505 41.4596 143.249 41.7648 140.383 41.7648H117.804C116.903 41.7648 116.449 41.6159 116.151 41.0129C115.853 40.4099 115.697 39.8069 115.697 38.9061C115.697 38.0054 115.846 37.2535 116.151 36.7994C116.456 36.3452 117.052 36.0475 117.804 36.0475H141.589C143.093 36.0475 144.299 36.0475 145.356 35.8986C146.413 35.7497 147.165 35.6008 147.768 35.2956C148.371 34.9978 148.825 34.6926 148.974 34.3948C149.272 34.097 149.271 33.6429 149.271 33.1888V31.2309C149.271 30.7768 149.123 30.3301 148.974 30.0249C148.825 29.7197 148.371 29.4219 147.768 29.1241C147.165 28.8263 146.413 28.67 145.512 28.5211C144.611 28.3722 143.405 28.3722 141.901 28.3722H129.41C124.891 28.3722 121.429 27.6203 119.173 26.1165C116.918 24.6127 115.712 22.6548 115.712 20.0939V18.2849L115.689 18.2924Z" fill="#EB971B"/>
<path d="M159.643 4.14182C159.643 2.93582 159.94 2.03503 160.7 1.43203C161.459 0.829029 162.509 0.53125 164.012 0.53125C165.516 0.53125 166.722 0.829029 167.325 1.43203C167.928 2.03503 168.382 2.93582 168.382 4.14182C168.382 5.34783 168.085 6.24861 167.325 6.85161C166.566 7.45462 165.516 7.75239 164.012 7.75239C162.509 7.75239 161.303 7.45462 160.7 6.85161C160.097 6.24861 159.643 5.34783 159.643 4.14182ZM167.772 39.0713C167.772 40.1284 167.474 40.8803 166.871 41.1781C166.268 41.4759 165.367 41.6322 164.161 41.6322C162.955 41.6322 162.055 41.4833 161.452 41.1781C160.849 40.8803 160.551 40.121 160.551 39.0713V12.5764C160.551 11.5193 160.849 10.7674 161.452 10.4696C162.055 10.1719 162.955 10.0155 164.161 10.0155C165.367 10.0155 166.268 10.1644 166.871 10.4696C167.474 10.7674 167.772 11.5267 167.772 12.5764V39.0713Z" fill="#EB971B"/>
<path d="M176.353 41.6259C175.147 41.6259 174.246 41.477 173.643 41.1718C173.04 40.874 172.742 40.1147 172.742 39.065V19.4935C172.742 13.0242 178.013 9.71143 188.547 9.71143H200.741C211.275 9.71143 216.546 13.0242 216.546 19.4935V39.065C216.546 40.1221 216.248 40.874 215.645 41.1718C215.042 41.4696 214.141 41.6259 212.935 41.6259C211.729 41.6259 210.828 41.477 210.225 41.1718C209.622 40.874 209.324 40.1147 209.324 39.065V19.4935C209.324 18.2875 208.572 17.3867 207.218 16.6348C205.863 15.8829 203.451 15.4288 200.443 15.4288H188.703C185.539 15.4288 183.284 15.8829 181.929 16.6348C180.574 17.3867 179.822 18.4438 179.822 19.4935V39.065C179.822 40.1221 179.524 40.874 178.921 41.1718C178.318 41.4696 177.566 41.6259 176.36 41.6259H176.353Z" fill="#EB971B"/>
<path d="M228.437 28.8455V31.7041C228.437 32.7612 229.189 33.8109 230.544 34.5628C231.899 35.3147 234.311 35.7688 237.319 35.7688H243.795C244.696 35.7688 245.15 35.9177 245.448 36.5207C245.746 36.9748 245.746 37.7267 245.746 38.6275C245.746 39.5283 245.597 40.2802 245.448 40.7343C245.15 41.1884 244.696 41.4862 243.795 41.4862H237.17C226.636 41.4862 221.365 38.1734 221.365 31.7041V19.5101C221.365 13.0408 226.636 9.72803 237.17 9.72803H250.116C255.684 9.72803 259.749 10.4799 262.31 12.14C264.871 13.8002 266.077 16.2047 266.077 19.5175V25.9868C266.077 27.0439 265.928 27.7958 265.474 28.2424C265.02 28.6891 264.119 28.8455 262.764 28.8455H228.445H228.437ZM228.437 23.2695H258.848V19.5026C258.848 18.1477 258.096 17.247 256.741 16.4951C255.387 15.7432 253.131 15.4379 249.818 15.4379H237.326C234.162 15.4379 231.907 15.8921 230.552 16.6439C229.197 17.3958 228.445 18.453 228.445 19.5026V23.2695H228.437Z" fill="#EB971B"/>
<path d="M269.528 18.2924C269.528 15.7315 270.585 13.6247 272.841 12.1209C275.097 10.6171 278.409 9.86523 282.779 9.86523H290.455C291.355 9.86523 291.809 10.0141 292.107 10.6171C292.405 11.2201 292.561 11.8231 292.561 12.7239C292.561 13.6247 292.412 14.3766 292.107 14.8307C291.802 15.2848 291.206 15.5826 290.455 15.5826H282.779C280.673 15.5826 279.012 15.8804 278.112 16.3345C277.211 16.7886 276.608 17.5405 276.608 18.4413V19.9451C276.608 20.8458 277.211 21.4488 278.112 22.0518C279.169 22.6548 280.821 22.8037 283.077 22.8037H295.42C300.691 22.8037 304.45 23.5556 306.713 25.0594C308.976 26.5632 310.175 28.67 310.175 31.3798V33.1888C310.175 34.5437 309.877 35.7497 309.274 36.7994C308.671 37.8565 307.77 38.7573 306.416 39.5091C305.21 40.261 303.557 40.864 301.45 41.1618C299.343 41.4596 297.088 41.7648 294.221 41.7648H271.493C270.593 41.7648 270.139 41.6159 269.841 41.0129C269.543 40.4099 269.387 39.8069 269.387 38.9061C269.387 38.0054 269.536 37.2535 269.841 36.7994C270.146 36.3452 270.742 36.0475 271.493 36.0475H295.279C296.782 36.0475 297.988 36.0475 299.046 35.8986C300.103 35.7497 300.855 35.6008 301.458 35.2956C302.061 34.9903 302.358 34.6926 302.664 34.3948C302.969 34.097 302.961 33.6429 302.961 33.1888V31.2309C302.961 30.7768 302.812 30.3301 302.664 30.0249C302.515 29.7197 302.061 29.4219 301.458 29.1241C300.855 28.8263 300.103 28.67 299.202 28.5211C298.301 28.3722 297.095 28.3722 295.591 28.3722H283.099C278.581 28.3722 275.119 27.6203 272.863 26.1165C270.608 24.6127 269.402 22.6548 269.402 20.0939L269.55 18.2849L269.528 18.2924Z" fill="#EB971B"/>
<path d="M313.788 18.2924C313.788 15.7315 314.845 13.6247 317.101 12.1209C319.356 10.6171 322.669 9.86523 327.039 9.86523H334.714C335.615 9.86523 336.069 10.0141 336.367 10.6171C336.665 11.2201 336.821 11.8231 336.821 12.7239C336.821 13.6247 336.672 14.3766 336.367 14.8307C336.062 15.2848 335.466 15.5826 334.714 15.5826H327.039C324.932 15.5826 323.272 15.8804 322.371 16.3345C321.471 16.7886 320.868 17.5405 320.868 18.4413V19.9451C320.868 20.8458 321.471 21.4488 322.371 22.0518C323.429 22.6548 325.081 22.8037 327.337 22.8037H339.68C344.95 22.8037 348.71 23.5556 350.973 25.0594C353.236 26.5632 354.435 28.67 354.435 31.3798V33.1888C354.435 34.5437 354.137 35.7497 353.534 36.7994C352.931 37.8565 352.03 38.7573 350.675 39.5091C349.469 40.261 347.817 40.864 345.71 41.1618C343.603 41.4596 341.347 41.7648 338.481 41.7648H315.753C314.852 41.7648 314.398 41.6159 314.101 41.0129C313.803 40.4099 313.646 39.8069 313.646 38.9061C313.646 38.0054 313.795 37.2535 314.101 36.7994C314.406 36.3452 315.001 36.0475 315.753 36.0475H339.538C341.042 36.0475 342.248 36.0475 343.305 35.8986C344.362 35.7497 345.114 35.6008 345.717 35.2956C346.32 34.9903 346.618 34.6926 346.923 34.3948C347.229 34.097 347.221 33.6429 347.221 33.1888V31.2309C347.221 30.7768 347.072 30.3301 346.923 30.0249C346.774 29.7197 346.32 29.4219 345.717 29.1241C345.114 28.8263 344.362 28.67 343.462 28.5211C342.561 28.3722 341.355 28.3722 339.851 28.3722H327.359C322.84 28.3722 319.379 27.6203 317.123 26.1165C314.867 24.6127 313.661 22.6548 313.661 20.0939L313.81 18.2849L313.788 18.2924Z" fill="#EB971B"/>
<path d="M429.101 29.8864C429.101 32.2984 428.647 34.2488 427.598 35.7601C426.697 37.2638 425.342 38.4698 423.831 39.3706C422.327 40.2714 420.518 40.7255 418.56 41.0233C416.602 41.3211 414.495 41.4774 412.537 41.4774H380.928C379.275 41.4774 378.367 40.5766 378.367 38.7676V3.39147C378.367 1.73879 379.268 0.830566 380.928 0.830566H412.091C414.503 0.830566 416.758 0.979456 418.716 1.28468C420.674 1.58246 422.483 2.18546 423.987 3.09369C425.491 3.99447 426.548 5.20048 427.3 6.70426C428.052 8.20805 428.506 10.1659 428.506 12.4216C428.506 14.3795 428.208 16.1885 427.449 17.5434C426.697 19.0472 425.342 20.2532 423.384 21.154C425.037 21.757 426.392 22.8067 427.449 24.0127C428.506 25.5165 429.101 27.3255 429.101 29.8864ZM421.419 30.0353C421.419 28.9781 421.27 28.0774 421.121 27.3255C420.972 26.5736 420.369 25.9706 419.766 25.5165C419.014 25.0623 418.113 24.7646 416.907 24.4593C415.701 24.1541 414.049 24.1616 412.24 24.1616H385.745V35.4548H412.991C414.8 35.4548 416.304 35.3059 417.354 35.1571C418.411 35.0082 419.312 34.5541 419.915 34.2563C420.518 33.8022 420.972 33.3555 421.121 32.6036C421.27 31.8517 421.419 31.0998 421.419 30.0427V30.0353ZM385.894 17.9975H412.537C414.19 17.9975 415.545 17.9975 416.751 17.8486C417.808 17.6998 418.858 17.3945 419.461 17.0968C420.064 16.799 420.667 16.196 420.965 15.4441C421.262 14.6922 421.419 13.7914 421.419 12.5854C421.419 11.6846 421.27 10.7764 421.121 10.0245C420.972 9.27261 420.518 8.6696 419.915 8.37182C419.312 7.91771 418.411 7.61993 417.354 7.47104C416.297 7.32215 414.793 7.17326 412.991 7.17326H386.042L385.894 18.0124V17.9975Z" fill="#EB971B"/>
<path d="M474.409 9.55762C475.615 9.55762 476.515 9.70651 477.118 10.0117C477.721 10.3095 478.019 11.0688 478.019 12.1185V31.6901C478.019 38.1593 472.748 41.4721 462.214 41.4721H448.814C438.28 41.4721 433.01 38.1593 433.01 31.6901V12.1185C433.01 11.0614 433.308 10.3095 433.911 10.0117C434.514 9.71395 435.414 9.55762 436.62 9.55762C437.826 9.55762 438.727 9.70651 439.33 10.0117C439.933 10.3095 440.231 11.0688 440.231 12.1185V31.6901C440.231 32.8961 440.983 33.7968 442.338 34.5487C443.693 35.3006 446.105 35.7547 449.112 35.7547H462.058C465.222 35.7547 467.478 35.3006 468.833 34.5487C470.187 33.7968 470.939 32.7397 470.939 31.6901V12.1185C470.939 11.0614 471.237 10.3095 471.84 10.0117C472.443 9.71395 473.195 9.55762 474.401 9.55762H474.409Z" fill="#EB971B"/>
<path d="M482.084 4.14182C482.084 2.93582 482.382 2.03503 483.141 1.43203C483.9 0.829029 484.95 0.53125 486.454 0.53125C487.958 0.53125 489.164 0.829029 489.767 1.43203C490.37 2.03503 490.824 2.93582 490.824 4.14182C490.824 5.34783 490.526 6.24861 489.767 6.85161C489.007 7.45462 487.958 7.75239 486.454 7.75239C484.95 7.75239 483.744 7.45462 483.141 6.85161C482.538 6.24861 482.084 5.34783 482.084 4.14182ZM490.213 39.0713C490.213 40.1284 489.916 40.8803 489.313 41.1781C488.71 41.4759 487.809 41.6322 486.603 41.6322C485.397 41.6322 484.496 41.4833 483.893 41.1781C483.29 40.8803 482.992 40.121 482.992 39.0713V12.5764C482.992 11.5193 483.29 10.7674 483.893 10.4696C484.496 10.1719 485.397 10.0155 486.603 10.0155C487.809 10.0155 488.71 10.1644 489.313 10.4696C489.916 10.7749 490.213 11.5267 490.213 12.5764V39.0713Z" fill="#EB971B"/>
<path d="M502.557 39.0679C502.557 40.1251 502.259 40.8769 501.656 41.1747C501.053 41.4725 500.152 41.6288 498.946 41.6288C497.74 41.6288 496.84 41.4799 496.237 41.1747C495.634 40.8769 495.336 40.1176 495.336 39.0679V3.23766C495.336 2.18054 495.634 1.42865 496.237 1.13087C496.84 0.833092 497.74 0.676758 498.946 0.676758C500.152 0.676758 501.053 0.825647 501.656 1.13087C502.259 1.42865 502.557 2.18799 502.557 3.23766V39.0679Z" fill="#EB971B"/>
<path d="M545.312 3.23766C545.312 2.18054 545.609 1.42865 546.212 1.13087C546.815 0.833092 547.716 0.676758 548.922 0.676758C550.128 0.676758 551.029 0.825647 551.632 1.13087C552.235 1.42865 552.533 2.18799 552.533 3.23766V31.6905C552.533 38.1597 547.262 41.4725 536.728 41.4725H523.328C512.794 41.4725 507.523 38.1597 507.523 31.6905V19.4964C507.523 13.0271 512.794 9.71436 523.328 9.71436H545.609L545.312 3.2451V3.23766ZM523.336 15.4317C520.172 15.4317 517.916 15.8858 516.561 16.6377C515.206 17.3896 514.454 18.4467 514.454 19.4964V31.6905C514.454 32.7476 515.206 33.7972 516.561 34.5491C517.916 35.301 520.328 35.7551 523.336 35.7551H536.281C539.445 35.7551 541.701 35.301 543.056 34.5491C544.411 33.7972 545.163 32.7401 545.163 31.6905V15.4317H523.336Z" fill="#EB971B"/>
<path d="M556.605 4.14182C556.605 2.93582 556.903 2.03503 557.663 1.43203C558.422 0.829029 559.472 0.53125 560.975 0.53125C562.479 0.53125 563.685 0.829029 564.288 1.43203C564.891 2.03503 565.345 2.93582 565.345 4.14182C565.345 5.34783 565.048 6.24861 564.288 6.85161C563.529 7.45462 562.479 7.75239 560.975 7.75239C559.472 7.75239 558.266 7.45462 557.663 6.85161C557.06 6.24861 556.605 5.34783 556.605 4.14182ZM564.579 39.0713C564.579 40.1284 564.281 40.8803 563.678 41.1781C563.075 41.4759 562.174 41.6322 560.968 41.6322C559.762 41.6322 558.861 41.4833 558.258 41.1781C557.655 40.8803 557.357 40.121 557.357 39.0713V12.5764C557.357 11.5193 557.655 10.7674 558.258 10.4696C558.861 10.1719 559.762 10.0155 560.968 10.0155C562.174 10.0155 563.075 10.1644 563.678 10.4696C564.281 10.7749 564.579 11.5267 564.579 12.5764V39.0713Z" fill="#EB971B"/>
<path d="M573.161 41.6259C571.955 41.6259 571.055 41.477 570.452 41.1718C569.849 40.874 569.551 40.1147 569.551 39.065V19.4935C569.551 13.0242 574.821 9.71143 585.355 9.71143H597.549C608.083 9.71143 613.354 13.0242 613.354 19.4935V39.065C613.354 40.1221 613.056 40.874 612.453 41.1718C611.85 41.4696 610.95 41.6259 609.744 41.6259C608.538 41.6259 607.637 41.477 607.034 41.1718C606.431 40.874 606.133 40.1147 606.133 39.065V19.4935C606.133 18.2875 605.381 17.3867 604.026 16.6348C602.671 15.8829 600.259 15.4288 597.252 15.4288H585.512C582.348 15.4288 580.092 15.8829 578.737 16.6348C577.382 17.3867 576.63 18.4438 576.63 19.4935V39.065C576.63 40.1221 576.333 40.874 575.73 41.1718C575.276 41.4696 574.375 41.6259 573.169 41.6259H573.161Z" fill="#EB971B"/>
<path d="M640.451 50.6764C639.55 50.6764 639.096 50.3786 638.798 49.9245C638.5 49.4704 638.5 48.7185 638.5 47.8177C638.5 46.917 638.649 46.1651 638.798 45.7109C638.947 45.2568 639.55 44.9591 640.451 44.9591H648.126C650.836 44.9591 652.794 44.6613 653.843 43.9019C654.901 43.15 655.496 42.2493 655.496 40.8944V40.5966H633.967C623.433 40.5966 618.162 37.2838 618.162 30.8145V19.3724C618.162 12.9031 623.433 9.59033 633.967 9.59033H646.764C657.298 9.59033 662.568 12.9031 662.568 19.3724V40.7455C662.568 44.0583 661.362 46.4628 658.802 47.9741C656.39 49.6267 652.779 50.3861 647.962 50.3861L640.436 50.6839L640.451 50.6764ZM655.653 35.1696V19.5138C655.653 18.4567 654.901 17.407 653.546 16.6551C652.191 15.9033 649.779 15.4491 646.771 15.4491H634.428C631.264 15.4491 629.009 15.9033 627.654 16.6551C626.299 17.407 625.547 18.4642 625.547 19.5138V30.956C625.547 32.162 626.299 33.0628 627.654 33.8147C629.009 34.5666 631.421 35.0207 634.428 35.0207H655.653V35.1696Z" fill="#EB971B"/>
</g>
</svg>
