<svg width="228" height="19" viewBox="0 0 228 19" fill="none" xmlns="http://www.w3.org/2000/svg">
<g clip-path="url(#clip0_4708_125254)">
<path d="M17.9327 10.9475C17.9327 11.79 17.7741 12.4713 17.4074 12.9992C17.0928 13.5245 16.6195 13.9458 16.0916 14.2605C15.5637 14.5751 14.9344 14.7338 14.2505 14.8378C13.5665 14.9418 12.8306 14.9964 12.1467 14.9964H1.1077C0.530392 14.9964 0.213135 14.6817 0.213135 14.0498V1.69241C0.213135 1.11511 0.527791 0.797852 1.1077 0.797852H11.9933C12.8358 0.797852 13.6237 0.849861 14.3077 0.95648C14.9916 1.0605 15.6235 1.27114 16.1488 1.58839C16.6741 1.90565 17.0434 2.32433 17.306 2.84962C17.5687 3.37491 17.7273 4.05884 17.7273 4.84678C17.7273 5.5307 17.6233 6.16262 17.358 6.6359C17.0954 7.16119 16.6221 7.58247 15.9382 7.89713C16.5155 8.10777 16.9887 8.47443 17.358 8.89571C17.7793 9.421 17.9353 10.0529 17.9353 10.9475H17.9327ZM15.3036 10.9995C15.3036 10.6302 15.2516 10.3156 15.1996 10.0529C15.1476 9.79027 14.937 9.57963 14.7263 9.421C14.5157 9.26237 14.149 9.15835 13.7278 9.05173C13.3065 8.94512 12.7292 8.94772 12.0973 8.94772H2.7902V12.8926H12.3079C12.9398 12.8926 13.4651 12.8406 13.8318 12.7886C14.201 12.7366 14.5157 12.578 14.7263 12.4739C14.937 12.3153 15.0956 12.1593 15.1476 11.8966C15.1996 11.634 15.3062 11.3714 15.3062 11.0021L15.3036 10.9995ZM2.89422 6.79453H12.2013C12.7786 6.79453 13.2519 6.79453 13.6732 6.74252C14.0424 6.69051 14.4091 6.58389 14.6197 6.47987C14.8304 6.37585 15.041 6.16522 15.145 5.90257C15.249 5.63992 15.3036 5.32527 15.3036 4.90399C15.3036 4.58933 15.2516 4.27208 15.1996 4.00943C15.1476 3.74678 14.989 3.53614 14.7784 3.43212C14.5677 3.2735 14.2531 3.16948 13.8838 3.11747C13.5145 3.06546 12.9892 3.01345 12.3599 3.01345H2.89422V6.79973V6.79453Z" fill="#FCF4E9"/>
<path d="M33.8146 3.84961C34.2359 3.84961 34.5505 3.90162 34.7612 4.00824C34.9718 4.11226 35.0758 4.3775 35.0758 4.74417V11.5808C35.0758 13.8406 33.2347 14.9978 29.555 14.9978H24.8742C21.1945 14.9978 19.3534 13.8406 19.3534 11.5808V4.74417C19.3534 4.3749 19.4574 4.11226 19.668 4.00824C19.8787 3.90422 20.1933 3.84961 20.6146 3.84961C21.0359 3.84961 21.3506 3.90162 21.5612 4.00824C21.7718 4.11226 21.8758 4.3775 21.8758 4.74417V11.5808C21.8758 12.0021 22.1385 12.3167 22.6118 12.5794C23.0851 12.842 23.9276 13.0007 24.9782 13.0007H29.5004C30.6056 13.0007 31.3936 12.842 31.8668 12.5794C32.3401 12.3167 32.6028 11.9475 32.6028 11.5808V4.74417C32.6028 4.3749 32.7068 4.11226 32.9174 4.00824C33.0761 3.90422 33.3907 3.84961 33.812 3.84961H33.8146Z" fill="#FCF4E9"/>
<path d="M36.548 6.89685C36.548 6.00229 36.9172 5.26636 37.7052 4.74107C38.4931 4.21577 39.6503 3.95312 41.1768 3.95312H43.8579C44.1725 3.95312 44.3312 4.00513 44.4352 4.21577C44.5392 4.42641 44.5938 4.63705 44.5938 4.9517C44.5938 5.26636 44.5418 5.52901 44.4352 5.68764C44.3286 5.84626 44.1205 5.95028 43.8579 5.95028H41.1768C40.4409 5.95028 39.861 6.0543 39.5463 6.21293C39.2317 6.37156 39.021 6.63421 39.021 6.94886V7.47416C39.021 7.78881 39.1796 7.99945 39.5463 8.21009C39.913 8.42073 40.4929 8.47274 41.2808 8.47274H45.5924C47.4335 8.47274 48.7468 8.73538 49.5373 9.26068C50.3252 9.78597 50.7465 10.5219 50.7465 11.4685V12.1004C50.7465 12.5737 50.6425 12.9949 50.4319 13.3616C50.2212 13.7283 49.9066 14.0455 49.4333 14.3082C49.012 14.5708 48.4347 14.7815 47.6988 14.8855C46.9628 14.9895 46.1749 15.0961 45.1737 15.0961H37.2865C36.9719 15.0961 36.8132 15.0441 36.7092 14.8335C36.6052 14.6228 36.5506 14.4122 36.5506 14.0975C36.5506 13.7829 36.6026 13.5202 36.7092 13.3616C36.8158 13.203 37.0239 13.099 37.2865 13.099H45.595C46.1203 13.099 46.5416 13.099 46.9108 13.047C47.2801 12.9949 47.5428 12.9429 47.7534 12.8363C47.964 12.7323 48.1227 12.6257 48.1747 12.5217C48.2787 12.4176 48.2787 12.259 48.2787 12.1004V11.4165C48.2787 11.2578 48.2267 11.1018 48.1747 10.9952C48.1227 10.8886 47.964 10.7846 47.7534 10.6805C47.5428 10.5765 47.2801 10.5219 46.9654 10.4699C46.6508 10.4179 46.2295 10.4179 45.7042 10.4179H41.3406C39.7622 10.4179 38.5529 10.1552 37.765 9.62994C36.9771 9.10465 36.5558 8.42073 36.5558 7.52617V6.89425L36.548 6.89685Z" fill="#FCF4E9"/>
<path d="M51.9024 1.95556C51.9024 1.53429 52.0064 1.21963 52.2717 1.00899C52.5369 0.798355 52.9036 0.694336 53.4289 0.694336C53.9542 0.694336 54.3754 0.798355 54.5861 1.00899C54.7967 1.21963 54.9554 1.53429 54.9554 1.95556C54.9554 2.37684 54.8513 2.69149 54.5861 2.90213C54.3208 3.11277 53.9542 3.21679 53.4289 3.21679C52.9036 3.21679 52.4823 3.11277 52.2717 2.90213C52.061 2.69149 51.9024 2.37684 51.9024 1.95556ZM54.7421 14.157C54.7421 14.5262 54.6381 14.7889 54.4275 14.8929C54.2168 14.9969 53.9022 15.0515 53.4809 15.0515C53.0596 15.0515 52.745 14.9995 52.5343 14.8929C52.3237 14.7889 52.2197 14.5236 52.2197 14.157V4.90189C52.2197 4.53263 52.3237 4.26998 52.5343 4.16596C52.745 4.06194 53.0596 4.00733 53.4809 4.00733C53.9022 4.00733 54.2168 4.05934 54.4275 4.16596C54.6381 4.26998 54.7421 4.53523 54.7421 4.90189V14.157Z" fill="#FCF4E9"/>
<path d="M57.7347 15.0457C57.3135 15.0457 56.9988 14.9937 56.7882 14.887C56.5775 14.783 56.4735 14.5178 56.4735 14.1511V7.31447C56.4735 5.05467 58.3146 3.89746 61.9943 3.89746H66.2539C69.9335 3.89746 71.7747 5.05467 71.7747 7.31447V14.1511C71.7747 14.5204 71.6706 14.783 71.46 14.887C71.2494 14.9911 70.9347 15.0457 70.5134 15.0457C70.0922 15.0457 69.7775 14.9937 69.5669 14.887C69.3562 14.783 69.2522 14.5178 69.2522 14.1511V7.31447C69.2522 6.8932 68.9896 6.57854 68.5163 6.3159C68.043 6.05325 67.2004 5.89462 66.1499 5.89462H62.0489C60.9437 5.89462 60.1558 6.05325 59.6825 6.3159C59.2092 6.57854 58.9466 6.94781 58.9466 7.31447V14.1511C58.9466 14.5204 58.8425 14.783 58.6319 14.887C58.4213 14.9911 58.1586 15.0457 57.7373 15.0457H57.7347Z" fill="#FCF4E9"/>
<path d="M75.9276 10.5784V11.577C75.9276 11.9462 76.1902 12.3129 76.6635 12.5755C77.1368 12.8382 77.9794 12.9968 79.03 12.9968H81.2924C81.607 12.9968 81.7656 13.0488 81.8697 13.2595C81.9737 13.4181 81.9737 13.6807 81.9737 13.9954C81.9737 14.3101 81.9217 14.5727 81.8697 14.7313C81.7656 14.89 81.607 14.994 81.2924 14.994H78.9779C75.2983 14.994 73.4572 13.8368 73.4572 11.577V7.3174C73.4572 5.0576 75.2983 3.90039 78.9779 3.90039H83.5002C85.4453 3.90039 86.8652 4.16304 87.7597 4.74294C88.6543 5.32285 89.0756 6.1628 89.0756 7.32V9.57981C89.0756 9.94908 89.0235 10.2117 88.8649 10.3678C88.7063 10.5238 88.3916 10.5784 87.9184 10.5784H75.9302H75.9276ZM75.9276 8.63064H86.5505V7.3148C86.5505 6.84152 86.2879 6.52686 85.8146 6.26422C85.3413 6.00157 84.5533 5.89495 83.3961 5.89495H79.0326C77.9274 5.89495 77.1394 6.05358 76.6661 6.31622C76.1928 6.57887 75.9302 6.94814 75.9302 7.3148V8.63064H75.9276Z" fill="#FCF4E9"/>
<path d="M90.2851 6.89685C90.2851 6.00229 90.6543 5.26636 91.4423 4.74107C92.2302 4.21577 93.3874 3.95312 94.9139 3.95312H97.595C97.9096 3.95312 98.0683 4.00513 98.1723 4.21577C98.2763 4.42641 98.3309 4.63705 98.3309 4.9517C98.3309 5.26636 98.2789 5.52901 98.1723 5.68764C98.0657 5.84626 97.8576 5.95028 97.595 5.95028H94.9139C94.178 5.95028 93.5981 6.0543 93.2834 6.21293C92.9687 6.37156 92.7581 6.63421 92.7581 6.94886V7.47416C92.7581 7.78881 92.9687 7.99945 93.2834 8.21009C93.6527 8.42073 94.23 8.47274 95.0179 8.47274H99.3295C101.171 8.47274 102.484 8.73538 103.274 9.26068C104.065 9.78597 104.484 10.5219 104.484 11.4685V12.1004C104.484 12.5737 104.38 12.9949 104.169 13.3616C103.958 13.7309 103.644 14.0455 103.17 14.3082C102.749 14.5708 102.172 14.7815 101.436 14.8855C100.7 14.9895 99.912 15.0961 98.9108 15.0961H90.9716C90.6569 15.0961 90.4983 15.0441 90.3943 14.8335C90.2903 14.6228 90.2357 14.4122 90.2357 14.0975C90.2357 13.7829 90.2877 13.5202 90.3943 13.3616C90.5009 13.203 90.7089 13.099 90.9716 13.099H99.2801C99.8054 13.099 100.227 13.099 100.596 13.047C100.965 12.9949 101.228 12.9429 101.438 12.8363C101.649 12.7297 101.753 12.6257 101.86 12.5217C101.966 12.4176 101.964 12.259 101.964 12.1004V11.4165C101.964 11.2578 101.912 11.1018 101.86 10.9952C101.808 10.8886 101.649 10.7846 101.438 10.6805C101.228 10.5765 100.965 10.5219 100.651 10.4699C100.336 10.4179 99.9146 10.4179 99.3893 10.4179H95.0257C93.4472 10.4179 92.238 10.1552 91.4501 9.62994C90.6621 9.10465 90.2409 8.42073 90.2409 7.52617L90.2929 6.89425L90.2851 6.89685Z" fill="#FCF4E9"/>
<path d="M105.745 6.89685C105.745 6.00229 106.114 5.26636 106.902 4.74107C107.69 4.21577 108.847 3.95312 110.374 3.95312H113.055C113.37 3.95312 113.528 4.00513 113.632 4.21577C113.736 4.42641 113.791 4.63705 113.791 4.9517C113.791 5.26636 113.739 5.52901 113.632 5.68764C113.526 5.84626 113.318 5.95028 113.055 5.95028H110.374C109.638 5.95028 109.058 6.0543 108.743 6.21293C108.429 6.37156 108.218 6.63421 108.218 6.94886V7.47416C108.218 7.78881 108.429 7.99945 108.743 8.21009C109.113 8.42073 109.69 8.47274 110.478 8.47274H114.789C116.631 8.47274 117.944 8.73538 118.734 9.26068C119.525 9.78597 119.944 10.5219 119.944 11.4685V12.1004C119.944 12.5737 119.839 12.9949 119.629 13.3616C119.418 13.7309 119.104 14.0455 118.63 14.3082C118.209 14.5708 117.632 14.7815 116.896 14.8855C116.16 14.9895 115.372 15.0961 114.371 15.0961H106.431C106.117 15.0961 105.958 15.0441 105.854 14.8335C105.75 14.6228 105.696 14.4122 105.696 14.0975C105.696 13.7829 105.748 13.5202 105.854 13.3616C105.961 13.203 106.169 13.099 106.431 13.099H114.74C115.265 13.099 115.687 13.099 116.056 13.047C116.425 12.9949 116.688 12.9429 116.898 12.8363C117.109 12.7297 117.213 12.6257 117.32 12.5217C117.426 12.4176 117.424 12.259 117.424 12.1004V11.4165C117.424 11.2578 117.372 11.1018 117.32 10.9952C117.268 10.8886 117.109 10.7846 116.898 10.6805C116.688 10.5765 116.425 10.5219 116.11 10.4699C115.796 10.4179 115.374 10.4179 114.849 10.4179H110.486C108.907 10.4179 107.698 10.1552 106.91 9.62994C106.122 9.10465 105.701 8.42073 105.701 7.52617L105.753 6.89425L105.745 6.89685Z" fill="#FCF4E9"/>
<path d="M146.021 10.9475C146.021 11.79 145.863 12.4713 145.496 12.9992C145.182 13.5245 144.708 13.9458 144.18 14.2605C143.655 14.5751 143.023 14.7338 142.339 14.8378C141.655 14.9418 140.919 14.9964 140.235 14.9964H129.194C128.617 14.9964 128.299 14.6817 128.299 14.0498V1.69241C128.299 1.11511 128.614 0.797852 129.194 0.797852H140.079C140.922 0.797852 141.71 0.849861 142.394 0.95648C143.078 1.0605 143.71 1.27114 144.235 1.58839C144.76 1.90305 145.13 2.32433 145.392 2.84962C145.655 3.37491 145.813 4.05884 145.813 4.84678C145.813 5.5307 145.709 6.16262 145.444 6.6359C145.182 7.16119 144.708 7.58247 144.024 7.89713C144.602 8.10777 145.075 8.47443 145.444 8.89571C145.813 9.421 146.021 10.0529 146.021 10.9475ZM143.338 10.9995C143.338 10.6302 143.286 10.3156 143.234 10.0529C143.182 9.79027 142.971 9.57963 142.761 9.421C142.498 9.26237 142.183 9.15835 141.762 9.05173C141.341 8.94512 140.763 8.94772 140.131 8.94772H130.876V12.8926H140.394C141.026 12.8926 141.551 12.8406 141.918 12.7886C142.287 12.7366 142.602 12.578 142.813 12.4739C143.023 12.3153 143.182 12.1593 143.234 11.8966C143.286 11.634 143.338 11.3714 143.338 11.0021V10.9995ZM130.928 6.79453H140.235C140.813 6.79453 141.286 6.79453 141.707 6.74252C142.077 6.69051 142.443 6.58389 142.654 6.47987C142.865 6.37585 143.075 6.16522 143.179 5.90257C143.283 5.63992 143.338 5.32527 143.338 4.90399C143.338 4.58933 143.286 4.27208 143.234 4.00943C143.182 3.74678 143.023 3.53614 142.813 3.43212C142.602 3.2735 142.287 3.16948 141.918 3.11747C141.549 3.06546 141.023 3.01345 140.394 3.01345H130.98L130.928 6.79973V6.79453Z" fill="#FCF4E9"/>
<path d="M161.854 3.84961C162.275 3.84961 162.59 3.90162 162.8 4.00824C163.011 4.11226 163.115 4.3775 163.115 4.74417V11.5808C163.115 13.8406 161.274 14.9978 157.594 14.9978H152.914C149.234 14.9978 147.393 13.8406 147.393 11.5808V4.74417C147.393 4.3749 147.497 4.11226 147.707 4.00824C147.918 3.90422 148.233 3.84961 148.654 3.84961C149.075 3.84961 149.39 3.90162 149.6 4.00824C149.811 4.11226 149.915 4.3775 149.915 4.74417V11.5808C149.915 12.0021 150.178 12.3167 150.651 12.5794C151.124 12.842 151.967 13.0007 153.018 13.0007H157.54C158.645 13.0007 159.433 12.842 159.906 12.5794C160.379 12.3167 160.642 11.9475 160.642 11.5808V4.74417C160.642 4.3749 160.746 4.11226 160.957 4.00824C161.167 3.90422 161.43 3.84961 161.851 3.84961H161.854Z" fill="#FCF4E9"/>
<path d="M164.535 1.95556C164.535 1.53429 164.639 1.21963 164.904 1.00899C165.169 0.798355 165.536 0.694336 166.061 0.694336C166.586 0.694336 167.008 0.798355 167.218 1.00899C167.429 1.21963 167.587 1.53429 167.587 1.95556C167.587 2.37684 167.483 2.69149 167.218 2.90213C166.953 3.11277 166.586 3.21679 166.061 3.21679C165.536 3.21679 165.114 3.11277 164.904 2.90213C164.693 2.69149 164.535 2.37684 164.535 1.95556ZM167.374 14.157C167.374 14.5262 167.27 14.7889 167.06 14.8929C166.849 14.9969 166.534 15.0515 166.113 15.0515C165.692 15.0515 165.377 14.9995 165.166 14.8929C164.956 14.7889 164.852 14.5236 164.852 14.157V4.90189C164.852 4.53263 164.956 4.26998 165.166 4.16596C165.377 4.06194 165.692 4.00733 166.113 4.00733C166.534 4.00733 166.849 4.05934 167.06 4.16596C167.27 4.27258 167.374 4.53523 167.374 4.90189V14.157Z" fill="#FCF4E9"/>
<path d="M171.681 14.1557C171.681 14.525 171.577 14.7876 171.366 14.8917C171.156 14.9957 170.841 15.0503 170.42 15.0503C169.998 15.0503 169.684 14.9983 169.473 14.8917C169.262 14.7876 169.158 14.5224 169.158 14.1557V1.63968C169.158 1.27041 169.262 1.00776 169.473 0.903746C169.684 0.799727 169.998 0.745117 170.42 0.745117C170.841 0.745117 171.156 0.797127 171.366 0.903746C171.577 1.00776 171.681 1.27301 171.681 1.63968V14.1557Z" fill="#FCF4E9"/>
<path d="M186.619 1.63968C186.619 1.27041 186.723 1.00776 186.934 0.903746C187.144 0.799727 187.459 0.745117 187.88 0.745117C188.301 0.745117 188.616 0.797127 188.827 0.903746C189.037 1.00776 189.141 1.27301 189.141 1.63968V11.5787C189.141 13.8385 187.3 14.9957 183.621 14.9957H178.94C175.26 14.9957 173.419 13.8385 173.419 11.5787V7.3191C173.419 5.05929 175.26 3.90208 178.94 3.90208H186.723L186.619 1.64228V1.63968ZM178.942 5.89924C177.837 5.89924 177.049 6.05787 176.576 6.32052C176.103 6.58317 175.84 6.95243 175.84 7.3191V11.5787C175.84 11.9479 176.103 12.3146 176.576 12.5772C177.049 12.8399 177.892 12.9985 178.942 12.9985H183.465C184.57 12.9985 185.358 12.8399 185.831 12.5772C186.304 12.3146 186.567 11.9453 186.567 11.5787V5.89924H178.942Z" fill="#FCF4E9"/>
<path d="M190.561 1.95556C190.561 1.53429 190.665 1.21963 190.93 1.00899C191.195 0.798355 191.562 0.694336 192.087 0.694336C192.613 0.694336 193.034 0.798355 193.244 1.00899C193.455 1.21963 193.614 1.53429 193.614 1.95556C193.614 2.37684 193.51 2.69149 193.244 2.90213C192.979 3.11277 192.613 3.21679 192.087 3.21679C191.562 3.21679 191.141 3.11277 190.93 2.90213C190.719 2.69149 190.561 2.37684 190.561 1.95556ZM193.346 14.157C193.346 14.5262 193.242 14.7889 193.031 14.8929C192.821 14.9969 192.506 15.0515 192.085 15.0515C191.663 15.0515 191.349 14.9995 191.138 14.8929C190.927 14.7889 190.823 14.5236 190.823 14.157V4.90189C190.823 4.53263 190.927 4.26998 191.138 4.16596C191.349 4.06194 191.663 4.00733 192.085 4.00733C192.506 4.00733 192.821 4.05934 193.031 4.16596C193.242 4.27258 193.346 4.53523 193.346 4.90189V14.157Z" fill="#FCF4E9"/>
<path d="M196.346 15.0457C195.925 15.0457 195.61 14.9937 195.4 14.887C195.189 14.783 195.085 14.5178 195.085 14.1511V7.31447C195.085 5.05467 196.926 3.89746 200.606 3.89746H204.865C208.545 3.89746 210.386 5.05467 210.386 7.31447V14.1511C210.386 14.5204 210.282 14.783 210.072 14.887C209.861 14.9911 209.546 15.0457 209.125 15.0457C208.704 15.0457 208.389 14.9937 208.178 14.887C207.968 14.783 207.864 14.5178 207.864 14.1511V7.31447C207.864 6.8932 207.601 6.57854 207.128 6.3159C206.655 6.05325 205.812 5.89462 204.761 5.89462H200.66C199.555 5.89462 198.767 6.05325 198.294 6.3159C197.821 6.57854 197.558 6.94781 197.558 7.31447V14.1511C197.558 14.5204 197.454 14.783 197.243 14.887C197.085 14.9911 196.77 15.0457 196.349 15.0457H196.346Z" fill="#FCF4E9"/>
<path d="M219.849 18.2074C219.534 18.2074 219.375 18.1034 219.271 17.9448C219.167 17.7862 219.167 17.5235 219.167 17.2089C219.167 16.8942 219.219 16.6316 219.271 16.4729C219.323 16.3143 219.534 16.2103 219.849 16.2103H222.53C223.476 16.2103 224.16 16.1063 224.527 15.841C224.896 15.5784 225.104 15.2637 225.104 14.7904V14.6864H217.584C213.904 14.6864 212.063 13.5292 212.063 11.2694V7.27248C212.063 5.01268 213.904 3.85547 217.584 3.85547H222.054C225.734 3.85547 227.575 5.01268 227.575 7.27248V14.7384C227.575 15.8956 227.153 16.7356 226.259 17.2635C225.416 17.8408 224.155 18.106 222.473 18.106L219.843 18.21L219.849 18.2074ZM225.159 12.7907V7.32189C225.159 6.95262 224.896 6.58596 224.423 6.32331C223.95 6.06066 223.107 5.90204 222.056 5.90204H217.745C216.64 5.90204 215.852 6.06066 215.378 6.32331C214.905 6.58596 214.643 6.95522 214.643 7.32189V11.3188C214.643 11.7401 214.905 12.0547 215.378 12.3174C215.852 12.58 216.694 12.7387 217.745 12.7387H225.159V12.7907Z" fill="#FCF4E9"/>
</g>
<defs>
<clipPath id="clip0_4708_125254">
<rect width="227.367" height="17.5112" fill="white" transform="translate(0.216248 0.694336)"/>
</clipPath>
</defs>
</svg>
