<svg width="700" height="86" viewBox="0 0 700 86" fill="none" xmlns="http://www.w3.org/2000/svg">
<path d="M104.272 60.7296C104.272 65.6949 103.345 69.7101 101.204 72.821C99.367 75.9167 96.6033 78.3993 93.5208 80.2537C90.4383 82.108 86.7636 83.0428 82.77 83.6558C78.7764 84.2688 74.4791 84.5907 70.4856 84.5907H6.02629C2.65527 84.5907 0.802734 82.7363 0.802734 79.0123V6.18782C0.802734 2.78567 2.64009 0.916016 6.02629 0.916016H69.5897C74.5095 0.916016 79.1105 1.22252 83.1041 1.85084C87.0977 2.46384 90.7876 3.70517 93.8549 5.57482C96.9222 7.44448 99.0785 9.91181 100.612 13.0075C102.146 16.1031 103.072 20.1336 103.072 24.7771C103.072 28.8076 102.465 32.5315 100.916 35.3207C99.3821 38.4164 96.6185 40.899 92.6249 42.7533C95.9959 43.9947 98.7596 46.1555 100.916 48.6381C103.376 51.7338 104.287 55.4578 104.287 60.7296H104.272ZM88.9198 61.0361C88.9198 58.8599 88.6162 57.0056 88.3125 55.4578C88.0088 53.91 86.7788 52.6686 85.5488 51.7338C84.3189 50.799 82.1778 50.186 79.7179 49.5576C77.258 48.9293 73.8869 48.9446 70.1971 48.9446H15.8508V72.1927H71.427C75.1169 72.1927 78.1842 71.8862 80.3253 71.5797C82.4815 71.2732 84.3189 70.3384 85.5488 69.7254C86.7788 68.7906 87.7051 67.871 88.0088 66.3232C88.3125 64.7754 88.935 63.2276 88.935 61.0514L88.9198 61.0361ZM16.4582 36.2555H70.8044C74.1755 36.2555 76.9391 36.2555 79.399 35.949C81.5552 35.6425 83.6963 35.0142 84.9263 34.4012C86.1562 33.7882 87.3862 32.5469 87.9936 30.999C88.601 29.4512 88.9198 27.5969 88.9198 25.1142C88.9198 23.2599 88.6162 21.3902 88.3125 19.8424C88.0088 18.2946 87.0825 17.0533 85.8525 16.4403C84.6226 15.5054 82.7852 14.8924 80.629 14.5859C78.4727 14.2794 75.4054 13.9729 71.7307 13.9729H16.4582V36.2862V36.2555Z" fill="#D0D1D4"/>
<path d="M197.007 18.8936C199.467 18.8936 201.304 19.2001 202.534 19.8284C203.764 20.4414 204.371 22.0045 204.371 24.1654V64.4548C204.371 77.7723 193.621 84.5919 172.134 84.5919H144.802C123.315 84.5919 112.564 77.7723 112.564 64.4548V24.1654C112.564 21.9892 113.172 20.4414 114.402 19.8284C115.632 19.2154 117.469 18.8936 119.929 18.8936C122.389 18.8936 124.226 19.2001 125.456 19.8284C126.686 20.4414 127.294 22.0045 127.294 24.1654V64.4548C127.294 66.9375 128.827 68.7918 131.591 70.3397C134.355 71.8875 139.274 72.8223 145.409 72.8223H171.815C178.269 72.8223 182.87 71.8875 185.633 70.3397C188.397 68.7918 189.931 66.6157 189.931 64.4548V24.1654C189.931 21.9892 190.538 20.4414 191.768 19.8284C192.694 19.2154 194.532 18.8936 196.992 18.8936H197.007Z" fill="#D0D1D4"/>
<path d="M212.979 36.8714C212.979 31.5996 215.135 27.2626 219.736 24.1669C224.337 21.0713 231.094 19.5234 240.007 19.5234H255.663C257.5 19.5234 258.426 19.8299 259.034 21.0713C259.641 22.3126 259.96 23.5539 259.96 25.4082C259.96 27.2626 259.656 28.8104 259.034 29.7452C258.411 30.6801 257.197 31.2931 255.663 31.2931H240.007C235.71 31.2931 232.324 31.9061 230.487 32.8409C228.649 33.7757 227.419 35.3235 227.419 37.1779V40.2735C227.419 42.1278 228.345 43.3692 230.487 44.6105C232.628 45.8518 236.014 46.1583 240.615 46.1583H265.791C276.542 46.1583 284.21 47.7062 288.826 50.8018C293.427 53.8975 295.887 58.2344 295.887 63.8128V67.5367C295.887 70.3259 295.28 72.8085 294.05 74.9694C292.82 77.1302 290.983 78.9999 288.219 80.5477C285.759 82.0955 282.388 83.3368 278.091 83.9498C273.793 84.5628 269.192 85.1912 263.346 85.1912H217.291C215.454 85.1912 214.527 84.8847 213.92 83.6433C213.313 82.402 212.994 81.1607 212.994 79.3064C212.994 77.452 213.297 75.9042 213.92 74.9694C214.543 74.0345 215.757 73.4215 217.291 73.4215H265.806C268.874 73.4215 271.334 73.4215 273.49 73.115C275.646 72.8085 277.18 72.502 278.41 71.8737C279.64 71.2607 280.566 70.6324 280.87 70.0194C281.477 69.4064 281.477 68.4716 281.477 67.5367V63.5063C281.477 62.5714 281.173 61.6519 280.87 61.0236C280.566 60.3953 279.64 59.7823 278.41 59.1693C277.18 58.5563 275.646 58.2344 273.809 57.9279C271.971 57.6214 269.511 57.6214 266.444 57.6214H240.964C231.747 57.6214 224.686 56.0736 220.085 52.978C215.484 49.8823 213.024 45.8518 213.024 40.58V36.856L212.979 36.8714Z" fill="#D0D1D4"/>
<path d="M302.627 7.73732C302.627 5.25467 303.234 3.40034 304.783 2.15902C306.332 0.917688 308.473 0.304688 311.54 0.304688C314.608 0.304688 317.068 0.917688 318.298 2.15902C319.528 3.40034 320.454 5.25467 320.454 7.73732C320.454 10.22 319.846 12.0743 318.298 13.3156C316.749 14.557 314.608 15.17 311.54 15.17C308.473 15.17 306.013 14.557 304.783 13.3156C303.553 12.0743 302.627 10.22 302.627 7.73732ZM319.209 79.6423C319.209 81.8185 318.601 83.3663 317.371 83.9793C316.141 84.5923 314.304 84.9141 311.844 84.9141C309.384 84.9141 307.547 84.6076 306.317 83.9793C305.087 83.3663 304.479 81.8032 304.479 79.6423V25.1006C304.479 22.9244 305.087 21.3766 306.317 20.7636C307.547 20.1506 309.384 19.8288 311.844 19.8288C314.304 19.8288 316.141 20.1353 317.371 20.7636C318.601 21.3766 319.209 22.9397 319.209 25.1006V79.6423Z" fill="#D0D1D4"/>
<path d="M336.722 84.8976C334.262 84.8976 332.425 84.5911 331.195 83.9628C329.965 83.3498 329.357 81.7866 329.357 79.6258V39.3363C329.357 26.0189 340.108 19.1992 361.595 19.1992H386.467C407.954 19.1992 418.704 26.0189 418.704 39.3363V79.6258C418.704 81.8019 418.097 83.3498 416.867 83.9628C415.637 84.5758 413.8 84.8976 411.34 84.8976C408.88 84.8976 407.043 84.5911 405.813 83.9628C404.583 83.3498 403.975 81.7866 403.975 79.6258V39.3363C403.975 36.8536 402.442 34.9993 399.678 33.4515C396.914 31.9037 391.995 30.9688 385.86 30.9688H361.914C355.46 30.9688 350.859 31.9037 348.095 33.4515C345.332 34.9993 343.798 37.1755 343.798 39.3363V79.6258C343.798 81.8019 343.191 83.3498 341.961 83.9628C340.731 84.5758 339.197 84.8976 336.737 84.8976H336.722Z" fill="#D0D1D4"/>
<path d="M442.953 58.5676V64.4524C442.953 66.6285 444.487 68.7893 447.25 70.3372C450.014 71.885 454.934 72.8198 461.068 72.8198H474.279C476.116 72.8198 477.043 73.1263 477.65 74.3677C478.257 75.3025 478.257 76.8503 478.257 78.7046C478.257 80.559 477.954 82.1068 477.65 83.0416C477.043 83.9764 476.116 84.5894 474.279 84.5894H460.765C439.278 84.5894 428.527 77.7698 428.527 64.4524V39.35C428.527 26.0325 439.278 19.2129 460.765 19.2129H487.171C498.529 19.2129 506.82 20.7607 512.043 24.1782C517.267 27.5957 519.727 32.5457 519.727 39.3653V52.6827C519.727 54.8589 519.423 56.4067 518.497 57.3262C517.571 58.2457 515.733 58.5676 512.97 58.5676H442.968H442.953ZM442.953 47.0891H504.983V39.3346C504.983 36.5455 503.449 34.6912 500.685 33.1433C497.922 31.5955 493.321 30.9672 486.563 30.9672H461.083C454.63 30.9672 450.029 31.902 447.265 33.4498C444.502 34.9977 442.968 37.1738 442.968 39.3346V47.0891H442.953Z" fill="#D0D1D4"/>
<path d="M526.771 36.8714C526.771 31.5996 528.927 27.2626 533.528 24.1669C538.129 21.0713 544.886 19.5234 553.8 19.5234H569.455C571.293 19.5234 572.219 19.8299 572.826 21.0713C573.434 22.3126 573.753 23.5539 573.753 25.4082C573.753 27.2626 573.449 28.8104 572.826 29.7452C572.204 30.6801 570.989 31.2931 569.455 31.2931H553.8C549.502 31.2931 546.116 31.9061 544.279 32.8409C542.442 33.7757 541.212 35.3235 541.212 37.1779V40.2735C541.212 42.1278 542.442 43.3692 544.279 44.6105C546.435 45.8518 549.806 46.1583 554.407 46.1583H579.584C590.334 46.1583 598.003 47.7062 602.619 50.8018C607.235 53.8975 609.68 58.2344 609.68 63.8128V67.5367C609.68 70.3259 609.072 72.8085 607.842 74.9694C606.612 77.1455 604.775 78.9999 602.011 80.5477C599.551 82.0955 596.18 83.3368 591.883 83.9498C587.586 84.5628 582.985 85.1912 577.139 85.1912H530.78C528.942 85.1912 528.016 84.8847 527.409 83.6433C526.801 82.402 526.482 81.1607 526.482 79.3064C526.482 77.452 526.786 75.9042 527.409 74.9694C528.031 74.0345 529.246 73.4215 530.78 73.4215H579.295C582.362 73.4215 584.822 73.4215 586.978 73.115C589.135 72.8085 590.668 72.502 591.898 71.8737C593.128 71.2454 593.736 70.6324 594.358 70.0194C594.981 69.4064 594.966 68.4716 594.966 67.5367V63.5063C594.966 62.5714 594.662 61.6519 594.358 61.0236C594.055 60.3953 593.128 59.7823 591.898 59.1693C590.668 58.5563 589.135 58.2344 587.297 57.9279C585.46 57.6214 583 57.6214 579.933 57.6214H554.453C545.236 57.6214 538.175 56.0736 533.574 52.978C528.973 49.8823 526.513 45.8518 526.513 40.58L526.816 36.856L526.771 36.8714Z" fill="#D0D1D4"/>
<path d="M617.048 36.8714C617.048 31.5996 619.204 27.2626 623.805 24.1669C628.406 21.0713 635.164 19.5234 644.077 19.5234H659.733C661.57 19.5234 662.496 19.8299 663.104 21.0713C663.711 22.3126 664.03 23.5539 664.03 25.4082C664.03 27.2626 663.726 28.8104 663.104 29.7452C662.481 30.6801 661.266 31.2931 659.733 31.2931H644.077C639.78 31.2931 636.394 31.9061 634.556 32.8409C632.719 33.7757 631.489 35.3235 631.489 37.1779V40.2735C631.489 42.1278 632.719 43.3692 634.556 44.6105C636.712 45.8518 640.084 46.1583 644.684 46.1583H669.861C680.612 46.1583 688.28 47.7062 692.896 50.8018C697.512 53.8975 699.957 58.2344 699.957 63.8128V67.5367C699.957 70.3259 699.35 72.8085 698.12 74.9694C696.89 77.1455 695.052 78.9999 692.289 80.5477C689.829 82.0955 686.458 83.3368 682.16 83.9498C677.863 84.5628 673.262 85.1912 667.416 85.1912H621.057C619.22 85.1912 618.293 84.8847 617.686 83.6433C617.079 82.402 616.76 81.1607 616.76 79.3064C616.76 77.452 617.063 75.9042 617.686 74.9694C618.309 74.0345 619.523 73.4215 621.057 73.4215H669.572C672.64 73.4215 675.1 73.4215 677.256 73.115C679.412 72.8085 680.946 72.502 682.176 71.8737C683.406 71.2454 684.013 70.6324 684.636 70.0194C685.258 69.4064 685.243 68.4716 685.243 67.5367V63.5063C685.243 62.5714 684.939 61.6519 684.636 61.0236C684.332 60.3953 683.406 59.7823 682.176 59.1693C680.946 58.5563 679.412 58.2344 677.575 57.9279C675.737 57.6214 673.277 57.6214 670.21 57.6214H644.73C635.513 57.6214 628.452 56.0736 623.851 52.978C619.25 49.8823 616.79 45.8518 616.79 40.58L617.094 36.856L617.048 36.8714Z" fill="#D0D1D4"/>
</svg>
