<svg width="18" height="18" viewBox="0 0 18 18" fill="none" xmlns="http://www.w3.org/2000/svg">
<path d="M13.5625 17.9997C12.6165 17.9997 11.6203 17.7736 10.5905 17.3383C9.58587 16.9113 8.57287 16.3253 7.58498 15.6137C6.60546 14.8937 5.65943 14.09 4.76363 13.2109C3.87621 12.3151 3.0725 11.3691 2.36089 10.398C1.6409 9.39332 1.06324 8.38869 0.653011 7.41754C0.21767 6.37942 0 5.37479 0 4.42876C0 3.77575 0.117207 3.15622 0.34325 2.57856C0.577664 1.98415 0.954401 1.4316 1.46509 0.954401C2.10973 0.318134 2.84646 0 3.63342 0C3.95993 0 4.29481 0.0753475 4.57945 0.209299C4.90596 0.359993 5.18223 0.586036 5.38316 0.887426L7.32545 3.62505C7.50126 3.86784 7.63521 4.10225 7.7273 4.33667C7.83614 4.58782 7.89474 4.83898 7.89474 5.08177C7.89474 5.3999 7.80265 5.70966 7.62684 6.00268C7.50126 6.22872 7.3087 6.47151 7.06592 6.7143L6.49663 7.3087C6.505 7.33382 6.51337 7.35056 6.52174 7.36731C6.62221 7.54312 6.82313 7.84451 7.20824 8.29659C7.61847 8.76542 8.00358 9.19239 8.38869 9.58587C8.88263 10.0714 9.29286 10.4566 9.67796 10.7747C10.1552 11.1765 10.4649 11.3775 10.6491 11.4696L10.6324 11.5114L11.2435 10.9086C11.503 10.6491 11.7542 10.4566 11.997 10.331C12.4574 10.0463 13.0435 9.9961 13.6295 10.2389C13.8472 10.331 14.0816 10.4566 14.3328 10.6324L17.1122 12.6081C17.422 12.8174 17.6481 13.0853 17.782 13.4035C17.9076 13.7216 17.9662 14.0146 17.9662 14.3076C17.9662 14.7095 17.8741 15.1114 17.6983 15.4881C17.5225 15.8648 17.3048 16.1913 17.0285 16.4927C16.5513 17.0202 16.0323 17.3969 15.4295 17.6397C14.8518 17.8741 14.2239 17.9997 13.5625 17.9997ZM3.63342 1.25579C3.17297 1.25579 2.746 1.45672 2.33577 1.85857C1.95066 2.21856 1.68276 2.61205 1.51532 3.03901C1.33951 3.47436 1.25579 3.93481 1.25579 4.42876C1.25579 5.20735 1.43997 6.05291 1.80834 6.9236C2.18508 7.81102 2.71251 8.73193 3.38226 9.65285C4.05202 10.5738 4.81387 11.4696 5.65106 12.3151C6.48825 13.1439 7.39242 13.9142 8.32171 14.5923C9.22588 15.2537 10.1552 15.7895 11.0761 16.1746C12.5077 16.7857 13.8472 16.9281 14.9523 16.4676C15.3793 16.2918 15.756 16.0239 16.0992 15.6388C16.2918 15.4295 16.4425 15.2034 16.5681 14.9355C16.6685 14.7262 16.7188 14.5086 16.7188 14.2909C16.7188 14.157 16.6937 14.023 16.6267 13.8723C16.6016 13.8221 16.5513 13.73 16.3923 13.6211L13.6128 11.6454C13.4453 11.5282 13.2946 11.4444 13.1523 11.3858C12.9681 11.3105 12.8928 11.2351 12.6081 11.411C12.4407 11.4947 12.29 11.6203 12.1226 11.7877L11.4863 12.4156C11.1598 12.7337 10.6575 12.8091 10.2724 12.6667L10.0463 12.5663C9.70308 12.3821 9.30123 12.0975 8.85751 11.7207C8.45566 11.3775 8.02032 10.9756 7.49289 10.4566C7.08266 10.038 6.67244 9.59424 6.24547 9.1003C5.85199 8.63984 5.56734 8.24636 5.39153 7.91986L5.29107 7.6687C5.24084 7.47614 5.22409 7.36731 5.22409 7.2501C5.22409 6.94871 5.33293 6.68081 5.54223 6.47151L6.17012 5.8185C6.33756 5.65106 6.46314 5.49199 6.54686 5.34967C6.61383 5.24084 6.63895 5.14874 6.63895 5.06502C6.63895 4.99805 6.61383 4.89759 6.57197 4.79712C6.51337 4.66317 6.42128 4.51248 6.30407 4.35341L4.36178 1.60741C4.27806 1.49021 4.1776 1.40649 4.05202 1.34788C3.91807 1.28928 3.77575 1.25579 3.63342 1.25579ZM10.6324 11.5198L10.4984 12.0891L10.7245 11.503C10.6826 11.4947 10.6491 11.503 10.6324 11.5198Z" fill="#FCF4E9"/>
</svg>
