<svg width="26" height="30" viewBox="0 0 26 30" fill="none" xmlns="http://www.w3.org/2000/svg">
<rect x="0.477396" y="3.1229" width="24.7011" height="24.7011" rx="12.3506" stroke="#393939" stroke-width="0.734089"/>
<path d="M16.9353 16.9722C16.6348 16.6592 16.2722 16.4919 15.888 16.4919C15.5068 16.4919 15.1412 16.6561 14.8282 16.9691L13.849 17.9452C13.7685 17.9018 13.6879 17.8615 13.6104 17.8212C13.4989 17.7654 13.3935 17.7128 13.3037 17.657C12.3865 17.0744 11.5529 16.3153 10.7534 15.333C10.3661 14.8434 10.1058 14.4312 9.91681 14.0129C10.1709 13.7805 10.4064 13.5388 10.6357 13.3064C10.7225 13.2197 10.8092 13.1298 10.896 13.043C11.5467 12.3923 11.5467 11.5495 10.896 10.8987L10.05 10.0528C9.95398 9.95674 9.85482 9.85759 9.76185 9.75843C9.57595 9.56631 9.38072 9.36799 9.17931 9.18207C8.87875 8.8846 8.51928 8.72656 8.14125 8.72656C7.76321 8.72656 7.39756 8.8846 7.08769 9.18207C7.08459 9.18517 7.08459 9.18517 7.0815 9.18827L6.02794 10.2511C5.63131 10.6478 5.4051 11.1312 5.35552 11.692C5.28116 12.5968 5.54764 13.4397 5.75216 13.9912C6.25414 15.3454 7.00403 16.6003 8.12265 17.9452C9.47988 19.5658 11.1129 20.8455 12.9783 21.7473C13.691 22.085 14.6423 22.4848 15.7052 22.5529C15.7702 22.556 15.8384 22.5591 15.9004 22.5591C16.6162 22.5591 17.2173 22.3019 17.6883 21.7906C17.6914 21.7844 17.6976 21.7814 17.7007 21.7752C17.8619 21.5799 18.0478 21.4033 18.243 21.2143C18.3762 21.0872 18.5126 20.954 18.6458 20.8146C18.9526 20.4954 19.1137 20.1235 19.1137 19.7424C19.1137 19.3582 18.9495 18.9894 18.6365 18.6796L16.9353 16.9722ZM18.0447 20.2351C18.0416 20.2351 18.0416 20.2382 18.0447 20.2351C17.9238 20.3652 17.7999 20.483 17.6666 20.6132C17.4652 20.8052 17.2607 21.0067 17.0686 21.2329C16.7556 21.5675 16.3869 21.7256 15.9035 21.7256C15.857 21.7256 15.8074 21.7256 15.7609 21.7225C14.8406 21.6636 13.9854 21.3041 13.3439 20.9974C11.5901 20.1483 10.05 18.943 8.77028 17.4153C7.71363 16.1417 7.00713 14.9642 6.53922 13.7C6.25105 12.9284 6.14569 12.3273 6.19217 11.7602C6.22316 11.3976 6.3626 11.0971 6.61979 10.8399L7.67644 9.78322C7.82828 9.64068 7.98941 9.56321 8.14745 9.56321C8.34265 9.56321 8.50069 9.68096 8.59985 9.78012C8.60296 9.78322 8.60605 9.78631 8.60916 9.78941C8.79817 9.96604 8.97791 10.1489 9.16692 10.3441C9.26297 10.4432 9.36213 10.5424 9.46129 10.6447L10.3072 11.4906C10.6357 11.8191 10.6357 12.1227 10.3072 12.4512C10.2174 12.541 10.1306 12.6309 10.0407 12.7177C9.78044 12.9842 9.53255 13.2321 9.26297 13.4738C9.25677 13.4799 9.25058 13.4831 9.24749 13.4893C8.98099 13.7557 9.03058 14.016 9.08635 14.1927C9.08946 14.2019 9.09254 14.2112 9.09565 14.2206C9.31565 14.7535 9.62552 15.2555 10.0965 15.8536L10.0996 15.8567C10.9549 16.9102 11.8566 17.7314 12.8513 18.3604C12.9783 18.441 13.1084 18.506 13.2324 18.568C13.3439 18.6238 13.4493 18.6764 13.5392 18.7322C13.5516 18.7384 13.564 18.7477 13.5764 18.7539C13.6817 18.8066 13.7809 18.8314 13.8831 18.8314C14.1403 18.8314 14.3014 18.6703 14.3541 18.6176L15.4139 17.5578C15.5192 17.4525 15.6866 17.3254 15.8818 17.3254C16.0739 17.3254 16.2319 17.4463 16.328 17.5516C16.3311 17.5547 16.3311 17.5547 16.3342 17.5578L18.0416 19.2652C18.3607 19.5813 18.3607 19.9066 18.0447 20.2351Z" fill="#393939"/>
<path d="M18.0447 20.2351C18.0416 20.2351 18.0416 20.2382 18.0447 20.2351ZM18.0447 20.2351C17.9238 20.3652 17.7999 20.483 17.6666 20.6132C17.4652 20.8052 17.2607 21.0067 17.0686 21.2329C16.7556 21.5675 16.3869 21.7256 15.9035 21.7256C15.857 21.7256 15.8074 21.7256 15.7609 21.7225C14.8406 21.6636 13.9854 21.3041 13.3439 20.9974C11.5901 20.1483 10.05 18.943 8.77028 17.4153C7.71363 16.1417 7.00713 14.9642 6.53922 13.7C6.25105 12.9284 6.14569 12.3273 6.19217 11.7602C6.22316 11.3976 6.3626 11.0971 6.61979 10.8399L7.67644 9.78322C7.82828 9.64068 7.98941 9.56321 8.14745 9.56321C8.34265 9.56321 8.50069 9.68096 8.59985 9.78012C8.60296 9.78322 8.60605 9.78631 8.60916 9.78941C8.79817 9.96604 8.97791 10.1489 9.16692 10.3441C9.26297 10.4432 9.36213 10.5424 9.46129 10.6447L10.3072 11.4906C10.6357 11.8191 10.6357 12.1227 10.3072 12.4512C10.2174 12.541 10.1306 12.6309 10.0407 12.7177C9.78044 12.9842 9.53255 13.2321 9.26297 13.4738C9.25677 13.4799 9.25058 13.4831 9.24749 13.4893C8.98099 13.7557 9.03058 14.016 9.08635 14.1927C9.08946 14.2019 9.09254 14.2112 9.09565 14.2206C9.31565 14.7535 9.62552 15.2555 10.0965 15.8536L10.0996 15.8567C10.9549 16.9102 11.8566 17.7314 12.8513 18.3604C12.9783 18.441 13.1084 18.506 13.2324 18.568C13.3439 18.6238 13.4493 18.6764 13.5392 18.7322C13.5516 18.7384 13.564 18.7477 13.5764 18.7539C13.6817 18.8066 13.7809 18.8314 13.8831 18.8314C14.1403 18.8314 14.3014 18.6703 14.3541 18.6176L15.4139 17.5578C15.5192 17.4525 15.6866 17.3254 15.8818 17.3254C16.0739 17.3254 16.2319 17.4463 16.328 17.5516C16.3311 17.5547 16.3311 17.5547 16.3342 17.5578L18.0416 19.2652C18.3607 19.5813 18.3607 19.9066 18.0447 20.2351ZM16.9353 16.9722C16.6347 16.6592 16.2722 16.4919 15.888 16.4919C15.5068 16.4919 15.1412 16.6561 14.8282 16.9691L13.849 17.9452C13.7685 17.9018 13.6879 17.8615 13.6104 17.8212C13.4989 17.7654 13.3935 17.7128 13.3037 17.657C12.3865 17.0744 11.5529 16.3153 10.7534 15.333C10.3661 14.8434 10.1058 14.4312 9.91681 14.0129C10.1709 13.7805 10.4064 13.5388 10.6357 13.3064C10.7225 13.2197 10.8092 13.1298 10.896 13.043C11.5467 12.3923 11.5467 11.5495 10.896 10.8987L10.05 10.0528C9.95398 9.95674 9.85482 9.85759 9.76185 9.75843C9.57595 9.56631 9.38072 9.36799 9.17931 9.18207C8.87875 8.8846 8.51928 8.72656 8.14125 8.72656C7.76321 8.72656 7.39756 8.8846 7.08769 9.18207C7.08459 9.18517 7.08459 9.18517 7.0815 9.18827L6.02794 10.2511C5.63131 10.6478 5.4051 11.1312 5.35552 11.692C5.28116 12.5968 5.54764 13.4397 5.75216 13.9912C6.25414 15.3454 7.00403 16.6003 8.12265 17.9452C9.47988 19.5658 11.1129 20.8455 12.9783 21.7473C13.691 22.085 14.6423 22.4848 15.7052 22.5529C15.7702 22.556 15.8384 22.5591 15.9004 22.5591C16.6162 22.5591 17.2173 22.3019 17.6883 21.7906C17.6914 21.7844 17.6976 21.7814 17.7007 21.7752C17.8619 21.5799 18.0478 21.4033 18.243 21.2143C18.3762 21.0872 18.5126 20.954 18.6458 20.8146C18.9526 20.4954 19.1137 20.1235 19.1137 19.7424C19.1137 19.3582 18.9495 18.9894 18.6365 18.6796L16.9353 16.9722Z" stroke="#393939" stroke-width="0.293636"/>
<path d="M13.2672 11.3709C14.079 11.5072 14.8165 11.8915 15.4053 12.4802C15.994 13.0689 16.3752 13.8064 16.5146 14.6183C16.5487 14.8228 16.7253 14.9654 16.9267 14.9654C16.9515 14.9654 16.9732 14.9622 16.998 14.9592C17.2273 14.922 17.3791 14.705 17.342 14.4757C17.1746 13.4935 16.7098 12.5979 16.0002 11.8883C15.2906 11.1787 14.3951 10.7139 13.4128 10.5466C13.1835 10.5094 12.9697 10.6613 12.9294 10.8875C12.8891 11.1137 13.0379 11.3337 13.2672 11.3709Z" fill="#393939" stroke="#393939" stroke-width="0.293636"/>
<path d="M19.998 14.3554C19.7222 12.7378 18.9599 11.266 17.7886 10.0946C16.6173 8.92335 15.1454 8.16107 13.5279 7.88528C13.3017 7.845 13.0879 7.99994 13.0476 8.22614C13.0104 8.45544 13.1622 8.66925 13.3915 8.70953C14.8355 8.95433 16.1525 9.63914 17.1998 10.6834C18.2472 11.7307 18.9289 13.0477 19.1737 14.4917C19.2078 14.6962 19.3844 14.8387 19.5858 14.8387C19.6106 14.8387 19.6323 14.8357 19.6571 14.8325C19.8833 14.7985 20.0382 14.5816 19.998 14.3554Z" fill="#393939" stroke="#393939" stroke-width="0.293636"/>
</svg>
