<svg width="252" height="15" viewBox="0 0 252 15" fill="none" xmlns="http://www.w3.org/2000/svg">
<g clip-path="url(#clip0_4708_124967)">
<path d="M19.6877 8.68397C19.6877 9.34624 19.512 9.88178 19.1059 10.2967C18.7575 10.7096 18.2333 11.0408 17.6487 11.2881C17.064 11.5354 16.3671 11.6601 15.6096 11.7419C14.8522 11.8236 14.0372 11.8666 13.2797 11.8666H1.05419C0.414835 11.8666 0.0634766 11.6192 0.0634766 11.1225V1.40921C0.0634766 0.955428 0.411955 0.706055 1.05419 0.706055H13.1098C14.0429 0.706055 14.9156 0.746936 15.673 0.830742C16.4304 0.912503 17.1303 1.07807 17.712 1.32745C18.2938 1.57682 18.7027 1.90591 18.9936 2.31881C19.2845 2.73171 19.4602 3.26929 19.4602 3.88864C19.4602 4.42622 19.345 4.92292 19.0512 5.29494C18.7603 5.70784 18.2362 6.03897 17.4788 6.2863C18.1181 6.45187 18.6423 6.74008 19.0512 7.07122C19.5178 7.48412 19.6906 7.98082 19.6906 8.68397H19.6877ZM16.776 8.72485C16.776 8.4346 16.7184 8.18727 16.6608 7.98082C16.6032 7.77437 16.37 7.6088 16.1367 7.48412C15.9034 7.35943 15.4973 7.27767 15.0308 7.19386C14.5642 7.11005 13.9248 7.1121 13.225 7.1121H2.91754V10.2129H13.4583C14.1581 10.2129 14.7399 10.172 15.146 10.1312C15.5549 10.0903 15.9034 9.96559 16.1367 9.88383C16.37 9.75914 16.5456 9.6365 16.6032 9.43005C16.6608 9.2236 16.7789 9.01715 16.7789 8.7269L16.776 8.72485ZM3.03274 5.41963H13.3402C13.9796 5.41963 14.5037 5.41963 14.9703 5.37875C15.3792 5.33787 15.7853 5.25406 16.0186 5.1723C16.2519 5.09054 16.4852 4.92497 16.6004 4.71852C16.7156 4.51207 16.776 4.26474 16.776 3.93361C16.776 3.68628 16.7184 3.4369 16.6608 3.23045C16.6032 3.024 16.4276 2.85844 16.1943 2.77667C15.961 2.65199 15.6125 2.57023 15.2036 2.52935C14.7946 2.48846 14.2128 2.44758 13.5159 2.44758H3.03274V5.42372V5.41963Z" fill="#FCF4E9"/>
<path d="M37.275 3.10547C37.7416 3.10547 38.09 3.14635 38.3233 3.23016C38.5566 3.31192 38.6718 3.52041 38.6718 3.80862V9.18242C38.6718 10.9587 36.6328 11.8683 32.5576 11.8683H27.3736C23.2984 11.8683 21.2594 10.9587 21.2594 9.18242V3.80862C21.2594 3.51837 21.3746 3.31192 21.6079 3.23016C21.8412 3.14839 22.1896 3.10547 22.6562 3.10547C23.1227 3.10547 23.4712 3.14635 23.7045 3.23016C23.9378 3.31192 24.053 3.52041 24.053 3.80862V9.18242C24.053 9.51356 24.3439 9.76089 24.868 9.96734C25.3922 10.1738 26.3253 10.2985 27.4888 10.2985H32.4971C33.7211 10.2985 34.5937 10.1738 35.1179 9.96734C35.642 9.76089 35.9329 9.47063 35.9329 9.18242V3.80862C35.9329 3.51837 36.0481 3.31192 36.2814 3.23016C36.4571 3.14839 36.8056 3.10547 37.2721 3.10547H37.275Z" fill="#FCF4E9"/>
<path d="M40.3074 5.50039C40.3074 4.79723 40.7163 4.21877 41.589 3.80587C42.4616 3.39297 43.7432 3.18652 45.4337 3.18652H48.403C48.7515 3.18652 48.9272 3.2274 49.0424 3.39297C49.1576 3.55854 49.218 3.72411 49.218 3.97144C49.218 4.21877 49.1604 4.42522 49.0424 4.5499C48.9243 4.67459 48.6939 4.75635 48.403 4.75635H45.4337C44.6187 4.75635 43.9765 4.83811 43.628 4.9628C43.2795 5.08749 43.0462 5.29394 43.0462 5.54127V5.95416C43.0462 6.20149 43.2219 6.36706 43.628 6.53263C44.0341 6.6982 44.6763 6.73908 45.5489 6.73908H50.324C52.363 6.73908 53.8174 6.94553 54.6929 7.35842C55.5655 7.77132 56.0321 8.34979 56.0321 9.09382V9.59052C56.0321 9.96254 55.9169 10.2937 55.6836 10.5819C55.4503 10.8701 55.1019 11.1195 54.5777 11.3259C54.1111 11.5324 53.4718 11.6979 52.6568 11.7797C51.8417 11.8615 50.9691 11.9453 49.8603 11.9453H41.1253C40.7768 11.9453 40.6011 11.9044 40.4859 11.7388C40.3707 11.5733 40.3103 11.4077 40.3103 11.1604C40.3103 10.913 40.3679 10.7066 40.4859 10.5819C40.604 10.4572 40.8344 10.3754 41.1253 10.3754H50.3268C50.9086 10.3754 51.3752 10.3754 51.7841 10.3346C52.1931 10.2937 52.484 10.2528 52.7172 10.169C52.9505 10.0872 53.1262 10.0034 53.1838 9.92166C53.299 9.8399 53.299 9.71521 53.299 9.59052V9.05294C53.299 8.92825 53.2414 8.80561 53.1838 8.7218C53.1262 8.638 52.9505 8.55624 52.7172 8.47447C52.484 8.39271 52.1931 8.34979 51.8446 8.30891C51.4961 8.26803 51.0296 8.26803 50.4478 8.26803H45.6152C43.867 8.26803 42.5278 8.06158 41.6552 7.64868C40.7826 7.23578 40.316 6.6982 40.316 5.99505V5.49834L40.3074 5.50039Z" fill="#FCF4E9"/>
<path d="M57.3126 1.61636C57.3126 1.28523 57.4278 1.0379 57.7216 0.87233C58.0153 0.706762 58.4214 0.625 59.0032 0.625C59.5849 0.625 60.0515 0.706762 60.2848 0.87233C60.518 1.0379 60.6937 1.28523 60.6937 1.61636C60.6937 1.9475 60.5785 2.19483 60.2848 2.3604C59.991 2.52596 59.5849 2.60773 59.0032 2.60773C58.4214 2.60773 57.9549 2.52596 57.7216 2.3604C57.4883 2.19483 57.3126 1.9475 57.3126 1.61636ZM60.4576 11.207C60.4576 11.4973 60.3424 11.7037 60.1091 11.7855C59.8758 11.8673 59.5273 11.9102 59.0608 11.9102C58.5942 11.9102 58.2457 11.8693 58.0125 11.7855C57.7792 11.7037 57.664 11.4952 57.664 11.207V3.93227C57.664 3.64201 57.7792 3.43557 58.0125 3.3538C58.2457 3.27204 58.5942 3.22912 59.0608 3.22912C59.5273 3.22912 59.8758 3.27 60.1091 3.3538C60.3424 3.43557 60.4576 3.64406 60.4576 3.93227V11.207Z" fill="#FCF4E9"/>
<path d="M63.7672 11.9054C63.3006 11.9054 62.9521 11.8645 62.7188 11.7807C62.4856 11.699 62.3704 11.4905 62.3704 11.2023V5.82846C62.3704 4.05218 64.4094 3.14258 68.4846 3.14258H73.202C77.2772 3.14258 79.3162 4.05218 79.3162 5.82846V11.2023C79.3162 11.4925 79.201 11.699 78.9677 11.7807C78.7344 11.8625 78.386 11.9054 77.9194 11.9054C77.4528 11.9054 77.1044 11.8645 76.8711 11.7807C76.6378 11.699 76.5226 11.4905 76.5226 11.2023V5.82846C76.5226 5.49732 76.2317 5.24999 75.7076 5.04354C75.1834 4.83709 74.2503 4.71241 73.0868 4.71241H68.5451C67.3211 4.71241 66.4484 4.83709 65.9243 5.04354C65.4001 5.24999 65.1092 5.54025 65.1092 5.82846V11.2023C65.1092 11.4925 64.994 11.699 64.7608 11.7807C64.5275 11.8625 64.2366 11.9054 63.77 11.9054H63.7672Z" fill="#FCF4E9"/>
<path d="M83.9157 8.39365V9.17856C83.9157 9.46881 84.2066 9.75703 84.7307 9.96347C85.2549 10.1699 86.188 10.2946 87.3515 10.2946H89.8571C90.2056 10.2946 90.3812 10.3355 90.4964 10.5011C90.6116 10.6257 90.6116 10.8322 90.6116 11.0795C90.6116 11.3269 90.554 11.5333 90.4964 11.658C90.3812 11.7827 90.2056 11.8644 89.8571 11.8644H87.2939C83.2187 11.8644 81.1797 10.9548 81.1797 9.17856V5.83041C81.1797 4.05413 83.2187 3.14453 87.2939 3.14453H92.3022C94.4564 3.14453 96.0289 3.35098 97.0196 3.8068C98.0103 4.26263 98.4769 4.92285 98.4769 5.83245V7.60873C98.4769 7.89899 98.4193 8.10543 98.2436 8.22808C98.0679 8.35072 97.7194 8.39365 97.1953 8.39365H83.9186H83.9157ZM83.9157 6.86265H95.6804V5.82837C95.6804 5.45635 95.3895 5.20902 94.8654 5.00257C94.3412 4.79612 93.4686 4.71232 92.187 4.71232H87.3544C86.1304 4.71232 85.2577 4.837 84.7336 5.04345C84.2094 5.2499 83.9186 5.54015 83.9186 5.82837V6.86265H83.9157Z" fill="#FCF4E9"/>
<path d="M99.819 5.50039C99.819 4.79723 100.228 4.21877 101.101 3.80587C101.973 3.39297 103.255 3.18652 104.945 3.18652H107.915C108.263 3.18652 108.439 3.2274 108.554 3.39297C108.669 3.55854 108.73 3.72411 108.73 3.97144C108.73 4.21877 108.672 4.42522 108.554 4.5499C108.436 4.67459 108.206 4.75635 107.915 4.75635H104.945C104.13 4.75635 103.488 4.83811 103.14 4.9628C102.791 5.08749 102.558 5.29394 102.558 5.54127V5.95416C102.558 6.20149 102.791 6.36706 103.14 6.53263C103.549 6.6982 104.188 6.73908 105.061 6.73908H109.836C111.875 6.73908 113.329 6.94553 114.205 7.35842C115.08 7.77132 115.544 8.34979 115.544 9.09382V9.59052C115.544 9.96254 115.429 10.2937 115.195 10.5819C114.962 10.8721 114.613 11.1195 114.089 11.3259C113.623 11.5324 112.983 11.6979 112.168 11.7797C111.353 11.8615 110.481 11.9453 109.372 11.9453H100.579C100.231 11.9453 100.055 11.9044 99.94 11.7388C99.8248 11.5733 99.7643 11.4077 99.7643 11.1604C99.7643 10.913 99.8219 10.7066 99.94 10.5819C100.058 10.4572 100.288 10.3754 100.579 10.3754H109.781C110.363 10.3754 110.829 10.3754 111.238 10.3346C111.647 10.2937 111.938 10.2528 112.171 10.169C112.405 10.0852 112.52 10.0034 112.638 9.92166C112.756 9.8399 112.753 9.71521 112.753 9.59052V9.05294C112.753 8.92825 112.695 8.80561 112.638 8.7218C112.58 8.638 112.405 8.55624 112.171 8.47447C111.938 8.39271 111.647 8.34979 111.299 8.30891C110.95 8.26803 110.484 8.26803 109.902 8.26803H105.069C103.321 8.26803 101.982 8.06158 101.109 7.64868C100.237 7.23578 99.77 6.6982 99.77 5.99505L99.8276 5.49834L99.819 5.50039Z" fill="#FCF4E9"/>
<path d="M116.94 5.50039C116.94 4.79723 117.349 4.21877 118.222 3.80587C119.094 3.39297 120.376 3.18652 122.066 3.18652H125.036C125.384 3.18652 125.56 3.2274 125.675 3.39297C125.79 3.55854 125.851 3.72411 125.851 3.97144C125.851 4.21877 125.793 4.42522 125.675 4.5499C125.557 4.67459 125.327 4.75635 125.036 4.75635H122.066C121.251 4.75635 120.609 4.83811 120.261 4.9628C119.912 5.08749 119.679 5.29394 119.679 5.54127V5.95416C119.679 6.20149 119.912 6.36706 120.261 6.53263C120.67 6.6982 121.309 6.73908 122.182 6.73908H126.957C128.996 6.73908 130.45 6.94553 131.326 7.35842C132.201 7.77132 132.665 8.34979 132.665 9.09382V9.59052C132.665 9.96254 132.55 10.2937 132.316 10.5819C132.083 10.8721 131.735 11.1195 131.21 11.3259C130.744 11.5324 130.105 11.6979 129.289 11.7797C128.474 11.8615 127.602 11.9453 126.493 11.9453H117.7C117.352 11.9453 117.176 11.9044 117.061 11.7388C116.946 11.5733 116.885 11.4077 116.885 11.1604C116.885 10.913 116.943 10.7066 117.061 10.5819C117.179 10.4572 117.41 10.3754 117.7 10.3754H126.902C127.484 10.3754 127.95 10.3754 128.359 10.3346C128.768 10.2937 129.059 10.2528 129.292 10.169C129.526 10.0852 129.641 10.0034 129.759 9.92166C129.877 9.8399 129.874 9.71521 129.874 9.59052V9.05294C129.874 8.92825 129.817 8.80561 129.759 8.7218C129.701 8.638 129.526 8.55624 129.292 8.47447C129.059 8.39271 128.768 8.34979 128.42 8.30891C128.071 8.26803 127.605 8.26803 127.023 8.26803H122.19C120.442 8.26803 119.103 8.06158 118.23 7.64868C117.358 7.23578 116.891 6.6982 116.891 5.99505L116.949 5.49834L116.94 5.50039Z" fill="#FCF4E9"/>
<path d="M161.545 8.68397C161.545 9.34624 161.369 9.88178 160.963 10.2967C160.614 10.7096 160.09 11.0408 159.506 11.2881C158.924 11.5354 158.224 11.6601 157.467 11.7419C156.709 11.8236 155.894 11.8666 155.137 11.8666H142.908C142.269 11.8666 141.918 11.6192 141.918 11.1225V1.40921C141.918 0.955428 142.266 0.706055 142.908 0.706055H154.964C155.897 0.706055 156.77 0.746936 157.527 0.830742C158.285 0.912503 158.984 1.07807 159.566 1.32745C160.148 1.57477 160.557 1.90591 160.848 2.31881C161.139 2.73171 161.314 3.26929 161.314 3.88864C161.314 4.42622 161.199 4.92292 160.905 5.29494C160.614 5.70784 160.09 6.03897 159.333 6.2863C159.972 6.45187 160.496 6.74008 160.905 7.07122C161.314 7.48412 161.545 7.98082 161.545 8.68397ZM158.573 8.72485C158.573 8.4346 158.515 8.18727 158.457 7.98082C158.4 7.77437 158.166 7.6088 157.933 7.48412C157.642 7.35943 157.294 7.27767 156.827 7.19386C156.361 7.11005 155.721 7.1121 155.022 7.1121H144.772V10.2129H155.312C156.012 10.2129 156.594 10.172 157 10.1312C157.409 10.0903 157.758 9.96559 157.991 9.88383C158.224 9.75914 158.4 9.6365 158.457 9.43005C158.515 9.2236 158.573 9.01715 158.573 8.7269V8.72485ZM144.829 5.41963H155.137C155.776 5.41963 156.3 5.41963 156.767 5.37875C157.176 5.33787 157.582 5.25406 157.815 5.1723C158.048 5.09054 158.282 4.92497 158.397 4.71852C158.512 4.51207 158.573 4.26474 158.573 3.93361C158.573 3.68628 158.515 3.4369 158.457 3.23045C158.4 3.024 158.224 2.85844 157.991 2.77667C157.758 2.65199 157.409 2.57023 157 2.52935C156.591 2.48846 156.009 2.44758 155.312 2.44758H144.887L144.829 5.42372V5.41963Z" fill="#FCF4E9"/>
<path d="M179.08 3.10547C179.547 3.10547 179.895 3.14635 180.128 3.23016C180.362 3.31192 180.477 3.52041 180.477 3.80862V9.18242C180.477 10.9587 178.438 11.8683 174.363 11.8683H169.179C165.103 11.8683 163.064 10.9587 163.064 9.18242V3.80862C163.064 3.51837 163.18 3.31192 163.413 3.23016C163.646 3.14839 163.995 3.10547 164.461 3.10547C164.928 3.10547 165.276 3.14635 165.51 3.23016C165.743 3.31192 165.858 3.52041 165.858 3.80862V9.18242C165.858 9.51356 166.149 9.76089 166.673 9.96734C167.197 10.1738 168.13 10.2985 169.294 10.2985H174.302C175.526 10.2985 176.399 10.1738 176.923 9.96734C177.447 9.76089 177.738 9.47063 177.738 9.18242V3.80862C177.738 3.51837 177.853 3.31192 178.086 3.23016C178.32 3.14839 178.611 3.10547 179.077 3.10547H179.08Z" fill="#FCF4E9"/>
<path d="M182.049 1.61636C182.049 1.28523 182.165 1.0379 182.458 0.87233C182.752 0.706762 183.158 0.625 183.74 0.625C184.322 0.625 184.788 0.706762 185.021 0.87233C185.255 1.0379 185.43 1.28523 185.43 1.61636C185.43 1.9475 185.315 2.19483 185.021 2.3604C184.728 2.52596 184.322 2.60773 183.74 2.60773C183.158 2.60773 182.692 2.52596 182.458 2.3604C182.225 2.19483 182.049 1.9475 182.049 1.61636ZM185.194 11.207C185.194 11.4973 185.079 11.7037 184.846 11.7855C184.612 11.8673 184.264 11.9102 183.797 11.9102C183.331 11.9102 182.982 11.8693 182.749 11.7855C182.516 11.7037 182.401 11.4952 182.401 11.207V3.93227C182.401 3.64201 182.516 3.43557 182.749 3.3538C182.982 3.27204 183.331 3.22912 183.797 3.22912C184.264 3.22912 184.612 3.27 184.846 3.3538C185.079 3.43761 185.194 3.64406 185.194 3.93227V11.207Z" fill="#FCF4E9"/>
<path d="M189.964 11.2062C189.964 11.4964 189.849 11.7029 189.615 11.7847C189.382 11.8664 189.034 11.9093 188.567 11.9093C188.1 11.9093 187.752 11.8685 187.519 11.7847C187.285 11.7029 187.17 11.4944 187.17 11.2062V1.36819C187.17 1.07794 187.285 0.871488 187.519 0.789726C187.752 0.707964 188.1 0.665039 188.567 0.665039C189.034 0.665039 189.382 0.70592 189.615 0.789726C189.849 0.871488 189.964 1.07998 189.964 1.36819V11.2062Z" fill="#FCF4E9"/>
<path d="M206.506 1.36819C206.506 1.07794 206.621 0.871488 206.855 0.789726C207.088 0.707964 207.436 0.665039 207.903 0.665039C208.37 0.665039 208.718 0.70592 208.951 0.789726C209.185 0.871488 209.3 1.07998 209.3 1.36819V9.18054C209.3 10.9568 207.261 11.8664 203.186 11.8664H198.002C193.926 11.8664 191.887 10.9568 191.887 9.18054V5.83239C191.887 4.05611 193.926 3.14651 198.002 3.14651H206.621L206.506 1.37024V1.36819ZM198.005 4.71634C196.781 4.71634 195.908 4.84103 195.384 5.04748C194.86 5.25393 194.569 5.54418 194.569 5.83239V9.18054C194.569 9.4708 194.86 9.75901 195.384 9.96546C195.908 10.1719 196.841 10.2966 198.005 10.2966H203.013C204.237 10.2966 205.109 10.1719 205.634 9.96546C206.158 9.75901 206.449 9.46875 206.449 9.18054V4.71634H198.005Z" fill="#FCF4E9"/>
<path d="M210.872 1.61636C210.872 1.28523 210.987 1.0379 211.281 0.87233C211.575 0.706762 211.981 0.625 212.563 0.625C213.144 0.625 213.611 0.706762 213.844 0.87233C214.078 1.0379 214.253 1.28523 214.253 1.61636C214.253 1.9475 214.138 2.19483 213.844 2.3604C213.551 2.52596 213.144 2.60773 212.563 2.60773C211.981 2.60773 211.514 2.52596 211.281 2.3604C211.048 2.19483 210.872 1.9475 210.872 1.61636ZM213.957 11.207C213.957 11.4973 213.841 11.7037 213.608 11.7855C213.375 11.8673 213.026 11.9102 212.56 11.9102C212.093 11.9102 211.745 11.8693 211.512 11.7855C211.278 11.7037 211.163 11.4952 211.163 11.207V3.93227C211.163 3.64201 211.278 3.43557 211.512 3.3538C211.745 3.27204 212.093 3.22912 212.56 3.22912C213.026 3.22912 213.375 3.27 213.608 3.3538C213.841 3.43761 213.957 3.64406 213.957 3.93227V11.207Z" fill="#FCF4E9"/>
<path d="M217.278 11.9054C216.811 11.9054 216.462 11.8645 216.229 11.7807C215.996 11.699 215.881 11.4905 215.881 11.2023V5.82846C215.881 4.05218 217.92 3.14258 221.995 3.14258H226.712C230.788 3.14258 232.827 4.05218 232.827 5.82846V11.2023C232.827 11.4925 232.711 11.699 232.478 11.7807C232.245 11.8625 231.896 11.9054 231.43 11.9054C230.963 11.9054 230.615 11.8645 230.381 11.7807C230.148 11.699 230.033 11.4905 230.033 11.2023V5.82846C230.033 5.49732 229.742 5.24999 229.218 5.04354C228.694 4.83709 227.761 4.71241 226.597 4.71241H222.055C220.831 4.71241 219.959 4.83709 219.435 5.04354C218.91 5.24999 218.62 5.54025 218.62 5.82846V11.2023C218.62 11.4925 218.504 11.699 218.271 11.7807C218.095 11.8625 217.747 11.9054 217.28 11.9054H217.278Z" fill="#FCF4E9"/>
<path d="M243.306 14.3914C242.957 14.3914 242.782 14.3097 242.666 14.185C242.551 14.0603 242.551 13.8539 242.551 13.6065C242.551 13.3592 242.609 13.1528 242.666 13.0281C242.724 12.9034 242.957 12.8216 243.306 12.8216H246.275C247.323 12.8216 248.081 12.7399 248.487 12.5314C248.896 12.3249 249.126 12.0776 249.126 11.7056V11.6238H240.797C236.722 11.6238 234.683 10.7142 234.683 8.93793V5.79623C234.683 4.01995 236.722 3.11035 240.797 3.11035H245.748C249.823 3.11035 251.862 4.01995 251.862 5.79623V11.6647C251.862 12.5743 251.396 13.2345 250.405 13.6495C249.472 14.1032 248.075 14.3117 246.212 14.3117L243.3 14.3935L243.306 14.3914ZM249.187 10.1337V5.83507C249.187 5.54481 248.896 5.2566 248.372 5.05015C247.848 4.8437 246.914 4.71902 245.751 4.71902H240.976C239.752 4.71902 238.879 4.8437 238.355 5.05015C237.831 5.2566 237.54 5.54686 237.54 5.83507V8.97677C237.54 9.3079 237.831 9.55523 238.355 9.76168C238.879 9.96813 239.812 10.0928 240.976 10.0928H249.187V10.1337Z" fill="#FCF4E9"/>
</g>
<defs>
<clipPath id="clip0_4708_124967">
<rect width="251.807" height="13.7643" fill="white" transform="translate(0.0650635 0.625)"/>
</clipPath>
</defs>
</svg>
