<svg width="272" height="654" viewBox="0 0 272 654" fill="none" xmlns="http://www.w3.org/2000/svg">
<g opacity="0.67">
<g opacity="0.3">
<path d="M370.07 275.486L278.839 278.981C278.648 278.429 278.062 277.925 277.102 277.621C275.377 277.074 273.161 277.4 272.165 278.347C271.17 279.294 271.763 280.511 273.488 281.057C275.213 281.604 277.428 281.278 278.424 280.331C278.657 280.11 278.795 279.874 278.863 279.639L369.52 276.166L378.565 282.338L500.517 274.17L500.374 273.519L379.08 281.639L370.054 275.488L370.07 275.486ZM274.198 280.383C273.144 280.049 272.782 279.306 273.39 278.728C273.998 278.149 275.35 277.95 276.404 278.284C277.457 278.618 277.82 279.361 277.212 279.939C276.603 280.518 275.251 280.717 274.198 280.383Z" fill="#F99F1B"/>
<path d="M389.564 295.467C391.289 296.013 393.504 295.687 394.5 294.74C395.496 293.793 394.902 292.577 393.177 292.03C391.452 291.483 389.237 291.809 388.241 292.756C387.883 293.096 387.741 293.467 387.771 293.832C381.615 294.421 328.979 298.34 300.603 300.43L284.414 292.553L246.982 292.777C246.81 292.208 246.221 291.681 245.239 291.37C243.515 290.823 241.299 291.149 240.303 292.096C239.307 293.043 239.901 294.26 241.626 294.807C243.351 295.354 245.566 295.028 246.562 294.08C246.777 293.876 246.913 293.655 246.98 293.434L283.968 293.213L300.223 301.118L300.493 301.098C303.854 300.848 380.03 295.234 388.027 294.465C388.314 294.874 388.836 295.228 389.57 295.461L389.564 295.467ZM242.34 294.141C241.286 293.807 240.924 293.064 241.532 292.486C242.14 291.907 243.493 291.708 244.546 292.042C245.6 292.376 245.962 293.119 245.354 293.697C244.745 294.276 243.393 294.475 242.34 294.141ZM392.474 292.699C393.527 293.033 393.889 293.775 393.281 294.354C392.673 294.932 391.321 295.131 390.267 294.797C389.214 294.463 388.852 293.721 389.46 293.142C390.068 292.564 391.42 292.365 392.474 292.699Z" fill="#F99F1B"/>
<path d="M274.53 254.618C273.745 254.37 272.833 254.307 271.959 254.431C271.079 254.56 270.356 254.868 269.903 255.299C269.45 255.73 269.336 256.231 269.562 256.711C270.029 257.668 271.96 258.28 273.703 258.024C274.583 257.894 275.306 257.587 275.759 257.156C276.212 256.725 276.326 256.224 276.1 255.744C275.865 255.261 275.304 254.864 274.519 254.615L274.53 254.618ZM273.491 257.571C272.823 257.669 272.13 257.608 271.572 257.431C271.014 257.255 270.571 256.955 270.392 256.589C270.03 255.846 270.829 255.086 272.181 254.887C273.534 254.688 274.918 255.127 275.28 255.87C275.642 256.612 274.843 257.372 273.491 257.571Z" fill="#F99F1B"/>
<path d="M241.159 238.474L250.21 229.865L368.914 225.846L380.709 231.786L445.122 227.525C445.588 228.051 446.334 228.507 447.315 228.818C449.97 229.659 453.375 229.158 454.907 227.701C456.44 226.243 455.527 224.374 452.873 223.532C450.219 222.69 446.814 223.191 445.281 224.649C444.542 225.352 444.384 226.157 444.71 226.895L381.11 231.104L369.35 225.183L249.815 229.232L249.498 229.245L240.13 238.155C237.864 237.626 235.163 238.085 233.899 239.288C232.534 240.586 233.339 242.256 235.715 243.009C238.091 243.762 241.121 243.316 242.492 242.012C243.756 240.81 243.141 239.299 241.163 238.483L241.159 238.474ZM452.163 224.207C454.146 224.836 454.827 226.231 453.682 227.32C452.537 228.409 449.996 228.783 448.013 228.154C446.03 227.526 445.349 226.13 446.494 225.041C447.639 223.952 450.18 223.578 452.163 224.207ZM236.414 242.331C234.72 241.794 234.135 240.595 235.113 239.665C236.091 238.735 238.274 238.414 239.968 238.951C241.662 239.488 242.253 240.681 241.269 241.617C240.285 242.552 238.108 242.868 236.414 242.331Z" fill="#F99F1B"/>
<path d="M120.028 237.359C121.97 237.975 124.446 237.611 125.567 236.544C125.86 236.267 126.02 235.97 126.085 235.673L151.11 234.57L156.654 228.236L183.405 226.879C183.569 227.536 184.244 228.151 185.38 228.511C187.322 229.127 189.798 228.762 190.919 227.696C192.04 226.63 191.377 225.27 189.435 224.654C187.493 224.039 185.017 224.403 183.896 225.469C183.646 225.708 183.5 225.964 183.418 226.225L155.872 227.618L150.328 233.951L126.022 235.025C125.811 234.414 125.151 233.849 124.088 233.512C122.146 232.896 119.67 233.261 118.548 234.327C117.427 235.393 118.091 236.753 120.033 237.368L120.028 237.359Z" fill="#F99F1B"/>
<path d="M250.951 270.238L246.992 270.533L247.498 272.577L251.456 272.281L250.951 270.238Z" fill="#F99F1B"/>
<path d="M239.037 271.137L235.079 271.433L235.585 273.476L239.543 273.181L239.037 271.137Z" fill="#F99F1B"/>
<path d="M227.17 272.016L223.212 272.312L223.718 274.355L227.676 274.06L227.17 272.016Z" fill="#F99F1B"/>
<path d="M215.283 272.894L211.325 273.189L211.831 275.233L215.789 274.938L215.283 272.894Z" fill="#F99F1B"/>
<path d="M203.389 273.788L199.431 274.083L199.937 276.127L203.895 275.831L203.389 273.788Z" fill="#F99F1B"/>
<path d="M191.483 274.68L187.525 274.976L188.03 277.019L191.989 276.724L191.483 274.68Z" fill="#F99F1B"/>
<path d="M214.663 240.661L179.925 243.471L185.043 262.546L219.781 259.736L214.663 240.661ZM181.73 244.217L213.326 241.658L217.985 259.008L186.389 261.566L181.73 244.217Z" fill="#F99F1B"/>
<path d="M209.082 244.79L187.438 246.541L190.627 258.426L212.271 256.675L209.082 244.79ZM189.064 247.208L207.868 245.683L210.645 256.008L191.842 257.533L189.064 247.208Z" fill="#F99F1B"/>
<path d="M203.346 249.032L195.217 249.69L196.416 254.154L204.545 253.496L203.346 249.032Z" fill="#F99F1B"/>
<path d="M172.663 212.146C174.388 212.693 176.604 212.367 177.599 211.42C177.975 211.062 178.131 210.666 178.066 210.282L214.638 208.923L229.006 214.302L293.79 210.159C294.086 210.532 294.595 210.86 295.287 211.08C297.012 211.626 299.227 211.3 300.223 210.353C301.219 209.406 300.625 208.189 298.901 207.643C297.176 207.096 294.96 207.422 293.964 208.369C293.583 208.732 293.437 209.132 293.496 209.521L229.32 213.623L214.974 208.251L177.768 209.636C177.472 209.262 176.969 208.928 176.277 208.709C174.552 208.162 172.336 208.488 171.34 209.435C170.345 210.383 170.938 211.599 172.663 212.146ZM298.191 208.318C299.244 208.652 299.607 209.394 298.998 209.973C298.39 210.551 297.038 210.75 295.985 210.416C294.931 210.082 294.569 209.339 295.177 208.761C295.785 208.183 297.137 207.984 298.191 208.318ZM175.573 209.378C176.627 209.712 176.989 210.455 176.381 211.033C175.772 211.612 174.42 211.811 173.367 211.477C172.313 211.143 171.951 210.4 172.559 209.822C173.167 209.243 174.52 209.044 175.573 209.378Z" fill="#F99F1B"/>
<g style="mix-blend-mode:overlay" opacity="0.38">
<path d="M383.342 300.428C379.913 299.34 375.514 299.988 373.535 301.871C373.004 302.375 372.71 302.917 372.618 303.463L309.956 308.037L292.43 324.705L237.36 327.232C236.761 326.506 235.772 325.875 234.43 325.449C231.001 324.362 226.602 325.009 224.622 326.892C222.642 328.775 223.821 331.19 227.25 332.277C230.679 333.364 235.078 332.717 237.057 330.834C237.749 330.176 238.052 329.456 238.006 328.753L294.134 326.176L311.702 309.468L372.898 305.004C373.417 305.924 374.525 306.744 376.167 307.265C379.596 308.352 383.994 307.705 385.974 305.822C387.954 303.939 386.775 301.524 383.346 300.437L383.342 300.428ZM228.641 330.941C226.555 330.28 225.839 328.813 227.043 327.667C228.248 326.521 230.92 326.128 233.006 326.79C235.092 327.451 235.808 328.918 234.604 330.064C233.399 331.209 230.727 331.603 228.641 330.941ZM377.564 305.923C375.477 305.262 374.762 303.795 375.966 302.649C377.171 301.503 379.842 301.11 381.929 301.772C384.015 302.433 384.731 303.9 383.526 305.046C382.322 306.191 379.65 306.585 377.564 305.923Z" fill="#F99F1B"/>
</g>
<g style="mix-blend-mode:overlay" opacity="0.38">
<path d="M162.747 250.902C159.318 249.815 154.919 250.462 152.939 252.345C152.409 252.85 152.114 253.392 152.023 253.937L89.3608 258.512L71.8354 275.18L16.7653 277.707C16.1662 276.98 15.1772 276.349 13.8346 275.923C10.4055 274.836 6.00687 275.484 4.02713 277.366C2.04739 279.249 3.22603 281.665 6.65504 282.752C10.084 283.839 14.4827 283.192 16.4624 281.309C17.1542 280.651 17.4573 279.93 17.4113 279.228L73.5394 276.65L91.1066 259.942L152.303 255.478C152.822 256.399 153.93 257.219 155.572 257.74C159.001 258.827 163.399 258.179 165.379 256.296C167.359 254.414 166.18 251.998 162.751 250.911L162.747 250.902ZM8.04603 281.416C5.95971 280.754 5.24379 279.287 6.44833 278.142C7.65287 276.996 10.3247 276.603 12.411 277.264C14.4973 277.926 15.2132 279.393 14.0087 280.538C12.8041 281.684 10.1324 282.077 8.04603 281.416ZM156.969 256.398C154.882 255.736 154.166 254.269 155.371 253.124C156.576 251.978 159.247 251.585 161.334 252.246C163.42 252.908 164.136 254.375 162.931 255.52C161.727 256.666 159.055 257.059 156.969 256.398Z" fill="#F99F1B"/>
</g>
<g style="mix-blend-mode:overlay" opacity="0.38">
<path d="M17.5975 216.328C17.7486 216.852 18.27 217.312 19.0485 217.619C19.9141 217.962 20.9562 218.058 21.9142 217.946L32.6149 224.559L98.2405 223.912L98.2246 223.324C98.4837 223.838 99.0274 224.29 99.8206 224.609C100.742 224.977 101.87 225.123 102.992 225.025C104.114 224.927 105.102 224.59 105.772 224.084C106.441 223.578 106.707 222.958 106.528 222.342C106.35 221.726 105.736 221.184 104.814 220.816C104.696 220.771 104.568 220.723 104.444 220.683C103.597 220.415 102.614 220.315 101.643 220.4C100.521 220.498 99.5332 220.835 98.8634 221.341C98.4556 221.651 98.2249 222.001 98.1155 222.367L33.8641 223.005L24.2291 217.054C25.2066 216.176 24.8255 215.02 23.2787 214.408C23.171 214.367 23.0737 214.328 22.9704 214.295C22.2578 214.069 21.4227 213.986 20.5922 214.056C19.6374 214.139 18.7993 214.425 18.2396 214.852C17.674 215.286 17.4464 215.803 17.5975 216.328ZM99.7453 221.682C100.241 221.302 100.984 221.053 101.82 220.978C102.657 220.903 103.505 221.013 104.197 221.285C104.888 221.558 105.341 221.966 105.477 222.425C105.614 222.884 105.414 223.35 104.918 223.73C104.422 224.11 103.679 224.358 102.843 224.433C102.114 224.497 101.38 224.423 100.75 224.223C100.657 224.194 100.564 224.164 100.467 224.126C99.775 223.854 99.3227 223.446 99.1859 222.986C99.0491 222.527 99.2496 222.061 99.7453 221.682ZM19.3765 215.304C19.7203 215.042 20.2306 214.871 20.8139 214.814C21.3912 214.763 21.9868 214.838 22.463 215.027C23.4466 215.414 23.6785 216.176 22.9567 216.718C22.2869 217.224 21.0373 217.365 20.0664 217.057C20.0044 217.038 19.9321 217.015 19.8702 216.995C19.3939 216.806 19.0826 216.526 18.9787 216.206C18.8851 215.889 19.0164 215.568 19.3662 215.3L19.3765 215.304Z" fill="#F99F1B"/>
</g>
<g style="mix-blend-mode:overlay" opacity="0.38">
<path d="M35.843 210.67C38.9002 211.639 42.8264 211.061 44.5915 209.383C44.7286 209.252 44.8125 209.12 44.9127 208.985L104.501 206.771L139.237 222.654L140.274 222.597C146.036 222.291 196.737 219.596 201.511 218.894L202.456 218.755L224.5 199.413L309.371 195.104C310.138 196.247 311.566 197.26 313.632 197.915C318.331 199.405 324.369 198.521 327.089 195.935C329.808 193.349 328.182 190.035 323.483 188.546C318.783 187.056 312.739 187.945 310.026 190.525C309.406 191.115 309.038 191.74 308.862 192.38L221.573 196.814L199.293 216.353C192.944 216.957 161.945 218.699 140.797 219.821L106.127 203.967L44.8654 206.241C44.3354 205.566 43.4438 204.973 42.2044 204.58C39.1472 203.611 35.221 204.189 33.4559 205.867C31.6909 207.546 32.7429 209.702 35.8001 210.671L35.843 210.67ZM322.268 189.741C325.779 190.854 326.978 193.329 324.951 195.257C322.923 197.185 318.421 197.852 314.909 196.739C311.397 195.626 310.199 193.151 312.226 191.223C314.254 189.295 318.756 188.627 322.268 189.741ZM41.001 205.764C42.8704 206.357 43.5121 207.672 42.4328 208.698C41.3535 209.725 38.9587 210.077 37.0893 209.484C35.2198 208.892 34.5781 207.577 35.6574 206.55C36.7368 205.524 39.1316 205.171 41.001 205.764Z" fill="#F99F1B"/>
</g>
<path d="M205.405 87.9482L296.636 84.4534C296.827 85.0054 297.413 85.5089 298.374 85.8134C300.099 86.3602 302.314 86.0342 303.31 85.0871C304.306 84.14 303.712 82.9233 301.987 82.3765C300.263 81.8297 298.047 82.1557 297.051 83.1028C296.819 83.324 296.681 83.56 296.612 83.7954L205.955 87.268L196.91 81.0961L74.9421 89.2667L75.0847 89.9169L196.38 81.7975L205.405 87.9482ZM301.273 83.0425C302.327 83.3765 302.689 84.119 302.081 84.6974C301.473 85.2759 300.121 85.4749 299.067 85.1409C298.014 84.8069 297.651 84.0644 298.26 83.4859C298.868 82.9074 300.22 82.7085 301.273 83.0425Z" fill="#F99F1B"/>
<path d="M244.641 50.0552C246.325 50.5889 248.491 50.2701 249.463 49.3457C250.435 48.4212 249.855 47.2315 248.171 46.6977C246.488 46.164 244.321 46.4828 243.349 47.4072C242.377 48.3317 242.958 49.5215 244.641 50.0552ZM247.784 47.0664C249.106 47.4855 249.549 48.4126 248.792 49.1328C248.035 49.8531 246.34 50.1024 245.029 49.6865C243.717 49.2707 243.263 48.3403 244.02 47.6201C244.778 46.8998 246.472 46.6505 247.784 47.0664Z" fill="#F99F1B"/>
<path d="M242.829 48.5433L179.144 53.1866L161.607 69.8661L105.146 72.4589L105.245 73.1106L162.324 70.4941L179.885 53.7919L242.977 49.1878L242.829 48.5433Z" fill="#F99F1B"/>
<path d="M185.902 67.9646C184.177 67.4178 181.961 67.7438 180.965 68.6909C179.97 69.638 180.563 70.8546 182.288 71.4015C184.013 71.9483 186.229 71.6223 187.224 70.6752C187.582 70.3349 187.724 69.964 187.695 69.5992C193.85 69.01 246.486 65.0911 274.862 63.0014L291.051 70.8787L328.483 70.6542C328.656 71.2232 329.245 71.7502 330.226 72.0613C331.951 72.6081 334.166 72.2821 335.162 71.335C336.158 70.3879 335.564 69.1713 333.84 68.6244C332.115 68.0776 329.899 68.4036 328.903 69.3507C328.689 69.5549 328.552 69.7763 328.485 69.9971L291.497 70.2186L275.242 62.3127L274.973 62.3332C271.611 62.5833 195.435 68.1967 187.438 68.9658C187.151 68.5574 186.629 68.2028 185.896 67.9703L185.902 67.9646ZM333.142 69.288C334.195 69.622 334.558 70.3645 333.949 70.943C333.341 71.5214 331.989 71.7204 330.936 71.3864C329.882 71.0524 329.52 70.3099 330.128 69.7314C330.736 69.153 332.088 68.954 333.142 69.288ZM182.992 70.7322C181.938 70.3983 181.576 69.6558 182.184 69.0773C182.792 68.4988 184.145 68.2998 185.198 68.6338C186.252 68.9678 186.614 69.7103 186.006 70.2888C185.397 70.8673 184.045 71.0662 182.992 70.7322Z" fill="#F99F1B"/>
<path d="M188.357 103.232C188.247 103.311 188.12 103.392 188.025 103.483C187.029 104.43 187.623 105.646 189.348 106.193C191.072 106.74 193.288 106.414 194.284 105.467C195.28 104.52 194.686 103.303 192.961 102.756C191.773 102.38 190.347 102.427 189.254 102.798L177.899 97.0814L113.105 101.365L113.138 101.504C112.806 101.021 112.196 100.593 111.318 100.315C109.283 99.6697 106.677 100.053 105.502 101.17C104.327 102.288 105.02 103.725 107.054 104.37C109.089 105.015 111.706 104.635 112.887 103.512C113.388 103.035 113.531 102.506 113.389 102L177.505 97.7579L188.363 103.227L188.357 103.232ZM192.258 103.426C193.311 103.759 193.673 104.502 193.065 105.08C192.457 105.659 191.105 105.858 190.051 105.524C188.998 105.19 188.635 104.447 189.244 103.869C189.852 103.29 191.204 103.092 192.258 103.426ZM107.591 103.859C106.073 103.378 105.549 102.305 106.425 101.471C107.302 100.637 109.257 100.35 110.775 100.831C112.294 101.312 112.817 102.386 111.941 103.219C111.064 104.053 109.109 104.341 107.591 103.859Z" fill="#F99F1B"/>
<path d="M208.195 157.554C206.522 157.024 204.371 157.34 203.405 158.259C203.191 158.463 203.054 158.684 202.998 158.908L169.247 160.164L149.66 151.209L149.413 151.222C148.118 151.287 117.678 152.904 114.99 153.3L114.762 153.333L102.279 164.288L54.1537 166.733C53.8423 165.916 52.9416 165.162 51.5163 164.71C48.8619 163.868 45.457 164.369 43.9245 165.827C42.392 167.284 43.3043 169.154 45.9587 169.995C48.6131 170.837 52.018 170.336 53.5505 168.878C54.0455 168.408 54.2567 167.892 54.2697 167.382L102.976 164.909L115.522 153.907C118.535 153.569 138.586 152.455 149.276 151.889L168.842 160.837L203.006 159.569C203.182 160.109 203.763 160.603 204.683 160.895C206.356 161.425 208.506 161.109 209.472 160.19C210.438 159.271 209.862 158.09 208.189 157.56L208.195 157.554ZM46.664 169.312C44.6809 168.683 43.9999 167.287 45.1449 166.199C46.2898 165.11 48.8312 164.736 50.8143 165.364C52.7973 165.993 53.4783 167.389 52.3334 168.477C51.1885 169.566 48.647 169.94 46.664 169.312ZM205.285 160.322C204.18 159.971 203.8 159.193 204.438 158.586C205.076 157.979 206.494 157.771 207.599 158.121C208.704 158.472 209.084 159.25 208.445 159.857C207.807 160.464 206.39 160.672 205.285 160.322Z" fill="#F99F1B"/>
<path d="M196.622 31.6788C198.563 32.2944 201.04 31.93 202.161 30.8638C203.282 29.7976 202.618 28.4379 200.677 27.8223C198.735 27.2067 196.259 27.571 195.137 28.6373C194.016 29.7035 194.68 31.0632 196.622 31.6788Z" fill="#F99F1B"/>
<path d="M334.313 124.951L325.261 133.56L206.557 137.578L194.762 131.638L130.349 135.9C129.883 135.374 129.137 134.918 128.156 134.607C125.501 133.765 122.097 134.266 120.564 135.724C119.032 137.181 119.944 139.051 122.598 139.893C125.253 140.734 128.658 140.233 130.19 138.776C130.929 138.072 131.087 137.268 130.762 136.529L194.361 132.32L206.121 138.242L325.656 134.192L325.973 134.179L335.341 125.269C337.608 125.799 340.308 125.339 341.572 124.137C342.938 122.838 342.132 121.169 339.756 120.415C337.381 119.662 334.35 120.108 332.979 121.413C331.715 122.615 332.33 124.126 334.308 124.942L334.313 124.951ZM123.312 139.227C121.329 138.598 120.648 137.202 121.793 136.113C122.938 135.025 125.479 134.651 127.463 135.279C129.446 135.908 130.127 137.304 128.982 138.392C127.837 139.481 125.295 139.855 123.312 139.227ZM339.051 121.099C340.745 121.636 341.33 122.835 340.352 123.765C339.374 124.695 337.191 125.016 335.497 124.479C333.803 123.942 333.212 122.749 334.196 121.814C335.18 120.878 337.357 120.562 339.051 121.099Z" fill="#F99F1B"/>
<path d="M177.288 114.008C177.288 114.008 177.294 114.003 177.3 113.997C178.296 113.05 177.702 111.833 175.978 111.286C174.253 110.74 172.037 111.066 171.041 112.013C170.045 112.96 170.639 114.176 172.364 114.723C173.727 115.155 175.381 115.037 176.518 114.505L190.48 120.414L292.312 115.992L301.428 108.999L300.455 108.615L291.66 115.354L190.838 119.733L177.284 113.999L177.288 114.008ZM173.068 114.054C172.014 113.72 171.652 112.978 172.26 112.399C172.868 111.821 174.22 111.622 175.274 111.956C176.327 112.29 176.69 113.032 176.081 113.611C175.473 114.189 174.121 114.388 173.068 114.054Z" fill="#F99F1B"/>
<path d="M220.662 99.8549C218.72 99.2393 216.244 99.6037 215.123 100.67C214.002 101.736 214.665 103.096 216.607 103.711C218.548 104.327 221.025 103.963 222.146 102.896C222.396 102.658 222.542 102.402 222.624 102.141L266.681 99.9105C266.921 100.259 267.362 100.573 267.992 100.772C269.459 101.237 271.332 100.962 272.179 100.156C273.026 99.351 272.524 98.3222 271.057 97.8573C269.591 97.3923 267.717 97.6679 266.87 98.4733C266.608 98.7228 266.488 98.9946 266.479 99.2643L222.637 101.487C222.473 100.83 221.798 100.215 220.662 99.8549ZM270.354 98.5265C271.149 98.7786 271.42 99.3332 270.96 99.7699C270.501 100.207 269.491 100.355 268.696 100.103C267.901 99.851 267.63 99.2964 268.089 98.8597C268.548 98.423 269.558 98.2743 270.354 98.5265Z" fill="#F99F1B"/>
<path d="M89.0502 140.773C89.2054 140.966 89.46 141.13 89.8112 141.242C90.7097 141.526 91.8501 141.359 92.3689 140.865C92.8877 140.372 92.5821 139.746 91.6836 139.461C90.785 139.176 89.6446 139.344 89.1258 139.837C89.0304 139.928 88.9719 140.023 88.9341 140.124L60.2414 141.69C60.1075 141.595 59.9351 141.51 59.7286 141.444C58.8817 141.176 57.8064 141.334 57.3174 141.799C56.8285 142.264 57.1166 142.854 57.9635 143.123C58.8104 143.391 59.8857 143.233 60.3746 142.768C60.5177 142.632 60.5929 142.482 60.5986 142.332L89.0545 140.782L89.0502 140.773Z" fill="#F99F1B"/>
<path d="M94.7073 123.189L90.7491 123.484L91.255 125.528L95.2132 125.233L94.7073 123.189Z" fill="#F99F1B"/>
<path d="M106.58 122.304L102.622 122.6L103.128 124.643L107.086 124.348L106.58 122.304Z" fill="#F99F1B"/>
<path d="M118.472 121.42L114.514 121.716L115.02 123.76L118.978 123.464L118.472 121.42Z" fill="#F99F1B"/>
<path d="M130.362 120.529L126.404 120.824L126.91 122.868L130.868 122.573L130.362 120.529Z" fill="#F99F1B"/>
<path d="M142.253 119.643L138.295 119.938L138.801 121.982L142.759 121.687L142.253 119.643Z" fill="#F99F1B"/>
<path d="M154.143 118.751L150.185 119.047L150.691 121.091L154.649 120.795L154.143 118.751Z" fill="#F99F1B"/>
<path d="M172.785 41.6343L168.827 41.9297L169.333 43.9734L173.291 43.678L172.785 41.6343Z" fill="#F99F1B"/>
<path d="M184.66 40.7495L180.702 41.0449L181.208 43.0886L185.166 42.7932L184.66 40.7495Z" fill="#F99F1B"/>
<path d="M196.563 39.8687L192.604 40.1641L193.11 42.2078L197.068 41.9124L196.563 39.8687Z" fill="#F99F1B"/>
<path d="M208.453 38.978L204.495 39.2734L205.001 41.3171L208.959 41.0217L208.453 38.978Z" fill="#F99F1B"/>
<path d="M220.333 38.0884L216.375 38.3838L216.88 40.4275L220.839 40.1321L220.333 38.0884Z" fill="#F99F1B"/>
<path d="M232.234 37.2007L228.276 37.4961L228.781 39.5398L232.74 39.2444L232.234 37.2007Z" fill="#F99F1B"/>
<path d="M154.369 62.2255L150.158 46.5455L121.602 48.8581L125.814 64.5381L154.369 62.2255ZM149.058 47.3689L152.88 61.6248L126.918 63.7236L123.096 49.4677L149.058 47.3689Z" fill="#F99F1B"/>
<path d="M148.2 59.709L145.581 49.9406L127.792 51.3787L130.411 61.1471L148.2 59.709ZM144.577 50.6733L146.85 59.1599L131.395 60.4079L129.122 51.9213L144.577 50.6733Z" fill="#F99F1B"/>
<path d="M140.844 53.4357L134.167 53.9766L135.151 57.6435L141.829 57.1026L140.844 53.4357Z" fill="#F99F1B"/>
<path d="M230.776 156.207L226.897 156.424L227.277 158.476L231.156 158.259L230.776 156.207Z" fill="#F99F1B"/>
<path d="M242.419 155.557L238.54 155.773L238.92 157.825L242.799 157.609L242.419 155.557Z" fill="#F99F1B"/>
<path d="M254.1 154.882L250.221 155.099L250.601 157.151L254.48 156.934L254.1 154.882Z" fill="#F99F1B"/>
<g style="mix-blend-mode:overlay" opacity="0.38">
<path d="M192.13 62.9973C195.559 64.0844 199.958 63.4372 201.938 61.5543C202.468 61.0495 202.763 60.5077 202.854 59.962L265.516 55.3878L283.042 38.7196L338.112 36.1924C338.711 36.9192 339.7 37.5503 341.043 37.976C344.472 39.0631 348.87 38.4159 350.85 36.533C352.83 34.6501 351.651 32.2348 348.222 31.1477C344.793 30.0606 340.394 30.7078 338.415 32.5907C337.723 33.2485 337.42 33.9691 337.466 34.6718L281.338 37.2492L263.771 53.9571L202.574 58.4213C202.055 57.5005 200.948 56.6806 199.305 56.16C195.876 55.0729 191.478 55.7201 189.498 57.603C187.518 59.4859 188.697 61.9013 192.126 62.9883L192.13 62.9973ZM346.831 32.4837C348.918 33.1451 349.633 34.6122 348.429 35.7579C347.224 36.9035 344.553 37.2966 342.466 36.6352C340.38 35.9737 339.664 34.5066 340.869 33.361C342.073 32.2154 344.745 31.8223 346.831 32.4837ZM197.903 57.5074C199.989 58.1688 200.705 59.6359 199.5 60.7815C198.296 61.9272 195.624 62.3203 193.538 61.6588C191.451 60.9974 190.735 59.5303 191.94 58.3847C193.144 57.2391 195.816 56.846 197.903 57.5074Z" fill="#F99F1B"/>
</g>
<g style="mix-blend-mode:overlay" opacity="0.38">
<path d="M91.867 158.212C91.6507 157.697 91.0848 157.253 90.2661 156.97C89.3648 156.662 88.3135 156.601 87.3627 156.746L75.9148 150.515L10.494 153.443L10.5795 154.03C10.2655 153.53 9.67736 153.094 8.838 152.805C7.88066 152.471 6.73805 152.366 5.61714 152.502C4.50656 152.642 3.55835 153.007 2.95491 153.541C2.34711 154.067 2.14966 154.7 2.40359 155.31C2.65752 155.92 3.32192 156.44 4.29555 156.772C4.41949 156.811 4.55376 156.854 4.6777 156.893C5.55444 157.133 6.5465 157.198 7.51046 157.08C8.62104 156.941 9.56925 156.576 10.1727 156.041C10.5392 155.719 10.7389 155.359 10.7951 154.991L74.8471 152.12L85.1506 157.723C84.2764 158.633 84.7879 159.771 86.4046 160.329C86.5182 160.365 86.6215 160.398 86.7248 160.43C87.4613 160.634 88.2996 160.688 89.1229 160.586C90.0603 160.467 90.869 160.156 91.383 159.707C91.897 159.257 92.0669 158.729 91.8566 158.208L91.867 158.212ZM9.267 155.724C8.81263 156.117 8.10923 156.393 7.27997 156.5C6.45666 156.602 5.60525 156.521 4.87353 156.274C4.15811 156.025 3.65534 155.639 3.45933 155.183C3.27365 154.731 3.41061 154.26 3.87093 153.862C4.32529 153.469 5.0287 153.193 5.85796 153.085C6.57319 152.994 7.32132 153.043 7.9752 153.22C8.06816 153.249 8.16111 153.279 8.26439 153.311C8.97982 153.561 9.48259 153.947 9.6786 154.402C9.86428 154.854 9.72732 155.325 9.267 155.724ZM90.2147 159.298C89.9018 159.57 89.4107 159.762 88.8361 159.837C88.2615 159.912 87.6644 159.851 87.1702 159.679C86.1406 159.323 85.8272 158.573 86.4767 158.007C87.0905 157.476 88.3286 157.294 89.3249 157.564C89.3869 157.584 89.4592 157.607 89.5212 157.627C90.0153 157.798 90.3652 158.068 90.5017 158.384C90.6382 158.699 90.5335 159.021 90.2147 159.298Z" fill="#F99F1B"/>
</g>
<g style="mix-blend-mode:overlay" opacity="0.38">
<path d="M539.63 152.755C536.572 151.786 532.646 152.364 530.881 154.042C530.744 154.173 530.66 154.305 530.56 154.44L470.972 156.653L436.236 140.771L435.198 140.828C429.437 141.134 378.735 143.829 373.962 144.531L373.017 144.67L350.973 164.012L266.102 168.321C265.334 167.177 263.906 166.165 261.841 165.51C257.141 164.02 251.103 164.904 248.384 167.49C245.665 170.076 247.29 173.389 251.99 174.879C256.689 176.369 262.733 175.48 265.446 172.899C266.067 172.31 266.434 171.685 266.611 171.045L353.9 166.611L376.179 147.072C382.529 146.468 413.528 144.726 434.676 143.604L469.345 159.458L530.607 157.184C531.137 157.859 532.029 158.452 533.268 158.845C536.325 159.814 540.252 159.236 542.017 157.557C543.782 155.879 542.73 153.723 539.672 152.754L539.63 152.755ZM253.209 173.693C249.698 172.58 248.499 170.105 250.526 168.177C252.554 166.249 257.056 165.581 260.568 166.695C264.079 167.808 265.278 170.283 263.251 172.211C261.223 174.139 256.721 174.806 253.209 173.693ZM534.471 157.661C532.602 157.068 531.96 155.753 533.04 154.727C534.119 153.7 536.514 153.348 538.383 153.94C540.253 154.533 540.894 155.848 539.815 156.875C538.736 157.901 536.341 158.254 534.471 157.661Z" fill="#F99F1B"/>
</g>
<g style="mix-blend-mode:overlay" opacity="0.38">
<path d="M213.867 74.4078L210.065 74.7539L209.897 76.4744L213.699 76.1283L213.867 74.4078Z" fill="#F99F1B"/>
<path d="M224.871 73.8863L221.069 74.2324L220.902 75.9529L224.704 75.6068L224.871 73.8863Z" fill="#F99F1B"/>
<path d="M235.876 73.359L232.074 73.7051L231.906 75.4256L235.708 75.0795L235.876 73.359Z" fill="#F99F1B"/>
<path d="M246.879 72.8316L243.077 73.1777L242.909 74.8982L246.711 74.5521L246.879 72.8316Z" fill="#F99F1B"/>
<path d="M257.878 72.316L254.076 72.6621L253.908 74.3826L257.711 74.0365L257.878 72.316Z" fill="#F99F1B"/>
<path d="M268.895 71.7887L265.093 72.1348L264.925 73.8553L268.728 73.5092L268.895 71.7887Z" fill="#F99F1B"/>
</g>
<g style="mix-blend-mode:overlay" opacity="0.38">
<path d="M46.1436 184.33L38.6972 185.008L38.3686 188.385L45.815 187.707L46.1436 184.33Z" fill="#F99F1B"/>
<path d="M67.6708 183.303L60.2244 183.98L59.8958 187.357L67.3422 186.679L67.6708 183.303Z" fill="#F99F1B"/>
<path d="M89.2406 182.273L81.7942 182.951L81.4656 186.328L88.912 185.65L89.2406 182.273Z" fill="#F99F1B"/>
<path d="M110.796 181.243L103.35 181.921L103.021 185.298L110.468 184.62L110.796 181.243Z" fill="#F99F1B"/>
<path d="M132.332 180.219L124.886 180.896L124.557 184.273L132.004 183.595L132.332 180.219Z" fill="#F99F1B"/>
<path d="M153.904 179.196L146.458 179.874L146.129 183.251L153.575 182.573L153.904 179.196Z" fill="#F99F1B"/>
</g>
</g>
<g opacity="0.3">
<path d="M370.07 581.93L278.839 585.425C278.648 584.873 278.062 584.369 277.102 584.065C275.377 583.518 273.161 583.844 272.165 584.791C271.17 585.738 271.763 586.955 273.488 587.502C275.213 588.049 277.428 587.723 278.424 586.776C278.657 586.554 278.795 586.318 278.863 586.083L369.52 582.61L378.565 588.782L500.517 580.614L500.374 579.964L379.08 588.083L370.054 581.933L370.07 581.93ZM274.198 586.827C273.144 586.493 272.782 585.75 273.39 585.172C273.998 584.594 275.35 584.395 276.404 584.729C277.457 585.063 277.82 585.805 277.212 586.383C276.603 586.962 275.251 587.161 274.198 586.827Z" fill="#F99F1B"/>
<path d="M389.564 601.911C391.289 602.458 393.504 602.132 394.5 601.185C395.496 600.237 394.902 599.021 393.177 598.474C391.452 597.927 389.237 598.253 388.241 599.2C387.883 599.541 387.741 599.911 387.771 600.276C381.615 600.866 328.979 604.784 300.603 606.874L284.414 598.997L246.982 599.221C246.81 598.652 246.221 598.125 245.239 597.814C243.515 597.267 241.299 597.593 240.303 598.541C239.307 599.488 239.901 600.704 241.626 601.251C243.351 601.798 245.566 601.472 246.562 600.525C246.777 600.321 246.913 600.099 246.98 599.878L283.968 599.657L300.223 607.563L300.493 607.542C303.854 607.292 380.03 601.679 388.027 600.91C388.314 601.318 388.836 601.673 389.57 601.905L389.564 601.911ZM242.34 600.585C241.286 600.251 240.924 599.509 241.532 598.93C242.14 598.352 243.493 598.153 244.546 598.487C245.6 598.821 245.962 599.563 245.354 600.142C244.745 600.72 243.393 600.919 242.34 600.585ZM392.474 599.143C393.527 599.477 393.889 600.22 393.281 600.798C392.673 601.377 391.321 601.576 390.267 601.242C389.214 600.908 388.852 600.165 389.46 599.587C390.068 599.008 391.42 598.809 392.474 599.143Z" fill="#F99F1B"/>
<path d="M274.53 561.063C273.745 560.814 272.833 560.752 271.959 560.875C271.079 561.005 270.356 561.312 269.903 561.743C269.45 562.175 269.336 562.675 269.562 563.155C270.029 564.112 271.96 564.725 273.703 564.468C274.583 564.339 275.306 564.031 275.759 563.6C276.212 563.169 276.326 562.668 276.1 562.188C275.865 561.705 275.304 561.308 274.519 561.059L274.53 561.063ZM273.491 564.015C272.823 564.114 272.13 564.053 271.572 563.876C271.014 563.699 270.571 563.4 270.392 563.033C270.03 562.29 270.829 561.53 272.181 561.332C273.534 561.133 274.918 561.571 275.28 562.314C275.642 563.056 274.843 563.816 273.491 564.015Z" fill="#F99F1B"/>
<path d="M241.159 544.918L250.21 536.309L368.914 532.291L380.709 538.231L445.122 533.969C445.588 534.495 446.334 534.951 447.315 535.262C449.97 536.104 453.375 535.603 454.907 534.145C456.44 532.688 455.527 530.818 452.873 529.976C450.219 529.135 446.814 529.636 445.281 531.093C444.542 531.797 444.384 532.601 444.71 533.34L381.11 537.548L369.35 531.627L249.815 535.677L249.498 535.69L240.13 544.6C237.864 544.07 235.163 544.53 233.899 545.732C232.534 547.031 233.339 548.7 235.715 549.453C238.091 550.207 241.121 549.761 242.492 548.456C243.756 547.254 243.141 545.743 241.163 544.927L241.159 544.918ZM452.163 530.651C454.146 531.28 454.827 532.675 453.682 533.764C452.537 534.853 449.996 535.227 448.013 534.599C446.03 533.97 445.349 532.574 446.494 531.485C447.639 530.396 450.18 530.023 452.163 530.651ZM236.414 548.775C234.72 548.238 234.135 547.04 235.113 546.109C236.091 545.179 238.274 544.858 239.968 545.395C241.662 545.932 242.253 547.125 241.269 548.061C240.285 548.997 238.108 549.312 236.414 548.775Z" fill="#F99F1B"/>
<path d="M120.028 543.804C121.97 544.419 124.446 544.055 125.567 542.989C125.86 542.711 126.02 542.414 126.085 542.117L151.11 541.014L156.654 534.68L183.405 533.324C183.569 533.98 184.244 534.595 185.38 534.955C187.322 535.571 189.798 535.207 190.919 534.14C192.04 533.074 191.377 531.714 189.435 531.099C187.493 530.483 185.017 530.848 183.896 531.914C183.646 532.152 183.5 532.408 183.418 532.67L155.872 534.062L150.328 540.396L126.022 541.469C125.811 540.858 125.151 540.293 124.088 539.956C122.146 539.341 119.67 539.705 118.549 540.771C117.428 541.837 118.091 543.197 120.033 543.813L120.028 543.804Z" fill="#F99F1B"/>
<path d="M250.951 576.682L246.992 576.978L247.498 579.021L251.456 578.726L250.951 576.682Z" fill="#F99F1B"/>
<path d="M239.037 577.582L235.079 577.877L235.585 579.921L239.543 579.625L239.037 577.582Z" fill="#F99F1B"/>
<path d="M227.17 578.459L223.212 578.755L223.718 580.799L227.676 580.503L227.17 578.459Z" fill="#F99F1B"/>
<path d="M215.283 579.338L211.325 579.634L211.831 581.677L215.789 581.382L215.283 579.338Z" fill="#F99F1B"/>
<path d="M203.389 580.232L199.431 580.527L199.937 582.571L203.895 582.276L203.389 580.232Z" fill="#F99F1B"/>
<path d="M191.483 581.125L187.525 581.42L188.03 583.464L191.989 583.168L191.483 581.125Z" fill="#F99F1B"/>
<path d="M214.664 547.105L179.925 549.915L185.043 568.99L219.781 566.18L214.664 547.105ZM181.73 550.661L213.326 548.103L217.985 565.452L186.389 568.011L181.73 550.661Z" fill="#F99F1B"/>
<path d="M209.082 551.234L187.438 552.985L190.627 564.87L212.271 563.119L209.082 551.234ZM189.064 553.652L207.868 552.127L210.645 562.452L191.842 563.977L189.064 553.652Z" fill="#F99F1B"/>
<path d="M203.346 555.476L195.217 556.135L196.416 560.599L204.545 559.94L203.346 555.476Z" fill="#F99F1B"/>
<path d="M172.663 518.59C174.388 519.137 176.604 518.811 177.6 517.864C177.975 517.507 178.131 517.11 178.066 516.726L214.638 515.367L229.006 520.747L293.79 516.603C294.086 516.977 294.595 517.304 295.287 517.524C297.012 518.071 299.228 517.745 300.223 516.798C301.219 515.85 300.625 514.634 298.901 514.087C297.176 513.54 294.96 513.866 293.964 514.813C293.583 515.176 293.437 515.576 293.496 515.966L229.321 520.067L214.974 514.695L177.768 516.08C177.472 515.706 176.969 515.373 176.277 515.153C174.552 514.607 172.336 514.933 171.341 515.88C170.345 516.827 170.938 518.043 172.663 518.59ZM298.191 514.762C299.245 515.096 299.607 515.838 298.999 516.417C298.39 516.995 297.038 517.194 295.985 516.86C294.931 516.526 294.569 515.784 295.177 515.205C295.785 514.627 297.138 514.428 298.191 514.762ZM175.573 515.823C176.627 516.157 176.989 516.899 176.381 517.478C175.773 518.056 174.42 518.255 173.367 517.921C172.313 517.587 171.951 516.845 172.559 516.266C173.168 515.688 174.52 515.489 175.573 515.823Z" fill="#F99F1B"/>
<g style="mix-blend-mode:overlay" opacity="0.38">
<path d="M383.342 606.872C379.913 605.785 375.514 606.432 373.535 608.315C373.004 608.82 372.71 609.362 372.618 609.907L309.956 614.481L292.43 631.15L237.36 633.677C236.761 632.95 235.772 632.319 234.43 631.893C231.001 630.806 226.602 631.453 224.622 633.336C222.642 635.219 223.821 637.634 227.25 638.722C230.679 639.809 235.078 639.161 237.057 637.279C237.749 636.621 238.052 635.9 238.006 635.197L294.134 632.62L311.702 615.912L372.898 611.448C373.417 612.369 374.525 613.189 376.167 613.709C379.596 614.796 383.994 614.149 385.974 612.266C387.954 610.383 386.775 607.968 383.346 606.881L383.342 606.872ZM228.641 637.385C226.555 636.724 225.839 635.257 227.043 634.111C228.248 632.966 230.92 632.573 233.006 633.234C235.092 633.895 235.808 635.363 234.604 636.508C233.399 637.654 230.727 638.047 228.641 637.385ZM377.564 612.367C375.477 611.706 374.762 610.239 375.966 609.093C377.171 607.948 379.842 607.555 381.929 608.216C384.015 608.877 384.731 610.345 383.526 611.49C382.322 612.636 379.65 613.029 377.564 612.367Z" fill="#F99F1B"/>
</g>
<g style="mix-blend-mode:overlay" opacity="0.38">
<path d="M162.747 557.347C159.318 556.259 154.919 556.907 152.939 558.79C152.409 559.294 152.114 559.836 152.023 560.382L89.3608 564.956L71.8354 581.624L16.7653 584.151C16.1662 583.425 15.1772 582.794 13.8346 582.368C10.4055 581.281 6.00687 581.928 4.02713 583.811C2.04739 585.694 3.22603 588.109 6.65504 589.196C10.084 590.283 14.4827 589.636 16.4624 587.753C17.1542 587.095 17.4573 586.375 17.4113 585.672L73.5394 583.095L91.1066 566.387L152.303 561.923C152.822 562.843 153.93 563.663 155.572 564.184C159.001 565.271 163.399 564.624 165.379 562.741C167.359 560.858 166.18 558.443 162.751 557.355L162.747 557.347ZM8.04603 587.86C5.95971 587.199 5.24379 585.732 6.44833 584.586C7.65287 583.44 10.3247 583.047 12.411 583.709C14.4973 584.37 15.2132 585.837 14.0087 586.983C12.8041 588.128 10.1324 588.522 8.04603 587.86ZM156.969 562.842C154.882 562.181 154.166 560.714 155.371 559.568C156.576 558.422 159.247 558.029 161.334 558.691C163.42 559.352 164.136 560.819 162.931 561.965C161.727 563.11 159.055 563.504 156.969 562.842Z" fill="#F99F1B"/>
</g>
<g style="mix-blend-mode:overlay" opacity="0.38">
<path d="M17.5975 522.771C17.7486 523.295 18.27 523.755 19.0485 524.063C19.9141 524.405 20.9562 524.501 21.9142 524.389L32.6149 531.003L98.2405 530.355L98.2246 529.768C98.4837 530.281 99.0274 530.733 99.8206 531.053C100.742 531.42 101.87 531.566 102.992 531.468C104.114 531.37 105.102 531.033 105.772 530.527C106.441 530.021 106.707 529.402 106.528 528.786C106.35 528.17 105.736 527.627 104.814 527.259C104.696 527.214 104.568 527.166 104.444 527.127C103.597 526.858 102.614 526.758 101.643 526.844C100.521 526.942 99.5332 527.279 98.8634 527.785C98.4556 528.094 98.2249 528.444 98.1155 528.811L33.8641 529.448L24.2291 523.497C25.2066 522.62 24.8255 521.463 23.2787 520.852C23.171 520.81 23.0737 520.772 22.9704 520.739C22.2578 520.513 21.4227 520.43 20.5922 520.499C19.6374 520.582 18.7993 520.868 18.2396 521.296C17.674 521.729 17.4464 522.247 17.5975 522.771ZM99.7453 528.125C100.241 527.745 100.984 527.497 101.82 527.422C102.657 527.347 103.505 527.457 104.197 527.729C104.888 528.001 105.341 528.409 105.477 528.868C105.614 529.328 105.414 529.793 104.918 530.173C104.422 530.553 103.679 530.801 102.843 530.876C102.114 530.94 101.38 530.866 100.75 530.667C100.657 530.637 100.564 530.608 100.467 530.569C99.775 530.297 99.3227 529.889 99.1859 529.43C99.0491 528.97 99.2496 528.505 99.7453 528.125ZM19.3765 521.747C19.7203 521.485 20.2306 521.314 20.8139 521.257C21.3912 521.206 21.9868 521.281 22.463 521.47C23.4466 521.858 23.6785 522.619 22.9567 523.162C22.2869 523.668 21.0373 523.809 20.0664 523.501C20.0044 523.481 19.9321 523.458 19.8702 523.439C19.3939 523.25 19.0826 522.97 18.9787 522.649C18.8851 522.332 19.0164 522.011 19.3662 521.744L19.3765 521.747Z" fill="#F99F1B"/>
</g>
<g style="mix-blend-mode:overlay" opacity="0.38">
<path d="M35.8431 517.114C38.9003 518.083 42.8265 517.506 44.5916 515.827C44.7287 515.696 44.8126 515.564 44.9128 515.43L104.501 513.216L139.237 529.098L140.275 529.041C146.036 528.735 196.737 526.041 201.511 525.338L202.456 525.199L224.5 505.857L309.371 501.549C310.138 502.692 311.566 503.704 313.632 504.359C318.331 505.849 324.37 504.965 327.089 502.379C329.808 499.793 328.182 496.48 323.483 494.99C318.784 493.5 312.739 494.389 310.026 496.97C309.406 497.56 309.039 498.184 308.862 498.824L221.573 503.258L199.293 522.798C192.944 523.401 161.945 525.143 140.797 526.265L106.127 510.412L44.8656 512.685C44.3355 512.01 43.4439 511.417 42.2045 511.025C39.1473 510.055 35.2211 510.633 33.456 512.312C31.691 513.99 32.743 516.146 35.8002 517.116L35.8431 517.114ZM322.268 496.185C325.779 497.298 326.978 499.773 324.951 501.701C322.923 503.63 318.421 504.297 314.909 503.184C311.398 502.07 310.199 499.596 312.226 497.667C314.254 495.739 318.756 495.072 322.268 496.185ZM41.0011 512.208C42.8706 512.801 43.5123 514.116 42.433 515.143C41.3536 516.169 38.9588 516.521 37.0894 515.929C35.2199 515.336 34.5783 514.021 35.6576 512.995C36.7369 511.968 39.1317 511.616 41.0011 512.208Z" fill="#F99F1B"/>
</g>
<path d="M205.405 394.393L296.636 390.898C296.827 391.45 297.413 391.953 298.374 392.258C300.099 392.805 302.314 392.479 303.31 391.531C304.306 390.584 303.712 389.368 301.987 388.821C300.263 388.274 298.047 388.6 297.051 389.547C296.819 389.768 296.681 390.004 296.612 390.24L205.955 393.712L196.91 387.54L74.9421 395.711L75.0847 396.361L196.38 388.242L205.405 394.393ZM301.273 389.487C302.327 389.821 302.689 390.563 302.081 391.142C301.473 391.72 300.121 391.919 299.067 391.585C298.014 391.251 297.651 390.509 298.26 389.93C298.868 389.352 300.22 389.153 301.273 389.487Z" fill="#F99F1B"/>
<path d="M244.641 356.5C246.325 357.033 248.491 356.714 249.463 355.79C250.435 354.866 249.855 353.676 248.171 353.142C246.488 352.608 244.321 352.927 243.349 353.852C242.377 354.776 242.958 355.966 244.641 356.5ZM247.784 353.511C249.106 353.93 249.549 354.857 248.792 355.577C248.035 356.297 246.34 356.547 245.029 356.131C243.717 355.715 243.263 354.785 244.02 354.064C244.778 353.344 246.472 353.095 247.784 353.511Z" fill="#F99F1B"/>
<path d="M242.829 354.988L179.144 359.631L161.607 376.31L105.146 378.903L105.245 379.555L162.324 376.938L179.885 360.236L242.977 355.632L242.829 354.988Z" fill="#F99F1B"/>
<path d="M185.902 374.409C184.177 373.862 181.961 374.188 180.965 375.135C179.97 376.082 180.563 377.299 182.288 377.846C184.013 378.393 186.229 378.067 187.224 377.12C187.582 376.779 187.724 376.408 187.695 376.044C193.85 375.454 246.486 371.535 274.862 369.446L291.051 377.323L328.483 377.099C328.656 377.668 329.245 378.195 330.226 378.506C331.951 379.052 334.166 378.726 335.162 377.779C336.158 376.832 335.564 375.616 333.84 375.069C332.115 374.522 329.899 374.848 328.903 375.795C328.689 375.999 328.552 376.221 328.485 376.441L291.497 376.663L275.242 368.757L274.973 368.778C271.611 369.028 195.435 374.641 187.438 375.41C187.151 375.002 186.629 374.647 185.896 374.415L185.902 374.409ZM333.142 375.732C334.195 376.066 334.558 376.809 333.949 377.387C333.341 377.966 331.989 378.165 330.936 377.831C329.882 377.497 329.52 376.754 330.128 376.176C330.736 375.597 332.088 375.398 333.142 375.732ZM182.992 377.177C181.938 376.843 181.576 376.1 182.184 375.522C182.792 374.943 184.145 374.744 185.198 375.078C186.252 375.412 186.614 376.155 186.006 376.733C185.397 377.312 184.045 377.511 182.992 377.177Z" fill="#F99F1B"/>
<path d="M188.357 409.677C188.247 409.755 188.12 409.836 188.025 409.927C187.029 410.874 187.623 412.091 189.348 412.637C191.072 413.184 193.288 412.858 194.284 411.911C195.28 410.964 194.686 409.747 192.961 409.201C191.773 408.824 190.347 408.871 189.254 409.243L177.899 403.526L113.105 407.81L113.138 407.949C112.806 407.465 112.196 407.037 111.318 406.759C109.283 406.114 106.677 406.498 105.502 407.615C104.327 408.732 105.02 410.169 107.054 410.814C109.089 411.459 111.706 411.079 112.887 409.956C113.388 409.48 113.531 408.95 113.389 408.444L177.505 404.202L188.363 409.671L188.357 409.677ZM192.258 409.87C193.311 410.204 193.673 410.946 193.065 411.525C192.457 412.103 191.105 412.302 190.051 411.968C188.998 411.634 188.635 410.892 189.244 410.313C189.852 409.735 191.204 409.536 192.258 409.87ZM107.591 410.304C106.073 409.822 105.549 408.749 106.425 407.915C107.302 407.082 109.257 406.794 110.775 407.275C112.294 407.757 112.817 408.83 111.941 409.664C111.064 410.497 109.109 410.785 107.591 410.304Z" fill="#F99F1B"/>
<path d="M208.195 463.998C206.522 463.468 204.371 463.784 203.405 464.703C203.191 464.907 203.054 465.129 202.998 465.353L169.247 466.608L149.66 457.654L149.413 457.666C148.118 457.732 117.678 459.349 114.99 459.744L114.762 459.778L102.279 470.732L54.1538 473.177C53.8424 472.36 52.9417 471.606 51.5164 471.154C48.862 470.313 45.4571 470.814 43.9246 472.271C42.3921 473.729 43.3044 475.598 45.9588 476.44C48.6132 477.281 52.0181 476.78 53.5506 475.323C54.0455 474.852 54.2568 474.337 54.2698 473.827L102.976 471.354L115.522 460.351C118.535 460.013 138.586 458.899 149.276 458.333L168.842 467.281L203.006 466.013C203.182 466.553 203.764 467.047 204.683 467.339C206.356 467.869 208.506 467.553 209.472 466.634C210.438 465.715 209.862 464.535 208.189 464.004L208.195 463.998ZM46.664 475.756C44.681 475.127 44 473.732 45.1449 472.643C46.2898 471.554 48.8313 471.18 50.8143 471.809C52.7974 472.437 53.4783 473.833 52.3334 474.922C51.1885 476.011 48.6471 476.385 46.664 475.756ZM205.285 466.766C204.18 466.416 203.8 465.637 204.438 465.031C205.076 464.424 206.494 464.215 207.599 464.566C208.704 464.916 209.084 465.694 208.446 466.301C207.808 466.908 206.39 467.116 205.285 466.766Z" fill="#F99F1B"/>
<path d="M196.622 338.123C198.563 338.739 201.04 338.374 202.161 337.308C203.282 336.242 202.618 334.882 200.677 334.267C198.735 333.651 196.259 334.015 195.137 335.082C194.016 336.148 194.68 337.508 196.622 338.123Z" fill="#F99F1B"/>
<path d="M334.313 431.395L325.261 440.004L206.557 444.022L194.762 438.083L130.349 442.344C129.883 441.818 129.137 441.362 128.156 441.051C125.501 440.21 122.097 440.711 120.564 442.168C119.032 443.626 119.944 445.495 122.598 446.337C125.253 447.178 128.658 446.677 130.19 445.22C130.929 444.517 131.087 443.712 130.762 442.974L194.361 438.765L206.121 444.686L325.656 440.637L325.973 440.623L335.341 431.714C337.608 432.243 340.308 431.784 341.572 430.581C342.938 429.282 342.132 427.613 339.756 426.86C337.381 426.107 334.35 426.553 332.979 427.857C331.715 429.059 332.33 430.57 334.308 431.386L334.313 431.395ZM123.312 445.671C121.329 445.042 120.648 443.647 121.793 442.558C122.938 441.469 125.479 441.095 127.463 441.724C129.446 442.352 130.127 443.748 128.982 444.837C127.837 445.926 125.295 446.3 123.312 445.671ZM339.051 427.544C340.745 428.081 341.33 429.279 340.352 430.209C339.374 431.14 337.191 431.461 335.497 430.924C333.803 430.387 333.212 429.194 334.196 428.258C335.18 427.322 337.357 427.007 339.051 427.544Z" fill="#F99F1B"/>
<path d="M177.288 420.452C177.288 420.452 177.294 420.446 177.3 420.44C178.296 419.493 177.702 418.277 175.978 417.73C174.253 417.183 172.037 417.509 171.041 418.456C170.045 419.403 170.639 420.62 172.364 421.167C173.727 421.599 175.381 421.48 176.518 420.949L190.48 426.857L292.312 422.435L301.428 415.442L300.455 415.058L291.66 421.798L190.838 426.176L177.284 420.443L177.288 420.452ZM173.068 420.497C172.014 420.163 171.652 419.421 172.26 418.842C172.868 418.264 174.22 418.065 175.274 418.399C176.327 418.733 176.69 419.475 176.081 420.054C175.473 420.632 174.121 420.831 173.068 420.497Z" fill="#F99F1B"/>
<path d="M220.662 406.299C218.72 405.684 216.244 406.048 215.123 407.114C214.002 408.18 214.665 409.54 216.607 410.156C218.548 410.771 221.025 410.407 222.146 409.341C222.396 409.103 222.542 408.846 222.624 408.585L266.681 406.355C266.921 406.703 267.362 407.017 267.992 407.217C269.459 407.682 271.332 407.406 272.179 406.601C273.026 405.795 272.524 404.767 271.057 404.302C269.591 403.837 267.717 404.112 266.87 404.918C266.608 405.167 266.488 405.439 266.479 405.709L222.637 407.931C222.473 407.274 221.798 406.659 220.662 406.299ZM270.354 404.971C271.149 405.223 271.42 405.778 270.96 406.214C270.501 406.651 269.491 406.8 268.696 406.547C267.901 406.295 267.63 405.741 268.089 405.304C268.548 404.867 269.558 404.719 270.354 404.971Z" fill="#F99F1B"/>
<path d="M89.0502 447.218C89.2054 447.411 89.46 447.575 89.8112 447.686C90.7097 447.971 91.8501 447.803 92.3689 447.31C92.8877 446.816 92.5821 446.19 91.6836 445.905C90.785 445.62 89.6446 445.788 89.1258 446.281C89.0304 446.372 88.9719 446.467 88.9341 446.568L60.2414 448.134C60.1075 448.039 59.9351 447.954 59.7286 447.889C58.8817 447.62 57.8064 447.778 57.3174 448.243C56.8285 448.708 57.1166 449.299 57.9635 449.567C58.8104 449.836 59.8857 449.678 60.3746 449.212C60.5177 449.076 60.5929 448.926 60.5986 448.777L89.0545 447.227L89.0502 447.218Z" fill="#F99F1B"/>
<path d="M94.7074 429.633L90.7492 429.929L91.2551 431.972L95.2132 431.677L94.7074 429.633Z" fill="#F99F1B"/>
<path d="M106.58 428.749L102.622 429.044L103.128 431.088L107.086 430.792L106.58 428.749Z" fill="#F99F1B"/>
<path d="M118.472 427.865L114.514 428.16L115.02 430.204L118.978 429.908L118.472 427.865Z" fill="#F99F1B"/>
<path d="M130.362 426.973L126.404 427.269L126.91 429.312L130.868 429.017L130.362 426.973Z" fill="#F99F1B"/>
<path d="M142.253 426.086L138.295 426.382L138.801 428.426L142.759 428.13L142.253 426.086Z" fill="#F99F1B"/>
<path d="M154.143 425.196L150.185 425.491L150.691 427.535L154.649 427.24L154.143 425.196Z" fill="#F99F1B"/>
<path d="M172.785 348.079L168.827 348.374L169.333 350.418L173.291 350.122L172.785 348.079Z" fill="#F99F1B"/>
<path d="M184.66 347.194L180.702 347.489L181.208 349.533L185.166 349.238L184.66 347.194Z" fill="#F99F1B"/>
<path d="M196.563 346.313L192.604 346.608L193.11 348.652L197.069 348.357L196.563 346.313Z" fill="#F99F1B"/>
<path d="M208.453 345.422L204.495 345.718L205.001 347.761L208.959 347.466L208.453 345.422Z" fill="#F99F1B"/>
<path d="M220.333 344.532L216.375 344.827L216.88 346.871L220.839 346.575L220.333 344.532Z" fill="#F99F1B"/>
<path d="M232.234 343.645L228.276 343.94L228.781 345.984L232.74 345.689L232.234 343.645Z" fill="#F99F1B"/>
<path d="M154.369 368.67L150.158 352.99L121.602 355.302L125.814 370.982L154.369 368.67ZM149.058 353.813L152.88 368.069L126.918 370.168L123.096 355.912L149.058 353.813Z" fill="#F99F1B"/>
<path d="M148.2 366.153L145.581 356.385L127.792 357.823L130.411 367.591L148.2 366.153ZM144.577 357.118L146.85 365.604L131.395 366.852L129.122 358.366L144.577 357.118Z" fill="#F99F1B"/>
<path d="M140.844 359.88L134.167 360.421L135.151 364.088L141.829 363.547L140.844 359.88Z" fill="#F99F1B"/>
<path d="M230.776 462.652L226.897 462.868L227.277 464.92L231.156 464.704L230.776 462.652Z" fill="#F99F1B"/>
<path d="M242.419 462.001L238.54 462.218L238.92 464.27L242.799 464.053L242.419 462.001Z" fill="#F99F1B"/>
<path d="M254.1 461.326L250.221 461.543L250.601 463.595L254.48 463.378L254.1 461.326Z" fill="#F99F1B"/>
<g style="mix-blend-mode:overlay" opacity="0.38">
<path d="M192.13 369.442C195.559 370.529 199.958 369.882 201.938 367.999C202.468 367.494 202.763 366.952 202.854 366.406L265.516 361.832L283.042 345.164L338.112 342.637C338.711 343.364 339.7 343.995 341.043 344.42C344.472 345.507 348.87 344.86 350.85 342.977C352.83 341.094 351.651 338.679 348.222 337.592C344.793 336.505 340.394 337.152 338.415 339.035C337.723 339.693 337.42 340.413 337.466 341.116L281.338 343.694L263.771 360.401L202.574 364.866C202.055 363.945 200.948 363.125 199.305 362.604C195.876 361.517 191.478 362.164 189.498 364.047C187.518 365.93 188.697 368.346 192.126 369.433L192.13 369.442ZM346.831 338.928C348.918 339.589 349.633 341.057 348.429 342.202C347.224 343.348 344.553 343.741 342.466 343.08C340.38 342.418 339.664 340.951 340.869 339.805C342.073 338.66 344.745 338.267 346.831 338.928ZM197.903 363.952C199.989 364.613 200.705 366.08 199.5 367.226C198.296 368.371 195.624 368.765 193.538 368.103C191.451 367.442 190.735 365.975 191.94 364.829C193.144 363.683 195.816 363.29 197.903 363.952Z" fill="#F99F1B"/>
</g>
<g style="mix-blend-mode:overlay" opacity="0.38">
<path d="M91.867 464.656C91.6507 464.141 91.0848 463.697 90.2661 463.415C89.3648 463.106 88.3135 463.045 87.3627 463.19L75.9148 456.959L10.494 459.888L10.5795 460.474C10.2655 459.974 9.67736 459.538 8.838 459.249C7.88066 458.916 6.73805 458.81 5.61714 458.947C4.50656 459.086 3.55835 459.451 2.95491 459.986C2.34711 460.511 2.14966 461.144 2.40359 461.754C2.65752 462.364 3.32192 462.885 4.29555 463.216C4.41949 463.255 4.55376 463.298 4.6777 463.337C5.55444 463.577 6.5465 463.642 7.51046 463.524C8.62104 463.385 9.56925 463.02 10.1727 462.486C10.5392 462.163 10.7389 461.803 10.7951 461.435L74.8471 458.564L85.1506 464.167C84.2764 465.078 84.7879 466.215 86.4046 466.773C86.5182 466.809 86.6215 466.842 86.7248 466.875C87.4613 467.078 88.2996 467.132 89.1229 467.03C90.0603 466.911 90.869 466.6 91.383 466.151C91.897 465.701 92.0669 465.173 91.8566 464.653L91.867 464.656ZM9.267 462.168C8.81263 462.561 8.10923 462.837 7.27997 462.945C6.45666 463.047 5.60525 462.966 4.87353 462.719C4.15811 462.469 3.65534 462.083 3.45933 461.628C3.27365 461.175 3.41061 460.705 3.87093 460.306C4.32529 459.913 5.0287 459.637 5.85796 459.53C6.57319 459.439 7.32132 459.487 7.9752 459.664C8.06816 459.693 8.16111 459.723 8.26439 459.756C8.97982 460.005 9.48259 460.391 9.6786 460.847C9.86428 461.299 9.72732 461.77 9.267 462.168ZM90.2147 465.743C89.9018 466.014 89.4107 466.206 88.8361 466.281C88.2615 466.356 87.6644 466.295 87.1702 466.124C86.1406 465.767 85.8272 465.017 86.4767 464.452C87.0905 463.92 88.3286 463.738 89.3249 464.009C89.3869 464.028 89.4592 464.051 89.5212 464.071C90.0153 464.243 90.3652 464.512 90.5017 464.828C90.6382 465.143 90.5335 465.466 90.2147 465.743Z" fill="#F99F1B"/>
</g>
<g style="mix-blend-mode:overlay" opacity="0.38">
<path d="M539.63 459.199C536.572 458.23 532.646 458.808 530.881 460.487C530.744 460.617 530.66 460.749 530.56 460.884L470.972 463.098L436.236 447.216L435.198 447.272C429.437 447.578 378.735 450.273 373.962 450.975L373.017 451.114L350.973 470.456L266.102 474.765C265.334 473.622 263.906 472.609 261.841 471.955C257.141 470.465 251.103 471.348 248.384 473.934C245.665 476.521 247.29 479.834 251.99 481.324C256.689 482.813 262.733 481.924 265.446 479.344C266.067 478.754 266.434 478.129 266.611 477.49L353.9 473.055L376.179 453.516C382.529 452.912 413.528 451.17 434.676 450.048L469.345 465.902L530.607 463.629C531.137 464.303 532.029 464.896 533.268 465.289C536.325 466.258 540.252 465.681 542.017 464.002C543.782 462.323 542.73 460.167 539.672 459.198L539.63 459.199ZM253.209 480.137C249.698 479.024 248.499 476.549 250.526 474.621C252.554 472.693 257.056 472.026 260.568 473.139C264.079 474.252 265.278 476.727 263.251 478.655C261.223 480.583 256.721 481.251 253.209 480.137ZM534.471 464.105C532.602 463.513 531.96 462.197 533.04 461.171C534.119 460.144 536.514 459.792 538.383 460.385C540.253 460.977 540.894 462.292 539.815 463.319C538.736 464.345 536.341 464.698 534.471 464.105Z" fill="#F99F1B"/>
</g>
<g style="mix-blend-mode:overlay" opacity="0.38">
<path d="M213.867 380.852L210.065 381.198L209.897 382.919L213.699 382.573L213.867 380.852Z" fill="#F99F1B"/>
<path d="M224.873 380.331L221.071 380.677L220.903 382.397L224.706 382.051L224.873 380.331Z" fill="#F99F1B"/>
<path d="M235.876 379.803L232.074 380.149L231.906 381.87L235.708 381.524L235.876 379.803Z" fill="#F99F1B"/>
<path d="M246.881 379.276L243.078 379.622L242.911 381.343L246.713 380.996L246.881 379.276Z" fill="#F99F1B"/>
<path d="M257.878 378.76L254.076 379.106L253.908 380.827L257.711 380.481L257.878 378.76Z" fill="#F99F1B"/>
<path d="M268.895 378.233L265.093 378.579L264.925 380.3L268.728 379.954L268.895 378.233Z" fill="#F99F1B"/>
</g>
<g style="mix-blend-mode:overlay" opacity="0.38">
<path d="M46.1436 490.773L38.6972 491.451L38.3686 494.828L45.815 494.15L46.1436 490.773Z" fill="#F99F1B"/>
<path d="M67.6708 489.746L60.2244 490.424L59.8958 493.801L67.3422 493.123L67.6708 489.746Z" fill="#F99F1B"/>
<path d="M89.2406 488.718L81.7942 489.396L81.4656 492.772L88.912 492.094L89.2406 488.718Z" fill="#F99F1B"/>
<path d="M110.796 487.686L103.35 488.364L103.021 491.741L110.468 491.063L110.796 487.686Z" fill="#F99F1B"/>
<path d="M132.332 486.662L124.886 487.34L124.557 490.717L132.004 490.039L132.332 486.662Z" fill="#F99F1B"/>
<path d="M153.904 485.639L146.458 486.317L146.129 489.694L153.575 489.016L153.904 485.639Z" fill="#F99F1B"/>
</g>
</g>
</g>
</svg>
