<svg width="48" height="48" viewBox="0 0 48 48" fill="none" xmlns="http://www.w3.org/2000/svg">
<rect width="48" height="48" rx="8" fill="#FCF4E9" fill-opacity="0.2"/>
<path d="M36.1946 20.7572C34.0095 20.3267 31.7958 20.5682 29.6153 21.4755C29.5267 21.5124 29.4557 21.5807 29.4166 21.6666C29.3776 21.7526 29.3734 21.8497 29.405 21.9385L29.6439 22.6113C28.6625 22.6116 27.8474 22.3609 26.992 22.0969C26.7318 22.0165 26.4627 21.9335 26.1862 21.8567C24.8996 21.4995 23.6031 21.8071 22.6286 22.7006L22.5086 22.8107C20.8443 23.1769 19.6953 23.1536 18.3215 22.7086L18.595 21.9385C18.6265 21.8497 18.6224 21.7526 18.5833 21.6666C18.5443 21.5807 18.4733 21.5124 18.3846 21.4755C16.2041 20.5683 13.9905 20.3266 11.8054 20.7572C11.7192 20.7742 11.6417 20.8197 11.5861 20.8861C11.5304 20.9524 11.5 21.0355 11.5 21.1212V30.333C11.5 30.5381 11.6704 30.7043 11.8808 30.7043H15.2109C15.29 30.7043 15.3672 30.6802 15.4317 30.6355C15.4962 30.5907 15.5447 30.5274 15.5706 30.4545L15.7204 30.0329C16.9904 30.4988 17.9696 31.4922 18.5159 32.0469C18.5665 32.0984 18.6173 32.1498 18.6684 32.2009L22.5905 36.1199C22.8337 36.3629 23.1616 36.4979 23.5139 36.4999L23.5222 36.5C23.8765 36.5 24.2085 36.3664 24.458 36.1231C24.6095 35.9757 24.7217 35.7943 24.7847 35.5948C25.3674 35.9123 26.119 35.8299 26.6137 35.3476C26.8613 35.1066 27.0163 34.7897 27.0526 34.4503C27.1894 34.4879 27.331 34.5069 27.4732 34.5067C27.8827 34.5067 28.267 34.352 28.555 34.0711C28.8313 33.8017 28.9796 33.4539 28.9999 33.1005C29.4881 33.1991 30.0165 33.0642 30.3948 32.6955C30.9529 32.1512 30.988 31.3008 30.4987 30.7013C30.6329 30.6753 30.7643 30.6369 30.8909 30.5864C31.2823 30.4306 31.6435 30.2536 31.9929 30.0825C32.081 30.0393 32.1669 29.9973 32.2523 29.956L32.4294 30.4545C32.4553 30.5274 32.5038 30.5907 32.5683 30.6355C32.6328 30.6802 32.71 30.7043 32.7891 30.7043H36.1192C36.3296 30.7043 36.5 30.5381 36.5 30.333V21.1212C36.5 21.0355 36.4696 20.9524 36.4139 20.8861C36.3582 20.8197 36.2807 20.7742 36.1946 20.7572ZM14.9398 29.9617H12.2616V21.4297C14.0846 21.1271 15.9304 21.3279 17.7575 22.0274L14.9398 29.9617ZM29.8563 32.1704C29.5565 32.4625 29.069 32.4625 28.7695 32.1704L26.3736 29.7815C26.3387 29.7466 26.2971 29.7188 26.2511 29.6996C26.2052 29.6804 26.1558 29.6702 26.1058 29.6696C26.0558 29.669 26.0062 29.678 25.9597 29.6961C25.9133 29.7142 25.871 29.7411 25.8352 29.7751C25.7994 29.8092 25.7709 29.8498 25.7512 29.8946C25.7315 29.9394 25.721 29.9876 25.7204 30.0363C25.7198 30.0851 25.7291 30.1335 25.7477 30.1787C25.7662 30.224 25.7938 30.2652 25.8287 30.3001L28.0133 32.4831L28.0147 32.4843L28.0166 32.4864C28.3162 32.7785 28.3162 33.2539 28.0166 33.546C27.717 33.8382 27.2293 33.8381 26.9299 33.5461L24.4323 31.058C24.3974 31.0231 24.3557 30.9953 24.3098 30.976C24.2638 30.9568 24.2144 30.9466 24.1644 30.9461C24.1145 30.9455 24.0648 30.9545 24.0184 30.9726C23.972 30.9907 23.9297 31.0176 23.8939 31.0516C23.8581 31.0857 23.8296 31.1263 23.8099 31.1711C23.7902 31.2159 23.7797 31.264 23.7791 31.3128C23.7785 31.3616 23.7877 31.4099 23.8063 31.4552C23.8249 31.5005 23.8524 31.5417 23.8873 31.5766L26.0721 33.7596L26.0737 33.761L26.0753 33.7628V33.7628C26.2196 33.9035 26.299 34.0916 26.299 34.2927C26.299 34.4937 26.2196 34.6818 26.0754 34.8224C25.7757 35.1146 25.2882 35.1145 24.9886 34.8225L22.2767 32.1255C22.2418 32.0906 22.2002 32.0627 22.1542 32.0435C22.1083 32.0243 22.0589 32.0141 22.0089 32.0135C21.9589 32.0129 21.9093 32.022 21.8628 32.0401C21.8164 32.0582 21.7741 32.085 21.7383 32.1191C21.7025 32.1532 21.674 32.1937 21.6543 32.2386C21.6346 32.2834 21.6242 32.3315 21.6235 32.3803C21.6229 32.429 21.6322 32.4774 21.6508 32.5227C21.6693 32.568 21.6969 32.6092 21.7318 32.6441L23.9164 34.827L23.9181 34.8285L23.9197 34.8302C24.1367 35.0419 24.1367 35.3863 23.9197 35.598C23.8134 35.7017 23.6716 35.7577 23.5188 35.7574C23.3717 35.7565 23.2356 35.701 23.1356 35.6013L19.2136 31.6823C19.1682 31.6369 19.1187 31.5867 19.0653 31.5325C18.4725 30.9306 17.4094 29.8521 15.9699 29.3309L18.0724 23.4104C18.893 23.6767 19.6509 23.8073 20.4611 23.8073C20.7938 23.8073 21.136 23.7844 21.4942 23.7408L20.6131 24.5486C20.1917 24.9351 19.9689 25.4376 19.9689 26.0018V29.7325C19.9689 29.9376 20.1393 30.1038 20.3497 30.1038C21.9906 30.1038 23.6879 29.0917 23.6879 27.398C23.6879 26.8133 24.1605 26.3954 24.5228 26.1066L28.6721 30.1503C28.8723 30.3454 29.1019 30.4935 29.3479 30.5924L29.8505 31.1046C30.1515 31.4118 30.1542 31.8799 29.8563 32.1704ZM31.651 29.4189C31.3147 29.5836 30.967 29.754 30.6031 29.8987C30.1086 30.0956 29.588 29.9933 29.2102 29.6251L24.8165 25.3433C24.7477 25.2763 24.6553 25.2375 24.5582 25.2348C24.4611 25.2321 24.3665 25.2657 24.294 25.3287C24.2536 25.3638 24.1982 25.4074 24.1342 25.4578C23.7121 25.7901 22.9262 26.4086 22.9262 27.398C22.9262 28.0961 22.5054 28.5489 22.1523 28.8059C21.7609 29.0908 21.2574 29.2776 20.7302 29.339V26.0019C20.7302 25.6376 20.8624 25.3391 21.1346 25.0896L23.1503 23.2416C23.9247 22.5315 24.9552 22.287 25.9776 22.5708C26.2435 22.6446 26.5071 22.726 26.7621 22.8047C27.7084 23.0968 28.6851 23.3975 29.9057 23.3485L32.0011 29.2487C31.8841 29.3049 31.7674 29.3616 31.651 29.4189ZM35.7384 29.9617H33.0602L30.2425 22.0274C32.0695 21.3279 33.9152 21.1272 35.7384 21.4298V29.9617ZM15.1425 20.1186H20.2971V21.1693C20.2971 21.3744 20.4675 21.5406 20.6779 21.5406H27.3221C27.5324 21.5406 27.7028 21.3744 27.7028 21.1693V20.1186H32.8574C33.0677 20.1186 33.2382 19.9524 33.2382 19.7473V18.1949C33.239 17.5857 33.057 16.9896 32.7145 16.48C32.3721 15.9705 31.8843 15.5698 31.3112 15.3274C31.6874 14.9208 31.9167 14.385 31.9167 13.7983C31.9167 12.531 30.8484 11.5 29.5353 11.5C28.2222 11.5 27.1539 12.531 27.1539 13.7983C27.1539 14.3855 27.3836 14.9217 27.7604 15.3285C27.0292 15.6408 26.4428 16.2065 26.1145 16.916C26.0051 16.854 25.892 16.7983 25.7758 16.7494C26.1521 16.3428 26.3814 15.807 26.3814 15.2204C26.3814 13.953 25.3131 12.922 24 12.922C22.6869 12.922 21.6186 13.953 21.6186 15.2204C21.6186 15.8071 21.8479 16.3429 22.2241 16.7495C22.1074 16.7989 21.9941 16.8542 21.8855 16.916C21.5573 16.2065 20.9708 15.6408 20.2396 15.3285C20.6165 14.9218 20.8462 14.3856 20.8462 13.7984C20.8462 12.5311 19.7779 11.5001 18.4648 11.5001C17.1516 11.5001 16.0833 12.5311 16.0833 13.7984C16.0833 14.3851 16.3127 14.9209 16.6889 15.3275C16.1158 15.5699 15.6279 15.9706 15.2855 16.4801C14.9431 16.9897 14.7611 17.5858 14.7619 18.195V19.7474C14.7619 19.7961 14.7717 19.8444 14.7908 19.8894C14.81 19.9345 14.838 19.9754 14.8734 20.0099C14.9087 20.0443 14.9507 20.0717 14.9969 20.0903C15.043 20.109 15.0925 20.1186 15.1425 20.1186ZM26.9413 20.798H21.0587V19.6169C21.0587 18.4947 21.8539 17.5348 22.9665 17.2906C23.2892 17.4411 23.6424 17.519 24.0001 17.5185C24.3577 17.519 24.7109 17.4411 25.0335 17.2906C26.1461 17.5348 26.9414 18.4947 26.9414 19.6169V20.798H26.9413ZM29.5353 12.2425C30.4285 12.2425 31.1552 12.9404 31.1552 13.7982C31.1552 14.656 30.4285 15.354 29.5353 15.354C28.6421 15.354 27.9154 14.656 27.9154 13.7982C27.9154 12.9404 28.6421 12.2425 29.5353 12.2425ZM28.5021 15.8687C28.8247 16.0192 29.1778 16.097 29.5353 16.0965C29.9054 16.0965 30.2561 16.0146 30.5688 15.8686C31.6815 16.1129 32.4767 17.0727 32.4767 18.1949V19.376H27.6928C27.6344 18.6209 27.2961 17.9124 26.7413 17.3826C27.0254 16.6224 27.6899 16.048 28.5021 15.8687ZM24 13.6646C24.8932 13.6646 25.6199 14.3625 25.6199 15.2203C25.6199 16.0781 24.8932 16.776 24 16.776C23.1068 16.776 22.3801 16.0781 22.3801 15.2203C22.3801 14.3624 23.1068 13.6646 24 13.6646ZM18.4647 12.2425C19.3579 12.2425 20.0846 12.9404 20.0846 13.7982C20.0846 14.656 19.3579 15.354 18.4647 15.354C17.5715 15.354 16.8448 14.656 16.8448 13.7982C16.8448 12.9404 17.5715 12.2425 18.4647 12.2425ZM15.5233 18.1948C15.5233 17.0727 16.3185 16.1128 17.4312 15.8685C17.7538 16.019 18.107 16.0969 18.4647 16.0965C18.8223 16.097 19.1754 16.0191 19.4979 15.8687C20.3101 16.0479 20.9747 16.6223 21.2588 17.3826C20.7039 17.9123 20.3657 18.6209 20.3072 19.376H15.5233V18.1948Z" fill="#E7E8E9"/>
</svg>
