<svg width="205" height="480" viewBox="0 0 205 480" fill="none" xmlns="http://www.w3.org/2000/svg">
<g clip-path="url(#clip0_4097_22432)">
<path d="M15.2773 292.5C15.2773 292.04 15.1868 291.585 15.0109 291.161C14.835 290.736 14.5772 290.35 14.2522 290.025C13.9272 289.7 13.5414 289.442 13.1167 289.266C12.6921 289.091 12.237 289 11.7773 289H3.77734C2.84909 289 1.95885 289.369 1.30247 290.025C0.646093 290.681 0.277344 291.572 0.277344 292.5V300.5C0.277344 301.428 0.646093 302.319 1.30247 302.975C1.95885 303.631 2.84909 304 3.77734 304H11.7773C12.237 304 12.6921 303.909 13.1167 303.734C13.5414 303.558 13.9272 303.3 14.2522 302.975C14.5772 302.65 14.835 302.264 15.0109 301.839C15.1868 301.415 15.2773 300.96 15.2773 300.5V292.5ZM15.2773 308.5C15.2773 308.04 15.1868 307.585 15.0109 307.161C14.835 306.736 14.5772 306.35 14.2522 306.025C13.9272 305.7 13.5414 305.442 13.1167 305.266C12.6921 305.091 12.237 305 11.7773 305H3.77734C2.84909 305 1.95885 305.369 1.30247 306.025C0.646093 306.681 0.277344 307.572 0.277344 308.5V316.5C0.277344 317.428 0.646093 318.319 1.30247 318.975C1.95885 319.631 2.84909 320 3.77734 320H11.7773C12.237 320 12.6921 319.909 13.1167 319.734C13.5414 319.558 13.9272 319.3 14.2522 318.975C14.5772 318.65 14.835 318.264 15.0109 317.839C15.1868 317.415 15.2773 316.96 15.2773 316.5V308.5ZM15.2773 388.5C15.2773 388.04 15.1868 387.585 15.0109 387.161C14.835 386.736 14.5772 386.35 14.2522 386.025C13.9272 385.7 13.5414 385.442 13.1167 385.266C12.6921 385.091 12.237 385 11.7773 385H3.77734C2.84909 385 1.95885 385.369 1.30247 386.025C0.646093 386.681 0.277344 387.572 0.277344 388.5V396.5C0.277344 397.428 0.646093 398.319 1.30247 398.975C1.95885 399.631 2.84909 400 3.77734 400H11.7773C12.237 400 12.6921 399.909 13.1167 399.734C13.5414 399.558 13.9272 399.3 14.2522 398.975C14.5772 398.65 14.835 398.264 15.0109 397.839C15.1868 397.415 15.2773 396.96 15.2773 396.5V388.5ZM15.2773 404.5C15.2773 404.04 15.1868 403.585 15.0109 403.161C14.835 402.736 14.5772 402.35 14.2522 402.025C13.9272 401.7 13.5414 401.442 13.1167 401.266C12.6921 401.091 12.237 401 11.7773 401H3.77734C2.84909 401 1.95885 401.369 1.30247 402.025C0.646093 402.681 0.277344 403.572 0.277344 404.5V412.5C0.277344 413.428 0.646093 414.319 1.30247 414.975C1.95885 415.631 2.84909 416 3.77734 416H11.7773C12.237 416 12.6921 415.909 13.1167 415.734C13.5414 415.558 13.9272 415.3 14.2522 414.975C14.5772 414.65 14.835 414.264 15.0109 413.839C15.1868 413.415 15.2773 412.96 15.2773 412.5V404.5ZM15.2773 420.5C15.2773 420.04 15.1868 419.585 15.0109 419.161C14.835 418.736 14.5772 418.35 14.2522 418.025C13.9272 417.7 13.5414 417.442 13.1167 417.266C12.6921 417.091 12.237 417 11.7773 417H3.77734C2.84909 417 1.95885 417.369 1.30247 418.025C0.646093 418.681 0.277344 419.572 0.277344 420.5V428.5C0.277344 429.428 0.646093 430.319 1.30247 430.975C1.95885 431.631 2.84909 432 3.77734 432H11.7773C12.237 432 12.6921 431.909 13.1167 431.734C13.5414 431.558 13.9272 431.3 14.2522 430.975C14.5772 430.65 14.835 430.264 15.0109 429.839C15.1868 429.415 15.2773 428.96 15.2773 428.5V420.5ZM15.2773 436.5C15.2773 436.04 15.1868 435.585 15.0109 435.161C14.835 434.736 14.5772 434.35 14.2522 434.025C13.9272 433.7 13.5414 433.442 13.1167 433.266C12.6921 433.091 12.237 433 11.7773 433H3.77734C2.84909 433 1.95885 433.369 1.30247 434.025C0.646093 434.681 0.277344 435.572 0.277344 436.5V444.5C0.277344 445.428 0.646093 446.319 1.30247 446.975C1.95885 447.631 2.84909 448 3.77734 448H11.7773C12.237 448 12.6921 447.909 13.1167 447.734C13.5414 447.558 13.9272 447.3 14.2522 446.975C14.5772 446.65 14.835 446.264 15.0109 445.839C15.1868 445.415 15.2773 444.96 15.2773 444.5V436.5ZM31.2773 292.5C31.2773 292.04 31.1868 291.585 31.0109 291.161C30.835 290.736 30.5772 290.35 30.2522 290.025C29.9272 289.7 29.5414 289.442 29.1167 289.266C28.6921 289.091 28.237 289 27.7773 289H19.7773C18.8491 289 17.9588 289.369 17.3025 290.025C16.6461 290.681 16.2773 291.572 16.2773 292.5V300.5C16.2773 301.428 16.6461 302.319 17.3025 302.975C17.9588 303.631 18.8491 304 19.7773 304H27.7773C28.237 304 28.6921 303.909 29.1167 303.734C29.5414 303.558 29.9272 303.3 30.2522 302.975C30.5772 302.65 30.835 302.264 31.0109 301.839C31.1868 301.415 31.2773 300.96 31.2773 300.5V292.5ZM31.2773 308.5C31.2773 308.04 31.1868 307.585 31.0109 307.161C30.835 306.736 30.5772 306.35 30.2522 306.025C29.9272 305.7 29.5414 305.442 29.1167 305.266C28.6921 305.091 28.237 305 27.7773 305H19.7773C18.8491 305 17.9588 305.369 17.3025 306.025C16.6461 306.681 16.2773 307.572 16.2773 308.5V316.5C16.2773 317.428 16.6461 318.319 17.3025 318.975C17.9588 319.631 18.8491 320 19.7773 320H27.7773C28.237 320 28.6921 319.909 29.1167 319.734C29.5414 319.558 29.9272 319.3 30.2522 318.975C30.5772 318.65 30.835 318.264 31.0109 317.839C31.1868 317.415 31.2773 316.96 31.2773 316.5V308.5ZM31.2773 388.5C31.2773 388.04 31.1868 387.585 31.0109 387.161C30.835 386.736 30.5772 386.35 30.2522 386.025C29.9272 385.7 29.5414 385.442 29.1167 385.266C28.6921 385.091 28.237 385 27.7773 385H19.7773C18.8491 385 17.9588 385.369 17.3025 386.025C16.6461 386.681 16.2773 387.572 16.2773 388.5V396.5C16.2773 397.428 16.6461 398.319 17.3025 398.975C17.9588 399.631 18.8491 400 19.7773 400H27.7773C28.237 400 28.6921 399.909 29.1167 399.734C29.5414 399.558 29.9272 399.3 30.2522 398.975C30.5772 398.65 30.835 398.264 31.0109 397.839C31.1868 397.415 31.2773 396.96 31.2773 396.5V388.5ZM31.2773 404.5C31.2773 404.04 31.1868 403.585 31.0109 403.161C30.835 402.736 30.5772 402.35 30.2522 402.025C29.9272 401.7 29.5414 401.442 29.1167 401.266C28.6921 401.091 28.237 401 27.7773 401H19.7773C18.8491 401 17.9588 401.369 17.3025 402.025C16.6461 402.681 16.2773 403.572 16.2773 404.5V412.5C16.2773 413.428 16.6461 414.319 17.3025 414.975C17.9588 415.631 18.8491 416 19.7773 416H27.7773C28.237 416 28.6921 415.909 29.1167 415.734C29.5414 415.558 29.9272 415.3 30.2522 414.975C30.5772 414.65 30.835 414.264 31.0109 413.839C31.1868 413.415 31.2773 412.96 31.2773 412.5V404.5ZM31.2773 420.5C31.2773 420.04 31.1868 419.585 31.0109 419.161C30.835 418.736 30.5772 418.35 30.2522 418.025C29.9272 417.7 29.5414 417.442 29.1167 417.266C28.6921 417.091 28.237 417 27.7773 417H19.7773C18.8491 417 17.9588 417.369 17.3025 418.025C16.6461 418.681 16.2773 419.572 16.2773 420.5V428.5C16.2773 429.428 16.6461 430.319 17.3025 430.975C17.9588 431.631 18.8491 432 19.7773 432H27.7773C28.237 432 28.6921 431.909 29.1167 431.734C29.5414 431.558 29.9272 431.3 30.2522 430.975C30.5772 430.65 30.835 430.264 31.0109 429.839C31.1868 429.415 31.2773 428.96 31.2773 428.5V420.5ZM31.2773 436.5C31.2773 436.04 31.1868 435.585 31.0109 435.161C30.835 434.736 30.5772 434.35 30.2522 434.025C29.9272 433.7 29.5414 433.442 29.1167 433.266C28.6921 433.091 28.237 433 27.7773 433H19.7773C18.8491 433 17.9588 433.369 17.3025 434.025C16.6461 434.681 16.2773 435.572 16.2773 436.5V444.5C16.2773 445.428 16.6461 446.319 17.3025 446.975C17.9588 447.631 18.8491 448 19.7773 448H27.7773C28.237 448 28.6921 447.909 29.1167 447.734C29.5414 447.558 29.9272 447.3 30.2522 446.975C30.5772 446.65 30.835 446.264 31.0109 445.839C31.1868 445.415 31.2773 444.96 31.2773 444.5V436.5ZM47.2773 356.5C47.2773 355.572 46.9086 354.681 46.2522 354.025C45.5958 353.369 44.7056 353 43.7773 353H35.7773C34.8491 353 33.9588 353.369 33.3025 354.025C32.6461 354.681 32.2773 355.572 32.2773 356.5V364.5C32.2773 365.428 32.6461 366.319 33.3025 366.975C33.9588 367.631 34.8491 368 35.7773 368H43.7773C44.7056 368 45.5958 367.631 46.2522 366.975C46.9086 366.319 47.2773 365.428 47.2773 364.5V356.5ZM47.2773 372.5C47.2773 371.572 46.9086 370.681 46.2522 370.025C45.5958 369.369 44.7056 369 43.7773 369H35.7773C34.8491 369 33.9588 369.369 33.3025 370.025C32.6461 370.681 32.2773 371.572 32.2773 372.5V380.5C32.2773 381.428 32.6461 382.319 33.3025 382.975C33.9588 383.631 34.8491 384 35.7773 384H43.7773C44.7056 384 45.5958 383.631 46.2522 382.975C46.9086 382.319 47.2773 381.428 47.2773 380.5V372.5ZM47.2773 420.5C47.2773 419.572 46.9086 418.681 46.2522 418.025C45.5958 417.369 44.7056 417 43.7773 417H35.7773C34.8491 417 33.9588 417.369 33.3025 418.025C32.6461 418.681 32.2773 419.572 32.2773 420.5V428.5C32.2773 429.428 32.6461 430.319 33.3025 430.975C33.9588 431.631 34.8491 432 35.7773 432H43.7773C44.7056 432 45.5958 431.631 46.2522 430.975C46.9086 430.319 47.2773 429.428 47.2773 428.5V420.5ZM47.2773 436.5C47.2773 435.572 46.9086 434.681 46.2522 434.025C45.5958 433.369 44.7056 433 43.7773 433H35.7773C34.8491 433 33.9588 433.369 33.3025 434.025C32.6461 434.681 32.2773 435.572 32.2773 436.5V444.5C32.2773 445.428 32.6461 446.319 33.3025 446.975C33.9588 447.631 34.8491 448 35.7773 448H43.7773C44.7056 448 45.5958 447.631 46.2522 446.975C46.9086 446.319 47.2773 445.428 47.2773 444.5V436.5ZM47.2773 452.5C47.2773 451.572 46.9086 450.682 46.2522 450.025C45.5958 449.369 44.7056 449 43.7773 449H35.7773C34.8491 449 33.9588 449.369 33.3025 450.025C32.6461 450.682 32.2773 451.572 32.2773 452.5V460.5C32.2773 461.428 32.6461 462.318 33.3025 462.975C33.9588 463.631 34.8491 464 35.7773 464H43.7773C44.7056 464 45.5958 463.631 46.2522 462.975C46.9086 462.318 47.2773 461.428 47.2773 460.5V452.5ZM47.2773 468.5C47.2773 467.572 46.9086 466.682 46.2522 466.025C45.5958 465.369 44.7056 465 43.7773 465H35.7773C34.8491 465 33.9588 465.369 33.3025 466.025C32.6461 466.682 32.2773 467.572 32.2773 468.5V476.5C32.2773 477.428 32.6461 478.318 33.3025 478.975C33.9588 479.631 34.8491 480 35.7773 480H43.7773C44.7056 480 45.5958 479.631 46.2522 478.975C46.9086 478.318 47.2773 477.428 47.2773 476.5V468.5ZM63.2773 356.5C63.2773 355.572 62.9086 354.681 62.2522 354.025C61.5958 353.369 60.7056 353 59.7773 353H51.7773C50.8491 353 49.9588 353.369 49.3025 354.025C48.6461 354.681 48.2773 355.572 48.2773 356.5V364.5C48.2773 365.428 48.6461 366.319 49.3025 366.975C49.9588 367.631 50.8491 368 51.7773 368H59.7773C60.7056 368 61.5958 367.631 62.2522 366.975C62.9086 366.319 63.2773 365.428 63.2773 364.5V356.5ZM63.2773 372.5C63.2773 371.572 62.9086 370.681 62.2522 370.025C61.5958 369.369 60.7056 369 59.7773 369H51.7773C50.8491 369 49.9588 369.369 49.3025 370.025C48.6461 370.681 48.2773 371.572 48.2773 372.5V380.5C48.2773 381.428 48.6461 382.319 49.3025 382.975C49.9588 383.631 50.8491 384 51.7773 384H59.7773C60.7056 384 61.5958 383.631 62.2522 382.975C62.9086 382.319 63.2773 381.428 63.2773 380.5V372.5ZM63.2773 420.5C63.2773 419.572 62.9086 418.681 62.2522 418.025C61.5958 417.369 60.7056 417 59.7773 417H51.7773C50.8491 417 49.9588 417.369 49.3025 418.025C48.6461 418.681 48.2773 419.572 48.2773 420.5V428.5C48.2773 429.428 48.6461 430.319 49.3025 430.975C49.9588 431.631 50.8491 432 51.7773 432H59.7773C60.7056 432 61.5958 431.631 62.2522 430.975C62.9086 430.319 63.2773 429.428 63.2773 428.5V420.5ZM63.2773 436.5C63.2773 435.572 62.9086 434.681 62.2522 434.025C61.5958 433.369 60.7056 433 59.7773 433H51.7773C50.8491 433 49.9588 433.369 49.3025 434.025C48.6461 434.681 48.2773 435.572 48.2773 436.5V444.5C48.2773 445.428 48.6461 446.319 49.3025 446.975C49.9588 447.631 50.8491 448 51.7773 448H59.7773C60.7056 448 61.5958 447.631 62.2522 446.975C62.9086 446.319 63.2773 445.428 63.2773 444.5V436.5ZM63.2773 452.5C63.2773 451.572 62.9086 450.682 62.2522 450.025C61.5958 449.369 60.7056 449 59.7773 449H51.7773C50.8491 449 49.9588 449.369 49.3025 450.025C48.6461 450.682 48.2773 451.572 48.2773 452.5V460.5C48.2773 461.428 48.6461 462.318 49.3025 462.975C49.9588 463.631 50.8491 464 51.7773 464H59.7773C60.7056 464 61.5958 463.631 62.2522 462.975C62.9086 462.318 63.2773 461.428 63.2773 460.5V452.5ZM63.2773 468.5C63.2773 467.572 62.9086 466.682 62.2522 466.025C61.5958 465.369 60.7056 465 59.7773 465H51.7773C50.8491 465 49.9588 465.369 49.3025 466.025C48.6461 466.682 48.2773 467.572 48.2773 468.5V476.5C48.2773 477.428 48.6461 478.318 49.3025 478.975C49.9588 479.631 50.8491 480 51.7773 480H59.7773C60.7056 480 61.5958 479.631 62.2522 478.975C62.9086 478.318 63.2773 477.428 63.2773 476.5V468.5ZM79.2773 292.5C79.2773 291.572 78.9086 290.681 78.2522 290.025C77.5958 289.369 76.7056 289 75.7773 289H67.7773C66.8491 289 65.9588 289.369 65.3025 290.025C64.6461 290.681 64.2773 291.572 64.2773 292.5V300.5C64.2773 301.428 64.6461 302.319 65.3025 302.975C65.9588 303.631 66.8491 304 67.7773 304H75.7773C76.7056 304 77.5958 303.631 78.2522 302.975C78.9086 302.319 79.2773 301.428 79.2773 300.5V292.5ZM79.2773 308.5C79.2773 307.572 78.9086 306.681 78.2522 306.025C77.5958 305.369 76.7056 305 75.7773 305H67.7773C66.8491 305 65.9588 305.369 65.3025 306.025C64.6461 306.681 64.2773 307.572 64.2773 308.5V316.5C64.2773 317.428 64.6461 318.319 65.3025 318.975C65.9588 319.631 66.8491 320 67.7773 320H75.7773C76.7056 320 77.5958 319.631 78.2522 318.975C78.9086 318.319 79.2773 317.428 79.2773 316.5V308.5ZM79.2773 324.5C79.2773 323.572 78.9086 322.681 78.2522 322.025C77.5958 321.369 76.7056 321 75.7773 321H67.7773C66.8491 321 65.9588 321.369 65.3025 322.025C64.6461 322.681 64.2773 323.572 64.2773 324.5V332.5C64.2773 333.428 64.6461 334.319 65.3025 334.975C65.9588 335.631 66.8491 336 67.7773 336H75.7773C76.7056 336 77.5958 335.631 78.2522 334.975C78.9086 334.319 79.2773 333.428 79.2773 332.5V324.5ZM79.2773 340.5C79.2773 339.572 78.9086 338.681 78.2522 338.025C77.5958 337.369 76.7056 337 75.7773 337H67.7773C66.8491 337 65.9588 337.369 65.3025 338.025C64.6461 338.681 64.2773 339.572 64.2773 340.5V348.5C64.2773 349.428 64.6461 350.319 65.3025 350.975C65.9588 351.631 66.8491 352 67.7773 352H75.7773C76.7056 352 77.5958 351.631 78.2522 350.975C78.9086 350.319 79.2773 349.428 79.2773 348.5V340.5ZM79.2773 388.5C79.2773 387.572 78.9086 386.681 78.2522 386.025C77.5958 385.369 76.7056 385 75.7773 385H67.7773C66.8491 385 65.9588 385.369 65.3025 386.025C64.6461 386.681 64.2773 387.572 64.2773 388.5V396.5C64.2773 397.428 64.6461 398.319 65.3025 398.975C65.9588 399.631 66.8491 400 67.7773 400H75.7773C76.7056 400 77.5958 399.631 78.2522 398.975C78.9086 398.319 79.2773 397.428 79.2773 396.5V388.5ZM79.2773 404.5C79.2773 403.572 78.9086 402.681 78.2522 402.025C77.5958 401.369 76.7056 401 75.7773 401H67.7773C66.8491 401 65.9588 401.369 65.3025 402.025C64.6461 402.681 64.2773 403.572 64.2773 404.5V412.5C64.2773 413.428 64.6461 414.319 65.3025 414.975C65.9588 415.631 66.8491 416 67.7773 416H75.7773C76.7056 416 77.5958 415.631 78.2522 414.975C78.9086 414.319 79.2773 413.428 79.2773 412.5V404.5ZM95.2773 292.5C95.2773 291.572 94.9086 290.681 94.2522 290.025C93.5958 289.369 92.7056 289 91.7773 289H83.7773C82.8491 289 81.9588 289.369 81.3025 290.025C80.6461 290.681 80.2773 291.572 80.2773 292.5V300.5C80.2773 301.428 80.6461 302.319 81.3025 302.975C81.9588 303.631 82.8491 304 83.7773 304H91.7773C92.7056 304 93.5958 303.631 94.2522 302.975C94.9086 302.319 95.2773 301.428 95.2773 300.5V292.5ZM95.2773 308.5C95.2773 307.572 94.9086 306.681 94.2522 306.025C93.5958 305.369 92.7056 305 91.7773 305H83.7773C82.8491 305 81.9588 305.369 81.3025 306.025C80.6461 306.681 80.2773 307.572 80.2773 308.5V316.5C80.2773 317.428 80.6461 318.319 81.3025 318.975C81.9588 319.631 82.8491 320 83.7773 320H91.7773C92.7056 320 93.5958 319.631 94.2522 318.975C94.9086 318.319 95.2773 317.428 95.2773 316.5V308.5ZM95.2773 324.5C95.2773 323.572 94.9086 322.681 94.2522 322.025C93.5958 321.369 92.7056 321 91.7773 321H83.7773C82.8491 321 81.9588 321.369 81.3025 322.025C80.6461 322.681 80.2773 323.572 80.2773 324.5V332.5C80.2773 333.428 80.6461 334.319 81.3025 334.975C81.9588 335.631 82.8491 336 83.7773 336H91.7773C92.7056 336 93.5958 335.631 94.2522 334.975C94.9086 334.319 95.2773 333.428 95.2773 332.5V324.5ZM95.2773 340.5C95.2773 339.572 94.9086 338.681 94.2522 338.025C93.5958 337.369 92.7056 337 91.7773 337H83.7773C82.8491 337 81.9588 337.369 81.3025 338.025C80.6461 338.681 80.2773 339.572 80.2773 340.5V348.5C80.2773 349.428 80.6461 350.319 81.3025 350.975C81.9588 351.631 82.8491 352 83.7773 352H91.7773C92.7056 352 93.5958 351.631 94.2522 350.975C94.9086 350.319 95.2773 349.428 95.2773 348.5V340.5ZM95.2773 388.5C95.2773 387.572 94.9086 386.681 94.2522 386.025C93.5958 385.369 92.7056 385 91.7773 385H83.7773C82.8491 385 81.9588 385.369 81.3025 386.025C80.6461 386.681 80.2773 387.572 80.2773 388.5V396.5C80.2773 397.428 80.6461 398.319 81.3025 398.975C81.9588 399.631 82.8491 400 83.7773 400H91.7773C92.7056 400 93.5958 399.631 94.2522 398.975C94.9086 398.319 95.2773 397.428 95.2773 396.5V388.5ZM95.2773 404.5C95.2773 403.572 94.9086 402.681 94.2522 402.025C93.5958 401.369 92.7056 401 91.7773 401H83.7773C82.8491 401 81.9588 401.369 81.3025 402.025C80.6461 402.681 80.2773 403.572 80.2773 404.5V412.5C80.2773 413.428 80.6461 414.319 81.3025 414.975C81.9588 415.631 82.8491 416 83.7773 416H91.7773C92.7056 416 93.5958 415.631 94.2522 414.975C94.9086 414.319 95.2773 413.428 95.2773 412.5V404.5ZM111.277 292.5C111.277 291.572 110.909 290.681 110.252 290.025C109.596 289.369 108.706 289 107.777 289H99.7773C98.8491 289 97.9588 289.369 97.3025 290.025C96.6461 290.681 96.2773 291.572 96.2773 292.5V300.5C96.2773 301.428 96.6461 302.319 97.3025 302.975C97.9588 303.631 98.8491 304 99.7773 304H107.777C108.706 304 109.596 303.631 110.252 302.975C110.909 302.319 111.277 301.428 111.277 300.5V292.5ZM111.277 308.5C111.277 307.572 110.909 306.681 110.252 306.025C109.596 305.369 108.706 305 107.777 305H99.7773C98.8491 305 97.9588 305.369 97.3025 306.025C96.6461 306.681 96.2773 307.572 96.2773 308.5V316.5C96.2773 317.428 96.6461 318.319 97.3025 318.975C97.9588 319.631 98.8491 320 99.7773 320H107.777C108.706 320 109.596 319.631 110.252 318.975C110.909 318.319 111.277 317.428 111.277 316.5V308.5ZM111.277 324.5C111.277 323.572 110.909 322.681 110.252 322.025C109.596 321.369 108.706 321 107.777 321H99.7773C98.8491 321 97.9588 321.369 97.3025 322.025C96.6461 322.681 96.2773 323.572 96.2773 324.5V332.5C96.2773 333.428 96.6461 334.319 97.3025 334.975C97.9588 335.631 98.8491 336 99.7773 336H107.777C108.706 336 109.596 335.631 110.252 334.975C110.909 334.319 111.277 333.428 111.277 332.5V324.5ZM111.277 340.5C111.277 339.572 110.909 338.681 110.252 338.025C109.596 337.369 108.706 337 107.777 337H99.7773C98.8491 337 97.9588 337.369 97.3025 338.025C96.6461 338.681 96.2773 339.572 96.2773 340.5V348.5C96.2773 349.428 96.6461 350.319 97.3025 350.975C97.9588 351.631 98.8491 352 99.7773 352H107.777C108.706 352 109.596 351.631 110.252 350.975C110.909 350.319 111.277 349.428 111.277 348.5V340.5ZM111.277 356.5C111.277 355.572 110.909 354.681 110.252 354.025C109.596 353.369 108.706 353 107.777 353H99.7773C98.8491 353 97.9588 353.369 97.3025 354.025C96.6461 354.681 96.2773 355.572 96.2773 356.5V364.5C96.2773 365.428 96.6461 366.319 97.3025 366.975C97.9588 367.631 98.8491 368 99.7773 368H107.777C108.706 368 109.596 367.631 110.252 366.975C110.909 366.319 111.277 365.428 111.277 364.5V356.5ZM111.277 372.5C111.277 371.572 110.909 370.681 110.252 370.025C109.596 369.369 108.706 369 107.777 369H99.7773C98.8491 369 97.9588 369.369 97.3025 370.025C96.6461 370.681 96.2773 371.572 96.2773 372.5V380.5C96.2773 381.428 96.6461 382.319 97.3025 382.975C97.9588 383.631 98.8491 384 99.7773 384H107.777C108.706 384 109.596 383.631 110.252 382.975C110.909 382.319 111.277 381.428 111.277 380.5V372.5ZM127.277 292.5C127.277 291.572 126.909 290.681 126.252 290.025C125.596 289.369 124.706 289 123.777 289H115.777C114.849 289 113.959 289.369 113.302 290.025C112.646 290.681 112.277 291.572 112.277 292.5V300.5C112.277 301.428 112.646 302.319 113.302 302.975C113.959 303.631 114.849 304 115.777 304H123.777C124.706 304 125.596 303.631 126.252 302.975C126.909 302.319 127.277 301.428 127.277 300.5V292.5ZM127.277 308.5C127.277 307.572 126.909 306.681 126.252 306.025C125.596 305.369 124.706 305 123.777 305H115.777C114.849 305 113.959 305.369 113.302 306.025C112.646 306.681 112.277 307.572 112.277 308.5V316.5C112.277 317.428 112.646 318.319 113.302 318.975C113.959 319.631 114.849 320 115.777 320H123.777C124.706 320 125.596 319.631 126.252 318.975C126.909 318.319 127.277 317.428 127.277 316.5V308.5ZM127.277 324.5C127.277 323.572 126.909 322.681 126.252 322.025C125.596 321.369 124.706 321 123.777 321H115.777C114.849 321 113.959 321.369 113.302 322.025C112.646 322.681 112.277 323.572 112.277 324.5V332.5C112.277 333.428 112.646 334.319 113.302 334.975C113.959 335.631 114.849 336 115.777 336H123.777C124.706 336 125.596 335.631 126.252 334.975C126.909 334.319 127.277 333.428 127.277 332.5V324.5ZM127.277 340.5C127.277 339.572 126.909 338.681 126.252 338.025C125.596 337.369 124.706 337 123.777 337H115.777C114.849 337 113.959 337.369 113.302 338.025C112.646 338.681 112.277 339.572 112.277 340.5V348.5C112.277 349.428 112.646 350.319 113.302 350.975C113.959 351.631 114.849 352 115.777 352H123.777C124.706 352 125.596 351.631 126.252 350.975C126.909 350.319 127.277 349.428 127.277 348.5V340.5ZM127.277 356.5C127.277 355.572 126.909 354.681 126.252 354.025C125.596 353.369 124.706 353 123.777 353H115.777C114.849 353 113.959 353.369 113.302 354.025C112.646 354.681 112.277 355.572 112.277 356.5V364.5C112.277 365.428 112.646 366.319 113.302 366.975C113.959 367.631 114.849 368 115.777 368H123.777C124.706 368 125.596 367.631 126.252 366.975C126.909 366.319 127.277 365.428 127.277 364.5V356.5ZM127.277 372.5C127.277 371.572 126.909 370.681 126.252 370.025C125.596 369.369 124.706 369 123.777 369H115.777C114.849 369 113.959 369.369 113.302 370.025C112.646 370.681 112.277 371.572 112.277 372.5V380.5C112.277 381.428 112.646 382.319 113.302 382.975C113.959 383.631 114.849 384 115.777 384H123.777C124.706 384 125.596 383.631 126.252 382.975C126.909 382.319 127.277 381.428 127.277 380.5V372.5ZM143.277 292.5C143.277 291.572 142.909 290.681 142.252 290.025C141.596 289.369 140.706 289 139.777 289H131.777C130.849 289 129.959 289.369 129.302 290.025C128.646 290.681 128.277 291.572 128.277 292.5V300.5C128.277 301.428 128.646 302.319 129.302 302.975C129.959 303.631 130.849 304 131.777 304H139.777C140.706 304 141.596 303.631 142.252 302.975C142.909 302.319 143.277 301.428 143.277 300.5V292.5ZM143.277 308.5C143.277 307.572 142.909 306.681 142.252 306.025C141.596 305.369 140.706 305 139.777 305H131.777C130.849 305 129.959 305.369 129.302 306.025C128.646 306.681 128.277 307.572 128.277 308.5V316.5C128.277 317.428 128.646 318.319 129.302 318.975C129.959 319.631 130.849 320 131.777 320H139.777C140.706 320 141.596 319.631 142.252 318.975C142.909 318.319 143.277 317.428 143.277 316.5V308.5ZM143.277 260.5C143.277 259.572 142.909 258.681 142.252 258.025C141.596 257.369 140.706 257 139.777 257H131.777C130.849 257 129.959 257.369 129.302 258.025C128.646 258.681 128.277 259.572 128.277 260.5V268.5C128.277 269.428 128.646 270.319 129.302 270.975C129.959 271.631 130.849 272 131.777 272H139.777C140.706 272 141.596 271.631 142.252 270.975C142.909 270.319 143.277 269.428 143.277 268.5V260.5ZM143.277 276.5C143.277 275.572 142.909 274.681 142.252 274.025C141.596 273.369 140.706 273 139.777 273H131.777C130.849 273 129.959 273.369 129.302 274.025C128.646 274.681 128.277 275.572 128.277 276.5V284.5C128.277 285.428 128.646 286.319 129.302 286.975C129.959 287.631 130.849 288 131.777 288H139.777C140.706 288 141.596 287.631 142.252 286.975C142.909 286.319 143.277 285.428 143.277 284.5V276.5ZM143.277 324.5C143.277 323.572 142.909 322.681 142.252 322.025C141.596 321.369 140.706 321 139.777 321H131.777C130.849 321 129.959 321.369 129.302 322.025C128.646 322.681 128.277 323.572 128.277 324.5V332.5C128.277 333.428 128.646 334.319 129.302 334.975C129.959 335.631 130.849 336 131.777 336H139.777C140.706 336 141.596 335.631 142.252 334.975C142.909 334.319 143.277 333.428 143.277 332.5V324.5ZM143.277 340.5C143.277 339.572 142.909 338.681 142.252 338.025C141.596 337.369 140.706 337 139.777 337H131.777C130.849 337 129.959 337.369 129.302 338.025C128.646 338.681 128.277 339.572 128.277 340.5V348.5C128.277 349.428 128.646 350.319 129.302 350.975C129.959 351.631 130.849 352 131.777 352H139.777C140.706 352 141.596 351.631 142.252 350.975C142.909 350.319 143.277 349.428 143.277 348.5V340.5ZM159.277 292.5C159.277 291.572 158.909 290.681 158.252 290.025C157.596 289.369 156.706 289 155.777 289H147.777C146.849 289 145.959 289.369 145.302 290.025C144.646 290.681 144.277 291.572 144.277 292.5V300.5C144.277 301.428 144.646 302.319 145.302 302.975C145.959 303.631 146.849 304 147.777 304H155.777C156.706 304 157.596 303.631 158.252 302.975C158.909 302.319 159.277 301.428 159.277 300.5V292.5ZM159.277 308.5C159.277 307.572 158.909 306.681 158.252 306.025C157.596 305.369 156.706 305 155.777 305H147.777C146.849 305 145.959 305.369 145.302 306.025C144.646 306.681 144.277 307.572 144.277 308.5V316.5C144.277 317.428 144.646 318.319 145.302 318.975C145.959 319.631 146.849 320 147.777 320H155.777C156.706 320 157.596 319.631 158.252 318.975C158.909 318.319 159.277 317.428 159.277 316.5V308.5ZM143.277 388.5C143.277 387.572 142.909 386.681 142.252 386.025C141.596 385.369 140.706 385 139.777 385H131.777C130.849 385 129.959 385.369 129.302 386.025C128.646 386.681 128.277 387.572 128.277 388.5V396.5C128.277 397.428 128.646 398.319 129.302 398.975C129.959 399.631 130.849 400 131.777 400H139.777C140.706 400 141.596 399.631 142.252 398.975C142.909 398.319 143.277 397.428 143.277 396.5V388.5ZM143.277 404.5C143.277 403.572 142.909 402.681 142.252 402.025C141.596 401.369 140.706 401 139.777 401H131.777C130.849 401 129.959 401.369 129.302 402.025C128.646 402.681 128.277 403.572 128.277 404.5V412.5C128.277 413.428 128.646 414.319 129.302 414.975C129.959 415.631 130.849 416 131.777 416H139.777C140.706 416 141.596 415.631 142.252 414.975C142.909 414.319 143.277 413.428 143.277 412.5V404.5ZM159.277 260.5C159.277 259.572 158.909 258.681 158.252 258.025C157.596 257.369 156.706 257 155.777 257H147.777C146.849 257 145.959 257.369 145.302 258.025C144.646 258.681 144.277 259.572 144.277 260.5V268.5C144.277 269.428 144.646 270.319 145.302 270.975C145.959 271.631 146.849 272 147.777 272H155.777C156.706 272 157.596 271.631 158.252 270.975C158.909 270.319 159.277 269.428 159.277 268.5V260.5ZM159.277 276.5C159.277 275.572 158.909 274.681 158.252 274.025C157.596 273.369 156.706 273 155.777 273H147.777C146.849 273 145.959 273.369 145.302 274.025C144.646 274.681 144.277 275.572 144.277 276.5V284.5C144.277 285.428 144.646 286.319 145.302 286.975C145.959 287.631 146.849 288 147.777 288H155.777C156.706 288 157.596 287.631 158.252 286.975C158.909 286.319 159.277 285.428 159.277 284.5V276.5ZM159.277 324.5C159.277 323.572 158.909 322.681 158.252 322.025C157.596 321.369 156.706 321 155.777 321H147.777C146.849 321 145.959 321.369 145.302 322.025C144.646 322.681 144.277 323.572 144.277 324.5V332.5C144.277 333.428 144.646 334.319 145.302 334.975C145.959 335.631 146.849 336 147.777 336H155.777C156.706 336 157.596 335.631 158.252 334.975C158.909 334.319 159.277 333.428 159.277 332.5V324.5ZM159.277 340.5C159.277 339.572 158.909 338.681 158.252 338.025C157.596 337.369 156.706 337 155.777 337H147.777C146.849 337 145.959 337.369 145.302 338.025C144.646 338.681 144.277 339.572 144.277 340.5V348.5C144.277 349.428 144.646 350.319 145.302 350.975C145.959 351.631 146.849 352 147.777 352H155.777C156.706 352 157.596 351.631 158.252 350.975C158.909 350.319 159.277 349.428 159.277 348.5V340.5ZM159.277 388.5C159.277 387.572 158.909 386.681 158.252 386.025C157.596 385.369 156.706 385 155.777 385H147.777C146.849 385 145.959 385.369 145.302 386.025C144.646 386.681 144.277 387.572 144.277 388.5V396.5C144.277 397.428 144.646 398.319 145.302 398.975C145.959 399.631 146.849 400 147.777 400H155.777C156.706 400 157.596 399.631 158.252 398.975C158.909 398.319 159.277 397.428 159.277 396.5V388.5ZM159.277 404.5C159.277 403.572 158.909 402.681 158.252 402.025C157.596 401.369 156.706 401 155.777 401H147.777C146.849 401 145.959 401.369 145.302 402.025C144.646 402.681 144.277 403.572 144.277 404.5V412.5C144.277 413.428 144.646 414.319 145.302 414.975C145.959 415.631 146.849 416 147.777 416H155.777C156.706 416 157.596 415.631 158.252 414.975C158.909 414.319 159.277 413.428 159.277 412.5V404.5ZM175.277 324.5C175.277 323.572 174.909 322.681 174.252 322.025C173.596 321.369 172.706 321 171.777 321H163.777C162.849 321 161.959 321.369 161.302 322.025C160.646 322.681 160.277 323.572 160.277 324.5V332.5C160.277 333.428 160.646 334.319 161.302 334.975C161.959 335.631 162.849 336 163.777 336H171.777C172.706 336 173.596 335.631 174.252 334.975C174.909 334.319 175.277 333.428 175.277 332.5V324.5ZM175.277 340.5C175.277 339.572 174.909 338.681 174.252 338.025C173.596 337.369 172.706 337 171.777 337H163.777C162.849 337 161.959 337.369 161.302 338.025C160.646 338.681 160.277 339.572 160.277 340.5V348.5C160.277 349.428 160.646 350.319 161.302 350.975C161.959 351.631 162.849 352 163.777 352H171.777C172.706 352 173.596 351.631 174.252 350.975C174.909 350.319 175.277 349.428 175.277 348.5V340.5ZM191.277 324.5C191.277 323.572 190.909 322.681 190.252 322.025C189.596 321.369 188.706 321 187.777 321H179.777C178.849 321 177.959 321.369 177.302 322.025C176.646 322.681 176.277 323.572 176.277 324.5V332.5C176.277 333.428 176.646 334.319 177.302 334.975C177.959 335.631 178.849 336 179.777 336H187.777C188.706 336 189.596 335.631 190.252 334.975C190.909 334.319 191.277 333.428 191.277 332.5V324.5ZM191.277 340.5C191.277 339.572 190.909 338.681 190.252 338.025C189.596 337.369 188.706 337 187.777 337H179.777C178.849 337 177.959 337.369 177.302 338.025C176.646 338.681 176.277 339.572 176.277 340.5V348.5C176.277 349.428 176.646 350.319 177.302 350.975C177.959 351.631 178.849 352 179.777 352H187.777C188.706 352 189.596 351.631 190.252 350.975C190.909 350.319 191.277 349.428 191.277 348.5V340.5ZM15.7823 306.451C15.3203 305.649 14.6433 304.952 13.8283 304.504C14.6519 304.052 15.3296 303.374 15.7823 302.551C16.2253 303.343 16.9423 304.047 17.7283 304.504C16.9223 304.975 16.2253 305.631 15.7823 306.451ZM15.7823 402.451C15.3203 401.649 14.6433 400.952 13.8283 400.504C14.6519 400.052 15.3296 399.374 15.7823 398.551C16.2253 399.343 16.9423 400.047 17.7283 400.504C16.9223 400.975 16.2253 401.631 15.7823 402.451ZM15.7823 418.451C15.3203 417.649 14.6433 416.952 13.8283 416.504C14.6519 416.052 15.3296 415.374 15.7823 414.551C16.2253 415.343 16.9423 416.047 17.7283 416.504C16.9223 416.975 16.2253 417.631 15.7823 418.451ZM15.7823 434.451C15.3203 433.649 14.6433 432.952 13.8283 432.504C14.6519 432.052 15.3296 431.374 15.7823 430.551C16.2253 431.343 16.9423 432.047 17.7283 432.504C16.9223 432.975 16.2253 433.631 15.7823 434.451ZM31.7823 386.451C31.3203 385.649 30.6433 384.952 29.8283 384.504C30.6519 384.052 31.3296 383.374 31.7823 382.551C32.2253 383.343 32.9423 384.047 33.7283 384.504C32.9223 384.975 32.2253 385.631 31.7823 386.451ZM31.7823 418.451C31.3203 417.649 30.6433 416.952 29.8283 416.504C30.6519 416.052 31.3296 415.374 31.7823 414.551C32.2253 415.343 32.9423 416.047 33.7283 416.504C32.9223 416.975 32.2253 417.631 31.7823 418.451ZM31.7823 434.451C31.3203 433.649 30.6433 432.952 29.8283 432.504C30.6519 432.052 31.3296 431.374 31.7823 430.551C32.2253 431.343 32.9423 432.047 33.7283 432.504C32.9223 432.975 32.2253 433.631 31.7823 434.451ZM31.7823 450.451C31.3203 449.649 30.6433 448.952 29.8283 448.504C30.6519 448.052 31.3296 447.374 31.7823 446.551C32.2253 447.343 32.9423 448.047 33.7283 448.504C32.9223 448.975 32.2253 449.631 31.7823 450.451ZM47.7823 370.451C47.3203 369.649 46.6433 368.952 45.8283 368.504C46.6519 368.052 47.3296 367.374 47.7823 366.551C48.2253 367.343 48.9423 368.047 49.7283 368.504C48.9223 368.975 48.2253 369.631 47.7823 370.451ZM47.7823 434.451C47.3203 433.649 46.6433 432.952 45.8283 432.504C46.6519 432.052 47.3296 431.374 47.7823 430.551C48.2253 431.343 48.9423 432.047 49.7283 432.504C48.9223 432.975 48.2253 433.631 47.7823 434.451ZM47.7823 450.451C47.3203 449.649 46.6433 448.952 45.8283 448.504C46.6519 448.052 47.3296 447.374 47.7823 446.551C48.2253 447.343 48.9423 448.047 49.7283 448.504C48.9223 448.975 48.2253 449.631 47.7823 450.451ZM47.7823 466.451C47.3203 465.649 46.6433 464.952 45.8283 464.504C46.6519 464.052 47.3296 463.374 47.7823 462.551C48.2253 463.343 48.9423 464.047 49.7283 464.504C48.9223 464.974 48.2253 465.631 47.7823 466.451ZM63.7823 354.451C63.3203 353.649 62.6433 352.952 61.8283 352.504C62.6519 352.052 63.3296 351.374 63.7823 350.551C64.2253 351.343 64.9423 352.047 65.7283 352.504C64.9233 352.975 64.2253 353.631 63.7823 354.451ZM63.7823 386.451C63.3203 385.649 62.6433 384.952 61.8283 384.504C62.6519 384.052 63.3296 383.374 63.7823 382.551C64.2253 383.343 64.9423 384.047 65.7283 384.504C64.9233 384.975 64.2253 385.631 63.7823 386.451ZM63.7823 418.451C63.3203 417.649 62.6433 416.952 61.8283 416.504C62.6519 416.052 63.3296 415.374 63.7823 414.551C64.2253 415.343 64.9423 416.047 65.7283 416.504C64.9233 416.975 64.2253 417.631 63.7823 418.451ZM79.7823 306.451C79.3203 305.649 78.6433 304.952 77.8283 304.504C78.6519 304.052 79.3296 303.374 79.7823 302.551C80.2253 303.343 80.9423 304.047 81.7283 304.504C80.9233 304.975 80.2253 305.631 79.7823 306.451ZM79.7823 322.451C79.3203 321.649 78.6433 320.952 77.8283 320.504C78.6519 320.052 79.3296 319.374 79.7823 318.551C80.2253 319.343 80.9423 320.047 81.7283 320.504C80.9233 320.975 80.2253 321.631 79.7823 322.451ZM79.7823 338.451C79.3203 337.649 78.6433 336.952 77.8283 336.504C78.6519 336.052 79.3296 335.374 79.7823 334.551C80.2253 335.343 80.9423 336.047 81.7283 336.504C80.9233 336.975 80.2253 337.631 79.7823 338.451ZM79.7823 402.451C79.3203 401.649 78.6433 400.952 77.8283 400.504C78.6519 400.052 79.3296 399.374 79.7823 398.551C80.2253 399.343 80.9423 400.047 81.7283 400.504C80.9233 400.975 80.2253 401.631 79.7823 402.451ZM95.7823 306.451C95.3203 305.649 94.6433 304.952 93.8283 304.504C94.6519 304.052 95.3296 303.374 95.7823 302.551C96.2253 303.343 96.9423 304.047 97.7283 304.504C96.9233 304.975 96.2253 305.631 95.7823 306.451ZM95.7823 322.451C95.3203 321.649 94.6433 320.952 93.8283 320.504C94.6519 320.052 95.3296 319.374 95.7823 318.551C96.2253 319.343 96.9423 320.047 97.7283 320.504C96.9233 320.975 96.2253 321.631 95.7823 322.451ZM95.7823 338.451C95.3203 337.649 94.6433 336.952 93.8283 336.504C94.6519 336.052 95.3296 335.374 95.7823 334.551C96.2253 335.343 96.9423 336.047 97.7283 336.504C96.9233 336.975 96.2253 337.631 95.7823 338.451ZM95.7823 354.451C95.3203 353.649 94.6433 352.952 93.8283 352.504C94.6519 352.052 95.3296 351.374 95.7823 350.551C96.2253 351.343 96.9423 352.047 97.7283 352.504C96.9233 352.975 96.2253 353.631 95.7823 354.451ZM95.7823 386.451C95.3203 385.649 94.6433 384.952 93.8283 384.504C94.6519 384.052 95.3296 383.374 95.7823 382.551C96.2253 383.343 96.9423 384.047 97.7283 384.504C96.9233 384.975 96.2253 385.631 95.7823 386.451ZM111.782 306.451C111.32 305.649 110.643 304.952 109.828 304.504C110.652 304.052 111.33 303.374 111.782 302.551C112.225 303.343 112.943 304.047 113.728 304.504C112.923 304.974 112.225 305.631 111.782 306.451ZM111.782 322.451C111.32 321.649 110.643 320.952 109.828 320.504C110.652 320.052 111.33 319.374 111.782 318.551C112.225 319.343 112.943 320.047 113.728 320.504C112.923 320.974 112.225 321.631 111.782 322.451ZM111.782 338.451C111.32 337.649 110.643 336.952 109.828 336.504C110.652 336.052 111.33 335.374 111.782 334.551C112.225 335.343 112.943 336.047 113.728 336.504C112.923 336.974 112.225 337.631 111.782 338.451ZM111.782 354.451C111.32 353.649 110.643 352.952 109.828 352.504C110.652 352.052 111.33 351.374 111.782 350.551C112.225 351.343 112.943 352.047 113.728 352.504C112.923 352.974 112.225 353.631 111.782 354.451ZM111.782 370.451C111.32 369.649 110.643 368.952 109.828 368.504C110.652 368.052 111.33 367.374 111.782 366.551C112.225 367.343 112.943 368.047 113.728 368.504C112.923 368.974 112.225 369.631 111.782 370.451ZM127.782 306.451C127.32 305.649 126.643 304.952 125.828 304.504C126.652 304.052 127.33 303.374 127.782 302.551C128.225 303.343 128.943 304.047 129.728 304.504C128.923 304.974 128.225 305.631 127.782 306.451ZM143.782 306.451C143.32 305.649 142.643 304.952 141.828 304.504C142.652 304.052 143.33 303.374 143.782 302.551C144.225 303.343 144.943 304.047 145.728 304.504C144.923 304.974 144.225 305.631 143.782 306.451ZM127.782 322.451C127.32 321.649 126.643 320.952 125.828 320.504C126.652 320.052 127.33 319.374 127.782 318.551C128.225 319.343 128.943 320.047 129.728 320.504C128.923 320.974 128.225 321.631 127.782 322.451ZM127.782 338.451C127.32 337.649 126.643 336.952 125.828 336.504C126.652 336.052 127.33 335.374 127.782 334.551C128.225 335.343 128.943 336.047 129.728 336.504C128.923 336.974 128.225 337.631 127.782 338.451ZM127.782 354.451C127.32 353.649 126.643 352.952 125.828 352.504C126.652 352.052 127.33 351.374 127.782 350.551C128.225 351.343 128.943 352.047 129.728 352.504C128.923 352.974 128.225 353.631 127.782 354.451ZM127.782 386.451C127.32 385.649 126.643 384.952 125.828 384.504C126.652 384.052 127.33 383.374 127.782 382.551C128.225 383.343 128.943 384.047 129.728 384.504C128.923 384.974 128.225 385.631 127.782 386.451ZM143.782 274.451C143.32 273.649 142.643 272.952 141.828 272.504C142.652 272.052 143.33 271.374 143.782 270.551C144.225 271.343 144.943 272.047 145.728 272.504C144.923 272.974 144.225 273.631 143.782 274.451ZM159.778 258.451C159.316 257.649 158.639 256.952 157.824 256.504C158.648 256.052 159.326 255.374 159.778 254.551C160.221 255.343 160.939 256.047 161.724 256.504C160.919 256.974 160.221 257.631 159.778 258.451ZM143.782 322.451C143.32 321.649 142.643 320.952 141.828 320.504C142.652 320.052 143.33 319.374 143.782 318.551C144.225 319.343 144.943 320.047 145.728 320.504C144.923 320.974 144.225 321.631 143.782 322.451ZM143.782 338.451C143.32 337.649 142.643 336.952 141.828 336.504C142.652 336.052 143.33 335.374 143.782 334.551C144.225 335.343 144.943 336.047 145.728 336.504C144.923 336.974 144.225 337.631 143.782 338.451ZM143.782 402.451C143.32 401.649 142.643 400.952 141.828 400.504C142.652 400.052 143.33 399.374 143.782 398.551C144.225 399.343 144.943 400.047 145.728 400.504C144.923 400.975 144.225 401.631 143.782 402.451ZM159.782 322.451C159.32 321.649 158.643 320.952 157.828 320.504C158.652 320.052 159.33 319.374 159.782 318.551C160.225 319.343 160.943 320.047 161.728 320.504C160.923 320.974 160.225 321.631 159.782 322.451ZM159.782 338.451C159.32 337.649 158.643 336.952 157.828 336.504C158.652 336.052 159.33 335.374 159.782 334.551C160.225 335.343 160.943 336.047 161.728 336.504C160.923 336.974 160.225 337.631 159.782 338.451ZM175.782 338.451C175.32 337.649 174.643 336.952 173.828 336.504C174.652 336.052 175.33 335.374 175.782 334.551C176.225 335.343 176.943 336.047 177.728 336.504C176.923 336.974 176.225 337.631 175.782 338.451ZM219.777 80C220.706 80 221.596 79.6312 222.252 78.9749C222.909 78.3185 223.277 77.4283 223.277 76.5V68.5C223.277 67.5717 222.909 66.6815 222.252 66.0251C221.596 65.3688 220.706 65 219.777 65H211.777C210.849 65 209.959 65.3688 209.302 66.0251C208.646 66.6815 208.277 67.5717 208.277 68.5V76.5C208.277 77.4283 208.646 78.3185 209.302 78.9749C209.959 79.6312 210.849 80 211.777 80H219.777ZM203.777 80C204.706 80 205.596 79.6312 206.252 78.9749C206.909 78.3185 207.277 77.4283 207.277 76.5V68.5C207.277 67.5717 206.909 66.6815 206.252 66.0251C205.596 65.3688 204.706 65 203.777 65H195.777C194.849 65 193.959 65.3688 193.302 66.0251C192.646 66.6815 192.277 67.5717 192.277 68.5V76.5C192.277 77.4283 192.646 78.3185 193.302 78.9749C193.959 79.6312 194.849 80 195.777 80H203.777ZM187.777 80C188.706 80 189.596 79.6312 190.252 78.9749C190.909 78.3185 191.277 77.4283 191.277 76.5V68.5C191.277 67.5717 190.909 66.6815 190.252 66.0251C189.596 65.3688 188.706 65 187.777 65H179.777C178.849 65 177.959 65.3688 177.302 66.0251C176.646 66.6815 176.277 67.5717 176.277 68.5V76.5C176.277 77.4283 176.646 78.3185 177.302 78.9749C177.959 79.6312 178.849 80 179.777 80H187.777ZM171.777 80C172.706 80 173.596 79.6312 174.252 78.9749C174.909 78.3185 175.277 77.4283 175.277 76.5V68.5C175.277 67.5717 174.909 66.6815 174.252 66.0251C173.596 65.3688 172.706 65 171.777 65H163.777C162.849 65 161.959 65.3688 161.302 66.0251C160.646 66.6815 160.277 67.5717 160.277 68.5V76.5C160.277 77.4283 160.646 78.3185 161.302 78.9749C161.959 79.6312 162.849 80 163.777 80H171.777ZM123.777 80C124.706 80 125.596 79.6312 126.252 78.9749C126.909 78.3185 127.277 77.4283 127.277 76.5V68.5C127.277 67.5717 126.909 66.6815 126.252 66.0251C125.596 65.3688 124.706 65 123.777 65H115.777C114.849 65 113.959 65.3688 113.302 66.0251C112.646 66.6815 112.277 67.5717 112.277 68.5V76.5C112.277 77.4283 112.646 78.3185 113.302 78.9749C113.959 79.6312 114.849 80 115.777 80H123.777ZM107.777 80C108.706 80 109.596 79.6312 110.252 78.9749C110.909 78.3185 111.277 77.4283 111.277 76.5V68.5C111.277 67.5717 110.909 66.6815 110.252 66.0251C109.596 65.3688 108.706 65 107.777 65H99.7773C98.8491 65 97.9588 65.3688 97.3025 66.0251C96.6461 66.6815 96.2773 67.5717 96.2773 68.5V76.5C96.2773 77.4283 96.6461 78.3185 97.3025 78.9749C97.9588 79.6312 98.8491 80 99.7773 80H107.777ZM91.7773 80C92.7056 80 93.5958 79.6312 94.2522 78.9749C94.9086 78.3185 95.2773 77.4283 95.2773 76.5V68.5C95.2773 67.5717 94.9086 66.6815 94.2522 66.0251C93.5958 65.3688 92.7056 65 91.7773 65H83.7773C82.8491 65 81.9588 65.3688 81.3025 66.0251C80.6461 66.6815 80.2773 67.5717 80.2773 68.5V76.5C80.2773 77.4283 80.6461 78.3185 81.3025 78.9749C81.9588 79.6312 82.8491 80 83.7773 80H91.7773ZM75.7773 80C76.7056 80 77.5958 79.6312 78.2522 78.9749C78.9086 78.3185 79.2773 77.4283 79.2773 76.5V68.5C79.2773 67.5717 78.9086 66.6815 78.2522 66.0251C77.5958 65.3688 76.7056 65 75.7773 65H67.7773C66.8491 65 65.9588 65.3688 65.3025 66.0251C64.6461 66.6815 64.2773 67.5717 64.2773 68.5V76.5C64.2773 77.4283 64.6461 78.3185 65.3025 78.9749C65.9588 79.6312 66.8491 80 67.7773 80H75.7773ZM175.277 -27.5C175.277 -28.4283 174.909 -29.3185 174.252 -29.9749C173.596 -30.6312 172.706 -31 171.777 -31H163.777C162.849 -31 161.959 -30.6312 161.302 -29.9749C160.646 -29.3185 160.277 -28.4283 160.277 -27.5V-19.5C160.277 -18.5717 160.646 -17.6815 161.302 -17.0251C161.959 -16.3688 162.849 -16 163.777 -16H171.777C172.706 -16 173.596 -16.3688 174.252 -17.0251C174.909 -17.6815 175.277 -18.5717 175.277 -19.5V-27.5ZM175.277 -11.5C175.277 -12.4283 174.909 -13.3185 174.252 -13.9749C173.596 -14.6312 172.706 -15 171.777 -15H163.777C162.849 -15 161.959 -14.6312 161.302 -13.9749C160.646 -13.3185 160.277 -12.4283 160.277 -11.5V-3.5C160.277 -2.57174 160.646 -1.6815 161.302 -1.02513C161.959 -0.368752 162.849 0 163.777 0H171.777C172.706 0 173.596 -0.368752 174.252 -1.02513C174.909 -1.6815 175.277 -2.57174 175.277 -3.5V-11.5ZM123.777 96C124.706 96 125.596 95.6312 126.252 94.9749C126.909 94.3185 127.277 93.4283 127.277 92.5V84.5C127.277 83.5717 126.909 82.6815 126.252 82.0251C125.596 81.3688 124.706 81 123.777 81H115.777C114.849 81 113.959 81.3688 113.302 82.0251C112.646 82.6815 112.277 83.5717 112.277 84.5V92.5C112.277 93.4283 112.646 94.3185 113.302 94.9749C113.959 95.6312 114.849 96 115.777 96H123.777ZM107.777 96C108.706 96 109.596 95.6312 110.252 94.9749C110.909 94.3185 111.277 93.4283 111.277 92.5V84.5C111.277 83.5717 110.909 82.6815 110.252 82.0251C109.596 81.3688 108.706 81 107.777 81H99.7773C98.8491 81 97.9588 81.3688 97.3025 82.0251C96.6461 82.6815 96.2773 83.5717 96.2773 84.5V92.5C96.2773 93.4283 96.6461 94.3185 97.3025 94.9749C97.9588 95.6312 98.8491 96 99.7773 96H107.777ZM91.7773 96C92.7056 96 93.5958 95.6312 94.2522 94.9749C94.9086 94.3185 95.2773 93.4283 95.2773 92.5V84.5C95.2773 83.5717 94.9086 82.6815 94.2522 82.0251C93.5958 81.3688 92.7056 81 91.7773 81H83.7773C82.8491 81 81.9588 81.3688 81.3025 82.0251C80.6461 82.6815 80.2773 83.5717 80.2773 84.5V92.5C80.2773 93.4283 80.6461 94.3185 81.3025 94.9749C81.9588 95.6312 82.8491 96 83.7773 96H91.7773ZM75.7773 96C76.7056 96 77.5958 95.6312 78.2522 94.9749C78.9086 94.3185 79.2773 93.4283 79.2773 92.5V84.5C79.2773 83.5717 78.9086 82.6815 78.2522 82.0251C77.5958 81.3688 76.7056 81 75.7773 81H67.7773C66.8491 81 65.9588 81.3688 65.3025 82.0251C64.6461 82.6815 64.2773 83.5717 64.2773 84.5V92.5C64.2773 93.4283 64.6461 94.3185 65.3025 94.9749C65.9588 95.6312 66.8491 96 67.7773 96H75.7773ZM155.777 112C156.706 112 157.596 111.631 158.252 110.975C158.909 110.318 159.277 109.428 159.277 108.5V100.5C159.277 99.5717 158.909 98.6815 158.252 98.0251C157.596 97.3688 156.706 97 155.777 97H147.777C146.849 97 145.959 97.3688 145.302 98.0251C144.646 98.6815 144.277 99.5717 144.277 100.5V108.5C144.277 109.428 144.646 110.318 145.302 110.975C145.959 111.631 146.849 112 147.777 112H155.777ZM139.777 112C140.706 112 141.596 111.631 142.252 110.975C142.909 110.318 143.277 109.428 143.277 108.5V100.5C143.277 99.5717 142.909 98.6815 142.252 98.0251C141.596 97.3688 140.706 97 139.777 97H131.777C130.849 97 129.959 97.3688 129.302 98.0251C128.646 98.6815 128.277 99.5717 128.277 100.5V108.5C128.277 109.428 128.646 110.318 129.302 110.975C129.959 111.631 130.849 112 131.777 112H139.777ZM91.7773 112C92.7056 112 93.5958 111.631 94.2522 110.975C94.9086 110.318 95.2773 109.428 95.2773 108.5V100.5C95.2773 99.5717 94.9086 98.6815 94.2522 98.0251C93.5958 97.3688 92.7056 97 91.7773 97H83.7773C82.8491 97 81.9588 97.3688 81.3025 98.0251C80.6461 98.6815 80.2773 99.5717 80.2773 100.5V108.5C80.2773 109.428 80.6461 110.318 81.3025 110.975C81.9588 111.631 82.8491 112 83.7773 112H91.7773ZM75.7773 112C76.7056 112 77.5958 111.631 78.2522 110.975C78.9086 110.318 79.2773 109.428 79.2773 108.5V100.5C79.2773 99.5717 78.9086 98.6815 78.2522 98.0251C77.5958 97.3688 76.7056 97 75.7773 97H67.7773C66.8491 97 65.9588 97.3688 65.3025 98.0251C64.6461 98.6815 64.2773 99.5717 64.2773 100.5V108.5C64.2773 109.428 64.6461 110.318 65.3025 110.975C65.9588 111.631 66.8491 112 67.7773 112H75.7773ZM59.7773 112C60.7056 112 61.5958 111.631 62.2522 110.975C62.9086 110.318 63.2773 109.428 63.2773 108.5V100.5C63.2773 99.5717 62.9086 98.6815 62.2522 98.0251C61.5958 97.3688 60.7056 97 59.7773 97H51.7773C50.8491 97 49.9588 97.3688 49.3025 98.0251C48.6461 98.6815 48.2773 99.5717 48.2773 100.5V108.5C48.2773 109.428 48.6461 110.318 49.3025 110.975C49.9588 111.631 50.8491 112 51.7773 112H59.7773ZM43.7773 112C44.7056 112 45.5958 111.631 46.2522 110.975C46.9086 110.318 47.2773 109.428 47.2773 108.5V100.5C47.2773 99.5717 46.9086 98.6815 46.2522 98.0251C45.5958 97.3688 44.7056 97 43.7773 97H35.7773C34.8491 97 33.9588 97.3688 33.3025 98.0251C32.6461 98.6815 32.2773 99.5717 32.2773 100.5V108.5C32.2773 109.428 32.6461 110.318 33.3025 110.975C33.9588 111.631 34.8491 112 35.7773 112H43.7773ZM155.777 128C156.706 128 157.596 127.631 158.252 126.975C158.909 126.318 159.277 125.428 159.277 124.5V116.5C159.277 115.572 158.909 114.682 158.252 114.025C157.596 113.369 156.706 113 155.777 113H147.777C146.849 113 145.959 113.369 145.302 114.025C144.646 114.682 144.277 115.572 144.277 116.5V124.5C144.277 125.428 144.646 126.318 145.302 126.975C145.959 127.631 146.849 128 147.777 128H155.777ZM139.777 128C140.706 128 141.596 127.631 142.252 126.975C142.909 126.318 143.277 125.428 143.277 124.5V116.5C143.277 115.572 142.909 114.682 142.252 114.025C141.596 113.369 140.706 113 139.777 113H131.777C130.849 113 129.959 113.369 129.302 114.025C128.646 114.682 128.277 115.572 128.277 116.5V124.5C128.277 125.428 128.646 126.318 129.302 126.975C129.959 127.631 130.849 128 131.777 128H139.777ZM91.7773 128C92.7056 128 93.5958 127.631 94.2522 126.975C94.9086 126.318 95.2773 125.428 95.2773 124.5V116.5C95.2773 115.572 94.9086 114.682 94.2522 114.025C93.5958 113.369 92.7056 113 91.7773 113H83.7773C82.8491 113 81.9588 113.369 81.3025 114.025C80.6461 114.682 80.2773 115.572 80.2773 116.5V124.5C80.2773 125.428 80.6461 126.318 81.3025 126.975C81.9588 127.631 82.8491 128 83.7773 128H91.7773ZM75.7773 128C76.7056 128 77.5958 127.631 78.2522 126.975C78.9086 126.318 79.2773 125.428 79.2773 124.5V116.5C79.2773 115.572 78.9086 114.682 78.2522 114.025C77.5958 113.369 76.7056 113 75.7773 113H67.7773C66.8491 113 65.9588 113.369 65.3025 114.025C64.6461 114.682 64.2773 115.572 64.2773 116.5V124.5C64.2773 125.428 64.6461 126.318 65.3025 126.975C65.9588 127.631 66.8491 128 67.7773 128H75.7773ZM59.7773 128C60.7056 128 61.5958 127.631 62.2522 126.975C62.9086 126.318 63.2773 125.428 63.2773 124.5V116.5C63.2773 115.572 62.9086 114.682 62.2522 114.025C61.5958 113.369 60.7056 113 59.7773 113H51.7773C50.8491 113 49.9588 113.369 49.3025 114.025C48.6461 114.682 48.2773 115.572 48.2773 116.5V124.5C48.2773 125.428 48.6461 126.318 49.3025 126.975C49.9588 127.631 50.8491 128 51.7773 128H59.7773ZM43.7773 128C44.7056 128 45.5958 127.631 46.2522 126.975C46.9086 126.318 47.2773 125.428 47.2773 124.5V116.5C47.2773 115.572 46.9086 114.682 46.2522 114.025C45.5958 113.369 44.7056 113 43.7773 113H35.7773C34.8491 113 33.9588 113.369 33.3025 114.025C32.6461 114.682 32.2773 115.572 32.2773 116.5V124.5C32.2773 125.428 32.6461 126.318 33.3025 126.975C33.9588 127.631 34.8491 128 35.7773 128H43.7773ZM175.277 4.5C175.277 3.57174 174.909 2.6815 174.252 2.02512C173.596 1.36874 172.706 1 171.777 1H163.777C162.849 1 161.959 1.36874 161.302 2.02512C160.646 2.6815 160.277 3.57174 160.277 4.5V12.5C160.277 13.4283 160.646 14.3185 161.302 14.9749C161.959 15.6313 162.849 16 163.777 16H171.777C172.706 16 173.596 15.6313 174.252 14.9749C174.909 14.3185 175.277 13.4283 175.277 12.5V4.5ZM175.277 20.5C175.277 19.5717 174.909 18.6815 174.252 18.0251C173.596 17.3687 172.706 17 171.777 17H163.777C162.849 17 161.959 17.3687 161.302 18.0251C160.646 18.6815 160.277 19.5717 160.277 20.5V28.5C160.277 29.4283 160.646 30.3185 161.302 30.9749C161.959 31.6313 162.849 32 163.777 32H171.777C172.706 32 173.596 31.6313 174.252 30.9749C174.909 30.3185 175.277 29.4283 175.277 28.5V20.5ZM219.777 96C220.706 96 221.596 95.6312 222.252 94.9749C222.909 94.3185 223.277 93.4283 223.277 92.5V84.5C223.277 83.5717 222.909 82.6815 222.252 82.0251C221.596 81.3688 220.706 81 219.777 81H211.777C210.849 81 209.959 81.3688 209.302 82.0251C208.646 82.6815 208.277 83.5717 208.277 84.5V92.5C208.277 93.4283 208.646 94.3185 209.302 94.9749C209.959 95.6312 210.849 96 211.777 96H219.777ZM203.777 96C204.706 96 205.596 95.6312 206.252 94.9749C206.909 94.3185 207.277 93.4283 207.277 92.5V84.5C207.277 83.5717 206.909 82.6815 206.252 82.0251C205.596 81.3688 204.706 81 203.777 81H195.777C194.849 81 193.959 81.3688 193.302 82.0251C192.646 82.6815 192.277 83.5717 192.277 84.5V92.5C192.277 93.4283 192.646 94.3185 193.302 94.9749C193.959 95.6312 194.849 96 195.777 96H203.777ZM191.277 -27.5C191.277 -28.4283 190.909 -29.3185 190.252 -29.9749C189.596 -30.6312 188.706 -31 187.777 -31H179.777C178.849 -31 177.959 -30.6312 177.302 -29.9749C176.646 -29.3185 176.277 -28.4283 176.277 -27.5V-19.5C176.277 -18.5717 176.646 -17.6815 177.302 -17.0251C177.959 -16.3688 178.849 -16 179.777 -16H187.777C188.706 -16 189.596 -16.3688 190.252 -17.0251C190.909 -17.6815 191.277 -18.5717 191.277 -19.5V-27.5ZM191.277 -11.5C191.277 -12.4283 190.909 -13.3185 190.252 -13.9749C189.596 -14.6312 188.706 -15 187.777 -15H179.777C178.849 -15 177.959 -14.6312 177.302 -13.9749C176.646 -13.3185 176.277 -12.4283 176.277 -11.5V-3.5C176.277 -2.57174 176.646 -1.6815 177.302 -1.02513C177.959 -0.368752 178.849 0 179.777 0H187.777C188.706 0 189.596 -0.368752 190.252 -1.02513C190.909 -1.6815 191.277 -2.57174 191.277 -3.5V-11.5ZM191.277 4.5C191.277 3.57174 190.909 2.6815 190.252 2.02512C189.596 1.36874 188.706 1 187.777 1H179.777C178.849 1 177.959 1.36874 177.302 2.02512C176.646 2.6815 176.277 3.57174 176.277 4.5V12.5C176.277 13.4283 176.646 14.3185 177.302 14.9749C177.959 15.6313 178.849 16 179.777 16H187.777C188.706 16 189.596 15.6313 190.252 14.9749C190.909 14.3185 191.277 13.4283 191.277 12.5V4.5ZM191.277 20.5C191.277 19.5717 190.909 18.6815 190.252 18.0251C189.596 17.3687 188.706 17 187.777 17H179.777C178.849 17 177.959 17.3687 177.302 18.0251C176.646 18.6815 176.277 19.5717 176.277 20.5V28.5C176.277 29.4283 176.646 30.3185 177.302 30.9749C177.959 31.6313 178.849 32 179.777 32H187.777C188.706 32 189.596 31.6313 190.252 30.9749C190.909 30.3185 191.277 29.4283 191.277 28.5V20.5ZM207.277 -59.5C207.277 -60.4283 206.909 -61.3185 206.252 -61.9749C205.596 -62.6313 204.706 -63 203.777 -63H195.777C194.849 -63 193.959 -62.6313 193.302 -61.9749C192.646 -61.3185 192.277 -60.4283 192.277 -59.5V-51.5C192.277 -50.5717 192.646 -49.6815 193.302 -49.0251C193.959 -48.3687 194.849 -48 195.777 -48H203.777C204.706 -48 205.596 -48.3687 206.252 -49.0251C206.909 -49.6815 207.277 -50.5717 207.277 -51.5V-59.5ZM207.277 -43.5C207.277 -44.4283 206.909 -45.3185 206.252 -45.9749C205.596 -46.6313 204.706 -47 203.777 -47H195.777C194.849 -47 193.959 -46.6313 193.302 -45.9749C192.646 -45.3185 192.277 -44.4283 192.277 -43.5V-35.5C192.277 -34.5717 192.646 -33.6815 193.302 -33.0251C193.959 -32.3687 194.849 -32 195.777 -32H203.777C204.706 -32 205.596 -32.3687 206.252 -33.0251C206.909 -33.6815 207.277 -34.5717 207.277 -35.5V-43.5ZM207.277 4.5C207.277 3.57174 206.909 2.6815 206.252 2.02512C205.596 1.36874 204.706 1 203.777 1H195.777C194.849 1 193.959 1.36874 193.302 2.02512C192.646 2.6815 192.277 3.57174 192.277 4.5V12.5C192.277 13.4283 192.646 14.3185 193.302 14.9749C193.959 15.6313 194.849 16 195.777 16H203.777C204.706 16 205.596 15.6313 206.252 14.9749C206.909 14.3185 207.277 13.4283 207.277 12.5V4.5ZM207.277 52.5C207.277 51.5717 206.909 50.6815 206.252 50.0251C205.596 49.3687 204.706 49 203.777 49H195.777C194.849 49 193.959 49.3687 193.302 50.0251C192.646 50.6815 192.277 51.5717 192.277 52.5V60.5C192.277 61.4283 192.646 62.3185 193.302 62.9749C193.959 63.6313 194.849 64 195.777 64H203.777C204.706 64 205.596 63.6313 206.252 62.9749C206.909 62.3185 207.277 61.4283 207.277 60.5V52.5ZM207.277 20.5C207.277 19.5717 206.909 18.6815 206.252 18.0251C205.596 17.3687 204.706 17 203.777 17H195.777C194.849 17 193.959 17.3687 193.302 18.0251C192.646 18.6815 192.277 19.5717 192.277 20.5V28.5C192.277 29.4283 192.646 30.3185 193.302 30.9749C193.959 31.6313 194.849 32 195.777 32H203.777C204.706 32 205.596 31.6313 206.252 30.9749C206.909 30.3185 207.277 29.4283 207.277 28.5V20.5ZM207.277 36.5C207.277 35.5717 206.909 34.6815 206.252 34.0251C205.596 33.3687 204.706 33 203.777 33H195.777C194.849 33 193.959 33.3687 193.302 34.0251C192.646 34.6815 192.277 35.5717 192.277 36.5V44.5C192.277 45.4283 192.646 46.3185 193.302 46.9749C193.959 47.6313 194.849 48 195.777 48H203.777C204.706 48 205.596 47.6313 206.252 46.9749C206.909 46.3185 207.277 45.4283 207.277 44.5V36.5ZM175.277 52.5C175.277 51.5717 174.909 50.6815 174.252 50.0251C173.596 49.3687 172.706 49 171.777 49H163.777C162.849 49 161.959 49.3687 161.302 50.0251C160.646 50.6815 160.277 51.5717 160.277 52.5V60.5C160.277 61.4283 160.646 62.3185 161.302 62.9749C161.959 63.6313 162.849 64 163.777 64H171.777C172.706 64 173.596 63.6313 174.252 62.9749C174.909 62.3185 175.277 61.4283 175.277 60.5V52.5ZM223.277 -59.5C223.277 -60.4283 222.909 -61.3185 222.252 -61.9749C221.596 -62.6313 220.706 -63 219.777 -63H211.777C210.849 -63 209.959 -62.6313 209.302 -61.9749C208.646 -61.3185 208.277 -60.4283 208.277 -59.5V-51.5C208.277 -50.5717 208.646 -49.6815 209.302 -49.0251C209.959 -48.3687 210.849 -48 211.777 -48H219.777C220.706 -48 221.596 -48.3687 222.252 -49.0251C222.909 -49.6815 223.277 -50.5717 223.277 -51.5V-59.5ZM223.277 -43.5C223.277 -44.4283 222.909 -45.3185 222.252 -45.9749C221.596 -46.6313 220.706 -47 219.777 -47H211.777C210.849 -47 209.959 -46.6313 209.302 -45.9749C208.646 -45.3185 208.277 -44.4283 208.277 -43.5V-35.5C208.277 -34.5717 208.646 -33.6815 209.302 -33.0251C209.959 -32.3687 210.849 -32 211.777 -32H219.777C220.706 -32 221.596 -32.3687 222.252 -33.0251C222.909 -33.6815 223.277 -34.5717 223.277 -35.5V-43.5ZM223.277 52.5C223.277 51.5717 222.909 50.6815 222.252 50.0251C221.596 49.3687 220.706 49 219.777 49H211.777C210.849 49 209.959 49.3687 209.302 50.0251C208.646 50.6815 208.277 51.5717 208.277 52.5V60.5C208.277 61.4283 208.646 62.3185 209.302 62.9749C209.959 63.6313 210.849 64 211.777 64H219.777C220.706 64 221.596 63.6313 222.252 62.9749C222.909 62.3185 223.277 61.4283 223.277 60.5V52.5ZM223.277 4.5C223.277 3.57174 222.909 2.6815 222.252 2.02512C221.596 1.36874 220.706 1 219.777 1H211.777C210.849 1 209.959 1.36874 209.302 2.02512C208.646 2.6815 208.277 3.57174 208.277 4.5V12.5C208.277 13.4283 208.646 14.3185 209.302 14.9749C209.959 15.6313 210.849 16 211.777 16H219.777C220.706 16 221.596 15.6313 222.252 14.9749C222.909 14.3185 223.277 13.4283 223.277 12.5V4.5ZM223.277 20.5C223.277 19.5717 222.909 18.6815 222.252 18.0251C221.596 17.3687 220.706 17 219.777 17H211.777C210.849 17 209.959 17.3687 209.302 18.0251C208.646 18.6815 208.277 19.5717 208.277 20.5V28.5C208.277 29.4283 208.646 30.3185 209.302 30.9749C209.959 31.6313 210.849 32 211.777 32H219.777C220.706 32 221.596 31.6313 222.252 30.9749C222.909 30.3185 223.277 29.4283 223.277 28.5V20.5ZM223.277 36.5C223.277 35.5717 222.909 34.6815 222.252 34.0251C221.596 33.3687 220.706 33 219.777 33H211.777C210.849 33 209.959 33.3687 209.302 34.0251C208.646 34.6815 208.277 35.5717 208.277 36.5V44.5C208.277 45.4283 208.646 46.3185 209.302 46.9749C209.959 47.6313 210.849 48 211.777 48H219.777C220.706 48 221.596 47.6313 222.252 46.9749C222.909 46.3185 223.277 45.4283 223.277 44.5V36.5ZM191.277 52.5C191.277 51.5717 190.909 50.6815 190.252 50.0251C189.596 49.3687 188.706 49 187.777 49H179.777C178.849 49 177.959 49.3687 177.302 50.0251C176.646 50.6815 176.277 51.5717 176.277 52.5V60.5C176.277 61.4283 176.646 62.3185 177.302 62.9749C177.959 63.6313 178.849 64 179.777 64H187.777C188.706 64 189.596 63.6313 190.252 62.9749C190.909 62.3185 191.277 61.4283 191.277 60.5V52.5ZM219.777 144C220.706 144 221.596 143.631 222.252 142.975C222.909 142.318 223.277 141.428 223.277 140.5V132.5C223.277 131.572 222.909 130.682 222.252 130.025C221.596 129.369 220.706 129 219.777 129H211.777C210.849 129 209.959 129.369 209.302 130.025C208.646 130.682 208.277 131.572 208.277 132.5V140.5C208.277 141.428 208.646 142.318 209.302 142.975C209.959 143.631 210.849 144 211.777 144H219.777ZM203.777 144C204.706 144 205.596 143.631 206.252 142.975C206.909 142.318 207.277 141.428 207.277 140.5V132.5C207.277 131.572 206.909 130.682 206.252 130.025C205.596 129.369 204.706 129 203.777 129H195.777C194.849 129 193.959 129.369 193.302 130.025C192.646 130.682 192.277 131.572 192.277 132.5V140.5C192.277 141.428 192.646 142.318 193.302 142.975C193.959 143.631 194.849 144 195.777 144H203.777ZM187.777 144C188.706 144 189.596 143.631 190.252 142.975C190.909 142.318 191.277 141.428 191.277 140.5V132.5C191.277 131.572 190.909 130.682 190.252 130.025C189.596 129.369 188.706 129 187.777 129H179.777C178.849 129 177.959 129.369 177.302 130.025C176.646 130.682 176.277 131.572 176.277 132.5V140.5C176.277 141.428 176.646 142.318 177.302 142.975C177.959 143.631 178.849 144 179.777 144H187.777ZM171.777 144C172.706 144 173.596 143.631 174.252 142.975C174.909 142.318 175.277 141.428 175.277 140.5V132.5C175.277 131.572 174.909 130.682 174.252 130.025C173.596 129.369 172.706 129 171.777 129H163.777C162.849 129 161.959 129.369 161.302 130.025C160.646 130.682 160.277 131.572 160.277 132.5V140.5C160.277 141.428 160.646 142.318 161.302 142.975C161.959 143.631 162.849 144 163.777 144H171.777ZM123.777 144C124.706 144 125.596 143.631 126.252 142.975C126.909 142.318 127.277 141.428 127.277 140.5V132.5C127.277 131.572 126.909 130.682 126.252 130.025C125.596 129.369 124.706 129 123.777 129H115.777C114.849 129 113.959 129.369 113.302 130.025C112.646 130.682 112.277 131.572 112.277 132.5V140.5C112.277 141.428 112.646 142.318 113.302 142.975C113.959 143.631 114.849 144 115.777 144H123.777ZM107.777 144C108.706 144 109.596 143.631 110.252 142.975C110.909 142.318 111.277 141.428 111.277 140.5V132.5C111.277 131.572 110.909 130.682 110.252 130.025C109.596 129.369 108.706 129 107.777 129H99.7773C98.8491 129 97.9588 129.369 97.3025 130.025C96.6461 130.682 96.2773 131.572 96.2773 132.5V140.5C96.2773 141.428 96.6461 142.318 97.3025 142.975C97.9588 143.631 98.8491 144 99.7773 144H107.777ZM219.777 160C220.706 160 221.596 159.631 222.252 158.975C222.909 158.318 223.277 157.428 223.277 156.5V148.5C223.277 147.572 222.909 146.682 222.252 146.025C221.596 145.369 220.706 145 219.777 145H211.777C210.849 145 209.959 145.369 209.302 146.025C208.646 146.682 208.277 147.572 208.277 148.5V156.5C208.277 157.428 208.646 158.318 209.302 158.975C209.959 159.631 210.849 160 211.777 160H219.777ZM203.777 160C204.706 160 205.596 159.631 206.252 158.975C206.909 158.318 207.277 157.428 207.277 156.5V148.5C207.277 147.572 206.909 146.682 206.252 146.025C205.596 145.369 204.706 145 203.777 145H195.777C194.849 145 193.959 145.369 193.302 146.025C192.646 146.682 192.277 147.572 192.277 148.5V156.5C192.277 157.428 192.646 158.318 193.302 158.975C193.959 159.631 194.849 160 195.777 160H203.777ZM187.777 160C188.706 160 189.596 159.631 190.252 158.975C190.909 158.318 191.277 157.428 191.277 156.5V148.5C191.277 147.572 190.909 146.682 190.252 146.025C189.596 145.369 188.706 145 187.777 145H179.777C178.849 145 177.959 145.369 177.302 146.025C176.646 146.682 176.277 147.572 176.277 148.5V156.5C176.277 157.428 176.646 158.318 177.302 158.975C177.959 159.631 178.849 160 179.777 160H187.777ZM171.777 160C172.706 160 173.596 159.631 174.252 158.975C174.909 158.318 175.277 157.428 175.277 156.5V148.5C175.277 147.572 174.909 146.682 174.252 146.025C173.596 145.369 172.706 145 171.777 145H163.777C162.849 145 161.959 145.369 161.302 146.025C160.646 146.682 160.277 147.572 160.277 148.5V156.5C160.277 157.428 160.646 158.318 161.302 158.975C161.959 159.631 162.849 160 163.777 160H171.777ZM123.777 160C124.706 160 125.596 159.631 126.252 158.975C126.909 158.318 127.277 157.428 127.277 156.5V148.5C127.277 147.572 126.909 146.682 126.252 146.025C125.596 145.369 124.706 145 123.777 145H115.777C114.849 145 113.959 145.369 113.302 146.025C112.646 146.682 112.277 147.572 112.277 148.5V156.5C112.277 157.428 112.646 158.318 113.302 158.975C113.959 159.631 114.849 160 115.777 160H123.777ZM107.777 160C108.706 160 109.596 159.631 110.252 158.975C110.909 158.318 111.277 157.428 111.277 156.5V148.5C111.277 147.572 110.909 146.682 110.252 146.025C109.596 145.369 108.706 145 107.777 145H99.7773C98.8491 145 97.9588 145.369 97.3025 146.025C96.6461 146.682 96.2773 147.572 96.2773 148.5V156.5C96.2773 157.428 96.6461 158.318 97.3025 158.975C97.9588 159.631 98.8491 160 99.7773 160H107.777ZM219.777 176C220.706 176 221.596 175.631 222.252 174.975C222.909 174.318 223.277 173.428 223.277 172.5V164.5C223.277 163.572 222.909 162.682 222.252 162.025C221.596 161.369 220.706 161 219.777 161H211.777C210.849 161 209.959 161.369 209.302 162.025C208.646 162.682 208.277 163.572 208.277 164.5V172.5C208.277 173.428 208.646 174.318 209.302 174.975C209.959 175.631 210.849 176 211.777 176H219.777ZM203.777 176C204.706 176 205.596 175.631 206.252 174.975C206.909 174.318 207.277 173.428 207.277 172.5V164.5C207.277 163.572 206.909 162.682 206.252 162.025C205.596 161.369 204.706 161 203.777 161H195.777C194.849 161 193.959 161.369 193.302 162.025C192.646 162.682 192.277 163.572 192.277 164.5V172.5C192.277 173.428 192.646 174.318 193.302 174.975C193.959 175.631 194.849 176 195.777 176H203.777ZM187.777 176C188.706 176 189.596 175.631 190.252 174.975C190.909 174.318 191.277 173.428 191.277 172.5V164.5C191.277 163.572 190.909 162.682 190.252 162.025C189.596 161.369 188.706 161 187.777 161H179.777C178.849 161 177.959 161.369 177.302 162.025C176.646 162.682 176.277 163.572 176.277 164.5V172.5C176.277 173.428 176.646 174.318 177.302 174.975C177.959 175.631 178.849 176 179.777 176H187.777ZM171.777 176C172.706 176 173.596 175.631 174.252 174.975C174.909 174.318 175.277 173.428 175.277 172.5V164.5C175.277 163.572 174.909 162.682 174.252 162.025C173.596 161.369 172.706 161 171.777 161H163.777C162.849 161 161.959 161.369 161.302 162.025C160.646 162.682 160.277 163.572 160.277 164.5V172.5C160.277 173.428 160.646 174.318 161.302 174.975C161.959 175.631 162.849 176 163.777 176H171.777ZM155.777 176C156.706 176 157.596 175.631 158.252 174.975C158.909 174.318 159.277 173.428 159.277 172.5V164.5C159.277 163.572 158.909 162.682 158.252 162.025C157.596 161.369 156.706 161 155.777 161H147.777C146.849 161 145.959 161.369 145.302 162.025C144.646 162.682 144.277 163.572 144.277 164.5V172.5C144.277 173.428 144.646 174.318 145.302 174.975C145.959 175.631 146.849 176 147.777 176H155.777ZM139.777 176C140.706 176 141.596 175.631 142.252 174.975C142.909 174.318 143.277 173.428 143.277 172.5V164.5C143.277 163.572 142.909 162.682 142.252 162.025C141.596 161.369 140.706 161 139.777 161H131.777C130.849 161 129.959 161.369 129.302 162.025C128.646 162.682 128.277 163.572 128.277 164.5V172.5C128.277 173.428 128.646 174.318 129.302 174.975C129.959 175.631 130.849 176 131.777 176H139.777ZM219.777 192C220.706 192 221.596 191.631 222.252 190.975C222.909 190.318 223.277 189.428 223.277 188.5V180.5C223.277 179.572 222.909 178.682 222.252 178.025C221.596 177.369 220.706 177 219.777 177H211.777C210.849 177 209.959 177.369 209.302 178.025C208.646 178.682 208.277 179.572 208.277 180.5V188.5C208.277 189.428 208.646 190.318 209.302 190.975C209.959 191.631 210.849 192 211.777 192H219.777ZM203.777 192C204.706 192 205.596 191.631 206.252 190.975C206.909 190.318 207.277 189.428 207.277 188.5V180.5C207.277 179.572 206.909 178.682 206.252 178.025C205.596 177.369 204.706 177 203.777 177H195.777C194.849 177 193.959 177.369 193.302 178.025C192.646 178.682 192.277 179.572 192.277 180.5V188.5C192.277 189.428 192.646 190.318 193.302 190.975C193.959 191.631 194.849 192 195.777 192H203.777ZM187.777 192C188.706 192 189.596 191.631 190.252 190.975C190.909 190.318 191.277 189.428 191.277 188.5V180.5C191.277 179.572 190.909 178.682 190.252 178.025C189.596 177.369 188.706 177 187.777 177H179.777C178.849 177 177.959 177.369 177.302 178.025C176.646 178.682 176.277 179.572 176.277 180.5V188.5C176.277 189.428 176.646 190.318 177.302 190.975C177.959 191.631 178.849 192 179.777 192H187.777ZM109.827 80.505C110.628 80.043 111.326 79.366 111.773 78.551C112.226 79.3746 112.904 80.0524 113.727 80.505C112.934 80.947 112.231 81.666 111.773 82.451C111.303 81.645 110.647 80.947 109.827 80.505ZM93.8273 80.505C94.6283 80.043 95.3263 79.366 95.7733 78.551C96.2258 79.3747 96.9036 80.0525 97.7273 80.505C96.9343 80.947 96.2313 81.666 95.7733 82.451C95.3033 81.645 94.6473 80.947 93.8273 80.505ZM77.8273 80.505C78.6283 80.043 79.3263 79.366 79.7733 78.551C80.2258 79.3747 80.9036 80.0525 81.7273 80.505C80.9343 80.947 80.2313 81.666 79.7733 82.451C79.3033 81.645 78.6473 80.947 77.8273 80.505ZM125.827 96.505C126.628 96.043 127.326 95.366 127.773 94.551C128.226 95.3746 128.904 96.0524 129.727 96.505C128.934 96.947 128.231 97.666 127.773 98.451C127.303 97.645 126.647 96.947 125.827 96.505ZM93.8273 96.505C94.6283 96.043 95.3263 95.366 95.7733 94.551C96.2258 95.3747 96.9036 96.0525 97.7273 96.505C96.9343 96.947 96.2313 97.666 95.7733 98.451C95.3033 97.645 94.6473 96.947 93.8273 96.505ZM77.8273 96.505C78.6283 96.043 79.3263 95.366 79.7733 94.551C80.2258 95.3747 80.9036 96.0525 81.7273 96.505C80.9343 96.947 80.2313 97.666 79.7733 98.451C79.3033 97.645 78.6473 96.947 77.8273 96.505ZM61.8273 96.505C62.6283 96.043 63.3263 95.366 63.7733 94.551C64.2258 95.3747 64.9036 96.0525 65.7273 96.505C64.9343 96.947 64.2313 97.666 63.7733 98.451C63.3033 97.645 62.6473 96.947 61.8273 96.505ZM141.827 112.505C142.628 112.043 143.326 111.366 143.773 110.551C144.226 111.375 144.904 112.052 145.727 112.505C144.934 112.947 144.231 113.666 143.773 114.451C143.303 113.645 142.647 112.947 141.827 112.505ZM77.8273 112.505C78.6283 112.043 79.3263 111.366 79.7733 110.551C80.2258 111.375 80.9036 112.053 81.7273 112.505C80.9343 112.947 80.2313 113.666 79.7733 114.451C79.3033 113.645 78.6473 112.947 77.8273 112.505ZM61.8273 112.505C62.6283 112.043 63.3263 111.366 63.7733 110.551C64.2258 111.375 64.9036 112.053 65.7273 112.505C64.9343 112.947 64.2313 113.666 63.7733 114.451C63.3033 113.645 62.6473 112.947 61.8273 112.505ZM45.8273 112.505C46.6283 112.043 47.3263 111.366 47.7733 110.551C48.2258 111.375 48.9036 112.053 49.7273 112.505C48.9343 112.947 48.2313 113.666 47.7733 114.451C47.3033 113.645 46.6473 112.947 45.8273 112.505ZM171.777 192C172.706 192 173.596 191.631 174.252 190.975C174.909 190.318 175.277 189.428 175.277 188.5V180.5C175.277 179.572 174.909 178.682 174.252 178.025C173.596 177.369 172.706 177 171.777 177H163.777C162.849 177 161.959 177.369 161.302 178.025C160.646 178.682 160.277 179.572 160.277 180.5V188.5C160.277 189.428 160.646 190.318 161.302 190.975C161.959 191.631 162.849 192 163.777 192H171.777ZM155.777 192C156.706 192 157.596 191.631 158.252 190.975C158.909 190.318 159.277 189.428 159.277 188.5V180.5C159.277 179.572 158.909 178.682 158.252 178.025C157.596 177.369 156.706 177 155.777 177H147.777C146.849 177 145.959 177.369 145.302 178.025C144.646 178.682 144.277 179.572 144.277 180.5V188.5C144.277 189.428 144.646 190.318 145.302 190.975C145.959 191.631 146.849 192 147.777 192H155.777ZM139.777 192C140.706 192 141.596 191.631 142.252 190.975C142.909 190.318 143.277 189.428 143.277 188.5V180.5C143.277 179.572 142.909 178.682 142.252 178.025C141.596 177.369 140.706 177 139.777 177H131.777C130.849 177 129.959 177.369 129.302 178.025C128.646 178.682 128.277 179.572 128.277 180.5V188.5C128.277 189.428 128.646 190.318 129.302 190.975C129.959 191.631 130.849 192 131.777 192H139.777ZM219.777 208C220.706 208 221.596 207.631 222.252 206.975C222.909 206.319 223.277 205.428 223.277 204.5V196.5C223.277 195.572 222.909 194.681 222.252 194.025C221.596 193.369 220.706 193 219.777 193H211.777C210.849 193 209.959 193.369 209.302 194.025C208.646 194.681 208.277 195.572 208.277 196.5V204.5C208.277 205.428 208.646 206.319 209.302 206.975C209.959 207.631 210.849 208 211.777 208H219.777ZM203.777 208C204.706 208 205.596 207.631 206.252 206.975C206.909 206.319 207.277 205.428 207.277 204.5V196.5C207.277 195.572 206.909 194.681 206.252 194.025C205.596 193.369 204.706 193 203.777 193H195.777C194.849 193 193.959 193.369 193.302 194.025C192.646 194.681 192.277 195.572 192.277 196.5V204.5C192.277 205.428 192.646 206.319 193.302 206.975C193.959 207.631 194.849 208 195.777 208H203.777ZM187.777 208C188.706 208 189.596 207.631 190.252 206.975C190.909 206.319 191.277 205.428 191.277 204.5V196.5C191.277 195.572 190.909 194.681 190.252 194.025C189.596 193.369 188.706 193 187.777 193H179.777C178.849 193 177.959 193.369 177.302 194.025C176.646 194.681 176.277 195.572 176.277 196.5V204.5C176.277 205.428 176.646 206.319 177.302 206.975C177.959 207.631 178.849 208 179.777 208H187.777ZM171.777 208C172.706 208 173.596 207.631 174.252 206.975C174.909 206.319 175.277 205.428 175.277 204.5V196.5C175.277 195.572 174.909 194.681 174.252 194.025C173.596 193.369 172.706 193 171.777 193H163.777C162.849 193 161.959 193.369 161.302 194.025C160.646 194.681 160.277 195.572 160.277 196.5V204.5C160.277 205.428 160.646 206.319 161.302 206.975C161.959 207.631 162.849 208 163.777 208H171.777ZM123.777 208C124.706 208 125.596 207.631 126.252 206.975C126.909 206.319 127.277 205.428 127.277 204.5V196.5C127.277 195.572 126.909 194.681 126.252 194.025C125.596 193.369 124.706 193 123.777 193H115.777C114.849 193 113.959 193.369 113.302 194.025C112.646 194.681 112.277 195.572 112.277 196.5V204.5C112.277 205.428 112.646 206.319 113.302 206.975C113.959 207.631 114.849 208 115.777 208H123.777ZM107.777 208C108.706 208 109.596 207.631 110.252 206.975C110.909 206.319 111.277 205.428 111.277 204.5V196.5C111.277 195.572 110.909 194.681 110.252 194.025C109.596 193.369 108.706 193 107.777 193H99.7773C98.8491 193 97.9588 193.369 97.3025 194.025C96.6461 194.681 96.2773 195.572 96.2773 196.5V204.5C96.2773 205.428 96.6461 206.319 97.3025 206.975C97.9588 207.631 98.8491 208 99.7773 208H107.777ZM219.777 224C220.706 224 221.596 223.631 222.252 222.975C222.909 222.319 223.277 221.428 223.277 220.5V212.5C223.277 211.572 222.909 210.681 222.252 210.025C221.596 209.369 220.706 209 219.777 209H211.777C210.849 209 209.959 209.369 209.302 210.025C208.646 210.681 208.277 211.572 208.277 212.5V220.5C208.277 221.428 208.646 222.319 209.302 222.975C209.959 223.631 210.849 224 211.777 224H219.777ZM203.777 224C204.706 224 205.596 223.631 206.252 222.975C206.909 222.319 207.277 221.428 207.277 220.5V212.5C207.277 211.572 206.909 210.681 206.252 210.025C205.596 209.369 204.706 209 203.777 209H195.777C194.849 209 193.959 209.369 193.302 210.025C192.646 210.681 192.277 211.572 192.277 212.5V220.5C192.277 221.428 192.646 222.319 193.302 222.975C193.959 223.631 194.849 224 195.777 224H203.777ZM187.777 224C188.706 224 189.596 223.631 190.252 222.975C190.909 222.319 191.277 221.428 191.277 220.5V212.5C191.277 211.572 190.909 210.681 190.252 210.025C189.596 209.369 188.706 209 187.777 209H179.777C178.849 209 177.959 209.369 177.302 210.025C176.646 210.681 176.277 211.572 176.277 212.5V220.5C176.277 221.428 176.646 222.319 177.302 222.975C177.959 223.631 178.849 224 179.777 224H187.777ZM171.777 224C172.706 224 173.596 223.631 174.252 222.975C174.909 222.319 175.277 221.428 175.277 220.5V212.5C175.277 211.572 174.909 210.681 174.252 210.025C173.596 209.369 172.706 209 171.777 209H163.777C162.849 209 161.959 209.369 161.302 210.025C160.646 210.681 160.277 211.572 160.277 212.5V220.5C160.277 221.428 160.646 222.319 161.302 222.975C161.959 223.631 162.849 224 163.777 224H171.777ZM123.777 224C124.706 224 125.596 223.631 126.252 222.975C126.909 222.319 127.277 221.428 127.277 220.5V212.5C127.277 211.572 126.909 210.681 126.252 210.025C125.596 209.369 124.706 209 123.777 209H115.777C114.849 209 113.959 209.369 113.302 210.025C112.646 210.681 112.277 211.572 112.277 212.5V220.5C112.277 221.428 112.646 222.319 113.302 222.975C113.959 223.631 114.849 224 115.777 224H123.777ZM107.777 224C108.706 224 109.596 223.631 110.252 222.975C110.909 222.319 111.277 221.428 111.277 220.5V212.5C111.277 211.572 110.909 210.681 110.252 210.025C109.596 209.369 108.706 209 107.777 209H99.7773C98.8491 209 97.9588 209.369 97.3025 210.025C96.6461 210.681 96.2773 211.572 96.2773 212.5V220.5C96.2773 221.428 96.6461 222.319 97.3025 222.975C97.9588 223.631 98.8491 224 99.7773 224H107.777ZM187.777 240C188.706 240 189.596 239.631 190.252 238.975C190.909 238.319 191.277 237.428 191.277 236.5V228.5C191.277 227.572 190.909 226.681 190.252 226.025C189.596 225.369 188.706 225 187.777 225H179.777C178.849 225 177.959 225.369 177.302 226.025C176.646 226.681 176.277 227.572 176.277 228.5V236.5C176.277 237.428 176.646 238.319 177.302 238.975C177.959 239.631 178.849 240 179.777 240H187.777ZM171.777 240C172.706 240 173.596 239.631 174.252 238.975C174.909 238.319 175.277 237.428 175.277 236.5V228.5C175.277 227.572 174.909 226.681 174.252 226.025C173.596 225.369 172.706 225 171.777 225H163.777C162.849 225 161.959 225.369 161.302 226.025C160.646 226.681 160.277 227.572 160.277 228.5V236.5C160.277 237.428 160.646 238.319 161.302 238.975C161.959 239.631 162.849 240 163.777 240H171.777ZM187.777 256C188.706 256 189.596 255.631 190.252 254.975C190.909 254.319 191.277 253.428 191.277 252.5V244.5C191.277 243.572 190.909 242.681 190.252 242.025C189.596 241.369 188.706 241 187.777 241H179.777C178.849 241 177.959 241.369 177.302 242.025C176.646 242.681 176.277 243.572 176.277 244.5V252.5C176.277 253.428 176.646 254.319 177.302 254.975C177.959 255.631 178.849 256 179.777 256H187.777ZM171.777 256C172.706 256 173.596 255.631 174.252 254.975C174.909 254.319 175.277 253.428 175.277 252.5V244.5C175.277 243.572 174.909 242.681 174.252 242.025C173.596 241.369 172.706 241 171.777 241H163.777C162.849 241 161.959 241.369 161.302 242.025C160.646 242.681 160.277 243.572 160.277 244.5V252.5C160.277 253.428 160.646 254.319 161.302 254.975C161.959 255.631 162.849 256 163.777 256H171.777ZM205.827 80.505C206.628 80.043 207.326 79.366 207.773 78.551C208.226 79.3746 208.904 80.0524 209.727 80.505C208.934 80.947 208.231 81.666 207.773 82.451C207.303 81.645 206.647 80.947 205.827 80.505ZM221.827 80.505C222.628 80.043 223.326 79.366 223.773 78.551C224.226 79.3746 224.904 80.0524 225.727 80.505C224.934 80.947 224.231 81.666 223.773 82.451C223.303 81.645 222.647 80.947 221.827 80.505ZM175.782 -13.55C175.32 -14.35 174.643 -15.048 173.828 -15.496C174.652 -15.9483 175.33 -16.6257 175.782 -17.449C176.225 -16.657 176.943 -15.953 177.728 -15.496C176.923 -15.026 176.225 -14.37 175.782 -13.55ZM175.782 2.45C175.32 1.64999 174.643 0.952003 173.828 0.504002C174.652 0.0516815 175.33 -0.625717 175.782 -1.449C176.225 -0.657001 176.943 0.0470009 177.728 0.504002C176.923 0.974003 176.225 1.63 175.782 2.45ZM175.782 18.45C175.32 17.65 174.643 16.952 173.828 16.504C174.652 16.0517 175.33 15.3743 175.782 14.551C176.225 15.343 176.943 16.047 177.728 16.504C176.923 16.974 176.225 17.63 175.782 18.45ZM191.782 -29.55C191.32 -30.35 190.643 -31.048 189.828 -31.496C190.652 -31.9483 191.33 -32.6257 191.782 -33.449C192.225 -32.657 192.943 -31.953 193.728 -31.496C192.923 -31.026 192.225 -30.37 191.782 -29.55ZM191.782 2.45C191.32 1.64999 190.643 0.952003 189.828 0.504002C190.652 0.0516815 191.33 -0.625717 191.782 -1.449C192.225 -0.657001 192.943 0.0470009 193.728 0.504002C192.923 0.974003 192.225 1.63 191.782 2.45ZM191.782 18.45C191.32 17.65 190.643 16.952 189.828 16.504C190.652 16.0517 191.33 15.3743 191.782 14.551C192.225 15.343 192.943 16.047 193.728 16.504C192.923 16.974 192.225 17.63 191.782 18.45ZM191.782 34.45C191.32 33.65 190.643 32.952 189.828 32.504C190.652 32.0517 191.33 31.3743 191.782 30.551C192.225 31.343 192.943 32.047 193.728 32.504C192.923 32.974 192.225 33.63 191.782 34.45ZM207.782 66.451C207.32 65.649 206.643 64.952 205.828 64.504C206.652 64.0518 207.33 63.3744 207.782 62.551C208.225 63.343 208.943 64.047 209.728 64.504C208.923 64.974 208.225 65.631 207.782 66.451ZM223.782 66.451C223.32 65.649 222.643 64.952 221.828 64.504C222.652 64.0518 223.33 63.3744 223.782 62.551C224.225 63.343 224.943 64.047 225.728 64.504C224.923 64.974 224.225 65.631 223.782 66.451ZM191.778 66.451C191.316 65.649 190.639 64.952 189.824 64.504C190.648 64.0518 191.326 63.3744 191.778 62.551C192.221 63.343 192.939 64.047 193.724 64.504C192.919 64.974 192.221 65.631 191.778 66.451ZM207.782 -45.55C207.32 -46.35 206.643 -47.048 205.828 -47.496C206.652 -47.9483 207.33 -48.6257 207.782 -49.449C208.225 -48.657 208.943 -47.953 209.728 -47.496C208.923 -47.026 208.225 -46.37 207.782 -45.55ZM223.782 -45.55C223.32 -46.35 222.643 -47.048 221.828 -47.496C222.652 -47.9483 223.33 -48.6257 223.782 -49.449C224.225 -48.657 224.943 -47.953 225.728 -47.496C224.923 -47.026 224.225 -46.37 223.782 -45.55ZM207.782 18.45C207.32 17.65 206.643 16.952 205.828 16.504C206.652 16.0517 207.33 15.3743 207.782 14.551C208.225 15.343 208.943 16.047 209.728 16.504C208.923 16.974 208.225 17.63 207.782 18.45ZM223.782 18.45C223.32 17.65 222.643 16.952 221.828 16.504C222.652 16.0517 223.33 15.3743 223.782 14.551C224.225 15.343 224.943 16.047 225.728 16.504C224.923 16.974 224.225 17.63 223.782 18.45ZM207.782 34.45C207.32 33.65 206.643 32.952 205.828 32.504C206.652 32.0517 207.33 31.3743 207.782 30.551C208.225 31.343 208.943 32.047 209.728 32.504C208.923 32.974 208.225 33.63 207.782 34.45ZM223.782 34.45C223.32 33.65 222.643 32.952 221.828 32.504C222.652 32.0517 223.33 31.3743 223.782 30.551C224.225 31.343 224.943 32.047 225.728 32.504C224.923 32.974 224.225 33.63 223.782 34.45ZM207.782 50.451C207.32 49.649 206.643 48.952 205.828 48.504C206.652 48.0518 207.33 47.3744 207.782 46.551C208.225 47.343 208.943 48.047 209.728 48.504C208.923 48.974 208.225 49.631 207.782 50.451ZM223.782 50.451C223.32 49.649 222.643 48.952 221.828 48.504C222.652 48.0518 223.33 47.3744 223.782 46.551C224.225 47.343 224.943 48.047 225.728 48.504C224.923 48.974 224.225 49.631 223.782 50.451ZM175.782 66.451C175.32 65.649 174.643 64.952 173.828 64.504C174.652 64.0518 175.33 63.3744 175.782 62.551C176.225 63.343 176.943 64.047 177.728 64.504C176.923 64.974 176.225 65.631 175.782 66.451ZM157.827 128.505C158.628 128.043 159.326 127.366 159.773 126.551C160.226 127.375 160.904 128.052 161.727 128.505C160.934 128.947 160.231 129.666 159.773 130.451C159.303 129.645 158.647 128.947 157.827 128.505ZM125.827 128.505C126.628 128.043 127.326 127.366 127.773 126.551C128.226 127.375 128.904 128.052 129.727 128.505C128.934 128.947 128.231 129.666 127.773 130.451C127.303 129.645 126.647 128.947 125.827 128.505ZM93.8273 128.505C94.6283 128.043 95.3263 127.366 95.7733 126.551C96.2258 127.375 96.9036 128.053 97.7273 128.505C96.9343 128.947 96.2313 129.666 95.7733 130.451C95.3033 129.645 94.6473 128.947 93.8273 128.505ZM205.827 144.505C206.628 144.043 207.326 143.366 207.773 142.551C208.226 143.375 208.904 144.052 209.727 144.505C208.934 144.947 208.231 145.666 207.773 146.451C207.303 145.645 206.647 144.947 205.827 144.505ZM221.827 144.505C222.628 144.043 223.326 143.366 223.773 142.551C224.226 143.375 224.904 144.052 225.727 144.505C224.934 144.947 224.231 145.666 223.773 146.451C223.303 145.645 222.647 144.947 221.827 144.505ZM189.827 144.505C190.628 144.043 191.326 143.366 191.773 142.551C192.226 143.375 192.904 144.052 193.727 144.505C192.934 144.947 192.231 145.666 191.773 146.451C191.303 145.645 190.647 144.947 189.827 144.505ZM173.827 144.505C174.628 144.043 175.326 143.366 175.773 142.551C176.226 143.375 176.904 144.052 177.727 144.505C176.934 144.947 176.231 145.666 175.773 146.451C175.303 145.645 174.647 144.947 173.827 144.505ZM109.827 144.505C110.628 144.043 111.326 143.366 111.773 142.551C112.226 143.375 112.904 144.052 113.727 144.505C112.934 144.947 112.231 145.666 111.773 146.451C111.303 145.645 110.647 144.947 109.827 144.505ZM205.827 160.505C206.628 160.043 207.326 159.366 207.773 158.551C208.226 159.375 208.904 160.052 209.727 160.505C208.934 160.947 208.231 161.666 207.773 162.451C207.303 161.645 206.647 160.947 205.827 160.505ZM221.827 160.505C222.628 160.043 223.326 159.366 223.773 158.551C224.226 159.375 224.904 160.052 225.727 160.505C224.934 160.947 224.231 161.666 223.773 162.451C223.303 161.645 222.647 160.947 221.827 160.505ZM189.827 160.505C190.628 160.043 191.326 159.366 191.773 158.551C192.226 159.375 192.904 160.052 193.727 160.505C192.934 160.947 192.231 161.666 191.773 162.451C191.303 161.645 190.647 160.947 189.827 160.505ZM173.827 160.505C174.628 160.043 175.326 159.366 175.773 158.551C176.226 159.375 176.904 160.052 177.727 160.505C176.934 160.947 176.231 161.666 175.773 162.451C175.303 161.645 174.647 160.947 173.827 160.505ZM157.827 160.505C158.628 160.043 159.326 159.366 159.773 158.551C160.226 159.375 160.904 160.052 161.727 160.505C160.934 160.947 160.231 161.666 159.773 162.451C159.303 161.645 158.647 160.947 157.827 160.505ZM125.827 160.505C126.628 160.043 127.326 159.366 127.773 158.551C128.226 159.375 128.904 160.052 129.727 160.505C128.934 160.947 128.231 161.666 127.773 162.451C127.303 161.645 126.647 160.947 125.827 160.505ZM205.827 176.505C206.628 176.043 207.326 175.366 207.773 174.551C208.226 175.375 208.904 176.052 209.727 176.505C208.934 176.947 208.231 177.666 207.773 178.451C207.303 177.645 206.647 176.947 205.827 176.505ZM221.827 176.505C222.628 176.043 223.326 175.366 223.773 174.551C224.226 175.375 224.904 176.052 225.727 176.505C224.934 176.947 224.231 177.666 223.773 178.451C223.303 177.645 222.647 176.947 221.827 176.505ZM189.827 176.505C190.628 176.043 191.326 175.366 191.773 174.551C192.226 175.375 192.904 176.052 193.727 176.505C192.934 176.947 192.231 177.666 191.773 178.451C191.303 177.645 190.647 176.947 189.827 176.505ZM173.827 176.505C174.628 176.043 175.326 175.366 175.773 174.551C176.226 175.375 176.904 176.052 177.727 176.505C176.934 176.947 176.231 177.666 175.773 178.451C175.303 177.645 174.647 176.947 173.827 176.505ZM157.827 176.505C158.628 176.043 159.326 175.366 159.773 174.551C160.226 175.375 160.904 176.052 161.727 176.505C160.934 176.947 160.231 177.666 159.773 178.451C159.303 177.645 158.647 176.947 157.827 176.505ZM141.827 176.505C142.628 176.043 143.326 175.366 143.773 174.551C144.226 175.375 144.904 176.052 145.727 176.505C144.934 176.947 144.231 177.666 143.773 178.451C143.303 177.645 142.647 176.947 141.827 176.505ZM205.827 192.505C206.628 192.043 207.326 191.366 207.773 190.551C208.226 191.375 208.904 192.052 209.727 192.505C208.934 192.947 208.231 193.666 207.773 194.451C207.303 193.645 206.647 192.947 205.827 192.505ZM221.827 192.505C222.628 192.043 223.326 191.366 223.773 190.551C224.226 191.375 224.904 192.052 225.727 192.505C224.934 192.947 224.231 193.666 223.773 194.451C223.303 193.645 222.647 192.947 221.827 192.505ZM189.827 192.505C190.628 192.043 191.326 191.366 191.773 190.551C192.226 191.375 192.904 192.052 193.727 192.505C192.934 192.947 192.231 193.666 191.773 194.451C191.303 193.645 190.647 192.947 189.827 192.505ZM173.827 192.505C174.628 192.043 175.326 191.366 175.773 190.551C176.226 191.375 176.904 192.052 177.727 192.505C176.934 192.947 176.231 193.666 175.773 194.451C175.303 193.645 174.647 192.947 173.827 192.505ZM157.827 192.505C158.628 192.043 159.326 191.366 159.773 190.551C160.226 191.375 160.904 192.052 161.727 192.505C160.934 192.947 160.231 193.666 159.773 194.451C159.303 193.645 158.647 192.947 157.827 192.505ZM125.827 192.505C126.628 192.043 127.326 191.366 127.773 190.551C128.226 191.375 128.904 192.052 129.727 192.505C128.934 192.947 128.231 193.666 127.773 194.451C127.303 193.645 126.647 192.947 125.827 192.505ZM205.827 208.505C206.628 208.043 207.326 207.366 207.773 206.551C208.226 207.375 208.904 208.052 209.727 208.505C208.934 208.947 208.231 209.666 207.773 210.451C207.303 209.645 206.647 208.947 205.827 208.505ZM221.827 208.505C222.628 208.043 223.326 207.366 223.773 206.551C224.226 207.375 224.904 208.052 225.727 208.505C224.934 208.947 224.231 209.666 223.773 210.451C223.303 209.645 222.647 208.947 221.827 208.505ZM189.827 208.505C190.628 208.043 191.326 207.366 191.773 206.551C192.226 207.375 192.904 208.052 193.727 208.505C192.934 208.947 192.231 209.666 191.773 210.451C191.303 209.645 190.647 208.947 189.827 208.505ZM173.827 208.505C174.628 208.043 175.326 207.366 175.773 206.551C176.226 207.375 176.904 208.052 177.727 208.505C176.934 208.947 176.231 209.666 175.773 210.451C175.303 209.645 174.647 208.947 173.827 208.505ZM109.827 208.505C110.628 208.043 111.326 207.366 111.773 206.551C112.226 207.375 112.904 208.052 113.727 208.505C112.934 208.947 112.231 209.666 111.773 210.451C111.303 209.645 110.647 208.947 109.827 208.505ZM189.827 224.505C190.628 224.043 191.326 223.366 191.773 222.551C192.226 223.375 192.904 224.052 193.727 224.505C192.934 224.947 192.231 225.666 191.773 226.451C191.303 225.645 190.647 224.947 189.827 224.505ZM173.827 224.505C174.628 224.043 175.326 223.366 175.773 222.551C176.226 223.375 176.904 224.052 177.727 224.505C176.934 224.947 176.231 225.666 175.773 226.451C175.303 225.645 174.647 224.947 173.827 224.505ZM173.827 240.505C174.628 240.043 175.326 239.366 175.773 238.551C176.226 239.375 176.904 240.052 177.727 240.505C176.934 240.947 176.231 241.666 175.773 242.451C175.303 241.645 174.647 240.947 173.827 240.505Z" fill="#FAEAD1"/>
</g>
<defs>
<clipPath id="clip0_4097_22432">
<rect width="226" height="543" fill="white" transform="translate(0 -63)"/>
</clipPath>
</defs>
</svg>
