<svg width="130" height="80" viewBox="0 0 130 80" fill="none" xmlns="http://www.w3.org/2000/svg">
<rect x="0.5" y="1" width="129" height="78.2323" rx="10" fill="#FCF4E9"/>
<rect x="0.5" y="1" width="129" height="78.2323" rx="10" stroke="#F1F1F5"/>
<g clip-path="url(#clip0_4935_26110)">
<path d="M28.8488 32.4305C28.8488 33.1532 28.7127 33.7375 28.3983 34.1903C28.1284 34.6408 27.7225 35.0021 27.2697 35.272C26.817 35.5418 26.2772 35.6779 25.6907 35.7671C25.1041 35.8563 24.4729 35.9032 23.8863 35.9032H14.4186C13.9235 35.9032 13.6514 35.6333 13.6514 35.0913V24.4928C13.6514 23.9977 13.9212 23.7256 14.4186 23.7256H23.7547C24.4774 23.7256 25.1532 23.7702 25.7397 23.8616C26.3263 23.9508 26.8683 24.1315 27.3188 24.4036C27.7693 24.6757 28.086 25.0348 28.3113 25.4853C28.5366 25.9358 28.6726 26.5224 28.6726 27.1982C28.6726 27.7848 28.5834 28.3267 28.3559 28.7327C28.1306 29.1832 27.7247 29.5445 27.1381 29.8144C27.6333 29.995 28.0392 30.3095 28.3559 30.6708C28.7172 31.1213 28.851 31.6633 28.851 32.4305H28.8488ZM26.5939 32.4751C26.5939 32.1584 26.5493 31.8886 26.5047 31.6633C26.4601 31.438 26.2795 31.2574 26.0988 31.1213C25.9182 30.9853 25.6037 30.8961 25.2424 30.8046C24.8811 30.7132 24.3859 30.7154 23.844 30.7154H15.8616V34.0988H24.0246C24.5666 34.0988 25.0171 34.0542 25.3316 34.0096C25.6483 33.965 25.9182 33.829 26.0988 33.7397C26.2795 33.6037 26.4155 33.4699 26.4601 33.2446C26.5047 33.0193 26.5962 32.7941 26.5962 32.4774L26.5939 32.4751ZM15.9508 28.8687H23.9332C24.4283 28.8687 24.8342 28.8687 25.1955 28.8241C25.5122 28.7795 25.8267 28.6881 26.0074 28.5988C26.188 28.5096 26.3687 28.329 26.4579 28.1037C26.5471 27.8785 26.5939 27.6086 26.5939 27.2473C26.5939 26.9774 26.5493 26.7053 26.5047 26.48C26.4601 26.2548 26.3241 26.0741 26.1434 25.9849C25.9628 25.8489 25.6929 25.7596 25.3762 25.715C25.0595 25.6704 24.609 25.6258 24.0692 25.6258H15.9508V28.8732V28.8687Z" fill="#EB971C"/>
<path d="M42.4697 26.3477C42.831 26.3477 43.1009 26.3923 43.2816 26.4837C43.4622 26.5729 43.5514 26.8004 43.5514 27.1149V32.9784C43.5514 34.9166 41.9724 35.9091 38.8165 35.9091H34.8019C31.646 35.9091 30.0669 34.9166 30.0669 32.9784V27.1149C30.0669 26.7982 30.1561 26.5729 30.3368 26.4837C30.5174 26.3945 30.7873 26.3477 31.1486 26.3477C31.5099 26.3477 31.7798 26.3923 31.9604 26.4837C32.1411 26.5729 32.2303 26.8004 32.2303 27.1149V32.9784C32.2303 33.3397 32.4556 33.6096 32.8615 33.8349C33.2674 34.0601 33.99 34.1962 34.8911 34.1962H38.7696C39.7175 34.1962 40.3933 34.0601 40.7992 33.8349C41.2051 33.6096 41.4304 33.2929 41.4304 32.9784V27.1149C41.4304 26.7982 41.5196 26.5729 41.7003 26.4837C41.8363 26.3945 42.1062 26.3477 42.4675 26.3477H42.4697Z" fill="#EB971C"/>
<path d="M44.8188 28.9583C44.8188 28.1911 45.1356 27.5599 45.8113 27.1094C46.4871 26.6589 47.4796 26.4336 48.7888 26.4336H51.0883C51.3582 26.4336 51.4942 26.4782 51.5834 26.6589C51.6726 26.8395 51.7195 27.0202 51.7195 27.29C51.7195 27.5599 51.6749 27.7852 51.5834 27.9212C51.492 28.0573 51.3136 28.1465 51.0883 28.1465H48.7888C48.1576 28.1465 47.6603 28.2357 47.3904 28.3717C47.1205 28.5078 46.9399 28.7331 46.9399 29.0029V29.4535C46.9399 29.7233 47.0759 29.904 47.3904 30.0846C47.7049 30.2653 48.2022 30.3099 48.878 30.3099H52.5759C54.155 30.3099 55.2813 30.5352 55.9593 30.9857C56.6351 31.4362 56.9964 32.0674 56.9964 32.8792V33.4212C56.9964 33.8271 56.9072 34.1884 56.7266 34.5029C56.5459 34.8174 56.276 35.0895 55.8701 35.3147C55.5088 35.54 55.0137 35.7207 54.3825 35.8099C53.7513 35.8991 53.0755 35.9905 52.2168 35.9905H45.4523C45.1824 35.9905 45.0463 35.9459 44.9571 35.7653C44.8679 35.5846 44.8211 35.404 44.8211 35.1341C44.8211 34.8642 44.8657 34.639 44.9571 34.5029C45.0486 34.3669 45.227 34.2776 45.4523 34.2776H52.5781C53.0287 34.2776 53.39 34.2776 53.7067 34.233C54.0234 34.1884 54.2487 34.1438 54.4293 34.0524C54.61 33.9632 54.746 33.8717 54.7906 33.7825C54.8798 33.6933 54.8798 33.5572 54.8798 33.4212V32.8346C54.8798 32.6986 54.8352 32.5648 54.7906 32.4733C54.746 32.3819 54.61 32.2927 54.4293 32.2034C54.2487 32.1142 54.0234 32.0674 53.7535 32.0228C53.4837 31.9782 53.1223 31.9782 52.6718 31.9782H48.9293C47.5755 31.9782 46.5384 31.7529 45.8626 31.3024C45.1869 30.8519 44.8255 30.2653 44.8255 29.4981V28.9561L44.8188 28.9583Z" fill="#EB971C"/>
<path d="M57.9863 24.7214C57.9863 24.36 58.0755 24.0902 58.303 23.9095C58.5305 23.7289 58.845 23.6396 59.2955 23.6396C59.7461 23.6396 60.1074 23.7289 60.288 23.9095C60.4687 24.0902 60.6047 24.36 60.6047 24.7214C60.6047 25.0827 60.5155 25.3525 60.288 25.5332C60.0605 25.7139 59.7461 25.8031 59.2955 25.8031C58.845 25.8031 58.4837 25.7139 58.303 25.5332C58.1224 25.3525 57.9863 25.0827 57.9863 24.7214ZM60.4218 35.186C60.4218 35.5027 60.3326 35.728 60.152 35.8172C59.9713 35.9064 59.7014 35.9533 59.3401 35.9533C58.9788 35.9533 58.709 35.9087 58.5283 35.8172C58.3476 35.728 58.2584 35.5005 58.2584 35.186V27.2483C58.2584 26.9316 58.3476 26.7063 58.5283 26.6171C58.709 26.5279 58.9788 26.4811 59.3401 26.4811C59.7014 26.4811 59.9713 26.5257 60.152 26.6171C60.3326 26.7063 60.4218 26.9338 60.4218 27.2483V35.186Z" fill="#EB971C"/>
<path d="M62.9909 35.952C62.6296 35.952 62.3597 35.9074 62.1791 35.816C61.9984 35.7268 61.9092 35.4993 61.9092 35.1848V29.3213C61.9092 27.3831 63.4883 26.3906 66.6442 26.3906H70.2974C73.4533 26.3906 75.0324 27.3831 75.0324 29.3213V35.1848C75.0324 35.5015 74.9432 35.7268 74.7625 35.816C74.5819 35.9052 74.312 35.952 73.9507 35.952C73.5894 35.952 73.3195 35.9074 73.1389 35.816C72.9582 35.7268 72.869 35.4993 72.869 35.1848V29.3213C72.869 28.96 72.6437 28.6901 72.2378 28.4648C71.8319 28.2396 71.1093 28.1035 70.2082 28.1035H66.691C65.7431 28.1035 65.0673 28.2396 64.6614 28.4648C64.2555 28.6901 64.0302 29.0068 64.0302 29.3213V35.1848C64.0302 35.5015 63.941 35.7268 63.7603 35.816C63.5797 35.9052 63.3544 35.952 62.9931 35.952H62.9909Z" fill="#EB971C"/>
<path d="M78.5939 32.1181V32.9745C78.5939 33.2912 78.8192 33.6057 79.2251 33.831C79.631 34.0563 80.3536 34.1923 81.2547 34.1923H83.1951C83.4649 34.1923 83.601 34.2369 83.6902 34.4176C83.7794 34.5536 83.7794 34.7789 83.7794 35.0487C83.7794 35.3186 83.7348 35.5439 83.6902 35.6799C83.601 35.816 83.4649 35.9052 83.1951 35.9052H81.2101C78.0542 35.9052 76.4751 34.9127 76.4751 32.9745V29.3213C76.4751 27.3831 78.0542 26.3906 81.2101 26.3906H85.0886C86.7569 26.3906 87.9747 26.6159 88.7419 27.1133C89.5091 27.6106 89.8704 28.331 89.8704 29.3235V31.2617C89.8704 31.5784 89.8258 31.8036 89.6898 31.9374C89.5537 32.0713 89.2839 32.1181 88.8779 32.1181H78.5961H78.5939ZM78.5939 30.4476H87.7048V29.319C87.7048 28.9131 87.4795 28.6433 87.0736 28.418C86.6677 28.1927 85.9919 28.1013 84.9994 28.1013H81.2569C80.309 28.1013 79.6332 28.2373 79.2273 28.4626C78.8214 28.6879 78.5961 29.0046 78.5961 29.319V30.4476H78.5939Z" fill="#EB971C"/>
<path d="M90.9061 28.9583C90.9061 28.1911 91.2228 27.5599 91.8986 27.1094C92.5744 26.6589 93.5669 26.4336 94.8761 26.4336H97.1756C97.4455 26.4336 97.5815 26.4782 97.6707 26.6589C97.7599 26.8395 97.8068 27.0202 97.8068 27.29C97.8068 27.5599 97.7622 27.7852 97.6707 27.9212C97.5793 28.0573 97.4008 28.1465 97.1756 28.1465H94.8761C94.2449 28.1465 93.7476 28.2357 93.4777 28.3717C93.2078 28.5078 93.0272 28.7331 93.0272 29.0029V29.4535C93.0272 29.7233 93.2078 29.904 93.4777 30.0846C93.7944 30.2653 94.2895 30.3099 94.9653 30.3099H98.6632C100.242 30.3099 101.369 30.5352 102.047 30.9857C102.725 31.4362 103.084 32.0674 103.084 32.8792V33.4212C103.084 33.8271 102.995 34.1884 102.814 34.5029C102.633 34.8196 102.363 35.0895 101.957 35.3147C101.596 35.54 101.101 35.7207 100.47 35.8099C99.8386 35.8991 99.1628 35.9905 98.3041 35.9905H91.4949C91.2251 35.9905 91.089 35.9459 90.9998 35.7653C90.9106 35.5846 90.8638 35.404 90.8638 35.1341C90.8638 34.8642 90.9084 34.639 90.9998 34.5029C91.0913 34.3669 91.2697 34.2776 91.4949 34.2776H98.6208C99.0714 34.2776 99.4327 34.2776 99.7494 34.233C100.066 34.1884 100.291 34.1438 100.472 34.0524C100.653 33.9609 100.742 33.8717 100.833 33.7825C100.925 33.6933 100.923 33.5572 100.923 33.4212V32.8346C100.923 32.6986 100.878 32.5648 100.833 32.4733C100.789 32.3819 100.653 32.2927 100.472 32.2034C100.291 32.1142 100.066 32.0674 99.7962 32.0228C99.5263 31.9782 99.165 31.9782 98.7145 31.9782H94.972C93.6182 31.9782 92.5811 31.7529 91.9053 31.3024C91.2295 30.8519 90.8682 30.2653 90.8682 29.4981L90.9128 28.9561L90.9061 28.9583Z" fill="#EB971C"/>
<path d="M104.165 28.9583C104.165 28.1911 104.482 27.5599 105.158 27.1094C105.834 26.6589 106.826 26.4336 108.135 26.4336H110.435C110.705 26.4336 110.841 26.4782 110.93 26.6589C111.019 26.8395 111.066 27.0202 111.066 27.29C111.066 27.5599 111.021 27.7852 110.93 27.9212C110.839 28.0573 110.66 28.1465 110.435 28.1465H108.135C107.504 28.1465 107.007 28.2357 106.737 28.3717C106.467 28.5078 106.286 28.7331 106.286 29.0029V29.4535C106.286 29.7233 106.467 29.904 106.737 30.0846C107.054 30.2653 107.549 30.3099 108.225 30.3099H111.922C113.502 30.3099 114.628 30.5352 115.306 30.9857C115.984 31.4362 116.343 32.0674 116.343 32.8792V33.4212C116.343 33.8271 116.254 34.1884 116.073 34.5029C115.892 34.8196 115.623 35.0895 115.217 35.3147C114.855 35.54 114.36 35.7207 113.729 35.8099C113.098 35.8991 112.422 35.9905 111.563 35.9905H104.754C104.484 35.9905 104.348 35.9459 104.259 35.7653C104.17 35.5846 104.123 35.404 104.123 35.1341C104.123 34.8642 104.168 34.639 104.259 34.5029C104.351 34.3669 104.529 34.2776 104.754 34.2776H111.88C112.331 34.2776 112.692 34.2776 113.009 34.233C113.325 34.1884 113.551 34.1438 113.731 34.0524C113.912 33.9609 114.001 33.8717 114.093 33.7825C114.184 33.6933 114.182 33.5572 114.182 33.4212V32.8346C114.182 32.6986 114.137 32.5648 114.093 32.4733C114.048 32.3819 113.912 32.2927 113.731 32.2034C113.551 32.1142 113.325 32.0674 113.055 32.0228C112.786 31.9782 112.424 31.9782 111.974 31.9782H108.231C106.877 31.9782 105.84 31.7529 105.165 31.3024C104.489 30.8519 104.128 30.2653 104.128 29.4981L104.172 28.9561L104.165 28.9583Z" fill="#EB971C"/>
<path d="M32.0136 49.1022C32.0136 49.972 31.8508 50.6791 31.4694 51.221C31.1438 51.7652 30.6553 52.2001 30.1111 52.5258C29.5669 52.8514 28.9157 53.0142 28.2087 53.1235C27.5017 53.2328 26.7411 53.2863 26.0341 53.2863H14.626C14.0283 53.2863 13.7026 52.9607 13.7026 52.3072V39.5386C13.7026 38.9409 14.0283 38.6152 14.626 38.6152H25.8735C26.7433 38.6152 27.5574 38.6688 28.2644 38.778C28.9714 38.8873 29.6227 39.1037 30.1669 39.4293C30.7111 39.7549 31.0903 40.1898 31.3623 40.734C31.6344 41.2782 31.7973 41.983 31.7973 42.7993C31.7973 43.5063 31.688 44.1576 31.4159 44.646C31.1438 45.1902 30.6553 45.6251 29.9483 45.9508C30.546 46.1671 31.0345 46.5485 31.4159 46.9834C31.7973 47.5276 32.0136 48.1789 32.0136 49.1022ZM29.2413 49.1557C29.2413 48.7744 29.1878 48.4487 29.132 48.1766C29.0763 47.9045 28.8599 47.6882 28.6436 47.5254C28.3715 47.3626 28.0459 47.2533 27.6109 47.144C27.176 47.0347 26.5783 47.0347 25.927 47.0347H16.3634V51.1095H26.1991C26.8504 51.1095 27.3946 51.056 27.776 51.0002C28.1574 50.9467 28.483 50.7839 28.6993 50.6746C28.9157 50.5118 29.0807 50.349 29.1343 50.0769C29.1878 49.8048 29.2435 49.5327 29.2435 49.1535L29.2413 49.1557ZM16.4192 44.8088H26.0363C26.6341 44.8088 27.1225 44.8088 27.5574 44.7553C27.9388 44.7018 28.318 44.5925 28.5365 44.4832C28.7551 44.3739 28.9714 44.1576 29.0807 43.8855C29.19 43.6134 29.2435 43.2878 29.2435 42.8529C29.2435 42.5272 29.19 42.2016 29.1343 41.9295C29.0785 41.6574 28.9179 41.4411 28.6993 41.3318C28.483 41.169 28.1551 41.0597 27.776 41.0061C27.3968 40.9526 26.8526 40.8969 26.1991 40.8969H16.4727L16.4192 44.8088Z" fill="#EB971C"/>
<path d="M48.3682 41.7715C48.8031 41.7715 49.1287 41.825 49.3473 41.9343C49.5636 42.0436 49.6729 42.3157 49.6729 42.6948V49.7583C49.6729 52.0957 47.7705 53.2911 43.9678 53.2911H39.1324C35.3297 53.2911 33.4272 52.0957 33.4272 49.7583V42.6948C33.4272 42.3135 33.5365 42.0436 33.7529 41.9343C33.9692 41.825 34.2971 41.7715 34.732 41.7715C35.1669 41.7715 35.4925 41.825 35.7111 41.9343C35.9274 42.0436 36.0367 42.3157 36.0367 42.6948V49.7583C36.0367 50.1932 36.3088 50.5188 36.7973 50.7909C37.2857 51.063 38.1555 51.2258 39.2417 51.2258H43.9142C45.0562 51.2258 45.8702 51.063 46.3587 50.7909C46.8471 50.5188 47.1192 50.1397 47.1192 49.7583V42.6948C47.1192 42.3135 47.2285 42.0436 47.4448 41.9343C47.6612 41.825 47.9333 41.7715 48.3682 41.7715Z" fill="#EB971C"/>
<path d="M51.1421 39.8086C51.1421 39.3737 51.2514 39.0481 51.5235 38.8295C51.7956 38.611 52.1747 38.5039 52.7189 38.5039C53.2631 38.5039 53.698 38.6132 53.9144 38.8295C54.1307 39.0459 54.2958 39.3737 54.2958 39.8086C54.2958 40.2436 54.1865 40.5692 53.9144 40.7878C53.6423 41.0041 53.2631 41.1134 52.7189 41.1134C52.1747 41.1134 51.7398 41.0041 51.5235 40.7878C51.3071 40.5714 51.1421 40.2436 51.1421 39.8086ZM54.075 52.4167C54.075 52.7981 53.9657 53.0679 53.7493 53.1772C53.533 53.2865 53.2051 53.34 52.7702 53.34C52.3353 53.34 52.0097 53.2865 51.7911 53.1772C51.5748 53.0679 51.4655 52.7958 51.4655 52.4167V42.853C51.4655 42.4717 51.5748 42.2018 51.7911 42.0925C52.0075 41.9832 52.3353 41.9297 52.7702 41.9297C53.2051 41.9297 53.5308 41.9832 53.7493 42.0925C53.9679 42.2018 54.075 42.4739 54.075 42.853V52.4167Z" fill="#EB971C"/>
<path d="M58.5289 52.4192C58.5289 52.8006 58.4196 53.0705 58.2033 53.1798C57.9869 53.2891 57.6591 53.3426 57.2242 53.3426C56.7893 53.3426 56.4636 53.2891 56.2451 53.1798C56.0287 53.0705 55.9194 52.7984 55.9194 52.4192V39.4878C55.9194 39.1064 56.0287 38.8366 56.2451 38.7273C56.4614 38.618 56.7893 38.5645 57.2242 38.5645C57.6591 38.5645 57.9847 38.618 58.2033 38.7273C58.4196 38.8366 58.5289 39.1087 58.5289 39.4878V52.4192Z" fill="#EB971C"/>
<path d="M73.9599 39.479C73.9599 39.0976 74.0692 38.8278 74.2856 38.7185C74.5019 38.6092 74.8298 38.5557 75.2647 38.5557C75.6996 38.5557 76.0252 38.6092 76.2438 38.7185C76.4601 38.8278 76.5694 39.0999 76.5694 39.479V49.7497C76.5694 52.087 74.6669 53.2825 70.8642 53.2825H66.0289C62.2262 53.2825 60.3237 52.087 60.3237 49.7497V45.3492C60.3237 43.0119 62.2262 41.8164 66.0289 41.8164H74.0715L73.9622 39.479H73.9599ZM66.0267 43.8817C64.8847 43.8817 64.0707 44.0445 63.5822 44.3166C63.0938 44.5887 62.8217 44.9678 62.8217 45.3492V49.7497C62.8217 50.131 63.0938 50.5102 63.5822 50.7823C64.0707 51.0544 64.9405 51.2172 66.0267 51.2172H70.6992C71.8411 51.2172 72.6552 51.0544 73.1436 50.7823C73.6321 50.5102 73.9042 50.131 73.9042 49.7497V43.8817H66.0244H66.0267Z" fill="#EB971C"/>
<path d="M78.0376 39.8086C78.0376 39.3737 78.1469 39.0481 78.419 38.8295C78.6911 38.611 79.0702 38.5039 79.6144 38.5039C80.1586 38.5039 80.5935 38.6132 80.8099 38.8295C81.0262 39.0459 81.1913 39.3737 81.1913 39.8086C81.1913 40.2436 81.082 40.5692 80.8099 40.7878C80.5378 41.0041 80.1586 41.1134 79.6144 41.1134C79.0702 41.1134 78.6353 41.0041 78.419 40.7878C78.2026 40.5714 78.0376 40.2436 78.0376 39.8086ZM80.9169 52.4167C80.9169 52.7981 80.8077 53.0679 80.5913 53.1772C80.375 53.2865 80.0471 53.34 79.6122 53.34C79.1773 53.34 78.8517 53.2865 78.6331 53.1772C78.4167 53.0679 78.3075 52.7958 78.3075 52.4167V42.853C78.3075 42.4717 78.4167 42.2018 78.6331 42.0925C78.8494 41.9832 79.1773 41.9297 79.6122 41.9297C80.0471 41.9297 80.3727 41.9832 80.5913 42.0925C80.8099 42.2018 80.9169 42.4739 80.9169 42.853V52.4167Z" fill="#EB971C"/>
<path d="M84.0142 53.3419C83.5793 53.3419 83.2537 53.2884 83.0351 53.1791C82.8188 53.0698 82.7095 52.7977 82.7095 52.4185V45.3551C82.7095 43.0177 84.6119 41.8223 88.4146 41.8223H92.8151C96.6178 41.8223 98.5202 43.0177 98.5202 45.3551V52.4185C98.5202 52.7999 98.411 53.0698 98.1946 53.1791C97.9783 53.2884 97.6504 53.3419 97.2155 53.3419C96.7806 53.3419 96.455 53.2884 96.2364 53.1791C96.02 53.0698 95.9108 52.7977 95.9108 52.4185V45.3551C95.9108 44.9202 95.6387 44.5946 95.1502 44.3225C94.6618 44.0504 93.792 43.8875 92.7058 43.8875H88.4682C87.3262 43.8875 86.5122 44.0504 86.0237 44.3225C85.5353 44.5946 85.2632 44.9737 85.2632 45.3551V52.4185C85.2632 52.7999 85.1539 53.0698 84.9376 53.1791C84.7748 53.2884 84.4491 53.3419 84.0142 53.3419Z" fill="#EB971C"/>
<path d="M108.306 56.601C107.98 56.601 107.818 56.4918 107.708 56.3289C107.599 56.1661 107.599 55.894 107.599 55.5684C107.599 55.2428 107.652 54.9707 107.708 54.8079C107.764 54.6451 107.98 54.5358 108.306 54.5358H111.078C112.057 54.5358 112.762 54.4265 113.144 54.1544C113.525 53.8823 113.741 53.5567 113.741 53.0682V52.9589H105.971C102.168 52.9589 100.266 51.7635 100.266 49.4261V45.2955C100.266 42.9581 102.168 41.7627 105.971 41.7627H110.59C114.393 41.7627 116.295 42.9581 116.295 45.2955V53.0125C116.295 54.2079 115.86 55.0777 114.937 55.6197C114.067 56.2174 112.762 56.4895 111.025 56.4895L108.308 56.5988L108.306 56.601ZM113.795 51.0029V45.3513C113.795 44.9699 113.523 44.5907 113.034 44.3186C112.546 44.0465 111.676 43.8837 110.59 43.8837H106.134C104.992 43.8837 104.178 44.0465 103.689 44.3186C103.201 44.5907 102.929 44.9699 102.929 45.3513V49.4818C102.929 49.9168 103.201 50.2424 103.689 50.5145C104.178 50.7866 105.047 50.9494 106.134 50.9494H113.795V51.0029Z" fill="#EB971C"/>
</g>
<defs>
<clipPath id="clip0_4935_26110">
<rect width="102.691" height="32.962" fill="white" transform="translate(13.6548 23.6348)"/>
</clipPath>
</defs>
</svg>
