<svg width="168" height="543" viewBox="0 0 168 543" fill="none" xmlns="http://www.w3.org/2000/svg">
<path opacity="0.5" d="M15 355.5C15 355.04 14.9095 354.585 14.7336 354.161C14.5577 353.736 14.2999 353.35 13.9749 353.025C13.6499 352.7 13.264 352.442 12.8394 352.266C12.4148 352.091 11.9596 352 11.5 352H3.5C2.57174 352 1.6815 352.369 1.02513 353.025C0.368749 353.681 0 354.572 0 355.5V363.5C0 364.428 0.368749 365.319 1.02513 365.975C1.6815 366.631 2.57174 367 3.5 367H11.5C11.9596 367 12.4148 366.909 12.8394 366.734C13.264 366.558 13.6499 366.3 13.9749 365.975C14.2999 365.65 14.5577 365.264 14.7336 364.839C14.9095 364.415 15 363.96 15 363.5V355.5ZM15 371.5C15 371.04 14.9095 370.585 14.7336 370.161C14.5577 369.736 14.2999 369.35 13.9749 369.025C13.6499 368.7 13.264 368.442 12.8394 368.266C12.4148 368.091 11.9596 368 11.5 368H3.5C2.57174 368 1.6815 368.369 1.02513 369.025C0.368749 369.681 0 370.572 0 371.5V379.5C0 380.428 0.368749 381.319 1.02513 381.975C1.6815 382.631 2.57174 383 3.5 383H11.5C11.9596 383 12.4148 382.909 12.8394 382.734C13.264 382.558 13.6499 382.3 13.9749 381.975C14.2999 381.65 14.5577 381.264 14.7336 380.839C14.9095 380.415 15 379.96 15 379.5V371.5ZM15 451.5C15 451.04 14.9095 450.585 14.7336 450.161C14.5577 449.736 14.2999 449.35 13.9749 449.025C13.6499 448.7 13.264 448.442 12.8394 448.266C12.4148 448.091 11.9596 448 11.5 448H3.5C2.57174 448 1.6815 448.369 1.02513 449.025C0.368749 449.681 0 450.572 0 451.5V459.5C0 460.428 0.368749 461.319 1.02513 461.975C1.6815 462.631 2.57174 463 3.5 463H11.5C11.9596 463 12.4148 462.909 12.8394 462.734C13.264 462.558 13.6499 462.3 13.9749 461.975C14.2999 461.65 14.5577 461.264 14.7336 460.839C14.9095 460.415 15 459.96 15 459.5V451.5ZM15 467.5C15 467.04 14.9095 466.585 14.7336 466.161C14.5577 465.736 14.2999 465.35 13.9749 465.025C13.6499 464.7 13.264 464.442 12.8394 464.266C12.4148 464.091 11.9596 464 11.5 464H3.5C2.57174 464 1.6815 464.369 1.02513 465.025C0.368749 465.681 0 466.572 0 467.5V475.5C0 476.428 0.368749 477.319 1.02513 477.975C1.6815 478.631 2.57174 479 3.5 479H11.5C11.9596 479 12.4148 478.909 12.8394 478.734C13.264 478.558 13.6499 478.3 13.9749 477.975C14.2999 477.65 14.5577 477.264 14.7336 476.839C14.9095 476.415 15 475.96 15 475.5V467.5ZM15 483.5C15 483.04 14.9095 482.585 14.7336 482.161C14.5577 481.736 14.2999 481.35 13.9749 481.025C13.6499 480.7 13.264 480.442 12.8394 480.266C12.4148 480.091 11.9596 480 11.5 480H3.5C2.57174 480 1.6815 480.369 1.02513 481.025C0.368749 481.681 0 482.572 0 483.5V491.5C0 492.428 0.368749 493.319 1.02513 493.975C1.6815 494.631 2.57174 495 3.5 495H11.5C11.9596 495 12.4148 494.909 12.8394 494.734C13.264 494.558 13.6499 494.3 13.9749 493.975C14.2999 493.65 14.5577 493.264 14.7336 492.839C14.9095 492.415 15 491.96 15 491.5V483.5ZM15 499.5C15 499.04 14.9095 498.585 14.7336 498.161C14.5577 497.736 14.2999 497.35 13.9749 497.025C13.6499 496.7 13.264 496.442 12.8394 496.266C12.4148 496.091 11.9596 496 11.5 496H3.5C2.57174 496 1.6815 496.369 1.02513 497.025C0.368749 497.681 0 498.572 0 499.5V507.5C0 508.428 0.368749 509.319 1.02513 509.975C1.6815 510.631 2.57174 511 3.5 511H11.5C11.9596 511 12.4148 510.909 12.8394 510.734C13.264 510.558 13.6499 510.3 13.9749 509.975C14.2999 509.65 14.5577 509.264 14.7336 508.839C14.9095 508.415 15 507.96 15 507.5V499.5ZM31 355.5C31 355.04 30.9095 354.585 30.7336 354.161C30.5577 353.736 30.2999 353.35 29.9749 353.025C29.6499 352.7 29.264 352.442 28.8394 352.266C28.4148 352.091 27.9596 352 27.5 352H19.5C18.5717 352 17.6815 352.369 17.0251 353.025C16.3687 353.681 16 354.572 16 355.5V363.5C16 364.428 16.3687 365.319 17.0251 365.975C17.6815 366.631 18.5717 367 19.5 367H27.5C27.9596 367 28.4148 366.909 28.8394 366.734C29.264 366.558 29.6499 366.3 29.9749 365.975C30.2999 365.65 30.5577 365.264 30.7336 364.839C30.9095 364.415 31 363.96 31 363.5V355.5ZM31 371.5C31 371.04 30.9095 370.585 30.7336 370.161C30.5577 369.736 30.2999 369.35 29.9749 369.025C29.6499 368.7 29.264 368.442 28.8394 368.266C28.4148 368.091 27.9596 368 27.5 368H19.5C18.5717 368 17.6815 368.369 17.0251 369.025C16.3687 369.681 16 370.572 16 371.5V379.5C16 380.428 16.3687 381.319 17.0251 381.975C17.6815 382.631 18.5717 383 19.5 383H27.5C27.9596 383 28.4148 382.909 28.8394 382.734C29.264 382.558 29.6499 382.3 29.9749 381.975C30.2999 381.65 30.5577 381.264 30.7336 380.839C30.9095 380.415 31 379.96 31 379.5V371.5ZM31 451.5C31 451.04 30.9095 450.585 30.7336 450.161C30.5577 449.736 30.2999 449.35 29.9749 449.025C29.6499 448.7 29.264 448.442 28.8394 448.266C28.4148 448.091 27.9596 448 27.5 448H19.5C18.5717 448 17.6815 448.369 17.0251 449.025C16.3687 449.681 16 450.572 16 451.5V459.5C16 460.428 16.3687 461.319 17.0251 461.975C17.6815 462.631 18.5717 463 19.5 463H27.5C27.9596 463 28.4148 462.909 28.8394 462.734C29.264 462.558 29.6499 462.3 29.9749 461.975C30.2999 461.65 30.5577 461.264 30.7336 460.839C30.9095 460.415 31 459.96 31 459.5V451.5ZM31 467.5C31 467.04 30.9095 466.585 30.7336 466.161C30.5577 465.736 30.2999 465.35 29.9749 465.025C29.6499 464.7 29.264 464.442 28.8394 464.266C28.4148 464.091 27.9596 464 27.5 464H19.5C18.5717 464 17.6815 464.369 17.0251 465.025C16.3687 465.681 16 466.572 16 467.5V475.5C16 476.428 16.3687 477.319 17.0251 477.975C17.6815 478.631 18.5717 479 19.5 479H27.5C27.9596 479 28.4148 478.909 28.8394 478.734C29.264 478.558 29.6499 478.3 29.9749 477.975C30.2999 477.65 30.5577 477.264 30.7336 476.839C30.9095 476.415 31 475.96 31 475.5V467.5ZM31 483.5C31 483.04 30.9095 482.585 30.7336 482.161C30.5577 481.736 30.2999 481.35 29.9749 481.025C29.6499 480.7 29.264 480.442 28.8394 480.266C28.4148 480.091 27.9596 480 27.5 480H19.5C18.5717 480 17.6815 480.369 17.0251 481.025C16.3687 481.681 16 482.572 16 483.5V491.5C16 492.428 16.3687 493.319 17.0251 493.975C17.6815 494.631 18.5717 495 19.5 495H27.5C27.9596 495 28.4148 494.909 28.8394 494.734C29.264 494.558 29.6499 494.3 29.9749 493.975C30.2999 493.65 30.5577 493.264 30.7336 492.839C30.9095 492.415 31 491.96 31 491.5V483.5ZM31 499.5C31 499.04 30.9095 498.585 30.7336 498.161C30.5577 497.736 30.2999 497.35 29.9749 497.025C29.6499 496.7 29.264 496.442 28.8394 496.266C28.4148 496.091 27.9596 496 27.5 496H19.5C18.5717 496 17.6815 496.369 17.0251 497.025C16.3687 497.681 16 498.572 16 499.5V507.5C16 508.428 16.3687 509.319 17.0251 509.975C17.6815 510.631 18.5717 511 19.5 511H27.5C27.9596 511 28.4148 510.909 28.8394 510.734C29.264 510.558 29.6499 510.3 29.9749 509.975C30.2999 509.65 30.5577 509.264 30.7336 508.839C30.9095 508.415 31 507.96 31 507.5V499.5ZM47 419.5C47 418.572 46.6312 417.681 45.9749 417.025C45.3185 416.369 44.4283 416 43.5 416H35.5C34.5717 416 33.6815 416.369 33.0251 417.025C32.3688 417.681 32 418.572 32 419.5V427.5C32 428.428 32.3688 429.319 33.0251 429.975C33.6815 430.631 34.5717 431 35.5 431H43.5C44.4283 431 45.3185 430.631 45.9749 429.975C46.6312 429.319 47 428.428 47 427.5V419.5ZM47 435.5C47 434.572 46.6312 433.681 45.9749 433.025C45.3185 432.369 44.4283 432 43.5 432H35.5C34.5717 432 33.6815 432.369 33.0251 433.025C32.3688 433.681 32 434.572 32 435.5V443.5C32 444.428 32.3688 445.319 33.0251 445.975C33.6815 446.631 34.5717 447 35.5 447H43.5C44.4283 447 45.3185 446.631 45.9749 445.975C46.6312 445.319 47 444.428 47 443.5V435.5ZM47 483.5C47 482.572 46.6312 481.681 45.9749 481.025C45.3185 480.369 44.4283 480 43.5 480H35.5C34.5717 480 33.6815 480.369 33.0251 481.025C32.3688 481.681 32 482.572 32 483.5V491.5C32 492.428 32.3688 493.319 33.0251 493.975C33.6815 494.631 34.5717 495 35.5 495H43.5C44.4283 495 45.3185 494.631 45.9749 493.975C46.6312 493.319 47 492.428 47 491.5V483.5ZM47 499.5C47 498.572 46.6312 497.681 45.9749 497.025C45.3185 496.369 44.4283 496 43.5 496H35.5C34.5717 496 33.6815 496.369 33.0251 497.025C32.3688 497.681 32 498.572 32 499.5V507.5C32 508.428 32.3688 509.319 33.0251 509.975C33.6815 510.631 34.5717 511 35.5 511H43.5C44.4283 511 45.3185 510.631 45.9749 509.975C46.6312 509.319 47 508.428 47 507.5V499.5ZM47 515.5C47 514.572 46.6312 513.682 45.9749 513.025C45.3185 512.369 44.4283 512 43.5 512H35.5C34.5717 512 33.6815 512.369 33.0251 513.025C32.3688 513.682 32 514.572 32 515.5V523.5C32 524.428 32.3688 525.318 33.0251 525.975C33.6815 526.631 34.5717 527 35.5 527H43.5C44.4283 527 45.3185 526.631 45.9749 525.975C46.6312 525.318 47 524.428 47 523.5V515.5ZM47 531.5C47 530.572 46.6312 529.682 45.9749 529.025C45.3185 528.369 44.4283 528 43.5 528H35.5C34.5717 528 33.6815 528.369 33.0251 529.025C32.3688 529.682 32 530.572 32 531.5V539.5C32 540.428 32.3688 541.318 33.0251 541.975C33.6815 542.631 34.5717 543 35.5 543H43.5C44.4283 543 45.3185 542.631 45.9749 541.975C46.6312 541.318 47 540.428 47 539.5V531.5ZM63 419.5C63 418.572 62.6312 417.681 61.9749 417.025C61.3185 416.369 60.4283 416 59.5 416H51.5C50.5717 416 49.6815 416.369 49.0251 417.025C48.3688 417.681 48 418.572 48 419.5V427.5C48 428.428 48.3688 429.319 49.0251 429.975C49.6815 430.631 50.5717 431 51.5 431H59.5C60.4283 431 61.3185 430.631 61.9749 429.975C62.6312 429.319 63 428.428 63 427.5V419.5ZM63 435.5C63 434.572 62.6312 433.681 61.9749 433.025C61.3185 432.369 60.4283 432 59.5 432H51.5C50.5717 432 49.6815 432.369 49.0251 433.025C48.3688 433.681 48 434.572 48 435.5V443.5C48 444.428 48.3688 445.319 49.0251 445.975C49.6815 446.631 50.5717 447 51.5 447H59.5C60.4283 447 61.3185 446.631 61.9749 445.975C62.6312 445.319 63 444.428 63 443.5V435.5ZM63 483.5C63 482.572 62.6312 481.681 61.9749 481.025C61.3185 480.369 60.4283 480 59.5 480H51.5C50.5717 480 49.6815 480.369 49.0251 481.025C48.3688 481.681 48 482.572 48 483.5V491.5C48 492.428 48.3688 493.319 49.0251 493.975C49.6815 494.631 50.5717 495 51.5 495H59.5C60.4283 495 61.3185 494.631 61.9749 493.975C62.6312 493.319 63 492.428 63 491.5V483.5ZM63 499.5C63 498.572 62.6312 497.681 61.9749 497.025C61.3185 496.369 60.4283 496 59.5 496H51.5C50.5717 496 49.6815 496.369 49.0251 497.025C48.3688 497.681 48 498.572 48 499.5V507.5C48 508.428 48.3688 509.319 49.0251 509.975C49.6815 510.631 50.5717 511 51.5 511H59.5C60.4283 511 61.3185 510.631 61.9749 509.975C62.6312 509.319 63 508.428 63 507.5V499.5ZM63 515.5C63 514.572 62.6312 513.682 61.9749 513.025C61.3185 512.369 60.4283 512 59.5 512H51.5C50.5717 512 49.6815 512.369 49.0251 513.025C48.3688 513.682 48 514.572 48 515.5V523.5C48 524.428 48.3688 525.318 49.0251 525.975C49.6815 526.631 50.5717 527 51.5 527H59.5C60.4283 527 61.3185 526.631 61.9749 525.975C62.6312 525.318 63 524.428 63 523.5V515.5ZM63 531.5C63 530.572 62.6312 529.682 61.9749 529.025C61.3185 528.369 60.4283 528 59.5 528H51.5C50.5717 528 49.6815 528.369 49.0251 529.025C48.3688 529.682 48 530.572 48 531.5V539.5C48 540.428 48.3688 541.318 49.0251 541.975C49.6815 542.631 50.5717 543 51.5 543H59.5C60.4283 543 61.3185 542.631 61.9749 541.975C62.6312 541.318 63 540.428 63 539.5V531.5ZM79 355.5C79 354.572 78.6313 353.681 77.9749 353.025C77.3185 352.369 76.4283 352 75.5 352H67.5C66.5717 352 65.6815 352.369 65.0251 353.025C64.3687 353.681 64 354.572 64 355.5V363.5C64 364.428 64.3687 365.319 65.0251 365.975C65.6815 366.631 66.5717 367 67.5 367H75.5C76.4283 367 77.3185 366.631 77.9749 365.975C78.6313 365.319 79 364.428 79 363.5V355.5ZM79 371.5C79 370.572 78.6313 369.681 77.9749 369.025C77.3185 368.369 76.4283 368 75.5 368H67.5C66.5717 368 65.6815 368.369 65.0251 369.025C64.3687 369.681 64 370.572 64 371.5V379.5C64 380.428 64.3687 381.319 65.0251 381.975C65.6815 382.631 66.5717 383 67.5 383H75.5C76.4283 383 77.3185 382.631 77.9749 381.975C78.6313 381.319 79 380.428 79 379.5V371.5ZM79 387.5C79 386.572 78.6313 385.681 77.9749 385.025C77.3185 384.369 76.4283 384 75.5 384H67.5C66.5717 384 65.6815 384.369 65.0251 385.025C64.3687 385.681 64 386.572 64 387.5V395.5C64 396.428 64.3687 397.319 65.0251 397.975C65.6815 398.631 66.5717 399 67.5 399H75.5C76.4283 399 77.3185 398.631 77.9749 397.975C78.6313 397.319 79 396.428 79 395.5V387.5ZM79 403.5C79 402.572 78.6313 401.681 77.9749 401.025C77.3185 400.369 76.4283 400 75.5 400H67.5C66.5717 400 65.6815 400.369 65.0251 401.025C64.3687 401.681 64 402.572 64 403.5V411.5C64 412.428 64.3687 413.319 65.0251 413.975C65.6815 414.631 66.5717 415 67.5 415H75.5C76.4283 415 77.3185 414.631 77.9749 413.975C78.6313 413.319 79 412.428 79 411.5V403.5ZM79 451.5C79 450.572 78.6313 449.681 77.9749 449.025C77.3185 448.369 76.4283 448 75.5 448H67.5C66.5717 448 65.6815 448.369 65.0251 449.025C64.3687 449.681 64 450.572 64 451.5V459.5C64 460.428 64.3687 461.319 65.0251 461.975C65.6815 462.631 66.5717 463 67.5 463H75.5C76.4283 463 77.3185 462.631 77.9749 461.975C78.6313 461.319 79 460.428 79 459.5V451.5ZM79 467.5C79 466.572 78.6313 465.681 77.9749 465.025C77.3185 464.369 76.4283 464 75.5 464H67.5C66.5717 464 65.6815 464.369 65.0251 465.025C64.3687 465.681 64 466.572 64 467.5V475.5C64 476.428 64.3687 477.319 65.0251 477.975C65.6815 478.631 66.5717 479 67.5 479H75.5C76.4283 479 77.3185 478.631 77.9749 477.975C78.6313 477.319 79 476.428 79 475.5V467.5ZM95 355.5C95 354.572 94.6313 353.681 93.9749 353.025C93.3185 352.369 92.4283 352 91.5 352H83.5C82.5717 352 81.6815 352.369 81.0251 353.025C80.3687 353.681 80 354.572 80 355.5V363.5C80 364.428 80.3687 365.319 81.0251 365.975C81.6815 366.631 82.5717 367 83.5 367H91.5C92.4283 367 93.3185 366.631 93.9749 365.975C94.6313 365.319 95 364.428 95 363.5V355.5ZM95 371.5C95 370.572 94.6313 369.681 93.9749 369.025C93.3185 368.369 92.4283 368 91.5 368H83.5C82.5717 368 81.6815 368.369 81.0251 369.025C80.3687 369.681 80 370.572 80 371.5V379.5C80 380.428 80.3687 381.319 81.0251 381.975C81.6815 382.631 82.5717 383 83.5 383H91.5C92.4283 383 93.3185 382.631 93.9749 381.975C94.6313 381.319 95 380.428 95 379.5V371.5ZM95 387.5C95 386.572 94.6313 385.681 93.9749 385.025C93.3185 384.369 92.4283 384 91.5 384H83.5C82.5717 384 81.6815 384.369 81.0251 385.025C80.3687 385.681 80 386.572 80 387.5V395.5C80 396.428 80.3687 397.319 81.0251 397.975C81.6815 398.631 82.5717 399 83.5 399H91.5C92.4283 399 93.3185 398.631 93.9749 397.975C94.6313 397.319 95 396.428 95 395.5V387.5ZM95 403.5C95 402.572 94.6313 401.681 93.9749 401.025C93.3185 400.369 92.4283 400 91.5 400H83.5C82.5717 400 81.6815 400.369 81.0251 401.025C80.3687 401.681 80 402.572 80 403.5V411.5C80 412.428 80.3687 413.319 81.0251 413.975C81.6815 414.631 82.5717 415 83.5 415H91.5C92.4283 415 93.3185 414.631 93.9749 413.975C94.6313 413.319 95 412.428 95 411.5V403.5ZM95 451.5C95 450.572 94.6313 449.681 93.9749 449.025C93.3185 448.369 92.4283 448 91.5 448H83.5C82.5717 448 81.6815 448.369 81.0251 449.025C80.3687 449.681 80 450.572 80 451.5V459.5C80 460.428 80.3687 461.319 81.0251 461.975C81.6815 462.631 82.5717 463 83.5 463H91.5C92.4283 463 93.3185 462.631 93.9749 461.975C94.6313 461.319 95 460.428 95 459.5V451.5ZM95 467.5C95 466.572 94.6313 465.681 93.9749 465.025C93.3185 464.369 92.4283 464 91.5 464H83.5C82.5717 464 81.6815 464.369 81.0251 465.025C80.3687 465.681 80 466.572 80 467.5V475.5C80 476.428 80.3687 477.319 81.0251 477.975C81.6815 478.631 82.5717 479 83.5 479H91.5C92.4283 479 93.3185 478.631 93.9749 477.975C94.6313 477.319 95 476.428 95 475.5V467.5ZM111 355.5C111 354.572 110.631 353.681 109.975 353.025C109.318 352.369 108.428 352 107.5 352H99.5C98.5717 352 97.6815 352.369 97.0251 353.025C96.3687 353.681 96 354.572 96 355.5V363.5C96 364.428 96.3687 365.319 97.0251 365.975C97.6815 366.631 98.5717 367 99.5 367H107.5C108.428 367 109.318 366.631 109.975 365.975C110.631 365.319 111 364.428 111 363.5V355.5ZM111 371.5C111 370.572 110.631 369.681 109.975 369.025C109.318 368.369 108.428 368 107.5 368H99.5C98.5717 368 97.6815 368.369 97.0251 369.025C96.3687 369.681 96 370.572 96 371.5V379.5C96 380.428 96.3687 381.319 97.0251 381.975C97.6815 382.631 98.5717 383 99.5 383H107.5C108.428 383 109.318 382.631 109.975 381.975C110.631 381.319 111 380.428 111 379.5V371.5ZM111 387.5C111 386.572 110.631 385.681 109.975 385.025C109.318 384.369 108.428 384 107.5 384H99.5C98.5717 384 97.6815 384.369 97.0251 385.025C96.3687 385.681 96 386.572 96 387.5V395.5C96 396.428 96.3687 397.319 97.0251 397.975C97.6815 398.631 98.5717 399 99.5 399H107.5C108.428 399 109.318 398.631 109.975 397.975C110.631 397.319 111 396.428 111 395.5V387.5ZM111 403.5C111 402.572 110.631 401.681 109.975 401.025C109.318 400.369 108.428 400 107.5 400H99.5C98.5717 400 97.6815 400.369 97.0251 401.025C96.3687 401.681 96 402.572 96 403.5V411.5C96 412.428 96.3687 413.319 97.0251 413.975C97.6815 414.631 98.5717 415 99.5 415H107.5C108.428 415 109.318 414.631 109.975 413.975C110.631 413.319 111 412.428 111 411.5V403.5ZM111 419.5C111 418.572 110.631 417.681 109.975 417.025C109.318 416.369 108.428 416 107.5 416H99.5C98.5717 416 97.6815 416.369 97.0251 417.025C96.3687 417.681 96 418.572 96 419.5V427.5C96 428.428 96.3687 429.319 97.0251 429.975C97.6815 430.631 98.5717 431 99.5 431H107.5C108.428 431 109.318 430.631 109.975 429.975C110.631 429.319 111 428.428 111 427.5V419.5ZM111 435.5C111 434.572 110.631 433.681 109.975 433.025C109.318 432.369 108.428 432 107.5 432H99.5C98.5717 432 97.6815 432.369 97.0251 433.025C96.3687 433.681 96 434.572 96 435.5V443.5C96 444.428 96.3687 445.319 97.0251 445.975C97.6815 446.631 98.5717 447 99.5 447H107.5C108.428 447 109.318 446.631 109.975 445.975C110.631 445.319 111 444.428 111 443.5V435.5ZM127 355.5C127 354.572 126.631 353.681 125.975 353.025C125.318 352.369 124.428 352 123.5 352H115.5C114.572 352 113.682 352.369 113.025 353.025C112.369 353.681 112 354.572 112 355.5V363.5C112 364.428 112.369 365.319 113.025 365.975C113.682 366.631 114.572 367 115.5 367H123.5C124.428 367 125.318 366.631 125.975 365.975C126.631 365.319 127 364.428 127 363.5V355.5ZM127 371.5C127 370.572 126.631 369.681 125.975 369.025C125.318 368.369 124.428 368 123.5 368H115.5C114.572 368 113.682 368.369 113.025 369.025C112.369 369.681 112 370.572 112 371.5V379.5C112 380.428 112.369 381.319 113.025 381.975C113.682 382.631 114.572 383 115.5 383H123.5C124.428 383 125.318 382.631 125.975 381.975C126.631 381.319 127 380.428 127 379.5V371.5ZM127 387.5C127 386.572 126.631 385.681 125.975 385.025C125.318 384.369 124.428 384 123.5 384H115.5C114.572 384 113.682 384.369 113.025 385.025C112.369 385.681 112 386.572 112 387.5V395.5C112 396.428 112.369 397.319 113.025 397.975C113.682 398.631 114.572 399 115.5 399H123.5C124.428 399 125.318 398.631 125.975 397.975C126.631 397.319 127 396.428 127 395.5V387.5ZM127 403.5C127 402.572 126.631 401.681 125.975 401.025C125.318 400.369 124.428 400 123.5 400H115.5C114.572 400 113.682 400.369 113.025 401.025C112.369 401.681 112 402.572 112 403.5V411.5C112 412.428 112.369 413.319 113.025 413.975C113.682 414.631 114.572 415 115.5 415H123.5C124.428 415 125.318 414.631 125.975 413.975C126.631 413.319 127 412.428 127 411.5V403.5ZM127 419.5C127 418.572 126.631 417.681 125.975 417.025C125.318 416.369 124.428 416 123.5 416H115.5C114.572 416 113.682 416.369 113.025 417.025C112.369 417.681 112 418.572 112 419.5V427.5C112 428.428 112.369 429.319 113.025 429.975C113.682 430.631 114.572 431 115.5 431H123.5C124.428 431 125.318 430.631 125.975 429.975C126.631 429.319 127 428.428 127 427.5V419.5ZM127 435.5C127 434.572 126.631 433.681 125.975 433.025C125.318 432.369 124.428 432 123.5 432H115.5C114.572 432 113.682 432.369 113.025 433.025C112.369 433.681 112 434.572 112 435.5V443.5C112 444.428 112.369 445.319 113.025 445.975C113.682 446.631 114.572 447 115.5 447H123.5C124.428 447 125.318 446.631 125.975 445.975C126.631 445.319 127 444.428 127 443.5V435.5ZM143 355.5C143 354.572 142.631 353.681 141.975 353.025C141.319 352.369 140.428 352 139.5 352H131.5C130.572 352 129.682 352.369 129.025 353.025C128.369 353.681 128 354.572 128 355.5V363.5C128 364.428 128.369 365.319 129.025 365.975C129.682 366.631 130.572 367 131.5 367H139.5C140.428 367 141.319 366.631 141.975 365.975C142.631 365.319 143 364.428 143 363.5V355.5ZM143 371.5C143 370.572 142.631 369.681 141.975 369.025C141.319 368.369 140.428 368 139.5 368H131.5C130.572 368 129.682 368.369 129.025 369.025C128.369 369.681 128 370.572 128 371.5V379.5C128 380.428 128.369 381.319 129.025 381.975C129.682 382.631 130.572 383 131.5 383H139.5C140.428 383 141.319 382.631 141.975 381.975C142.631 381.319 143 380.428 143 379.5V371.5ZM143 323.5C143 322.572 142.631 321.681 141.975 321.025C141.319 320.369 140.428 320 139.5 320H131.5C130.572 320 129.682 320.369 129.025 321.025C128.369 321.681 128 322.572 128 323.5V331.5C128 332.428 128.369 333.319 129.025 333.975C129.682 334.631 130.572 335 131.5 335H139.5C140.428 335 141.319 334.631 141.975 333.975C142.631 333.319 143 332.428 143 331.5V323.5ZM143 339.5C143 338.572 142.631 337.681 141.975 337.025C141.319 336.369 140.428 336 139.5 336H131.5C130.572 336 129.682 336.369 129.025 337.025C128.369 337.681 128 338.572 128 339.5V347.5C128 348.428 128.369 349.319 129.025 349.975C129.682 350.631 130.572 351 131.5 351H139.5C140.428 351 141.319 350.631 141.975 349.975C142.631 349.319 143 348.428 143 347.5V339.5ZM143 387.5C143 386.572 142.631 385.681 141.975 385.025C141.319 384.369 140.428 384 139.5 384H131.5C130.572 384 129.682 384.369 129.025 385.025C128.369 385.681 128 386.572 128 387.5V395.5C128 396.428 128.369 397.319 129.025 397.975C129.682 398.631 130.572 399 131.5 399H139.5C140.428 399 141.319 398.631 141.975 397.975C142.631 397.319 143 396.428 143 395.5V387.5ZM143 403.5C143 402.572 142.631 401.681 141.975 401.025C141.319 400.369 140.428 400 139.5 400H131.5C130.572 400 129.682 400.369 129.025 401.025C128.369 401.681 128 402.572 128 403.5V411.5C128 412.428 128.369 413.319 129.025 413.975C129.682 414.631 130.572 415 131.5 415H139.5C140.428 415 141.319 414.631 141.975 413.975C142.631 413.319 143 412.428 143 411.5V403.5ZM159 355.5C159 354.572 158.631 353.681 157.975 353.025C157.319 352.369 156.428 352 155.5 352H147.5C146.572 352 145.682 352.369 145.025 353.025C144.369 353.681 144 354.572 144 355.5V363.5C144 364.428 144.369 365.319 145.025 365.975C145.682 366.631 146.572 367 147.5 367H155.5C156.428 367 157.319 366.631 157.975 365.975C158.631 365.319 159 364.428 159 363.5V355.5ZM159 371.5C159 370.572 158.631 369.681 157.975 369.025C157.319 368.369 156.428 368 155.5 368H147.5C146.572 368 145.682 368.369 145.025 369.025C144.369 369.681 144 370.572 144 371.5V379.5C144 380.428 144.369 381.319 145.025 381.975C145.682 382.631 146.572 383 147.5 383H155.5C156.428 383 157.319 382.631 157.975 381.975C158.631 381.319 159 380.428 159 379.5V371.5ZM143 451.5C143 450.572 142.631 449.681 141.975 449.025C141.319 448.369 140.428 448 139.5 448H131.5C130.572 448 129.682 448.369 129.025 449.025C128.369 449.681 128 450.572 128 451.5V459.5C128 460.428 128.369 461.319 129.025 461.975C129.682 462.631 130.572 463 131.5 463H139.5C140.428 463 141.319 462.631 141.975 461.975C142.631 461.319 143 460.428 143 459.5V451.5ZM143 467.5C143 466.572 142.631 465.681 141.975 465.025C141.319 464.369 140.428 464 139.5 464H131.5C130.572 464 129.682 464.369 129.025 465.025C128.369 465.681 128 466.572 128 467.5V475.5C128 476.428 128.369 477.319 129.025 477.975C129.682 478.631 130.572 479 131.5 479H139.5C140.428 479 141.319 478.631 141.975 477.975C142.631 477.319 143 476.428 143 475.5V467.5ZM159 323.5C159 322.572 158.631 321.681 157.975 321.025C157.319 320.369 156.428 320 155.5 320H147.5C146.572 320 145.682 320.369 145.025 321.025C144.369 321.681 144 322.572 144 323.5V331.5C144 332.428 144.369 333.319 145.025 333.975C145.682 334.631 146.572 335 147.5 335H155.5C156.428 335 157.319 334.631 157.975 333.975C158.631 333.319 159 332.428 159 331.5V323.5ZM159 339.5C159 338.572 158.631 337.681 157.975 337.025C157.319 336.369 156.428 336 155.5 336H147.5C146.572 336 145.682 336.369 145.025 337.025C144.369 337.681 144 338.572 144 339.5V347.5C144 348.428 144.369 349.319 145.025 349.975C145.682 350.631 146.572 351 147.5 351H155.5C156.428 351 157.319 350.631 157.975 349.975C158.631 349.319 159 348.428 159 347.5V339.5ZM159 387.5C159 386.572 158.631 385.681 157.975 385.025C157.319 384.369 156.428 384 155.5 384H147.5C146.572 384 145.682 384.369 145.025 385.025C144.369 385.681 144 386.572 144 387.5V395.5C144 396.428 144.369 397.319 145.025 397.975C145.682 398.631 146.572 399 147.5 399H155.5C156.428 399 157.319 398.631 157.975 397.975C158.631 397.319 159 396.428 159 395.5V387.5ZM159 403.5C159 402.572 158.631 401.681 157.975 401.025C157.319 400.369 156.428 400 155.5 400H147.5C146.572 400 145.682 400.369 145.025 401.025C144.369 401.681 144 402.572 144 403.5V411.5C144 412.428 144.369 413.319 145.025 413.975C145.682 414.631 146.572 415 147.5 415H155.5C156.428 415 157.319 414.631 157.975 413.975C158.631 413.319 159 412.428 159 411.5V403.5ZM159 451.5C159 450.572 158.631 449.681 157.975 449.025C157.319 448.369 156.428 448 155.5 448H147.5C146.572 448 145.682 448.369 145.025 449.025C144.369 449.681 144 450.572 144 451.5V459.5C144 460.428 144.369 461.319 145.025 461.975C145.682 462.631 146.572 463 147.5 463H155.5C156.428 463 157.319 462.631 157.975 461.975C158.631 461.319 159 460.428 159 459.5V451.5ZM159 467.5C159 466.572 158.631 465.681 157.975 465.025C157.319 464.369 156.428 464 155.5 464H147.5C146.572 464 145.682 464.369 145.025 465.025C144.369 465.681 144 466.572 144 467.5V475.5C144 476.428 144.369 477.319 145.025 477.975C145.682 478.631 146.572 479 147.5 479H155.5C156.428 479 157.319 478.631 157.975 477.975C158.631 477.319 159 476.428 159 475.5V467.5ZM175 387.5C175 386.572 174.631 385.681 173.975 385.025C173.319 384.369 172.428 384 171.5 384H163.5C162.572 384 161.682 384.369 161.025 385.025C160.369 385.681 160 386.572 160 387.5V395.5C160 396.428 160.369 397.319 161.025 397.975C161.682 398.631 162.572 399 163.5 399H171.5C172.428 399 173.319 398.631 173.975 397.975C174.631 397.319 175 396.428 175 395.5V387.5ZM175 403.5C175 402.572 174.631 401.681 173.975 401.025C173.319 400.369 172.428 400 171.5 400H163.5C162.572 400 161.682 400.369 161.025 401.025C160.369 401.681 160 402.572 160 403.5V411.5C160 412.428 160.369 413.319 161.025 413.975C161.682 414.631 162.572 415 163.5 415H171.5C172.428 415 173.319 414.631 173.975 413.975C174.631 413.319 175 412.428 175 411.5V403.5ZM191 387.5C191 386.572 190.631 385.681 189.975 385.025C189.319 384.369 188.428 384 187.5 384H179.5C178.572 384 177.682 384.369 177.025 385.025C176.369 385.681 176 386.572 176 387.5V395.5C176 396.428 176.369 397.319 177.025 397.975C177.682 398.631 178.572 399 179.5 399H187.5C188.428 399 189.319 398.631 189.975 397.975C190.631 397.319 191 396.428 191 395.5V387.5ZM191 403.5C191 402.572 190.631 401.681 189.975 401.025C189.319 400.369 188.428 400 187.5 400H179.5C178.572 400 177.682 400.369 177.025 401.025C176.369 401.681 176 402.572 176 403.5V411.5C176 412.428 176.369 413.319 177.025 413.975C177.682 414.631 178.572 415 179.5 415H187.5C188.428 415 189.319 414.631 189.975 413.975C190.631 413.319 191 412.428 191 411.5V403.5ZM15.505 369.451C15.043 368.649 14.366 367.952 13.551 367.504C14.3745 367.052 15.0523 366.374 15.505 365.551C15.948 366.343 16.665 367.047 17.451 367.504C16.645 367.975 15.948 368.631 15.505 369.451ZM15.505 465.451C15.043 464.649 14.366 463.952 13.551 463.504C14.3745 463.052 15.0523 462.374 15.505 461.551C15.948 462.343 16.665 463.047 17.451 463.504C16.645 463.975 15.948 464.631 15.505 465.451ZM15.505 481.451C15.043 480.649 14.366 479.952 13.551 479.504C14.3745 479.052 15.0523 478.374 15.505 477.551C15.948 478.343 16.665 479.047 17.451 479.504C16.645 479.975 15.948 480.631 15.505 481.451ZM15.505 497.451C15.043 496.649 14.366 495.952 13.551 495.504C14.3745 495.052 15.0523 494.374 15.505 493.551C15.948 494.343 16.665 495.047 17.451 495.504C16.645 495.975 15.948 496.631 15.505 497.451ZM31.505 449.451C31.043 448.649 30.366 447.952 29.551 447.504C30.3745 447.052 31.0523 446.374 31.505 445.551C31.948 446.343 32.665 447.047 33.451 447.504C32.645 447.975 31.948 448.631 31.505 449.451ZM31.505 481.451C31.043 480.649 30.366 479.952 29.551 479.504C30.3745 479.052 31.0523 478.374 31.505 477.551C31.948 478.343 32.665 479.047 33.451 479.504C32.645 479.975 31.948 480.631 31.505 481.451ZM31.505 497.451C31.043 496.649 30.366 495.952 29.551 495.504C30.3745 495.052 31.0523 494.374 31.505 493.551C31.948 494.343 32.665 495.047 33.451 495.504C32.645 495.975 31.948 496.631 31.505 497.451ZM31.505 513.451C31.043 512.649 30.366 511.952 29.551 511.504C30.3745 511.052 31.0523 510.374 31.505 509.551C31.948 510.343 32.665 511.047 33.451 511.504C32.645 511.975 31.948 512.631 31.505 513.451ZM47.505 433.451C47.043 432.649 46.366 431.952 45.551 431.504C46.3745 431.052 47.0523 430.374 47.505 429.551C47.948 430.343 48.665 431.047 49.451 431.504C48.645 431.975 47.948 432.631 47.505 433.451ZM47.505 497.451C47.043 496.649 46.366 495.952 45.551 495.504C46.3745 495.052 47.0523 494.374 47.505 493.551C47.948 494.343 48.665 495.047 49.451 495.504C48.645 495.975 47.948 496.631 47.505 497.451ZM47.505 513.451C47.043 512.649 46.366 511.952 45.551 511.504C46.3745 511.052 47.0523 510.374 47.505 509.551C47.948 510.343 48.665 511.047 49.451 511.504C48.645 511.975 47.948 512.631 47.505 513.451ZM47.505 529.451C47.043 528.649 46.366 527.952 45.551 527.504C46.3745 527.052 47.0523 526.374 47.505 525.551C47.948 526.343 48.665 527.047 49.451 527.504C48.645 527.974 47.948 528.631 47.505 529.451ZM63.505 417.451C63.043 416.649 62.366 415.952 61.551 415.504C62.3745 415.052 63.0523 414.374 63.505 413.551C63.948 414.343 64.665 415.047 65.451 415.504C64.646 415.975 63.948 416.631 63.505 417.451ZM63.505 449.451C63.043 448.649 62.366 447.952 61.551 447.504C62.3745 447.052 63.0523 446.374 63.505 445.551C63.948 446.343 64.665 447.047 65.451 447.504C64.646 447.975 63.948 448.631 63.505 449.451ZM63.505 481.451C63.043 480.649 62.366 479.952 61.551 479.504C62.3745 479.052 63.0523 478.374 63.505 477.551C63.948 478.343 64.665 479.047 65.451 479.504C64.646 479.975 63.948 480.631 63.505 481.451ZM79.505 369.451C79.043 368.649 78.366 367.952 77.551 367.504C78.3745 367.052 79.0523 366.374 79.505 365.551C79.948 366.343 80.665 367.047 81.451 367.504C80.646 367.975 79.948 368.631 79.505 369.451ZM79.505 385.451C79.043 384.649 78.366 383.952 77.551 383.504C78.3745 383.052 79.0523 382.374 79.505 381.551C79.948 382.343 80.665 383.047 81.451 383.504C80.646 383.975 79.948 384.631 79.505 385.451ZM79.505 401.451C79.043 400.649 78.366 399.952 77.551 399.504C78.3745 399.052 79.0523 398.374 79.505 397.551C79.948 398.343 80.665 399.047 81.451 399.504C80.646 399.975 79.948 400.631 79.505 401.451ZM79.505 465.451C79.043 464.649 78.366 463.952 77.551 463.504C78.3745 463.052 79.0523 462.374 79.505 461.551C79.948 462.343 80.665 463.047 81.451 463.504C80.646 463.975 79.948 464.631 79.505 465.451ZM95.505 369.451C95.043 368.649 94.366 367.952 93.551 367.504C94.3745 367.052 95.0523 366.374 95.505 365.551C95.948 366.343 96.665 367.047 97.451 367.504C96.646 367.975 95.948 368.631 95.505 369.451ZM95.505 385.451C95.043 384.649 94.366 383.952 93.551 383.504C94.3745 383.052 95.0523 382.374 95.505 381.551C95.948 382.343 96.665 383.047 97.451 383.504C96.646 383.975 95.948 384.631 95.505 385.451ZM95.505 401.451C95.043 400.649 94.366 399.952 93.551 399.504C94.3745 399.052 95.0523 398.374 95.505 397.551C95.948 398.343 96.665 399.047 97.451 399.504C96.646 399.975 95.948 400.631 95.505 401.451ZM95.505 417.451C95.043 416.649 94.366 415.952 93.551 415.504C94.3745 415.052 95.0523 414.374 95.505 413.551C95.948 414.343 96.665 415.047 97.451 415.504C96.646 415.975 95.948 416.631 95.505 417.451ZM95.505 449.451C95.043 448.649 94.366 447.952 93.551 447.504C94.3745 447.052 95.0523 446.374 95.505 445.551C95.948 446.343 96.665 447.047 97.451 447.504C96.646 447.975 95.948 448.631 95.505 449.451ZM111.505 369.451C111.043 368.649 110.366 367.952 109.551 367.504C110.375 367.052 111.052 366.374 111.505 365.551C111.948 366.343 112.666 367.047 113.451 367.504C112.646 367.974 111.948 368.631 111.505 369.451ZM111.505 385.451C111.043 384.649 110.366 383.952 109.551 383.504C110.375 383.052 111.052 382.374 111.505 381.551C111.948 382.343 112.666 383.047 113.451 383.504C112.646 383.974 111.948 384.631 111.505 385.451ZM111.505 401.451C111.043 400.649 110.366 399.952 109.551 399.504C110.375 399.052 111.052 398.374 111.505 397.551C111.948 398.343 112.666 399.047 113.451 399.504C112.646 399.974 111.948 400.631 111.505 401.451ZM111.505 417.451C111.043 416.649 110.366 415.952 109.551 415.504C110.375 415.052 111.052 414.374 111.505 413.551C111.948 414.343 112.666 415.047 113.451 415.504C112.646 415.974 111.948 416.631 111.505 417.451ZM111.505 433.451C111.043 432.649 110.366 431.952 109.551 431.504C110.375 431.052 111.052 430.374 111.505 429.551C111.948 430.343 112.666 431.047 113.451 431.504C112.646 431.974 111.948 432.631 111.505 433.451ZM127.505 369.451C127.043 368.649 126.366 367.952 125.551 367.504C126.375 367.052 127.052 366.374 127.505 365.551C127.948 366.343 128.666 367.047 129.451 367.504C128.646 367.974 127.948 368.631 127.505 369.451ZM143.505 369.451C143.043 368.649 142.366 367.952 141.551 367.504C142.375 367.052 143.052 366.374 143.505 365.551C143.948 366.343 144.666 367.047 145.451 367.504C144.646 367.974 143.948 368.631 143.505 369.451ZM127.505 385.451C127.043 384.649 126.366 383.952 125.551 383.504C126.375 383.052 127.052 382.374 127.505 381.551C127.948 382.343 128.666 383.047 129.451 383.504C128.646 383.974 127.948 384.631 127.505 385.451ZM127.505 401.451C127.043 400.649 126.366 399.952 125.551 399.504C126.375 399.052 127.052 398.374 127.505 397.551C127.948 398.343 128.666 399.047 129.451 399.504C128.646 399.974 127.948 400.631 127.505 401.451ZM127.505 417.451C127.043 416.649 126.366 415.952 125.551 415.504C126.375 415.052 127.052 414.374 127.505 413.551C127.948 414.343 128.666 415.047 129.451 415.504C128.646 415.974 127.948 416.631 127.505 417.451ZM127.505 449.451C127.043 448.649 126.366 447.952 125.551 447.504C126.375 447.052 127.052 446.374 127.505 445.551C127.948 446.343 128.666 447.047 129.451 447.504C128.646 447.974 127.948 448.631 127.505 449.451ZM143.505 337.451C143.043 336.649 142.366 335.952 141.551 335.504C142.375 335.052 143.052 334.374 143.505 333.551C143.948 334.343 144.666 335.047 145.451 335.504C144.646 335.974 143.948 336.631 143.505 337.451ZM159.501 321.451C159.039 320.649 158.362 319.952 157.547 319.504C158.371 319.052 159.048 318.374 159.501 317.551C159.944 318.343 160.662 319.047 161.447 319.504C160.642 319.974 159.944 320.631 159.501 321.451ZM143.505 385.451C143.043 384.649 142.366 383.952 141.551 383.504C142.375 383.052 143.052 382.374 143.505 381.551C143.948 382.343 144.666 383.047 145.451 383.504C144.646 383.974 143.948 384.631 143.505 385.451ZM143.505 401.451C143.043 400.649 142.366 399.952 141.551 399.504C142.375 399.052 143.052 398.374 143.505 397.551C143.948 398.343 144.666 399.047 145.451 399.504C144.646 399.974 143.948 400.631 143.505 401.451ZM143.505 465.451C143.043 464.649 142.366 463.952 141.551 463.504C142.375 463.052 143.052 462.374 143.505 461.551C143.948 462.343 144.666 463.047 145.451 463.504C144.646 463.975 143.948 464.631 143.505 465.451ZM159.505 385.451C159.043 384.649 158.366 383.952 157.551 383.504C158.375 383.052 159.052 382.374 159.505 381.551C159.948 382.343 160.666 383.047 161.451 383.504C160.646 383.974 159.948 384.631 159.505 385.451ZM159.505 401.451C159.043 400.649 158.366 399.952 157.551 399.504C158.375 399.052 159.052 398.374 159.505 397.551C159.948 398.343 160.666 399.047 161.451 399.504C160.646 399.974 159.948 400.631 159.505 401.451ZM175.505 401.451C175.043 400.649 174.366 399.952 173.551 399.504C174.375 399.052 175.052 398.374 175.505 397.551C175.948 398.343 176.666 399.047 177.451 399.504C176.646 399.974 175.948 400.631 175.505 401.451ZM219.5 143C220.428 143 221.319 142.631 221.975 141.975C222.631 141.318 223 140.428 223 139.5V131.5C223 130.572 222.631 129.682 221.975 129.025C221.319 128.369 220.428 128 219.5 128H211.5C210.572 128 209.682 128.369 209.025 129.025C208.369 129.682 208 130.572 208 131.5V139.5C208 140.428 208.369 141.318 209.025 141.975C209.682 142.631 210.572 143 211.5 143H219.5ZM203.5 143C204.428 143 205.319 142.631 205.975 141.975C206.631 141.318 207 140.428 207 139.5V131.5C207 130.572 206.631 129.682 205.975 129.025C205.319 128.369 204.428 128 203.5 128H195.5C194.572 128 193.682 128.369 193.025 129.025C192.369 129.682 192 130.572 192 131.5V139.5C192 140.428 192.369 141.318 193.025 141.975C193.682 142.631 194.572 143 195.5 143H203.5ZM187.5 143C188.428 143 189.319 142.631 189.975 141.975C190.631 141.318 191 140.428 191 139.5V131.5C191 130.572 190.631 129.682 189.975 129.025C189.319 128.369 188.428 128 187.5 128H179.5C178.572 128 177.682 128.369 177.025 129.025C176.369 129.682 176 130.572 176 131.5V139.5C176 140.428 176.369 141.318 177.025 141.975C177.682 142.631 178.572 143 179.5 143H187.5ZM171.5 143C172.428 143 173.319 142.631 173.975 141.975C174.631 141.318 175 140.428 175 139.5V131.5C175 130.572 174.631 129.682 173.975 129.025C173.319 128.369 172.428 128 171.5 128H163.5C162.572 128 161.682 128.369 161.025 129.025C160.369 129.682 160 130.572 160 131.5V139.5C160 140.428 160.369 141.318 161.025 141.975C161.682 142.631 162.572 143 163.5 143H171.5ZM123.5 143C124.428 143 125.318 142.631 125.975 141.975C126.631 141.318 127 140.428 127 139.5V131.5C127 130.572 126.631 129.682 125.975 129.025C125.318 128.369 124.428 128 123.5 128H115.5C114.572 128 113.682 128.369 113.025 129.025C112.369 129.682 112 130.572 112 131.5V139.5C112 140.428 112.369 141.318 113.025 141.975C113.682 142.631 114.572 143 115.5 143H123.5ZM107.5 143C108.428 143 109.318 142.631 109.975 141.975C110.631 141.318 111 140.428 111 139.5V131.5C111 130.572 110.631 129.682 109.975 129.025C109.318 128.369 108.428 128 107.5 128H99.5C98.5717 128 97.6815 128.369 97.0251 129.025C96.3687 129.682 96 130.572 96 131.5V139.5C96 140.428 96.3687 141.318 97.0251 141.975C97.6815 142.631 98.5717 143 99.5 143H107.5ZM91.5 143C92.4283 143 93.3185 142.631 93.9749 141.975C94.6313 141.318 95 140.428 95 139.5V131.5C95 130.572 94.6313 129.682 93.9749 129.025C93.3185 128.369 92.4283 128 91.5 128H83.5C82.5717 128 81.6815 128.369 81.0251 129.025C80.3687 129.682 80 130.572 80 131.5V139.5C80 140.428 80.3687 141.318 81.0251 141.975C81.6815 142.631 82.5717 143 83.5 143H91.5ZM75.5 143C76.4283 143 77.3185 142.631 77.9749 141.975C78.6313 141.318 79 140.428 79 139.5V131.5C79 130.572 78.6313 129.682 77.9749 129.025C77.3185 128.369 76.4283 128 75.5 128H67.5C66.5717 128 65.6815 128.369 65.0251 129.025C64.3687 129.682 64 130.572 64 131.5V139.5C64 140.428 64.3687 141.318 65.0251 141.975C65.6815 142.631 66.5717 143 67.5 143H75.5ZM175 35.5C175 34.5717 174.631 33.6815 173.975 33.0251C173.319 32.3688 172.428 32 171.5 32H163.5C162.572 32 161.682 32.3688 161.025 33.0251C160.369 33.6815 160 34.5717 160 35.5V43.5C160 44.4283 160.369 45.3185 161.025 45.9749C161.682 46.6312 162.572 47 163.5 47H171.5C172.428 47 173.319 46.6312 173.975 45.9749C174.631 45.3185 175 44.4283 175 43.5V35.5ZM175 51.5C175 50.5717 174.631 49.6815 173.975 49.0251C173.319 48.3688 172.428 48 171.5 48H163.5C162.572 48 161.682 48.3688 161.025 49.0251C160.369 49.6815 160 50.5717 160 51.5V59.5C160 60.4283 160.369 61.3185 161.025 61.9749C161.682 62.6312 162.572 63 163.5 63H171.5C172.428 63 173.319 62.6312 173.975 61.9749C174.631 61.3185 175 60.4283 175 59.5V51.5ZM123.5 159C124.428 159 125.318 158.631 125.975 157.975C126.631 157.318 127 156.428 127 155.5V147.5C127 146.572 126.631 145.682 125.975 145.025C125.318 144.369 124.428 144 123.5 144H115.5C114.572 144 113.682 144.369 113.025 145.025C112.369 145.682 112 146.572 112 147.5V155.5C112 156.428 112.369 157.318 113.025 157.975C113.682 158.631 114.572 159 115.5 159H123.5ZM107.5 159C108.428 159 109.318 158.631 109.975 157.975C110.631 157.318 111 156.428 111 155.5V147.5C111 146.572 110.631 145.682 109.975 145.025C109.318 144.369 108.428 144 107.5 144H99.5C98.5717 144 97.6815 144.369 97.0251 145.025C96.3687 145.682 96 146.572 96 147.5V155.5C96 156.428 96.3687 157.318 97.0251 157.975C97.6815 158.631 98.5717 159 99.5 159H107.5ZM91.5 159C92.4283 159 93.3185 158.631 93.9749 157.975C94.6313 157.318 95 156.428 95 155.5V147.5C95 146.572 94.6313 145.682 93.9749 145.025C93.3185 144.369 92.4283 144 91.5 144H83.5C82.5717 144 81.6815 144.369 81.0251 145.025C80.3687 145.682 80 146.572 80 147.5V155.5C80 156.428 80.3687 157.318 81.0251 157.975C81.6815 158.631 82.5717 159 83.5 159H91.5ZM75.5 159C76.4283 159 77.3185 158.631 77.9749 157.975C78.6313 157.318 79 156.428 79 155.5V147.5C79 146.572 78.6313 145.682 77.9749 145.025C77.3185 144.369 76.4283 144 75.5 144H67.5C66.5717 144 65.6815 144.369 65.0251 145.025C64.3687 145.682 64 146.572 64 147.5V155.5C64 156.428 64.3687 157.318 65.0251 157.975C65.6815 158.631 66.5717 159 67.5 159H75.5ZM155.5 175C156.428 175 157.319 174.631 157.975 173.975C158.631 173.318 159 172.428 159 171.5V163.5C159 162.572 158.631 161.682 157.975 161.025C157.319 160.369 156.428 160 155.5 160H147.5C146.572 160 145.682 160.369 145.025 161.025C144.369 161.682 144 162.572 144 163.5V171.5C144 172.428 144.369 173.318 145.025 173.975C145.682 174.631 146.572 175 147.5 175H155.5ZM139.5 175C140.428 175 141.319 174.631 141.975 173.975C142.631 173.318 143 172.428 143 171.5V163.5C143 162.572 142.631 161.682 141.975 161.025C141.319 160.369 140.428 160 139.5 160H131.5C130.572 160 129.682 160.369 129.025 161.025C128.369 161.682 128 162.572 128 163.5V171.5C128 172.428 128.369 173.318 129.025 173.975C129.682 174.631 130.572 175 131.5 175H139.5ZM91.5 175C92.4283 175 93.3185 174.631 93.9749 173.975C94.6313 173.318 95 172.428 95 171.5V163.5C95 162.572 94.6313 161.682 93.9749 161.025C93.3185 160.369 92.4283 160 91.5 160H83.5C82.5717 160 81.6815 160.369 81.0251 161.025C80.3687 161.682 80 162.572 80 163.5V171.5C80 172.428 80.3687 173.318 81.0251 173.975C81.6815 174.631 82.5717 175 83.5 175H91.5ZM75.5 175C76.4283 175 77.3185 174.631 77.9749 173.975C78.6313 173.318 79 172.428 79 171.5V163.5C79 162.572 78.6313 161.682 77.9749 161.025C77.3185 160.369 76.4283 160 75.5 160H67.5C66.5717 160 65.6815 160.369 65.0251 161.025C64.3687 161.682 64 162.572 64 163.5V171.5C64 172.428 64.3687 173.318 65.0251 173.975C65.6815 174.631 66.5717 175 67.5 175H75.5ZM59.5 175C60.4283 175 61.3185 174.631 61.9749 173.975C62.6312 173.318 63 172.428 63 171.5V163.5C63 162.572 62.6312 161.682 61.9749 161.025C61.3185 160.369 60.4283 160 59.5 160H51.5C50.5717 160 49.6815 160.369 49.0251 161.025C48.3688 161.682 48 162.572 48 163.5V171.5C48 172.428 48.3688 173.318 49.0251 173.975C49.6815 174.631 50.5717 175 51.5 175H59.5ZM43.5 175C44.4283 175 45.3185 174.631 45.9749 173.975C46.6312 173.318 47 172.428 47 171.5V163.5C47 162.572 46.6312 161.682 45.9749 161.025C45.3185 160.369 44.4283 160 43.5 160H35.5C34.5717 160 33.6815 160.369 33.0251 161.025C32.3688 161.682 32 162.572 32 163.5V171.5C32 172.428 32.3688 173.318 33.0251 173.975C33.6815 174.631 34.5717 175 35.5 175H43.5ZM155.5 191C156.428 191 157.319 190.631 157.975 189.975C158.631 189.318 159 188.428 159 187.5V179.5C159 178.572 158.631 177.682 157.975 177.025C157.319 176.369 156.428 176 155.5 176H147.5C146.572 176 145.682 176.369 145.025 177.025C144.369 177.682 144 178.572 144 179.5V187.5C144 188.428 144.369 189.318 145.025 189.975C145.682 190.631 146.572 191 147.5 191H155.5ZM139.5 191C140.428 191 141.319 190.631 141.975 189.975C142.631 189.318 143 188.428 143 187.5V179.5C143 178.572 142.631 177.682 141.975 177.025C141.319 176.369 140.428 176 139.5 176H131.5C130.572 176 129.682 176.369 129.025 177.025C128.369 177.682 128 178.572 128 179.5V187.5C128 188.428 128.369 189.318 129.025 189.975C129.682 190.631 130.572 191 131.5 191H139.5ZM91.5 191C92.4283 191 93.3185 190.631 93.9749 189.975C94.6313 189.318 95 188.428 95 187.5V179.5C95 178.572 94.6313 177.682 93.9749 177.025C93.3185 176.369 92.4283 176 91.5 176H83.5C82.5717 176 81.6815 176.369 81.0251 177.025C80.3687 177.682 80 178.572 80 179.5V187.5C80 188.428 80.3687 189.318 81.0251 189.975C81.6815 190.631 82.5717 191 83.5 191H91.5ZM75.5 191C76.4283 191 77.3185 190.631 77.9749 189.975C78.6313 189.318 79 188.428 79 187.5V179.5C79 178.572 78.6313 177.682 77.9749 177.025C77.3185 176.369 76.4283 176 75.5 176H67.5C66.5717 176 65.6815 176.369 65.0251 177.025C64.3687 177.682 64 178.572 64 179.5V187.5C64 188.428 64.3687 189.318 65.0251 189.975C65.6815 190.631 66.5717 191 67.5 191H75.5ZM59.5 191C60.4283 191 61.3185 190.631 61.9749 189.975C62.6312 189.318 63 188.428 63 187.5V179.5C63 178.572 62.6312 177.682 61.9749 177.025C61.3185 176.369 60.4283 176 59.5 176H51.5C50.5717 176 49.6815 176.369 49.0251 177.025C48.3688 177.682 48 178.572 48 179.5V187.5C48 188.428 48.3688 189.318 49.0251 189.975C49.6815 190.631 50.5717 191 51.5 191H59.5ZM43.5 191C44.4283 191 45.3185 190.631 45.9749 189.975C46.6312 189.318 47 188.428 47 187.5V179.5C47 178.572 46.6312 177.682 45.9749 177.025C45.3185 176.369 44.4283 176 43.5 176H35.5C34.5717 176 33.6815 176.369 33.0251 177.025C32.3688 177.682 32 178.572 32 179.5V187.5C32 188.428 32.3688 189.318 33.0251 189.975C33.6815 190.631 34.5717 191 35.5 191H43.5ZM175 67.5C175 66.5717 174.631 65.6815 173.975 65.0251C173.319 64.3687 172.428 64 171.5 64H163.5C162.572 64 161.682 64.3687 161.025 65.0251C160.369 65.6815 160 66.5717 160 67.5V75.5C160 76.4283 160.369 77.3185 161.025 77.9749C161.682 78.6313 162.572 79 163.5 79H171.5C172.428 79 173.319 78.6313 173.975 77.9749C174.631 77.3185 175 76.4283 175 75.5V67.5ZM175 83.5C175 82.5717 174.631 81.6815 173.975 81.0251C173.319 80.3687 172.428 80 171.5 80H163.5C162.572 80 161.682 80.3687 161.025 81.0251C160.369 81.6815 160 82.5717 160 83.5V91.5C160 92.4283 160.369 93.3185 161.025 93.9749C161.682 94.6313 162.572 95 163.5 95H171.5C172.428 95 173.319 94.6313 173.975 93.9749C174.631 93.3185 175 92.4283 175 91.5V83.5ZM219.5 159C220.428 159 221.319 158.631 221.975 157.975C222.631 157.318 223 156.428 223 155.5V147.5C223 146.572 222.631 145.682 221.975 145.025C221.319 144.369 220.428 144 219.5 144H211.5C210.572 144 209.682 144.369 209.025 145.025C208.369 145.682 208 146.572 208 147.5V155.5C208 156.428 208.369 157.318 209.025 157.975C209.682 158.631 210.572 159 211.5 159H219.5ZM203.5 159C204.428 159 205.319 158.631 205.975 157.975C206.631 157.318 207 156.428 207 155.5V147.5C207 146.572 206.631 145.682 205.975 145.025C205.319 144.369 204.428 144 203.5 144H195.5C194.572 144 193.682 144.369 193.025 145.025C192.369 145.682 192 146.572 192 147.5V155.5C192 156.428 192.369 157.318 193.025 157.975C193.682 158.631 194.572 159 195.5 159H203.5ZM191 35.5C191 34.5717 190.631 33.6815 189.975 33.0251C189.319 32.3688 188.428 32 187.5 32H179.5C178.572 32 177.682 32.3688 177.025 33.0251C176.369 33.6815 176 34.5717 176 35.5V43.5C176 44.4283 176.369 45.3185 177.025 45.9749C177.682 46.6312 178.572 47 179.5 47H187.5C188.428 47 189.319 46.6312 189.975 45.9749C190.631 45.3185 191 44.4283 191 43.5V35.5ZM191 51.5C191 50.5717 190.631 49.6815 189.975 49.0251C189.319 48.3688 188.428 48 187.5 48H179.5C178.572 48 177.682 48.3688 177.025 49.0251C176.369 49.6815 176 50.5717 176 51.5V59.5C176 60.4283 176.369 61.3185 177.025 61.9749C177.682 62.6312 178.572 63 179.5 63H187.5C188.428 63 189.319 62.6312 189.975 61.9749C190.631 61.3185 191 60.4283 191 59.5V51.5ZM191 67.5C191 66.5717 190.631 65.6815 189.975 65.0251C189.319 64.3687 188.428 64 187.5 64H179.5C178.572 64 177.682 64.3687 177.025 65.0251C176.369 65.6815 176 66.5717 176 67.5V75.5C176 76.4283 176.369 77.3185 177.025 77.9749C177.682 78.6313 178.572 79 179.5 79H187.5C188.428 79 189.319 78.6313 189.975 77.9749C190.631 77.3185 191 76.4283 191 75.5V67.5ZM191 83.5C191 82.5717 190.631 81.6815 189.975 81.0251C189.319 80.3687 188.428 80 187.5 80H179.5C178.572 80 177.682 80.3687 177.025 81.0251C176.369 81.6815 176 82.5717 176 83.5V91.5C176 92.4283 176.369 93.3185 177.025 93.9749C177.682 94.6313 178.572 95 179.5 95H187.5C188.428 95 189.319 94.6313 189.975 93.9749C190.631 93.3185 191 92.4283 191 91.5V83.5ZM207 3.5C207 2.57174 206.631 1.6815 205.975 1.02513C205.319 0.368749 204.428 0 203.5 0H195.5C194.572 0 193.682 0.368749 193.025 1.02513C192.369 1.6815 192 2.57174 192 3.5V11.5C192 12.4283 192.369 13.3185 193.025 13.9749C193.682 14.6313 194.572 15 195.5 15H203.5C204.428 15 205.319 14.6313 205.975 13.9749C206.631 13.3185 207 12.4283 207 11.5V3.5ZM207 19.5C207 18.5717 206.631 17.6815 205.975 17.0251C205.319 16.3687 204.428 16 203.5 16H195.5C194.572 16 193.682 16.3687 193.025 17.0251C192.369 17.6815 192 18.5717 192 19.5V27.5C192 28.4283 192.369 29.3185 193.025 29.9749C193.682 30.6313 194.572 31 195.5 31H203.5C204.428 31 205.319 30.6313 205.975 29.9749C206.631 29.3185 207 28.4283 207 27.5V19.5ZM207 67.5C207 66.5717 206.631 65.6815 205.975 65.0251C205.319 64.3687 204.428 64 203.5 64H195.5C194.572 64 193.682 64.3687 193.025 65.0251C192.369 65.6815 192 66.5717 192 67.5V75.5C192 76.4283 192.369 77.3185 193.025 77.9749C193.682 78.6313 194.572 79 195.5 79H203.5C204.428 79 205.319 78.6313 205.975 77.9749C206.631 77.3185 207 76.4283 207 75.5V67.5ZM207 115.5C207 114.572 206.631 113.682 205.975 113.025C205.319 112.369 204.428 112 203.5 112H195.5C194.572 112 193.682 112.369 193.025 113.025C192.369 113.682 192 114.572 192 115.5V123.5C192 124.428 192.369 125.318 193.025 125.975C193.682 126.631 194.572 127 195.5 127H203.5C204.428 127 205.319 126.631 205.975 125.975C206.631 125.318 207 124.428 207 123.5V115.5ZM207 83.5C207 82.5717 206.631 81.6815 205.975 81.0251C205.319 80.3687 204.428 80 203.5 80H195.5C194.572 80 193.682 80.3687 193.025 81.0251C192.369 81.6815 192 82.5717 192 83.5V91.5C192 92.4283 192.369 93.3185 193.025 93.9749C193.682 94.6313 194.572 95 195.5 95H203.5C204.428 95 205.319 94.6313 205.975 93.9749C206.631 93.3185 207 92.4283 207 91.5V83.5ZM207 99.5C207 98.5717 206.631 97.6815 205.975 97.0251C205.319 96.3687 204.428 96 203.5 96H195.5C194.572 96 193.682 96.3687 193.025 97.0251C192.369 97.6815 192 98.5717 192 99.5V107.5C192 108.428 192.369 109.318 193.025 109.975C193.682 110.631 194.572 111 195.5 111H203.5C204.428 111 205.319 110.631 205.975 109.975C206.631 109.318 207 108.428 207 107.5V99.5ZM175 115.5C175 114.572 174.631 113.682 173.975 113.025C173.319 112.369 172.428 112 171.5 112H163.5C162.572 112 161.682 112.369 161.025 113.025C160.369 113.682 160 114.572 160 115.5V123.5C160 124.428 160.369 125.318 161.025 125.975C161.682 126.631 162.572 127 163.5 127H171.5C172.428 127 173.319 126.631 173.975 125.975C174.631 125.318 175 124.428 175 123.5V115.5ZM223 3.5C223 2.57174 222.631 1.6815 221.975 1.02513C221.319 0.368749 220.428 0 219.5 0H211.5C210.572 0 209.682 0.368749 209.025 1.02513C208.369 1.6815 208 2.57174 208 3.5V11.5C208 12.4283 208.369 13.3185 209.025 13.9749C209.682 14.6313 210.572 15 211.5 15H219.5C220.428 15 221.319 14.6313 221.975 13.9749C222.631 13.3185 223 12.4283 223 11.5V3.5ZM223 19.5C223 18.5717 222.631 17.6815 221.975 17.0251C221.319 16.3687 220.428 16 219.5 16H211.5C210.572 16 209.682 16.3687 209.025 17.0251C208.369 17.6815 208 18.5717 208 19.5V27.5C208 28.4283 208.369 29.3185 209.025 29.9749C209.682 30.6313 210.572 31 211.5 31H219.5C220.428 31 221.319 30.6313 221.975 29.9749C222.631 29.3185 223 28.4283 223 27.5V19.5ZM223 115.5C223 114.572 222.631 113.682 221.975 113.025C221.319 112.369 220.428 112 219.5 112H211.5C210.572 112 209.682 112.369 209.025 113.025C208.369 113.682 208 114.572 208 115.5V123.5C208 124.428 208.369 125.318 209.025 125.975C209.682 126.631 210.572 127 211.5 127H219.5C220.428 127 221.319 126.631 221.975 125.975C222.631 125.318 223 124.428 223 123.5V115.5ZM223 67.5C223 66.5717 222.631 65.6815 221.975 65.0251C221.319 64.3687 220.428 64 219.5 64H211.5C210.572 64 209.682 64.3687 209.025 65.0251C208.369 65.6815 208 66.5717 208 67.5V75.5C208 76.4283 208.369 77.3185 209.025 77.9749C209.682 78.6313 210.572 79 211.5 79H219.5C220.428 79 221.319 78.6313 221.975 77.9749C222.631 77.3185 223 76.4283 223 75.5V67.5ZM223 83.5C223 82.5717 222.631 81.6815 221.975 81.0251C221.319 80.3687 220.428 80 219.5 80H211.5C210.572 80 209.682 80.3687 209.025 81.0251C208.369 81.6815 208 82.5717 208 83.5V91.5C208 92.4283 208.369 93.3185 209.025 93.9749C209.682 94.6313 210.572 95 211.5 95H219.5C220.428 95 221.319 94.6313 221.975 93.9749C222.631 93.3185 223 92.4283 223 91.5V83.5ZM223 99.5C223 98.5717 222.631 97.6815 221.975 97.0251C221.319 96.3687 220.428 96 219.5 96H211.5C210.572 96 209.682 96.3687 209.025 97.0251C208.369 97.6815 208 98.5717 208 99.5V107.5C208 108.428 208.369 109.318 209.025 109.975C209.682 110.631 210.572 111 211.5 111H219.5C220.428 111 221.319 110.631 221.975 109.975C222.631 109.318 223 108.428 223 107.5V99.5ZM191 115.5C191 114.572 190.631 113.682 189.975 113.025C189.319 112.369 188.428 112 187.5 112H179.5C178.572 112 177.682 112.369 177.025 113.025C176.369 113.682 176 114.572 176 115.5V123.5C176 124.428 176.369 125.318 177.025 125.975C177.682 126.631 178.572 127 179.5 127H187.5C188.428 127 189.319 126.631 189.975 125.975C190.631 125.318 191 124.428 191 123.5V115.5ZM219.5 207C220.428 207 221.319 206.631 221.975 205.975C222.631 205.318 223 204.428 223 203.5V195.5C223 194.572 222.631 193.682 221.975 193.025C221.319 192.369 220.428 192 219.5 192H211.5C210.572 192 209.682 192.369 209.025 193.025C208.369 193.682 208 194.572 208 195.5V203.5C208 204.428 208.369 205.318 209.025 205.975C209.682 206.631 210.572 207 211.5 207H219.5ZM203.5 207C204.428 207 205.319 206.631 205.975 205.975C206.631 205.318 207 204.428 207 203.5V195.5C207 194.572 206.631 193.682 205.975 193.025C205.319 192.369 204.428 192 203.5 192H195.5C194.572 192 193.682 192.369 193.025 193.025C192.369 193.682 192 194.572 192 195.5V203.5C192 204.428 192.369 205.318 193.025 205.975C193.682 206.631 194.572 207 195.5 207H203.5ZM187.5 207C188.428 207 189.319 206.631 189.975 205.975C190.631 205.318 191 204.428 191 203.5V195.5C191 194.572 190.631 193.682 189.975 193.025C189.319 192.369 188.428 192 187.5 192H179.5C178.572 192 177.682 192.369 177.025 193.025C176.369 193.682 176 194.572 176 195.5V203.5C176 204.428 176.369 205.318 177.025 205.975C177.682 206.631 178.572 207 179.5 207H187.5ZM171.5 207C172.428 207 173.319 206.631 173.975 205.975C174.631 205.318 175 204.428 175 203.5V195.5C175 194.572 174.631 193.682 173.975 193.025C173.319 192.369 172.428 192 171.5 192H163.5C162.572 192 161.682 192.369 161.025 193.025C160.369 193.682 160 194.572 160 195.5V203.5C160 204.428 160.369 205.318 161.025 205.975C161.682 206.631 162.572 207 163.5 207H171.5ZM123.5 207C124.428 207 125.318 206.631 125.975 205.975C126.631 205.318 127 204.428 127 203.5V195.5C127 194.572 126.631 193.682 125.975 193.025C125.318 192.369 124.428 192 123.5 192H115.5C114.572 192 113.682 192.369 113.025 193.025C112.369 193.682 112 194.572 112 195.5V203.5C112 204.428 112.369 205.318 113.025 205.975C113.682 206.631 114.572 207 115.5 207H123.5ZM107.5 207C108.428 207 109.318 206.631 109.975 205.975C110.631 205.318 111 204.428 111 203.5V195.5C111 194.572 110.631 193.682 109.975 193.025C109.318 192.369 108.428 192 107.5 192H99.5C98.5717 192 97.6815 192.369 97.0251 193.025C96.3687 193.682 96 194.572 96 195.5V203.5C96 204.428 96.3687 205.318 97.0251 205.975C97.6815 206.631 98.5717 207 99.5 207H107.5ZM219.5 223C220.428 223 221.319 222.631 221.975 221.975C222.631 221.318 223 220.428 223 219.5V211.5C223 210.572 222.631 209.682 221.975 209.025C221.319 208.369 220.428 208 219.5 208H211.5C210.572 208 209.682 208.369 209.025 209.025C208.369 209.682 208 210.572 208 211.5V219.5C208 220.428 208.369 221.318 209.025 221.975C209.682 222.631 210.572 223 211.5 223H219.5ZM203.5 223C204.428 223 205.319 222.631 205.975 221.975C206.631 221.318 207 220.428 207 219.5V211.5C207 210.572 206.631 209.682 205.975 209.025C205.319 208.369 204.428 208 203.5 208H195.5C194.572 208 193.682 208.369 193.025 209.025C192.369 209.682 192 210.572 192 211.5V219.5C192 220.428 192.369 221.318 193.025 221.975C193.682 222.631 194.572 223 195.5 223H203.5ZM187.5 223C188.428 223 189.319 222.631 189.975 221.975C190.631 221.318 191 220.428 191 219.5V211.5C191 210.572 190.631 209.682 189.975 209.025C189.319 208.369 188.428 208 187.5 208H179.5C178.572 208 177.682 208.369 177.025 209.025C176.369 209.682 176 210.572 176 211.5V219.5C176 220.428 176.369 221.318 177.025 221.975C177.682 222.631 178.572 223 179.5 223H187.5ZM171.5 223C172.428 223 173.319 222.631 173.975 221.975C174.631 221.318 175 220.428 175 219.5V211.5C175 210.572 174.631 209.682 173.975 209.025C173.319 208.369 172.428 208 171.5 208H163.5C162.572 208 161.682 208.369 161.025 209.025C160.369 209.682 160 210.572 160 211.5V219.5C160 220.428 160.369 221.318 161.025 221.975C161.682 222.631 162.572 223 163.5 223H171.5ZM123.5 223C124.428 223 125.318 222.631 125.975 221.975C126.631 221.318 127 220.428 127 219.5V211.5C127 210.572 126.631 209.682 125.975 209.025C125.318 208.369 124.428 208 123.5 208H115.5C114.572 208 113.682 208.369 113.025 209.025C112.369 209.682 112 210.572 112 211.5V219.5C112 220.428 112.369 221.318 113.025 221.975C113.682 222.631 114.572 223 115.5 223H123.5ZM107.5 223C108.428 223 109.318 222.631 109.975 221.975C110.631 221.318 111 220.428 111 219.5V211.5C111 210.572 110.631 209.682 109.975 209.025C109.318 208.369 108.428 208 107.5 208H99.5C98.5717 208 97.6815 208.369 97.0251 209.025C96.3687 209.682 96 210.572 96 211.5V219.5C96 220.428 96.3687 221.318 97.0251 221.975C97.6815 222.631 98.5717 223 99.5 223H107.5ZM219.5 239C220.428 239 221.319 238.631 221.975 237.975C222.631 237.318 223 236.428 223 235.5V227.5C223 226.572 222.631 225.682 221.975 225.025C221.319 224.369 220.428 224 219.5 224H211.5C210.572 224 209.682 224.369 209.025 225.025C208.369 225.682 208 226.572 208 227.5V235.5C208 236.428 208.369 237.318 209.025 237.975C209.682 238.631 210.572 239 211.5 239H219.5ZM203.5 239C204.428 239 205.319 238.631 205.975 237.975C206.631 237.318 207 236.428 207 235.5V227.5C207 226.572 206.631 225.682 205.975 225.025C205.319 224.369 204.428 224 203.5 224H195.5C194.572 224 193.682 224.369 193.025 225.025C192.369 225.682 192 226.572 192 227.5V235.5C192 236.428 192.369 237.318 193.025 237.975C193.682 238.631 194.572 239 195.5 239H203.5ZM187.5 239C188.428 239 189.319 238.631 189.975 237.975C190.631 237.318 191 236.428 191 235.5V227.5C191 226.572 190.631 225.682 189.975 225.025C189.319 224.369 188.428 224 187.5 224H179.5C178.572 224 177.682 224.369 177.025 225.025C176.369 225.682 176 226.572 176 227.5V235.5C176 236.428 176.369 237.318 177.025 237.975C177.682 238.631 178.572 239 179.5 239H187.5ZM171.5 239C172.428 239 173.319 238.631 173.975 237.975C174.631 237.318 175 236.428 175 235.5V227.5C175 226.572 174.631 225.682 173.975 225.025C173.319 224.369 172.428 224 171.5 224H163.5C162.572 224 161.682 224.369 161.025 225.025C160.369 225.682 160 226.572 160 227.5V235.5C160 236.428 160.369 237.318 161.025 237.975C161.682 238.631 162.572 239 163.5 239H171.5ZM155.5 239C156.428 239 157.319 238.631 157.975 237.975C158.631 237.318 159 236.428 159 235.5V227.5C159 226.572 158.631 225.682 157.975 225.025C157.319 224.369 156.428 224 155.5 224H147.5C146.572 224 145.682 224.369 145.025 225.025C144.369 225.682 144 226.572 144 227.5V235.5C144 236.428 144.369 237.318 145.025 237.975C145.682 238.631 146.572 239 147.5 239H155.5ZM139.5 239C140.428 239 141.319 238.631 141.975 237.975C142.631 237.318 143 236.428 143 235.5V227.5C143 226.572 142.631 225.682 141.975 225.025C141.319 224.369 140.428 224 139.5 224H131.5C130.572 224 129.682 224.369 129.025 225.025C128.369 225.682 128 226.572 128 227.5V235.5C128 236.428 128.369 237.318 129.025 237.975C129.682 238.631 130.572 239 131.5 239H139.5ZM219.5 255C220.428 255 221.319 254.631 221.975 253.975C222.631 253.318 223 252.428 223 251.5V243.5C223 242.572 222.631 241.682 221.975 241.025C221.319 240.369 220.428 240 219.5 240H211.5C210.572 240 209.682 240.369 209.025 241.025C208.369 241.682 208 242.572 208 243.5V251.5C208 252.428 208.369 253.318 209.025 253.975C209.682 254.631 210.572 255 211.5 255H219.5ZM203.5 255C204.428 255 205.319 254.631 205.975 253.975C206.631 253.318 207 252.428 207 251.5V243.5C207 242.572 206.631 241.682 205.975 241.025C205.319 240.369 204.428 240 203.5 240H195.5C194.572 240 193.682 240.369 193.025 241.025C192.369 241.682 192 242.572 192 243.5V251.5C192 252.428 192.369 253.318 193.025 253.975C193.682 254.631 194.572 255 195.5 255H203.5ZM187.5 255C188.428 255 189.319 254.631 189.975 253.975C190.631 253.318 191 252.428 191 251.5V243.5C191 242.572 190.631 241.682 189.975 241.025C189.319 240.369 188.428 240 187.5 240H179.5C178.572 240 177.682 240.369 177.025 241.025C176.369 241.682 176 242.572 176 243.5V251.5C176 252.428 176.369 253.318 177.025 253.975C177.682 254.631 178.572 255 179.5 255H187.5ZM109.55 143.505C110.351 143.043 111.049 142.366 111.496 141.551C111.949 142.375 112.626 143.052 113.45 143.505C112.657 143.947 111.954 144.666 111.496 145.451C111.026 144.645 110.37 143.947 109.55 143.505ZM93.55 143.505C94.351 143.043 95.049 142.366 95.496 141.551C95.9485 142.375 96.6263 143.053 97.45 143.505C96.657 143.947 95.954 144.666 95.496 145.451C95.026 144.645 94.37 143.947 93.55 143.505ZM77.55 143.505C78.351 143.043 79.049 142.366 79.496 141.551C79.9485 142.375 80.6263 143.053 81.45 143.505C80.657 143.947 79.954 144.666 79.496 145.451C79.026 144.645 78.37 143.947 77.55 143.505ZM125.55 159.505C126.351 159.043 127.049 158.366 127.496 157.551C127.949 158.375 128.626 159.052 129.45 159.505C128.657 159.947 127.954 160.666 127.496 161.451C127.026 160.645 126.37 159.947 125.55 159.505ZM93.55 159.505C94.351 159.043 95.049 158.366 95.496 157.551C95.9485 158.375 96.6263 159.053 97.45 159.505C96.657 159.947 95.954 160.666 95.496 161.451C95.026 160.645 94.37 159.947 93.55 159.505ZM77.55 159.505C78.351 159.043 79.049 158.366 79.496 157.551C79.9485 158.375 80.6263 159.053 81.45 159.505C80.657 159.947 79.954 160.666 79.496 161.451C79.026 160.645 78.37 159.947 77.55 159.505ZM61.55 159.505C62.351 159.043 63.049 158.366 63.496 157.551C63.9485 158.375 64.6263 159.053 65.45 159.505C64.657 159.947 63.954 160.666 63.496 161.451C63.026 160.645 62.37 159.947 61.55 159.505ZM141.55 175.505C142.351 175.043 143.049 174.366 143.496 173.551C143.949 174.375 144.626 175.052 145.45 175.505C144.657 175.947 143.954 176.666 143.496 177.451C143.026 176.645 142.37 175.947 141.55 175.505ZM77.55 175.505C78.351 175.043 79.049 174.366 79.496 173.551C79.9485 174.375 80.6263 175.053 81.45 175.505C80.657 175.947 79.954 176.666 79.496 177.451C79.026 176.645 78.37 175.947 77.55 175.505ZM61.55 175.505C62.351 175.043 63.049 174.366 63.496 173.551C63.9485 174.375 64.6263 175.053 65.45 175.505C64.657 175.947 63.954 176.666 63.496 177.451C63.026 176.645 62.37 175.947 61.55 175.505ZM45.55 175.505C46.351 175.043 47.049 174.366 47.496 173.551C47.9485 174.375 48.6263 175.053 49.45 175.505C48.657 175.947 47.954 176.666 47.496 177.451C47.026 176.645 46.37 175.947 45.55 175.505ZM171.5 255C172.428 255 173.319 254.631 173.975 253.975C174.631 253.318 175 252.428 175 251.5V243.5C175 242.572 174.631 241.682 173.975 241.025C173.319 240.369 172.428 240 171.5 240H163.5C162.572 240 161.682 240.369 161.025 241.025C160.369 241.682 160 242.572 160 243.5V251.5C160 252.428 160.369 253.318 161.025 253.975C161.682 254.631 162.572 255 163.5 255H171.5ZM155.5 255C156.428 255 157.319 254.631 157.975 253.975C158.631 253.318 159 252.428 159 251.5V243.5C159 242.572 158.631 241.682 157.975 241.025C157.319 240.369 156.428 240 155.5 240H147.5C146.572 240 145.682 240.369 145.025 241.025C144.369 241.682 144 242.572 144 243.5V251.5C144 252.428 144.369 253.318 145.025 253.975C145.682 254.631 146.572 255 147.5 255H155.5ZM139.5 255C140.428 255 141.319 254.631 141.975 253.975C142.631 253.318 143 252.428 143 251.5V243.5C143 242.572 142.631 241.682 141.975 241.025C141.319 240.369 140.428 240 139.5 240H131.5C130.572 240 129.682 240.369 129.025 241.025C128.369 241.682 128 242.572 128 243.5V251.5C128 252.428 128.369 253.318 129.025 253.975C129.682 254.631 130.572 255 131.5 255H139.5ZM219.5 271C220.428 271 221.319 270.631 221.975 269.975C222.631 269.319 223 268.428 223 267.5V259.5C223 258.572 222.631 257.681 221.975 257.025C221.319 256.369 220.428 256 219.5 256H211.5C210.572 256 209.682 256.369 209.025 257.025C208.369 257.681 208 258.572 208 259.5V267.5C208 268.428 208.369 269.319 209.025 269.975C209.682 270.631 210.572 271 211.5 271H219.5ZM203.5 271C204.428 271 205.319 270.631 205.975 269.975C206.631 269.319 207 268.428 207 267.5V259.5C207 258.572 206.631 257.681 205.975 257.025C205.319 256.369 204.428 256 203.5 256H195.5C194.572 256 193.682 256.369 193.025 257.025C192.369 257.681 192 258.572 192 259.5V267.5C192 268.428 192.369 269.319 193.025 269.975C193.682 270.631 194.572 271 195.5 271H203.5ZM187.5 271C188.428 271 189.319 270.631 189.975 269.975C190.631 269.319 191 268.428 191 267.5V259.5C191 258.572 190.631 257.681 189.975 257.025C189.319 256.369 188.428 256 187.5 256H179.5C178.572 256 177.682 256.369 177.025 257.025C176.369 257.681 176 258.572 176 259.5V267.5C176 268.428 176.369 269.319 177.025 269.975C177.682 270.631 178.572 271 179.5 271H187.5ZM171.5 271C172.428 271 173.319 270.631 173.975 269.975C174.631 269.319 175 268.428 175 267.5V259.5C175 258.572 174.631 257.681 173.975 257.025C173.319 256.369 172.428 256 171.5 256H163.5C162.572 256 161.682 256.369 161.025 257.025C160.369 257.681 160 258.572 160 259.5V267.5C160 268.428 160.369 269.319 161.025 269.975C161.682 270.631 162.572 271 163.5 271H171.5ZM123.5 271C124.428 271 125.318 270.631 125.975 269.975C126.631 269.319 127 268.428 127 267.5V259.5C127 258.572 126.631 257.681 125.975 257.025C125.318 256.369 124.428 256 123.5 256H115.5C114.572 256 113.682 256.369 113.025 257.025C112.369 257.681 112 258.572 112 259.5V267.5C112 268.428 112.369 269.319 113.025 269.975C113.682 270.631 114.572 271 115.5 271H123.5ZM107.5 271C108.428 271 109.318 270.631 109.975 269.975C110.631 269.319 111 268.428 111 267.5V259.5C111 258.572 110.631 257.681 109.975 257.025C109.318 256.369 108.428 256 107.5 256H99.5C98.5717 256 97.6815 256.369 97.0251 257.025C96.3687 257.681 96 258.572 96 259.5V267.5C96 268.428 96.3687 269.319 97.0251 269.975C97.6815 270.631 98.5717 271 99.5 271H107.5ZM219.5 287C220.428 287 221.319 286.631 221.975 285.975C222.631 285.319 223 284.428 223 283.5V275.5C223 274.572 222.631 273.681 221.975 273.025C221.319 272.369 220.428 272 219.5 272H211.5C210.572 272 209.682 272.369 209.025 273.025C208.369 273.681 208 274.572 208 275.5V283.5C208 284.428 208.369 285.319 209.025 285.975C209.682 286.631 210.572 287 211.5 287H219.5ZM203.5 287C204.428 287 205.319 286.631 205.975 285.975C206.631 285.319 207 284.428 207 283.5V275.5C207 274.572 206.631 273.681 205.975 273.025C205.319 272.369 204.428 272 203.5 272H195.5C194.572 272 193.682 272.369 193.025 273.025C192.369 273.681 192 274.572 192 275.5V283.5C192 284.428 192.369 285.319 193.025 285.975C193.682 286.631 194.572 287 195.5 287H203.5ZM187.5 287C188.428 287 189.319 286.631 189.975 285.975C190.631 285.319 191 284.428 191 283.5V275.5C191 274.572 190.631 273.681 189.975 273.025C189.319 272.369 188.428 272 187.5 272H179.5C178.572 272 177.682 272.369 177.025 273.025C176.369 273.681 176 274.572 176 275.5V283.5C176 284.428 176.369 285.319 177.025 285.975C177.682 286.631 178.572 287 179.5 287H187.5ZM171.5 287C172.428 287 173.319 286.631 173.975 285.975C174.631 285.319 175 284.428 175 283.5V275.5C175 274.572 174.631 273.681 173.975 273.025C173.319 272.369 172.428 272 171.5 272H163.5C162.572 272 161.682 272.369 161.025 273.025C160.369 273.681 160 274.572 160 275.5V283.5C160 284.428 160.369 285.319 161.025 285.975C161.682 286.631 162.572 287 163.5 287H171.5ZM123.5 287C124.428 287 125.318 286.631 125.975 285.975C126.631 285.319 127 284.428 127 283.5V275.5C127 274.572 126.631 273.681 125.975 273.025C125.318 272.369 124.428 272 123.5 272H115.5C114.572 272 113.682 272.369 113.025 273.025C112.369 273.681 112 274.572 112 275.5V283.5C112 284.428 112.369 285.319 113.025 285.975C113.682 286.631 114.572 287 115.5 287H123.5ZM107.5 287C108.428 287 109.318 286.631 109.975 285.975C110.631 285.319 111 284.428 111 283.5V275.5C111 274.572 110.631 273.681 109.975 273.025C109.318 272.369 108.428 272 107.5 272H99.5C98.5717 272 97.6815 272.369 97.0251 273.025C96.3687 273.681 96 274.572 96 275.5V283.5C96 284.428 96.3687 285.319 97.0251 285.975C97.6815 286.631 98.5717 287 99.5 287H107.5ZM187.5 303C188.428 303 189.319 302.631 189.975 301.975C190.631 301.319 191 300.428 191 299.5V291.5C191 290.572 190.631 289.681 189.975 289.025C189.319 288.369 188.428 288 187.5 288H179.5C178.572 288 177.682 288.369 177.025 289.025C176.369 289.681 176 290.572 176 291.5V299.5C176 300.428 176.369 301.319 177.025 301.975C177.682 302.631 178.572 303 179.5 303H187.5ZM171.5 303C172.428 303 173.319 302.631 173.975 301.975C174.631 301.319 175 300.428 175 299.5V291.5C175 290.572 174.631 289.681 173.975 289.025C173.319 288.369 172.428 288 171.5 288H163.5C162.572 288 161.682 288.369 161.025 289.025C160.369 289.681 160 290.572 160 291.5V299.5C160 300.428 160.369 301.319 161.025 301.975C161.682 302.631 162.572 303 163.5 303H171.5ZM187.5 319C188.428 319 189.319 318.631 189.975 317.975C190.631 317.319 191 316.428 191 315.5V307.5C191 306.572 190.631 305.681 189.975 305.025C189.319 304.369 188.428 304 187.5 304H179.5C178.572 304 177.682 304.369 177.025 305.025C176.369 305.681 176 306.572 176 307.5V315.5C176 316.428 176.369 317.319 177.025 317.975C177.682 318.631 178.572 319 179.5 319H187.5ZM171.5 319C172.428 319 173.319 318.631 173.975 317.975C174.631 317.319 175 316.428 175 315.5V307.5C175 306.572 174.631 305.681 173.975 305.025C173.319 304.369 172.428 304 171.5 304H163.5C162.572 304 161.682 304.369 161.025 305.025C160.369 305.681 160 306.572 160 307.5V315.5C160 316.428 160.369 317.319 161.025 317.975C161.682 318.631 162.572 319 163.5 319H171.5ZM205.55 143.505C206.351 143.043 207.049 142.366 207.496 141.551C207.949 142.375 208.626 143.052 209.45 143.505C208.657 143.947 207.954 144.666 207.496 145.451C207.026 144.645 206.37 143.947 205.55 143.505ZM221.55 143.505C222.351 143.043 223.049 142.366 223.496 141.551C223.949 142.375 224.626 143.052 225.45 143.505C224.657 143.947 223.954 144.666 223.496 145.451C223.026 144.645 222.37 143.947 221.55 143.505ZM175.505 49.45C175.043 48.65 174.366 47.952 173.551 47.504C174.375 47.0517 175.052 46.3743 175.505 45.551C175.948 46.343 176.666 47.047 177.451 47.504C176.646 47.974 175.948 48.63 175.505 49.45ZM175.505 65.45C175.043 64.65 174.366 63.952 173.551 63.504C174.375 63.0517 175.052 62.3743 175.505 61.551C175.948 62.343 176.666 63.047 177.451 63.504C176.646 63.974 175.948 64.63 175.505 65.45ZM175.505 81.45C175.043 80.65 174.366 79.952 173.551 79.504C174.375 79.0517 175.052 78.3743 175.505 77.551C175.948 78.343 176.666 79.047 177.451 79.504C176.646 79.974 175.948 80.63 175.505 81.45ZM191.505 33.45C191.043 32.65 190.366 31.952 189.551 31.504C190.375 31.0517 191.052 30.3743 191.505 29.551C191.948 30.343 192.666 31.047 193.451 31.504C192.646 31.974 191.948 32.63 191.505 33.45ZM191.505 65.45C191.043 64.65 190.366 63.952 189.551 63.504C190.375 63.0517 191.052 62.3743 191.505 61.551C191.948 62.343 192.666 63.047 193.451 63.504C192.646 63.974 191.948 64.63 191.505 65.45ZM191.505 81.45C191.043 80.65 190.366 79.952 189.551 79.504C190.375 79.0517 191.052 78.3743 191.505 77.551C191.948 78.343 192.666 79.047 193.451 79.504C192.646 79.974 191.948 80.63 191.505 81.45ZM191.505 97.45C191.043 96.65 190.366 95.952 189.551 95.504C190.375 95.0517 191.052 94.3743 191.505 93.551C191.948 94.343 192.666 95.047 193.451 95.504C192.646 95.974 191.948 96.63 191.505 97.45ZM207.505 129.451C207.043 128.649 206.366 127.952 205.551 127.504C206.375 127.052 207.052 126.374 207.505 125.551C207.948 126.343 208.666 127.047 209.451 127.504C208.646 127.974 207.948 128.631 207.505 129.451ZM223.505 129.451C223.043 128.649 222.366 127.952 221.551 127.504C222.375 127.052 223.052 126.374 223.505 125.551C223.948 126.343 224.666 127.047 225.451 127.504C224.646 127.974 223.948 128.631 223.505 129.451ZM191.501 129.451C191.039 128.649 190.362 127.952 189.547 127.504C190.371 127.052 191.048 126.374 191.501 125.551C191.944 126.343 192.662 127.047 193.447 127.504C192.642 127.974 191.944 128.631 191.501 129.451ZM207.505 17.45C207.043 16.65 206.366 15.952 205.551 15.504C206.375 15.0517 207.052 14.3743 207.505 13.551C207.948 14.343 208.666 15.047 209.451 15.504C208.646 15.974 207.948 16.63 207.505 17.45ZM223.505 17.45C223.043 16.65 222.366 15.952 221.551 15.504C222.375 15.0517 223.052 14.3743 223.505 13.551C223.948 14.343 224.666 15.047 225.451 15.504C224.646 15.974 223.948 16.63 223.505 17.45ZM207.505 81.45C207.043 80.65 206.366 79.952 205.551 79.504C206.375 79.0517 207.052 78.3743 207.505 77.551C207.948 78.343 208.666 79.047 209.451 79.504C208.646 79.974 207.948 80.63 207.505 81.45ZM223.505 81.45C223.043 80.65 222.366 79.952 221.551 79.504C222.375 79.0517 223.052 78.3743 223.505 77.551C223.948 78.343 224.666 79.047 225.451 79.504C224.646 79.974 223.948 80.63 223.505 81.45ZM207.505 97.45C207.043 96.65 206.366 95.952 205.551 95.504C206.375 95.0517 207.052 94.3743 207.505 93.551C207.948 94.343 208.666 95.047 209.451 95.504C208.646 95.974 207.948 96.63 207.505 97.45ZM223.505 97.45C223.043 96.65 222.366 95.952 221.551 95.504C222.375 95.0517 223.052 94.3743 223.505 93.551C223.948 94.343 224.666 95.047 225.451 95.504C224.646 95.974 223.948 96.63 223.505 97.45ZM207.505 113.451C207.043 112.649 206.366 111.952 205.551 111.504C206.375 111.052 207.052 110.374 207.505 109.551C207.948 110.343 208.666 111.047 209.451 111.504C208.646 111.974 207.948 112.631 207.505 113.451ZM223.505 113.451C223.043 112.649 222.366 111.952 221.551 111.504C222.375 111.052 223.052 110.374 223.505 109.551C223.948 110.343 224.666 111.047 225.451 111.504C224.646 111.974 223.948 112.631 223.505 113.451ZM175.505 129.451C175.043 128.649 174.366 127.952 173.551 127.504C174.375 127.052 175.052 126.374 175.505 125.551C175.948 126.343 176.666 127.047 177.451 127.504C176.646 127.974 175.948 128.631 175.505 129.451ZM157.55 191.505C158.351 191.043 159.049 190.366 159.496 189.551C159.949 190.375 160.626 191.052 161.45 191.505C160.657 191.947 159.954 192.666 159.496 193.451C159.026 192.645 158.37 191.947 157.55 191.505ZM125.55 191.505C126.351 191.043 127.049 190.366 127.496 189.551C127.949 190.375 128.626 191.052 129.45 191.505C128.657 191.947 127.954 192.666 127.496 193.451C127.026 192.645 126.37 191.947 125.55 191.505ZM93.55 191.505C94.351 191.043 95.049 190.366 95.496 189.551C95.9485 190.375 96.6263 191.053 97.45 191.505C96.657 191.947 95.954 192.666 95.496 193.451C95.026 192.645 94.37 191.947 93.55 191.505ZM205.55 207.505C206.351 207.043 207.049 206.366 207.496 205.551C207.949 206.375 208.626 207.052 209.45 207.505C208.657 207.947 207.954 208.666 207.496 209.451C207.026 208.645 206.37 207.947 205.55 207.505ZM221.55 207.505C222.351 207.043 223.049 206.366 223.496 205.551C223.949 206.375 224.626 207.052 225.45 207.505C224.657 207.947 223.954 208.666 223.496 209.451C223.026 208.645 222.37 207.947 221.55 207.505ZM189.55 207.505C190.351 207.043 191.049 206.366 191.496 205.551C191.949 206.375 192.626 207.052 193.45 207.505C192.657 207.947 191.954 208.666 191.496 209.451C191.026 208.645 190.37 207.947 189.55 207.505ZM173.55 207.505C174.351 207.043 175.049 206.366 175.496 205.551C175.949 206.375 176.626 207.052 177.45 207.505C176.657 207.947 175.954 208.666 175.496 209.451C175.026 208.645 174.37 207.947 173.55 207.505ZM109.55 207.505C110.351 207.043 111.049 206.366 111.496 205.551C111.949 206.375 112.626 207.052 113.45 207.505C112.657 207.947 111.954 208.666 111.496 209.451C111.026 208.645 110.37 207.947 109.55 207.505ZM205.55 223.505C206.351 223.043 207.049 222.366 207.496 221.551C207.949 222.375 208.626 223.052 209.45 223.505C208.657 223.947 207.954 224.666 207.496 225.451C207.026 224.645 206.37 223.947 205.55 223.505ZM221.55 223.505C222.351 223.043 223.049 222.366 223.496 221.551C223.949 222.375 224.626 223.052 225.45 223.505C224.657 223.947 223.954 224.666 223.496 225.451C223.026 224.645 222.37 223.947 221.55 223.505ZM189.55 223.505C190.351 223.043 191.049 222.366 191.496 221.551C191.949 222.375 192.626 223.052 193.45 223.505C192.657 223.947 191.954 224.666 191.496 225.451C191.026 224.645 190.37 223.947 189.55 223.505ZM173.55 223.505C174.351 223.043 175.049 222.366 175.496 221.551C175.949 222.375 176.626 223.052 177.45 223.505C176.657 223.947 175.954 224.666 175.496 225.451C175.026 224.645 174.37 223.947 173.55 223.505ZM157.55 223.505C158.351 223.043 159.049 222.366 159.496 221.551C159.949 222.375 160.626 223.052 161.45 223.505C160.657 223.947 159.954 224.666 159.496 225.451C159.026 224.645 158.37 223.947 157.55 223.505ZM125.55 223.505C126.351 223.043 127.049 222.366 127.496 221.551C127.949 222.375 128.626 223.052 129.45 223.505C128.657 223.947 127.954 224.666 127.496 225.451C127.026 224.645 126.37 223.947 125.55 223.505ZM205.55 239.505C206.351 239.043 207.049 238.366 207.496 237.551C207.949 238.375 208.626 239.052 209.45 239.505C208.657 239.947 207.954 240.666 207.496 241.451C207.026 240.645 206.37 239.947 205.55 239.505ZM221.55 239.505C222.351 239.043 223.049 238.366 223.496 237.551C223.949 238.375 224.626 239.052 225.45 239.505C224.657 239.947 223.954 240.666 223.496 241.451C223.026 240.645 222.37 239.947 221.55 239.505ZM189.55 239.505C190.351 239.043 191.049 238.366 191.496 237.551C191.949 238.375 192.626 239.052 193.45 239.505C192.657 239.947 191.954 240.666 191.496 241.451C191.026 240.645 190.37 239.947 189.55 239.505ZM173.55 239.505C174.351 239.043 175.049 238.366 175.496 237.551C175.949 238.375 176.626 239.052 177.45 239.505C176.657 239.947 175.954 240.666 175.496 241.451C175.026 240.645 174.37 239.947 173.55 239.505ZM157.55 239.505C158.351 239.043 159.049 238.366 159.496 237.551C159.949 238.375 160.626 239.052 161.45 239.505C160.657 239.947 159.954 240.666 159.496 241.451C159.026 240.645 158.37 239.947 157.55 239.505ZM141.55 239.505C142.351 239.043 143.049 238.366 143.496 237.551C143.949 238.375 144.626 239.052 145.45 239.505C144.657 239.947 143.954 240.666 143.496 241.451C143.026 240.645 142.37 239.947 141.55 239.505ZM205.55 255.505C206.351 255.043 207.049 254.366 207.496 253.551C207.949 254.375 208.626 255.052 209.45 255.505C208.657 255.947 207.954 256.666 207.496 257.451C207.026 256.645 206.37 255.947 205.55 255.505ZM221.55 255.505C222.351 255.043 223.049 254.366 223.496 253.551C223.949 254.375 224.626 255.052 225.45 255.505C224.657 255.947 223.954 256.666 223.496 257.451C223.026 256.645 222.37 255.947 221.55 255.505ZM189.55 255.505C190.351 255.043 191.049 254.366 191.496 253.551C191.949 254.375 192.626 255.052 193.45 255.505C192.657 255.947 191.954 256.666 191.496 257.451C191.026 256.645 190.37 255.947 189.55 255.505ZM173.55 255.505C174.351 255.043 175.049 254.366 175.496 253.551C175.949 254.375 176.626 255.052 177.45 255.505C176.657 255.947 175.954 256.666 175.496 257.451C175.026 256.645 174.37 255.947 173.55 255.505ZM157.55 255.505C158.351 255.043 159.049 254.366 159.496 253.551C159.949 254.375 160.626 255.052 161.45 255.505C160.657 255.947 159.954 256.666 159.496 257.451C159.026 256.645 158.37 255.947 157.55 255.505ZM125.55 255.505C126.351 255.043 127.049 254.366 127.496 253.551C127.949 254.375 128.626 255.052 129.45 255.505C128.657 255.947 127.954 256.666 127.496 257.451C127.026 256.645 126.37 255.947 125.55 255.505ZM205.55 271.505C206.351 271.043 207.049 270.366 207.496 269.551C207.949 270.375 208.626 271.052 209.45 271.505C208.657 271.947 207.954 272.666 207.496 273.451C207.026 272.645 206.37 271.947 205.55 271.505ZM221.55 271.505C222.351 271.043 223.049 270.366 223.496 269.551C223.949 270.375 224.626 271.052 225.45 271.505C224.657 271.947 223.954 272.666 223.496 273.451C223.026 272.645 222.37 271.947 221.55 271.505ZM189.55 271.505C190.351 271.043 191.049 270.366 191.496 269.551C191.949 270.375 192.626 271.052 193.45 271.505C192.657 271.947 191.954 272.666 191.496 273.451C191.026 272.645 190.37 271.947 189.55 271.505ZM173.55 271.505C174.351 271.043 175.049 270.366 175.496 269.551C175.949 270.375 176.626 271.052 177.45 271.505C176.657 271.947 175.954 272.666 175.496 273.451C175.026 272.645 174.37 271.947 173.55 271.505ZM109.55 271.505C110.351 271.043 111.049 270.366 111.496 269.551C111.949 270.375 112.626 271.052 113.45 271.505C112.657 271.947 111.954 272.666 111.496 273.451C111.026 272.645 110.37 271.947 109.55 271.505ZM189.55 287.505C190.351 287.043 191.049 286.366 191.496 285.551C191.949 286.375 192.626 287.052 193.45 287.505C192.657 287.947 191.954 288.666 191.496 289.451C191.026 288.645 190.37 287.947 189.55 287.505ZM173.55 287.505C174.351 287.043 175.049 286.366 175.496 285.551C175.949 286.375 176.626 287.052 177.45 287.505C176.657 287.947 175.954 288.666 175.496 289.451C175.026 288.645 174.37 287.947 173.55 287.505ZM173.55 303.505C174.351 303.043 175.049 302.366 175.496 301.551C175.949 302.375 176.626 303.052 177.45 303.505C176.657 303.947 175.954 304.666 175.496 305.451C175.026 304.645 174.37 303.947 173.55 303.505Z" fill="#FAEAD1"/>
</svg>
