<svg width="48" height="48" viewBox="0 0 48 48" fill="none" xmlns="http://www.w3.org/2000/svg">
<g clip-path="url(#clip0_3924_15394)">
<path d="M34.2771 22.4913H35.5811L35.4116 24.085H34.1121L34.2771 22.4913ZM45.2862 13.5508V33.5161C45.2419 34.7769 44.601 35.9041 43.4751 36.653L26.1846 46.6355C25.1886 47.2107 23.5585 47.2107 22.5625 46.6355L5.272 36.653C4.22261 35.965 3.53843 34.8556 3.46094 33.5161V13.5508C3.46094 12.4006 4.27584 10.989 5.272 10.4139L22.5625 0.431369C23.5585 -0.14379 25.1886 -0.14379 26.1846 0.431369L43.4751 10.4139C44.521 11.12 45.2457 12.3406 45.2862 13.5508ZM36.4474 30.5082L30.4137 27.0169C26.3889 33.4597 17.5002 30.3112 17.4027 23.5335C17.7273 16.1795 26.771 14.0254 30.4133 20.0497L36.447 16.5583C28.5837 3.90891 10.3499 9.92008 10.4318 23.5335C10.7813 38.21 29.5176 42.5381 36.4474 30.5082ZM37.8878 21.3816H36.8534L37.0398 19.5806H35.8907L35.6991 21.3816H34.392L34.5784 19.5806H33.4293L33.2377 21.3816H32.1423V22.4913H33.1197L32.9502 24.085H31.8206V25.1947H32.8321L32.6226 27.1646H33.7933L33.9972 25.1947H35.2935L35.084 27.1646H36.2547L36.4586 25.1947H37.5661V24.085H36.5735L36.7385 22.4913H37.8878V21.3816Z" fill="#0277BD"/>
</g>
<defs>
<clipPath id="clip0_3924_15394">
<rect width="47.0669" height="47.0669" fill="white" transform="translate(0.841797)"/>
</clipPath>
</defs>
</svg>
