<svg width="56" height="40" viewBox="0 0 56 40" fill="none" xmlns="http://www.w3.org/2000/svg">
<rect width="56" height="40" rx="4" fill="white"/>
<path d="M21.0264 13.6934C25.957 13.1929 30.9601 13.3433 35.9961 13.7988L37.0039 13.8936C37.0227 13.8954 37.0408 13.9046 37.0557 13.9229C37.0707 13.9413 37.0773 13.9632 37.0752 13.9854L37.0742 13.999C37.0729 14.0158 37.0656 14.0304 37.0518 14.043C37.0368 14.0564 37.0179 14.0634 36.999 14.0635H36.9443C31.9747 13.5672 26.9941 13.3591 22.0439 13.7754L21.0518 13.8672L19.0156 14.0664L18.9736 14.0635C18.9617 14.0598 18.9518 14.0536 18.9434 14.0469C18.9269 14.0335 18.9147 14.0144 18.9121 13.9873C18.9091 13.9561 18.9182 13.9348 18.9297 13.9209C18.9415 13.9066 18.9589 13.8959 18.9834 13.8936L21.0234 13.6943L21.0264 13.6934Z" fill="#B33636" stroke="#B33636" stroke-width="1.33333"/>
<path d="M26.6904 9.91699H29.3105C30.342 9.91699 30.7614 10.214 30.9658 10.4707C31.207 10.7739 31.2833 11.1724 31.3623 11.6572L31.3633 11.6611L31.583 12.9609L31.584 12.9619C31.5877 12.9836 31.5826 13.0057 31.5693 13.0244C31.5559 13.0432 31.5413 13.0493 31.5322 13.0508L31.5186 13.0527C31.4968 13.0565 31.4749 13.0515 31.4561 13.0381C31.4371 13.0245 31.431 13.01 31.4297 13.001L31.4277 12.9883L31.208 11.6885C31.1755 11.4862 31.1413 11.2709 31.0898 11.0889C31.0357 10.8973 30.9426 10.6651 30.7422 10.4727C30.5382 10.2769 30.2937 10.1891 30.0664 10.1455C29.8471 10.1035 29.593 10.0938 29.3203 10.0938H26.7012C26.4323 10.0938 26.1818 10.1017 25.9668 10.1396C25.7444 10.1789 25.497 10.2596 25.2891 10.4541C25.0843 10.6458 24.9909 10.8802 24.9365 11.0703C24.8848 11.2512 24.8492 11.4678 24.8145 11.6738L24.584 12.9736L24.583 12.9834C24.5766 13.023 24.5416 13.0536 24.501 13.0537H24.4883C24.4925 13.0542 24.4968 13.0548 24.501 13.0557L24.4854 13.0537L24.459 13.043C24.4497 13.0371 24.4407 13.028 24.4326 13.0166C24.417 12.9946 24.415 12.9761 24.417 12.9648L24.418 12.96L24.6387 11.6504V11.6494C24.7232 11.1424 24.8014 10.7489 25.04 10.4541C25.2416 10.2052 25.6573 9.91705 26.6904 9.91699Z" fill="#B33636" stroke="#B33636" stroke-width="1.33333"/>
<path d="M34.8564 17.0566C34.8803 17.0602 34.9004 17.0706 34.9141 17.0859C34.9275 17.1013 34.9341 17.1189 34.9326 17.1416V17.1465L34.2822 27.2129C34.2245 28.0318 34.1592 28.7031 33.8027 29.2012C33.4902 29.6378 32.8335 30.083 31.207 30.083H24.7871C23.1609 30.0829 22.5049 29.6378 22.1924 29.2012C21.925 28.8276 21.8211 28.3566 21.7617 27.7988L21.7129 27.2129L21.0625 17.1465V17.1406L21.0654 17.1162C21.0685 17.1071 21.0741 17.097 21.083 17.0869C21.0988 17.069 21.1187 17.0601 21.1377 17.0566C21.1674 17.0571 21.1892 17.066 21.2041 17.0791C21.2122 17.0863 21.2188 17.0948 21.2236 17.1045L21.2324 17.1387L21.8818 27.2021L21.8828 27.208C21.9093 27.5745 21.934 27.9401 21.9951 28.2549C22.0576 28.5767 22.1704 28.9179 22.4189 29.208C22.9217 29.7946 23.7555 29.916 24.7871 29.916H31.207C32.2424 29.916 33.0808 29.7951 33.584 29.208C33.8332 28.917 33.9447 28.5745 34.0059 28.252C34.0657 27.9364 34.0882 27.57 34.1123 27.2031V27.2021L34.7627 17.1387C34.7641 17.1192 34.7727 17.0987 34.793 17.0811C34.8114 17.0651 34.8337 17.0575 34.8564 17.0566Z" fill="#B33636" stroke="#B33636" stroke-width="1.33333"/>
<path d="M29.6581 25.25H26.3281C25.9181 25.25 25.5781 24.91 25.5781 24.5C25.5781 24.09 25.9181 23.75 26.3281 23.75H29.6581C30.0681 23.75 30.4081 24.09 30.4081 24.5C30.4081 24.91 30.0681 25.25 29.6581 25.25Z" fill="#B33636"/>
<path d="M30.5 21.25H25.5C25.09 21.25 24.75 20.91 24.75 20.5C24.75 20.09 25.09 19.75 25.5 19.75H30.5C30.91 19.75 31.25 20.09 31.25 20.5C31.25 20.91 30.91 21.25 30.5 21.25Z" fill="#B33636"/>
</svg>
