<svg width="69" height="68" viewBox="0 0 69 68" fill="none" xmlns="http://www.w3.org/2000/svg">
<g filter="url(#filter0_d_3872_97188)">
<g clip-path="url(#clip0_3872_97188)">
<rect x="4.5" y="4" width="60" height="60" rx="30" fill="url(#paint0_radial_3872_97188)"/>
<path d="M45.7967 22H42.9842C42.5959 22 42.281 22.3148 42.281 22.7031V23.4063H36.4882C36.198 22.5879 35.4164 22 34.4998 22C33.5831 22 32.8016 22.5879 32.5113 23.4063H26.7185V22.7031C26.7185 22.3148 26.4037 22 26.0153 22H23.2028C22.8145 22 22.4997 22.3148 22.4997 22.7031V25.5156C22.4997 25.904 22.8145 26.2188 23.2028 26.2188H26.0153C26.4037 26.2188 26.7185 25.904 26.7185 25.5156V24.8031H29.6424C27.1057 26.4097 25.5637 29.1239 25.3782 32.0051C24.5499 32.29 23.9528 33.0763 23.9528 34.0001C23.9528 35.1632 24.8991 36.1094 26.0622 36.1094C27.2253 36.1094 28.1716 35.1632 28.1716 34.0001C28.1716 33.0916 27.5943 32.3155 26.7874 32.0191C27.037 28.7075 29.4217 25.8553 32.6105 25.046C32.9562 25.7404 33.6729 26.2188 34.4998 26.2188C35.3266 26.2188 36.0434 25.7404 36.389 25.0461C39.5779 25.8553 41.9625 28.7076 42.2121 32.0192C41.4052 32.3155 40.8279 33.0916 40.8279 34.0001C40.8279 35.1632 41.7742 36.1094 42.9373 36.1094C44.1004 36.1094 45.0467 35.1632 45.0467 34.0001C45.0467 33.0763 44.4496 32.29 43.6213 32.0051C43.4354 29.1181 41.8888 26.416 39.3571 24.8125H42.281V25.5156C42.281 25.904 42.5959 26.2188 42.9842 26.2188H45.7967C46.185 26.2188 46.4998 25.904 46.4998 25.5156V22.7031C46.4998 22.3148 46.185 22 45.7967 22ZM25.3122 24.8125H23.906V23.4063H25.3122V24.8125ZM26.0622 34.7032C25.6745 34.7032 25.3591 34.3878 25.3591 34.0001C25.3591 33.6124 25.6745 33.2969 26.0622 33.2969C26.4499 33.2969 26.7653 33.6124 26.7653 34.0001C26.7653 34.3878 26.4499 34.7032 26.0622 34.7032ZM34.4998 24.8125C34.112 24.8125 33.7966 24.4971 33.7966 24.1094C33.7966 23.7217 34.112 23.4063 34.4998 23.4063C34.8875 23.4063 35.2029 23.7217 35.2029 24.1094C35.2029 24.4971 34.8875 24.8125 34.4998 24.8125ZM42.9373 33.2969C43.325 33.2969 43.6404 33.6124 43.6404 34.0001C43.6404 34.3878 43.325 34.7032 42.9373 34.7032C42.5496 34.7032 42.2342 34.3878 42.2342 34.0001C42.2342 33.6124 42.5496 33.2969 42.9373 33.2969ZM45.0936 24.8125H43.6873V23.4063H45.0936V24.8125Z" fill="#2A313D"/>
<path d="M40.7098 36.422L35.0848 27.9845L35.0841 27.9836C35.0821 27.9806 35.0799 27.9778 35.0779 27.9748C35.0682 27.9609 35.0581 27.9473 35.0474 27.9341C34.7511 27.566 34.187 27.5908 33.9216 27.9748C33.9196 27.9778 33.9174 27.9806 33.9154 27.9836L33.9148 27.9845L28.2897 36.4221C28.1996 36.5573 28.159 36.7196 28.175 36.8814C28.1911 37.0431 28.2626 37.1943 28.3776 37.3093C29.7804 38.7121 30.6733 40.5459 30.9165 42.5078C30.8062 42.5966 30.7012 42.6917 30.602 42.7928C29.9416 43.4684 29.5779 44.3576 29.5779 45.2965C29.5779 45.6848 29.8927 45.9996 30.281 45.9996H38.7185C39.1068 45.9996 39.4217 45.6848 39.4217 45.2965C39.4217 44.3576 39.058 43.4684 38.3976 42.7928C38.2984 42.6917 38.1933 42.5965 38.083 42.5077C38.3262 40.5457 39.2191 38.712 40.6219 37.3093C40.7368 37.1943 40.8084 37.0431 40.8245 36.8814C40.8405 36.7196 40.8 36.5573 40.7098 36.422ZM34.4998 36.1089C34.8875 36.1089 35.2029 36.4244 35.2029 36.8121C35.2029 37.1998 34.8875 37.5152 34.4998 37.5152C34.1121 37.5152 33.7966 37.1998 33.7966 36.8121C33.7966 36.4244 34.1121 36.1089 34.4998 36.1089ZM31.104 44.5933C31.3966 43.7574 32.1896 43.1402 33.0935 43.1402H35.906C36.8099 43.1402 37.6029 43.7574 37.8955 44.5933H31.104ZM36.7613 41.841C36.4818 41.7697 36.1944 41.7338 35.906 41.734H33.0935C32.8015 41.734 32.5148 41.7704 32.2383 41.841C31.9092 39.9459 31.0546 38.1744 29.7703 36.7364L33.7966 30.6968V34.8237C32.9782 35.1139 32.3904 35.8955 32.3904 36.8121C32.3904 37.9752 33.3366 38.9215 34.4998 38.9215C35.6629 38.9215 36.6091 37.9752 36.6091 36.8121C36.6091 35.8955 36.0213 35.1139 35.2029 34.8237V30.6968L39.2293 36.7364C37.9449 38.1743 37.0903 39.9458 36.7613 41.841Z" fill="#2A313D"/>
<rect x="5" y="4.5" width="59" height="59" rx="29.5" stroke="#F3F3F1"/>
</g>
</g>
<defs>
<filter id="filter0_d_3872_97188" x="0.5" y="0" width="68" height="68" filterUnits="userSpaceOnUse" color-interpolation-filters="sRGB">
<feFlood flood-opacity="0" result="BackgroundImageFix"/>
<feColorMatrix in="SourceAlpha" type="matrix" values="0 0 0 0 0 0 0 0 0 0 0 0 0 0 0 0 0 0 127 0" result="hardAlpha"/>
<feMorphology radius="1" operator="dilate" in="SourceAlpha" result="effect1_dropShadow_3872_97188"/>
<feOffset/>
<feGaussianBlur stdDeviation="1.5"/>
<feComposite in2="hardAlpha" operator="out"/>
<feColorMatrix type="matrix" values="0 0 0 0 0.952941 0 0 0 0 0.952941 0 0 0 0 0.945098 0 0 0 1 0"/>
<feBlend mode="normal" in2="BackgroundImageFix" result="effect1_dropShadow_3872_97188"/>
<feBlend mode="normal" in="SourceGraphic" in2="effect1_dropShadow_3872_97188" result="shape"/>
</filter>
<radialGradient id="paint0_radial_3872_97188" cx="0" cy="0" r="1" gradientUnits="userSpaceOnUse" gradientTransform="translate(34.5 34) scale(39.6 20.4)">
<stop stop-color="#F0ECE7"/>
<stop offset="1" stop-color="white"/>
</radialGradient>
<clipPath id="clip0_3872_97188">
<rect x="4.5" y="4" width="60" height="60" rx="30" fill="white"/>
</clipPath>
</defs>
</svg>
