<svg width="31" height="41" viewBox="0 0 31 41" fill="none" xmlns="http://www.w3.org/2000/svg">
<path d="M29.9998 8.18961V36.2324C29.9998 38.4416 28.209 40.2324 25.9998 40.2324H4C1.79086 40.2324 0 38.4416 0 36.2324V4.23242C0 2.02328 1.79086 0.232422 4 0.232422H21.3367L29.9998 8.18961Z" fill="url(#paint0_linear_5718_6819)"/>
<g filter="url(#filter0_d_5718_6819)">
<path d="M29.9998 8.18961H22.3367C21.7844 8.18961 21.3367 7.7419 21.3367 7.18961V0.232422L29.9998 8.18961Z" fill="#E0EAFF"/>
</g>
<path d="M4.47334 23.9144C5.13934 23.9144 5.72134 24.0464 6.21934 24.3104C6.71734 24.5744 7.10134 24.9464 7.37134 25.4264C7.64734 25.9004 7.78534 26.4494 7.78534 27.0734C7.78534 27.6914 7.64734 28.2404 7.37134 28.7204C7.10134 29.2004 6.71434 29.5724 6.21034 29.8364C5.71234 30.1004 5.13334 30.2324 4.47334 30.2324H2.10634V23.9144H4.47334ZM4.37434 28.9004C4.95634 28.9004 5.40934 28.7414 5.73334 28.4234C6.05734 28.1054 6.21934 27.6554 6.21934 27.0734C6.21934 26.4914 6.05734 26.0384 5.73334 25.7144C5.40934 25.3904 4.95634 25.2284 4.37434 25.2284H3.64534V28.9004H4.37434ZM11.6334 30.2954C11.0394 30.2954 10.4934 30.1574 9.9954 29.8814C9.5034 29.6054 9.1104 29.2214 8.8164 28.7294C8.5284 28.2314 8.3844 27.6734 8.3844 27.0554C8.3844 26.4374 8.5284 25.8824 8.8164 25.3904C9.1104 24.8984 9.5034 24.5144 9.9954 24.2384C10.4934 23.9624 11.0394 23.8244 11.6334 23.8244C12.2274 23.8244 12.7704 23.9624 13.2624 24.2384C13.7604 24.5144 14.1504 24.8984 14.4324 25.3904C14.7204 25.8824 14.8644 26.4374 14.8644 27.0554C14.8644 27.6734 14.7204 28.2314 14.4324 28.7294C14.1444 29.2214 13.7544 29.6054 13.2624 29.8814C12.7704 30.1574 12.2274 30.2954 11.6334 30.2954ZM11.6334 28.8914C12.1374 28.8914 12.5394 28.7234 12.8394 28.3874C13.1454 28.0514 13.2984 27.6074 13.2984 27.0554C13.2984 26.4974 13.1454 26.0534 12.8394 25.7234C12.5394 25.3874 12.1374 25.2194 11.6334 25.2194C11.1234 25.2194 10.7154 25.3844 10.4094 25.7144C10.1094 26.0444 9.9594 26.4914 9.9594 27.0554C9.9594 27.6134 10.1094 28.0604 10.4094 28.3964C10.7154 28.7264 11.1234 28.8914 11.6334 28.8914ZM15.4596 27.0644C15.4596 26.4404 15.5946 25.8854 15.8646 25.3994C16.1346 24.9074 16.5096 24.5264 16.9896 24.2564C17.4756 23.9804 18.0246 23.8424 18.6366 23.8424C19.3866 23.8424 20.0286 24.0404 20.5626 24.4364C21.0966 24.8324 21.4536 25.3724 21.6336 26.0564H19.9416C19.8156 25.7924 19.6356 25.5914 19.4016 25.4534C19.1736 25.3154 18.9126 25.2464 18.6186 25.2464C18.1446 25.2464 17.7606 25.4114 17.4666 25.7414C17.1726 26.0714 17.0256 26.5124 17.0256 27.0644C17.0256 27.6164 17.1726 28.0574 17.4666 28.3874C17.7606 28.7174 18.1446 28.8824 18.6186 28.8824C18.9126 28.8824 19.1736 28.8134 19.4016 28.6754C19.6356 28.5374 19.8156 28.3364 19.9416 28.0724H21.6336C21.4536 28.7564 21.0966 29.2964 20.5626 29.6924C20.0286 30.0824 19.3866 30.2774 18.6366 30.2774C18.0246 30.2774 17.4756 30.1424 16.9896 29.8724C16.5096 29.5964 16.1346 29.2154 15.8646 28.7294C15.5946 28.2434 15.4596 27.6884 15.4596 27.0644ZM26.4461 30.2324L25.1591 28.2974L24.0251 30.2324H22.2791L24.3041 27.0194L22.2341 23.9144H24.0251L25.2941 25.8224L26.4101 23.9144H28.1561L26.1491 27.1004L28.2371 30.2324H26.4461Z" fill="white"/>
<defs>
<filter id="filter0_d_5718_6819" x="18.3367" y="-0.767578" width="12.6631" height="11.957" filterUnits="userSpaceOnUse" color-interpolation-filters="sRGB">
<feFlood flood-opacity="0" result="BackgroundImageFix"/>
<feColorMatrix in="SourceAlpha" type="matrix" values="0 0 0 0 0 0 0 0 0 0 0 0 0 0 0 0 0 0 127 0" result="hardAlpha"/>
<feOffset dx="-1" dy="1"/>
<feGaussianBlur stdDeviation="1"/>
<feComposite in2="hardAlpha" operator="out"/>
<feColorMatrix type="matrix" values="0 0 0 0 0 0 0 0 0 0 0 0 0 0 0 0 0 0 0.2 0"/>
<feBlend mode="normal" in2="BackgroundImageFix" result="effect1_dropShadow_5718_6819"/>
<feBlend mode="normal" in="SourceGraphic" in2="effect1_dropShadow_5718_6819" result="shape"/>
</filter>
<linearGradient id="paint0_linear_5718_6819" x1="45.5" y1="-23.2676" x2="-16.5" y2="58.7324" gradientUnits="userSpaceOnUse">
<stop stop-color="#EEF4FF"/>
<stop offset="0.265" stop-color="#A4BCFD"/>
<stop offset="0.90788" stop-color="#444CE7"/>
</linearGradient>
</defs>
</svg>
