<svg width="37" height="36" viewBox="0 0 37 36" fill="none" xmlns="http://www.w3.org/2000/svg">
<path d="M14.0011 26.6247C13.3861 26.6247 12.8761 26.1147 12.8761 25.4997V19.2147L11.7961 20.2947C11.3611 20.7297 10.6411 20.7297 10.2061 20.2947C9.77113 19.8597 9.77113 19.1397 10.2061 18.7047L13.2061 15.7047C13.5211 15.3897 14.0161 15.2847 14.4361 15.4647C14.8561 15.6297 15.1261 16.0497 15.1261 16.4997V25.4997C15.1261 26.1147 14.6161 26.6247 14.0011 26.6247Z" fill="black"/>
<path d="M17.0011 20.6252C16.7161 20.6252 16.4311 20.5202 16.2061 20.2952L13.2061 17.2952C12.7711 16.8602 12.7711 16.1402 13.2061 15.7052C13.6411 15.2702 14.3611 15.2702 14.7961 15.7052L17.7961 18.7052C18.2311 19.1402 18.2311 19.8602 17.7961 20.2952C17.5711 20.5202 17.2861 20.6252 17.0011 20.6252Z" fill="black"/>
<path d="M23 34.125H14C5.855 34.125 2.375 30.645 2.375 22.5V13.5C2.375 5.355 5.855 1.875 14 1.875H21.5C22.115 1.875 22.625 2.385 22.625 3C22.625 3.615 22.115 4.125 21.5 4.125H14C7.085 4.125 4.625 6.585 4.625 13.5V22.5C4.625 29.415 7.085 31.875 14 31.875H23C29.915 31.875 32.375 29.415 32.375 22.5V15C32.375 14.385 32.885 13.875 33.5 13.875C34.115 13.875 34.625 14.385 34.625 15V22.5C34.625 30.645 31.145 34.125 23 34.125Z" fill="black"/>
<path d="M33.5 16.1247H27.5C22.37 16.1247 20.375 14.1297 20.375 8.99974V2.99974C20.375 2.54974 20.645 2.12974 21.065 1.96474C21.485 1.78474 21.965 1.88974 22.295 2.20474L34.295 14.2047C34.61 14.5197 34.715 15.0147 34.535 15.4347C34.355 15.8547 33.95 16.1247 33.5 16.1247ZM22.625 5.71474V8.99974C22.625 12.8697 23.63 13.8747 27.5 13.8747H30.785L22.625 5.71474Z" fill="black"/>
</svg>
