<svg width="19" height="21" viewBox="0 0 19 21" fill="none" xmlns="http://www.w3.org/2000/svg">
<rect x="1.1285" y="1.75582" width="17.413" height="17.413" rx="8.70651" stroke="white" stroke-width="0.517495"/>
<path d="M13.9915 6.64062H5.46087C4.95827 6.64062 4.55121 7.05021 4.55121 7.55028V13.0082C4.55121 13.5113 4.96126 13.9179 5.46087 13.9179H13.9915C14.4898 13.9179 14.9011 13.513 14.9011 13.0082V7.55028C14.9011 7.0511 14.4957 6.64062 13.9915 6.64062ZM13.8641 7.24707C13.6782 7.43194 10.4798 10.6135 10.3694 10.7233C10.1976 10.8951 9.96914 10.9898 9.72616 10.9898C9.48319 10.9898 9.25476 10.8951 9.08236 10.7227C9.0081 10.6489 5.84501 7.50246 5.58826 7.24707H13.8641ZM5.15765 12.8848V7.6741L7.77823 10.2809L5.15765 12.8848ZM5.58865 13.3115L8.2082 10.7086L8.65412 11.1521C8.94048 11.4385 9.32121 11.5962 9.72616 11.5962C10.1311 11.5962 10.5118 11.4385 10.7976 11.1527L11.2441 10.7086L13.8637 13.3115H5.58865ZM14.2947 12.8848L11.6741 10.2809L14.2947 7.6741V12.8848Z" fill="white" stroke="white" stroke-width="0.206998"/>
</svg>
