<svg width="19" height="21" viewBox="0 0 19 21" fill="none" xmlns="http://www.w3.org/2000/svg">
<rect x="1.1285" y="1.8481" width="17.413" height="17.413" rx="8.70651" stroke="white" stroke-width="0.517495"/>
<path d="M12.7304 11.6082C12.5185 11.3875 12.2629 11.2696 11.992 11.2696C11.7234 11.2696 11.4656 11.3853 11.245 11.606L10.5547 12.2941C10.4979 12.2635 10.4411 12.2351 10.3865 12.2067C10.3079 12.1674 10.2336 12.1302 10.1702 12.0909C9.52365 11.6802 8.93604 11.1451 8.37245 10.4526C8.0994 10.1075 7.91592 9.81692 7.78267 9.52203C7.96179 9.35819 8.1278 9.18781 8.28944 9.02399C8.35061 8.96282 8.41178 8.89946 8.47295 8.83831C8.93168 8.37958 8.93168 7.78542 8.47295 7.32669L7.87659 6.73034C7.80888 6.66262 7.73897 6.59272 7.67344 6.52282C7.54239 6.38739 7.40475 6.24759 7.26277 6.11652C7.05089 5.90682 6.79748 5.79541 6.53099 5.79541C6.26449 5.79541 6.00673 5.90682 5.78829 6.11652C5.78611 6.1187 5.78611 6.1187 5.78392 6.12089L5.04122 6.87014C4.76161 7.14975 4.60215 7.49053 4.5672 7.88589C4.51477 8.52376 4.70263 9.1179 4.84681 9.50673C5.20068 10.4613 5.72931 11.346 6.51789 12.2941C7.47466 13.4365 8.62586 14.3387 9.94087 14.9743C10.4433 15.2124 11.1139 15.4942 11.8632 15.5423C11.909 15.5445 11.9571 15.5466 12.0008 15.5466C12.5054 15.5466 12.9292 15.3654 13.2612 15.0049C13.2634 15.0005 13.2677 14.9984 13.2699 14.994C13.3835 14.8564 13.5146 14.7319 13.6522 14.5986C13.7461 14.509 13.8423 14.4151 13.9362 14.3168C14.1524 14.0918 14.266 13.8297 14.266 13.561C14.266 13.2902 14.1502 13.0302 13.9296 12.8118L12.7304 11.6082ZM13.5124 13.9083C13.5102 13.9105 13.5102 13.9083 13.5124 13.9083C13.4272 14.0001 13.3398 14.0831 13.2459 14.1748C13.1039 14.3103 12.9597 14.4523 12.8243 14.6117C12.6037 14.8476 12.3437 14.959 12.003 14.959C11.9702 14.959 11.9352 14.959 11.9025 14.9569C11.2537 14.9154 10.6508 14.662 10.1986 14.4457C8.96225 13.8472 7.87659 12.9974 6.97443 11.9205C6.22954 11.0227 5.7315 10.1926 5.40165 9.30141C5.1985 8.75748 5.12423 8.33371 5.15699 7.93396C5.17884 7.67838 5.27714 7.46649 5.45844 7.28518L6.20333 6.5403C6.31037 6.43981 6.42396 6.3852 6.53536 6.3852C6.67297 6.3852 6.78438 6.46821 6.85428 6.53811C6.85648 6.5403 6.85865 6.54248 6.86085 6.54467C6.99409 6.66918 7.12079 6.79806 7.25404 6.93568C7.32175 7.00558 7.39165 7.07548 7.46155 7.14757L8.0579 7.74391C8.28944 7.97546 8.28944 8.18954 8.0579 8.42109C7.99455 8.48443 7.93339 8.54777 7.87005 8.60894C7.68654 8.79681 7.51179 8.97156 7.32175 9.14194C7.31738 9.1463 7.31301 9.1485 7.31084 9.15287C7.12297 9.34072 7.15793 9.52422 7.19724 9.64873C7.19943 9.65527 7.20161 9.66183 7.2038 9.66839C7.35888 10.0441 7.57733 10.398 7.90935 10.8196L7.91155 10.8218C8.51445 11.5645 9.1501 12.1433 9.85131 12.5868C9.94087 12.6436 10.0326 12.6894 10.12 12.7331C10.1986 12.7724 10.2729 12.8096 10.3362 12.8489C10.345 12.8533 10.3537 12.8598 10.3625 12.8642C10.4367 12.9013 10.5066 12.9188 10.5787 12.9188C10.76 12.9188 10.8736 12.8052 10.9107 12.7681L11.6578 12.021C11.7321 11.9467 11.8501 11.8572 11.9877 11.8572C12.1231 11.8572 12.2345 11.9424 12.3022 12.0166C12.3044 12.0188 12.3044 12.0188 12.3066 12.021L13.5102 13.2246C13.7352 13.4474 13.7352 13.6768 13.5124 13.9083Z" fill="white"/>
<path d="M13.5124 13.9083C13.5102 13.9083 13.5102 13.9105 13.5124 13.9083ZM13.5124 13.9083C13.4272 14.0001 13.3398 14.0831 13.2459 14.1748C13.1039 14.3103 12.9597 14.4523 12.8243 14.6117C12.6037 14.8476 12.3437 14.959 12.003 14.959C11.9702 14.959 11.9352 14.959 11.9025 14.9569C11.2537 14.9154 10.6508 14.662 10.1986 14.4457C8.96225 13.8472 7.87659 12.9974 6.97443 11.9205C6.22954 11.0227 5.7315 10.1926 5.40165 9.30141C5.1985 8.75748 5.12423 8.33371 5.15699 7.93396C5.17884 7.67838 5.27714 7.46649 5.45844 7.28518L6.20333 6.5403C6.31037 6.43981 6.42396 6.3852 6.53536 6.3852C6.67297 6.3852 6.78438 6.46821 6.85428 6.53811C6.85648 6.5403 6.85865 6.54248 6.86085 6.54467C6.99409 6.66918 7.12079 6.79806 7.25404 6.93568C7.32175 7.00558 7.39165 7.07548 7.46155 7.14757L8.0579 7.74391C8.28944 7.97546 8.28944 8.18954 8.0579 8.42109C7.99455 8.48443 7.93339 8.54777 7.87005 8.60894C7.68654 8.79681 7.51179 8.97156 7.32175 9.14194C7.31738 9.1463 7.31301 9.1485 7.31084 9.15287C7.12297 9.34072 7.15793 9.52422 7.19724 9.64873C7.19943 9.65527 7.20161 9.66183 7.2038 9.66839C7.35888 10.0441 7.57733 10.398 7.90935 10.8196L7.91155 10.8218C8.51445 11.5645 9.1501 12.1433 9.85131 12.5868C9.94087 12.6436 10.0326 12.6894 10.12 12.7331C10.1986 12.7724 10.2729 12.8096 10.3362 12.8489C10.345 12.8533 10.3537 12.8598 10.3625 12.8642C10.4367 12.9013 10.5066 12.9188 10.5787 12.9188C10.76 12.9188 10.8736 12.8052 10.9107 12.7681L11.6578 12.021C11.7321 11.9467 11.8501 11.8572 11.9877 11.8572C12.1231 11.8572 12.2345 11.9424 12.3022 12.0166C12.3044 12.0188 12.3044 12.0188 12.3066 12.021L13.5102 13.2246C13.7352 13.4474 13.7352 13.6768 13.5124 13.9083ZM12.7304 11.6082C12.5185 11.3875 12.2629 11.2696 11.992 11.2696C11.7234 11.2696 11.4656 11.3853 11.245 11.606L10.5547 12.2941C10.4979 12.2635 10.4411 12.2351 10.3865 12.2067C10.3079 12.1674 10.2336 12.1302 10.1702 12.0909C9.52365 11.6802 8.93604 11.1451 8.37245 10.4526C8.0994 10.1075 7.91592 9.81692 7.78267 9.52203C7.96179 9.35819 8.1278 9.18781 8.28944 9.02399C8.35061 8.96282 8.41178 8.89946 8.47295 8.83831C8.93168 8.37958 8.93168 7.78542 8.47295 7.32669L7.87659 6.73034C7.80888 6.66262 7.73897 6.59272 7.67344 6.52282C7.54239 6.38739 7.40475 6.24759 7.26277 6.11652C7.05089 5.90682 6.79748 5.79541 6.53099 5.79541C6.26449 5.79541 6.00673 5.90682 5.78829 6.11652C5.78611 6.1187 5.78611 6.1187 5.78392 6.12089L5.04122 6.87014C4.76161 7.14975 4.60215 7.49053 4.5672 7.88589C4.51477 8.52376 4.70263 9.1179 4.84681 9.50673C5.20068 10.4613 5.72931 11.346 6.51789 12.2941C7.47466 13.4365 8.62586 14.3387 9.94087 14.9743C10.4433 15.2124 11.1139 15.4942 11.8632 15.5423C11.909 15.5445 11.9571 15.5466 12.0008 15.5466C12.5054 15.5466 12.9292 15.3654 13.2612 15.0049C13.2634 15.0005 13.2677 14.9984 13.2699 14.994C13.3835 14.8564 13.5146 14.7319 13.6522 14.5986C13.7461 14.509 13.8423 14.4151 13.9362 14.3168C14.1524 14.0918 14.266 13.8297 14.266 13.561C14.266 13.2902 14.1502 13.0302 13.9296 12.8118L12.7304 11.6082Z" stroke="white" stroke-width="0.206998"/>
<path d="M10.1439 7.66264C10.7163 7.75875 11.2361 8.02963 11.6512 8.44466C12.0662 8.85969 12.3349 9.37959 12.4332 9.95192C12.4572 10.0961 12.5817 10.1966 12.7237 10.1966C12.7412 10.1966 12.7565 10.1944 12.774 10.1922C12.9356 10.166 13.0426 10.0131 13.0164 9.85142C12.8985 9.15897 12.5708 8.52767 12.0706 8.02744C11.5703 7.52721 10.9391 7.19954 10.2466 7.08158C10.085 7.05537 9.93422 7.16241 9.90584 7.32186C9.87744 7.48134 9.98228 7.63642 10.1439 7.66264Z" fill="white" stroke="white" stroke-width="0.206998"/>
<path d="M14.8891 9.76673C14.6947 8.62647 14.1573 7.58887 13.3316 6.76316C12.5059 5.93745 11.4683 5.40008 10.3281 5.20567C10.1686 5.17727 10.0179 5.28649 9.98947 5.44595C9.96324 5.6076 10.0703 5.75833 10.2319 5.78672C11.2499 5.95929 12.1782 6.44205 12.9166 7.1782C13.6549 7.91652 14.1355 8.84491 14.308 9.86284C14.3321 10.007 14.4566 10.1075 14.5986 10.1075C14.6161 10.1075 14.6314 10.1053 14.6488 10.1031C14.8083 10.0791 14.9175 9.92621 14.8891 9.76673Z" fill="white" stroke="white" stroke-width="0.206998"/>
</svg>
