<svg width="26" height="30" viewBox="0 0 26 30" fill="none" xmlns="http://www.w3.org/2000/svg">
<rect x="0.477396" y="3.03697" width="24.7011" height="24.7011" rx="12.3506" stroke="#393939" stroke-width="0.734089"/>
<path d="M18.7234 9.96875H6.62242C5.90947 9.96875 5.33203 10.5498 5.33203 11.2591V19.0015C5.33203 19.7151 5.91371 20.2919 6.62242 20.2919H18.7234C19.4304 20.2919 20.0138 19.7175 20.0138 19.0015V11.2591C20.0138 10.551 19.4387 9.96875 18.7234 9.96875ZM18.5427 10.829C18.2791 11.0913 13.742 15.6044 13.5854 15.7602C13.3416 16.004 13.0176 16.1382 12.6729 16.1382C12.3283 16.1382 12.0042 16.0039 11.7597 15.7594C11.6543 15.6546 7.16734 11.1913 6.80313 10.829H18.5427ZM6.19229 18.8264V11.4348L9.90969 15.1326L6.19229 18.8264ZM6.80368 19.4316L10.5196 15.7393L11.1522 16.3685C11.5584 16.7747 12.0985 16.9984 12.6729 16.9984C13.2474 16.9984 13.7874 16.7747 14.1929 16.3693L14.8262 15.7393L18.5422 19.4316H6.80368ZM19.1536 18.8264L15.4362 15.1326L19.1536 11.4348V18.8264Z" fill="#393939" stroke="#393939" stroke-width="0.293636"/>
</svg>
