<svg width="60" height="60" viewBox="0 0 60 60" fill="none" xmlns="http://www.w3.org/2000/svg">
<rect width="60" height="60" rx="30" fill="url(#paint0_radial_3744_6375)"/>
<rect x="0.5" y="0.5" width="59" height="59" rx="29.5" stroke="#F3F3F1"/>
<path d="M33.5512 31.4336L31.5412 33.4505C30.7261 34.2685 29.2919 34.2861 28.4591 33.4505L26.449 31.4336L19.2295 38.6767C19.4982 38.801 19.7945 38.8752 20.1095 38.8752H39.8908C40.2058 38.8752 40.502 38.8011 40.7706 38.6768L33.5512 31.4336Z" fill="#EDA133"/>
<path d="M39.8906 22H20.1094C19.7944 22 19.4981 22.0742 19.2294 22.1984L26.944 29.9388C26.9445 29.9393 26.9451 29.9394 26.9456 29.9399C26.9459 29.9402 26.9462 29.9407 26.9462 29.9411L29.4547 32.4579C29.7211 32.7244 30.279 32.7244 30.5454 32.4579L33.0533 29.9415C33.0533 29.9415 33.054 29.9404 33.0545 29.9399C33.0545 29.9399 33.0556 29.9393 33.0561 29.9388L40.7705 22.1984C40.5018 22.0741 40.2056 22 39.8906 22ZM18.2243 23.1818C18.0853 23.463 18 23.7751 18 24.1094V36.766C18 37.1004 18.0852 37.4125 18.2243 37.6936L25.4563 30.438L18.2243 23.1818ZM41.7757 23.1818L34.5437 30.438L41.7757 37.6937C41.9147 37.4125 42 37.1004 42 36.766V24.1094C42 23.775 41.9147 23.4629 41.7757 23.1818Z" fill="#EDA133"/>
<defs>
<radialGradient id="paint0_radial_3744_6375" cx="0" cy="0" r="1" gradientUnits="userSpaceOnUse" gradientTransform="translate(30 30) scale(39.6 20.4)">
<stop stop-color="#F0ECE7"/>
<stop offset="1" stop-color="white"/>
</radialGradient>
</defs>
</svg>
