<svg width="19" height="19" viewBox="0 0 19 19" fill="none" xmlns="http://www.w3.org/2000/svg">
<rect x="1.1285" y="0.940877" width="17.413" height="17.413" rx="8.70651" stroke="white" stroke-width="0.517495"/>
<path d="M9.72598 14.2392L9.48335 13.9762C9.40429 13.8905 7.54024 11.869 7.09793 11.3631C6.69475 10.902 6.33433 10.2641 6.20121 9.77559C6.11569 9.46398 6.07233 9.13986 6.07233 8.81291C6.07233 6.80345 7.71128 5.16611 9.72578 5.16309C11.7413 5.16611 13.3802 6.80325 13.3802 8.81291C13.3802 9.13986 13.3369 9.46398 13.2512 9.77599C13.118 10.2641 12.7576 10.902 12.3544 11.3631C11.9119 11.8692 10.0481 13.8905 9.96902 13.9762L9.72598 14.2392ZM9.72558 5.82323C8.07554 5.82565 6.73226 7.1667 6.73226 8.81291C6.73226 9.08076 6.76776 9.34599 6.83775 9.60133C6.94545 9.99644 7.25687 10.542 7.5947 10.9287C7.94242 11.3264 9.1917 12.6852 9.72578 13.2655C10.2601 12.6852 11.5091 11.3264 11.8569 10.9287C12.1949 10.5422 12.5061 9.99644 12.6138 9.60193C12.684 9.34619 12.7195 9.08096 12.7195 8.81311C12.7197 7.1667 11.3764 5.82565 9.72558 5.82323Z" fill="white"/>
<path d="M9.72525 10.6266C8.69521 10.6266 7.85738 9.79059 7.85738 8.76277C7.85738 7.73494 8.69541 6.89893 9.72525 6.89893C10.7551 6.89893 11.5931 7.73494 11.5931 8.76277C11.5931 9.79059 10.7553 10.6266 9.72525 10.6266ZM9.72525 7.55927C9.05926 7.55927 8.51752 8.0992 8.51752 8.76297C8.51752 9.42674 9.05926 9.96667 9.72525 9.96667C10.3912 9.96667 10.933 9.42674 10.933 8.76297C10.933 8.0992 10.3912 7.55927 9.72525 7.55927Z" fill="white"/>
</svg>
