<svg width="303" height="92" viewBox="0 0 303 92" fill="none" xmlns="http://www.w3.org/2000/svg">
<g opacity="0.9">
<path d="M44.8415 25.9489C44.8415 28.0811 44.4401 29.8052 43.5122 31.1411C42.716 32.4704 41.5183 33.5364 40.1824 34.3327C38.8465 35.129 37.254 35.5304 35.5233 35.7936C33.7926 36.0568 31.9303 36.195 30.1995 36.195H2.26466C0.803756 36.195 0.000915527 35.3988 0.000915527 33.7997V2.52839C0.000915527 1.06749 0.797175 0.264648 2.26466 0.264648H29.8113C31.9434 0.264648 33.9374 0.396262 35.6681 0.666068C37.3988 0.929295 38.9979 1.46233 40.3272 2.26517C41.6565 3.06801 42.5909 4.12749 43.2556 5.45679C43.9202 6.78608 44.3216 8.51679 44.3216 10.5107C44.3216 12.2414 44.0584 13.8405 43.3872 15.0382C42.7225 16.3675 41.5249 17.4336 39.7941 18.2298C41.255 18.7629 42.4527 19.6907 43.3872 20.7568C44.4532 22.0861 44.8481 23.6852 44.8481 25.9489H44.8415ZM38.1885 26.0806C38.1885 25.1461 38.0568 24.3498 37.9252 23.6852C37.7936 23.0206 37.2606 22.4875 36.7276 22.0861C36.1945 21.6847 35.2667 21.4215 34.2006 21.1516C33.1345 20.8818 31.6736 20.8884 30.0745 20.8884H6.52235V30.8713H30.6075C32.2066 30.8713 33.5359 30.7397 34.4638 30.608C35.3983 30.4764 36.1945 30.075 36.7276 29.8118C37.2606 29.4104 37.662 29.0155 37.7936 28.3509C37.9252 27.6862 38.195 27.0216 38.195 26.0871L38.1885 26.0806ZM6.78557 15.4396H30.3377C31.7986 15.4396 32.9963 15.4396 34.0624 15.308C34.9968 15.1764 35.9247 14.9066 36.4577 14.6434C36.9908 14.3802 37.5238 13.8471 37.787 13.1825C38.0503 12.5178 38.1885 11.7216 38.1885 10.6555C38.1885 9.85924 38.0568 9.0564 37.9252 8.39176C37.7936 7.72711 37.3922 7.19408 36.8592 6.93085C36.3261 6.52943 35.5299 6.26621 34.5954 6.13459C33.661 6.00298 32.3317 5.87137 30.7392 5.87137H6.78557V15.4528V15.4396Z" fill="#F99F1B"/>
<path d="M85.0325 7.98413C86.0986 7.98413 86.8948 8.11574 87.4279 8.38555C87.9609 8.64878 88.2241 9.32 88.2241 10.2479V27.5484C88.2241 33.267 83.565 36.1954 74.2534 36.1954H62.4082C53.0966 36.1954 48.4375 33.267 48.4375 27.5484V10.2479C48.4375 9.31342 48.7007 8.64878 49.2337 8.38555C49.7668 8.12232 50.563 7.98413 51.6291 7.98413C52.6952 7.98413 53.4914 8.11574 54.0245 8.38555C54.5575 8.64878 54.8207 9.32 54.8207 10.2479V27.5484C54.8207 28.6145 55.4854 29.4107 56.683 30.0754C57.8807 30.74 60.0129 31.1415 62.6714 31.1415H74.1152C76.912 31.1415 78.9059 30.74 80.1036 30.0754C81.3013 29.4107 81.9659 28.4763 81.9659 27.5484V10.2479C81.9659 9.31342 82.2291 8.64878 82.7622 8.38555C83.1636 8.12232 83.9599 7.98413 85.0259 7.98413H85.0325Z" fill="#F99F1B"/>
<path d="M91.9503 15.6981C91.9503 13.4343 92.8848 11.572 94.8787 10.2427C96.8727 8.91343 99.8011 8.24878 103.664 8.24878H110.449C111.245 8.24878 111.646 8.38039 111.909 8.91343C112.173 9.44646 112.311 9.97949 112.311 10.7757C112.311 11.572 112.179 12.2367 111.909 12.6381C111.64 13.0395 111.113 13.3027 110.449 13.3027H103.664C101.802 13.3027 100.334 13.5659 99.5378 13.9674C98.7416 14.3688 98.2086 15.0334 98.2086 15.8297V17.159C98.2086 17.9552 98.61 18.4883 99.5378 19.0213C100.466 19.5543 101.933 19.686 103.927 19.686H114.838C119.497 19.686 122.82 20.3506 124.821 21.6799C126.815 23.0092 127.881 24.8715 127.881 27.2669V28.866C127.881 30.0636 127.617 31.1297 127.084 32.0576C126.551 32.9855 125.755 33.7883 124.557 34.4529C123.491 35.1176 122.031 35.6506 120.168 35.9138C118.306 36.1771 116.312 36.4469 113.778 36.4469H93.8193C93.023 36.4469 92.6216 36.3153 92.3584 35.7822C92.0951 35.2492 91.9569 34.7162 91.9569 33.9199C91.9569 33.1236 92.0885 32.459 92.3584 32.0576C92.6282 31.6562 93.1546 31.3929 93.8193 31.3929H114.844C116.174 31.3929 117.24 31.3929 118.174 31.2613C119.109 31.1297 119.773 30.9981 120.306 30.7283C120.839 30.4651 121.241 30.1953 121.372 29.932C121.636 29.6688 121.636 29.2674 121.636 28.866V27.1353C121.636 26.7338 121.504 26.339 121.372 26.0692C121.241 25.7994 120.839 25.5362 120.306 25.2729C119.773 25.0097 119.109 24.8715 118.312 24.7399C117.516 24.6083 116.45 24.6083 115.121 24.6083H104.078C100.084 24.6083 97.024 23.9436 95.0301 22.6143C93.0362 21.2851 91.9701 19.5543 91.9701 17.2906V15.6915L91.9503 15.6981Z" fill="#F99F1B"/>
<path d="M130.806 3.19162C130.806 2.12555 131.07 1.32929 131.741 0.796259C132.412 0.263226 133.34 0 134.669 0C135.998 0 137.065 0.263226 137.598 0.796259C138.131 1.32929 138.532 2.12555 138.532 3.19162C138.532 4.25768 138.269 5.05394 137.598 5.58698C136.926 6.12001 135.998 6.38323 134.669 6.38323C133.34 6.38323 132.274 6.12001 131.741 5.58698C131.208 5.05394 130.806 4.25768 130.806 3.19162ZM137.992 34.068C137.992 35.0025 137.729 35.6671 137.196 35.9304C136.663 36.1936 135.867 36.3318 134.801 36.3318C133.735 36.3318 132.938 36.2002 132.405 35.9304C131.872 35.6671 131.609 34.9959 131.609 34.068V10.6475C131.609 9.71305 131.872 9.0484 132.405 8.78517C132.938 8.52195 133.735 8.38375 134.801 8.38375C135.867 8.38375 136.663 8.51537 137.196 8.78517C137.729 9.0484 137.992 9.71963 137.992 10.6475V34.068Z" fill="#F99F1B"/>
<path d="M145.576 36.3236C144.509 36.3236 143.713 36.192 143.18 35.9222C142.647 35.6589 142.384 34.9877 142.384 34.0598V16.7593C142.384 11.0407 147.043 8.1123 156.355 8.1123H167.134C176.445 8.1123 181.105 11.0407 181.105 16.7593V34.0598C181.105 34.9943 180.841 35.6589 180.308 35.9222C179.775 36.1854 178.979 36.3236 177.913 36.3236C176.847 36.3236 176.051 36.192 175.518 35.9222C174.985 35.6589 174.721 34.9877 174.721 34.0598V16.7593C174.721 15.6932 174.057 14.897 172.859 14.2323C171.661 13.5677 169.529 13.1662 166.871 13.1662H156.493C153.696 13.1662 151.702 13.5677 150.504 14.2323C149.307 14.897 148.642 15.8314 148.642 16.7593V34.0598C148.642 34.9943 148.379 35.6589 147.846 35.9222C147.313 36.1854 146.648 36.3236 145.582 36.3236H145.576Z" fill="#F99F1B"/>
<path d="M191.619 25.0195V27.5465C191.619 28.4809 192.284 29.4088 193.481 30.0734C194.679 30.7381 196.811 31.1395 199.47 31.1395H205.195C205.991 31.1395 206.393 31.2711 206.656 31.8041C206.919 32.2056 206.919 32.8702 206.919 33.6665C206.919 34.4627 206.787 35.1274 206.656 35.5288C206.393 35.9302 205.991 36.1934 205.195 36.1934H199.338C190.027 36.1934 185.367 33.265 185.367 27.5465V16.7673C185.367 11.0488 190.027 8.12036 199.338 8.12036H210.782C215.704 8.12036 219.297 8.78501 221.561 10.2525C223.825 11.72 224.891 13.8455 224.891 16.7739V22.4925C224.891 23.427 224.759 24.0916 224.358 24.4864C223.956 24.8813 223.16 25.0195 221.962 25.0195H191.626H191.619ZM191.619 20.0906H218.501V16.7608C218.501 15.5631 217.836 14.7668 216.639 14.1022C215.441 13.4375 213.447 13.1677 210.519 13.1677H199.476C196.68 13.1677 194.686 13.5691 193.488 14.2338C192.29 14.8984 191.626 15.8329 191.626 16.7608V20.0906H191.619Z" fill="#F99F1B"/>
<path d="M227.947 15.6981C227.947 13.4343 228.881 11.572 230.875 10.2427C232.869 8.91343 235.797 8.24878 239.66 8.24878H246.445C247.241 8.24878 247.642 8.38039 247.906 8.91343C248.169 9.44646 248.307 9.97949 248.307 10.7757C248.307 11.572 248.175 12.2367 247.906 12.6381C247.636 13.0395 247.109 13.3027 246.445 13.3027H239.66C237.798 13.3027 236.33 13.5659 235.534 13.9674C234.738 14.3688 234.205 15.0334 234.205 15.8297V17.159C234.205 17.9552 234.738 18.4883 235.534 19.0213C236.468 19.5543 237.929 19.686 239.923 19.686H250.834C255.493 19.686 258.816 20.3506 260.817 21.6799C262.817 23.0092 263.877 24.8715 263.877 27.2669V28.866C263.877 30.0636 263.614 31.1297 263.081 32.0576C262.548 32.992 261.751 33.7883 260.554 34.4529C259.488 35.1176 258.027 35.6506 256.164 35.9138C254.302 36.1771 252.308 36.4469 249.775 36.4469H229.684C228.888 36.4469 228.486 36.3153 228.223 35.7822C227.96 35.2492 227.822 34.7162 227.822 33.9199C227.822 33.1236 227.953 32.459 228.223 32.0576C228.493 31.6562 229.019 31.3929 229.684 31.3929H250.709C252.038 31.3929 253.104 31.3929 254.039 31.2613C254.973 31.1297 255.638 30.9981 256.171 30.7283C256.704 30.4585 256.967 30.1953 257.237 29.932C257.507 29.6688 257.5 29.2674 257.5 28.866V27.1353C257.5 26.7338 257.369 26.339 257.237 26.0692C257.105 25.7994 256.704 25.5362 256.171 25.2729C255.638 25.0097 254.973 24.8715 254.177 24.7399C253.381 24.6083 252.315 24.6083 250.985 24.6083H239.943C235.949 24.6083 232.889 23.9436 230.895 22.6143C228.901 21.2851 227.835 19.5543 227.835 17.2906L227.966 15.6915L227.947 15.6981Z" fill="#F99F1B"/>
<path d="M267.069 15.6981C267.069 13.4343 268.004 11.572 269.998 10.2427C271.992 8.91343 274.92 8.24878 278.783 8.24878H285.568C286.364 8.24878 286.765 8.38039 287.028 8.91343C287.292 9.44646 287.43 9.97949 287.43 10.7757C287.43 11.572 287.298 12.2367 287.028 12.6381C286.759 13.0395 286.232 13.3027 285.568 13.3027H278.783C276.921 13.3027 275.453 13.5659 274.657 13.9674C273.861 14.3688 273.328 15.0334 273.328 15.8297V17.159C273.328 17.9552 273.861 18.4883 274.657 19.0213C275.591 19.5543 277.052 19.686 279.046 19.686H289.957C294.616 19.686 297.939 20.3506 299.94 21.6799C301.94 23.0092 303 24.8715 303 27.2669V28.866C303 30.0636 302.737 31.1297 302.203 32.0576C301.67 32.992 300.874 33.7883 299.677 34.4529C298.61 35.1176 297.15 35.6506 295.287 35.9138C293.425 36.1771 291.431 36.4469 288.897 36.4469H268.807C268.01 36.4469 267.609 36.3153 267.346 35.7822C267.083 35.2492 266.944 34.7162 266.944 33.9199C266.944 33.1236 267.076 32.459 267.346 32.0576C267.616 31.6562 268.142 31.3929 268.807 31.3929H289.832C291.161 31.3929 292.227 31.3929 293.162 31.2613C294.096 31.1297 294.761 30.9981 295.294 30.7283C295.827 30.4585 296.09 30.1953 296.36 29.932C296.63 29.6688 296.623 29.2674 296.623 28.866V27.1353C296.623 26.7338 296.491 26.339 296.36 26.0692C296.228 25.7994 295.827 25.5362 295.294 25.2729C294.761 25.0097 294.096 24.8715 293.3 24.7399C292.504 24.6083 291.438 24.6083 290.108 24.6083H279.066C275.071 24.6083 272.011 23.9436 270.017 22.6143C268.024 21.2851 266.957 19.5543 266.957 17.2906L267.089 15.6915L267.069 15.6981Z" fill="#F99F1B"/>
<path d="M51.5772 80.1937C51.5772 82.5967 51.1249 84.5399 50.0791 86.0455C49.1817 87.5437 47.8318 88.7452 46.3263 89.6426C44.8281 90.54 43.0258 90.9924 41.0752 91.2891C39.1246 91.5858 37.0257 91.7415 35.0751 91.7415H3.5838C1.93729 91.7415 1.03246 90.8441 1.03246 89.0418V53.7977C1.03246 52.1512 1.92988 51.2463 3.5838 51.2463H34.6301C37.0331 51.2463 39.2804 51.3947 41.231 51.6988C43.1816 51.9954 44.9838 52.5962 46.482 53.501C47.9802 54.3984 49.0333 55.5999 49.7824 57.0981C50.5315 58.5963 50.9839 60.5469 50.9839 62.7941C50.9839 64.7447 50.6873 66.547 49.9308 67.8968C49.1817 69.395 47.8318 70.5965 45.8812 71.4939C47.5277 72.0947 48.8776 73.1404 49.9308 74.3419C50.9839 75.8401 51.5772 77.6424 51.5772 80.1937ZM43.9232 80.342C43.9232 79.2889 43.7749 78.3915 43.6266 77.6424C43.4782 76.8933 42.8775 76.2925 42.2767 75.8401C41.5276 75.3877 40.6302 75.091 39.4287 74.7869C38.2272 74.4829 36.5807 74.4903 34.7785 74.4903H8.38241V85.7414H35.5275C37.3298 85.7414 38.828 85.5931 39.8737 85.4447C40.9269 85.2964 41.8243 84.844 42.4251 84.5473C43.0258 84.0949 43.4782 83.6499 43.6266 82.9008C43.7749 82.1517 43.9232 81.4026 43.9232 80.3495V80.342ZM8.53075 68.3492H35.0751C36.7216 68.3492 38.0715 68.3492 39.273 68.2009C40.3261 68.0526 41.3719 67.7485 41.9727 67.4518C42.5734 67.1552 43.1741 66.5544 43.4708 65.8053C43.7675 65.0562 43.9232 64.1588 43.9232 62.9573C43.9232 62.0599 43.7749 61.155 43.6266 60.406C43.4782 59.6569 43.0258 59.0561 42.4251 58.7595C41.8243 58.307 40.9269 58.0104 39.8737 57.862C38.8205 57.7137 37.3224 57.5654 35.5275 57.5654H8.67909L8.53075 68.3641V68.3492Z" fill="#F99F1B"/>
<path d="M99.71 55.5962C100.912 55.5962 101.809 55.7445 102.41 56.0486C103.01 56.3453 103.307 57.1018 103.307 58.1475V77.646C103.307 84.0911 98.0561 87.3916 87.5615 87.3916H74.2114C63.7168 87.3916 58.4657 84.0911 58.4657 77.646V58.1475C58.4657 57.0944 58.7624 56.3453 59.3632 56.0486C59.9639 55.7519 60.8613 55.5962 62.0628 55.5962C63.2643 55.5962 64.1617 55.7445 64.7625 56.0486C65.3632 56.3453 65.6599 57.1018 65.6599 58.1475V77.646C65.6599 78.8475 66.409 79.745 67.7589 80.494C69.1087 81.2431 71.5117 81.6955 74.508 81.6955H87.4057C90.5578 81.6955 92.805 81.2431 94.1549 80.494C95.5047 79.745 96.2538 78.6918 96.2538 77.646V58.1475C96.2538 57.0944 96.5505 56.3453 97.1512 56.0486C97.752 55.7519 98.5011 55.5962 99.7026 55.5962H99.71Z" fill="#F99F1B"/>
<path d="M110.196 54.6171C110.196 53.4156 110.492 52.5182 111.249 51.9174C112.005 51.3167 113.051 51.02 114.549 51.02C116.047 51.02 117.249 51.3167 117.85 51.9174C118.45 52.5182 118.903 53.4156 118.903 54.6171C118.903 55.8186 118.606 56.716 117.85 57.3168C117.093 57.9175 116.047 58.2142 114.549 58.2142C113.051 58.2142 111.849 57.9175 111.249 57.3168C110.648 56.716 110.196 55.8186 110.196 54.6171ZM118.295 89.4163C118.295 90.4694 117.998 91.2185 117.397 91.5152C116.796 91.8119 115.899 91.9676 114.697 91.9676C113.496 91.9676 112.599 91.8193 111.998 91.5152C111.397 91.2185 111.1 90.462 111.1 89.4163V63.0202C111.1 61.9671 111.397 61.218 111.998 60.9213C112.599 60.6246 113.496 60.4689 114.697 60.4689C115.899 60.4689 116.796 60.6172 117.397 60.9213C117.998 61.2254 118.295 61.9745 118.295 63.0202V89.4163Z" fill="#F99F1B"/>
<path d="M132.985 89.3422C132.985 90.3953 132.689 91.1444 132.088 91.4411C131.487 91.7378 130.59 91.8935 129.388 91.8935C128.187 91.8935 127.289 91.7452 126.689 91.4411C126.088 91.1444 125.791 90.3879 125.791 89.3422V53.6456C125.791 52.5924 126.088 51.8433 126.689 51.5467C127.289 51.25 128.187 51.0942 129.388 51.0942C130.59 51.0942 131.487 51.2426 132.088 51.5467C132.689 51.8433 132.985 52.5998 132.985 53.6456V89.3422Z" fill="#F99F1B"/>
<path d="M177.521 53.7235C177.521 52.6703 177.818 51.9212 178.418 51.6245C179.019 51.3279 179.917 51.1721 181.118 51.1721C182.32 51.1721 183.217 51.3205 183.818 51.6245C184.419 51.9212 184.715 52.6777 184.715 53.7235V82.0701C184.715 88.5152 179.464 91.8156 168.97 91.8156H155.62C145.125 91.8156 139.874 88.5152 139.874 82.0701V69.9215C139.874 63.4764 145.125 60.176 155.62 60.176H177.818L177.521 53.7309V53.7235ZM155.627 65.872C152.475 65.872 150.228 66.3244 148.878 67.0735C147.528 67.8226 146.779 68.8758 146.779 69.9215V82.0701C146.779 83.1233 147.528 84.169 148.878 84.9181C150.228 85.6672 152.631 86.1196 155.627 86.1196H168.525C171.677 86.1196 173.924 85.6672 175.274 84.9181C176.624 84.169 177.373 83.1158 177.373 82.0701V65.872H155.627Z" fill="#F99F1B"/>
<path d="M191.604 54.6171C191.604 53.4156 191.9 52.5182 192.657 51.9174C193.413 51.3167 194.459 51.02 195.957 51.02C197.456 51.02 198.657 51.3167 199.258 51.9174C199.859 52.5182 200.311 53.4156 200.311 54.6171C200.311 55.8186 200.014 56.716 199.258 57.3168C198.501 57.9175 197.456 58.2142 195.957 58.2142C194.459 58.2142 193.258 57.9175 192.657 57.3168C192.056 56.716 191.604 55.8186 191.604 54.6171ZM199.547 89.4163C199.547 90.4694 199.25 91.2185 198.65 91.5152C198.049 91.8119 197.151 91.9676 195.95 91.9676C194.748 91.9676 193.851 91.8193 193.25 91.5152C192.649 91.2185 192.353 90.462 192.353 89.4163V63.0202C192.353 61.9671 192.649 61.218 193.25 60.9213C193.851 60.6246 194.748 60.4689 195.95 60.4689C197.151 60.4689 198.049 60.6172 198.65 60.9213C199.25 61.2254 199.547 61.9745 199.547 63.0202V89.4163Z" fill="#F99F1B"/>
<path d="M210.796 87.3916C209.595 87.3916 208.698 87.2432 208.097 86.9392C207.496 86.6425 207.199 85.886 207.199 84.8402V65.3417C207.199 58.8966 212.45 55.5962 222.945 55.5962H235.094C245.588 55.5962 250.839 58.8966 250.839 65.3417V84.8402C250.839 85.8934 250.543 86.6425 249.942 86.9392C249.341 87.2358 248.444 87.3916 247.242 87.3916C246.041 87.3916 245.143 87.2432 244.542 86.9392C243.942 86.6425 243.645 85.886 243.645 84.8402V65.3417C243.645 64.1402 242.896 63.2428 241.546 62.4937C240.196 61.7446 237.793 61.2922 234.797 61.2922H223.101C219.949 61.2922 217.701 61.7446 216.352 62.4937C215.002 63.2428 214.253 64.296 214.253 65.3417V84.8402C214.253 85.8934 213.956 86.6425 213.355 86.9392C212.903 87.2358 212.005 87.3916 210.804 87.3916H210.796Z" fill="#F99F1B"/>
<path d="M279.933 91.9564C279.036 91.9564 278.583 91.6598 278.287 91.2074C277.99 90.7549 277.99 90.0059 277.99 89.1084C277.99 88.211 278.138 87.4619 278.287 87.0095C278.435 86.5571 279.036 86.2604 279.933 86.2604H287.58C290.28 86.2604 292.23 85.9638 293.276 85.2073C294.329 84.4582 294.922 83.5607 294.922 82.2109V81.9142H273.473C262.979 81.9142 257.728 78.6138 257.728 72.1687V60.7692C257.728 54.3241 262.979 51.0237 273.473 51.0237H286.223C296.717 51.0237 301.968 54.3241 301.968 60.7692V82.0626C301.968 85.363 300.767 87.7586 298.215 89.2642C295.812 90.9107 292.215 91.6672 287.417 91.6672L279.918 91.9639L279.933 91.9564ZM295.078 76.5075V60.9101C295.078 59.857 294.329 58.8112 292.979 58.0621C291.629 57.313 289.226 56.8606 286.23 56.8606H273.933C270.781 56.8606 268.534 57.313 267.184 58.0621C265.834 58.8112 265.085 59.8644 265.085 60.9101V72.3096C265.085 73.5111 265.834 74.4085 267.184 75.1576C268.534 75.9067 270.937 76.3591 273.933 76.3591H295.078V76.5075Z" fill="#F99F1B"/>
</g>
</svg>
