<svg width="549" height="411" viewBox="0 0 549 411" fill="none" xmlns="http://www.w3.org/2000/svg">
<g opacity="0.1">
<path d="M353.168 306.224L266.001 310.383C265.819 309.726 265.259 309.127 264.341 308.764C262.693 308.114 260.576 308.502 259.625 309.629C258.673 310.756 259.24 312.204 260.888 312.855C262.536 313.506 264.653 313.118 265.605 311.991C265.827 311.727 265.959 311.446 266.024 311.166L352.643 307.033L361.285 314.379L477.804 304.657L477.668 303.883L361.776 313.547L353.153 306.226L353.168 306.224ZM261.566 312.052C260.56 311.654 260.214 310.771 260.795 310.082C261.376 309.394 262.668 309.157 263.675 309.554C264.681 309.952 265.027 310.835 264.446 311.524C263.865 312.212 262.573 312.449 261.566 312.052Z" fill="#F99F1B"/>
<path d="M315.671 351.316C314.063 350.681 311.993 351.06 311.064 352.161C310.135 353.261 310.69 354.677 312.298 355.312C313.907 355.948 315.977 355.568 316.906 354.468C317.835 353.368 317.28 351.951 315.671 351.316ZM312.669 354.874C311.406 354.375 310.982 353.271 311.705 352.414C312.429 351.557 314.048 351.26 315.301 351.755C316.554 352.25 316.988 353.357 316.264 354.214C315.541 355.072 313.922 355.368 312.669 354.874Z" fill="#F99F1B"/>
<path d="M317.41 353.127L378.263 347.594L395.019 327.742L448.965 324.656L448.87 323.88L394.329 327.001L377.555 346.874L317.263 352.349L317.41 353.127Z" fill="#F99F1B"/>
<path d="M371.792 330.016C373.44 330.667 375.557 330.279 376.508 329.151C377.46 328.024 376.892 326.576 375.244 325.925C373.596 325.274 371.479 325.662 370.528 326.79C370.186 327.195 370.05 327.636 370.079 328.07C364.197 328.772 313.906 333.436 286.794 335.923L271.326 326.548L235.562 326.815C235.397 326.137 234.834 325.51 233.896 325.14C232.248 324.489 230.132 324.877 229.18 326.004C228.229 327.132 228.796 328.58 230.444 329.231C232.092 329.881 234.209 329.493 235.16 328.366C235.365 328.123 235.496 327.86 235.56 327.597L270.9 327.333L286.431 336.743L286.688 336.718C289.9 336.421 362.683 329.74 370.324 328.824C370.598 329.31 371.097 329.732 371.797 330.009L371.792 330.016ZM231.126 328.438C230.119 328.04 229.773 327.157 230.354 326.468C230.936 325.78 232.227 325.543 233.234 325.94C234.241 326.338 234.587 327.222 234.006 327.91C233.424 328.599 232.133 328.835 231.126 328.438ZM374.572 326.722C375.579 327.119 375.925 328.003 375.344 328.692C374.762 329.38 373.47 329.617 372.464 329.219C371.457 328.822 371.111 327.938 371.692 327.25C372.273 326.561 373.565 326.324 374.572 326.722Z" fill="#F99F1B"/>
<path d="M369.46 288.032C369.565 287.938 369.686 287.842 369.777 287.734C370.729 286.606 370.162 285.158 368.514 284.508C366.866 283.857 364.749 284.245 363.797 285.372C362.846 286.499 363.413 287.947 365.061 288.598C366.196 289.046 367.559 288.991 368.603 288.548L379.452 295.353L441.36 290.254L441.328 290.088C441.645 290.664 442.229 291.173 443.067 291.504C445.011 292.272 447.502 291.815 448.624 290.486C449.747 289.156 449.085 287.446 447.141 286.678C445.197 285.91 442.697 286.363 441.568 287.699C441.09 288.266 440.953 288.896 441.089 289.499L379.829 294.547L369.455 288.038L369.46 288.032ZM365.723 287.798C364.717 287.4 364.371 286.517 364.952 285.828C365.533 285.14 366.825 284.903 367.831 285.3C368.838 285.698 369.184 286.581 368.603 287.27C368.022 287.959 366.73 288.195 365.723 287.798ZM446.628 287.285C448.079 287.858 448.579 289.136 447.742 290.128C446.904 291.12 445.036 291.463 443.586 290.89C442.135 290.317 441.635 289.039 442.472 288.047C443.31 287.055 445.178 286.712 446.628 287.285Z" fill="#F99F1B"/>
<path d="M261.879 281.393C261.129 281.097 260.258 281.023 259.423 281.17C258.582 281.324 257.891 281.69 257.458 282.203C257.025 282.716 256.917 283.313 257.132 283.884C257.579 285.023 259.424 285.752 261.09 285.446C261.93 285.292 262.621 284.926 263.054 284.413C263.487 283.9 263.595 283.304 263.38 282.733C263.155 282.158 262.619 281.685 261.869 281.389L261.879 281.393ZM260.887 284.907C260.248 285.024 259.586 284.952 259.053 284.741C258.52 284.531 258.097 284.175 257.926 283.738C257.58 282.854 258.343 281.95 259.635 281.713C260.927 281.476 262.25 281.999 262.596 282.882C262.942 283.766 262.179 284.671 260.887 284.907Z" fill="#F99F1B"/>
<path d="M350.505 223.376C352.103 224.008 354.158 223.631 355.081 222.537C355.286 222.294 355.416 222.031 355.47 221.764L387.718 220.27L406.432 230.928L406.668 230.913C407.906 230.835 436.99 228.911 439.558 228.44L439.776 228.4L451.702 215.361L497.684 212.451C497.981 213.424 498.842 214.322 500.204 214.859C502.74 215.861 505.993 215.265 507.458 213.53C508.922 211.795 508.05 209.57 505.514 208.568C502.978 207.567 499.725 208.163 498.26 209.898C497.787 210.458 497.586 211.071 497.573 211.678L451.037 214.622L439.05 227.717C436.171 228.119 417.012 229.445 406.799 230.119L388.105 219.469L355.463 220.978C355.295 220.336 354.739 219.747 353.86 219.4C352.262 218.769 350.207 219.146 349.284 220.239C348.361 221.333 348.912 222.738 350.51 223.37L350.505 223.376ZM504.84 209.382C506.735 210.13 507.385 211.791 506.292 213.087C505.198 214.384 502.769 214.829 500.875 214.08C498.98 213.332 498.329 211.671 499.423 210.375C500.517 209.079 502.945 208.634 504.84 209.382ZM353.285 220.082C354.341 220.499 354.704 221.425 354.094 222.148C353.485 222.87 352.13 223.118 351.074 222.701C350.019 222.284 349.656 221.358 350.265 220.636C350.875 219.913 352.229 219.665 353.285 220.082Z" fill="#F99F1B"/>
<path d="M361.548 373.193C359.693 372.461 357.327 372.894 356.255 374.163C355.184 375.432 355.818 377.051 357.674 377.784C359.529 378.516 361.895 378.083 362.966 376.814C364.037 375.545 363.403 373.926 361.548 373.193Z" fill="#F99F1B"/>
<path d="M229.997 262.175L238.646 251.928L352.062 247.146L363.331 254.215L424.874 249.143C425.32 249.769 426.033 250.312 426.97 250.682C429.506 251.684 432.76 251.087 434.224 249.353C435.688 247.618 434.816 245.393 432.28 244.391C429.744 243.389 426.491 243.986 425.027 245.72C424.32 246.557 424.17 247.515 424.481 248.394L363.714 253.403L352.478 246.356L238.268 251.176L237.965 251.191L229.014 261.796C226.849 261.166 224.269 261.713 223.061 263.144C221.756 264.689 222.526 266.677 224.796 267.573C227.066 268.469 229.961 267.939 231.271 266.386C232.479 264.955 231.892 263.157 230.001 262.185L229.997 262.175ZM431.602 245.194C433.497 245.943 434.148 247.603 433.054 248.9C431.96 250.196 429.532 250.641 427.637 249.892C425.742 249.144 425.092 247.483 426.185 246.187C427.279 244.891 429.708 244.446 431.602 245.194ZM225.464 266.766C223.846 266.127 223.287 264.7 224.221 263.593C225.156 262.486 227.241 262.104 228.86 262.743C230.478 263.382 231.043 264.802 230.103 265.916C229.163 267.029 227.082 267.405 225.464 266.766Z" fill="#F99F1B"/>
<path d="M380.021 275.208C380.021 275.208 380.015 275.214 380.01 275.221C379.058 276.348 379.625 277.796 381.273 278.447C382.921 279.098 385.038 278.71 385.99 277.583C386.941 276.456 386.374 275.008 384.726 274.357C383.423 273.842 381.844 273.983 380.757 274.616L367.417 267.584L270.121 272.846L261.412 281.17L262.341 281.627L270.744 273.605L367.075 268.394L380.025 275.218L380.021 275.208ZM384.059 275.146C385.066 275.544 385.412 276.428 384.831 277.116C384.25 277.805 382.958 278.042 381.951 277.644C380.945 277.246 380.599 276.363 381.18 275.674C381.761 274.986 383.053 274.749 384.059 275.146Z" fill="#F99F1B"/>
<path d="M338.582 292.054C340.437 292.787 342.803 292.353 343.874 291.084C344.946 289.815 344.312 288.196 342.456 287.464C340.601 286.731 338.235 287.165 337.164 288.434C336.925 288.717 336.786 289.022 336.707 289.333L294.613 291.988C294.383 291.573 293.962 291.2 293.36 290.962C291.959 290.408 290.169 290.737 289.359 291.695C288.55 292.654 289.03 293.878 290.431 294.431C291.833 294.985 293.623 294.657 294.432 293.698C294.682 293.401 294.798 293.078 294.805 292.757L336.695 290.112C336.851 290.893 337.497 291.625 338.582 292.054ZM291.104 293.635C290.344 293.335 290.085 292.675 290.524 292.155C290.963 291.635 291.928 291.458 292.688 291.758C293.447 292.059 293.706 292.719 293.267 293.238C292.829 293.758 291.864 293.935 291.104 293.635Z" fill="#F99F1B"/>
<path d="M464.337 243.336C464.188 243.106 463.945 242.911 463.61 242.779C462.751 242.44 461.661 242.639 461.166 243.227C460.67 243.814 460.962 244.559 461.821 244.898C462.679 245.237 463.769 245.038 464.264 244.45C464.355 244.342 464.411 244.229 464.447 244.109L491.862 242.245C491.99 242.359 492.155 242.46 492.352 242.538C493.161 242.857 494.189 242.669 494.656 242.115C495.123 241.562 494.848 240.859 494.038 240.539C493.229 240.22 492.202 240.408 491.735 240.962C491.598 241.124 491.526 241.302 491.521 241.48L464.332 243.325L464.337 243.336Z" fill="#F99F1B"/>
<path d="M114.268 260.854C116.123 261.587 118.489 261.153 119.56 259.884C119.839 259.554 119.993 259.2 120.054 258.847L143.965 257.534L149.261 249.996L174.822 248.381C174.978 249.162 175.623 249.894 176.708 250.323C178.564 251.056 180.93 250.622 182.001 249.353C183.072 248.084 182.438 246.465 180.583 245.733C178.727 245 176.362 245.434 175.29 246.703C175.051 246.986 174.912 247.291 174.834 247.602L148.514 249.26L143.217 256.798L119.994 258.076C119.793 257.348 119.163 256.676 118.146 256.275C116.291 255.542 113.925 255.976 112.854 257.245C111.783 258.514 112.417 260.132 114.272 260.865L114.268 260.854Z" fill="#F99F1B"/>
<path d="M462.251 261.482L458.469 261.834L458.952 264.267L462.735 263.915L462.251 261.482Z" fill="#F99F1B"/>
<path d="M450.891 262.524L447.108 262.875L447.592 265.308L451.374 264.956L450.891 262.524Z" fill="#F99F1B"/>
<path d="M439.525 263.581L435.743 263.933L436.226 266.366L440.009 266.014L439.525 263.581Z" fill="#F99F1B"/>
<path d="M428.17 264.639L424.387 264.99L424.871 267.423L428.653 267.072L428.17 264.639Z" fill="#F99F1B"/>
<path d="M416.814 265.704L413.032 266.056L413.515 268.489L417.298 268.137L416.814 265.704Z" fill="#F99F1B"/>
<path d="M405.449 266.762L401.666 267.114L402.149 269.547L405.932 269.195L405.449 266.762Z" fill="#F99F1B"/>
<path d="M239.354 299.982L235.572 300.333L236.055 302.766L239.838 302.414L239.354 299.982Z" fill="#F99F1B"/>
<path d="M227.969 301.055L224.186 301.407L224.67 303.84L228.452 303.488L227.969 301.055Z" fill="#F99F1B"/>
<path d="M216.633 302.105L212.851 302.457L213.334 304.89L217.117 304.538L216.633 302.105Z" fill="#F99F1B"/>
<path d="M205.278 303.139L201.495 303.49L201.979 305.923L205.761 305.571L205.278 303.139Z" fill="#F99F1B"/>
<path d="M193.912 304.196L190.13 304.548L190.613 306.981L194.396 306.629L193.912 304.196Z" fill="#F99F1B"/>
<path d="M182.537 305.262L178.754 305.614L179.238 308.046L183.02 307.695L182.537 305.262Z" fill="#F99F1B"/>
<path d="M387.629 358.553L383.847 358.904L384.33 361.337L388.113 360.986L387.629 358.553Z" fill="#F99F1B"/>
<path d="M376.284 359.61L372.501 359.962L372.985 362.395L376.767 362.043L376.284 359.61Z" fill="#F99F1B"/>
<path d="M364.908 360.668L361.126 361.02L361.609 363.452L365.392 363.101L364.908 360.668Z" fill="#F99F1B"/>
<path d="M353.553 361.709L349.77 362.061L350.254 364.494L354.036 364.142L353.553 361.709Z" fill="#F99F1B"/>
<path d="M342.212 362.767L338.43 363.119L338.913 365.552L342.696 365.2L342.212 362.767Z" fill="#F99F1B"/>
<path d="M330.826 363.825L327.044 364.176L327.527 366.609L331.31 366.257L330.826 363.825Z" fill="#F99F1B"/>
<path d="M204.684 264.779L171.493 268.123L176.383 290.827L209.574 287.482L204.684 264.779ZM173.217 269.011L203.406 265.966L207.858 286.616L177.669 289.661L173.217 269.011Z" fill="#F99F1B"/>
<path d="M199.353 269.689L178.673 271.774L181.72 285.919L202.4 283.835L199.353 269.689ZM180.227 272.567L198.193 270.752L200.846 283.041L182.88 284.856L180.227 272.567Z" fill="#F99F1B"/>
<path d="M193.874 274.735L186.107 275.519L187.252 280.832L195.019 280.048L193.874 274.735Z" fill="#F99F1B"/>
<path d="M401.927 336.824L405.951 355.486L433.234 352.734L429.21 334.071L401.927 336.824ZM406.996 354.513L403.344 337.545L428.15 335.047L431.802 352.015L406.996 354.513Z" fill="#F99F1B"/>
<path d="M407.829 339.831L410.332 351.458L427.329 349.746L424.826 338.119L407.829 339.831ZM411.282 350.582L409.11 340.481L423.877 338.995L426.048 349.096L411.282 350.582Z" fill="#F99F1B"/>
<path d="M420.321 342.252L413.941 342.896L414.882 347.26L421.262 346.616L420.321 342.252Z" fill="#F99F1B"/>
<path d="M332.238 222.291L328.531 222.549L328.893 224.991L332.6 224.734L332.238 222.291Z" fill="#F99F1B"/>
<path d="M321.113 223.068L317.406 223.326L317.769 225.769L321.476 225.511L321.113 223.068Z" fill="#F99F1B"/>
<path d="M310.029 223.821L306.322 224.079L306.685 226.522L310.392 226.264L310.029 223.821Z" fill="#F99F1B"/>
<path d="M164.55 230.848C166.198 231.499 168.315 231.111 169.267 229.983C169.626 229.558 169.774 229.086 169.712 228.629L204.656 227.012L218.383 233.414L280.282 228.483C280.564 228.927 281.051 229.318 281.712 229.579C283.36 230.229 285.477 229.841 286.428 228.714C287.38 227.587 286.813 226.139 285.165 225.488C283.517 224.837 281.4 225.225 280.448 226.352C280.083 226.784 279.945 227.261 280.001 227.724L218.684 232.606L204.976 226.212L169.428 227.86C169.145 227.415 168.664 227.018 168.003 226.757C166.355 226.106 164.238 226.494 163.287 227.622C162.335 228.749 162.902 230.197 164.55 230.848ZM284.487 226.291C285.493 226.689 285.839 227.573 285.258 228.261C284.677 228.95 283.385 229.186 282.378 228.789C281.372 228.391 281.026 227.508 281.607 226.819C282.188 226.131 283.48 225.894 284.487 226.291ZM167.331 227.554C168.337 227.951 168.684 228.835 168.102 229.524C167.521 230.212 166.229 230.449 165.223 230.051C164.216 229.654 163.87 228.77 164.451 228.082C165.032 227.393 166.324 227.156 167.331 227.554Z" fill="#F99F1B"/>
<g style="mix-blend-mode:overlay" opacity="0.38">
<path d="M365.847 335.918C362.571 334.624 358.368 335.394 356.476 337.635C355.969 338.236 355.688 338.881 355.601 339.531L295.73 344.975L278.985 364.814L226.368 367.821C225.796 366.956 224.851 366.205 223.568 365.699C220.292 364.405 216.089 365.175 214.197 367.416C212.306 369.657 213.432 372.532 216.708 373.826C219.985 375.12 224.187 374.349 226.079 372.108C226.74 371.325 227.029 370.468 226.985 369.631L280.613 366.564L297.398 346.678L355.868 341.364C356.364 342.46 357.422 343.436 358.991 344.056C362.268 345.35 366.47 344.579 368.362 342.338C370.254 340.097 369.127 337.222 365.851 335.929L365.847 335.918ZM218.037 372.236C216.044 371.448 215.36 369.702 216.511 368.339C217.662 366.975 220.215 366.507 222.208 367.294C224.201 368.082 224.885 369.828 223.734 371.191C222.584 372.555 220.031 373.023 218.037 372.236ZM360.326 342.459C358.333 341.672 357.649 339.925 358.8 338.562C359.951 337.198 362.503 336.73 364.497 337.518C366.49 338.305 367.174 340.051 366.023 341.415C364.872 342.778 362.32 343.246 360.326 342.459Z" fill="#F99F1B"/>
</g>
<g style="mix-blend-mode:overlay" opacity="0.38">
<path d="M155.079 276.971C151.803 275.677 147.6 276.447 145.708 278.688C145.201 279.289 144.92 279.934 144.833 280.583L84.962 286.028L68.2172 305.866L15.6003 308.874C15.0279 308.009 14.083 307.258 12.8001 306.751C9.52387 305.457 5.32114 306.228 3.42959 308.469C1.53803 310.71 2.66417 313.585 5.94043 314.879C9.21668 316.172 13.4194 315.402 15.311 313.161C15.9719 312.378 16.2615 311.52 16.2175 310.684L69.8453 307.616L86.63 287.73L145.101 282.417C145.597 283.513 146.654 284.489 148.223 285.109C151.5 286.402 155.703 285.632 157.594 283.391C159.486 281.15 158.359 278.275 155.083 276.981L155.079 276.971ZM7.26946 313.288C5.27607 312.501 4.59204 310.755 5.74293 309.391C6.89381 308.028 9.44658 307.56 11.44 308.347C13.4334 309.134 14.1174 310.881 12.9665 312.244C11.8156 313.608 9.26284 314.076 7.26946 313.288ZM149.558 283.512C147.565 282.724 146.881 280.978 148.032 279.615C149.183 278.251 151.735 277.783 153.729 278.57C155.722 279.358 156.406 281.104 155.255 282.467C154.104 283.831 151.552 284.299 149.558 283.512Z" fill="#F99F1B"/>
</g>
<g style="mix-blend-mode:overlay" opacity="0.38">
<path d="M16.3954 235.817C16.5397 236.441 17.0379 236.989 17.7818 237.355C18.6088 237.762 19.6045 237.877 20.5198 237.743L30.7438 245.615L93.4461 244.844L93.4308 244.145C93.6784 244.756 94.1979 245.294 94.9558 245.674C95.8363 246.112 96.9136 246.285 97.9857 246.169C99.0578 246.052 100.002 245.651 100.642 245.049C101.282 244.446 101.535 243.709 101.365 242.976C101.194 242.243 100.608 241.597 99.727 241.159C99.6143 241.106 99.4917 241.048 99.3733 241.002C98.5641 240.682 97.625 240.563 96.6972 240.665C95.6251 240.781 94.6812 241.183 94.0412 241.785C93.6516 242.153 93.4312 242.57 93.3266 243.006L31.9374 243.764L22.7316 236.682C23.6655 235.637 23.3014 234.26 21.8235 233.533C21.7206 233.483 21.6276 233.437 21.5289 233.399C20.848 233.13 20.0501 233.03 19.2567 233.113C18.3444 233.212 17.5436 233.553 17.0089 234.061C16.4685 234.577 16.251 235.193 16.3954 235.817ZM94.8838 242.19C95.3574 241.738 96.0674 241.442 96.8665 241.353C97.6657 241.263 98.4761 241.394 99.1369 241.718C99.7976 242.042 100.23 242.528 100.36 243.074C100.491 243.621 100.3 244.175 99.826 244.627C99.3524 245.079 98.6424 245.375 97.8433 245.464C97.1474 245.541 96.4455 245.452 95.8436 245.215C95.7547 245.18 95.6659 245.145 95.5729 245.099C94.9122 244.775 94.48 244.289 94.3493 243.743C94.2186 243.196 94.4102 242.642 94.8838 242.19ZM18.0951 234.598C18.4236 234.287 18.9112 234.084 19.4685 234.016C20.0201 233.955 20.5891 234.044 21.0441 234.269C21.9839 234.73 22.2055 235.637 21.5158 236.282C20.8759 236.885 19.6819 237.052 18.7543 236.686C18.6951 236.662 18.626 236.635 18.5668 236.612C18.1117 236.387 17.8143 236.054 17.715 235.672C17.6256 235.295 17.751 234.913 18.0853 234.595L18.0951 234.598Z" fill="#F99F1B"/>
</g>
<g style="mix-blend-mode:overlay" opacity="0.38">
<path d="M461.647 222.59C461.853 223.202 462.394 223.731 463.176 224.067C464.037 224.434 465.042 224.507 465.95 224.334L476.888 231.75L539.395 228.265L539.313 227.566C539.613 228.162 540.175 228.681 540.977 229.025C541.892 229.422 542.983 229.547 544.054 229.385C545.116 229.219 546.022 228.785 546.598 228.148C547.179 227.523 547.367 226.769 547.125 226.043C546.882 225.318 546.247 224.698 545.317 224.303C545.199 224.257 545.071 224.206 544.952 224.159C544.114 223.873 543.167 223.796 542.245 223.936C541.184 224.102 540.278 224.537 539.702 225.173C539.352 225.557 539.161 225.985 539.107 226.423L477.908 229.84L468.064 223.171C468.899 222.088 468.411 220.734 466.866 220.07C466.757 220.027 466.659 219.988 466.56 219.949C465.856 219.707 465.055 219.643 464.269 219.764C463.373 219.905 462.6 220.275 462.109 220.81C461.618 221.345 461.456 221.974 461.657 222.594L461.647 222.59ZM540.562 225.557C540.996 225.09 541.668 224.761 542.46 224.633C543.247 224.512 544.06 224.608 544.759 224.902C545.443 225.199 545.923 225.659 546.11 226.201C546.288 226.739 546.157 227.299 545.717 227.773C545.283 228.241 544.611 228.57 543.819 228.698C543.135 228.806 542.421 228.749 541.796 228.538C541.707 228.503 541.618 228.468 541.519 228.429C540.836 228.132 540.356 227.672 540.168 227.13C539.991 226.592 540.122 226.032 540.562 225.557ZM463.235 221.3C463.534 220.977 464.004 220.748 464.552 220.659C465.101 220.57 465.672 220.642 466.144 220.847C467.128 221.271 467.427 222.164 466.807 222.836C466.22 223.469 465.037 223.686 464.085 223.364C464.026 223.34 463.957 223.313 463.898 223.29C463.426 223.085 463.091 222.764 462.961 222.389C462.831 222.013 462.931 221.63 463.235 221.3Z" fill="#F99F1B"/>
</g>
<g style="mix-blend-mode:overlay" opacity="0.38">
<path d="M33.8282 229.078C36.7492 230.232 40.5005 229.544 42.187 227.546C42.318 227.391 42.3982 227.234 42.4939 227.073L99.4276 224.438L132.616 243.342L133.608 243.274C139.112 242.91 187.555 239.703 192.116 238.867L193.019 238.701L214.081 215.68L295.171 210.552C295.905 211.913 297.269 213.118 299.243 213.897C303.733 215.67 309.502 214.619 312.1 211.54C314.698 208.462 313.145 204.519 308.655 202.746C304.165 200.973 298.39 202.031 295.798 205.102C295.205 205.804 294.854 206.548 294.685 207.309L211.284 212.587L189.997 235.843C183.931 236.561 154.313 238.635 134.107 239.97L100.981 221.101L42.4488 223.807C41.9423 223.004 41.0904 222.298 39.9063 221.83C36.9853 220.677 33.2339 221.364 31.5475 223.362C29.861 225.361 30.8662 227.927 33.7872 229.08L33.8282 229.078ZM307.494 204.168C310.849 205.493 311.994 208.439 310.057 210.734C308.12 213.029 303.818 213.823 300.463 212.498C297.108 211.173 295.962 208.227 297.9 205.932C299.837 203.637 304.138 202.843 307.494 204.168ZM38.7565 223.239C40.5426 223.945 41.1557 225.51 40.1245 226.732C39.0933 227.954 36.8051 228.373 35.019 227.668C33.2328 226.962 32.6197 225.397 33.6509 224.175C34.6822 222.953 36.9703 222.534 38.7565 223.239Z" fill="#F99F1B"/>
</g>
<g style="mix-blend-mode:overlay" opacity="0.38">
<path d="M348.68 319.901L345.074 320.155L345.261 322.361L348.868 322.106L348.68 319.901Z" fill="#F99F1B"/>
<path d="M338.163 320.517L334.557 320.772L334.745 322.978L338.351 322.723L338.163 320.517Z" fill="#F99F1B"/>
<path d="M327.657 321.143L324.05 321.397L324.238 323.603L327.844 323.348L327.657 321.143Z" fill="#F99F1B"/>
<path d="M317.14 321.759L313.534 322.014L313.721 324.22L317.327 323.965L317.14 321.759Z" fill="#F99F1B"/>
<path d="M306.623 322.409L303.017 322.663L303.204 324.869L306.81 324.614L306.623 322.409Z" fill="#F99F1B"/>
<path d="M296.116 323.009L292.51 323.264L292.697 325.47L296.304 325.215L296.116 323.009Z" fill="#F99F1B"/>
</g>
<g style="mix-blend-mode:overlay" opacity="0.38">
<path d="M512.412 209.299L505.351 209.797L505.718 214.125L512.779 213.627L512.412 209.299Z" fill="#F99F1B"/>
<path d="M491.8 210.533L484.739 211.031L485.107 215.359L492.168 214.86L491.8 210.533Z" fill="#F99F1B"/>
<path d="M471.203 211.751L464.142 212.249L464.51 216.577L471.571 216.078L471.203 211.751Z" fill="#F99F1B"/>
<path d="M450.612 212.968L443.551 213.467L443.918 217.795L450.979 217.296L450.612 212.968Z" fill="#F99F1B"/>
<path d="M430.015 214.194L422.954 214.693L423.322 219.02L430.383 218.522L430.015 214.194Z" fill="#F99F1B"/>
<path d="M409.424 215.42L402.362 215.919L402.73 220.246L409.791 219.748L409.424 215.42Z" fill="#F99F1B"/>
</g>
<path d="M195.837 105.631L283.004 101.472C283.187 102.129 283.747 102.728 284.664 103.091C286.312 103.741 288.429 103.353 289.381 102.226C290.332 101.099 289.765 99.6507 288.117 98.9999C286.469 98.3491 284.352 98.7371 283.401 99.8644C283.178 100.128 283.047 100.409 282.981 100.689L196.362 104.822L187.721 97.476L71.1856 107.201L71.3219 107.975L187.214 98.3107L195.837 105.631ZM287.435 99.7925C288.441 100.19 288.788 101.074 288.206 101.762C287.625 102.451 286.333 102.688 285.327 102.29C284.32 101.893 283.974 101.009 284.555 100.32C285.136 99.6318 286.428 99.395 287.435 99.7925Z" fill="#F99F1B"/>
<path d="M233.327 60.5271C234.936 61.1624 237.006 60.7829 237.935 59.6826C238.863 58.5824 238.308 57.1663 236.7 56.531C235.091 55.8958 233.021 56.2752 232.093 57.3755C231.164 58.4758 231.719 59.8919 233.327 60.5271ZM236.33 56.9698C237.593 57.4686 238.017 58.572 237.293 59.4293C236.57 60.2866 234.951 60.5833 233.697 60.0883C232.444 59.5934 232.01 58.4861 232.734 57.6288C233.458 56.7715 235.076 56.4748 236.33 56.9698Z" fill="#F99F1B"/>
<path d="M231.594 58.7252L170.746 64.2516L153.99 84.1038L100.044 87.1898L100.139 87.9655L154.675 84.8513L171.454 64.9721L231.736 59.4922L231.594 58.7252Z" fill="#F99F1B"/>
<path d="M177.199 81.8348C175.551 81.1839 173.434 81.5719 172.483 82.6992C171.531 83.8265 172.099 85.2745 173.747 85.9254C175.395 86.5762 177.511 86.1882 178.463 85.0609C178.805 84.6559 178.941 84.2145 178.912 83.7803C184.794 83.0789 235.085 78.4146 262.197 75.9275L277.665 85.3031L313.429 85.036C313.594 85.7132 314.157 86.3404 315.094 86.7107C316.742 87.3615 318.859 86.9735 319.811 85.8462C320.762 84.719 320.195 83.2709 318.547 82.6201C316.899 81.9692 314.782 82.3573 313.831 83.4845C313.625 83.7275 313.495 83.9911 313.431 84.2538L278.091 84.5174L262.56 75.1078L262.302 75.1321C259.091 75.4298 186.308 82.111 178.667 83.0264C178.393 82.5403 177.894 82.1182 177.193 81.8415L177.199 81.8348ZM317.88 83.4099C318.887 83.8074 319.233 84.6911 318.652 85.3796C318.071 86.0681 316.779 86.3049 315.772 85.9074C314.766 85.5099 314.42 84.6262 315.001 83.9376C315.582 83.2491 316.874 83.0123 317.88 83.4099ZM174.419 85.1288C173.412 84.7313 173.066 83.8476 173.647 83.1591C174.228 82.4706 175.52 82.2338 176.527 82.6313C177.533 83.0288 177.88 83.9125 177.298 84.601C176.717 85.2896 175.425 85.5264 174.419 85.1288Z" fill="#F99F1B"/>
<path d="M179.546 123.803C179.441 123.896 179.32 123.993 179.229 124.101C178.277 125.228 178.845 126.676 180.493 127.327C182.141 127.978 184.258 127.59 185.209 126.462C186.161 125.335 185.593 123.887 183.945 123.236C182.81 122.788 181.448 122.844 180.403 123.286L169.555 116.482L107.647 121.581L107.678 121.746C107.361 121.171 106.778 120.662 105.939 120.33C103.995 119.562 101.504 120.019 100.382 121.349C99.2596 122.679 99.9212 124.389 101.865 125.157C103.809 125.924 106.31 125.472 107.438 124.135C107.916 123.568 108.053 122.938 107.917 122.336L169.178 117.287L179.552 123.796L179.546 123.803ZM183.273 124.033C184.28 124.43 184.626 125.314 184.045 126.002C183.463 126.691 182.172 126.928 181.165 126.53C180.158 126.133 179.812 125.249 180.393 124.56C180.975 123.872 182.266 123.635 183.273 124.033ZM102.378 124.549C100.927 123.976 100.427 122.699 101.264 121.706C102.102 120.714 103.97 120.372 105.42 120.945C106.871 121.517 107.372 122.795 106.534 123.787C105.697 124.78 103.829 125.122 102.378 124.549Z" fill="#F99F1B"/>
<path d="M287.125 130.453C287.875 130.749 288.747 130.823 289.582 130.676C290.422 130.522 291.113 130.155 291.546 129.642C291.979 129.129 292.088 128.533 291.872 127.962C291.426 126.823 289.581 126.094 287.915 126.399C287.075 126.553 286.384 126.92 285.951 127.433C285.518 127.946 285.409 128.542 285.625 129.113C285.85 129.688 286.385 130.16 287.135 130.457L287.125 130.453ZM288.112 126.945C288.75 126.828 289.413 126.901 289.946 127.111C290.479 127.322 290.902 127.678 291.073 128.114C291.419 128.998 290.655 129.903 289.363 130.139C288.072 130.376 286.749 129.854 286.403 128.97C286.057 128.087 286.82 127.182 288.112 126.945Z" fill="#F99F1B"/>
<path d="M198.502 188.462C196.904 187.831 194.849 188.208 193.926 189.301C193.721 189.544 193.591 189.808 193.537 190.074L161.289 191.568L142.575 180.91L142.339 180.925C141.102 181.004 112.017 182.928 109.449 183.399L109.231 183.439L97.3051 196.477L51.3232 199.387C51.0257 198.415 50.1651 197.517 48.8033 196.979C46.2671 195.977 43.0139 196.574 41.5497 198.309C40.0854 200.043 40.9571 202.269 43.4933 203.27C46.0294 204.272 49.2826 203.676 50.7469 201.941C51.2198 201.38 51.4216 200.767 51.4341 200.16L97.9702 197.217L109.957 184.121C112.836 183.719 131.995 182.393 142.208 181.72L160.903 192.37L193.544 190.86C193.713 191.503 194.268 192.091 195.147 192.438C196.745 193.069 198.8 192.693 199.723 191.599C200.646 190.506 200.095 189.1 198.497 188.469L198.502 188.462ZM44.1671 202.456C42.2724 201.708 41.6217 200.047 42.7156 198.751C43.8096 197.455 46.2378 197.01 48.1325 197.758C50.0272 198.506 50.6779 200.167 49.5839 201.463C48.49 202.759 46.0618 203.205 44.1671 202.456ZM195.722 191.756C194.666 191.339 194.303 190.413 194.913 189.691C195.523 188.968 196.877 188.72 197.933 189.137C198.989 189.554 199.352 190.481 198.742 191.203C198.132 191.925 196.778 192.173 195.722 191.756Z" fill="#F99F1B"/>
<path d="M187.441 38.6495C189.296 39.3822 191.662 38.9486 192.733 37.6795C193.804 36.4105 193.171 34.7921 191.315 34.0594C189.46 33.3268 187.094 33.7604 186.023 35.0294C184.952 36.2985 185.586 37.9169 187.441 38.6495Z" fill="#F99F1B"/>
<path d="M319 149.668L310.351 159.915L196.935 164.697L185.665 157.628L124.122 162.7C123.677 162.074 122.964 161.531 122.026 161.161C119.49 160.159 116.237 160.756 114.773 162.49C113.308 164.225 114.18 166.451 116.716 167.452C119.252 168.454 122.506 167.857 123.97 166.123C124.676 165.286 124.827 164.328 124.516 163.449L185.283 158.44L196.518 165.487L310.729 160.667L311.032 160.652L319.982 150.047C322.148 150.678 324.728 150.13 325.936 148.699C327.24 147.154 326.47 145.167 324.201 144.27C321.931 143.374 319.036 143.904 317.725 145.457C316.517 146.888 317.105 148.686 318.995 149.658L319 149.668ZM117.398 166.659C115.504 165.911 114.853 164.25 115.947 162.954C117.041 161.658 119.469 161.213 121.364 161.961C123.259 162.71 123.909 164.371 122.815 165.667C121.721 166.963 119.293 167.408 117.398 166.659ZM323.527 145.084C325.145 145.723 325.704 147.15 324.77 148.257C323.835 149.364 321.75 149.746 320.131 149.107C318.513 148.468 317.948 147.048 318.888 145.934C319.828 144.82 321.908 144.445 323.527 145.084Z" fill="#F99F1B"/>
<path d="M168.974 136.639C168.974 136.639 168.98 136.632 168.986 136.625C169.937 135.498 169.37 134.05 167.722 133.399C166.074 132.748 163.957 133.136 163.006 134.263C162.054 135.391 162.621 136.839 164.269 137.49C165.572 138.004 167.152 137.863 168.238 137.23L181.579 144.262L278.874 139L287.584 130.676L286.654 130.219L278.252 138.241L181.92 143.452L168.97 136.628L168.974 136.639ZM164.942 136.693C163.935 136.295 163.589 135.412 164.17 134.723C164.751 134.035 166.043 133.798 167.05 134.195C168.056 134.593 168.402 135.477 167.821 136.165C167.24 136.854 165.948 137.091 164.942 136.693Z" fill="#F99F1B"/>
<path d="M210.413 119.797C208.557 119.064 206.192 119.498 205.12 120.767C204.049 122.036 204.683 123.654 206.538 124.387C208.394 125.119 210.76 124.686 211.831 123.417C212.07 123.133 212.209 122.828 212.288 122.517L254.382 119.863C254.611 120.277 255.033 120.651 255.635 120.889C257.036 121.442 258.826 121.114 259.635 120.155C260.444 119.197 259.965 117.972 258.563 117.419C257.162 116.866 255.372 117.194 254.563 118.152C254.312 118.449 254.197 118.773 254.189 119.094L212.3 121.739C212.144 120.957 211.498 120.225 210.413 119.797ZM257.891 118.216C258.651 118.516 258.91 119.176 258.471 119.696C258.032 120.215 257.067 120.392 256.307 120.092C255.547 119.792 255.289 119.132 255.728 118.612C256.166 118.092 257.131 117.915 257.891 118.216Z" fill="#F99F1B"/>
<path d="M84.6635 168.497C84.8118 168.726 85.0551 168.921 85.3906 169.054C86.2491 169.393 87.3388 169.193 87.8344 168.606C88.3301 168.019 88.0381 167.273 87.1796 166.934C86.3211 166.595 85.2315 166.795 84.7358 167.382C84.6446 167.49 84.5888 167.603 84.5526 167.724L57.138 169.588C57.0101 169.474 56.8454 169.373 56.6481 169.295C55.8389 168.975 54.8115 169.164 54.3444 169.717C53.8772 170.271 54.1524 170.974 54.9616 171.293C55.7708 171.613 56.7982 171.424 57.2654 170.871C57.4021 170.709 57.4739 170.53 57.4793 170.352L84.6677 168.507L84.6635 168.497Z" fill="#F99F1B"/>
<path d="M434.743 150.996C432.888 150.264 430.522 150.697 429.451 151.966C429.171 152.297 429.018 152.651 428.956 153.004L405.046 154.317L399.749 161.855L374.189 163.47C374.033 162.688 373.388 161.957 372.302 161.528C370.447 160.795 368.081 161.229 367.01 162.498C365.939 163.767 366.573 165.385 368.428 166.118C370.283 166.851 372.649 166.417 373.72 165.148C373.96 164.864 374.099 164.559 374.177 164.248L400.496 162.591L405.793 155.053L429.016 153.775C429.218 154.503 429.848 155.174 430.864 155.576C432.72 156.309 435.086 155.875 436.157 154.606C437.228 153.337 436.594 151.718 434.739 150.986L434.743 150.996Z" fill="#F99F1B"/>
<path d="M90.0701 147.569L86.2876 147.921L86.7711 150.354L90.5536 150.002L90.0701 147.569Z" fill="#F99F1B"/>
<path d="M101.411 146.512L97.6281 146.863L98.1115 149.296L101.894 148.944L101.411 146.512Z" fill="#F99F1B"/>
<path d="M112.776 145.454L108.994 145.806L109.477 148.239L113.26 147.887L112.776 145.454Z" fill="#F99F1B"/>
<path d="M124.137 144.404L120.354 144.756L120.838 147.189L124.62 146.837L124.137 144.404Z" fill="#F99F1B"/>
<path d="M135.492 143.347L131.71 143.698L132.193 146.131L135.976 145.78L135.492 143.347Z" fill="#F99F1B"/>
<path d="M146.858 142.281L143.075 142.633L143.559 145.066L147.341 144.714L146.858 142.281Z" fill="#F99F1B"/>
<path d="M312.962 109.062L309.179 109.413L309.663 111.846L313.445 111.495L312.962 109.062Z" fill="#F99F1B"/>
<path d="M324.317 108.004L320.535 108.356L321.018 110.789L324.801 110.437L324.317 108.004Z" fill="#F99F1B"/>
<path d="M335.678 106.938L331.896 107.29L332.379 109.723L336.161 109.371L335.678 106.938Z" fill="#F99F1B"/>
<path d="M347.044 105.897L343.261 106.248L343.745 108.681L347.527 108.33L347.044 105.897Z" fill="#F99F1B"/>
<path d="M358.394 104.855L354.612 105.207L355.095 107.64L358.878 107.288L358.394 104.855Z" fill="#F99F1B"/>
<path d="M369.76 103.798L365.977 104.149L366.461 106.582L370.243 106.23L369.76 103.798Z" fill="#F99F1B"/>
<path d="M164.667 50.4909L160.885 50.8425L161.368 53.2754L165.15 52.9237L164.667 50.4909Z" fill="#F99F1B"/>
<path d="M176.013 49.4411L172.23 49.7927L172.713 52.2256L176.496 51.8739L176.013 49.4411Z" fill="#F99F1B"/>
<path d="M187.388 48.3915L183.606 48.7432L184.089 51.176L187.872 50.8244L187.388 48.3915Z" fill="#F99F1B"/>
<path d="M198.749 47.3419L194.966 47.6936L195.45 50.1265L199.232 49.7748L198.749 47.3419Z" fill="#F99F1B"/>
<path d="M210.099 46.2682L206.317 46.6199L206.8 49.0527L210.583 48.7011L210.099 46.2682Z" fill="#F99F1B"/>
<path d="M221.47 45.2187L217.687 45.5703L218.171 48.0032L221.953 47.6515L221.47 45.2187Z" fill="#F99F1B"/>
<path d="M344.315 147.06L377.506 143.716L372.616 121.012L339.426 124.357L344.315 147.06ZM375.776 142.834L345.588 145.88L341.136 125.23L371.324 122.185L375.776 142.834Z" fill="#F99F1B"/>
<path d="M349.643 142.152L370.322 140.068L367.275 125.922L346.595 128.007L349.643 142.152ZM368.763 139.281L350.797 141.096L348.144 128.807L366.109 126.992L368.763 139.281Z" fill="#F99F1B"/>
<path d="M361.781 130.984L354.014 131.768L355.16 137.081L362.927 136.297L361.781 130.984Z" fill="#F99F1B"/>
<path d="M147.076 75.007L143.052 56.3444L115.769 59.0969L119.793 77.7594L147.076 75.007ZM142.001 57.3244L145.653 74.292L120.848 76.7901L117.196 59.8225L142.001 57.3244Z" fill="#F99F1B"/>
<path d="M141.18 72.003L138.678 60.3765L121.681 62.0882L124.183 73.7146L141.18 72.003ZM137.718 61.2485L139.89 71.3494L125.123 72.8348L122.952 62.734L137.718 61.2485Z" fill="#F99F1B"/>
<path d="M134.153 64.5411L127.772 65.1848L128.713 69.5492L135.094 68.9055L134.153 64.5411Z" fill="#F99F1B"/>
<path d="M220.074 186.868L216.366 187.126L216.729 189.568L220.436 189.311L220.074 186.868Z" fill="#F99F1B"/>
<path d="M231.203 186.091L227.496 186.349L227.859 188.791L231.566 188.534L231.203 186.091Z" fill="#F99F1B"/>
<path d="M242.363 185.297L238.656 185.555L239.019 187.998L242.726 187.74L242.363 185.297Z" fill="#F99F1B"/>
<path d="M384.456 181.003C382.808 180.352 380.691 180.74 379.74 181.867C379.381 182.293 379.232 182.765 379.294 183.221L344.351 184.839L330.624 178.436L268.725 183.368C268.443 182.923 267.956 182.533 267.295 182.272C265.647 181.621 263.53 182.009 262.579 183.137C261.627 184.264 262.194 185.712 263.842 186.363C265.49 187.014 267.607 186.626 268.559 185.498C268.923 185.066 269.062 184.59 269.006 184.127L330.323 179.245L344.031 185.639L379.579 183.991C379.862 184.436 380.343 184.832 381.004 185.093C382.652 185.744 384.769 185.356 385.72 184.229C386.672 183.102 386.104 181.654 384.456 181.003ZM264.505 185.562C263.498 185.165 263.152 184.281 263.733 183.593C264.314 182.904 265.606 182.667 266.613 183.065C267.619 183.462 267.966 184.346 267.384 185.035C266.803 185.723 265.511 185.96 264.505 185.562ZM381.676 184.297C380.669 183.899 380.323 183.016 380.904 182.327C381.486 181.639 382.777 181.402 383.784 181.799C384.791 182.197 385.137 183.081 384.556 183.769C383.975 184.458 382.683 184.694 381.676 184.297Z" fill="#F99F1B"/>
<g style="mix-blend-mode:overlay" opacity="0.38">
<path d="M183.154 75.9198C186.43 77.2136 190.633 76.4433 192.524 74.2023C193.031 73.6015 193.313 72.9566 193.4 72.3072L253.271 66.8628L270.016 47.0241L322.633 44.0162C323.205 44.8813 324.15 45.6325 325.433 46.1391C328.709 47.433 332.912 46.6627 334.803 44.4216C336.695 42.1806 335.569 39.3058 332.292 38.0119C329.016 36.718 324.813 37.4883 322.922 39.7294C322.261 40.5124 321.971 41.37 322.015 42.2064L268.388 45.2741L251.603 65.1601L193.132 70.4733C192.636 69.3774 191.578 68.4016 190.009 67.7819C186.733 66.4881 182.53 67.2584 180.639 69.4994C178.747 71.7405 179.873 74.6153 183.15 75.9091L183.154 75.9198ZM330.963 39.6021C332.957 40.3893 333.641 42.1355 332.49 43.499C331.339 44.8626 328.786 45.3304 326.793 44.5432C324.8 43.756 324.116 42.0098 325.266 40.6463C326.417 39.2827 328.97 38.8149 330.963 39.6021ZM188.669 69.3856C190.662 70.1729 191.346 71.919 190.195 73.2825C189.045 74.6461 186.492 75.114 184.498 74.3267C182.505 73.5395 181.821 71.7933 182.972 70.4298C184.123 69.0663 186.676 68.5984 188.669 69.3856Z" fill="#F99F1B"/>
</g>
<g style="mix-blend-mode:overlay" opacity="0.38">
<path d="M393.922 134.875C397.198 136.169 401.401 135.399 403.292 133.158C403.799 132.557 404.081 131.912 404.168 131.262L464.039 125.818L480.784 105.979L533.4 102.972C533.973 103.837 534.918 104.588 536.201 105.094C539.477 106.388 543.68 105.618 545.571 103.377C547.463 101.136 546.337 98.2611 543.06 96.9672C539.784 95.6734 535.581 96.4436 533.69 98.6847C533.029 99.4677 532.739 100.325 532.783 101.162L479.155 104.229L462.371 124.115L403.9 129.429C403.404 128.333 402.346 127.357 400.777 126.737C397.501 125.443 393.298 126.214 391.407 128.455C389.515 130.696 390.641 133.571 393.918 134.864L393.922 134.875ZM541.731 98.5574C543.725 99.3446 544.409 101.091 543.258 102.454C542.107 103.818 539.554 104.286 537.561 103.499C535.567 102.711 534.883 100.965 536.034 99.6016C537.185 98.2381 539.738 97.7702 541.731 98.5574ZM399.443 128.334C401.436 129.121 402.12 130.868 400.969 132.231C399.818 133.595 397.265 134.063 395.272 133.275C393.279 132.488 392.595 130.742 393.746 129.378C394.896 128.015 397.449 127.547 399.443 128.334Z" fill="#F99F1B"/>
</g>
<g style="mix-blend-mode:overlay" opacity="0.38">
<path d="M532.601 176.02C532.457 175.396 531.958 174.849 531.215 174.483C530.388 174.075 529.392 173.961 528.477 174.095L518.253 166.223L455.55 166.994L455.566 167.693C455.318 167.082 454.798 166.544 454.041 166.163C453.16 165.726 452.083 165.552 451.011 165.669C449.939 165.786 448.995 166.187 448.355 166.789C447.715 167.391 447.461 168.128 447.632 168.862C447.802 169.595 448.389 170.241 449.269 170.678C449.382 170.732 449.505 170.789 449.623 170.836C450.432 171.156 451.371 171.274 452.299 171.173C453.371 171.056 454.315 170.655 454.955 170.053C455.345 169.685 455.565 169.268 455.67 168.832L517.059 168.073L526.265 175.156C525.331 176.2 525.695 177.577 527.173 178.305C527.276 178.354 527.369 178.4 527.467 178.439C528.148 178.708 528.946 178.807 529.74 178.724C530.652 178.626 531.453 178.285 531.987 177.776C532.528 177.261 532.745 176.644 532.601 176.02ZM454.113 169.648C453.639 170.1 452.929 170.396 452.13 170.485C451.331 170.574 450.52 170.443 449.859 170.119C449.199 169.795 448.767 169.31 448.636 168.763C448.505 168.216 448.697 167.662 449.17 167.21C449.644 166.758 450.354 166.463 451.153 166.373C451.849 166.297 452.551 166.385 453.153 166.623C453.242 166.658 453.33 166.693 453.423 166.739C454.084 167.063 454.516 167.548 454.647 168.095C454.778 168.642 454.586 169.196 454.113 169.648ZM530.896 177.246C530.567 177.557 530.08 177.761 529.522 177.829C528.971 177.89 528.402 177.8 527.947 177.575C527.007 177.114 526.785 176.208 527.475 175.562C528.115 174.96 529.309 174.792 530.236 175.158C530.296 175.182 530.365 175.209 530.424 175.233C530.879 175.457 531.176 175.791 531.276 176.172C531.365 176.549 531.24 176.932 530.905 177.25L530.896 177.246Z" fill="#F99F1B"/>
</g>
<g style="mix-blend-mode:overlay" opacity="0.38">
<path d="M87.3541 189.257C87.1475 188.644 86.6068 188.116 85.8246 187.78C84.9634 187.413 83.959 187.34 83.0504 187.512L72.1126 180.097L9.60602 183.582L9.6877 184.28C9.3877 183.685 8.82572 183.166 8.02375 182.822C7.10905 182.425 6.01734 182.3 4.94636 182.462C3.88525 182.628 2.97928 183.062 2.40272 183.698C1.82199 184.324 1.63335 185.077 1.87596 185.803C2.11858 186.529 2.75338 187.149 3.68364 187.543C3.80206 187.59 3.93035 187.641 4.04876 187.687C4.88645 187.973 5.83432 188.05 6.75534 187.91C7.81645 187.744 8.72242 187.31 9.29898 186.674C9.64916 186.29 9.83995 185.861 9.89368 185.423L71.0924 182.007L80.9369 188.676C80.1017 189.759 80.5903 191.113 82.1351 191.777C82.2436 191.82 82.3423 191.859 82.441 191.898C83.1447 192.14 83.9457 192.204 84.7323 192.083C85.6279 191.941 86.4006 191.571 86.8917 191.036C87.3828 190.501 87.5451 189.872 87.3442 189.253L87.3541 189.257ZM8.43363 186.296C7.99951 186.764 7.32743 187.092 6.53511 187.22C5.74849 187.342 4.935 187.245 4.23588 186.951C3.55232 186.654 3.07195 186.195 2.88467 185.653C2.70726 185.114 2.83812 184.554 3.27794 184.08C3.71206 183.612 4.38413 183.284 5.17645 183.156C5.85982 183.047 6.57463 183.105 7.19938 183.315C7.28819 183.35 7.37701 183.386 7.47569 183.425C8.15924 183.721 8.63962 184.181 8.8269 184.723C9.00431 185.261 8.87345 185.822 8.43363 186.296ZM85.7754 190.55C85.4765 190.873 85.0072 191.102 84.4582 191.191C83.9093 191.28 83.3387 191.208 82.8666 191.004C81.8828 190.579 81.5833 189.687 82.2039 189.014C82.7904 188.382 83.9734 188.165 84.9253 188.487C84.9845 188.51 85.0536 188.537 85.1128 188.561C85.5849 188.765 85.9192 189.086 86.0497 189.462C86.1801 189.837 86.08 190.221 85.7754 190.55Z" fill="#F99F1B"/>
</g>
<g style="mix-blend-mode:overlay" opacity="0.38">
<path d="M515.167 182.753C512.246 181.6 508.495 182.287 506.808 184.285C506.677 184.441 506.597 184.598 506.502 184.758L449.568 187.393L416.379 168.49L415.388 168.558C409.883 168.922 361.44 172.129 356.879 172.965L355.977 173.13L334.914 196.151L253.824 201.279C253.091 199.919 251.726 198.714 249.753 197.935C245.263 196.161 239.493 197.213 236.895 200.291C234.297 203.369 235.85 207.313 240.341 209.086C244.831 210.859 250.605 209.801 253.198 206.729C253.79 206.027 254.141 205.284 254.31 204.523L337.711 199.245L358.998 175.989C365.065 175.27 394.683 173.197 414.889 171.862L448.014 190.731L506.547 188.025C507.053 188.828 507.905 189.533 509.089 190.001C512.01 191.155 515.762 190.467 517.448 188.469C519.134 186.471 518.129 183.905 515.208 182.751L515.167 182.753ZM241.506 207.674C238.151 206.349 237.005 203.403 238.942 201.108C240.879 198.813 245.181 198.019 248.537 199.344C251.892 200.669 253.037 203.615 251.1 205.91C249.163 208.205 244.861 208.999 241.506 207.674ZM510.239 188.592C508.453 187.887 507.84 186.322 508.871 185.1C509.902 183.878 512.19 183.459 513.976 184.164C515.763 184.869 516.376 186.435 515.345 187.656C514.313 188.878 512.025 189.298 510.239 188.592Z" fill="#F99F1B"/>
</g>
<g style="mix-blend-mode:overlay" opacity="0.38">
<path d="M203.729 89.5038L200.123 89.7583L200.31 91.9639L203.916 91.7094L203.729 89.5038Z" fill="#F99F1B"/>
<path d="M214.246 88.8949L210.64 89.1494L210.827 91.355L214.433 91.1005L214.246 88.8949Z" fill="#F99F1B"/>
<path d="M224.758 88.2618L221.152 88.5164L221.339 90.722L224.945 90.4675L224.758 88.2618Z" fill="#F99F1B"/>
<path d="M235.275 87.6368L231.668 87.8914L231.856 90.097L235.462 89.8425L235.275 87.6368Z" fill="#F99F1B"/>
<path d="M245.781 87.0201L242.175 87.2747L242.362 89.4803L245.969 89.2258L245.781 87.0201Z" fill="#F99F1B"/>
<path d="M256.308 86.3871L252.702 86.6416L252.889 88.8472L256.495 88.5927L256.308 86.3871Z" fill="#F99F1B"/>
</g>
<g style="mix-blend-mode:overlay" opacity="0.38">
<path d="M43.3078 220.317L36.2468 220.815L36.6144 225.143L43.6754 224.645L43.3078 220.317Z" fill="#F99F1B"/>
<path d="M63.8744 219.091L56.8133 219.589L57.1809 223.917L64.242 223.419L63.8744 219.091Z" fill="#F99F1B"/>
<path d="M84.4811 217.865L77.42 218.364L77.7876 222.691L84.8487 222.193L84.4811 217.865Z" fill="#F99F1B"/>
<path d="M105.078 216.647L98.0166 217.146L98.3842 221.474L105.445 220.975L105.078 216.647Z" fill="#F99F1B"/>
<path d="M125.654 215.43L118.593 215.928L118.961 220.256L126.022 219.757L125.654 215.43Z" fill="#F99F1B"/>
<path d="M146.266 214.204L139.205 214.702L139.573 219.03L146.634 218.531L146.266 214.204Z" fill="#F99F1B"/>
</g>
</g>
</svg>
