<svg width="385" height="321" viewBox="0 0 385 321" fill="none" xmlns="http://www.w3.org/2000/svg">
<path d="M370.908 166.436C370.908 209.484 353.325 248.288 325.131 276.178C297.545 303.767 259.348 320.44 217.209 320.44C175.374 320.44 137.176 303.464 109.286 276.178C81.0927 248.288 63.5098 209.484 63.5098 166.436C63.5098 81.2497 132.326 12.4336 217.209 12.4336C302.092 12.4336 370.908 81.5528 370.908 166.436Z" fill="#EAEEF9"/>
<path d="M357.568 65.4759C364.434 65.4759 369.997 59.9112 369.997 53.0465C369.997 46.1819 364.434 40.6172 357.568 40.6172C350.705 40.6172 345.139 46.1819 345.139 53.0465C345.139 59.9112 350.705 65.4759 357.568 65.4759Z" fill="#EAEEF9"/>
<path d="M375.757 16.9767C380.447 16.9767 384.245 13.1763 384.245 8.48832C384.245 3.80037 380.447 0 375.757 0C371.07 0 367.269 3.80037 367.269 8.48832C367.269 13.1763 371.07 16.9767 375.757 16.9767Z" fill="#EAEEF9"/>
<path d="M68.3594 65.172C73.0474 65.172 76.8478 61.3716 76.8478 56.6836C76.8478 51.9957 73.0474 48.1953 68.3594 48.1953C63.6714 48.1953 59.8711 51.9957 59.8711 56.6836C59.8711 61.3716 63.6714 65.172 68.3594 65.172Z" fill="#EAEEF9"/>
<path d="M16.5199 228.887C25.2261 228.887 32.284 221.83 32.284 213.123C32.284 204.417 25.2261 197.359 16.5199 197.359C7.81366 197.359 0.755859 204.417 0.755859 213.123C0.755859 221.83 7.81366 228.887 16.5199 228.887Z" fill="#EAEEF9"/>
<g filter="url(#filter0_d_3191_14500)">
<path d="M354.595 78.1619V246.124C354.595 253.115 348.998 258.653 342.138 258.653H89.1411C82.2813 258.653 76.5947 253.024 76.5947 246.124V78.1619C76.5947 71.2618 82.191 65.6328 89.1411 65.6328H342.138C348.998 65.6328 354.595 71.2618 354.595 78.1619Z" fill="url(#paint0_linear_3191_14500)"/>
</g>
<path d="M354.595 78.158V96.9518H76.5947V78.158C76.5947 71.2579 82.191 65.6289 89.1411 65.6289H342.138C348.998 65.6289 354.595 71.2579 354.595 78.158Z" fill="#D5DDEA"/>
<path d="M94.1049 85.9655C96.6968 85.9655 98.7983 83.8519 98.7983 81.2445C98.7983 78.637 96.6968 76.5234 94.1049 76.5234C91.5126 76.5234 89.4111 78.637 89.4111 81.2445C89.4111 83.8519 91.5126 85.9655 94.1049 85.9655Z" fill="#989FB0"/>
<path d="M109.448 85.9655C112.04 85.9655 114.142 83.8519 114.142 81.2445C114.142 78.637 112.04 76.5234 109.448 76.5234C106.856 76.5234 104.755 78.637 104.755 81.2445C104.755 83.8519 106.856 85.9655 109.448 85.9655Z" fill="#989FB0"/>
<path d="M124.702 85.9655C127.295 85.9655 129.396 83.8519 129.396 81.2445C129.396 78.637 127.295 76.5234 124.702 76.5234C122.11 76.5234 120.009 78.637 120.009 81.2445C120.009 83.8519 122.11 85.9655 124.702 85.9655Z" fill="#989FB0"/>
<path d="M134.631 211.355H296.557" stroke="#D5DDEA" stroke-width="2" stroke-miterlimit="10" stroke-linecap="round" stroke-linejoin="round"/>
<path d="M160.174 228.691H271.013" stroke="#D5DDEA" stroke-width="2" stroke-miterlimit="10" stroke-linecap="round" stroke-linejoin="round"/>
<path d="M188.515 162.511V171.862H182.829V180.851H172.178V171.862H148.711V161.149L170.463 130.734H182.919V162.602H188.515V162.511ZM172.178 143.173L158.64 162.511H172.178V143.173Z" fill="url(#paint1_linear_3191_14500)"/>
<path d="M215.232 181.846C203.86 181.846 193.841 171.859 193.841 155.698C193.841 139.538 203.769 129.551 215.232 129.551C226.696 129.551 236.624 139.538 236.624 155.698C236.624 171.859 226.696 181.846 215.232 181.846ZM215.232 172.222C220.558 172.222 225.883 166.865 225.883 155.789C225.883 144.713 220.558 139.356 215.232 139.356C209.907 139.356 204.582 144.713 204.582 155.789C204.582 166.865 209.907 172.222 215.232 172.222Z" fill="url(#paint2_linear_3191_14500)"/>
<path d="M282.566 162.511V171.862H276.88V180.851H266.229V171.862H242.762V161.149L264.514 130.734H276.97V162.602H282.566V162.511ZM266.139 143.173L252.6 162.511H266.139V143.173Z" fill="url(#paint3_linear_3191_14500)"/>
<path d="M342.3 295.753L281.831 235.331L295.694 221.469L356.115 281.938L342.3 295.753Z" fill="#858B9B"/>
<path d="M363.321 317.005L316.953 270.638C313.082 266.766 313.082 260.456 316.953 256.584C320.825 252.712 327.136 252.712 331.008 256.584L377.375 302.951C381.246 306.822 381.246 313.134 377.375 317.005C373.504 320.877 367.192 320.877 363.321 317.005Z" fill="#858B9B"/>
<path d="M360.024 319.963L300.368 260.305C298.982 258.919 298.982 256.672 300.368 255.238L315.615 239.989C317.004 238.603 319.25 238.603 320.684 239.989L380.342 299.646C381.727 301.034 381.727 303.28 380.342 304.714L365.093 319.963C363.656 321.348 361.41 321.348 360.024 319.963Z" fill="url(#paint4_linear_3191_14500)"/>
<path d="M213.38 40.6172C150.09 40.6172 98.7988 91.9088 98.7988 155.199C98.7988 218.441 150.09 269.78 213.332 269.78C276.622 269.78 327.914 218.489 327.914 155.199C327.914 91.9088 276.622 40.6172 213.38 40.6172ZM213.38 248.556C162.567 248.556 121.409 206.729 121.409 155.151C121.409 103.573 162.567 61.7935 213.38 61.7935C264.194 61.7935 305.35 103.62 305.35 155.199C305.35 206.777 264.146 248.556 213.38 248.556Z" fill="url(#paint5_linear_3191_14500)"/>
<defs>
<filter id="filter0_d_3191_14500" x="54.5947" y="54.6328" width="322" height="237.02" filterUnits="userSpaceOnUse" color-interpolation-filters="sRGB">
<feFlood flood-opacity="0" result="BackgroundImageFix"/>
<feColorMatrix in="SourceAlpha" type="matrix" values="0 0 0 0 0 0 0 0 0 0 0 0 0 0 0 0 0 0 127 0" result="hardAlpha"/>
<feOffset dy="11"/>
<feGaussianBlur stdDeviation="11"/>
<feColorMatrix type="matrix" values="0 0 0 0 0.397708 0 0 0 0 0.47749 0 0 0 0 0.575 0 0 0 0.27 0"/>
<feBlend mode="normal" in2="BackgroundImageFix" result="effect1_dropShadow_3191_14500"/>
<feBlend mode="normal" in="SourceGraphic" in2="effect1_dropShadow_3191_14500" result="shape"/>
</filter>
<linearGradient id="paint0_linear_3191_14500" x1="215.504" y1="61.1683" x2="215.504" y2="260.734" gradientUnits="userSpaceOnUse">
<stop stop-color="#FDFEFF"/>
<stop offset="0.9964" stop-color="#ECF0F5"/>
</linearGradient>
<linearGradient id="paint1_linear_3191_14500" x1="237.109" y1="129.554" x2="247.111" y2="181.849" gradientUnits="userSpaceOnUse">
<stop stop-color="#B0BACC"/>
<stop offset="1" stop-color="#969EAE"/>
</linearGradient>
<linearGradient id="paint2_linear_3191_14500" x1="237.109" y1="129.551" x2="247.111" y2="181.846" gradientUnits="userSpaceOnUse">
<stop stop-color="#B0BACC"/>
<stop offset="1" stop-color="#969EAE"/>
</linearGradient>
<linearGradient id="paint3_linear_3191_14500" x1="237.11" y1="129.554" x2="247.111" y2="181.849" gradientUnits="userSpaceOnUse">
<stop stop-color="#B0BACC"/>
<stop offset="1" stop-color="#969EAE"/>
</linearGradient>
<linearGradient id="paint4_linear_3191_14500" x1="299.29" y1="279.984" x2="381.394" y2="279.984" gradientUnits="userSpaceOnUse">
<stop stop-color="#B0BACC"/>
<stop offset="1" stop-color="#969EAE"/>
</linearGradient>
<linearGradient id="paint5_linear_3191_14500" x1="98.6939" y1="155.224" x2="327.956" y2="155.224" gradientUnits="userSpaceOnUse">
<stop stop-color="#B0BACC"/>
<stop offset="1" stop-color="#969EAE"/>
</linearGradient>
</defs>
</svg>
