<svg width="129" height="43" viewBox="0 0 129 43" fill="none" xmlns="http://www.w3.org/2000/svg">
<path d="M128.059 0.504883H0.365714C0.333039 0.504883 0.306641 0.53128 0.306641 0.563955V2.0142C0.306641 2.04688 0.333131 2.07337 0.365714 2.07337H128.059C128.091 2.07337 128.118 2.04688 128.118 2.0142V0.563955C128.118 0.53128 128.091 0.504883 128.059 0.504883Z" fill="#D0D1D4"/>
<path d="M80.5396 8.51989C79.519 9.96562 80.9715 11.0726 82.2353 11.3363C82.3475 11.359 83.572 11.6333 85.9089 12.1592C88.2774 12.6911 90.196 14.2506 89.921 16.9238C89.555 20.4881 86.3408 21.7361 83.0765 21.6883C79.844 21.6428 76.9662 19.9039 76.7775 16.4032C76.7745 16.3289 76.8094 16.2918 76.8821 16.2918H79.9282C80.0038 16.2918 80.0479 16.3297 80.06 16.4055C80.4555 18.89 83.1356 19.3152 85.1314 18.8082C85.5997 18.6885 85.9982 18.4581 86.3271 18.1172C86.9704 17.4489 86.9658 16.2464 86.2748 15.6531C85.899 15.3303 85.386 15.103 84.7359 14.9712C82.5514 14.5301 80.701 14.2142 78.9734 13.2526C77.7732 12.5843 77.1549 11.4902 77.1185 9.97014C77.0434 6.85135 79.2143 5.25784 82.1194 4.93054C84.1449 4.7032 86.9568 5.18511 88.3343 6.77861C89.0284 7.58182 89.4232 8.59105 89.5186 9.80649C89.5199 9.81941 89.5183 9.83252 89.5142 9.84489C89.5099 9.85725 89.5031 9.86861 89.4941 9.8783C89.4851 9.8879 89.4741 9.89556 89.4619 9.90082C89.4497 9.90608 89.4365 9.90876 89.4232 9.90876H86.4021C86.3415 9.90876 86.3074 9.87848 86.2999 9.81784C86.0202 7.52644 83.697 7.29689 81.8762 7.70375C81.2731 7.83713 80.8276 8.10915 80.5396 8.51989Z" fill="#D0D1D4"/>
<path d="M40.3039 18.5389C41.2889 18.0206 41.8633 17.1917 42.027 16.0521C42.0376 15.9794 42.0793 15.943 42.152 15.943H45.3162C45.334 15.9431 45.3513 15.9472 45.3672 15.9551C45.383 15.963 45.3968 15.9744 45.4076 15.9884C45.4183 16.0024 45.4257 16.0188 45.4292 16.0361C45.4327 16.0535 45.4322 16.0714 45.4276 16.0885C44.6366 19.1777 43.1841 21.2145 39.8106 21.5577C37.3784 21.8055 34.7755 21.2645 33.2434 19.1799C31.5568 16.8795 31.3545 14.1904 31.7159 11.3648C32.1591 7.89593 34.2027 5.52275 37.6875 5.10675C41.7656 4.62262 44.8685 6.35697 45.605 10.5601C45.6171 10.6298 45.5883 10.6647 45.5186 10.6647H42.1929C42.1292 10.6647 42.0937 10.6329 42.086 10.5692C41.836 8.48241 40.0016 7.52543 38.0444 7.9346C36.5395 8.24981 35.6023 9.22646 35.2324 10.8647C34.6914 13.2561 34.5869 17.9025 37.8376 18.6571C38.6309 18.8413 39.5969 18.914 40.3039 18.5389Z" fill="#D0D1D4"/>
<path d="M59.4854 18.4359V21.1524C59.4854 21.1711 59.478 21.189 59.4647 21.2022C59.4515 21.2154 59.4336 21.2229 59.415 21.2229H48.2423C48.2237 21.2229 48.2057 21.2154 48.1925 21.2022C48.1793 21.189 48.1719 21.1711 48.1719 21.1524V5.37658C48.1719 5.35793 48.1793 5.33993 48.1925 5.32674C48.2057 5.31354 48.2237 5.30615 48.2423 5.30615H51.452C51.4707 5.30615 51.4887 5.31354 51.5018 5.32674C51.515 5.33993 51.5225 5.35793 51.5225 5.37658V18.295C51.5225 18.3137 51.5299 18.3316 51.5431 18.3448C51.5564 18.358 51.5743 18.3655 51.593 18.3655H59.415C59.4336 18.3655 59.4515 18.3729 59.4647 18.3861C59.478 18.3994 59.4854 18.4173 59.4854 18.4359Z" fill="#D0D1D4"/>
<path d="M74.5508 5.35387C74.5053 5.5766 74.4818 5.81381 74.4804 6.06534C74.4363 12.6924 74.4106 16.1112 74.403 16.3219C74.2462 20.8023 70.1272 22.1707 66.2946 21.5229C63.5305 21.0569 61.737 19.1293 61.6574 16.2537C61.6028 14.2427 61.5869 10.6345 61.6097 5.42882C61.6111 5.35913 61.6468 5.32434 61.7165 5.32434H65.0671C65.1126 5.32434 65.1338 5.34778 65.1308 5.39476C65.1065 5.74329 65.0929 5.96685 65.0898 6.06534C65.0308 8.59921 65.0118 11.7483 65.0331 15.5126C65.0398 16.8584 65.4808 18.2905 67.0448 18.6337C68.0464 18.8534 68.902 18.7936 69.6111 18.4541C71.2274 17.679 71.0751 16.0582 71.0865 14.5443C71.1168 11.127 71.1183 8.08389 71.091 5.41525C71.091 5.34252 71.1266 5.30615 71.1978 5.30615H74.5099C74.5432 5.30615 74.5569 5.32203 74.5508 5.35387Z" fill="#D0D1D4"/>
<path d="M104.193 17.3075C104.207 17.3075 104.221 17.3029 104.233 17.2938C104.236 17.2923 104.241 17.2802 104.247 17.2574C106.099 10.829 107.226 6.8683 107.627 5.37559C107.628 5.37061 107.636 5.36581 107.651 5.36202C107.666 5.35824 107.685 5.35584 107.706 5.3551L111.089 5.33692C111.091 5.33683 111.094 5.33738 111.097 5.33839C111.099 5.3395 111.1 5.34107 111.102 5.3431C111.104 5.34513 111.105 5.34744 111.105 5.34993C111.106 5.35242 111.106 5.35501 111.105 5.35741L105.826 21.1627C105.819 21.1866 105.803 21.2072 105.783 21.2219C105.763 21.2366 105.738 21.2445 105.713 21.2446C104.924 21.2401 104.41 21.237 104.174 21.2355C103.938 21.234 103.425 21.2325 102.637 21.231C102.612 21.2309 102.587 21.2229 102.567 21.2082C102.547 21.1936 102.532 21.1729 102.524 21.1492L97.3816 5.29833C97.3806 5.29584 97.3806 5.29335 97.3816 5.29086C97.3816 5.28837 97.3825 5.28597 97.3843 5.28403C97.3862 5.282 97.388 5.28043 97.3899 5.27932C97.3926 5.27821 97.3954 5.27775 97.3972 5.27784L100.78 5.32557C100.8 5.3264 100.82 5.32889 100.835 5.33267C100.849 5.33636 100.858 5.34116 100.859 5.34606C101.249 6.84181 102.342 10.8123 104.137 17.2574C104.144 17.2802 104.148 17.2923 104.151 17.2938C104.163 17.3029 104.177 17.3075 104.193 17.3075Z" fill="#D0D1D4"/>
<path d="M116.516 14.315V18.2953C116.516 18.3802 116.558 18.4226 116.645 18.4226H125.147C125.235 18.4226 125.271 18.4665 125.258 18.5545C125.121 19.4001 125.109 20.2449 125.219 21.089C125.228 21.1603 125.198 21.1959 125.126 21.1959H113.316C113.25 21.1959 113.217 21.1626 113.217 21.0958V5.3746C113.217 5.27159 113.267 5.23218 113.367 5.25645C113.506 5.2882 113.726 5.33823 113.831 5.33823C118.989 5.36251 122.395 5.36398 124.048 5.34276C124.211 5.3398 124.357 5.33371 124.487 5.32457C124.666 5.311 124.755 5.39435 124.755 5.57462V8.11837C124.755 8.19563 124.717 8.22821 124.639 8.21612C124.585 8.20855 124.532 8.19258 124.48 8.1683C124.428 8.14412 124.371 8.13194 124.312 8.13194H116.636C116.542 8.13194 116.494 8.17892 116.494 8.27288V11.3576C116.494 11.4485 116.541 11.494 116.631 11.494H123.992C124.054 11.494 124.084 11.522 124.084 11.5781V14.0627C124.084 14.1506 124.04 14.1945 123.951 14.1945H116.634C116.554 14.1945 116.516 14.2347 116.516 14.315Z" fill="#D0D1D4"/>
<path d="M6.21083 14.3364V18.1599C6.21083 18.3129 6.28735 18.3894 6.44038 18.3894H15.0261C15.0943 18.3894 15.1285 18.4236 15.1285 18.4917V21.1309C15.1285 21.1975 15.0943 21.231 15.0261 21.231H3.1057C3.09425 21.231 3.08327 21.2263 3.07515 21.2183C3.06702 21.2102 3.0625 21.1992 3.0625 21.1878V5.43236C3.0625 5.37329 3.09361 5.34375 3.15572 5.34375H14.4807C14.5084 5.34375 14.535 5.35501 14.5547 5.37504C14.5742 5.39507 14.5853 5.42221 14.5853 5.45054V8.02152C14.5853 8.08669 14.5535 8.11853 14.4898 8.11696C12.0151 8.0973 9.61077 8.10256 7.27701 8.13293C7.10883 8.13515 6.66782 8.11475 6.39506 8.02835C6.30258 7.99808 6.25643 8.0314 6.25643 8.12841V11.4017C6.25643 11.4234 6.26501 11.4443 6.28042 11.4596C6.29575 11.4749 6.31661 11.4836 6.3383 11.4836H13.7329C13.7905 11.4836 13.8193 11.5124 13.8193 11.57V14.1727C13.8193 14.2106 13.8004 14.2296 13.7624 14.2296H6.32011C6.24738 14.2296 6.21101 14.2652 6.21101 14.3364H6.21083Z" fill="#D0D1D4"/>
<path d="M23.2972 15.8837C23.2654 15.8883 23.2434 15.8958 23.2313 15.9065C23.215 15.9182 23.1995 15.9297 23.1869 15.9395C23.1743 15.9492 23.1651 15.9568 23.1608 15.961C22.3136 17.3764 21.3089 19.0942 20.1466 21.1142C20.1264 21.1487 20.0928 21.1778 20.0488 21.1986C20.0049 21.2194 19.9524 21.2311 19.8965 21.2325L16.4163 21.3075C16.3784 21.3075 16.3693 21.2915 16.389 21.2597L21.3673 13.1854C21.3781 13.1676 21.384 13.1473 21.384 13.1268C21.384 13.1063 21.3781 13.0864 21.3673 13.0695L16.6323 5.39981C16.602 5.3483 16.6164 5.32329 16.6755 5.32477L20.3739 5.39076C20.4051 5.39141 20.4355 5.3999 20.4621 5.41541C20.4888 5.43092 20.5109 5.45298 20.5262 5.47937L23.2358 10.1735C23.244 10.1876 23.2558 10.1994 23.2699 10.2075C23.2841 10.2158 23.3002 10.2201 23.3165 10.2201C23.3328 10.2201 23.3489 10.2158 23.3631 10.2075C23.3772 10.1994 23.389 10.1876 23.3972 10.1735L26.1204 5.45667C26.1431 5.41735 26.1756 5.38467 26.2148 5.36187C26.2539 5.33917 26.2982 5.32717 26.3433 5.32708H29.8781C29.8802 5.32726 29.8822 5.32791 29.8841 5.32901C29.8859 5.33012 29.8874 5.3316 29.8884 5.33326C29.8893 5.33492 29.8897 5.33668 29.8895 5.33843C29.8892 5.34018 29.8884 5.34175 29.8871 5.34295L25.2317 12.8968C25.2174 12.92 25.2098 12.9468 25.2098 12.974C25.2098 13.0012 25.2174 13.0281 25.2317 13.0513L30.2167 21.1279C30.2232 21.1387 30.2267 21.151 30.2269 21.1635C30.227 21.1761 30.2237 21.1884 30.2175 21.1993C30.2112 21.2103 30.2021 21.2193 30.1912 21.2255C30.1803 21.2317 30.1679 21.235 30.1553 21.2348H26.4728C26.4507 21.2348 26.429 21.2291 26.4098 21.2183C26.3907 21.2076 26.3748 21.1921 26.3637 21.1734L23.3154 15.8928C23.3134 15.8894 23.3107 15.8867 23.3074 15.885C23.3041 15.8835 23.3005 15.8829 23.2972 15.8837Z" fill="#D0D1D4"/>
<path d="M95.2533 5.33015L92.1297 5.32471C92.0971 5.32461 92.0706 5.35111 92.0705 5.38369L92.043 21.1731C92.043 21.2057 92.0693 21.2323 92.102 21.2323L95.2256 21.2378C95.2579 21.2378 95.2847 21.2115 95.2847 21.1788L95.3124 5.38941C95.3124 5.35674 95.2856 5.33025 95.2533 5.33015Z" fill="#D0D1D4"/>
<path d="M128.025 24.4731H0.318839C0.286164 24.4731 0.259766 24.4995 0.259766 24.5322V26.037C0.259766 26.0697 0.286256 26.0962 0.318839 26.0962H128.025C128.058 26.0962 128.085 26.0697 128.085 26.037V24.5322C128.085 24.4995 128.058 24.4731 128.025 24.4731Z" fill="#D0D1D4"/>
<path d="M43.3672 31.8718C43.3672 31.8549 43.3738 31.8387 43.3857 31.8267C43.3977 31.8148 43.4139 31.8081 43.4308 31.8081L47.3884 31.7809C47.9988 31.7766 48.6041 31.8928 49.1698 32.1227C49.7354 32.3526 50.2501 32.6916 50.6848 33.1205C51.1194 33.5495 51.4654 34.0598 51.7028 34.6226C51.9403 35.1852 52.0647 35.7892 52.0689 36.3999L52.0779 37.7684C52.0822 38.3792 51.966 38.9848 51.7363 39.5507C51.5066 40.1166 51.1676 40.6316 50.7389 41.0665C50.3102 41.5013 49.8001 41.8473 49.2377 42.0849C48.6753 42.3225 48.0716 42.4469 47.4612 42.4512L43.5035 42.4784C43.4866 42.4784 43.4705 42.4717 43.4586 42.4598C43.4466 42.4478 43.4399 42.4316 43.4399 42.4147L43.3672 31.8718ZM44.3787 32.897L44.3469 41.4168C44.3469 41.4602 44.3641 41.5018 44.3948 41.5326C44.4255 41.5632 44.4671 41.5805 44.5105 41.5805L47.1838 41.5896C47.6895 41.5915 48.1906 41.4958 48.6585 41.308C49.1265 41.1203 49.552 40.8442 49.9108 40.4955C50.2696 40.1468 50.5547 39.7322 50.75 39.2756C50.9451 38.8191 51.0464 38.3292 51.0482 37.8343L51.0527 36.525C51.0563 35.5255 50.654 34.5654 49.9344 33.856C49.2148 33.1467 48.2369 32.7461 47.2156 32.7424L44.5424 32.7333C44.499 32.7333 44.4574 32.7506 44.4266 32.7812C44.396 32.812 44.3787 32.8536 44.3787 32.897Z" fill="#D0D1D4"/>
<path d="M78.2292 41.6259V42.3987C78.2292 42.4211 78.2203 42.4425 78.2046 42.4583C78.1888 42.4741 78.1674 42.4829 78.1451 42.4829H71.3302C71.3191 42.4829 71.3082 42.4807 71.298 42.4765C71.2877 42.4722 71.2785 42.466 71.2706 42.4583C71.2629 42.4504 71.2567 42.4412 71.2525 42.431C71.2482 42.4208 71.2461 42.4098 71.2461 42.3987V31.9309C71.2461 31.9198 71.2482 31.9088 71.2525 31.8986C71.2567 31.8884 71.2629 31.8792 71.2706 31.8713C71.2785 31.8636 71.2877 31.8574 71.298 31.8531C71.3082 31.8489 71.3191 31.8467 71.3302 31.8467H78.0337C78.056 31.8467 78.0775 31.8555 78.0932 31.8713C78.109 31.8871 78.1179 31.9085 78.1179 31.9309V32.6582C78.1179 32.6805 78.109 32.702 78.0932 32.7177C78.0775 32.7335 78.056 32.7424 78.0337 32.7424H72.3235C72.3012 32.7424 72.2799 32.7512 72.2641 32.767C72.2483 32.7827 72.2394 32.8041 72.2394 32.8265V36.4635C72.2394 36.4859 72.2483 36.5072 72.2641 36.523C72.2799 36.5388 72.3012 36.5476 72.3235 36.5476H77.4882C77.5104 36.5476 77.5319 36.5565 77.5476 36.5723C77.5634 36.5881 77.5723 36.6095 77.5723 36.6317V37.3296C77.5723 37.3519 77.5634 37.3733 77.5476 37.389C77.5319 37.4048 77.5104 37.4137 77.4882 37.4137H72.3122C72.2898 37.4137 72.2684 37.4226 72.2526 37.4383C72.237 37.4541 72.2281 37.4755 72.2281 37.4978V41.4577C72.2281 41.48 72.237 41.5014 72.2526 41.5172C72.2684 41.5329 72.2898 41.5418 72.3122 41.5418H78.1451C78.1674 41.5418 78.1888 41.5507 78.2046 41.5665C78.2203 41.5822 78.2292 41.6036 78.2292 41.6259Z" fill="#D0D1D4"/>
<path d="M95.7641 42.454H94.9915C94.9795 42.454 94.9675 42.4512 94.9564 42.4455C94.9453 42.4399 94.9361 42.4317 94.9287 42.4215C94.9223 42.4115 94.9176 42.3998 94.9167 42.3877C94.9149 42.3755 94.9167 42.3631 94.9213 42.3518L98.8036 31.9702C98.8091 31.956 98.8183 31.9439 98.8312 31.9353C98.8442 31.9268 98.8589 31.9223 98.8737 31.9224H100.112C100.128 31.9223 100.143 31.9268 100.156 31.9353C100.168 31.9439 100.178 31.956 100.183 31.9702L104.103 42.3926C104.106 42.4041 104.108 42.4164 104.107 42.4285C104.105 42.4407 104.101 42.4524 104.094 42.4624C104.087 42.4726 104.078 42.4808 104.067 42.4864C104.056 42.4921 104.044 42.495 104.032 42.4949H103.145C103.13 42.495 103.115 42.4906 103.103 42.482C103.09 42.4735 103.08 42.4613 103.074 42.4472L101.89 39.2966C101.885 39.2824 101.875 39.2702 101.862 39.2618C101.85 39.2532 101.835 39.2487 101.82 39.2488H97.0692C97.0535 39.2487 97.0387 39.2532 97.0267 39.2618C97.0138 39.2702 97.0037 39.2824 96.9981 39.2966L95.8351 42.4063C95.8296 42.4204 95.8194 42.4326 95.8065 42.4411C95.7945 42.4496 95.7797 42.4541 95.7641 42.454ZM97.4079 38.1531C97.4006 38.1731 97.3978 38.1947 97.4006 38.2159C97.4033 38.237 97.4116 38.2571 97.4236 38.2746C97.4356 38.292 97.4523 38.3062 97.4716 38.3159C97.4901 38.3257 97.5113 38.3307 97.5326 38.3304L101.372 38.3237C101.394 38.3235 101.414 38.3182 101.433 38.3084C101.452 38.2985 101.467 38.2843 101.479 38.2668C101.491 38.2495 101.5 38.2295 101.502 38.2085C101.504 38.1875 101.502 38.1662 101.495 38.1464L99.5669 32.9499C99.5577 32.9245 99.541 32.9025 99.5189 32.887C99.4967 32.8715 99.4709 32.8631 99.4432 32.8631C99.4155 32.8631 99.3897 32.8715 99.3675 32.887C99.3454 32.9025 99.3288 32.9245 99.3195 32.9499L97.4079 38.1531Z" fill="#D0D1D4"/>
<path d="M22.7938 31.8787V41.5366C22.7938 41.6614 22.7366 41.7238 22.6221 41.7238H22.1697C22.0656 41.7238 22.0137 41.6614 22.0137 41.5366V31.8787C22.0137 31.7538 22.0656 31.6914 22.1697 31.6914H22.6221C22.7366 31.6914 22.7938 31.7538 22.7938 31.8787Z" fill="#D0D1D4"/>
<path d="M22.7743 31.8845V41.5424H22.8112V31.8845H22.7743ZM22.7743 41.5424C22.7743 41.6023 22.7605 41.6438 22.7362 41.6703C22.7122 41.6965 22.6751 41.7111 22.6211 41.7111V41.748C22.6816 41.748 22.7302 41.7315 22.7634 41.6952C22.7963 41.6593 22.8112 41.6073 22.8112 41.5424H22.7743ZM22.6211 41.7111H22.1686V41.748H22.6211V41.7111ZM22.1686 41.7111C22.1204 41.7111 22.0874 41.6969 22.0658 41.671C22.0437 41.6445 22.0311 41.6026 22.0311 41.5424H21.9941C21.9941 41.6069 22.0075 41.6587 22.0374 41.6946C22.0679 41.7311 22.1127 41.748 22.1686 41.748V41.7111ZM22.0311 41.5424V31.8845H21.9941V41.5424H22.0311ZM22.0311 31.8845C22.0311 31.8241 22.0437 31.7824 22.0658 31.7558C22.0874 31.7299 22.1204 31.7156 22.1686 31.7156V31.6787C22.1127 31.6787 22.0679 31.6957 22.0374 31.7322C22.0075 31.7681 21.9941 31.8199 21.9941 31.8845H22.0311ZM22.1686 31.7156H22.6211V31.6787H22.1686V31.7156ZM22.6211 31.7156C22.6751 31.7156 22.7122 31.7303 22.7362 31.7565C22.7605 31.783 22.7743 31.8245 22.7743 31.8845H22.8112C22.8112 31.8196 22.7963 31.7674 22.7634 31.7315C22.7302 31.6953 22.6816 31.6787 22.6211 31.6787V31.7156Z" fill="#8B8B8B"/>
</svg>
