<svg width="56" height="56" viewBox="0 0 56 56" fill="none" xmlns="http://www.w3.org/2000/svg">
<rect x="0.5" y="0.5" width="55" height="55" rx="27.5" fill="#F5F5F5"/>
<path d="M31.2373 19.332C31.6251 19.477 32.057 19.2802 32.2021 18.8926C32.3471 18.5046 32.1507 18.0718 31.7627 17.9268C30.5907 17.4888 29.3223 17.25 28 17.25C26.6777 17.25 25.4093 17.4888 24.2373 17.9268C23.8493 18.0718 23.6529 18.5046 23.7979 18.8926C23.943 19.2802 24.3749 19.477 24.7627 19.332C25.7693 18.9559 26.8597 18.75 28 18.75C29.1403 18.75 30.2307 18.9559 31.2373 19.332ZM23.8086 27.4727C24.1863 27.6976 24.8285 27.9361 25.374 27.5352C25.9164 27.1365 25.8861 26.4553 25.7881 26.0264L25.5947 25.1836L26.2744 24.498L26.2754 24.4971C26.5895 24.1821 26.8754 23.6795 26.6963 23.1172C26.5167 22.5538 25.9919 22.31 25.5537 22.2363L24.6807 22.0898L24.1904 21.1016V21.1006C23.9951 20.7051 23.6079 20.25 22.999 20.25C22.3911 20.25 22.0034 20.7041 21.8066 21.0986L21.8057 21.0996L21.3145 22.0908L20.4453 22.2363C20.0065 22.3102 19.4824 22.5544 19.3037 23.1182C19.126 23.6793 19.4095 24.1812 19.7217 24.4961L20.4043 25.1836L20.2109 26.0264C20.112 26.4578 20.0844 27.1363 20.625 27.5342C21.1696 27.9348 21.8105 27.6999 22.1904 27.4727L22.999 26.9893L23.8086 27.4727ZM33.8086 27.4727C34.1863 27.6976 34.8285 27.9361 35.374 27.5352C35.9164 27.1365 35.8861 26.4553 35.7881 26.0264L35.5947 25.1836L36.2744 24.498L36.2754 24.4971C36.5896 24.1821 36.8754 23.6796 36.6963 23.1172C36.5167 22.5538 35.9919 22.31 35.5537 22.2363L34.6807 22.0898L34.1904 21.1006C33.9951 20.7051 33.6079 20.25 32.999 20.25C32.3911 20.25 32.0034 20.7041 31.8066 21.0986L31.8057 21.0996L31.3145 22.0908L30.4453 22.2363C30.0065 22.3102 29.4824 22.5544 29.3037 23.1182C29.126 23.6793 29.4095 24.1812 29.7217 24.4961L30.4043 25.1836L30.2109 26.0264C30.112 26.4578 30.0843 27.1363 30.625 27.5342C31.1696 27.9349 31.8105 27.6999 32.1904 27.4727L32.999 26.9893L33.8086 27.4727ZM23.6807 25.6494C23.4554 25.5149 23.2059 25.4707 23 25.4707C22.7935 25.4708 22.5469 25.5154 22.3232 25.6465L21.7598 25.9834L21.8857 25.4326L21.8867 25.4277C21.9396 25.1898 21.9133 24.9552 21.8604 24.7686C21.8075 24.5824 21.706 24.3657 21.5313 24.1895L21.0088 23.6631L21.6504 23.5547H21.6533C21.8809 23.5157 22.077 23.4094 22.2197 23.3027C22.3619 23.1965 22.5196 23.0382 22.6221 22.8291L22.998 22.0723L23.373 22.8291C23.4756 23.0384 23.6339 23.1969 23.7773 23.3037C23.9218 23.4112 24.1202 23.5163 24.3486 23.5547L24.9902 23.6631L24.4678 24.1895C24.293 24.3657 24.1915 24.5824 24.1387 24.7686C24.0857 24.9552 24.0594 25.1897 24.1123 25.4277L24.2393 25.9834L23.6807 25.6494ZM33.6807 25.6494C33.4554 25.5149 33.2059 25.4707 33 25.4707C32.7935 25.4708 32.5469 25.5154 32.3232 25.6465L31.7598 25.9834L31.8857 25.4326L31.8867 25.4277C31.9396 25.1898 31.9133 24.9552 31.8604 24.7686C31.8075 24.5824 31.706 24.3657 31.5313 24.1895L31.0088 23.6631L31.6504 23.5547H31.6533C31.8809 23.5157 32.077 23.4094 32.2197 23.3027C32.3619 23.1965 32.5196 23.0382 32.6221 22.8291L32.998 22.0723L33.373 22.8291C33.4756 23.0384 33.6339 23.1969 33.7773 23.3037C33.9218 23.4112 34.1202 23.5163 34.3486 23.5547L34.9902 23.6631L34.4678 24.1895C34.293 24.3657 34.1915 24.5824 34.1387 24.7686C34.0857 24.9552 34.0594 25.1897 34.1123 25.4277L34.2393 25.9834L33.6807 25.6494ZM28 38.75C33.9371 38.75 38.75 33.9371 38.75 28C38.75 27.5858 38.4142 27.25 38 27.25C37.5858 27.25 37.25 27.5858 37.25 28C37.25 33.1086 33.1086 37.25 28 37.25C22.8914 37.25 18.75 33.1086 18.75 28C18.75 27.5858 18.4142 27.25 18 27.25C17.5858 27.25 17.25 27.5858 17.25 28C17.25 33.9371 22.0629 38.75 28 38.75ZM28 33.75C29.8816 33.75 31.5519 32.8451 32.5996 31.4502C32.8483 31.119 32.7814 30.6491 32.4502 30.4004C32.119 30.1518 31.6491 30.2187 31.4004 30.5498C30.6238 31.5837 29.3897 32.25 28 32.25C26.6103 32.25 25.3762 31.5837 24.5996 30.5498C24.3509 30.2186 23.881 30.1517 23.5498 30.4004C23.2187 30.6491 23.1518 31.119 23.4004 31.4502C24.4481 32.8451 26.1185 33.75 28 33.75Z" fill="black"/>
</svg>
