<svg width="48" height="48" viewBox="0 0 48 48" fill="none" xmlns="http://www.w3.org/2000/svg">
<rect width="48" height="48" rx="8" fill="#FCF4E9" fill-opacity="0.2"/>
<path d="M23.5811 17.9302C24.4636 17.9302 25.3093 17.4855 25.9624 16.6783C26.5589 15.9411 26.9009 15.0114 26.9009 14.1266C26.9009 12.3441 25.4739 11 23.5811 11C21.6884 11 20.2613 12.3424 20.2613 14.1266C20.2613 15.0114 20.6034 15.9411 21.1998 16.6783C21.8529 17.486 22.6986 17.9302 23.5811 17.9302ZM23.5811 11.963C24.9468 11.963 25.9379 12.8729 25.9379 14.1266C25.9379 15.7024 24.6486 16.9672 23.5811 16.9672C22.2755 16.9672 21.2244 15.4129 21.2244 14.1266C21.2244 12.8752 22.2154 11.963 23.5811 11.963ZM19.6526 22.5515L19.3147 27.3718C19.3102 27.4349 19.3182 27.4982 19.3383 27.5582C19.3583 27.6182 19.39 27.6736 19.4314 27.7214C19.4729 27.7691 19.5233 27.8082 19.5799 27.8365C19.6365 27.8647 19.6981 27.8816 19.7612 27.886H19.795C19.9168 27.8859 20.0341 27.8396 20.1232 27.7566C20.2123 27.6735 20.2666 27.5598 20.2753 27.4383L20.6133 22.6221C20.6177 22.559 20.6097 22.4957 20.5897 22.4357C20.5696 22.3757 20.538 22.3203 20.4965 22.2725C20.4551 22.2248 20.4046 22.1857 20.348 22.1574C20.2915 22.1292 20.2299 22.1124 20.1668 22.1079C20.1037 22.1035 20.0404 22.1115 19.9804 22.1315C19.9204 22.1516 19.865 22.1832 19.8172 22.2247C19.7695 22.2661 19.7304 22.3166 19.7021 22.3732C19.6739 22.4297 19.657 22.4913 19.6526 22.5544V22.5515Z" fill="#E7E8E9"/>
<path d="M30.1105 27.8871C30.2411 27.8755 30.3618 27.8126 30.4462 27.7122C30.5305 27.6117 30.5716 27.482 30.5605 27.3513C30.5605 27.3513 30.0515 23.7017 29.9768 22.4773C29.8385 20.2787 28.4955 18.5149 26.3973 18.1939C25.6596 18.0807 24.3196 17.9955 23.6192 17.9949C22.6631 18.0114 21.7086 18.0775 20.7593 18.1927C19.7752 18.3275 18.8739 18.8161 18.224 19.5672C17.5411 20.3557 17.2359 21.3637 17.1734 22.4796C17.1034 23.7052 16.6394 27.3565 16.6394 27.3565C16.6316 27.4198 16.6364 27.4841 16.6536 27.5455C16.6708 27.6069 16.7001 27.6643 16.7396 27.7143C16.7792 27.7643 16.8283 27.806 16.8841 27.8369C16.9399 27.8677 17.0013 27.8872 17.0647 27.8942C17.1281 27.9011 17.1923 27.8954 17.2534 27.8774C17.3146 27.8593 17.3716 27.8293 17.4211 27.7891C17.4706 27.7488 17.5116 27.6992 17.5417 27.6429C17.5718 27.5867 17.5905 27.5251 17.5965 27.4616C17.5965 27.4616 18.0676 23.7706 18.1347 22.5327C18.2304 20.7783 19.2687 19.3682 20.8906 19.1476C21.7959 19.0376 22.7062 18.9745 23.618 18.9585C24.2705 18.9585 25.5656 19.0413 26.2508 19.1464C27.0042 19.2604 27.693 19.6371 28.1955 20.2098C28.7302 20.8238 28.9619 21.6485 29.0126 22.5356C29.0868 23.7753 29.6039 27.4668 29.6039 27.4668C29.6226 27.5866 29.6844 27.6954 29.7777 27.7728C29.871 27.8501 29.9893 27.8908 30.1105 27.8871Z" fill="#E7E8E9"/>
<path d="M26.9811 22.109C26.9177 22.1133 26.8558 22.1302 26.799 22.1586C26.7421 22.187 26.6915 22.2264 26.6499 22.2744C26.6084 22.3225 26.5767 22.3783 26.5568 22.4387C26.537 22.499 26.5292 22.5627 26.5341 22.6261L26.8726 27.4458C26.881 27.5674 26.9352 27.6812 27.0242 27.7644C27.1132 27.8476 27.2305 27.8939 27.3523 27.8941H27.3868C27.5141 27.8849 27.6326 27.8257 27.7163 27.7293C27.8 27.6329 27.8421 27.5072 27.8333 27.3799L27.4947 22.5595C27.4907 22.4962 27.4741 22.4343 27.4461 22.3774C27.4181 22.3204 27.3791 22.2696 27.3314 22.2277C27.2837 22.1859 27.2282 22.1539 27.1681 22.1335C27.108 22.1131 27.0445 22.1048 26.9811 22.109ZM26.6531 32.2492L28.969 29.9917C29.0333 29.929 29.0788 29.8495 29.1003 29.7623C29.1218 29.6751 29.1185 29.5836 29.0908 29.4982C29.0631 29.4128 29.012 29.3368 28.9433 29.2789C28.8747 29.221 28.7912 29.1834 28.7023 29.1705L25.5022 28.7036L24.0711 25.8058C24.0313 25.7251 23.9698 25.6572 23.8935 25.6098C23.8172 25.5623 23.7291 25.5371 23.6392 25.5371C23.5493 25.5371 23.4612 25.5623 23.3849 25.6098C23.3085 25.6572 23.247 25.7251 23.2073 25.8058L21.7762 28.7053L18.5761 29.1722C18.4872 29.1852 18.4037 29.2227 18.3351 29.2807C18.2664 29.3386 18.2153 29.4145 18.1876 29.5C18.1598 29.5854 18.1565 29.6769 18.178 29.7641C18.1996 29.8513 18.245 29.9307 18.3093 29.9934L20.6252 32.251L20.079 35.4359C20.0635 35.5247 20.0733 35.6161 20.1072 35.6996C20.1411 35.7831 20.1977 35.8554 20.2707 35.9083C20.3437 35.9612 20.43 35.9926 20.5199 35.9989C20.6099 36.0051 20.6997 35.986 20.7793 35.9437L23.6392 34.439L26.499 35.9437C26.5682 35.9799 26.6451 35.9989 26.7232 35.9991C26.7933 35.999 26.8625 35.9836 26.9261 35.954C26.9896 35.9244 27.046 35.8813 27.0911 35.8276C27.1363 35.774 27.1692 35.7112 27.1876 35.6435C27.206 35.5759 27.2095 35.505 27.1977 35.4359L26.6531 32.2492ZM23.4151 33.469C22.8559 33.7538 21.1925 34.6363 21.1925 34.6363L21.6169 32.1611C21.63 32.0842 21.6244 32.0052 21.6003 31.931C21.5762 31.8568 21.5344 31.7895 21.4785 31.735L19.6803 29.9841L22.1655 29.6228C22.2427 29.6115 22.316 29.5817 22.3791 29.5358C22.4423 29.49 22.4933 29.4295 22.5279 29.3596L23.6368 27.1073L24.7458 29.3596C24.7804 29.4295 24.8314 29.49 24.8946 29.5358C24.9577 29.5817 25.031 29.6115 25.1082 29.6228L27.5934 29.9841L25.7952 31.735C25.7393 31.7895 25.6975 31.8568 25.6734 31.931C25.6493 32.0052 25.6436 32.0842 25.6568 32.1611L26.0812 34.6363C26.0812 34.6363 24.4178 33.7527 23.8586 33.469C23.7905 33.4322 23.7143 33.413 23.6368 33.413C23.5594 33.413 23.4832 33.4322 23.4151 33.469ZM36.8663 30.6343L34.5265 30.294L33.48 28.1742C33.4404 28.0935 33.3789 28.0256 33.3026 27.9781C33.2263 27.9306 33.1383 27.9054 33.0484 27.9054C32.9585 27.9054 32.8705 27.9306 32.7942 27.9781C32.7179 28.0256 32.6564 28.0935 32.6168 28.1742L31.5703 30.294L29.2305 30.6343C29.1416 30.6472 29.0581 30.6848 28.9895 30.7427C28.9208 30.8006 28.8697 30.8766 28.842 30.962C28.8143 31.0474 28.811 31.1389 28.8325 31.2261C28.854 31.3133 28.8995 31.3927 28.9638 31.4554L30.6563 33.106L30.2565 35.4359C30.2411 35.5247 30.2509 35.6161 30.2848 35.6996C30.3186 35.7831 30.3753 35.8554 30.4483 35.9083C30.5213 35.9612 30.6076 35.9926 30.6975 35.9989C30.7875 36.0051 30.8773 35.986 30.9569 35.9437L33.0493 34.8435L35.1422 35.9437C35.2114 35.9799 35.2883 35.9989 35.3664 35.9991C35.4365 35.999 35.5057 35.9836 35.5693 35.954C35.6328 35.9244 35.6891 35.8813 35.7343 35.8276C35.7795 35.774 35.8124 35.7112 35.8308 35.6435C35.8492 35.5759 35.8527 35.505 35.8409 35.4359L35.4411 33.106L37.1336 31.4554C37.1979 31.3927 37.2434 31.3133 37.2649 31.2261C37.2864 31.1389 37.2831 31.0474 37.2554 30.962C37.2277 30.8766 37.1766 30.8006 37.1079 30.7427C37.0393 30.6848 36.9558 30.6472 36.8669 30.6343H36.8663ZM32.8246 33.8735C32.4575 34.0579 31.3707 34.6375 31.3707 34.6375L31.6485 33.019C31.6617 32.9421 31.656 32.8632 31.6319 32.7889C31.6078 32.7147 31.5661 32.6475 31.5102 32.593L30.3342 31.4467L31.959 31.2132C32.0363 31.2021 32.1098 31.1722 32.1729 31.1262C32.2361 31.0802 32.2871 31.0196 32.3215 30.9494L33.0481 29.4775L33.7748 30.9494C33.8094 31.0195 33.8605 31.0801 33.9237 31.1261C33.987 31.172 34.0604 31.2019 34.1378 31.2132L35.7621 31.4467L34.5866 32.593C34.5307 32.6474 34.4888 32.7147 34.4647 32.7889C34.4406 32.8631 34.435 32.9421 34.4483 33.019L34.7284 34.6375C34.7284 34.6375 33.6423 34.0579 33.2752 33.8735C33.2059 33.8362 33.1285 33.8167 33.0499 33.8167C32.9712 33.8167 32.8938 33.8362 32.8246 33.8735ZM18.0479 30.6343L15.708 30.294L14.6616 28.1742C14.6219 28.0935 14.5605 28.0256 14.4842 27.9781C14.4079 27.9306 14.3198 27.9054 14.23 27.9054C14.1401 27.9054 14.052 27.9306 13.9757 27.9781C13.8994 28.0256 13.838 28.0935 13.7984 28.1742L12.7519 30.294L10.412 30.6343C10.3232 30.6472 10.2397 30.6848 10.171 30.7427C10.1024 30.8006 10.0513 30.8766 10.0236 30.962C9.9958 31.0474 9.9925 31.1389 10.014 31.2261C10.0355 31.3133 10.081 31.3927 10.1453 31.4554L11.8379 33.106L11.441 35.4359C11.4256 35.5247 11.4353 35.6161 11.4692 35.6996C11.5031 35.7831 11.5598 35.8554 11.6328 35.9083C11.7057 35.9612 11.7921 35.9926 11.882 35.9989C11.9719 36.0051 12.0618 35.986 12.1414 35.9437L14.2343 34.8435L16.3267 35.9437C16.3959 35.9799 16.4727 35.9989 16.5508 35.9991C16.6209 35.999 16.6902 35.9836 16.7537 35.954C16.8173 35.9244 16.8736 35.8813 16.9188 35.8276C16.964 35.774 16.9969 35.7112 17.0153 35.6435C17.0337 35.5759 17.0371 35.505 17.0253 35.4359L16.6255 33.106L18.3181 31.4554C18.3824 31.3927 18.4279 31.3133 18.4494 31.2261C18.4709 31.1389 18.4676 31.0474 18.4399 30.962C18.4121 30.8766 18.361 30.8006 18.2924 30.7427C18.2237 30.6848 18.1402 30.6472 18.0514 30.6343H18.0479ZM14.0091 33.8735L12.5529 34.6375L12.8301 33.019C12.8434 32.9421 12.8377 32.8631 12.8136 32.7889C12.7895 32.7147 12.7477 32.6474 12.6918 32.593L11.5163 31.4467L13.1406 31.2132C13.2179 31.2019 13.2914 31.172 13.3546 31.1261C13.4179 31.0801 13.469 31.0195 13.5036 30.9494L14.2303 29.4775L14.9569 30.9494C14.9913 31.0196 15.0423 31.0802 15.1054 31.1262C15.1686 31.1722 15.242 31.2021 15.3193 31.2132L16.9442 31.4467L15.7682 32.593C15.7123 32.6475 15.6705 32.7147 15.6464 32.7889C15.6223 32.8632 15.6166 32.9421 15.6298 33.019L15.9076 34.6375L14.4538 33.8735C14.3868 33.8325 14.3099 33.8109 14.2314 33.8109C14.1529 33.8109 14.076 33.8325 14.0091 33.8735Z" fill="#E7E8E9"/>
</svg>
