<svg width="128" height="51" viewBox="0 0 128 51" fill="none" xmlns="http://www.w3.org/2000/svg">
<g clip-path="url(#clip0_1933_2234)">
<mask id="mask0_1933_2234" style="mask-type:luminance" maskUnits="userSpaceOnUse" x="23" y="30" width="14" height="21">
<path d="M36.1 30.0566H23.3379V50.1116H36.1V30.0566Z" fill="white"/>
</mask>
<g mask="url(#mask0_1933_2234)">
<path d="M26.3622 37.8727L27.444 39.2147C26.7547 39.7096 26.1928 40.361 25.8042 41.1153C25.4156 41.8696 25.2114 42.7053 25.2086 43.5538C25.1582 44.8161 25.5763 46.0524 26.3826 47.0249C26.7863 47.4876 27.2879 47.8546 27.8511 48.0993C28.4143 48.344 29.0249 48.4602 29.6386 48.4395C30.2663 48.4546 30.8895 48.3304 31.4633 48.0757C32.0371 47.8209 32.5473 47.4421 32.9571 46.9664C33.8114 46.0003 34.264 44.7441 34.2221 43.4552V35.8969H34.2329V30.0625H36.1037V43.452C36.1242 44.3197 35.9719 45.1829 35.6557 45.9913C35.3396 46.7997 34.8659 47.5371 34.2622 48.1608C33.6765 48.7924 32.9635 49.2926 32.1702 49.6282C31.3769 49.9639 30.5214 50.1274 29.6603 50.1079C28.8127 50.1327 27.9697 49.9751 27.1884 49.6458C26.4071 49.3164 25.7056 48.823 25.1316 48.1989C24.5383 47.5818 24.0742 46.8522 23.7667 46.0532C23.4592 45.2542 23.3145 44.4019 23.341 43.5462C23.341 41.3729 24.3485 39.4792 26.3635 37.8651" fill="#B8BABE"/>
</g>
<mask id="mask1_1933_2234" style="mask-type:luminance" maskUnits="userSpaceOnUse" x="0" y="24" width="11" height="11">
<path d="M10.309 24.3877H0.646484V34.0502H10.309V24.3877Z" fill="white"/>
</mask>
<g mask="url(#mask1_1933_2234)">
<path d="M5.43146 24.3888C6.07526 24.3747 6.71512 24.4927 7.31157 24.7354C7.90802 24.9782 8.44842 25.3405 8.89941 25.8002C9.35262 26.2361 9.71167 26.7602 9.95442 27.3402C10.1972 27.9203 10.3184 28.5439 10.3108 29.1727C10.3191 29.8157 10.1984 30.4539 9.95603 31.0495C9.71362 31.6451 9.35435 32.1861 8.89941 32.6406C8.44863 33.1008 7.90834 33.4636 7.31188 33.7068C6.71541 33.95 6.07544 34.0683 5.43146 34.0545C4.80188 34.0682 4.17645 33.9496 3.59554 33.7065C3.01463 33.4634 2.49117 33.1012 2.05895 32.6432C1.5997 32.1919 1.23759 31.6515 0.994876 31.0551C0.752165 30.4587 0.633983 29.819 0.647593 29.1752C0.633609 28.5456 0.752013 27.9201 0.995139 27.3391C1.23826 26.7581 1.60069 26.2347 2.05895 25.8027C2.49461 25.3491 3.01865 24.9895 3.59871 24.7463C4.17877 24.5032 4.80253 24.3815 5.43146 24.3888Z" fill="#B8BABE"/>
</g>
<mask id="mask2_1933_2234" style="mask-type:luminance" maskUnits="userSpaceOnUse" x="0" y="0" width="34" height="11">
<path d="M33.7582 0.355469H0.0292969V10.2006H33.7582V0.355469Z" fill="white"/>
</mask>
<g mask="url(#mask2_1933_2234)">
<path d="M4.94806 0.355469H29.036C30.3059 0.453178 31.4901 1.03388 32.3449 1.97809C32.7942 2.42674 33.1501 2.96002 33.3921 3.54708C33.634 4.13415 33.7571 4.76336 33.7543 5.39832C33.7575 6.02325 33.6293 6.64187 33.378 7.21408C33.1268 7.78628 32.7581 8.29932 32.2959 8.71992C31.3682 9.65577 30.1087 10.1879 28.791 10.2006H4.94806C4.0426 10.1705 3.16102 9.90255 2.39196 9.42369C1.62577 8.96796 0.995108 8.31599 0.56508 7.53508C0.212611 6.84403 0.028996 6.07926 0.0292972 5.3035C0.0304199 4.68335 0.138038 4.06799 0.347458 3.48426C0.543051 2.90963 0.867341 2.38729 1.29558 1.95709C1.74196 1.45442 2.29985 1.06324 2.92456 0.814893C3.56629 0.546537 4.24958 0.391108 4.94424 0.355469" fill="#B8BABE"/>
</g>
<mask id="mask3_1933_2234" style="mask-type:luminance" maskUnits="userSpaceOnUse" x="0" y="12" width="34" height="11">
<path d="M33.7582 12.2334H0.0292969V22.0786H33.7582V12.2334Z" fill="white"/>
</mask>
<g mask="url(#mask3_1933_2234)">
<path d="M4.94806 12.2334H29.036C30.3059 12.3311 31.4901 12.9118 32.3449 13.856C32.7942 14.3047 33.1501 14.8379 33.3921 15.425C33.634 16.0121 33.7571 16.6413 33.7543 17.2762C33.7575 17.9012 33.6293 18.5198 33.378 19.092C33.1268 19.6642 32.7581 20.1772 32.2959 20.5978C31.3682 21.5337 30.1087 22.0658 28.791 22.0786H4.94806C4.0426 22.0484 3.16102 21.7805 2.39196 21.3016C1.62577 20.8459 0.995108 20.1939 0.56508 19.413C0.212958 18.7205 0.0293813 17.9545 0.0292969 17.1776C0.0310334 16.5575 0.138633 15.9423 0.347458 15.3584C0.542166 14.7833 0.866574 14.2608 1.29558 13.8312C1.74122 13.3286 2.2994 12.9385 2.92456 12.6928C3.56649 12.4244 4.25 12.269 4.94488 12.2334" fill="#B8BABE"/>
</g>
<mask id="mask4_1933_2234" style="mask-type:luminance" maskUnits="userSpaceOnUse" x="43" y="3" width="15" height="25">
<path d="M57.6401 3.97119H43.6016V27.6723H57.6401V3.97119Z" fill="white"/>
</mask>
<g mask="url(#mask4_1933_2234)">
<path d="M43.6016 27.6723V3.97119H57.6401V6.33067H46.3944V14.1918H55.8673V16.5513H46.3944V27.6684L43.6016 27.6723Z" fill="#B8BABE"/>
</g>
<mask id="mask5_1933_2234" style="mask-type:luminance" maskUnits="userSpaceOnUse" x="62" y="3" width="3" height="25">
<path d="M64.9087 3.97119H62.1738V27.6723H64.9087V3.97119Z" fill="white"/>
</mask>
<g mask="url(#mask5_1933_2234)">
<path d="M64.9087 3.97656H62.1738V27.6706H64.9087V3.97656Z" fill="#B8BABE"/>
</g>
<mask id="mask6_1933_2234" style="mask-type:luminance" maskUnits="userSpaceOnUse" x="33" y="29" width="46" height="22">
<path d="M78.7311 29.4868H33.334V50.6356H78.7311V29.4868Z" fill="white"/>
</mask>
<g mask="url(#mask6_1933_2234)">
<path d="M36.1192 30.4058V43.2919C36.1012 43.4148 36.1122 43.5402 36.1513 43.6581C36.1904 43.776 36.2565 43.8832 36.3443 43.971C36.4321 44.0588 36.5393 44.1249 36.6572 44.164C36.7751 44.2031 36.9005 44.2141 37.0234 44.1961H59.1037L59.1222 45.8658H36.9617C36.2419 45.8975 35.5386 45.6447 35.0037 45.1621C34.7503 44.9221 34.5512 44.6307 34.4195 44.3076C34.2878 43.9844 34.2266 43.6368 34.2401 43.2881V30.3994H36.1179L36.1192 30.4058Z" fill="#B8BABE"/>
</g>
<mask id="mask7_1933_2234" style="mask-type:luminance" maskUnits="userSpaceOnUse" x="33" y="29" width="46" height="22">
<path d="M78.7311 29.4868H33.334V50.6356H78.7311V29.4868Z" fill="white"/>
</mask>
<g mask="url(#mask7_1933_2234)">
<path d="M58.6177 45.866V44.1963H61.3272V36.2225H63.1827V40.0805C63.1374 41.033 63.3344 41.9815 63.7554 42.8371C63.9888 43.2713 64.3413 43.6299 64.7714 43.8708C65.2015 44.1117 65.6914 44.2248 66.1836 44.1969H66.7448V45.866H66.1429C65.555 45.8861 64.972 45.7516 64.4525 45.4758C63.9329 45.1999 63.4948 44.7925 63.1821 44.2943V45.866H58.6133H58.6177ZM61.1153 32.2322C61.2225 32.1241 61.3522 32.0409 61.4951 31.9885C61.6381 31.9362 61.7908 31.916 61.9425 31.9293C62.0938 31.9201 62.2454 31.9423 62.3877 31.9944C62.5301 32.0465 62.6601 32.1275 62.7697 32.2322C62.9377 32.4521 63.0287 32.7212 63.0287 32.998C63.0287 33.2747 62.9377 33.5438 62.7697 33.7638C62.6622 33.8721 62.5328 33.9561 62.3901 34.0102C62.2474 34.0643 62.0948 34.0873 61.9425 34.0775C61.7899 34.0908 61.6363 34.0695 61.493 34.0152C61.3498 33.9609 61.2207 33.8749 61.1153 33.7638C60.922 33.5572 60.8174 33.283 60.8239 33.0002C60.816 32.7171 60.9208 32.4425 61.1153 32.2366" fill="#B8BABE"/>
</g>
<mask id="mask8_1933_2234" style="mask-type:luminance" maskUnits="userSpaceOnUse" x="33" y="29" width="46" height="22">
<path d="M78.7311 29.4868H33.334V50.6356H78.7311V29.4868Z" fill="white"/>
</mask>
<g mask="url(#mask8_1933_2234)">
<path d="M72.5449 48.6782C72.5352 48.4006 72.6273 48.129 72.8039 47.9146C72.9082 47.8009 73.0366 47.7121 73.1798 47.6547C73.323 47.5974 73.4772 47.5729 73.6311 47.5831C73.7853 47.57 73.9404 47.5931 74.084 47.6507C74.2277 47.7083 74.3559 47.7986 74.4583 47.9146C74.555 48.0162 74.6306 48.1361 74.6806 48.2672C74.7306 48.3982 74.7541 48.5379 74.7498 48.6782C74.7558 48.814 74.733 48.9496 74.6827 49.076C74.6325 49.2023 74.556 49.3166 74.4583 49.4112C74.3529 49.5224 74.2238 49.6083 74.0806 49.6626C73.9374 49.7169 73.7837 49.7382 73.6311 49.7249C73.4789 49.7344 73.3263 49.7113 73.1837 49.6572C73.0411 49.6031 72.9116 49.5192 72.8039 49.4112C72.6272 49.2089 72.5345 48.9466 72.5449 48.6782ZM75.9359 44.1965V36.2222H77.8137V45.8701H66.4375V44.1965H75.9359ZM75.6177 48.6782C75.608 48.4006 75.7001 48.129 75.8767 47.9146C75.981 47.8009 76.1094 47.7121 76.2526 47.6547C76.3958 47.5974 76.55 47.5729 76.7039 47.5831C76.8581 47.57 77.0132 47.5931 77.1568 47.6507C77.3005 47.7083 77.4287 47.7986 77.5311 47.9146C77.6278 48.0162 77.7034 48.1361 77.7534 48.2672C77.8034 48.3982 77.8269 48.5379 77.8226 48.6782C77.8295 48.8141 77.807 48.9499 77.7567 49.0764C77.7064 49.2029 77.6295 49.3171 77.5311 49.4112C77.426 49.5227 77.2969 49.6089 77.1536 49.6632C77.0103 49.7175 76.8566 49.7386 76.7039 49.7249C76.5517 49.7344 76.3991 49.7113 76.2565 49.6572C76.1139 49.6031 75.9844 49.5192 75.8767 49.4112C75.6985 49.2097 75.6056 48.9469 75.6177 48.6782Z" fill="#B8BABE"/>
</g>
<mask id="mask9_1933_2234" style="mask-type:luminance" maskUnits="userSpaceOnUse" x="70" y="3" width="19" height="25">
<path d="M88.0131 3.97119H70.875V27.6723H88.0131V3.97119Z" fill="white"/>
</mask>
<g mask="url(#mask9_1933_2234)">
<path d="M73.6424 27.6723H70.875V3.97119H73.3802C75.6519 7.39163 79.6058 13.831 85.2419 23.2893V3.97119H88.0092V27.6723H85.4277C84.0787 25.6522 81.3342 21.2838 77.1943 14.5672C75.4478 11.725 74.2628 9.77784 73.6392 8.72579V27.6723H73.6424Z" fill="#B8BABE"/>
</g>
<mask id="mask10_1933_2234" style="mask-type:luminance" maskUnits="userSpaceOnUse" x="91" y="3" width="21" height="25">
<path d="M111.046 3.97119H91.1738V27.6723H111.046V3.97119Z" fill="white"/>
</mask>
<g mask="url(#mask10_1933_2234)">
<path d="M99.6654 3.97119H102.546L111.038 27.6723H108.194L106.285 22.1299H95.9938L94.0466 27.6723H91.166L99.6622 3.97119H99.6654ZM101.088 7.07771L96.7446 19.8041H105.462L101.083 7.07771H101.088Z" fill="#B8BABE"/>
</g>
<mask id="mask11_1933_2234" style="mask-type:luminance" maskUnits="userSpaceOnUse" x="82" y="29" width="46" height="18">
<path d="M127.302 29.4868H82.0879V46.8069H127.302V29.4868Z" fill="white"/>
</mask>
<g mask="url(#mask11_1933_2234)">
<path d="M84.8753 30.4009V43.3118C84.8575 43.4349 84.8686 43.5604 84.9077 43.6784C84.9467 43.7964 85.0128 43.9037 85.1005 43.9918C85.1882 44.0799 85.2952 44.1464 85.4131 44.186C85.5309 44.2255 85.6564 44.2371 85.7795 44.2199H88.0066L88.0283 45.8934H85.7235C85.0018 45.9258 84.2966 45.6714 83.7617 45.1858C83.5077 44.9463 83.3081 44.6551 83.1764 44.3318C83.0446 44.0085 82.9838 43.6607 82.9981 43.3118V30.4009H84.8797H84.8753Z" fill="#B8BABE"/>
</g>
<mask id="mask12_1933_2234" style="mask-type:luminance" maskUnits="userSpaceOnUse" x="82" y="29" width="46" height="18">
<path d="M127.302 29.4868H82.0879V46.8069H127.302V29.4868Z" fill="white"/>
</mask>
<g mask="url(#mask12_1933_2234)">
<path d="M87.5117 45.8951V44.2216H117.452C116.776 43.4868 116.328 42.5711 116.163 41.5863C115.999 40.6015 116.124 39.59 116.524 38.6752C116.924 37.7603 117.582 36.9816 118.416 36.4339C119.251 35.8862 120.227 35.5931 121.226 35.5905C121.901 35.5799 122.571 35.7089 123.194 35.9692C123.817 36.2296 124.38 36.6158 124.847 37.1037C125.335 37.5761 125.721 38.144 125.981 38.7718C126.24 39.3997 126.368 40.0743 126.356 40.7536L126.378 45.8989H87.5117V45.8951ZM117.908 40.7498C117.885 41.6529 118.218 42.5287 118.834 43.1895C119.13 43.5241 119.496 43.7896 119.907 43.9673C120.317 44.1449 120.761 44.2305 121.207 44.2178H124.5V40.7498C124.519 39.8408 124.187 38.9594 123.573 38.2885C123.28 37.958 122.918 37.695 122.514 37.5175C122.109 37.34 121.67 37.2522 121.228 37.2602C120.783 37.2539 120.341 37.3423 119.931 37.5196C119.522 37.6969 119.155 37.9589 118.855 38.2885C118.23 38.9535 117.891 39.8373 117.911 40.7498M120.405 31.583C120.511 31.473 120.641 31.3878 120.784 31.3336C120.927 31.2793 121.08 31.2574 121.232 31.2693C121.385 31.2584 121.538 31.2809 121.68 31.335C121.823 31.3892 121.953 31.4738 122.06 31.583C122.232 31.7996 122.325 32.0694 122.322 32.3465C122.329 32.6217 122.236 32.8899 122.06 33.1012C121.952 33.2089 121.822 33.2924 121.679 33.3465C121.537 33.4006 121.385 33.4239 121.232 33.4149C121.087 33.4276 120.942 33.409 120.805 33.3602C120.668 33.3114 120.543 33.2337 120.439 33.1323C120.334 33.0308 120.253 32.9082 120.201 32.7726C120.148 32.637 120.126 32.4917 120.135 32.3465C120.124 32.0663 120.222 31.7927 120.408 31.583" fill="#B8BABE"/>
</g>
<mask id="mask13_1933_2234" style="mask-type:luminance" maskUnits="userSpaceOnUse" x="114" y="3" width="13" height="25">
<path d="M126.238 3.97119H114.205V27.6723H126.238V3.97119Z" fill="white"/>
</mask>
<g mask="url(#mask13_1933_2234)">
<path d="M114.205 27.6723V3.97119H116.958V25.3134H126.238V27.6678L114.205 27.6723Z" fill="#B8BABE"/>
</g>
</g>
<defs>
<clipPath id="clip0_1933_2234">
<rect width="127.264" height="50.2828" fill="white" transform="translate(0.0371094 0.358398)"/>
</clipPath>
</defs>
</svg>
