<svg width="167" height="47" viewBox="0 0 167 47" fill="none" xmlns="http://www.w3.org/2000/svg">
<path d="M13.7515 2.36189L1.21469 21.484C0.633423 22.3706 0.545353 23.4954 0.981302 24.4659L10.2507 45.048L14.302 38.8681C16.2043 35.97 16.539 32.3132 15.1959 29.1151L8.81958 14.4262C8.5994 13.9189 8.65224 13.3411 8.95168 12.8779C9.25553 12.4148 9.77514 12.1369 10.33 12.1413L26.6715 12.3177C30.137 12.2868 33.3604 10.5224 35.2672 7.6199L39.3316 1.42232L16.4069 0.959159C15.3412 0.937104 14.3372 1.46643 13.7515 2.35747V2.36189Z" fill="#D0D1D4"/>
<path d="M42.6902 35.0703L36.4152 44.6379C35.8339 45.529 34.8343 46.0583 33.7731 46.0362L11.2402 45.6966L15.2959 39.5122C17.1938 36.6186 20.4084 34.8497 23.8695 34.81L39.8587 34.8365H39.8764C40.6073 34.8365 40.8892 33.8793 40.2771 33.4779L25.1686 23.5397L31.1662 20.1299C33.7731 18.6478 36.992 18.7536 39.4977 20.4034L46.6314 25.0968C47.631 25.754 47.9128 27.1038 47.2523 28.1052L42.6858 35.0659L42.6902 35.0703Z" fill="#B1B1B1"/>
<path d="M126.538 20.9367C126.538 21.3867 126.384 21.7748 126.084 22.0748C125.785 22.3747 125.384 22.5379 124.917 22.5379C124.473 22.5379 124.089 22.3836 123.781 22.0748C123.473 21.766 123.314 21.3867 123.314 20.9367C123.314 20.4868 123.469 20.0898 123.781 19.7854C124.094 19.4811 124.477 19.3223 124.917 19.3223C125.384 19.3223 125.78 19.4767 126.084 19.7854C126.384 20.0854 126.538 20.4736 126.538 20.9367Z" fill="#B8BABE"/>
<path d="M118.163 19.6308C117.859 19.9969 117.709 20.3939 117.709 20.835C117.709 21.232 117.837 21.5805 118.088 21.8981C118.343 22.2201 118.717 22.4671 119.219 22.6524C119.972 22.9303 120.946 23.0053 122.064 22.8465C122.434 22.7935 122.777 22.7186 123.108 22.6259L123.244 22.5906L124.138 25.1579L124.01 25.2108C123.544 25.427 123.042 25.5946 122.522 25.7093C122.011 25.8151 121.492 25.8769 120.972 25.8769C120.25 25.8769 119.523 25.771 118.81 25.5593C118.11 25.3432 117.476 25.0211 116.916 24.6065C116.348 24.1742 115.904 23.6449 115.586 23.0362C115.256 22.423 115.098 21.704 115.098 20.9012C115.098 20.2175 115.234 19.547 115.512 18.8941C115.78 18.2457 116.199 17.6458 116.745 17.1253C117.295 16.6048 117.982 16.1857 118.792 15.8858C119.594 15.5814 120.554 15.4226 121.637 15.4226H124.689V12.9083C124.689 12.3304 124.543 11.854 124.257 11.4438C123.962 11.038 123.535 10.7072 122.989 10.4601C122.425 10.2264 121.743 10.1073 120.972 10.1073C120.377 10.1073 119.774 10.1734 119.171 10.3102C118.594 10.4469 118.074 10.6145 117.625 10.813L117.489 10.8792L116.428 8.50603L116.542 8.43545C117.207 8.0164 117.925 7.68998 118.687 7.47383C119.431 7.2621 120.215 7.16064 121.016 7.16064C121.901 7.16064 122.733 7.29298 123.486 7.56205C124.239 7.8179 124.913 8.2149 125.486 8.73099C126.049 9.24268 126.49 9.85141 126.815 10.5528C127.132 11.2718 127.287 12.0393 127.287 12.9039V15.4182H128.159L127.687 18.3648H121.637C120.818 18.3648 120.109 18.4795 119.523 18.7177C118.938 18.9471 118.48 19.2559 118.171 19.6308H118.163Z" fill="#B8BABE"/>
<path d="M132.866 1.26318H130.268V18.3606H132.866V1.26318Z" fill="#B8BABE"/>
<path d="M161.807 22.2863C161.807 22.7406 161.653 23.1244 161.353 23.4332C161.049 23.7375 160.658 23.8963 160.186 23.8963C159.742 23.8963 159.367 23.7419 159.055 23.4332C158.742 23.1376 158.588 22.7494 158.588 22.2863C158.588 21.8231 158.742 21.4349 159.059 21.135C159.363 20.835 159.742 20.6851 160.186 20.6851C160.653 20.6851 161.049 20.835 161.353 21.1394C161.653 21.4438 161.807 21.8275 161.807 22.2863Z" fill="#B8BABE"/>
<path d="M166.95 15.4138L166.462 18.3604H138.935V19.022C138.935 20.0013 138.741 20.8526 138.367 21.554C137.984 22.2598 137.438 22.82 136.755 23.1993C136.068 23.5831 135.227 23.786 134.259 23.8169H134.126L133.646 20.9938H133.827C134.488 20.9938 134.981 20.9276 135.346 20.7909C135.707 20.6585 135.95 20.4556 136.099 20.1689C136.262 19.869 136.337 19.4896 136.337 19.0309V8.17516H138.931V15.427H163.463V12.9127C163.463 12.3348 163.326 11.8628 163.031 11.4482C162.745 11.0291 162.331 10.7115 161.772 10.4645C161.217 10.2307 160.539 10.1116 159.759 10.1116C159.147 10.1116 158.54 10.1778 157.95 10.3145C157.368 10.4513 156.853 10.6189 156.413 10.8174L156.276 10.8792L155.193 8.51041L155.307 8.43983C155.977 8.02077 156.703 7.69435 157.47 7.48703C158.218 7.27089 158.998 7.16943 159.781 7.16943C160.684 7.16943 161.525 7.30177 162.278 7.57084C163.031 7.82669 163.705 8.22368 164.277 8.73978C164.841 9.25147 165.29 9.86902 165.598 10.5616C165.92 11.2806 166.078 12.0437 166.078 12.9127V15.427H166.946L166.95 15.4138Z" fill="#B8BABE"/>
<path d="M110.197 22.2468C110.197 22.6967 110.043 23.0849 109.744 23.3848C109.444 23.6848 109.044 23.848 108.577 23.848C108.11 23.848 107.758 23.6936 107.445 23.3848C107.133 23.0893 106.979 22.7011 106.979 22.2468C106.979 21.7924 107.133 21.3954 107.45 21.091C107.754 20.7911 108.132 20.6411 108.577 20.6411C109.044 20.6411 109.44 20.7911 109.744 21.0955C110.048 21.3998 110.197 21.7836 110.197 22.2468Z" fill="#B8BABE"/>
<path d="M110.74 8.12263V18.3167H96.754C95.7544 18.3167 94.9221 18.1446 94.2704 17.8138C94.037 17.6859 93.8169 17.5359 93.6319 17.3683C93.4293 17.5403 93.2048 17.6903 92.967 17.8138C92.3197 18.1446 91.483 18.3167 90.4834 18.3167H80.5358C79.5318 18.3167 78.6996 18.1446 78.0434 17.8138C77.8453 17.7123 77.6559 17.5932 77.4666 17.4433C77.286 17.5932 77.0967 17.73 76.8897 17.8403C75.8373 18.4181 74.6615 18.4622 73.5871 18.0123C73.1027 17.8006 72.6667 17.4785 72.2924 17.0507C72.288 17.0463 72.2792 17.0374 72.2792 17.033C71.9974 17.3639 71.6759 17.6329 71.3016 17.8358C70.2536 18.4137 69.0999 18.4578 67.999 18.0079C67.7832 17.9108 67.5807 17.805 67.4001 17.6726C67.3473 17.8755 67.2944 18.0785 67.2284 18.2725C66.9245 19.1856 66.4754 20.0017 65.8853 20.6898C65.282 21.3956 64.573 21.9293 63.7144 22.3131C62.8689 22.6969 61.8781 22.8954 60.7552 22.8954C59.6323 22.8954 58.6459 22.6969 57.8092 22.3131C56.9549 21.9293 56.2284 21.3779 55.6603 20.681C55.079 19.9929 54.6431 19.1812 54.3481 18.2814C54.053 17.3815 53.9121 16.3934 53.9121 15.3303C53.9121 14.7481 53.9561 14.1614 54.0442 13.5791C54.1279 13.0013 54.2468 12.4323 54.4053 11.8765L54.4405 11.7441L56.9241 12.2073L56.8889 12.3573C56.7832 12.8248 56.6863 13.3233 56.6071 13.8879C56.541 14.3599 56.5102 14.8363 56.5102 15.3348C56.5102 16.3317 56.6731 17.1565 56.999 17.8535C57.338 18.5416 57.8092 19.0533 58.4433 19.4106C59.0774 19.7635 59.8569 19.9443 60.7552 19.9443C61.6535 19.9443 62.4682 19.7635 63.1067 19.4106C63.7408 19.0489 64.234 18.5284 64.573 17.8447C64.9033 17.1609 65.075 16.3096 65.075 15.3303V10.112H67.6731V14.554C67.7744 14.8187 67.9505 15.0348 68.1927 15.1936C68.8533 15.6215 69.6063 15.5597 70.1875 15.0657C70.5046 14.7966 70.6587 14.3952 70.6587 13.8306V9.09307H73.2568V13.9761C73.2568 14.1791 73.2524 14.3555 73.2348 14.5143C73.3361 14.7966 73.5122 15.0172 73.772 15.1848C74.0758 15.3833 74.3885 15.4803 74.7188 15.4803C75.1063 15.4803 75.4542 15.3436 75.7844 15.0657C76.0883 14.801 76.238 14.3952 76.238 13.8306V8.10939H78.8581V13.9761C78.8581 14.2629 78.8405 14.5408 78.8052 14.7922C78.8096 14.8054 78.8096 14.8098 78.8096 14.8142C78.8933 15.026 79.0474 15.1539 79.294 15.2333C79.5759 15.3127 79.9898 15.3612 80.5226 15.3612H90.4702C91.0074 15.3612 91.439 15.3127 91.7076 15.2333C91.941 15.1539 92.0951 15.0172 92.1787 14.8187C92.2668 14.5893 92.3153 14.2496 92.3153 13.8306V1.21045H94.9133V13.8438C94.9133 14.2893 94.953 14.6246 95.041 14.8319C95.1203 15.0348 95.2744 15.1671 95.521 15.2465C95.8073 15.3259 96.2168 15.3745 96.7408 15.3745H108.128V8.12263H110.726H110.74Z" fill="#B8BABE"/>
<path d="M67.9501 34.2453C67.9105 38.3255 65.1098 41.3736 61.0586 41.3736C57.0074 41.3736 53.8809 38.3696 53.8809 33.963C53.8809 29.5563 57.025 26.5303 61.1158 26.5303C63.5686 26.5303 65.515 27.4654 66.77 28.9475L64.7443 30.5532C63.9341 29.6577 62.6571 28.9917 61.1775 28.9917C58.6235 28.9917 56.6375 30.7385 56.6375 33.9277C56.6375 37.1169 58.7027 38.9828 61.0982 38.9828C63.2251 38.9828 64.8676 37.7212 65.2331 35.3701H61.3404V33.0543H67.9501C67.9501 33.3366 67.9721 33.9894 67.9501 34.2497V34.2453Z" fill="#B8BABE"/>
<path d="M78.5142 30.3678H81.0903V41.1088H78.5142V39.1591C77.6203 40.5618 76.3653 41.3514 74.6831 41.3514C71.9045 41.3514 69.4121 39.4237 69.4121 35.7449C69.4121 32.066 71.8252 30.0811 74.6831 30.0811C76.3256 30.0811 77.6027 30.7515 78.5142 32.0308V30.3678ZM78.5142 35.7273V35.6258C77.9902 33.5526 76.6515 32.2734 75.0706 32.2734C73.4061 32.2734 72.1335 33.4291 72.1335 35.7052C72.1335 37.9813 73.4105 39.1547 75.0706 39.1547C76.7308 39.1547 78.0298 37.7343 78.5142 35.7228V35.7273Z" fill="#B8BABE"/>
<path d="M89.7685 30.3062L89.403 32.5205C89.1212 32.4191 88.7336 32.3794 88.4518 32.3794C87.1352 32.3794 85.9374 33.5174 85.2284 35.3657V41.1133H82.6348V30.3723H85.2284V32.3617C86.0607 31.0825 87.2144 30.1694 88.716 30.1694C89.1035 30.1694 89.4646 30.2091 89.7685 30.3106V30.3062Z" fill="#B8BABE"/>
<path d="M100.54 30.3678H103.116V41.1088H100.54V39.1591C99.6457 40.5618 98.3907 41.3514 96.7085 41.3514C93.9343 41.3514 91.4375 39.4237 91.4375 35.7449C91.4375 32.066 93.8506 30.0811 96.7085 30.0811C98.351 30.0811 99.6281 30.7515 100.54 32.0308V30.3678ZM100.54 35.7273V35.6258C100.016 33.5526 98.6769 32.2734 97.096 32.2734C95.4315 32.2734 94.1589 33.4291 94.1589 35.7052C94.1589 37.9813 95.4359 39.1547 97.096 39.1547C98.7562 39.1547 100.055 37.7343 100.54 35.7228V35.7273Z" fill="#B8BABE"/>
<path d="M113.764 30.3678H116.34V41.0867C116.34 43.7466 113.887 45.6345 110.462 45.6345C108.555 45.6345 106.569 45.1052 105.371 44.3156L105.737 42.0219C107.053 42.8556 109 43.3231 110.44 43.3231C112.245 43.3231 113.764 42.5115 113.764 40.6853V38.9165C112.87 40.2751 111.598 40.9279 109.911 40.9279C107.155 40.9279 104.662 39.2208 104.662 35.5684C104.662 31.9161 107.075 30.0854 109.911 30.0854C111.571 30.0854 112.848 30.7736 113.764 32.0528V30.3678ZM113.764 35.6258V35.542C113.24 33.5129 111.902 32.2733 110.299 32.2733C108.696 32.2733 107.357 33.31 107.357 35.5199C107.357 37.6108 108.656 38.7268 110.316 38.7268C111.976 38.7268 113.253 37.6108 113.76 35.6214L113.764 35.6258Z" fill="#B8BABE"/>
<path d="M120.682 36.5609C120.946 38.3871 122.1 39.3002 124.169 39.3002C125.486 39.3002 126.583 39.0753 127.838 38.4048L128.282 40.2751C127.107 40.9632 125.605 41.3911 123.76 41.3911C120.03 41.3911 117.982 39.2782 117.982 35.8067C117.982 32.3351 120.312 30.0811 123.496 30.0811C126.455 30.0811 128.784 31.8675 128.784 35.7273C128.784 36.0537 128.762 36.336 128.723 36.5609H120.673H120.682ZM126.116 34.9377C125.931 33.0718 125.041 32.1366 123.46 32.1366C121.88 32.1366 120.906 33.0894 120.682 34.9377H126.116Z" fill="#B8BABE"/>
<path d="M140.358 33.6059C140.358 36.773 137.764 38.4184 135.025 38.4184H133.14V43.0897H130.463V28.8154H135.025C137.883 28.8154 140.358 30.3593 140.358 33.6059ZM134.501 36.204C136.571 36.204 137.645 35.1895 137.645 33.6853C137.645 31.9164 136.593 31.0254 134.483 31.0254H133.145V36.204H134.501Z" fill="#B8BABE"/>
<path d="M142.061 43.0897V28.8154H144.654V43.0897H142.061Z" fill="#B8BABE"/>
<path d="M154.096 32.3487H156.672V43.0896H154.096V41.0782C153.123 42.5427 151.824 43.2926 150.164 43.2926C147.953 43.2926 146.311 42.1545 146.311 38.6609V32.3442H148.887V38.4977C148.887 40.3063 149.574 41.0958 150.833 41.0958C152.251 41.0958 153.308 40.121 154.096 38.0698V32.3442V32.3487Z" fill="#B8BABE"/>
<path d="M158.178 42.4017L158.623 40.2888C159.535 40.8754 160.952 41.3651 162.229 41.3651C163.506 41.3651 164.339 40.9769 164.339 40.1035C164.339 37.9729 158.319 39.8388 158.319 35.516C158.319 33.4251 159.984 32.0444 162.78 32.0444C164.176 32.0444 165.576 32.4326 166.571 32.9575L166.105 35.0484C165.153 34.5014 164.017 34.0956 162.903 34.0956C161.727 34.0956 160.895 34.5632 160.895 35.3572C160.895 37.6509 166.915 35.8027 166.915 39.8432C166.915 41.9561 164.907 43.3589 162.15 43.3589C160.53 43.3589 159.046 42.8692 158.174 42.4061L158.178 42.4017Z" fill="#B8BABE"/>
</svg>
