<svg width="200" height="57" viewBox="0 0 200 57" fill="none" xmlns="http://www.w3.org/2000/svg">
<rect x="0.715462" y="0.715462" width="198.569" height="55.5691" rx="7.87009" fill="white"/>
<rect x="0.715462" y="0.715462" width="198.569" height="55.5691" rx="7.87009" stroke="black" stroke-width="1.43092"/>
<path d="M25.4779 27.8496L11.5762 42.9376C11.5775 42.9403 11.5775 42.9443 11.5788 42.947C12.0057 44.5853 13.4681 45.791 15.2047 45.791C15.8993 45.791 16.5509 45.5987 17.1097 45.2623L17.1541 45.2356L32.8016 36.0025L25.4779 27.8496Z" fill="#EA4335"/>
<path d="M39.5417 25.2775L39.5287 25.2682L32.773 21.2639L25.1621 28.1897L32.8004 35.998L39.5195 32.0338C40.6973 31.3822 41.4977 30.1124 41.4977 28.649C41.4977 27.1936 40.709 25.9305 39.5417 25.2775Z" fill="#FBBC04"/>
<path d="M11.5752 14.3049C11.4917 14.62 11.4473 14.9511 11.4473 15.2929V41.9547C11.4473 42.2965 11.4917 42.6276 11.5765 42.9414L25.9548 28.2393L11.5752 14.3049Z" fill="#4285F4"/>
<path d="M25.5791 28.6211L32.7735 21.2653L17.1443 11.9989C16.5763 11.6504 15.913 11.4501 15.2041 11.4501C13.4675 11.4501 12.0025 12.6585 11.5755 14.2982C11.5755 14.2995 11.5742 14.3008 11.5742 14.3022L25.5791 28.6211Z" fill="#34A853"/>
<path d="M60.2617 17.5078V18.0645C60.2578 18.6621 60.1562 19.2207 59.957 19.7402C59.7617 20.2598 59.4902 20.707 59.1426 21.082C58.7988 21.457 58.3789 21.752 57.8828 21.9668C57.3867 22.1816 56.8477 22.2891 56.2656 22.2891C55.457 22.2891 54.7324 22.1094 54.0918 21.75C53.4512 21.3867 52.9492 20.873 52.5859 20.209C52.2227 19.5449 52.041 18.7852 52.041 17.9297C52.041 17.1055 52.2246 16.3613 52.5918 15.6973C52.959 15.0332 53.4648 14.5137 54.1094 14.1387C54.7578 13.7637 55.4805 13.5762 56.2773 13.5762C57.5938 13.5762 58.6699 14.0078 59.5059 14.8711L58.6035 15.709C57.9629 15.0527 57.1875 14.7246 56.2773 14.7246C55.875 14.7246 55.4961 14.7969 55.1406 14.9414C54.7852 15.0859 54.4727 15.291 54.2031 15.5566C53.9375 15.8184 53.7266 16.1543 53.5703 16.5645C53.4141 16.9707 53.3359 17.4219 53.3359 17.918C53.3359 18.4258 53.4141 18.8867 53.5703 19.3008C53.7266 19.7109 53.9395 20.0508 54.209 20.3203C54.4785 20.5859 54.7891 20.791 55.1406 20.9355C55.4961 21.0762 55.875 21.1465 56.2773 21.1465C56.9922 21.1465 57.5977 20.9238 58.0938 20.4785C58.5938 20.0332 58.8887 19.4082 58.9785 18.6035H56.5176V17.5078H60.2617ZM66.666 13.7168V14.8125H62.9805V17.3906H66.127V18.457H62.9805V21.0645H66.666V22.1543H61.7441V13.7168H66.666ZM67.3984 13.7168H74.1074V14.8242H71.3711V22.1543H70.123V14.8242H67.3984V13.7168ZM79.4336 22.1543H78.1973V13.7168H79.4336V22.1543ZM80.6523 13.7168H87.3613V14.8242H84.625V22.1543H83.377V14.8242H80.6523V13.7168ZM95.1953 22.2891C94.5781 22.2891 94.0059 22.1836 93.4785 21.9727C92.9551 21.7617 92.5059 21.4688 92.1309 21.0938C91.7598 20.7148 91.4688 20.2539 91.2578 19.7109C91.0508 19.1641 90.9473 18.5664 90.9473 17.918C90.9473 17.0938 91.1309 16.3516 91.498 15.6914C91.8652 15.0273 92.373 14.5098 93.0215 14.1387C93.6699 13.7637 94.3945 13.5762 95.1953 13.5762C95.8047 13.5762 96.3711 13.6836 96.8945 13.8984C97.418 14.1133 97.8652 14.4102 98.2363 14.7891C98.6074 15.168 98.8965 15.627 99.1035 16.166C99.3145 16.7051 99.4199 17.2891 99.4199 17.918C99.4199 18.5352 99.3105 19.1152 99.0918 19.6582C98.877 20.2012 98.582 20.6641 98.207 21.0469C97.832 21.4297 97.3828 21.7324 96.8594 21.9551C96.3398 22.1777 95.7852 22.2891 95.1953 22.2891ZM95.1953 21.1465C95.5742 21.1465 95.9395 21.0742 96.291 20.9297C96.6426 20.7812 96.9551 20.5742 97.2285 20.3086C97.502 20.043 97.7188 19.7051 97.8789 19.2949C98.043 18.8848 98.125 18.4336 98.125 17.9414C98.1211 17.4414 98.0391 16.9863 97.8789 16.5762C97.7227 16.1621 97.5078 15.8223 97.2344 15.5566C96.9648 15.2871 96.6523 15.0801 96.2969 14.9355C95.9453 14.7871 95.5703 14.7129 95.1719 14.7129C94.7773 14.7129 94.4023 14.7871 94.0469 14.9355C93.6953 15.0801 93.3828 15.2871 93.1094 15.5566C92.8398 15.8223 92.625 16.1602 92.4648 16.5703C92.3086 16.9805 92.2305 17.4297 92.2305 17.918C92.2305 18.4258 92.3066 18.8867 92.459 19.3008C92.6152 19.7109 92.8281 20.0508 93.0977 20.3203C93.3711 20.5859 93.6855 20.791 94.041 20.9355C94.4004 21.0762 94.7852 21.1465 95.1953 21.1465ZM107.037 18.832V13.7168H108.25V22.1543H107.049L102.812 16.541L102.191 15.6035L102.203 17.1855V22.1543H100.99V13.7168H102.191L106.27 19.1777L107.049 20.2969L107.037 18.832Z" fill="black"/>
<path d="M127.062 44.4326H129.202V29.9692H127.062V44.4326ZM146.332 35.1791L143.88 41.4499H143.806L141.261 35.1791H138.956L142.773 43.9432L140.598 48.8187H142.828L148.711 35.1791H146.332ZM134.199 42.7897C133.498 42.7897 132.521 42.4368 132.521 41.561C132.521 40.4457 133.737 40.0176 134.789 40.0176C135.729 40.0176 136.173 40.2224 136.744 40.5012C136.577 41.841 135.434 42.7897 134.199 42.7897ZM134.457 34.8633C132.908 34.8633 131.303 35.5517 130.641 37.0777L132.539 37.8772C132.945 37.0777 133.701 36.8162 134.494 36.8162C135.601 36.8162 136.725 37.4861 136.744 38.6778V38.8259C136.356 38.6026 135.527 38.2682 134.512 38.2682C132.466 38.2682 130.382 39.4032 130.382 41.524C130.382 43.4596 132.06 44.7068 133.94 44.7068C135.379 44.7068 136.173 44.0554 136.67 43.2918H136.744V44.4083H138.808V38.8629C138.808 36.2956 136.91 34.8633 134.457 34.8633ZM121.236 36.94H118.193V31.9824H121.236C122.835 31.9824 123.743 33.3187 123.743 34.4606C123.743 35.5817 122.835 36.94 121.236 36.94ZM121.181 29.9692H116.055V44.4326H118.193V38.9532H121.181C123.552 38.9532 125.883 37.22 125.883 34.4606C125.883 31.7012 123.552 29.9692 121.181 29.9692ZM93.2275 42.792C91.7496 42.792 90.5125 41.5436 90.5125 39.829C90.5125 38.0958 91.7496 36.8278 93.2275 36.8278C94.687 36.8278 95.8312 38.0958 95.8312 39.829C95.8312 41.5436 94.687 42.792 93.2275 42.792ZM95.6845 35.989H95.6099C95.1295 35.4117 94.2066 34.8899 93.0429 34.8899C90.6042 34.8899 88.3697 37.0511 88.3697 39.829C88.3697 42.5872 90.6042 44.7311 93.0429 44.7311C94.2066 44.7311 95.1295 44.2093 95.6099 43.6123H95.6845V44.3215C95.6845 46.2039 94.687 47.2105 93.0796 47.2105C91.7679 47.2105 90.9551 46.2595 90.6226 45.4577L88.7572 46.241C89.2926 47.546 90.7154 49.1484 93.0796 49.1484C95.5916 49.1484 97.7161 47.6571 97.7161 44.023V35.1872H95.6845V35.989ZM99.1939 44.4326H101.337V29.9681H99.1939V44.4326ZM104.494 39.6612C104.439 37.7603 105.954 36.7908 107.043 36.7908C107.894 36.7908 108.614 37.2189 108.853 37.8344L104.494 39.6612ZM111.144 38.0206C110.738 36.9215 109.5 34.8899 106.97 34.8899C104.458 34.8899 102.371 36.8833 102.371 39.8105C102.371 42.5687 104.439 44.7311 107.209 44.7311C109.445 44.7311 110.738 43.352 111.274 42.5502L109.611 41.4314C109.057 42.2517 108.3 42.792 107.209 42.792C106.12 42.792 105.344 42.2887 104.845 41.3018L111.365 38.5795L111.144 38.0206ZM59.1976 36.3997V38.4869H64.1472C63.9993 39.6612 63.6117 40.5186 63.0213 41.1144C62.3001 41.8421 61.1731 42.6439 59.1976 42.6439C56.149 42.6439 53.7666 40.1645 53.7666 37.0893C53.7666 34.0129 56.149 31.5346 59.1976 31.5346C60.8417 31.5346 62.0422 32.1872 62.9284 33.026L64.3879 31.5531C63.1497 30.3603 61.5067 29.4463 59.1976 29.4463C55.0232 29.4463 51.5137 32.8767 51.5137 37.0893C51.5137 41.3018 55.0232 44.7311 59.1976 44.7311C61.4505 44.7311 63.1497 43.9849 64.4797 42.5872C65.8475 41.2081 66.2717 39.2702 66.2717 37.7036C66.2717 37.2189 66.235 36.7723 66.1604 36.3997H59.1976ZM71.8999 42.792C70.4221 42.792 69.1471 41.5621 69.1471 39.8105C69.1471 38.0391 70.4221 36.8278 71.8999 36.8278C73.3766 36.8278 74.6516 38.0391 74.6516 39.8105C74.6516 41.5621 73.3766 42.792 71.8999 42.792ZM71.8999 34.8899C69.2022 34.8899 67.0043 36.9585 67.0043 39.8105C67.0043 42.6439 69.2022 44.7311 71.8999 44.7311C74.5965 44.7311 76.7944 42.6439 76.7944 39.8105C76.7944 36.9585 74.5965 34.8899 71.8999 34.8899ZM82.5775 42.792C81.0996 42.792 79.8247 41.5621 79.8247 39.8105C79.8247 38.0391 81.0996 36.8278 82.5775 36.8278C84.0553 36.8278 85.3291 38.0391 85.3291 39.8105C85.3291 41.5621 84.0553 42.792 82.5775 42.792ZM82.5775 34.8899C79.8808 34.8899 77.683 36.9585 77.683 39.8105C77.683 42.6439 79.8808 44.7311 82.5775 44.7311C85.2741 44.7311 87.4719 42.6439 87.4719 39.8105C87.4719 36.9585 85.2741 34.8899 82.5775 34.8899Z" fill="black"/>
</svg>
