<svg width="164" height="57" viewBox="0 0 164 57" fill="none" xmlns="http://www.w3.org/2000/svg">
<rect x="1.21546" y="0.715462" width="162.069" height="55.5691" rx="7.87009" fill="white"/>
<rect x="1.21546" y="0.715462" width="162.069" height="55.5691" rx="7.87009" stroke="black" stroke-width="1.43092"/>
<path d="M25.9779 27.8496L12.0762 42.9376C12.0775 42.9403 12.0775 42.9443 12.0788 42.947C12.5057 44.5853 13.9681 45.791 15.7047 45.791C16.3993 45.791 17.0509 45.5987 17.6097 45.2623L17.6541 45.2356L33.3016 36.0025L25.9779 27.8496Z" fill="#EA4335"/>
<path d="M40.0417 25.2775L40.0287 25.2682L33.273 21.2639L25.6621 28.1897L33.3004 35.998L40.0195 32.0338C41.1973 31.3822 41.9977 30.1124 41.9977 28.649C41.9977 27.1936 41.209 25.9305 40.0417 25.2775Z" fill="#FBBC04"/>
<path d="M12.0752 14.3049C11.9917 14.62 11.9473 14.9511 11.9473 15.2929V41.9547C11.9473 42.2965 11.9917 42.6276 12.0765 42.9414L26.4548 28.2393L12.0752 14.3049Z" fill="#4285F4"/>
<path d="M26.0791 28.6211L33.2735 21.2653L17.6443 11.9989C17.0763 11.6504 16.413 11.4501 15.7041 11.4501C13.9675 11.4501 12.5025 12.6585 12.0755 14.2982C12.0755 14.2995 12.0742 14.3008 12.0742 14.3022L26.0791 28.6211Z" fill="#34A853"/>
<path d="M59.2216 15.3258V15.7845C59.2184 16.2769 59.1347 16.7372 58.9706 17.1652C58.8096 17.5933 58.5859 17.9618 58.2995 18.2708C58.0163 18.5798 57.6703 18.8228 57.2615 18.9998C56.8528 19.1768 56.4086 19.2653 55.929 19.2653C55.2628 19.2653 54.6658 19.1173 54.1379 18.8212C53.6101 18.5219 53.1965 18.0986 52.8972 17.5515C52.5978 17.0043 52.4482 16.3783 52.4482 15.6734C52.4482 14.9943 52.5994 14.3812 52.902 13.834C53.2045 13.2869 53.6213 12.8588 54.1524 12.5498C54.6867 12.2409 55.2821 12.0864 55.9387 12.0864C57.0233 12.0864 57.91 12.442 58.5988 13.1533L57.8553 13.8437C57.3275 13.303 56.6886 13.0326 55.9387 13.0326C55.6072 13.0326 55.295 13.0922 55.0021 13.2113C54.7092 13.3303 54.4517 13.4993 54.2296 13.7182C54.0108 13.9338 53.837 14.2106 53.7082 14.5486C53.5795 14.8833 53.5151 15.255 53.5151 15.6638C53.5151 16.0822 53.5795 16.462 53.7082 16.8031C53.837 17.1411 54.0124 17.4211 54.2345 17.6432C54.4565 17.8621 54.7124 18.031 55.0021 18.1501C55.295 18.266 55.6072 18.3239 55.9387 18.3239C56.5277 18.3239 57.0266 18.1405 57.4353 17.7735C57.8473 17.4066 58.0903 16.8917 58.1643 16.2286H56.1366V15.3258H59.2216ZM64.4984 12.2022V13.105H61.4617V15.2293H64.0543V16.1079H61.4617V18.2563H64.4984V19.1543H60.443V12.2022H64.4984ZM65.1019 12.2022H70.6297V13.1147H68.3752V19.1543H67.3468V13.1147H65.1019V12.2022ZM75.0182 19.1543H73.9996V12.2022H75.0182V19.1543ZM76.0224 12.2022H81.5503V13.1147H79.2957V19.1543H78.2674V13.1147H76.0224V12.2022ZM88.0051 19.2653C87.4965 19.2653 87.025 19.1784 86.5905 19.0046C86.1592 18.8308 85.7891 18.5894 85.4801 18.2805C85.1744 17.9683 84.9346 17.5885 84.7608 17.1411C84.5902 16.6905 84.5049 16.1981 84.5049 15.6638C84.5049 14.9847 84.6562 14.3731 84.9587 13.8292C85.2613 13.2821 85.6797 12.8556 86.2139 12.5498C86.7482 12.2409 87.3453 12.0864 88.0051 12.0864C88.5072 12.0864 88.9739 12.1749 89.4051 12.3519C89.8364 12.5289 90.2049 12.7735 90.5107 13.0857C90.8165 13.3979 91.0546 13.7761 91.2252 14.2203C91.399 14.6644 91.4859 15.1456 91.4859 15.6638C91.4859 16.1723 91.3958 16.6503 91.2156 17.0976C91.0386 17.545 90.7956 17.9264 90.4866 18.2418C90.1776 18.5573 89.8075 18.8067 89.3762 18.9902C88.9481 19.1736 88.4911 19.2653 88.0051 19.2653ZM88.0051 18.3239C88.3173 18.3239 88.6182 18.2644 88.9079 18.1453C89.1975 18.023 89.455 17.8524 89.6803 17.6335C89.9056 17.4147 90.0843 17.1363 90.2162 16.7983C90.3514 16.4604 90.419 16.0886 90.419 15.6831C90.4158 15.2711 90.3482 14.8962 90.2162 14.5582C90.0875 14.217 89.9105 13.937 89.6852 13.7182C89.4631 13.4961 89.2056 13.3255 88.9127 13.2064C88.623 13.0841 88.3141 13.023 87.9858 13.023C87.6607 13.023 87.3517 13.0841 87.0588 13.2064C86.7691 13.3255 86.5117 13.4961 86.2864 13.7182C86.0643 13.937 85.8873 14.2154 85.7553 14.5534C85.6266 14.8913 85.5622 15.2615 85.5622 15.6638C85.5622 16.0822 85.625 16.462 85.7505 16.8031C85.8792 17.1411 86.0546 17.4211 86.2767 17.6432C86.502 17.8621 86.7611 18.031 87.054 18.1501C87.3501 18.266 87.6671 18.3239 88.0051 18.3239ZM97.7621 16.4169V12.2022H98.7615V19.1543H97.7718L94.2812 14.5292L93.7695 13.7568L93.7791 15.0603V19.1543H92.7798V12.2022H93.7695L97.1297 16.7018L97.7718 17.6239L97.7621 16.4169Z" fill="black"/>
<path d="M109.409 37.6634H111.034V26.6755H109.409V37.6634ZM124.048 30.6334L122.185 35.3974H122.129L120.196 30.6334H118.445L121.344 37.2916L119.692 40.9956H121.386L125.855 30.6334H124.048ZM114.831 36.4153C114.298 36.4153 113.556 36.1472 113.556 35.4818C113.556 34.6345 114.48 34.3093 115.279 34.3093C115.993 34.3093 116.33 34.4649 116.764 34.6767C116.637 35.6945 115.769 36.4153 114.831 36.4153ZM115.027 30.3935C113.85 30.3935 112.631 30.9165 112.127 32.0758L113.57 32.6832C113.878 32.0758 114.452 31.8772 115.055 31.8772C115.895 31.8772 116.75 32.3861 116.764 33.2914V33.4039C116.469 33.2343 115.84 32.9803 115.069 32.9803C113.514 32.9803 111.93 33.8426 111.93 35.4537C111.93 36.9242 113.206 37.8717 114.634 37.8717C115.727 37.8717 116.33 37.3769 116.708 36.7968H116.764V37.645H118.332V33.4321C118.332 31.4816 116.89 30.3935 115.027 30.3935ZM104.982 31.9712H102.671V28.2049H104.982C106.197 28.2049 106.887 29.2201 106.887 30.0876C106.887 30.9393 106.197 31.9712 104.982 31.9712ZM104.94 26.6755H101.046V37.6634H102.671V33.5006H104.94C106.742 33.5006 108.513 32.1839 108.513 30.0876C108.513 27.9913 106.742 26.6755 104.94 26.6755ZM83.7041 36.417C82.5813 36.417 81.6415 35.4686 81.6415 34.166C81.6415 32.8493 82.5813 31.886 83.7041 31.886C84.8129 31.886 85.6822 32.8493 85.6822 34.166C85.6822 35.4686 84.8129 36.417 83.7041 36.417ZM85.5707 31.2487H85.5141C85.1491 30.8101 84.4479 30.4137 83.5638 30.4137C81.7112 30.4137 80.0136 32.0556 80.0136 34.166C80.0136 36.2615 81.7112 37.8902 83.5638 37.8902C84.4479 37.8902 85.1491 37.4938 85.5141 37.0402H85.5707V37.579C85.5707 39.0091 84.8129 39.7738 83.5917 39.7738C82.5953 39.7738 81.9777 39.0513 81.7251 38.4422L80.308 39.0372C80.7147 40.0287 81.7957 41.2461 83.5917 41.2461C85.5001 41.2461 87.1141 40.1131 87.1141 37.3523V30.6396H85.5707V31.2487ZM88.2369 37.6634H89.8648V26.6746H88.2369V37.6634ZM92.2636 34.0386C92.2218 32.5944 93.3724 31.8578 94.1999 31.8578C94.8462 31.8578 95.3932 32.1831 95.5752 32.6507L92.2636 34.0386ZM97.3156 32.7922C97.0072 31.9572 96.0665 30.4137 94.1442 30.4137C92.2357 30.4137 90.6505 31.9282 90.6505 34.1519C90.6505 36.2474 92.2218 37.8902 94.3262 37.8902C96.0247 37.8902 97.0072 36.8425 97.414 36.2333L96.151 35.3834C95.7303 36.0066 95.1545 36.417 94.3262 36.417C93.4987 36.417 92.909 36.0347 92.5302 35.2849L97.4837 33.2167L97.3156 32.7922ZM57.8513 31.5608V33.1464H61.6115C61.4991 34.0386 61.2047 34.6899 60.7561 35.1425C60.2083 35.6954 59.352 36.3045 57.8513 36.3045C55.5352 36.3045 53.7252 34.4209 53.7252 32.0846C53.7252 29.7474 55.5352 27.8647 57.8513 27.8647C59.1003 27.8647 60.0123 28.3604 60.6856 28.9977L61.7944 27.8788C60.8537 26.9725 59.6055 26.2782 57.8513 26.2782C54.6799 26.2782 52.0137 28.8843 52.0137 32.0846C52.0137 35.2849 54.6799 37.8902 57.8513 37.8902C59.5628 37.8902 60.8537 37.3233 61.8641 36.2615C62.9032 35.2137 63.2255 33.7415 63.2255 32.5514C63.2255 32.1831 63.1976 31.8438 63.141 31.5608H57.8513ZM67.5013 36.417C66.3786 36.417 65.41 35.4827 65.41 34.1519C65.41 32.8062 66.3786 31.886 67.5013 31.886C68.6232 31.886 69.5918 32.8062 69.5918 34.1519C69.5918 35.4827 68.6232 36.417 67.5013 36.417ZM67.5013 30.4137C65.4518 30.4137 63.7821 31.9853 63.7821 34.1519C63.7821 36.3045 65.4518 37.8902 67.5013 37.8902C69.55 37.8902 71.2197 36.3045 71.2197 34.1519C71.2197 31.9853 69.55 30.4137 67.5013 30.4137ZM75.6132 36.417C74.4904 36.417 73.5218 35.4827 73.5218 34.1519C73.5218 32.8062 74.4904 31.886 75.6132 31.886C76.7359 31.886 77.7036 32.8062 77.7036 34.1519C77.7036 35.4827 76.7359 36.417 75.6132 36.417ZM75.6132 30.4137C73.5645 30.4137 71.8948 31.9853 71.8948 34.1519C71.8948 36.3045 73.5645 37.8902 75.6132 37.8902C77.6618 37.8902 79.3315 36.3045 79.3315 34.1519C79.3315 31.9853 77.6618 30.4137 75.6132 30.4137Z" fill="black"/>
</svg>
