<svg width="251" height="17" viewBox="0 0 251 17" fill="none" xmlns="http://www.w3.org/2000/svg">
<path d="M1.50501 5.85678C27.0022 7.22197 52.7205 5.91492 78.2114 4.33818C89.2081 3.65798 100.201 2.79638 111.176 1.72766C113.868 1.46548 112.055 1.40356 110.864 1.711C106.667 2.79526 102.683 5.39882 98.6185 6.96511C92.9939 9.1326 85.5251 9.98605 80.4721 13.608C78.1324 15.2851 85.9336 15.1043 88.7198 15.0157C108.498 14.3867 128.211 13.0246 147.893 10.6263C158.369 9.34974 168.802 7.64887 179.279 6.39698C182.497 6.01253 174.171 6.94658 173.519 7.1114C169.764 8.06027 166.743 9.98567 163.333 11.7939C160.376 13.3614 163.595 12.5064 165.945 12.5588C193.372 13.1703 221.29 12.0052 248.634 9.08755C251.865 8.74272 245.054 10.2525 243.765 10.6452" stroke="#F2B660" stroke-width="3" stroke-linecap="round"/>
</svg>
