<svg width="141" height="11" viewBox="0 0 141 11" fill="none" xmlns="http://www.w3.org/2000/svg">
<path d="M1.16624 4.67127C15.3958 5.43317 29.762 4.45771 44.0024 3.30815C50.1458 2.81222 56.288 2.19846 62.4207 1.45022C63.9252 1.26666 62.9131 1.23533 62.247 1.44092C59.8979 2.16601 57.6609 3.87719 55.3838 4.91482C52.2327 6.35073 48.0584 6.9419 45.2192 9.32004C43.9046 10.4212 48.2613 10.2654 49.8174 10.1942C60.8634 9.68844 71.8769 8.70666 82.8782 7.0518C88.7338 6.17098 94.5674 5.01466 100.423 4.14984M97.2036 4.64229C95.1025 5.27724 93.4061 6.54308 91.493 7.73467C89.8346 8.76768 91.6361 8.19636 92.9477 8.21886C108.259 8.48157 123.853 7.58758 139.134 5.55765C140.94 5.31774 137.129 6.33212 136.408 6.59364" stroke="#F2B660" stroke-width="1.5" stroke-linecap="round"/>
</svg>
