<svg width="31" height="41" viewBox="0 0 31 41" fill="none" xmlns="http://www.w3.org/2000/svg">
<path d="M29.9998 8.18961V36.2324C29.9998 38.4416 28.209 40.2324 25.9998 40.2324H4C1.79086 40.2324 0 38.4416 0 36.2324V4.23242C0 2.02328 1.79086 0.232422 4 0.232422H21.3367L29.9998 8.18961Z" fill="#6172F3"/>
<g filter="url(#filter0_d_5718_23381)">
<path d="M29.9998 8.18961H22.3367C21.7844 8.18961 21.3367 7.7419 21.3367 7.18961V0.232422L29.9998 8.18961Z" fill="#C7D7FE"/>
</g>
<path d="M8.21126 23.9144V30.2324H6.67226V23.9144H8.21126ZM16.4816 23.9144V30.2324H14.9426V26.4434L13.5296 30.2324H12.2876L10.8656 26.4344V30.2324H9.32655V23.9144H11.1446L12.9176 28.2884L14.6726 23.9144H16.4816ZM21.7823 25.9124C21.6683 25.7024 21.5033 25.5434 21.2873 25.4354C21.0773 25.3214 20.8283 25.2644 20.5403 25.2644C20.0423 25.2644 19.6433 25.4294 19.3433 25.7594C19.0433 26.0834 18.8933 26.5184 18.8933 27.0644C18.8933 27.6464 19.0493 28.1024 19.3613 28.4324C19.6793 28.7564 20.1143 28.9184 20.6663 28.9184C21.0443 28.9184 21.3623 28.8224 21.6203 28.6304C21.8843 28.4384 22.0763 28.1624 22.1963 27.8024H20.2433V26.6684H23.5913V28.0994C23.4773 28.4834 23.2823 28.8404 23.0063 29.1704C22.7363 29.5004 22.3913 29.7674 21.9713 29.9714C21.5513 30.1754 21.0773 30.2774 20.5493 30.2774C19.9253 30.2774 19.3673 30.1424 18.8753 29.8724C18.3893 29.5964 18.0083 29.2154 17.7323 28.7294C17.4623 28.2434 17.3273 27.6884 17.3273 27.0644C17.3273 26.4404 17.4623 25.8854 17.7323 25.3994C18.0083 24.9074 18.3893 24.5264 18.8753 24.2564C19.3613 23.9804 19.9163 23.8424 20.5403 23.8424C21.2963 23.8424 21.9323 24.0254 22.4483 24.3914C22.9703 24.7574 23.3153 25.2644 23.4833 25.9124H21.7823Z" fill="white"/>
<defs>
<filter id="filter0_d_5718_23381" x="18.3367" y="-0.767578" width="12.6631" height="11.957" filterUnits="userSpaceOnUse" color-interpolation-filters="sRGB">
<feFlood flood-opacity="0" result="BackgroundImageFix"/>
<feColorMatrix in="SourceAlpha" type="matrix" values="0 0 0 0 0 0 0 0 0 0 0 0 0 0 0 0 0 0 127 0" result="hardAlpha"/>
<feOffset dx="-1" dy="1"/>
<feGaussianBlur stdDeviation="1"/>
<feComposite in2="hardAlpha" operator="out"/>
<feColorMatrix type="matrix" values="0 0 0 0 0 0 0 0 0 0 0 0 0 0 0 0 0 0 0.2 0"/>
<feBlend mode="normal" in2="BackgroundImageFix" result="effect1_dropShadow_5718_23381"/>
<feBlend mode="normal" in="SourceGraphic" in2="effect1_dropShadow_5718_23381" result="shape"/>
</filter>
</defs>
</svg>
