<svg width="56" height="56" viewBox="0 0 56 56" fill="none" xmlns="http://www.w3.org/2000/svg">
<rect x="0.5" y="0.5" width="55" height="55" rx="27.5" fill="#F5F5F5"/>
<path d="M33.5264 29.25C35.8882 29.25 37.8026 31.1646 37.8027 33.5264C37.8027 34.4377 37.518 35.2827 37.0322 35.9766L38.5293 37.4688C38.8226 37.7611 38.8235 38.2359 38.5312 38.5293C38.2389 38.8226 37.7641 38.8235 37.4707 38.5312L35.9707 37.0361C35.2779 37.5195 34.4352 37.8027 33.5264 37.8027C31.1646 37.8026 29.25 35.8882 29.25 33.5264C29.2501 31.1646 31.1646 29.2501 33.5264 29.25ZM27.6748 17.25C28.4201 17.25 29.0445 17.2503 29.5537 17.3105C30.0937 17.3745 30.5792 17.513 31.0166 17.8398C31.4518 18.1652 31.7275 18.5938 31.9531 19.0967C32.1555 19.5478 32.3406 20.117 32.5596 20.7979C32.9652 20.8199 33.3389 20.8514 33.6826 20.8984C34.8039 21.0521 35.7167 21.3768 36.4355 22.1094C37.5274 23.222 37.7051 24.8091 37.75 26.9844C37.7585 27.3984 37.4297 27.7414 37.0156 27.75C36.6015 27.7585 36.2586 27.4297 36.25 27.0156C36.2037 24.7728 35.9862 23.7939 35.3643 23.1602C34.9694 22.7579 34.4288 22.5149 33.4795 22.3848C32.5067 22.2515 31.2224 22.25 29.4082 22.25H25.6055C23.7912 22.25 22.507 22.2515 21.5342 22.3848C20.5849 22.5149 20.0443 22.7579 19.6494 23.1602C19.2526 23.5645 19.0114 24.1214 18.8828 25.0957C18.7516 26.0904 18.75 27.4025 18.75 29.25C18.75 31.0975 18.7516 32.4096 18.8828 33.4043C19.0114 34.3786 19.2526 34.9355 19.6494 35.3398C20.0443 35.7421 20.5849 35.9851 21.5342 36.1152C22.507 36.2485 23.7912 36.25 25.6055 36.25H27.0068C27.4209 36.2502 27.7568 36.5859 27.7568 37C27.7568 37.4141 27.4209 37.7498 27.0068 37.75H25.5479C23.804 37.75 22.4174 37.7504 21.3311 37.6016C20.2097 37.4479 19.297 37.1232 18.5781 36.3906C17.8612 35.6601 17.5454 34.7354 17.3955 33.5996C17.2499 32.4955 17.25 31.085 17.25 29.3057V29.1943C17.25 27.415 17.2499 26.0045 17.3955 24.9004C17.5454 23.7646 17.8612 22.8399 18.5781 22.1094C19.297 21.3768 20.2097 21.0521 21.3311 20.8984C21.67 20.852 22.0383 20.8208 22.4375 20.7988C22.6567 20.1175 22.8425 19.548 23.0449 19.0967C23.2705 18.5938 23.5462 18.1652 23.9814 17.8398C24.4188 17.5129 24.9044 17.3745 25.4443 17.3105C25.9536 17.2502 26.5788 17.25 27.3242 17.25H27.6748ZM33.5264 30.75C31.9931 30.7501 30.7501 31.9931 30.75 33.5264C30.75 35.0597 31.993 36.3026 33.5264 36.3027C35.0598 36.3027 36.3027 35.0598 36.3027 33.5264C36.3026 31.993 35.0597 30.75 33.5264 30.75ZM27.3672 18.75C26.5668 18.75 26.0318 18.7512 25.6211 18.7998C25.2312 18.846 25.0306 18.9276 24.8789 19.041C24.725 19.1561 24.5822 19.333 24.4131 19.71C24.2918 19.9804 24.175 20.317 24.0303 20.7559C24.5032 20.7515 25.0091 20.75 25.5488 20.75H29.4648C29.9982 20.75 30.4986 20.7506 30.9668 20.7549C30.8222 20.3166 30.7062 19.9802 30.585 19.71C30.4158 19.3329 30.2731 19.1561 30.1191 19.041C29.9674 18.9276 29.7668 18.846 29.377 18.7998C28.9662 18.7512 28.4312 18.75 27.6309 18.75H27.3672Z" fill="black"/>
</svg>
