<svg width="48" height="48" viewBox="0 0 48 48" fill="none" xmlns="http://www.w3.org/2000/svg">
<g clip-path="url(#clip0_3924_15413)">
<path fill-rule="evenodd" clip-rule="evenodd" d="M24.3278 47.1528L3.94727 35.3861V11.8527L24.3278 0.0859375L44.7631 11.8527V35.3861L24.3278 47.1528ZM37.064 28.2408L38.8004 28.5695C39.2491 33.3926 37.7175 36.5301 34.7586 36.9347C31.8783 37.2751 30.086 34.6555 29.0218 31.093C23.7655 39.3833 14.8345 38.4427 11.1853 31.6426C7.79178 25.3719 10.6443 14.2469 18.2889 12.1125C22.7727 10.9742 27.2156 12.3308 28.9024 17.3082L30.407 13.4109C30.7643 12.4766 31.4961 12.3329 31.9069 12.3329L36.2986 12.3401L38.1966 12.6814L31.4894 26.8586C33.1085 30.5109 35.3271 31.4568 37.064 28.2408ZM25.4923 25.6176C28.2678 20.2436 22.4464 14.1354 18.649 18.8293C15.9524 22.3729 14.9225 27.8357 16.7661 32.0273C18.9232 35.0765 22.2689 31.7197 25.4923 25.6176Z" fill="#5C6BC0"/>
</g>
<defs>
<clipPath id="clip0_3924_15413">
<rect width="47.0669" height="47.0669" fill="white" transform="translate(0.822266 0.0859375)"/>
</clipPath>
</defs>
</svg>
