<svg width="56" height="56" viewBox="0 0 56 56" fill="none" xmlns="http://www.w3.org/2000/svg">
<rect x="0.5" y="0.5" width="55" height="55" rx="27.5" fill="#F5F5F5"/>
<path fill-rule="evenodd" clip-rule="evenodd" d="M27.95 18.25H28.05C28.95 18.25 29.7 18.2501 30.29 18.3301C30.92 18.4101 31.48 18.6001 31.94 19.0601C32.4 19.5101 32.58 20.08 32.67 20.71C32.73 21.14 32.74 21.66 32.75 22.26C33.36 22.27 33.89 22.2901 34.36 22.3401C35.25 22.4301 35.99 22.62 36.64 23.05C37.16 23.4 37.6 23.8401 37.95 24.3601C38.38 25.0101 38.57 25.7501 38.66 26.6401C38.75 27.5001 38.75 28.59 38.75 29.96V30.04C38.75 31.41 38.75 32.5001 38.66 33.3601C38.57 34.2501 38.38 34.9901 37.95 35.6401C37.6 36.1601 37.16 36.6 36.64 36.95C35.99 37.38 35.25 37.5699 34.36 37.6599C33.49 37.7499 32.41 37.75 31.04 37.75H24.96C23.59 37.75 22.51 37.7499 21.64 37.6599C20.75 37.5699 20.01 37.38 19.36 36.95C18.84 36.6 18.4 36.1601 18.05 35.6401C17.62 34.9901 17.43 34.2501 17.34 33.3601C17.25 32.5001 17.25 31.41 17.25 30.04V29.96C17.25 28.59 17.25 27.5001 17.34 26.6401C17.43 25.7501 17.62 25.0101 18.05 24.3601C18.4 23.8401 18.84 23.4 19.36 23.05C20.01 22.62 20.75 22.4301 21.64 22.3401C22.11 22.2901 22.64 22.27 23.25 22.26C23.25 21.66 23.27 21.14 23.33 20.71C23.41 20.08 23.6 19.5101 24.06 19.0601C24.52 18.6001 25.08 18.4101 25.71 18.3301C26.3 18.2501 27.05 18.25 27.95 18.25ZM31.18 20.9099C31.23 21.2499 31.24 21.68 31.24 22.25H24.74C24.74 21.68 24.76 21.2499 24.8 20.9099C24.86 20.4399 24.97 20.2501 25.1 20.1201C25.23 19.9901 25.43 19.8801 25.89 19.8201C26.37 19.7501 27.02 19.75 27.98 19.75C28.94 19.75 29.59 19.7501 30.07 19.8201C30.53 19.8801 30.73 19.9901 30.86 20.1201C30.99 20.2501 31.1 20.4399 31.16 20.9099H31.18ZM21.79 23.8301C21.02 23.9101 20.56 24.06 20.19 24.3C19.84 24.53 19.53 24.8399 19.29 25.1899C19.05 25.5599 18.9 26.02 18.82 26.79C18.74 27.57 18.74 28.58 18.74 30C18.74 31.42 18.74 32.43 18.82 33.21C18.9 33.98 19.05 34.4401 19.29 34.8101C19.53 35.1601 19.83 35.47 20.19 35.7C20.55 35.94 21.02 36.0899 21.79 36.1699C22.57 36.2499 23.58 36.25 25 36.25H31C32.42 36.25 33.43 36.2499 34.21 36.1699C34.98 36.0899 35.44 35.94 35.81 35.7C36.16 35.47 36.47 35.1601 36.71 34.8101C36.95 34.4401 37.1 33.98 37.18 33.21C37.26 32.43 37.26 31.42 37.26 30C37.26 28.58 37.26 27.57 37.18 26.79C37.1 26.02 36.95 25.5599 36.71 25.1899C36.47 24.8399 36.17 24.53 35.81 24.3C35.45 24.06 34.98 23.9101 34.21 23.8301C33.43 23.7501 32.42 23.75 31 23.75H25C23.58 23.75 22.57 23.7501 21.79 23.8301ZM22.22 26.28C21.82 26.16 21.4 26.38 21.28 26.78C21.16 27.17 21.38 27.59 21.77 27.72L22.42 27.9199C23.97 28.3999 25.6 28.67 27.24 28.74V30C27.24 30.41 27.58 30.75 27.99 30.75C28.4 30.75 28.74 30.41 28.74 30V28.74C30.38 28.67 32.01 28.3999 33.56 27.9199L34.21 27.72C34.61 27.59 34.83 27.17 34.7 26.78C34.58 26.38 34.16 26.16 33.76 26.28L33.11 26.49C29.82 27.5 26.15 27.5 22.86 26.49L22.21 26.28H22.22Z" fill="black"/>
</svg>
