<svg width="26" height="27" viewBox="0 0 26 27" fill="none" xmlns="http://www.w3.org/2000/svg">
<rect x="0.477396" y="1.20884" width="24.7011" height="24.7011" rx="12.3506" stroke="#393939" stroke-width="0.734089"/>
<path d="M12.6731 20.0761L12.3289 19.703C12.2168 19.5814 9.57254 16.7137 8.9451 15.9962C8.37317 15.3421 7.86189 14.4372 7.67306 13.7442C7.55175 13.3022 7.49023 12.8424 7.49023 12.3786C7.49023 9.5281 9.81516 7.20546 12.6728 7.20117C15.5319 7.20546 17.8568 9.52781 17.8568 12.3786C17.8568 12.8424 17.7953 13.3022 17.6737 13.7448C17.4849 14.4372 16.9736 15.3421 16.4017 15.9962C15.774 16.714 13.13 19.5814 13.0179 19.703L12.6731 20.0761ZM12.6725 8.13761C10.3319 8.14104 8.42638 10.0434 8.42638 12.3786C8.42638 12.7586 8.47674 13.1348 8.57602 13.497C8.7288 14.0575 9.17055 14.8314 9.64979 15.3799C10.143 15.9441 11.9152 17.8716 12.6728 18.6948C13.4307 17.8716 15.2026 15.9441 15.6959 15.3799C16.1754 14.8317 16.6168 14.0575 16.7696 13.4979C16.8692 13.1351 16.9195 12.7588 16.9195 12.3789C16.9198 10.0434 15.0143 8.14104 12.6725 8.13761Z" fill="#393939"/>
<path d="M12.6721 14.9519C11.211 14.9519 10.0225 13.766 10.0225 12.308C10.0225 10.85 11.2112 9.66406 12.6721 9.66406C14.133 9.66406 15.3218 10.85 15.3218 12.308C15.3218 13.766 14.1333 14.9519 12.6721 14.9519ZM12.6721 10.6008C11.7274 10.6008 10.9589 11.3667 10.9589 12.3083C10.9589 13.2499 11.7274 14.0158 12.6721 14.0158C13.6169 14.0158 14.3853 13.2499 14.3853 12.3083C14.3853 11.3667 13.6169 10.6008 12.6721 10.6008Z" fill="#393939"/>
</svg>
