<svg width="22" height="24" viewBox="0 0 22 24" fill="none" xmlns="http://www.w3.org/2000/svg">
<path d="M11.1382 0.661133C16.7598 0.661137 21.5278 5.30669 21.5278 10.9717C21.5278 13.863 20.3029 16.2941 18.5835 18.3008C16.8707 20.2997 14.6395 21.9127 12.5435 23.1953L12.5308 23.2021L12.519 23.209C12.0979 23.4467 11.6219 23.5713 11.1382 23.5713C10.6544 23.5713 10.1785 23.4467 9.75732 23.209L9.74365 23.2012L9.72998 23.1924C7.64153 21.8996 5.41033 20.2928 3.69678 18.2998C1.9758 16.2982 0.748538 13.8727 0.748535 10.9717C0.748535 5.30669 5.5166 0.661133 11.1382 0.661133ZM11.1382 2.25977C6.37959 2.25977 2.34717 6.20912 2.34717 10.9717C2.34717 13.3857 3.35909 15.4555 4.90869 17.2578C6.4617 19.064 8.52579 20.5668 10.5552 21.8242C10.733 21.9219 10.9339 21.9736 11.1382 21.9736C11.343 21.9736 11.544 21.9214 11.7222 21.8232C13.7524 20.5798 15.8172 19.0724 17.3696 17.2607C18.9187 15.4529 19.9292 13.3769 19.9292 10.9717C19.9292 6.20912 15.8968 2.25977 11.1382 2.25977ZM11.1382 6.52148C13.6394 6.52148 15.6675 8.54958 15.6675 11.0508C15.6675 13.552 13.6394 15.5791 11.1382 15.5791C8.63706 15.579 6.60988 13.5519 6.60986 11.0508C6.60986 8.54963 8.63705 6.52156 11.1382 6.52148ZM11.1382 8.12012C9.51983 8.12019 8.20752 9.43241 8.20752 11.0508C8.20754 12.6691 9.51984 13.9814 11.1382 13.9814C12.7566 13.9814 14.0688 12.6692 14.0688 11.0508C14.0688 9.43236 12.7566 8.12012 11.1382 8.12012Z" fill="#4A4A4A"/>
</svg>
