<svg width="21" height="24" viewBox="0 0 21 24" fill="none" xmlns="http://www.w3.org/2000/svg">
<path d="M10.6123 0.803223C16.2339 0.803227 21.002 5.44878 21.002 11.1138C21.002 14.0051 19.777 16.4362 18.0576 18.4429C16.3448 20.4418 14.1136 22.0548 12.0176 23.3374L12.0049 23.3442L11.9932 23.3511C11.572 23.5888 11.096 23.7134 10.6123 23.7134C10.1286 23.7134 9.65261 23.5888 9.23145 23.3511L9.21777 23.3433L9.2041 23.3345C7.11565 22.0416 4.88445 20.4348 3.1709 18.4419C1.44992 16.4403 0.222659 14.0148 0.222656 11.1138C0.222656 5.44878 4.99072 0.803223 10.6123 0.803223ZM10.6123 2.40186C5.85371 2.40186 1.82129 6.35121 1.82129 11.1138C1.82129 13.5278 2.83321 15.5976 4.38281 17.3999C5.93583 19.2061 7.99991 20.7089 10.0293 21.9663C10.2071 22.064 10.4081 22.1157 10.6123 22.1157C10.8171 22.1157 11.0181 22.0635 11.1963 21.9653C13.2265 20.7219 15.2914 19.2145 16.8438 17.4028C18.3928 15.595 19.4033 13.519 19.4033 11.1138C19.4033 6.35121 15.3709 2.40186 10.6123 2.40186ZM10.6123 6.66357C13.1135 6.66357 15.1416 8.69167 15.1416 11.1929C15.1416 13.6941 13.1135 15.7212 10.6123 15.7212C8.11118 15.7211 6.084 13.694 6.08398 11.1929C6.08398 8.69172 8.11117 6.66365 10.6123 6.66357ZM10.6123 8.26221C8.99395 8.26228 7.68164 9.5745 7.68164 11.1929C7.68166 12.8112 8.99396 14.1235 10.6123 14.1235C12.2307 14.1235 13.543 12.8113 13.543 11.1929C13.543 9.57445 12.2307 8.26221 10.6123 8.26221Z" fill="#FCF4E9"/>
</svg>
