<svg width="103" height="33" viewBox="0 0 103 33" fill="none" xmlns="http://www.w3.org/2000/svg">
<g clip-path="url(#clip0_0_112)">
<path d="M15.2111 8.8057C15.2111 9.52916 15.0749 10.1142 14.76 10.5675C14.4899 11.0185 14.0835 11.3802 13.6302 11.6504C13.1769 11.9206 12.6365 12.0568 12.0493 12.1461C11.462 12.2354 10.8301 12.2823 10.2429 12.2823H0.764207C0.268503 12.2823 -0.00391076 12.0121 -0.00391076 11.4695V0.858799C-0.00391076 0.363095 0.26627 0.0906808 0.764207 0.0906808H10.1111C10.8346 0.0906808 11.5112 0.135339 12.0984 0.226888C12.6857 0.316204 13.2283 0.497069 13.6793 0.769483C14.1304 1.0419 14.4474 1.40139 14.673 1.85244C14.8985 2.30349 15.0347 2.89074 15.0347 3.56731C15.0347 4.15456 14.9454 4.69716 14.7176 5.10355C14.4921 5.55459 14.0857 5.91632 13.4984 6.1865C13.9941 6.36737 14.4005 6.68221 14.7176 7.04394C15.0793 7.49498 15.2133 8.03758 15.2133 8.8057H15.2111ZM12.9536 8.85035C12.9536 8.53328 12.909 8.2631 12.8643 8.03758C12.8196 7.81205 12.6388 7.63119 12.4579 7.49498C12.277 7.35878 11.9622 7.26946 11.6005 7.17791C11.2387 7.08636 10.743 7.08859 10.2004 7.08859H2.20889V10.4759H10.3813C10.9239 10.4759 11.375 10.4312 11.6898 10.3866C12.0069 10.3419 12.277 10.2057 12.4579 10.1164C12.6388 9.9802 12.775 9.84623 12.8196 9.62071C12.8643 9.39518 12.9558 9.16966 12.9558 8.85259L12.9536 8.85035ZM2.29821 5.23975H10.2898C10.7855 5.23975 11.1919 5.23975 11.5536 5.19509C11.8707 5.15044 12.1855 5.05889 12.3664 4.96957C12.5472 4.88025 12.7281 4.69939 12.8174 4.47387C12.9067 4.24834 12.9536 3.97816 12.9536 3.61643C12.9536 3.34625 12.909 3.07384 12.8643 2.84831C12.8196 2.62279 12.6834 2.44193 12.5026 2.35261C12.3217 2.2164 12.0515 2.12709 11.7345 2.08243C11.4174 2.03777 10.9663 1.99311 10.426 1.99311H2.29821V5.24422V5.23975Z" fill="#EB971C"/>
<path d="M28.8482 2.71603C29.21 2.71603 29.4802 2.76068 29.661 2.85223C29.8419 2.94155 29.9312 3.1693 29.9312 3.48414V9.35444C29.9312 11.2948 28.3503 12.2885 25.1907 12.2885H21.1715C18.012 12.2885 16.4311 11.2948 16.4311 9.35444V3.48414C16.4311 3.16707 16.5204 2.94155 16.7013 2.85223C16.8821 2.76292 17.1523 2.71603 17.514 2.71603C17.8758 2.71603 18.1459 2.76068 18.3268 2.85223C18.5077 2.94155 18.597 3.1693 18.597 3.48414V9.35444C18.597 9.71617 18.8225 9.98635 19.2289 10.2119C19.6353 10.4374 20.3587 10.5736 21.2608 10.5736H25.1439C26.0928 10.5736 26.7694 10.4374 27.1758 10.2119C27.5822 9.98635 27.8077 9.66928 27.8077 9.35444V3.48414C27.8077 3.16707 27.897 2.94155 28.0779 2.85223C28.2141 2.76292 28.4843 2.71603 28.846 2.71603H28.8482Z" fill="#EB971C"/>
<path d="M31.2001 5.32971C31.2001 4.56159 31.5171 3.92968 32.1937 3.47863C32.8703 3.02759 33.8639 2.80206 35.1746 2.80206H37.4768C37.7469 2.80206 37.8831 2.84672 37.9725 3.02759C38.0618 3.20845 38.1087 3.38931 38.1087 3.6595C38.1087 3.92968 38.064 4.1552 37.9725 4.29141C37.8809 4.42761 37.7023 4.51693 37.4768 4.51693H35.1746C34.5427 4.51693 34.0448 4.60625 33.7746 4.74245C33.5044 4.87866 33.3236 5.10418 33.3236 5.37436V5.82541C33.3236 6.09559 33.4598 6.27646 33.7746 6.45732C34.0894 6.63819 34.5874 6.68285 35.264 6.68285H38.9661C40.547 6.68285 41.6746 6.90837 42.3534 7.35941C43.03 7.81046 43.3917 8.44237 43.3917 9.25515V9.79774C43.3917 10.2041 43.3024 10.5659 43.1215 10.8807C42.9407 11.1955 42.6705 11.468 42.2641 11.6935C41.9024 11.919 41.4067 12.0999 40.7748 12.1892C40.1428 12.2785 39.4663 12.37 38.6066 12.37H31.8342C31.564 12.37 31.4278 12.3254 31.3385 12.1445C31.2492 11.9637 31.2023 11.7828 31.2023 11.5126C31.2023 11.2424 31.247 11.0169 31.3385 10.8807C31.4301 10.7445 31.6087 10.6552 31.8342 10.6552H38.9683C39.4194 10.6552 39.7811 10.6552 40.0982 10.6105C40.4153 10.5659 40.6408 10.5212 40.8216 10.4297C41.0025 10.3403 41.1387 10.2488 41.1834 10.1595C41.2727 10.0702 41.2727 9.93395 41.2727 9.79774V9.21049C41.2727 9.07428 41.228 8.94031 41.1834 8.84876C41.1387 8.75721 41.0025 8.66789 40.8216 8.57858C40.6408 8.48926 40.4153 8.44237 40.1451 8.39771C39.8749 8.35305 39.5132 8.35306 39.0621 8.35306H35.3153C33.9599 8.35306 32.9216 8.12753 32.2451 7.67649C31.5685 7.22544 31.2068 6.63819 31.2068 5.87007V5.32747L31.2001 5.32971Z" fill="#EB971C"/>
<path d="M44.3813 1.0876C44.3813 0.725871 44.4706 0.45569 44.6984 0.274825C44.9261 0.0939601 45.241 0.00464403 45.692 0.00464403C46.1431 0.00464403 46.5048 0.0939601 46.6857 0.274825C46.8665 0.45569 47.0027 0.725871 47.0027 1.0876C47.0027 1.44933 46.9134 1.71951 46.6857 1.90038C46.4579 2.08124 46.1431 2.17056 45.692 2.17056C45.241 2.17056 44.8792 2.08124 44.6984 1.90038C44.5175 1.71951 44.3813 1.44933 44.3813 1.0876ZM46.8196 11.5644C46.8196 11.8814 46.7303 12.107 46.5494 12.1963C46.3686 12.2856 46.0984 12.3325 45.7367 12.3325C45.3749 12.3325 45.1048 12.2878 44.9239 12.1963C44.743 12.107 44.6537 11.8792 44.6537 11.5644V3.61748C44.6537 3.30041 44.743 3.07488 44.9239 2.98557C45.1048 2.89625 45.3749 2.84936 45.7367 2.84936C46.0984 2.84936 46.3686 2.89402 46.5494 2.98557C46.7303 3.07488 46.8196 3.30264 46.8196 3.61748V11.5644Z" fill="#EB971C"/>
<path d="M49.3926 12.3315C49.0309 12.3315 48.7607 12.2868 48.5798 12.1953C48.399 12.106 48.3097 11.8782 48.3097 11.5634V5.69308C48.3097 3.75268 49.8906 2.75904 53.0501 2.75904H56.7076C59.8672 2.75904 61.4481 3.75268 61.4481 5.69308V11.5634C61.4481 11.8804 61.3587 12.106 61.1779 12.1953C60.997 12.2846 60.7268 12.3315 60.3651 12.3315C60.0034 12.3315 59.7332 12.2868 59.5523 12.1953C59.3715 12.106 59.2821 11.8782 59.2821 11.5634V5.69308C59.2821 5.33135 59.0566 5.06117 58.6502 4.83564C58.2438 4.61012 57.5204 4.47391 56.6183 4.47391H53.097C52.148 4.47391 51.4715 4.61012 51.0651 4.83564C50.6587 5.06117 50.4332 5.37824 50.4332 5.69308V11.5634C50.4332 11.8804 50.3438 12.106 50.163 12.1953C49.9821 12.2846 49.7566 12.3315 49.3949 12.3315H49.3926Z" fill="#EB971C"/>
<path d="M65.0142 8.49314V9.35057C65.0142 9.66764 65.2397 9.98248 65.6461 10.208C66.0525 10.4335 66.7759 10.5697 67.678 10.5697H69.6206C69.8908 10.5697 70.027 10.6144 70.1163 10.7953C70.2057 10.9315 70.2057 11.157 70.2057 11.4272C70.2057 11.6973 70.161 11.9229 70.1163 12.0591C70.027 12.1953 69.8908 12.2846 69.6206 12.2846H67.6334C64.4738 12.2846 62.8929 11.291 62.8929 9.35057V5.69308C62.8929 3.75268 64.4738 2.75904 67.6334 2.75904H71.5164C73.1866 2.75904 74.4057 2.98457 75.1739 3.4825C75.942 3.98044 76.3037 4.70167 76.3037 5.69531V7.6357C76.3037 7.95277 76.259 8.1783 76.1228 8.31227C75.9866 8.44624 75.7165 8.49314 75.3101 8.49314H65.0164H65.0142ZM65.0142 6.82069H74.1356V5.69084C74.1356 5.28446 73.91 5.01427 73.5037 4.78875C73.0973 4.56323 72.4207 4.47168 71.427 4.47168H67.6802C66.7313 4.47168 66.0547 4.60789 65.6483 4.83341C65.2419 5.05893 65.0164 5.376 65.0164 5.69084V6.82069H65.0142Z" fill="#EB971C"/>
<path d="M77.3406 5.32971C77.3406 4.56159 77.6577 3.92968 78.3343 3.47863C79.0108 3.02759 80.0045 2.80206 81.3152 2.80206H83.6173C83.8875 2.80206 84.0237 2.84672 84.113 3.02759C84.2023 3.20845 84.2492 3.38931 84.2492 3.6595C84.2492 3.92968 84.2046 4.1552 84.113 4.29141C84.0215 4.42761 83.8428 4.51693 83.6173 4.51693H81.3152C80.6833 4.51693 80.1853 4.60625 79.9152 4.74245C79.645 4.87866 79.4641 5.10418 79.4641 5.37436V5.82541C79.4641 6.09559 79.645 6.27646 79.9152 6.45732C80.2322 6.63819 80.7279 6.68285 81.4045 6.68285H85.1067C86.6875 6.68285 87.8152 6.90837 88.494 7.35941C89.1728 7.81046 89.5323 8.44237 89.5323 9.25515V9.79774C89.5323 10.2041 89.4429 10.5659 89.2621 10.8807C89.0812 11.1978 88.811 11.468 88.4046 11.6935C88.0429 11.919 87.5472 12.0999 86.9153 12.1892C86.2834 12.2785 85.6068 12.37 84.7472 12.37H77.9301C77.6599 12.37 77.5237 12.3254 77.4344 12.1445C77.3451 11.9637 77.2982 11.7828 77.2982 11.5126C77.2982 11.2424 77.3429 11.0169 77.4344 10.8807C77.5259 10.7445 77.7046 10.6552 77.9301 10.6552H85.0642C85.5153 10.6552 85.877 10.6552 86.1941 10.6105C86.5111 10.5659 86.7367 10.5212 86.9175 10.4297C87.0984 10.3381 87.1877 10.2488 87.2793 10.1595C87.3708 10.0702 87.3686 9.93395 87.3686 9.79774V9.21049C87.3686 9.07428 87.3239 8.94031 87.2793 8.84876C87.2346 8.75721 87.0984 8.66789 86.9175 8.57858C86.7367 8.48926 86.5111 8.44237 86.241 8.39771C85.9708 8.35305 85.6091 8.35306 85.158 8.35306H81.4112C80.0558 8.35306 79.0175 8.12753 78.341 7.67649C77.6644 7.22544 77.3027 6.63819 77.3027 5.87007L77.3473 5.32747L77.3406 5.32971Z" fill="#EB971C"/>
<path d="M90.6137 5.32971C90.6137 4.56159 90.9308 3.92968 91.6074 3.47863C92.284 3.02759 93.2776 2.80206 94.5883 2.80206H96.8904C97.1606 2.80206 97.2968 2.84672 97.3861 3.02759C97.4755 3.20845 97.5223 3.38931 97.5223 3.6595C97.5223 3.92968 97.4777 4.1552 97.3861 4.29141C97.2946 4.42761 97.116 4.51693 96.8904 4.51693H94.5883C93.9564 4.51693 93.4585 4.60625 93.1883 4.74245C92.9181 4.87866 92.7372 5.10418 92.7372 5.37436V5.82541C92.7372 6.09559 92.9181 6.27646 93.1883 6.45732C93.5054 6.63819 94.0011 6.68285 94.6776 6.68285H98.3798C99.9607 6.68285 101.088 6.90837 101.767 7.35941C102.446 7.81046 102.805 8.44237 102.805 9.25515V9.79774C102.805 10.2041 102.716 10.5659 102.535 10.8807C102.354 11.1978 102.084 11.468 101.678 11.6935C101.316 11.919 100.82 12.0999 100.188 12.1892C99.5565 12.2785 98.88 12.37 98.0203 12.37H91.2032C90.9331 12.37 90.7968 12.3254 90.7075 12.1445C90.6182 11.9637 90.5713 11.7828 90.5713 11.5126C90.5713 11.2424 90.616 11.0169 90.7075 10.8807C90.7991 10.7445 90.9777 10.6552 91.2032 10.6552H98.3374C98.7884 10.6552 99.1501 10.6552 99.4672 10.6105C99.7843 10.5659 100.01 10.5212 100.191 10.4297C100.372 10.3381 100.461 10.2488 100.552 10.1595C100.644 10.0702 100.642 9.93395 100.642 9.79774V9.21049C100.642 9.07428 100.597 8.94031 100.552 8.84876C100.508 8.75721 100.372 8.66789 100.191 8.57858C100.01 8.48926 99.7843 8.44237 99.5141 8.39771C99.2439 8.35305 98.8822 8.35306 98.4311 8.35306H94.6843C93.329 8.35306 92.2907 8.12753 91.6141 7.67649C90.9375 7.22544 90.5758 6.63819 90.5758 5.87007L90.6204 5.32747L90.6137 5.32971Z" fill="#EB971C"/>
<path d="M18.381 25.4971C18.381 26.368 18.218 27.0758 17.8362 27.6184C17.5102 28.1632 17.0212 28.5986 16.4763 28.9246C15.9315 29.2506 15.2795 29.4136 14.5717 29.523C13.8638 29.6325 13.1024 29.686 12.3946 29.686H0.973306C0.374888 29.686 0.0488845 29.36 0.0488845 28.7058V15.9224C0.0488845 15.324 0.374888 14.998 0.973306 14.998H12.2338C13.1047 14.998 13.9197 15.0516 14.6275 15.161C15.3353 15.2704 15.9873 15.487 16.5322 15.813C17.077 16.139 17.4566 16.5745 17.729 17.1193C18.0014 17.6641 18.1644 18.3697 18.1644 19.1869C18.1644 19.8948 18.055 20.5468 17.7826 21.0358C17.5102 21.5806 17.0212 22.016 16.3133 22.342C16.9118 22.5586 17.4008 22.9405 17.7826 23.3759C18.1644 23.9207 18.381 24.5727 18.381 25.4971ZM15.6055 25.5507C15.6055 25.1689 15.5519 24.8429 15.4961 24.5705C15.4403 24.2981 15.2237 24.0815 15.0071 23.9185C14.7347 23.7555 14.4087 23.646 13.9733 23.5366C13.5378 23.4272 12.9394 23.4272 12.2874 23.4272H2.71274V27.5067H12.5598C13.2118 27.5067 13.7567 27.4531 14.1385 27.3973C14.5203 27.3437 14.8463 27.1807 15.0629 27.0713C15.2795 26.9083 15.4447 26.7453 15.4983 26.4729C15.5519 26.2005 15.6077 25.9281 15.6077 25.5485L15.6055 25.5507ZM2.76856 21.1988H12.3968C12.9952 21.1988 13.4843 21.1988 13.9197 21.1452C14.3015 21.0916 14.6811 20.9822 14.8999 20.8728C15.1187 20.7634 15.3353 20.5468 15.4447 20.2744C15.5542 20.002 15.6077 19.676 15.6077 19.2405C15.6077 18.9145 15.5542 18.5885 15.4983 18.3161C15.4425 18.0437 15.2817 17.8271 15.0629 17.7177C14.8463 17.5547 14.5181 17.4453 14.1385 17.3917C13.7589 17.3381 13.2141 17.2823 12.5598 17.2823H2.82215L2.76856 21.1988Z" fill="#EB971C"/>
<path d="M34.7545 18.1572C35.1899 18.1572 35.5159 18.2108 35.7347 18.3202C35.9513 18.4296 36.0607 18.702 36.0607 19.0816V26.1532C36.0607 28.4933 34.1561 29.6901 30.349 29.6901H25.508C21.701 29.6901 19.7963 28.4933 19.7963 26.1532V19.0816C19.7963 18.6998 19.9057 18.4296 20.1223 18.3202C20.3389 18.2108 20.6671 18.1572 21.1025 18.1572C21.5379 18.1572 21.864 18.2108 22.0828 18.3202C22.2994 18.4296 22.4088 18.702 22.4088 19.0816V26.1532C22.4088 26.5886 22.6812 26.9146 23.1702 27.187C23.6592 27.4595 24.53 27.6225 25.6175 27.6225H30.2954C31.4386 27.6225 32.2536 27.4595 32.7426 27.187C33.2317 26.9146 33.5041 26.535 33.5041 26.1532V19.0816C33.5041 18.6998 33.6135 18.4296 33.8301 18.3202C34.0467 18.2108 34.3191 18.1572 34.7545 18.1572Z" fill="#EB971C"/>
<path d="M37.5316 16.1923C37.5316 15.7569 37.641 15.4309 37.9134 15.2121C38.1858 14.9933 38.5654 14.8861 39.1103 14.8861C39.6551 14.8861 40.0905 14.9955 40.3071 15.2121C40.5237 15.4287 40.6889 15.7569 40.6889 16.1923C40.6889 16.6277 40.5795 16.9537 40.3071 17.1726C40.0347 17.3892 39.6551 17.4986 39.1103 17.4986C38.5654 17.4986 38.13 17.3892 37.9134 17.1726C37.6968 16.956 37.5316 16.6277 37.5316 16.1923ZM40.4679 28.8149C40.4679 29.1967 40.3585 29.4669 40.1419 29.5763C39.9253 29.6857 39.597 29.7393 39.1616 29.7393C38.7262 29.7393 38.4002 29.6857 38.1814 29.5763C37.9648 29.4669 37.8554 29.1945 37.8554 28.8149V19.2402C37.8554 18.8584 37.9648 18.5882 38.1814 18.4788C38.398 18.3694 38.7262 18.3158 39.1616 18.3158C39.597 18.3158 39.923 18.3694 40.1419 18.4788C40.3607 18.5882 40.4679 18.8606 40.4679 19.2402V28.8149Z" fill="#EB971C"/>
<path d="M44.927 28.8172C44.927 29.1991 44.8175 29.4692 44.601 29.5787C44.3844 29.6881 44.0561 29.7417 43.6207 29.7417C43.1853 29.7417 42.8593 29.6881 42.6405 29.5787C42.4239 29.4692 42.3145 29.1968 42.3145 28.8172V15.8709C42.3145 15.489 42.4239 15.2189 42.6405 15.1095C42.8571 15 43.1853 14.9464 43.6207 14.9464C44.0561 14.9464 44.3821 15 44.601 15.1095C44.8175 15.2189 44.927 15.4913 44.927 15.8709V28.8172Z" fill="#EB971C"/>
<path d="M60.3758 15.8621C60.3758 15.4802 60.4852 15.2101 60.7018 15.1007C60.9184 14.9912 61.2466 14.9376 61.6821 14.9376C62.1175 14.9376 62.4435 14.9912 62.6623 15.1007C62.8789 15.2101 62.9883 15.4825 62.9883 15.8621V26.1446C62.9883 28.4847 61.0836 29.6815 57.2765 29.6815H52.4356C48.6285 29.6815 46.7238 28.4847 46.7238 26.1446V21.7391C46.7238 19.399 48.6285 18.2022 52.4356 18.2022H60.4875L60.378 15.8621H60.3758ZM52.4334 20.2698C51.2901 20.2698 50.4751 20.4328 49.9861 20.7052C49.4971 20.9776 49.2247 21.3572 49.2247 21.7391V26.1446C49.2247 26.5264 49.4971 26.906 49.9861 27.1784C50.4751 27.4508 51.346 27.6138 52.4334 27.6138H57.1113C58.2545 27.6138 59.0696 27.4508 59.5586 27.1784C60.0476 26.906 60.32 26.5264 60.32 26.1446V20.2698H52.4311H52.4334Z" fill="#EB971C"/>
<path d="M64.4572 16.1923C64.4572 15.7569 64.5666 15.4309 64.839 15.2121C65.1114 14.9933 65.491 14.8861 66.0359 14.8861C66.5807 14.8861 67.0161 14.9955 67.2327 15.2121C67.4493 15.4287 67.6145 15.7569 67.6145 16.1923C67.6145 16.6277 67.5051 16.9537 67.2327 17.1726C66.9603 17.3892 66.5807 17.4986 66.0359 17.4986C65.491 17.4986 65.0556 17.3892 64.839 17.1726C64.6224 16.956 64.4572 16.6277 64.4572 16.1923ZM67.3399 28.8149C67.3399 29.1967 67.2305 29.4669 67.0139 29.5763C66.7973 29.6857 66.469 29.7393 66.0336 29.7393C65.5982 29.7393 65.2722 29.6857 65.0534 29.5763C64.8368 29.4669 64.7274 29.1945 64.7274 28.8149V19.2402C64.7274 18.8584 64.8368 18.5882 65.0534 18.4788C65.27 18.3694 65.5982 18.3158 66.0336 18.3158C66.469 18.3158 66.7951 18.3694 67.0139 18.4788C67.2327 18.5882 67.3399 18.8606 67.3399 19.2402V28.8149Z" fill="#EB971C"/>
<path d="M70.4407 29.7417C70.0053 29.7417 69.6793 29.6881 69.4605 29.5787C69.2439 29.4693 69.1345 29.1969 69.1345 28.8173V21.7457C69.1345 19.4056 71.0391 18.2088 74.8462 18.2088H79.2518C83.0589 18.2088 84.9635 19.4056 84.9635 21.7457V28.8173C84.9635 29.1991 84.8541 29.4693 84.6375 29.5787C84.4209 29.6881 84.0927 29.7417 83.6573 29.7417C83.2218 29.7417 82.8958 29.6881 82.677 29.5787C82.4604 29.4693 82.351 29.1969 82.351 28.8173V21.7457C82.351 21.3103 82.0786 20.9843 81.5896 20.7118C81.1006 20.4394 80.2298 20.2764 79.1423 20.2764H74.8998C73.7566 20.2764 72.9416 20.4394 72.4526 20.7118C71.9636 20.9843 71.6911 21.3639 71.6911 21.7457V28.8173C71.6911 29.1991 71.5817 29.4693 71.3651 29.5787C71.2021 29.6881 70.8761 29.7417 70.4407 29.7417Z" fill="#EB971C"/>
<path d="M94.761 33.0039C94.435 33.0039 94.272 32.8945 94.1626 32.7315C94.0532 32.5685 94.0532 32.2961 94.0532 31.97C94.0532 31.644 94.1068 31.3716 94.1626 31.2086C94.2184 31.0456 94.435 30.9362 94.761 30.9362H97.5365C98.5168 30.9362 99.2224 30.8268 99.6042 30.5544C99.986 30.282 100.203 29.956 100.203 29.467V29.3576H92.4232C88.6161 29.3576 86.7114 28.1607 86.7114 25.8206V21.6853C86.7114 19.3452 88.6161 18.1484 92.4232 18.1484H97.0475C100.855 18.1484 102.759 19.3452 102.759 21.6853V29.4111C102.759 30.608 102.324 31.4788 101.399 32.0214C100.529 32.6198 99.2224 32.8922 97.4829 32.8922L94.7632 33.0016L94.761 33.0039ZM100.256 27.3993V21.7411C100.256 21.3593 99.9838 20.9797 99.4948 20.7073C99.0058 20.4349 98.1349 20.2719 97.0475 20.2719H92.5862C91.4429 20.2719 90.6279 20.4349 90.1389 20.7073C89.6499 20.9797 89.3775 21.3593 89.3775 21.7411V25.8765C89.3775 26.3119 89.6499 26.6379 90.1389 26.9103C90.6279 27.1827 91.4987 27.3457 92.5862 27.3457H100.256V27.3993Z" fill="#EB971C"/>
</g>
<defs>
<clipPath id="clip0_0_112">
<rect width="102.691" height="32.962" fill="white" transform="scale(1.00116)"/>
</clipPath>
</defs>
</svg>
