<svg width="60" height="60" viewBox="0 0 60 60" fill="none" xmlns="http://www.w3.org/2000/svg">
<rect width="60" height="60" rx="30" fill="url(#paint0_radial_3744_17299)"/>
<rect x="0.5" y="0.5" width="59" height="59" rx="29.5" stroke="#F3F3F1"/>
<path d="M37.3427 40.7309C37.5528 40.7308 37.7548 40.8124 37.9059 40.9583C38.8932 41.9117 40.3334 42.2292 41.6137 41.8318C40.7897 40.1153 40.6756 38.1488 41.3141 36.328C42.1065 34.0626 42.3051 31.792 41.4032 29.5147C40.6109 27.5142 39.082 25.8521 37.147 24.9043C37.2664 25.5423 37.3264 26.19 37.326 26.839C37.3261 29.6127 36.2595 32.2215 34.3229 34.1848C32.386 36.1483 29.7897 37.2524 27.0122 37.2936C26.4982 37.3016 25.9843 37.2718 25.4746 37.2044C27.0011 39.88 29.8799 41.6226 33.0434 41.6695C34.4273 41.6909 35.756 41.4009 36.9935 40.81C37.1025 40.7579 37.2218 40.7309 37.3427 40.7309Z" fill="#EDA133"/>
<path d="M27.0348 18.0018C22.1077 17.9039 18.0119 21.8898 18 26.8158C17.9971 28.0193 18.232 29.1861 18.6984 30.2841C18.7051 30.3001 18.7114 30.3162 18.7171 30.3326C19.3556 32.1534 19.2415 34.1198 18.4175 35.8364C19.6979 36.2335 21.1379 35.9163 22.1253 34.9629C22.2441 34.8481 22.3952 34.7724 22.5583 34.7459C22.7214 34.7194 22.8886 34.7434 23.0377 34.8146C24.275 35.4055 25.6039 35.6963 26.9877 35.6741C31.8763 35.6015 35.7057 31.72 35.7056 26.8375C35.7057 22.0615 31.8159 18.0979 27.0348 18.0018ZM22.1306 28.1574C21.4228 28.1574 20.8489 27.5845 20.8489 26.8778C20.8489 26.1711 21.4228 25.5982 22.1306 25.5982C22.8385 25.5982 23.4124 26.1711 23.4124 26.8778C23.4124 27.5845 22.8385 28.1574 22.1306 28.1574ZM26.8528 28.1574C26.145 28.1574 25.5711 27.5845 25.5711 26.8778C25.5711 26.1711 26.145 25.5982 26.8528 25.5982C27.5607 25.5982 28.1346 26.1711 28.1346 26.8778C28.1346 27.5845 27.5607 28.1574 26.8528 28.1574ZM31.5751 28.1574C30.8672 28.1574 30.2933 27.5845 30.2933 26.8778C30.2933 26.1711 30.8672 25.5982 31.5751 25.5982C32.283 25.5982 32.8569 26.1711 32.8569 26.8778C32.8569 27.5845 32.283 28.1574 31.5751 28.1574Z" fill="#EDA133"/>
<defs>
<radialGradient id="paint0_radial_3744_17299" cx="0" cy="0" r="1" gradientUnits="userSpaceOnUse" gradientTransform="translate(30 30) scale(39.6 20.4)">
<stop stop-color="#F0ECE7"/>
<stop offset="1" stop-color="white"/>
</radialGradient>
</defs>
</svg>
