<svg width="81" height="81" viewBox="0 0 81 81" fill="none" xmlns="http://www.w3.org/2000/svg">
<rect x="0.150391" y="0.125" width="80" height="80" rx="8" fill="#FAEAD1"/>
<path d="M18.5424 44.6232C16.9995 35.8491 19.8747 28.8128 26.9287 23.6225C33.8859 18.5034 43.5948 18.7416 50.5456 23.9046C50.6016 23.9462 50.6584 23.9867 50.7132 24.0299C51.0877 24.3252 51.254 24.7035 50.9858 25.1259C50.6943 25.585 50.2491 25.5825 49.8237 25.319C49.1917 24.9275 48.594 24.4797 47.9566 24.0979C41.216 20.0603 32.5393 20.7967 26.53 25.8731C22.8576 28.9752 20.613 32.8928 19.8628 37.6181C19.1622 42.0304 20.0856 46.1658 22.3328 50.0152C22.4947 50.2926 22.7102 50.4594 23.024 50.5497C26.0689 51.4264 28.0667 53.4105 29.1141 56.374C29.2357 56.718 29.4586 56.8995 29.7548 57.0588C36.398 60.6313 44.6433 59.7923 50.4777 54.9354C54.2075 51.8305 56.4383 47.8599 57.2224 43.0821C57.3685 42.1919 57.4559 41.2841 57.4126 40.3733C57.386 39.8135 57.5109 39.3198 58.1716 39.2471C58.6657 39.1926 58.9951 39.6609 58.983 40.4081C58.9233 44.0852 58.0083 47.5304 56.1145 50.6941C55.6617 51.4506 55.1634 52.186 54.6207 52.8801C54.3212 53.2631 54.3169 53.5216 54.586 53.913C56.6943 56.979 58.7825 60.059 60.8769 63.1346C60.9293 63.2115 60.9842 63.2867 61.0355 63.3643C61.334 63.8163 61.4774 64.2952 60.936 64.639C60.4045 64.9766 60.0365 64.6628 59.727 64.207C57.7151 61.2442 55.6948 58.2871 53.6723 55.3316C53.5193 55.108 53.4231 54.8276 53.135 54.7054C46.2313 61.0822 38.4315 62.4521 29.6239 58.8462C29.5771 61.8358 28.5165 64.3631 26.034 66.4287C27.1092 66.4287 27.9585 66.4287 28.8078 66.4287C29.8777 66.4286 30.9477 66.435 32.0175 66.4255C32.5812 66.4205 33.1075 66.532 33.1202 67.1983C33.1336 67.8964 32.556 67.9707 32.0233 67.9727C29.7208 67.9813 27.4161 68.0367 25.116 67.9604C21.5104 67.8406 17.9081 68.0268 14.3043 67.9804C14.0487 67.9772 13.7925 67.9748 13.5379 67.9557C13.0844 67.9217 12.7807 67.6933 12.7656 67.2208C12.7488 66.6928 13.1009 66.4738 13.5696 66.4511C14.1197 66.4245 14.6721 66.4448 15.4345 66.4448C12.3597 63.5992 11.2872 60.2997 12.4697 56.4733C13.6652 52.6051 16.523 50.6746 20.589 50.1727C19.6961 48.3758 18.9425 46.5913 18.5424 44.6232ZM16.4172 65.1377C18.5052 66.7521 20.9212 66.8591 23.2455 66.1326C26.5239 65.1078 28.2687 61.9482 27.9557 58.2929C27.6085 54.238 23.4186 51.044 19.5153 51.914C16.5606 52.5726 14.5645 54.3709 13.8166 57.3194C13.0394 60.3839 13.9035 63.0092 16.4172 65.1377Z" fill="black"/>
<path d="M60.7363 26.5768C58.989 26.4202 57.3008 26.2685 55.6149 26.0945C55.2734 26.0592 54.9907 26.0671 54.7185 26.3227C51.244 29.5848 47.7619 32.8389 44.2836 36.097C44.2362 36.1414 44.2138 36.2124 44.1257 36.3637C44.9082 36.6356 45.6653 36.8965 46.4208 37.1621C46.9031 37.3316 47.3867 37.4984 47.8627 37.6845C48.2491 37.8356 48.578 38.0626 48.5447 38.5427C48.512 39.0127 48.1861 39.2173 47.7691 39.3127C46.9316 39.5042 46.0986 39.722 45.2537 39.8721C44.714 39.968 44.4907 40.1993 44.4291 40.7672C44.1544 43.2982 42.803 45.0546 40.3865 45.8483C38.1204 46.5926 36.0404 46.0872 34.3423 44.4091C32.6595 42.7463 32.16 40.6973 32.8865 38.447C33.6156 36.1886 35.2614 34.9085 37.5721 34.4566C38.1473 34.344 38.7245 34.2866 39.3016 34.4249C39.6681 34.5127 39.855 34.3743 39.9818 34.027C40.2686 33.2414 40.589 32.468 40.8958 31.6897C41.0616 31.269 41.3163 30.9426 41.8192 31.0007C42.2924 31.0553 42.4491 31.433 42.5394 31.8346C42.7572 32.8036 42.965 33.7749 43.1686 34.7073C43.4781 34.8212 43.576 34.6178 43.7002 34.5022C46.9671 31.4607 50.2271 28.4117 53.4996 25.3761C53.8195 25.0793 53.9504 24.7665 53.929 24.337C53.8516 22.782 53.8114 21.2251 53.7237 19.6709C53.699 19.2343 53.8151 18.9087 54.1282 18.6174C56.375 16.527 58.616 14.4303 60.861 12.3381C61.1467 12.0719 61.4699 11.8914 61.871 12.0742C62.2642 12.2533 62.3391 12.6114 62.3763 12.9988C62.5047 14.3382 62.6677 15.6748 62.7685 17.0162C62.805 17.5031 63.0464 17.6493 63.4617 17.7035C64.8661 17.8869 66.2684 18.0868 67.6735 18.2648C68.1304 18.3227 68.5651 18.3917 68.7261 18.9052C68.8726 19.3723 68.5494 19.6412 68.2589 19.9111C66.0111 21.9999 63.7612 24.0865 61.5117 26.1736C61.3057 26.3647 61.0944 26.5473 60.7363 26.5768ZM58.533 22.7896C57.94 23.3497 57.347 23.9098 56.6128 24.6032C57.9598 24.7375 59.1034 24.855 60.2481 24.9596C60.3526 24.9692 60.4884 24.9249 60.5695 24.8574C61.287 24.2596 62.0068 23.6625 62.6807 22.8584C61.4185 22.7506 60.2712 22.6524 59.1238 22.5551C58.9305 22.5388 58.7568 22.5882 58.533 22.7896ZM57.6272 20.1323C57.469 19.4024 57.6686 18.6221 57.3444 17.7709C56.3261 18.8282 54.8423 19.4375 55.3571 21.2468C55.4432 21.5493 55.3716 21.8938 55.3985 22.2168C55.4298 22.591 55.3087 22.9876 55.5433 23.422C56.0127 22.9939 56.4054 22.5631 56.8686 22.2305C57.5721 21.7252 57.8481 21.0969 57.6272 20.1323ZM41.5261 34.6949C41.5011 34.6329 41.4668 34.6283 41.427 34.6839C41.4137 34.7024 41.4063 34.7254 41.3979 34.747C40.8625 36.1306 40.3235 37.5128 39.7974 38.9C39.7379 39.057 39.5968 39.2297 39.7878 39.4676C41.414 39.1347 43.0642 38.8034 44.8845 38.2838C44.0579 38.0063 43.4498 37.781 42.8289 37.6001C42.2769 37.4393 41.9697 37.13 41.8977 36.5361C41.8255 35.9401 41.6685 35.3543 41.5261 34.6949ZM65.3182 20.5331C65.5712 20.2599 65.9205 20.0638 66.1019 19.6347C64.9902 19.4826 63.9612 19.3378 62.9308 19.204C62.7034 19.1744 62.4661 19.154 62.268 19.3235C61.6599 19.8437 61.039 20.351 60.4636 21.0962C61.4429 21.1855 62.318 21.217 63.1753 21.3571C64.0363 21.4979 64.7153 21.2892 65.3182 20.5331ZM60.7139 14.6422C60.512 14.8341 60.3319 15.0578 60.1046 15.2122C59.1241 15.8787 58.7582 16.7564 59.0149 17.9334C59.1485 18.5461 59.1512 19.1873 59.2173 19.8589C61.1065 18.6788 61.375 18.1524 61.0817 16.114C61.0094 15.6121 61.2126 15.046 60.7139 14.6422Z" fill="#F5AE46"/>
<path d="M26.5113 33.4306C21.8306 41.831 26.6926 52.1524 36.0896 53.8618C43.661 55.2391 51.048 49.9896 52.2051 42.3766C52.6741 39.2908 52.1414 36.3611 50.6302 33.6182C50.3484 33.1068 49.9824 32.5646 50.6503 32.0834C51.09 31.7666 51.548 32.0521 52.0157 32.8804C55.4818 39.0196 54.1023 46.9934 48.758 51.71C40.9695 58.5838 28.9593 56.1079 24.5375 46.717C20.1438 37.3858 26.4733 26.0903 36.7061 24.9519C39.9341 24.5928 42.9468 25.186 45.8011 26.6926C46.0479 26.8229 46.3036 26.9448 46.4657 27.1865C46.657 27.4719 46.6472 27.7643 46.431 28.0248C46.1625 28.3483 45.8219 28.4413 45.4339 28.2441C44.5009 27.77 43.5678 27.3021 42.5567 27.0042C36.4912 25.2167 30.2234 27.57 26.836 32.9153C26.7364 33.0724 26.6362 33.2292 26.5113 33.4306Z" fill="black"/>
<path d="M30.7371 34.5995C32.8018 31.9042 35.5088 30.6115 38.8372 30.5822C39.0227 30.5806 39.2095 30.5916 39.3939 30.6131C39.9141 30.6737 40.318 30.9079 40.2678 31.4873C40.2205 32.0333 39.7938 32.2038 39.3035 32.1688C37.6846 32.0532 36.1627 32.3674 34.7255 33.1251C31.5707 34.7886 29.8187 38.5687 30.6382 41.967C31.5354 45.6879 34.6255 48.2337 38.323 48.2983C42.7767 48.3762 46.336 45.0991 46.6573 40.6166C46.695 40.0905 46.8757 39.695 47.4589 39.6699C47.9401 39.6491 48.2581 40.1168 48.2164 40.7195C47.8498 46.0274 43.5195 50.0135 38.2443 49.8987C33.135 49.7876 28.9405 45.4982 28.9152 40.3928C28.9047 38.2757 29.4763 36.3601 30.7371 34.5995Z" fill="black"/>
<path d="M35.4326 67.8809C35.0583 67.6486 34.8741 67.3678 35.0027 66.9764C35.1408 66.556 35.4938 66.448 35.8897 66.4422C36.3776 66.4352 36.8656 66.4391 37.3536 66.439C43.9532 66.4383 50.5528 66.4374 57.1525 66.4375C58.0882 66.4375 58.4662 66.6604 58.4693 67.2054C58.4724 67.7461 58.0828 67.988 57.1564 67.9883C51.1145 67.9902 45.0726 67.9922 39.0307 67.9829C37.849 67.9811 36.6673 67.9302 35.4326 67.8809Z" fill="black"/>
<path d="M59.9486 67.3986C59.876 66.6993 60.2426 66.4541 60.8129 66.4477C61.9958 66.4343 63.1791 66.4351 64.3621 66.4445C64.8692 66.4485 65.2392 66.6964 65.2409 67.2268C65.2425 67.7265 64.8796 67.9727 64.4078 67.979C63.202 67.9953 61.9957 67.99 60.7898 67.9777C60.4219 67.9739 60.1085 67.8345 59.9486 67.3986Z" fill="black"/>
<path d="M18.0013 55.3547C19.191 54.1306 20.5923 53.819 22.1217 54.3393C23.6903 54.8729 24.4618 56.1031 24.6259 57.7098C24.7111 58.5445 24.4399 59.3186 23.9718 60.007C23.1891 61.1582 22.3953 62.3022 21.5865 63.4352C21.0406 64.2 20.5376 64.1994 20.0055 63.4416C19.2322 62.3401 18.4633 61.2349 17.7197 60.1133C16.7163 58.6 16.8151 56.9486 18.0013 55.3547ZM22.8463 56.9226C22.1289 55.7288 20.9419 55.3196 19.8457 55.8882C18.7505 56.4563 18.2194 57.6965 18.7816 58.7625C19.3365 59.8145 20.0762 60.7689 20.7966 61.8597C21.4414 60.9356 22.001 60.1192 22.5762 59.3138C23.0858 58.6002 23.2295 57.8456 22.8463 56.9226Z" fill="black"/>
</svg>
