<svg width="69" height="68" viewBox="0 0 69 68" fill="none" xmlns="http://www.w3.org/2000/svg">
<g filter="url(#filter0_d_3872_97182)">
<g clip-path="url(#clip0_3872_97182)">
<rect x="4.5" y="4" width="60" height="60" rx="30" fill="url(#paint0_radial_3872_97182)"/>
<path d="M43.9286 22H25.0714C23.6537 22 22.5 23.1537 22.5 24.5714V36.5714C22.5 37.9891 23.6537 39.1429 25.0714 39.1429H43.9286C45.3463 39.1429 46.5 37.9891 46.5 36.5714V24.5714C46.5 23.1537 45.3463 22 43.9286 22ZM44.7857 36.5714C44.7857 37.0446 44.4009 37.4286 43.9286 37.4286H25.0714C24.5991 37.4286 24.2143 37.0446 24.2143 36.5714V24.5714C24.2143 24.0991 24.5991 23.7143 25.0714 23.7143H43.9286C44.4009 23.7143 44.7857 24.0991 44.7857 24.5714V36.5714ZM45.6429 42.5714H29.1994C28.8446 41.5763 27.9017 40.8571 26.7857 40.8571C25.6697 40.8571 24.7269 41.5763 24.372 42.5714H23.3571C23.1298 42.5714 22.9118 42.6617 22.7511 42.8225C22.5903 42.9832 22.5 43.2012 22.5 43.4286C22.5 43.6559 22.5903 43.8739 22.7511 44.0347C22.9118 44.1954 23.1298 44.2857 23.3571 44.2857H24.372C24.7269 45.2809 25.6697 46 26.7857 46C27.9017 46 28.8446 45.2809 29.1994 44.2857H45.6429C45.8702 44.2857 46.0882 44.1954 46.2489 44.0347C46.4097 43.8739 46.5 43.6559 46.5 43.4286C46.5 43.2012 46.4097 42.9832 46.2489 42.8225C46.0882 42.6617 45.8702 42.5714 45.6429 42.5714ZM26.7857 44.2857C26.565 44.2758 26.3566 44.1812 26.204 44.0216C26.0513 43.8619 25.9661 43.6495 25.9661 43.4286C25.9661 43.2077 26.0513 42.9952 26.204 42.8356C26.3566 42.6759 26.565 42.5813 26.7857 42.5714C27.0064 42.5813 27.2148 42.6759 27.3675 42.8356C27.5202 42.9952 27.6054 43.2077 27.6054 43.4286C27.6054 43.6495 27.5202 43.8619 27.3675 44.0216C27.2148 44.1812 27.0064 44.2758 26.7857 44.2857ZM32.7857 34.9043C32.5605 34.9049 32.3375 34.8609 32.1293 34.775C31.9212 34.6891 31.7321 34.5629 31.5729 34.4037C31.4137 34.2445 31.2875 34.0554 31.2016 33.8472C31.1157 33.6391 31.0717 33.416 31.0723 33.1909V27.9537C31.0724 27.6485 31.1539 27.3489 31.3086 27.0857C31.4632 26.8226 31.6852 26.6055 31.9518 26.4569C32.2184 26.3083 32.5198 26.2335 32.8249 26.2404C33.13 26.2472 33.4278 26.3353 33.6874 26.4957L37.9209 29.1143C38.43 29.4297 38.7334 29.974 38.7334 30.5723C38.7334 31.1706 38.43 31.7149 37.9217 32.0303L33.6883 34.6497C33.4173 34.8171 33.1051 34.9055 32.7866 34.9051L32.7857 34.9043ZM32.7814 27.9503L32.7857 33.19L37.0191 30.5714L32.7814 27.9503Z" fill="#2A313D"/>
<rect x="5" y="4.5" width="59" height="59" rx="29.5" stroke="#F3F3F1"/>
</g>
</g>
<defs>
<filter id="filter0_d_3872_97182" x="0.5" y="0" width="68" height="68" filterUnits="userSpaceOnUse" color-interpolation-filters="sRGB">
<feFlood flood-opacity="0" result="BackgroundImageFix"/>
<feColorMatrix in="SourceAlpha" type="matrix" values="0 0 0 0 0 0 0 0 0 0 0 0 0 0 0 0 0 0 127 0" result="hardAlpha"/>
<feMorphology radius="1" operator="dilate" in="SourceAlpha" result="effect1_dropShadow_3872_97182"/>
<feOffset/>
<feGaussianBlur stdDeviation="1.5"/>
<feComposite in2="hardAlpha" operator="out"/>
<feColorMatrix type="matrix" values="0 0 0 0 0.952941 0 0 0 0 0.952941 0 0 0 0 0.945098 0 0 0 1 0"/>
<feBlend mode="normal" in2="BackgroundImageFix" result="effect1_dropShadow_3872_97182"/>
<feBlend mode="normal" in="SourceGraphic" in2="effect1_dropShadow_3872_97182" result="shape"/>
</filter>
<radialGradient id="paint0_radial_3872_97182" cx="0" cy="0" r="1" gradientUnits="userSpaceOnUse" gradientTransform="translate(34.5 34) scale(39.6 20.4)">
<stop stop-color="#F0ECE7"/>
<stop offset="1" stop-color="white"/>
</radialGradient>
<clipPath id="clip0_3872_97182">
<rect x="4.5" y="4" width="60" height="60" rx="30" fill="white"/>
</clipPath>
</defs>
</svg>
