<svg width="31" height="41" viewBox="0 0 31 41" fill="none" xmlns="http://www.w3.org/2000/svg">
<path d="M29.9998 8.18961V36.2324C29.9998 38.4416 28.209 40.2324 25.9998 40.2324H4C1.79086 40.2324 0 38.4416 0 36.2324V4.23242C0 2.02328 1.79086 0.232422 4 0.232422H21.3367L29.9998 8.18961Z" fill="#FDB022"/>
<g filter="url(#filter0_d_5718_22011)">
<path d="M29.9998 8.18961H22.3367C21.7844 8.18961 21.3367 7.7419 21.3367 7.18961V0.232422L29.9998 8.18961Z" fill="#FEC84B"/>
</g>
<path d="M12.7286 23.9144V30.2324H11.1896V26.4434L9.77663 30.2324H8.53463L7.11263 26.4344V30.2324H5.57363V23.9144H7.39162L9.16463 28.2884L10.9196 23.9144H12.7286ZM18.6503 25.9484C18.6503 26.3144 18.5663 26.6504 18.3983 26.9564C18.2303 27.2564 17.9723 27.4994 17.6243 27.6854C17.2763 27.8714 16.8443 27.9644 16.3283 27.9644H15.3743V30.2324H13.8353V23.9144H16.3283C16.8323 23.9144 17.2583 24.0014 17.6063 24.1754C17.9543 24.3494 18.2153 24.5894 18.3893 24.8954C18.5633 25.2014 18.6503 25.5524 18.6503 25.9484ZM16.2113 26.7404C16.5053 26.7404 16.7243 26.6714 16.8683 26.5334C17.0123 26.3954 17.0843 26.2004 17.0843 25.9484C17.0843 25.6964 17.0123 25.5014 16.8683 25.3634C16.7243 25.2254 16.5053 25.1564 16.2113 25.1564H15.3743V26.7404H16.2113ZM19.3346 29.0624V27.8204L22.1786 23.7524H23.8976V27.7304H24.6356V29.0624H23.8976V30.2324H22.3586V29.0624H19.3346ZM22.4666 25.4444L20.9546 27.7304H22.4666V25.4444Z" fill="white"/>
<defs>
<filter id="filter0_d_5718_22011" x="18.3367" y="-0.767578" width="12.6631" height="11.957" filterUnits="userSpaceOnUse" color-interpolation-filters="sRGB">
<feFlood flood-opacity="0" result="BackgroundImageFix"/>
<feColorMatrix in="SourceAlpha" type="matrix" values="0 0 0 0 0 0 0 0 0 0 0 0 0 0 0 0 0 0 127 0" result="hardAlpha"/>
<feOffset dx="-1" dy="1"/>
<feGaussianBlur stdDeviation="1"/>
<feComposite in2="hardAlpha" operator="out"/>
<feColorMatrix type="matrix" values="0 0 0 0 0 0 0 0 0 0 0 0 0 0 0 0 0 0 0.2 0"/>
<feBlend mode="normal" in2="BackgroundImageFix" result="effect1_dropShadow_5718_22011"/>
<feBlend mode="normal" in="SourceGraphic" in2="effect1_dropShadow_5718_22011" result="shape"/>
</filter>
</defs>
</svg>
