<svg width="400" height="342" viewBox="0 0 400 342" fill="none" xmlns="http://www.w3.org/2000/svg">
<path d="M211.686 317.63C295.826 317.63 364.038 249.417 364.038 164.977C364.038 80.5373 295.525 12.3242 211.686 12.3242C127.547 12.3242 59.334 80.5373 59.334 164.977C59.334 249.417 127.547 317.63 211.686 317.63Z" fill="#EAEEF9"/>
<path d="M354.122 64.9025C360.928 64.9025 366.443 59.3863 366.443 52.5821C366.443 45.7777 360.928 40.2617 354.122 40.2617C347.319 40.2617 341.802 45.7777 341.802 52.5821C341.802 59.3863 347.319 64.9025 354.122 64.9025Z" fill="#E7EBF6"/>
<path d="M372.151 16.8279C376.8 16.8279 380.565 13.0608 380.565 8.41395C380.565 3.76705 376.8 0 372.151 0C367.506 0 363.737 3.76705 363.737 8.41395C363.737 13.0608 367.506 16.8279 372.151 16.8279Z" fill="#E7EBF6"/>
<path d="M67.4452 64.6013C72.0921 64.6013 75.8591 60.8343 75.8591 56.1874C75.8591 51.5405 72.0921 47.7734 67.4452 47.7734C62.7983 47.7734 59.0312 51.5405 59.0312 56.1874C59.0312 60.8343 62.7983 64.6013 67.4452 64.6013Z" fill="#E7EBF6"/>
<path d="M16.0605 226.881C24.6904 226.881 31.6863 219.884 31.6863 211.255C31.6863 202.625 24.6904 195.629 16.0605 195.629C7.43052 195.629 0.43457 202.625 0.43457 211.255C0.43457 219.884 7.43052 226.881 16.0605 226.881Z" fill="#E7EBF6"/>
<g filter="url(#filter0_d_3191_14529)">
<path d="M255.859 83.83L301.834 249.104C303.336 254.813 300.031 260.523 294.322 262.025L132.354 304.997C126.645 306.5 120.935 303.194 119.433 297.484L62.939 84.1305C61.4366 78.421 64.742 72.7116 70.4515 71.2091L187.646 40.2578L255.859 83.83Z" fill="url(#paint0_linear_3191_14529)"/>
</g>
<path d="M253.455 188.409L166.01 211.547L156.394 213.951L127.246 221.764C126.044 222.065 125.142 223.567 125.743 225.07C126.044 226.572 127.546 227.474 128.748 227.173L157.896 219.36L167.512 216.956L254.957 193.818C256.159 193.518 257.061 192.015 256.46 190.513C256.159 189.01 254.657 188.109 253.455 188.409Z" fill="#D5DDEA"/>
<path d="M247.745 167.972L215.291 176.386L204.173 179.391L122.137 201.328C120.935 201.628 120.034 203.131 120.635 204.633C120.935 206.136 122.438 207.037 123.64 206.737L205.976 184.8L217.094 181.795L249.548 173.381C250.75 173.081 251.652 171.578 251.051 170.076C250.45 168.874 248.947 167.672 247.745 167.972Z" fill="#D5DDEA"/>
<path d="M242.939 147.254L234.525 149.357L226.111 151.461L116.429 180.609C115.227 180.909 114.326 182.412 114.927 183.914C115.227 185.417 116.73 186.318 117.932 186.018L227.613 156.869L236.929 154.465L244.441 152.362C245.643 152.062 246.545 150.559 245.944 149.057C245.643 147.855 244.441 146.953 242.939 147.254Z" fill="#D5DDEA"/>
<path d="M192.155 253.634L186.145 255.137C184.943 255.437 183.441 254.536 183.14 253.034C182.84 251.531 183.441 250.029 184.643 249.728L190.652 248.226C191.854 247.925 193.357 248.827 193.657 250.329C193.958 252.132 193.357 253.334 192.155 253.634Z" fill="#CED7E2"/>
<path d="M173.822 258.424L139.265 267.438C138.063 267.739 136.561 266.838 136.26 265.335C135.96 263.833 136.561 262.33 137.763 262.03L172.32 253.015C173.522 252.714 175.024 253.616 175.325 255.118C175.926 256.621 175.325 258.123 173.822 258.424Z" fill="#D5DDEA"/>
<path d="M238.731 126.515L211.386 133.727L204.775 135.53L111.32 160.171C110.118 160.472 109.216 161.974 109.817 163.477C110.118 164.979 111.62 165.881 112.822 165.58L205.977 141.24L212.588 139.437L239.632 132.225C241.135 131.924 241.736 130.422 241.435 128.619C241.435 127.417 239.933 126.215 238.731 126.515Z" fill="#D5DDEA"/>
<path d="M174.125 81.1423L96.5967 101.576C94.7937 102.177 92.9907 100.975 92.3897 99.1722C91.7887 97.3692 92.9907 95.5662 94.7937 94.9652L172.322 74.5313C174.125 73.9303 175.928 75.1323 176.529 76.9353C177.13 78.7383 175.928 80.5413 174.125 81.1423Z" fill="#D5DDEA"/>
<path d="M131.454 112.388L101.705 120.201C99.9021 120.802 98.0991 119.6 97.4981 117.797C96.8971 115.994 98.0991 114.191 99.9021 113.59L129.351 105.777C131.154 105.176 132.957 106.378 133.558 108.181C134.159 109.984 132.957 111.787 131.454 112.388Z" fill="#D5DDEA"/>
<path d="M187.647 40.2617L199.668 85.9374C201.471 92.2478 208.382 96.1543 214.693 94.3513L255.861 83.8339" fill="#D5DDEA"/>
<g filter="url(#filter1_d_3191_14529)">
<path d="M377.259 130.411L349.613 299.892C348.712 305.602 343.002 309.509 337.293 308.307L172.621 279.458C166.912 278.557 163.005 272.847 163.907 267.138L202.07 49.8779C202.971 44.1684 208.681 40.2619 214.39 41.4639L333.988 62.4988L377.259 130.411Z" fill="url(#paint1_linear_3191_14529)"/>
</g>
<path d="M331.284 224.482L242.338 208.856L232.722 207.053L202.973 201.945C201.771 201.644 200.268 202.846 200.268 204.349C199.968 205.851 200.869 207.354 202.071 207.654L231.82 212.763L241.436 214.566L330.383 230.192C331.585 230.492 333.087 229.29 333.087 227.788C333.388 226.285 332.787 224.783 331.284 224.482Z" fill="#CED7E2"/>
<path d="M334.889 203.752L301.835 198.042L290.717 195.939L206.878 181.214C205.676 180.914 204.173 182.116 204.173 183.618C203.873 185.121 204.774 186.623 205.976 186.924L289.815 201.648L300.933 203.752L333.988 209.461C335.19 209.762 336.692 208.56 336.692 207.057C336.993 205.555 336.091 204.052 334.889 203.752Z" fill="#CED7E2"/>
<path d="M339.097 182.716L330.383 181.214L321.668 179.712L209.884 160.179C208.682 159.879 207.179 161.081 207.179 162.583C206.879 164.086 207.78 165.588 208.982 165.889L320.767 185.421L330.383 187.224L337.895 188.426C339.097 188.726 340.6 187.524 340.6 186.022C341.201 184.519 340.6 183.017 339.097 182.716Z" fill="#D5DDEA"/>
<path d="M248.346 258.138L242.336 257.236C241.134 256.936 240.232 255.433 240.533 253.931C240.833 252.428 242.035 251.226 243.237 251.527L249.247 252.428C250.449 252.729 251.351 254.231 251.05 255.734C250.75 257.537 249.548 258.138 248.346 258.138Z" fill="#CED7E2"/>
<path d="M230.017 254.817L194.858 248.807C193.656 248.506 192.755 247.004 193.055 245.501C193.356 243.999 194.558 242.797 195.76 243.097L230.918 249.107C232.12 249.408 233.022 250.91 232.721 252.413C232.421 254.216 231.219 255.117 230.017 254.817Z" fill="#E3EAF2"/>
<path d="M343.904 162.263L315.958 157.455L309.046 156.253L213.789 139.425C212.587 139.125 211.085 140.327 211.085 141.829C210.784 143.332 211.686 144.834 212.888 145.135L308.145 161.963L315.056 163.165L342.702 167.973C344.205 168.273 345.407 167.071 345.707 165.569C346.008 164.066 345.106 162.564 343.904 162.263Z" fill="#D5DDEA"/>
<path d="M304.54 94.0541L225.509 80.2312C223.706 79.9307 222.504 78.1277 222.805 76.3247C223.105 74.5217 224.908 73.3197 226.711 73.6202L305.742 87.4431C307.545 87.7436 308.747 89.5466 308.446 91.3496C308.146 92.8521 306.343 94.3546 304.54 94.0541Z" fill="#D5DDEA"/>
<path d="M252.552 104.281L222.202 98.8718C220.399 98.5713 219.197 96.7683 219.497 94.9653C219.798 93.1624 221.601 91.9604 223.404 92.2609L253.453 97.6698C255.256 97.9703 256.458 99.7733 256.158 101.576C255.857 103.379 254.054 104.581 252.552 104.281Z" fill="#D5DDEA"/>
<path d="M333.687 62.5195L325.573 109.097C324.371 115.708 329.179 122.018 335.79 123.22L377.259 130.432" fill="#D5DDEA"/>
<path d="M263.972 283.967C300.98 283.967 330.982 253.965 330.982 216.956C330.982 179.947 300.98 149.945 263.972 149.945C226.963 149.945 196.961 179.947 196.961 216.956C196.961 253.965 226.963 283.967 263.972 283.967Z" fill="white"/>
<path d="M257.662 227.776C257.362 226.574 257.362 225.372 257.362 223.869C257.362 218.761 259.465 214.253 264.874 210.347L269.381 207.041C272.086 204.938 273.288 202.534 273.288 199.529C273.288 195.322 270.283 191.115 263.972 191.115C257.362 191.115 254.357 196.524 254.357 201.632C254.357 202.834 254.357 203.736 254.657 204.637L242.637 204.337C242.337 203.135 242.036 201.632 242.036 200.13C242.036 189.913 249.549 180.297 263.672 180.297C278.096 180.297 285.909 189.612 285.909 198.928C285.909 206.44 282.002 211.549 276.593 215.455L272.687 218.16C269.381 220.564 267.578 223.569 267.578 227.175V227.776H257.662ZM262.77 233.785C266.977 233.785 270.283 237.091 270.283 241.298C270.283 245.505 266.977 248.81 262.77 248.81C258.563 248.81 255.258 245.505 255.258 241.298C255.559 237.391 258.563 233.785 262.77 233.785Z" fill="#989FB0"/>
<path d="M364.276 321.002C361.674 321.002 359.075 319.962 356.992 317.621L313.555 274.183L311.993 275.224C297.948 285.628 281.561 291.09 264.914 291.09C244.886 291.09 224.858 283.027 210.032 268.981C194.425 254.155 185.842 234.127 185.842 212.278C185.842 168.839 221.216 133.465 264.654 133.465C294.307 133.465 320.317 149.071 334.362 175.602C348.149 201.873 346.328 232.566 329.422 257.276L328.382 258.837L372.08 302.536C376.501 306.956 375.461 311.38 374.68 313.721C372.6 317.882 368.438 321.002 364.276 321.002ZM264.654 155.054C232.921 155.054 207.431 180.805 207.431 212.278C207.431 248.172 236.823 269.761 265.435 269.761C282.862 269.761 298.729 261.958 309.913 247.912C323.7 230.745 326.041 207.596 316.416 187.567C306.533 167.539 286.764 155.054 264.654 155.054Z" fill="#989FB0"/>
<defs>
<filter id="filter0_d_3191_14529" x="40.5771" y="29.2578" width="283.618" height="309.102" filterUnits="userSpaceOnUse" color-interpolation-filters="sRGB">
<feFlood flood-opacity="0" result="BackgroundImageFix"/>
<feColorMatrix in="SourceAlpha" type="matrix" values="0 0 0 0 0 0 0 0 0 0 0 0 0 0 0 0 0 0 127 0" result="hardAlpha"/>
<feOffset dy="11"/>
<feGaussianBlur stdDeviation="11"/>
<feColorMatrix type="matrix" values="0 0 0 0 0.397708 0 0 0 0 0.47749 0 0 0 0 0.575 0 0 0 0.27 0"/>
<feBlend mode="normal" in2="BackgroundImageFix" result="effect1_dropShadow_3191_14529"/>
<feBlend mode="normal" in="SourceGraphic" in2="effect1_dropShadow_3191_14529" result="shape"/>
</filter>
<filter id="filter1_d_3191_14529" x="141.777" y="30.2461" width="257.481" height="311.277" filterUnits="userSpaceOnUse" color-interpolation-filters="sRGB">
<feFlood flood-opacity="0" result="BackgroundImageFix"/>
<feColorMatrix in="SourceAlpha" type="matrix" values="0 0 0 0 0 0 0 0 0 0 0 0 0 0 0 0 0 0 127 0" result="hardAlpha"/>
<feOffset dy="11"/>
<feGaussianBlur stdDeviation="11"/>
<feColorMatrix type="matrix" values="0 0 0 0 0.397708 0 0 0 0 0.47749 0 0 0 0 0.575 0 0 0 0.27 0"/>
<feBlend mode="normal" in2="BackgroundImageFix" result="effect1_dropShadow_3191_14529"/>
<feBlend mode="normal" in="SourceGraphic" in2="effect1_dropShadow_3191_14529" result="shape"/>
</filter>
<linearGradient id="paint0_linear_3191_14529" x1="182.309" y1="34.1256" x2="182.309" y2="308.216" gradientUnits="userSpaceOnUse">
<stop stop-color="#FDFEFF"/>
<stop offset="0.9964" stop-color="#ECF0F5"/>
</linearGradient>
<linearGradient id="paint1_linear_3191_14529" x1="270.449" y1="35.0636" x2="270.449" y2="311.405" gradientUnits="userSpaceOnUse">
<stop stop-color="#FDFEFF"/>
<stop offset="0.9964" stop-color="#ECF0F5"/>
</linearGradient>
</defs>
</svg>
