<svg width="343" height="321" viewBox="0 0 343 321" fill="none" xmlns="http://www.w3.org/2000/svg">
<path d="M183.245 321.001C267.582 321.001 335.976 253.12 335.976 169.299C335.976 85.4775 267.582 17.5977 183.245 17.5977C98.9097 17.5977 30.5156 85.4775 30.5156 169.299C30.5156 253.12 98.9097 321.001 183.245 321.001Z" fill="#EAEEF9"/>
<path d="M300.236 149.488V242.309C300.236 261.594 284.551 277.279 265.01 277.279H101.995C82.711 277.279 67.0267 261.851 66.7695 242.566C66.7695 242.309 66.7695 242.309 66.7695 242.052V149.488C66.7695 149.231 66.7695 149.231 66.7695 148.974C66.7695 148.46 66.7695 147.946 67.0267 147.432C67.2838 146.66 67.5409 146.146 67.798 145.375L111.509 61.8104C113.051 58.4678 116.394 56.668 119.993 56.668H246.754C250.354 56.668 253.439 58.4678 255.239 61.8104L298.95 145.375C299.207 145.889 299.464 146.66 299.722 147.432C300.236 147.946 300.236 148.717 300.236 149.488Z" fill="#D5DDEA"/>
<g filter="url(#filter0_d_3191_14426)">
<path d="M300.236 149.498V251.832C300.236 265.975 288.922 277.288 274.524 277.288H92.4816C78.34 277.288 66.7695 265.975 66.7695 251.832V148.984C66.7695 148.47 66.7695 147.956 67.0267 147.441H125.65C134.392 147.441 141.592 154.384 141.592 163.383C141.592 167.754 143.391 171.868 146.22 174.696C149.305 177.782 152.905 179.324 157.533 179.324H209.729C218.471 179.324 225.67 172.382 225.67 163.383C225.67 159.012 227.47 154.898 230.298 152.07C233.384 148.984 236.983 147.441 241.354 147.441H299.722C300.236 147.956 300.236 148.727 300.236 149.498Z" fill="url(#paint0_linear_3191_14426)"/>
</g>
<path d="M332.073 96.7753C337.894 96.7753 342.615 92.0553 342.615 86.2333C342.615 80.4111 337.894 75.6914 332.073 75.6914C326.249 75.6914 321.531 80.4111 321.531 86.2333C321.531 92.0553 326.249 96.7753 332.073 96.7753Z" fill="#EAEEF9"/>
<path d="M321.531 62.5902C325.506 62.5902 328.731 59.3669 328.731 55.3908C328.731 51.4147 325.506 48.1914 321.531 48.1914C317.554 48.1914 314.332 51.4147 314.332 55.3908C314.332 59.3669 317.554 62.5902 321.531 62.5902Z" fill="#EAEEF9"/>
<path d="M29.9551 86.2308C33.9312 86.2308 37.1545 83.0075 37.1545 79.0314C37.1545 75.0553 33.9312 71.832 29.9551 71.832C25.979 71.832 22.7559 75.0553 22.7559 79.0314C22.7559 83.0075 25.979 86.2308 29.9551 86.2308Z" fill="#EAEEF9"/>
<path d="M13.757 244.631C21.1412 244.631 27.1273 238.645 27.1273 231.261C27.1273 223.877 21.1412 217.891 13.757 217.891C6.3728 217.891 0.386719 223.877 0.386719 231.261C0.386719 238.645 6.3728 244.631 13.757 244.631Z" fill="#EAEEF9"/>
<path d="M247.833 25.7305C251.189 62.3627 252.867 70.7518 245.269 103.928C242.799 111.303 240.328 119.381 235.033 125.001C227.621 133.781 214.209 137.644 203.267 134.835C191.972 132.025 182.796 122.191 180.678 110.249C178.913 102.874 181.384 94.0932 187.737 89.5275C194.443 85.3128 203.973 86.3664 209.62 91.6348C215.974 96.903 218.444 104.981 218.091 112.708C217.739 120.435 214.915 128.162 211.032 134.835C202.255 151.243 198.642 151.183 180.678 178.132" stroke="#ABB5CC" stroke-width="2" stroke-miterlimit="10" stroke-dasharray="4 4"/>
<path d="M267.512 12.084C266.17 16.979 260.804 18.7591 255.438 15.644C249.624 12.974 245.599 10.749 246.494 6.29889C247.835 1.84885 253.202 1.40383 259.462 0.958836C267.065 0.0688257 268.407 7.18891 267.512 12.084Z" fill="#DAE2EB"/>
<path d="M224.134 16.5356C226.37 20.5406 232.631 23.2106 237.103 19.2056C242.022 14.7555 246.047 11.6405 243.811 7.19047C241.575 3.1854 237.997 4.52043 230.395 5.41045C224.134 6.74544 221.451 12.0855 224.134 16.5356Z" fill="#DAE2EB"/>
<path d="M243.81 0.06815C246.94 -0.376856 250.071 1.40317 250.965 4.07321C251.413 4.96321 251.86 6.29823 251.86 7.18822C252.754 13.4183 250.518 18.7584 246.94 19.2034C242.915 20.0934 238.891 15.6433 238.443 9.85827C238.443 8.07825 238.443 7.18822 238.443 5.85323C238.891 2.73819 240.68 0.513156 243.81 0.06815Z" fill="#989FB0"/>
<path d="M154.167 216.228C157.425 216.228 160.066 213.587 160.066 210.329C160.066 207.071 157.425 204.43 154.167 204.43C150.909 204.43 148.268 207.071 148.268 210.329C148.268 213.587 150.909 216.228 154.167 216.228Z" fill="#989FB0"/>
<path d="M212.838 216.228C216.097 216.228 218.737 213.587 218.737 210.329C218.737 207.071 216.097 204.43 212.838 204.43C209.58 204.43 206.939 207.071 206.939 210.329C206.939 213.587 209.58 216.228 212.838 216.228Z" fill="#989FB0"/>
<path d="M193.068 254.987H174.574C171.704 254.987 169.312 252.596 169.312 249.726C169.312 246.856 171.704 244.465 174.574 244.465H192.909C195.779 244.465 198.17 246.856 198.17 249.726C198.33 252.596 195.938 254.987 193.068 254.987Z" fill="#989FB0"/>
<defs>
<filter id="filter0_d_3191_14426" x="44.7695" y="136.441" width="277.467" height="173.848" filterUnits="userSpaceOnUse" color-interpolation-filters="sRGB">
<feFlood flood-opacity="0" result="BackgroundImageFix"/>
<feColorMatrix in="SourceAlpha" type="matrix" values="0 0 0 0 0 0 0 0 0 0 0 0 0 0 0 0 0 0 127 0" result="hardAlpha"/>
<feOffset dy="11"/>
<feGaussianBlur stdDeviation="11"/>
<feColorMatrix type="matrix" values="0 0 0 0 0.397708 0 0 0 0 0.47749 0 0 0 0 0.575 0 0 0 0.27 0"/>
<feBlend mode="normal" in2="BackgroundImageFix" result="effect1_dropShadow_3191_14426"/>
<feBlend mode="normal" in="SourceGraphic" in2="effect1_dropShadow_3191_14426" result="shape"/>
</filter>
<linearGradient id="paint0_linear_3191_14426" x1="183.426" y1="144.438" x2="183.426" y2="278.687" gradientUnits="userSpaceOnUse">
<stop stop-color="#FDFEFF"/>
<stop offset="0.9964" stop-color="#ECF0F5"/>
</linearGradient>
</defs>
</svg>
