<svg width="356" height="323" viewBox="0 0 356 323" fill="none" xmlns="http://www.w3.org/2000/svg">
<path d="M111.828 280.973H314.634" stroke="#CDD6E1" stroke-width="2.38568" stroke-miterlimit="10" stroke-linecap="round" stroke-linejoin="round"/>
<path d="M334.439 280.973H354.524" stroke="#CDD6E1" stroke-width="2.38568" stroke-miterlimit="10" stroke-linecap="round" stroke-linejoin="round"/>
<path d="M116.272 265.559C122.451 265.559 127.459 260.551 127.459 254.373C127.459 248.196 122.451 243.188 116.272 243.188C110.094 243.188 105.086 248.196 105.086 254.373C105.086 260.551 110.094 265.559 116.272 265.559Z" fill="#B8BFCD"/>
<path d="M225.788 219.024C225.927 236.701 227.446 259.075 227.999 261.421C227.86 263.908 222.611 271.78 218.33 266.393C214.05 261.008 205.349 249.407 209.354 227.585C213.358 205.903 225.788 219.024 225.788 219.024Z" fill="#B8BFCD"/>
<path d="M114.754 265.428C114.754 265.566 114.754 265.842 114.892 265.981C114.892 266.118 115.03 266.394 115.03 266.533C115.168 266.67 115.168 266.946 115.306 267.085C115.444 267.222 115.582 267.361 115.72 267.637C116.411 268.605 117.654 269.433 119.035 270.262C119.311 270.401 119.725 270.538 120.001 270.677C120.139 270.814 120.416 270.814 120.554 270.953C120.692 271.09 120.968 271.09 121.106 271.229L121.659 271.366C122.349 271.642 123.178 271.918 124.007 272.057C124.421 272.194 124.697 272.194 125.111 272.333C125.388 272.333 125.664 272.471 126.078 272.471C126.354 272.471 126.63 272.61 126.907 272.61C129.116 272.886 131.188 272.747 132.983 272.057C139.198 269.709 141.684 264.876 141.684 264.876C141.684 264.876 143.341 265.29 145.965 265.566C150.937 266.257 159.223 267.222 166.404 266.533C168.752 266.257 171.238 265.705 173.862 265.013C174.69 264.737 175.519 264.461 176.486 264.185C178.143 263.633 179.662 262.942 181.319 262.252C185.739 260.317 189.883 257.693 193.335 254.793C193.749 254.517 194.164 254.104 194.577 253.828C196.512 252.032 198.168 250.099 199.412 248.164C201.897 243.883 205.212 240.294 208.802 236.841C214.189 231.73 220.542 227.31 226.342 222.616C228.136 221.234 229.932 219.716 231.589 218.335C236.976 213.639 241.809 208.115 245.124 201.762C248.714 194.857 248.714 188.366 248.162 180.769C248.162 180.356 247.333 175.384 247.61 175.247C250.095 173.588 251.89 171.241 252.858 168.341C255.067 162.54 254.238 155.083 251.614 150.249C251.338 149.697 251.062 149.144 250.786 148.73C248.025 143.896 244.709 138.234 240.981 134.505L234.213 127.738H175.382C175.382 127.738 174.69 131.743 173.723 136.715C173.586 137.129 173.586 137.544 173.447 137.958C173.31 138.787 173.171 139.615 172.895 140.444C172.757 140.858 172.757 141.272 172.619 141.687C172.619 141.825 172.619 141.825 172.481 141.963C172.343 142.93 172.067 143.758 171.929 144.725C171.376 147.487 170.686 149.973 169.857 152.044C169.857 152.183 169.719 152.459 169.719 152.597C169.305 153.702 168.89 154.669 168.476 155.359C165.162 160.745 148.313 176.212 136.574 184.913C124.835 193.614 119.449 208.391 116.411 232.282C112.958 256.037 114.201 260.87 114.754 265.428Z" fill="#EAEEF9"/>
<path d="M220.818 258.927C228.689 258.098 228.551 258.927 232.971 258.927C237.389 258.927 238.494 261.138 240.152 263.208C241.118 264.59 242.5 268.595 243.329 271.495C243.881 273.152 242.638 274.671 240.981 274.809C236.009 274.809 227.032 274.947 225.512 274.809C223.303 274.532 218.607 273.98 216.535 270.528C215.846 269.284 215.431 267.627 215.018 265.971C214.465 262.794 216.535 259.618 219.851 259.203L220.818 258.927Z" fill="#EAEEF9"/>
<path opacity="0.3" d="M114.753 265.428C115.168 269.985 126.492 274.265 132.707 271.917C139.06 269.569 141.407 264.736 141.407 264.736C141.407 264.736 155.08 267.498 166.128 266.532C174.414 265.704 185.6 260.869 192.92 254.655L191.953 233.662C191.953 233.662 191.124 215.295 190.296 207.286C189.606 199.274 195.959 199.413 195.683 189.056C195.268 178.698 199.412 160.33 204.797 143.481L186.015 129.395L173.171 136.714C171.928 143.619 169.857 152.32 168.061 155.496C164.747 160.882 147.898 176.35 136.159 185.051C124.421 193.75 119.034 208.527 115.996 232.42C112.958 256.036 114.201 260.869 114.753 265.428Z" fill="#BFC8D6"/>
<path opacity="0.4" d="M114.753 265.428C114.753 265.565 114.753 265.841 114.891 265.98C114.891 266.117 115.029 266.394 115.029 266.532C115.168 266.67 115.168 266.946 115.306 267.085C115.444 267.222 115.582 267.361 115.72 267.637C116.41 268.604 117.653 269.433 119.034 270.261C119.311 270.398 119.725 270.537 120.001 270.676C120.139 270.813 120.416 270.813 120.554 270.952C120.692 271.089 120.968 271.089 121.106 271.228L121.659 271.366C122.349 271.642 123.178 271.918 124.006 272.057C124.421 272.194 124.697 272.194 125.111 272.333C127.044 271.089 128.149 270.261 128.149 270.261C128.149 270.261 128.149 270.261 127.321 265.289C127.044 263.769 126.768 261.699 126.354 258.936C124.559 247.474 125.802 224.825 141.131 225.516C139.474 213.915 145.827 201.071 151.351 192.922C157.013 184.913 161.156 189.332 165.99 194.857C166.542 192.509 164.056 183.117 161.018 174.831C167.233 182.289 172.757 184.913 187.535 186.293C180.906 180.769 180.076 177.869 174.69 165.716C181.458 168.893 195.268 172.621 203.554 173.727C223.579 176.351 240.842 175.384 252.442 168.34C254.653 162.54 253.825 155.082 251.201 150.249C250.925 149.696 250.647 149.144 250.371 148.729C239.737 147.763 221.646 146.244 204.658 144.724C192.229 143.62 180.353 142.515 172.343 141.824C172.343 141.962 172.343 141.962 172.205 142.101C172.066 143.067 171.79 143.896 171.652 144.863C171.1 147.625 170.409 150.111 169.581 152.182C169.581 152.32 169.442 152.596 169.442 152.734C169.028 153.839 168.614 154.806 168.199 155.496C164.885 160.883 148.036 176.351 136.297 185.052C124.559 193.751 119.173 208.528 116.134 232.421C112.958 256.036 114.201 260.869 114.753 265.428Z" fill="#BFC8D6"/>
<path d="M194.163 273.575C194.163 273.575 193.059 256.863 192.92 254.654C192.783 253.134 183.806 260.315 175.518 244.986C167.233 229.656 165.99 226.895 166.266 223.027C163.78 242.501 171.514 255.621 173.033 262.663C174.553 269.707 175.934 269.431 175.934 269.431L189.882 272.192L194.163 273.575Z" fill="#B8BFCD"/>
<path d="M180.354 262.246C188.224 261.279 188.087 262.246 192.505 262.246C196.925 262.246 198.029 264.594 199.688 266.803C200.654 268.184 202.036 272.604 202.864 275.78C203.417 277.576 202.173 279.233 200.516 279.233C195.544 279.233 184.496 279.094 182.976 278.957C180.767 278.68 178.143 278.265 176.21 274.537C175.519 273.156 175.105 271.36 174.69 269.565C174.138 266.112 176.21 262.799 179.524 262.246H180.354Z" fill="#EAEEF9"/>
<path d="M144.446 264.601C148.036 266.81 150.108 272.058 151.213 275.786C151.765 277.582 150.522 279.239 148.865 279.239C143.893 279.239 132.845 279.1 131.326 278.963C122.625 277.858 121.659 268.329 128.288 264.601C132.431 262.114 140.303 261.976 144.446 264.601Z" fill="#EAEEF9"/>
<path d="M240.081 157.196C238.85 158.348 237.464 159.383 236.057 160.281C234.144 161.531 232.074 162.664 229.983 163.659C223.576 166.666 216.76 168.755 209.552 169.087C203.596 169.379 197.267 169.026 191.429 167.209C189.397 166.662 187.327 165.842 185.531 164.982C175.18 159.903 169.282 155.722 168.463 144.121C167.644 132.52 168.173 123.516 168.173 123.516C168.173 122.539 169.228 121.133 169.521 120.254C170.068 119.2 170.458 118.028 171.005 116.973C171.963 114.884 173.037 112.638 174.151 110.665C176.611 106.408 179.718 102.756 183.664 100.1C190.031 95.8433 197.747 94.1841 205.305 93.3844C210.792 92.7404 216.477 92.4872 221.983 93.9332C226.768 95.2034 230.87 97.5475 234.541 100.79C238.525 104.267 241.65 108.564 245.145 112.529C245.145 112.529 248.171 121.026 250.632 132.393C253.091 143.76 248.579 149.287 240.081 157.196Z" fill="#EAEEF9"/>
<path d="M194.127 139.199C192.68 140.8 191.333 146.014 183.384 144.08C172.095 141.227 171.199 127.126 176.453 121.911C185.848 112.479 197.176 114.629 200.301 124.785C203.52 135.625 197.037 136.132 194.127 139.199Z" fill="#BFC8D6"/>
<path d="M172.061 105.796C175.089 101.597 179.561 102.633 178.017 107.457C175.497 115.21 170.458 118.999 170.063 147.514C169.946 152.553 152.721 142.316 152 124.563C151.805 121.242 155.809 119.973 155.809 119.973C158.212 119.212 167.294 112.475 172.061 105.796Z" fill="#989FB0"/>
<path d="M234.671 152.523C235.159 155.941 234.671 159.359 233.421 162.328C231.761 163.402 229.944 164.358 228.128 165.315C222.503 167.932 216.487 169.767 210.393 170.079C205.275 170.39 199.631 169.94 194.534 168.436C192.191 165.701 190.765 162.557 190.239 158.865C188.638 147.655 197.33 137.207 209.636 135.45C221.803 133.713 233.072 141.312 234.671 152.523Z" fill="#BFC8D6"/>
<path d="M187.761 138.571C192.215 137.935 195.312 133.808 194.676 129.353C194.039 124.898 189.913 121.802 185.458 122.438C181.004 123.074 177.907 127.201 178.543 131.656C179.178 136.111 183.306 139.207 187.761 138.571Z" fill="white"/>
<path d="M193.972 130.296C194.46 133.714 191.998 136.995 188.58 137.483C185.162 137.971 181.882 135.51 181.394 132.092C182.019 132.56 182.76 132.873 183.58 132.756C185.084 132.541 186.277 131.116 186.043 129.475C185.827 127.971 184.421 126.916 182.898 126.994C183.854 125.881 185.28 125.119 186.784 124.905C190.339 124.398 193.463 126.742 193.972 130.296Z" fill="#989FB0"/>
<path d="M232.603 132.165C237.059 131.529 240.154 127.402 239.518 122.947C238.883 118.492 234.756 115.396 230.3 116.032C225.846 116.668 222.751 120.795 223.386 125.25C224.022 129.705 228.148 132.801 232.603 132.165Z" fill="white"/>
<path d="M224.323 125.954C224.811 129.372 228.093 131.833 231.511 131.345C234.929 130.857 237.389 127.576 236.901 124.158C236.432 124.783 235.807 125.291 234.988 125.408C233.484 125.623 231.941 124.587 231.707 122.947C231.492 121.443 232.546 120.037 234.031 119.685C232.801 118.884 231.219 118.552 229.715 118.767C226.297 119.255 223.816 122.399 224.323 125.954Z" fill="#989FB0"/>
<path d="M209.83 136.816C208.736 136.972 207.662 137.265 206.606 137.694C205.299 138.3 203.345 139.276 203.599 141.053C203.911 143.241 209.399 144.55 210.766 144.355C212.134 144.16 217.056 141.504 216.724 139.18C216.412 136.992 214.263 136.601 212.447 136.582C211.606 136.562 210.63 136.562 209.83 136.816Z" fill="#989FB0"/>
<path d="M211.254 143.871L210.747 143.246L210.434 143.988C210.434 143.988 210.707 148.832 209.828 150.492C210.648 151.351 211.332 151.254 211.586 151.078C212.016 151.156 212.699 151.059 213.109 150.024C212.094 148.774 211.254 143.871 211.254 143.871Z" fill="#989FB0"/>
<path d="M183.31 113.261C181.474 114.081 179.911 114.862 178.7 116.151C177.49 117.44 176.63 119.236 176.337 121.092C176.356 121.228 176.219 121.248 176.083 121.267C175.946 121.287 175.927 121.15 175.927 121.15C175.79 120.193 176.043 119.041 176.337 118.162C176.611 117.146 177.177 116.229 177.9 115.428C178.622 114.627 179.366 113.963 180.263 113.416C181.18 113.006 182.255 112.714 183.252 112.85C183.409 112.968 183.565 113.085 183.31 113.261C183.447 113.241 183.447 113.241 183.31 113.261Z" fill="#989FB0"/>
<path d="M229.657 106.646C231.649 106.92 233.369 107.233 234.892 108.131C236.415 109.03 237.743 110.514 238.544 112.213C238.563 112.35 238.7 112.331 238.836 112.311C238.973 112.292 238.954 112.155 238.954 112.155C238.816 111.198 238.25 110.163 237.722 109.401C237.177 108.503 236.376 107.78 235.458 107.213C234.539 106.647 233.641 106.217 232.625 105.943C231.63 105.807 230.517 105.826 229.598 106.236C229.482 106.392 229.501 106.529 229.657 106.646Z" fill="#989FB0"/>
<path d="M237.491 95.0658C233.409 91.8818 229.406 94.1273 232.236 98.3268C236.826 105.066 242.724 107.293 251.079 134.559C252.602 139.364 266.275 124.717 262.001 107.471C261.259 104.229 257.06 104.131 257.06 104.131C254.54 104.072 243.935 100.145 237.491 95.0658Z" fill="#989FB0"/>
<path d="M2.47461 284.076H77.8795C80.2273 284.076 80.6414 287.529 78.2936 287.942C57.0257 292.362 31.3384 294.157 46.1155 303.134C71.2504 318.325 110.472 326.058 157.151 317.358C199.136 309.624 199.688 195.827 201.621 164.615C202.036 159.091 206.593 154.672 212.117 154.672H215.707C221.507 154.672 226.34 159.367 226.34 165.168V183.95" stroke="#AAB2C2" stroke-width="3.1809" stroke-miterlimit="10" stroke-linecap="round" stroke-linejoin="round"/>
<path d="M226.955 157.391C228.54 164.112 223.07 167.389 215.677 169.133C208.284 170.877 201.926 170.39 200.34 163.669C198.755 156.949 203.4 150.177 210.793 148.433C218.186 146.689 225.369 150.671 226.955 157.391Z" fill="#989FB0"/>
<path d="M219.85 219.023C218.47 219.023 217.365 217.918 217.365 216.536V206.87C217.365 205.487 218.47 204.383 219.85 204.383C221.231 204.383 222.336 205.487 222.336 206.87V216.536C222.336 218.056 221.231 219.023 219.85 219.023Z" fill="#989FB0"/>
<path d="M232.693 219.021C231.313 219.021 230.208 217.917 230.208 216.536V206.868C230.208 205.487 231.313 204.383 232.693 204.383C234.076 204.383 235.18 205.487 235.18 206.868V216.536C235.18 218.056 234.076 219.021 232.693 219.021Z" fill="#989FB0"/>
<path d="M239.184 207.011H213.773V204.111C213.773 197.067 219.435 184.914 226.479 184.914C233.523 184.914 239.184 197.067 239.184 204.111V207.011Z" fill="#989FB0"/>
<path d="M346.492 211.836H294.151C291.942 211.836 290.283 210.04 290.283 207.969V152.175C290.283 149.966 292.079 148.309 294.151 148.309H346.492C348.701 148.309 350.36 150.104 350.36 152.175V207.969C350.497 210.04 348.701 211.836 346.492 211.836Z" fill="#EAEEF9"/>
<path d="M340.002 178.969C340.002 185.459 336.826 191.399 331.991 194.99H308.376C303.543 191.399 300.366 185.598 300.366 178.969C300.366 172.478 303.543 166.54 308.376 162.949H331.991C336.826 166.678 340.002 172.478 340.002 178.969Z" fill="#CCD3DE"/>
<path d="M312.795 180.076C311.827 180.076 310.999 179.248 310.999 178.28V172.342C310.999 171.376 311.827 170.547 312.795 170.547C313.76 170.547 314.589 171.376 314.589 172.342V178.28C314.589 179.248 313.76 180.076 312.795 180.076Z" fill="#989FB0"/>
<path d="M327.294 180.076C326.328 180.076 325.5 179.248 325.5 178.28V172.342C325.5 171.376 326.328 170.547 327.294 170.547C328.261 170.547 329.09 171.376 329.09 172.342V178.28C329.09 179.248 328.261 180.076 327.294 180.076Z" fill="#989FB0"/>
<path d="M321.772 188.643H318.18C317.352 188.643 316.523 187.954 316.523 186.986V185.191C316.523 183.258 318.041 181.738 319.976 181.738C321.909 181.738 323.428 183.258 323.428 185.191V186.986C323.428 187.815 322.737 188.643 321.772 188.643Z" fill="#989FB0"/>
<path d="M296.636 156.735C297.934 156.735 298.984 155.683 298.984 154.387C298.984 153.09 297.934 152.039 296.636 152.039C295.341 152.039 294.29 153.09 294.29 154.387C294.29 155.683 295.341 156.735 296.636 156.735Z" fill="#D2DAE7"/>
<path d="M344.283 156.735C345.578 156.735 346.631 155.683 346.631 154.387C346.631 153.09 345.578 152.039 344.283 152.039C342.985 152.039 341.935 153.09 341.935 154.387C341.935 155.683 342.985 156.735 344.283 156.735Z" fill="#D2DAE7"/>
<path d="M296.636 208.251C297.934 208.251 298.984 207.198 298.984 205.903C298.984 204.605 297.934 203.555 296.636 203.555C295.341 203.555 294.29 204.605 294.29 205.903C294.29 207.198 295.341 208.251 296.636 208.251Z" fill="#D2DAE7"/>
<path d="M344.283 208.251C345.578 208.251 346.631 207.198 346.631 205.903C346.631 204.605 345.578 203.555 344.283 203.555C342.985 203.555 341.935 204.605 341.935 205.903C341.935 207.198 342.985 208.251 344.283 208.251Z" fill="#D2DAE7"/>
<path d="M186.996 0L195.464 3.09354L197.659 58.4571L193.059 56.5369L186.996 0Z" fill="#B8BFCD"/>
<path d="M193.478 62.832L197.659 64.8589V70.2992L193.478 68.5924V62.832Z" fill="#B8BFCD"/>
<path d="M204.768 27.8398L213.236 30.6135V66.2424L208.531 64.3222L204.768 27.8398Z" fill="#B8BFCD"/>
<path d="M208.949 70.3086L213.235 72.2287V77.349L208.949 75.7489V70.3086Z" fill="#B8BFCD"/>
</svg>
