<svg width="40" height="40" viewBox="0 0 40 40" fill="none" xmlns="http://www.w3.org/2000/svg">
<path d="M6.10059 35.3537V4.64633C6.10059 3.1848 7.28538 2 8.74691 2H25.6767C26.1512 2 26.6057 2.19115 26.9376 2.5303L35.2967 11.0723C35.6194 11.402 35.8 11.8449 35.8 12.3062V35.3537C35.8 36.8152 34.6152 38 33.1537 38H8.74691C7.28539 38 6.10059 36.8152 6.10059 35.3537Z" fill="#F3C178"/>
<path d="M6.10059 35.3537V4.64633C6.10059 3.1848 7.28538 2 8.74691 2H25.6767C26.1512 2 26.6057 2.19115 26.9376 2.5303L35.2967 11.0723C35.6194 11.402 35.8 11.8449 35.8 12.3062V35.3537C35.8 36.8152 34.6152 38 33.1537 38H8.74691C7.28539 38 6.10059 36.8152 6.10059 35.3537Z" fill="#F3C178"/>
<path d="M26.1172 2.05664C26.4263 2.13628 26.7108 2.29907 26.9379 2.53115L35.297 11.0732C35.522 11.303 35.6779 11.588 35.7517 11.8958H28.7635C27.302 11.8958 26.1172 10.711 26.1172 9.24945V2.05664Z" fill="#FAEAD1"/>
<rect x="4.2002" y="19.9043" width="25.3072" height="12.4643" rx="1.76422" fill="#F0AC49"/>
<path d="M10.1621 28.9993H8.09961V23.1811H10.1792C10.7644 23.1811 11.2682 23.2976 11.6905 23.5305C12.1129 23.7616 12.4377 24.094 12.665 24.5277C12.8941 24.9614 13.0087 25.4804 13.0087 26.0845C13.0087 26.6906 12.8941 27.2114 12.665 27.647C12.4377 28.0826 12.111 28.4169 11.6848 28.6499C11.2606 28.8828 10.753 28.9993 10.1621 28.9993ZM9.32972 27.9453H10.111C10.4746 27.9453 10.7805 27.8809 11.0286 27.7521C11.2786 27.6214 11.4661 27.4197 11.5911 27.147C11.718 26.8724 11.7814 26.5182 11.7814 26.0845C11.7814 25.6546 11.718 25.3033 11.5911 25.0305C11.4661 24.7578 11.2795 24.5571 11.0314 24.4283C10.7833 24.2995 10.4775 24.2351 10.1138 24.2351H9.32972V27.9453Z" fill="white"/>
<path d="M19.3465 26.0902C19.3465 26.7247 19.2262 27.2644 18.9857 27.7095C18.7471 28.1546 18.4213 28.4946 18.0084 28.7294C17.5975 28.9624 17.1353 29.0788 16.6221 29.0788C16.105 29.0788 15.641 28.9614 15.23 28.7266C14.8191 28.4917 14.4942 28.1518 14.2556 27.7067C14.017 27.2616 13.8976 26.7228 13.8976 26.0902C13.8976 25.4557 14.017 24.916 14.2556 24.4709C14.4942 24.0258 14.8191 23.6868 15.23 23.4538C15.641 23.219 16.105 23.1016 16.6221 23.1016C17.1353 23.1016 17.5975 23.219 18.0084 23.4538C18.4213 23.6868 18.7471 24.0258 18.9857 24.4709C19.2262 24.916 19.3465 25.4557 19.3465 26.0902ZM18.0994 26.0902C18.0994 25.6792 18.0378 25.3326 17.9147 25.0504C17.7935 24.7682 17.6221 24.5542 17.4005 24.4084C17.1789 24.2625 16.9194 24.1896 16.6221 24.1896C16.3247 24.1896 16.0653 24.2625 15.8437 24.4084C15.6221 24.5542 15.4497 24.7682 15.3266 25.0504C15.2054 25.3326 15.1448 25.6792 15.1448 26.0902C15.1448 26.5012 15.2054 26.8478 15.3266 27.13C15.4497 27.4122 15.6221 27.6262 15.8437 27.772C16.0653 27.9179 16.3247 27.9908 16.6221 27.9908C16.9194 27.9908 17.1789 27.9179 17.4005 27.772C17.6221 27.6262 17.7935 27.4122 17.9147 27.13C18.0378 26.8478 18.0994 26.5012 18.0994 26.0902Z" fill="white"/>
<path d="M25.4713 25.218H24.2269C24.2042 25.0571 24.1578 24.9141 24.0877 24.7891C24.0177 24.6622 23.9277 24.5542 23.8178 24.4652C23.708 24.3762 23.5811 24.308 23.4372 24.2607C23.2951 24.2133 23.1408 24.1896 22.9741 24.1896C22.673 24.1896 22.4107 24.2644 22.1872 24.4141C21.9637 24.5618 21.7904 24.7777 21.6673 25.0618C21.5442 25.344 21.4826 25.6868 21.4826 26.0902C21.4826 26.505 21.5442 26.8535 21.6673 27.1357C21.7923 27.4179 21.9665 27.6309 22.19 27.7749C22.4135 27.9188 22.672 27.9908 22.9656 27.9908C23.1303 27.9908 23.2828 27.969 23.423 27.9254C23.565 27.8819 23.691 27.8184 23.8008 27.7351C23.9107 27.6499 24.0016 27.5466 24.0735 27.4254C24.1474 27.3042 24.1985 27.166 24.2269 27.0107L25.4713 27.0163C25.4391 27.2834 25.3586 27.541 25.2298 27.7891C25.1029 28.0353 24.9315 28.2559 24.7156 28.451C24.5016 28.6442 24.2459 28.7976 23.9485 28.9112C23.6531 29.023 23.3188 29.0788 22.9457 29.0788C22.4268 29.0788 21.9627 28.9614 21.5536 28.7266C21.1464 28.4917 20.8245 28.1518 20.5877 27.7067C20.3529 27.2616 20.2355 26.7228 20.2355 26.0902C20.2355 25.4557 20.3548 24.916 20.5934 24.4709C20.8321 24.0258 21.1559 23.6868 21.565 23.4538C21.9741 23.219 22.4343 23.1016 22.9457 23.1016C23.2828 23.1016 23.5953 23.1489 23.8832 23.2436C24.173 23.3383 24.4296 23.4766 24.6531 23.6584C24.8766 23.8383 25.0584 24.0589 25.1985 24.3203C25.3406 24.5817 25.4315 24.8809 25.4713 25.218Z" fill="white"/>
<path d="M11.9561 15.3379H29.9445" stroke="white" stroke-width="1.32316" stroke-linecap="round"/>
<path d="M11.9561 10.1211H23.2894" stroke="white" stroke-width="1.32316" stroke-linecap="round"/>
</svg>
