<svg width="22" height="24" viewBox="0 0 22 24" fill="none" xmlns="http://www.w3.org/2000/svg">
<path d="M4.52637 15.1396C8.31355 12.8847 13.1132 12.8846 16.9004 15.1396C17.0243 15.2134 17.1773 15.2997 17.3506 15.3975C18.1102 15.826 19.2583 16.4742 20.0449 17.2441C20.5368 17.7257 21.0049 18.3603 21.0898 19.1377C21.1801 19.9643 20.8192 20.7404 20.0957 21.4297C18.8474 22.6189 17.3487 23.5713 15.4111 23.5713H6.01465C4.07728 23.5712 2.57926 22.6188 1.33105 21.4297C0.607592 20.7404 0.246684 19.9643 0.336914 19.1377C0.421891 18.3603 0.88988 17.7257 1.38184 17.2441C2.16843 16.4742 3.31662 15.826 4.07617 15.3975C4.24936 15.2998 4.40251 15.2134 4.52637 15.1396ZM16.082 16.5127C12.7988 14.558 8.6269 14.5578 5.34375 16.5127C5.16483 16.6192 4.96903 16.7312 4.76367 16.8477C4.00434 17.2784 3.11714 17.7807 2.49902 18.3857C2.11531 18.7613 1.95195 19.0721 1.92578 19.3115C1.90514 19.5016 1.95382 19.8154 2.43359 20.2725C3.53725 21.3239 4.65892 21.9736 6.01465 21.9736H15.4111C16.767 21.9736 17.8894 21.324 18.9932 20.2725C19.473 19.8153 19.5207 19.5016 19.5 19.3115C19.4738 19.0721 19.3105 18.7614 18.9268 18.3857C18.3087 17.7809 17.4222 17.2783 16.6631 16.8477C16.4577 16.7312 16.2609 16.6192 16.082 16.5127ZM10.7129 0.661133C13.8026 0.661133 16.3076 3.16615 16.3076 6.25586C16.3074 9.34542 13.8025 11.8496 10.7129 11.8496C7.62335 11.8495 5.11834 9.34537 5.11816 6.25586C5.11816 3.16619 7.62324 0.661209 10.7129 0.661133ZM10.7129 2.25977C8.50602 2.25984 6.7168 4.04897 6.7168 6.25586C6.71698 8.4626 8.50613 10.2519 10.7129 10.252C12.9197 10.252 14.7088 8.46265 14.709 6.25586C14.709 4.04892 12.9198 2.25977 10.7129 2.25977Z" fill="#4A4A4A"/>
</svg>
