<svg width="22" height="24" viewBox="0 0 22 24" fill="none" xmlns="http://www.w3.org/2000/svg">
<path d="M4.63667 15.2817C8.42386 13.0268 13.2235 13.0267 17.0107 15.2817C17.1346 15.3555 17.2876 15.4418 17.4609 15.5396C18.2205 15.9681 19.3686 16.6163 20.1552 17.3862C20.6471 17.8678 21.1152 18.5024 21.2001 19.2798C21.2904 20.1064 20.9295 20.8825 20.206 21.5718C18.9577 22.761 17.459 23.7134 15.5214 23.7134H6.12495C4.18758 23.7133 2.68957 22.7609 1.44136 21.5718C0.717897 20.8825 0.356989 20.1064 0.447219 19.2798C0.532196 18.5024 1.00018 17.8678 1.49214 17.3862C2.27873 16.6163 3.42692 15.9681 4.18648 15.5396C4.35967 15.4418 4.51281 15.3555 4.63667 15.2817ZM16.1923 16.6548C12.9091 14.7001 8.7372 14.6999 5.45405 16.6548C5.27514 16.7613 5.07933 16.8732 4.87398 16.9897C4.11465 17.4205 3.22744 17.9228 2.60933 18.5278C2.22561 18.9034 2.06225 19.2142 2.03609 19.4536C2.01545 19.6437 2.06413 19.9575 2.5439 20.4146C3.64756 21.4659 4.76923 22.1157 6.12495 22.1157H15.5214C16.8773 22.1157 17.9997 21.4661 19.1035 20.4146C19.5833 19.9574 19.631 19.6437 19.6103 19.4536C19.5841 19.2142 19.4208 18.9035 19.0371 18.5278C18.419 17.923 17.5325 17.4204 16.7734 16.9897C16.568 16.8732 16.3713 16.7613 16.1923 16.6548ZM10.8232 0.803223C13.9129 0.803223 16.4179 3.30823 16.4179 6.39795C16.4177 9.48751 13.9128 11.9917 10.8232 11.9917C7.73366 11.9916 5.22865 9.48746 5.22847 6.39795C5.22847 3.30828 7.73355 0.803299 10.8232 0.803223ZM10.8232 2.40186C8.61632 2.40193 6.8271 4.19106 6.8271 6.39795C6.82728 8.60469 8.61643 10.394 10.8232 10.394C13.03 10.394 14.8191 8.60474 14.8193 6.39795C14.8193 4.19101 13.0301 2.40186 10.8232 2.40186Z" fill="#FCF4E9"/>
</svg>
