<svg width="60" height="60" viewBox="0 0 60 60" fill="none" xmlns="http://www.w3.org/2000/svg">
<rect width="60" height="60" rx="30" fill="url(#paint0_radial_3748_5649)"/>
<rect x="0.5" y="0.5" width="59" height="59" rx="29.5" stroke="#F3F3F1"/>
<path d="M34.4649 18H26.5349C25.1354 18.0016 24.0014 19.1436 24 20.5528V39.4474C24.0014 40.8566 25.1355 41.9986 26.5349 42H34.4649C35.8644 41.9986 36.9984 40.8566 37 39.4474V20.5528C36.9984 19.1436 35.8644 18.0016 34.4649 18ZM30.5 39.8183C29.9015 39.8183 29.4165 39.33 29.4165 38.7273C29.4165 38.1248 29.9015 37.6364 30.5 37.6364C31.0983 37.6364 31.5833 38.1248 31.5833 38.7273C31.5833 39.3299 31.0983 39.8183 30.5 39.8183ZM32.125 21.2727H28.875C28.5759 21.2727 28.3333 21.0285 28.3333 20.7272C28.3333 20.426 28.5758 20.1819 28.875 20.1819H32.125C32.4241 20.1819 32.6665 20.426 32.6665 20.7272C32.6665 21.0285 32.4242 21.2727 32.125 21.2727Z" fill="#EDA133"/>
<defs>
<radialGradient id="paint0_radial_3748_5649" cx="0" cy="0" r="1" gradientUnits="userSpaceOnUse" gradientTransform="translate(30 30) scale(39.6 20.4)">
<stop stop-color="#F0ECE7"/>
<stop offset="1" stop-color="white"/>
</radialGradient>
</defs>
</svg>
