<svg width="31" height="35" viewBox="0 0 31 35" fill="none" xmlns="http://www.w3.org/2000/svg">
<path d="M14.4779 16.8496L0.576172 31.9376C0.577478 31.9403 0.577477 31.9443 0.578783 31.947C1.00575 33.5853 2.46813 34.791 4.2047 34.791C4.89933 34.791 5.55087 34.5987 6.10971 34.2623L6.1541 34.2356L21.8016 25.0025L14.4779 16.8496Z" fill="#EA4335"/>
<path d="M28.5417 14.2775L28.5287 14.2682L21.773 10.2639L14.1621 17.1897L21.8004 24.998L28.5195 21.0338C29.6973 20.3822 30.4977 19.1124 30.4977 17.649C30.4977 16.1936 29.709 14.9305 28.5417 14.2775Z" fill="#FBBC04"/>
<path d="M0.575224 3.30487C0.491659 3.61999 0.447266 3.95112 0.447266 4.29294V30.9547C0.447266 31.2965 0.491659 31.6276 0.576529 31.9414L14.9548 17.2393L0.575224 3.30487Z" fill="#4285F4"/>
<path d="M14.5791 17.6211L21.7735 10.2653L6.14432 0.998898C5.57634 0.650404 4.91304 0.450123 4.20405 0.450123C2.46748 0.450123 1.00249 1.6585 0.575524 3.29815C0.575524 3.29949 0.574219 3.30082 0.574219 3.30216L14.5791 17.6211Z" fill="#34A853"/>
</svg>
