<svg width="31" height="41" viewBox="0 0 31 41" fill="none" xmlns="http://www.w3.org/2000/svg">
<path d="M29.9998 8.18961V36.2324C29.9998 38.4416 28.209 40.2324 25.9998 40.2324H4C1.79086 40.2324 0 38.4416 0 36.2324V4.23242C0 2.02328 1.79086 0.232422 4 0.232422H21.3367L29.9998 8.18961Z" fill="#F97066"/>
<g filter="url(#filter0_d_5718_19129)">
<path d="M29.9998 8.18961H22.3367C21.7844 8.18961 21.3367 7.7419 21.3367 7.18961V0.232422L29.9998 8.18961Z" fill="#FECDCA"/>
</g>
<path d="M12.0981 25.9484C12.0981 26.3144 12.0141 26.6504 11.8461 26.9564C11.6781 27.2564 11.4201 27.4994 11.0721 27.6854C10.7241 27.8714 10.2921 27.9644 9.7761 27.9644H8.8221V30.2324H7.2831V23.9144H9.7761C10.2801 23.9144 10.7061 24.0014 11.0541 24.1754C11.4021 24.3494 11.6631 24.5894 11.8371 24.8954C12.0111 25.2014 12.0981 25.5524 12.0981 25.9484ZM9.6591 26.7404C9.9531 26.7404 10.1721 26.6714 10.3161 26.5334C10.4601 26.3954 10.5321 26.2004 10.5321 25.9484C10.5321 25.6964 10.4601 25.5014 10.3161 25.3634C10.1721 25.2254 9.9531 25.1564 9.6591 25.1564H8.8221V26.7404H9.6591ZM17.7143 25.9484C17.7143 26.3144 17.6303 26.6504 17.4623 26.9564C17.2943 27.2564 17.0363 27.4994 16.6883 27.6854C16.3403 27.8714 15.9083 27.9644 15.3923 27.9644H14.4383V30.2324H12.8993V23.9144H15.3923C15.8963 23.9144 16.3223 24.0014 16.6703 24.1754C17.0183 24.3494 17.2793 24.5894 17.4533 24.8954C17.6273 25.2014 17.7143 25.5524 17.7143 25.9484ZM15.2753 26.7404C15.5693 26.7404 15.7883 26.6714 15.9323 26.5334C16.0763 26.3954 16.1483 26.2004 16.1483 25.9484C16.1483 25.6964 16.0763 25.5014 15.9323 25.3634C15.7883 25.2254 15.5693 25.1564 15.2753 25.1564H14.4383V26.7404H15.2753ZM23.0605 23.9144V25.1474H21.3865V30.2324H19.8475V25.1474H18.1735V23.9144H23.0605Z" fill="white"/>
<defs>
<filter id="filter0_d_5718_19129" x="18.3367" y="-0.767578" width="12.6631" height="11.957" filterUnits="userSpaceOnUse" color-interpolation-filters="sRGB">
<feFlood flood-opacity="0" result="BackgroundImageFix"/>
<feColorMatrix in="SourceAlpha" type="matrix" values="0 0 0 0 0 0 0 0 0 0 0 0 0 0 0 0 0 0 127 0" result="hardAlpha"/>
<feOffset dx="-1" dy="1"/>
<feGaussianBlur stdDeviation="1"/>
<feComposite in2="hardAlpha" operator="out"/>
<feColorMatrix type="matrix" values="0 0 0 0 0 0 0 0 0 0 0 0 0 0 0 0 0 0 0.2 0"/>
<feBlend mode="normal" in2="BackgroundImageFix" result="effect1_dropShadow_5718_19129"/>
<feBlend mode="normal" in="SourceGraphic" in2="effect1_dropShadow_5718_19129" result="shape"/>
</filter>
</defs>
</svg>
