<svg width="414" height="1123" viewBox="0 0 414 1123" fill="none" xmlns="http://www.w3.org/2000/svg">
<g opacity="0.67">
<g opacity="0.3">
<path d="M369.632 498.714L278.401 505.041C278.21 504.042 277.624 503.13 276.663 502.579C274.938 501.589 272.723 502.179 271.727 503.894C270.731 505.609 271.325 507.811 273.05 508.801C274.774 509.791 276.99 509.201 277.986 507.487C278.218 507.086 278.356 506.659 278.425 506.233L369.082 499.946L378.126 511.119L500.079 496.331L499.936 495.154L378.641 509.854L369.616 498.719L369.632 498.714ZM273.759 507.58C272.706 506.975 272.343 505.631 272.952 504.583C273.56 503.536 274.912 503.176 275.966 503.78C277.019 504.385 277.381 505.729 276.773 506.777C276.165 507.824 274.813 508.184 273.759 507.58Z" fill="#F99F1B"/>
<path d="M330.385 567.309C328.702 566.343 326.535 566.92 325.563 568.594C324.591 570.268 325.172 572.422 326.855 573.388C328.539 574.354 330.705 573.777 331.677 572.103C332.649 570.43 332.069 568.276 330.385 567.309ZM327.243 572.721C325.921 571.962 325.477 570.283 326.234 568.979C326.992 567.675 328.686 567.224 329.998 567.977C331.309 568.73 331.763 570.414 331.006 571.718C330.249 573.022 328.554 573.473 327.243 572.721Z" fill="#F99F1B"/>
<path d="M332.211 570.058L395.901 561.641L413.439 531.444L469.9 526.749L469.8 525.57L412.716 530.317L395.161 560.545L332.058 568.875L332.211 570.058Z" fill="#F99F1B"/>
<path d="M389.126 534.891C390.851 535.881 393.067 535.291 394.063 533.576C395.058 531.861 394.465 529.659 392.74 528.669C391.015 527.679 388.799 528.269 387.804 529.984C387.446 530.6 387.304 531.271 387.333 531.931C381.178 532.998 328.542 540.093 300.166 543.876L283.977 529.615L246.545 530.021C246.372 528.991 245.783 528.037 244.802 527.474C243.077 526.484 240.862 527.074 239.866 528.789C238.87 530.504 239.464 532.706 241.188 533.696C242.913 534.686 245.129 534.096 246.125 532.381C246.339 532.012 246.476 531.611 246.543 531.211L283.531 530.81L299.786 545.123L300.055 545.086C303.417 544.634 379.593 534.471 387.59 533.078C387.877 533.818 388.399 534.46 389.132 534.881L389.126 534.891ZM241.902 532.491C240.849 531.886 240.487 530.542 241.095 529.494C241.703 528.447 243.055 528.087 244.109 528.692C245.162 529.296 245.525 530.64 244.916 531.688C244.308 532.735 242.956 533.095 241.902 532.491ZM392.036 529.88C393.09 530.485 393.452 531.829 392.844 532.876C392.236 533.924 390.883 534.284 389.83 533.679C388.776 533.075 388.414 531.73 389.022 530.683C389.631 529.636 390.983 529.276 392.036 529.88Z" fill="#F99F1B"/>
<path d="M386.682 471.043C386.792 470.901 386.919 470.754 387.014 470.59C388.01 468.875 387.416 466.673 385.691 465.683C383.966 464.693 381.751 465.283 380.755 466.998C379.759 468.712 380.353 470.915 382.078 471.905C383.265 472.587 384.692 472.502 385.785 471.829L397.139 482.179L461.934 474.423L461.901 474.172C462.233 475.047 462.843 475.821 463.721 476.325C465.756 477.493 468.362 476.799 469.537 474.776C470.712 472.753 470.019 470.152 467.985 468.984C465.95 467.816 463.333 468.504 462.152 470.538C461.651 471.4 461.508 472.358 461.65 473.275L397.534 480.954L386.676 471.053L386.682 471.043ZM382.771 470.688C381.717 470.083 381.355 468.739 381.963 467.691C382.572 466.644 383.924 466.284 384.977 466.889C386.031 467.493 386.393 468.837 385.785 469.885C385.177 470.932 383.824 471.292 382.771 470.688ZM467.448 469.908C468.966 470.779 469.49 472.723 468.613 474.232C467.737 475.742 465.782 476.262 464.264 475.391C462.745 474.52 462.221 472.576 463.098 471.067C463.975 469.557 465.93 469.037 467.448 469.908Z" fill="#F99F1B"/>
<path d="M274.093 460.934C273.308 460.483 272.396 460.37 271.522 460.594C270.643 460.829 269.92 461.386 269.467 462.166C269.013 462.946 268.9 463.853 269.125 464.722C269.592 466.455 271.524 467.563 273.267 467.099C274.147 466.865 274.87 466.308 275.323 465.527C275.776 464.747 275.89 463.84 275.664 462.971C275.428 462.097 274.868 461.378 274.083 460.928L274.093 460.934ZM273.055 466.279C272.387 466.457 271.693 466.346 271.136 466.026C270.578 465.706 270.135 465.165 269.956 464.501C269.594 463.156 270.393 461.78 271.745 461.42C273.097 461.06 274.481 461.854 274.844 463.199C275.206 464.543 274.407 465.919 273.055 466.279Z" fill="#F99F1B"/>
<path d="M366.844 372.701C368.517 373.661 370.668 373.089 371.634 371.425C371.849 371.055 371.985 370.655 372.042 370.249L405.792 367.976L425.379 384.188L425.626 384.166C426.921 384.046 457.361 381.119 460.05 380.403L460.278 380.343L472.76 360.51L520.885 356.083C521.197 357.562 522.098 358.928 523.523 359.746C526.177 361.269 529.582 360.363 531.115 357.724C532.647 355.085 531.735 351.7 529.08 350.176C526.426 348.653 523.021 349.56 521.489 352.199C520.994 353.051 520.782 353.984 520.769 354.907L472.064 359.384L459.518 379.304C456.504 379.916 436.453 381.933 425.763 382.957L406.197 366.758L372.034 369.053C371.857 368.076 371.276 367.181 370.356 366.653C368.683 365.693 366.533 366.266 365.567 367.929C364.601 369.593 365.177 371.73 366.85 372.691L366.844 372.701ZM528.375 351.414C530.358 352.553 531.039 355.079 529.894 357.051C528.749 359.022 526.208 359.699 524.225 358.561C522.242 357.423 521.561 354.896 522.706 352.925C523.851 350.953 526.392 350.276 528.375 351.414ZM369.754 367.69C370.859 368.325 371.239 369.734 370.601 370.832C369.963 371.931 368.546 372.309 367.441 371.674C366.335 371.04 365.956 369.631 366.594 368.532C367.232 367.434 368.649 367.056 369.754 367.69Z" fill="#F99F1B"/>
<path d="M378.406 600.586C376.464 599.471 373.988 600.131 372.867 602.061C371.746 603.992 372.41 606.453 374.351 607.568C376.293 608.682 378.769 608.023 379.89 606.092C381.011 604.162 380.348 601.7 378.406 600.586Z" fill="#F99F1B"/>
<path d="M240.72 431.705L249.772 416.119L368.476 408.844L380.271 419.598L444.684 411.883C445.15 412.835 445.896 413.661 446.877 414.224C449.532 415.747 452.936 414.84 454.469 412.202C456.001 409.563 455.089 406.178 452.435 404.654C449.78 403.131 446.375 404.038 444.843 406.677C444.104 407.95 443.946 409.406 444.271 410.743L380.672 418.363L368.912 407.643L249.377 414.975L249.06 414.998L239.692 431.129C237.426 430.17 234.725 431.002 233.461 433.179C232.095 435.531 232.901 438.553 235.277 439.917C237.652 441.28 240.683 440.473 242.054 438.111C243.318 435.935 242.703 433.2 240.725 431.722L240.72 431.705ZM451.725 405.876C453.708 407.014 454.389 409.541 453.244 411.512C452.099 413.484 449.558 414.161 447.575 413.023C445.592 411.884 444.911 409.358 446.056 407.386C447.201 405.415 449.742 404.738 451.725 405.876ZM235.976 438.689C234.282 437.717 233.697 435.546 234.675 433.863C235.653 432.179 237.836 431.597 239.53 432.569C241.224 433.542 241.815 435.702 240.831 437.396C239.847 439.09 237.67 439.661 235.976 438.689Z" fill="#F99F1B"/>
<path d="M397.738 451.527C397.738 451.527 397.732 451.538 397.726 451.548C396.73 453.263 397.324 455.465 399.049 456.455C400.774 457.445 402.989 456.855 403.985 455.14C404.981 453.426 404.387 451.223 402.663 450.233C401.299 449.451 399.646 449.665 398.508 450.628L384.546 439.931L282.714 447.936L273.599 460.597L274.572 461.293L283.366 449.09L384.189 441.163L397.743 451.544L397.738 451.527ZM401.965 451.434C403.018 452.039 403.381 453.383 402.772 454.431C402.164 455.478 400.812 455.838 399.759 455.233C398.705 454.629 398.343 453.284 398.951 452.237C399.559 451.19 400.911 450.83 401.965 451.434Z" fill="#F99F1B"/>
<path d="M354.368 477.155C356.31 478.269 358.786 477.61 359.907 475.679C361.028 473.749 360.364 471.287 358.423 470.173C356.481 469.058 354.005 469.718 352.884 471.648C352.633 472.079 352.488 472.543 352.406 473.017L308.348 477.054C308.108 476.423 307.667 475.855 307.037 475.494C305.571 474.652 303.697 475.151 302.85 476.609C302.004 478.067 302.506 479.93 303.972 480.771C305.439 481.613 307.312 481.114 308.159 479.656C308.421 479.204 308.542 478.712 308.55 478.224L352.393 474.2C352.556 475.389 353.232 476.503 354.368 477.155ZM304.676 479.56C303.881 479.103 303.61 478.099 304.069 477.309C304.528 476.518 305.538 476.249 306.334 476.705C307.129 477.162 307.399 478.166 306.94 478.957C306.481 479.747 305.471 480.016 304.676 479.56Z" fill="#F99F1B"/>
<path d="M119.592 429.693C121.533 430.808 124.01 430.148 125.131 428.218C125.423 427.715 125.584 427.177 125.648 426.639L150.673 424.643L156.217 413.176L182.969 410.719C183.132 411.908 183.808 413.022 184.944 413.674C186.885 414.788 189.362 414.128 190.483 412.198C191.604 410.268 190.94 407.806 188.999 406.692C187.057 405.577 184.581 406.237 183.459 408.167C183.209 408.598 183.063 409.062 182.981 409.536L155.435 412.056L149.891 423.523L125.585 425.467C125.374 424.36 124.715 423.338 123.651 422.727C121.709 421.613 119.233 422.273 118.112 424.203C116.991 426.133 117.654 428.595 119.596 429.709L119.592 429.693Z" fill="#F99F1B"/>
<path d="M250.513 489.215L246.555 489.75L247.061 493.45L251.019 492.915L250.513 489.215Z" fill="#F99F1B"/>
<path d="M238.599 490.84L234.641 491.375L235.146 495.075L239.105 494.54L238.599 490.84Z" fill="#F99F1B"/>
<path d="M226.732 492.434L222.773 492.969L223.279 496.669L227.237 496.134L226.732 492.434Z" fill="#F99F1B"/>
<path d="M214.845 494.02L210.887 494.555L211.393 498.255L215.351 497.72L214.845 494.02Z" fill="#F99F1B"/>
<path d="M202.95 495.637L198.992 496.172L199.498 499.872L203.456 499.337L202.95 495.637Z" fill="#F99F1B"/>
<path d="M191.044 497.254L187.086 497.789L187.592 501.489L191.55 500.954L191.044 497.254Z" fill="#F99F1B"/>
<path d="M405.7 578.309L401.742 578.844L402.248 582.544L406.206 582.009L405.7 578.309Z" fill="#F99F1B"/>
<path d="M393.829 579.903L389.871 580.438L390.377 584.138L394.335 583.603L393.829 579.903Z" fill="#F99F1B"/>
<path d="M381.919 581.512L377.961 582.047L378.467 585.747L382.425 585.212L381.919 581.512Z" fill="#F99F1B"/>
<path d="M370.036 583.114L366.078 583.648L366.584 587.348L370.542 586.814L370.036 583.114Z" fill="#F99F1B"/>
<path d="M358.161 584.715L354.203 585.25L354.709 588.95L358.667 588.415L358.161 584.715Z" fill="#F99F1B"/>
<path d="M346.249 586.34L342.291 586.875L342.797 590.575L346.755 590.04L346.249 586.34Z" fill="#F99F1B"/>
<path d="M214.225 435.666L179.486 440.754L184.604 475.288L219.342 470.201L214.225 435.666ZM181.291 442.104L212.887 437.472L217.546 468.883L185.95 473.515L181.291 442.104Z" fill="#F99F1B"/>
<path d="M208.645 443.142L187.001 446.312L190.19 467.829L211.834 464.659L208.645 443.142ZM188.627 447.519L207.431 444.758L210.208 463.452L191.404 466.213L188.627 447.519Z" fill="#F99F1B"/>
<path d="M202.908 450.824L194.779 452.016L195.978 460.097L204.107 458.905L202.908 450.824Z" fill="#F99F1B"/>
<path d="M420.664 545.268L424.876 573.656L453.431 569.469L449.22 541.082L420.664 545.268ZM425.97 572.176L422.148 546.366L448.11 542.566L451.932 568.376L425.97 572.176Z" fill="#F99F1B"/>
<path d="M347.725 371.046L343.846 371.438L344.225 375.152L348.105 374.761L347.725 371.046Z" fill="#F99F1B"/>
<path d="M336.082 372.241L332.203 372.633L332.583 376.348L336.462 375.956L336.082 372.241Z" fill="#F99F1B"/>
<path d="M324.483 373.365L320.604 373.758L320.984 377.473L324.863 377.08L324.483 373.365Z" fill="#F99F1B"/>
<path d="M172.226 384.042C173.951 385.032 176.166 384.442 177.162 382.727C177.538 382.08 177.694 381.362 177.629 380.667L214.201 378.207L228.569 387.946L293.353 380.444C293.649 381.12 294.158 381.714 294.85 382.111C296.575 383.101 298.79 382.511 299.786 380.796C300.782 379.081 300.188 376.879 298.463 375.889C296.739 374.899 294.523 375.489 293.527 377.204C293.145 377.861 293 378.585 293.059 379.29L228.883 386.716L214.537 376.989L177.331 379.497C177.035 378.82 176.532 378.217 175.84 377.819C174.115 376.829 171.899 377.42 170.903 379.134C169.907 380.849 170.501 383.052 172.226 384.042ZM297.754 377.111C298.807 377.715 299.17 379.059 298.561 380.107C297.953 381.154 296.601 381.514 295.547 380.91C294.494 380.305 294.132 378.961 294.74 377.913C295.348 376.866 296.7 376.506 297.754 377.111ZM175.136 379.031C176.189 379.636 176.552 380.98 175.944 382.027C175.335 383.075 173.983 383.435 172.93 382.83C171.876 382.225 171.514 380.881 172.122 379.834C172.73 378.787 174.082 378.426 175.136 379.031Z" fill="#F99F1B"/>
<g style="mix-blend-mode:overlay" opacity="0.38">
<path d="M382.905 543.87C379.476 541.902 375.078 543.073 373.098 546.482C372.567 547.396 372.273 548.377 372.181 549.365L309.519 557.646L291.994 587.823L236.924 592.399C236.324 591.083 235.336 589.94 233.993 589.17C230.564 587.201 226.165 588.373 224.185 591.782C222.206 595.191 223.384 599.564 226.813 601.532C230.242 603.5 234.641 602.328 236.621 598.919C237.312 597.728 237.616 596.424 237.57 595.152L293.698 590.485L311.265 560.237L372.461 552.154C372.981 553.822 374.088 555.306 375.73 556.248C379.159 558.217 383.558 557.045 385.537 553.636C387.517 550.227 386.339 545.854 382.91 543.886L382.905 543.87ZM228.204 599.113C226.118 597.916 225.402 595.259 226.607 593.185C227.811 591.111 230.483 590.4 232.569 591.597C234.656 592.795 235.371 595.451 234.167 597.525C232.962 599.599 230.291 600.311 228.204 599.113ZM377.127 553.819C375.041 552.622 374.325 549.966 375.529 547.892C376.734 545.818 379.406 545.106 381.492 546.303C383.578 547.501 384.294 550.157 383.09 552.231C381.885 554.305 379.213 555.017 377.127 553.819Z" fill="#F99F1B"/>
</g>
<g style="mix-blend-mode:overlay" opacity="0.38">
<path d="M162.309 454.206C158.88 452.238 154.482 453.409 152.502 456.818C151.971 457.732 151.677 458.713 151.585 459.701L88.9234 467.982L71.3979 498.159L16.3279 502.735C15.7288 501.419 14.7398 500.276 13.3971 499.506C9.9681 497.537 5.56943 498.709 3.58969 502.118C1.60995 505.527 2.78858 509.9 6.21759 511.868C9.6466 513.836 14.0453 512.664 16.025 509.255C16.7167 508.064 17.0199 506.76 16.9738 505.488L73.1019 500.821L90.6691 470.573L151.866 462.49C152.385 464.157 153.492 465.642 155.134 466.584C158.563 468.552 162.962 467.381 164.942 463.972C166.921 460.563 165.743 456.19 162.314 454.222L162.309 454.206ZM7.60858 509.449C5.52226 508.252 4.80634 505.595 6.01089 503.521C7.21542 501.447 9.88721 500.736 11.9735 501.933C14.0599 503.131 14.7758 505.787 13.5712 507.861C12.3667 509.935 9.69491 510.646 7.60858 509.449ZM156.531 464.155C154.445 462.958 153.729 460.302 154.934 458.228C156.138 456.153 158.81 455.442 160.896 456.639C162.983 457.837 163.698 460.493 162.494 462.567C161.289 464.641 158.618 465.353 156.531 464.155Z" fill="#F99F1B"/>
</g>
<g style="mix-blend-mode:overlay" opacity="0.38">
<path d="M17.1592 391.613C17.3103 392.562 17.8317 393.396 18.6103 393.952C19.4758 394.572 20.5179 394.746 21.4759 394.543L32.1766 406.517L97.8022 405.344L97.7862 404.28C98.0454 405.21 98.5891 406.028 99.3823 406.607C100.304 407.273 101.431 407.536 102.553 407.359C103.676 407.182 104.663 406.571 105.333 405.655C106.003 404.739 106.268 403.618 106.09 402.503C105.912 401.387 105.298 400.405 104.376 399.739C104.258 399.658 104.13 399.57 104.006 399.499C103.159 399.013 102.176 398.832 101.205 398.987C100.083 399.164 99.0949 399.774 98.4251 400.691C98.0173 401.251 97.7866 401.885 97.6771 402.548L33.4258 403.701L23.7908 392.928C24.7683 391.34 24.3872 389.245 22.8404 388.138C22.7327 388.063 22.6354 387.993 22.5321 387.934C21.8195 387.525 20.9844 387.374 20.1539 387.5C19.1991 387.65 18.361 388.169 17.8013 388.943C17.2357 389.727 17.0081 390.664 17.1592 391.613ZM99.307 401.306C99.8026 400.619 100.546 400.169 101.382 400.033C102.219 399.897 103.067 400.096 103.758 400.589C104.45 401.082 104.902 401.821 105.039 402.652C105.176 403.484 104.975 404.327 104.48 405.015C103.984 405.702 103.241 406.152 102.404 406.288C101.676 406.404 100.942 406.269 100.311 405.908C100.219 405.854 100.126 405.801 100.028 405.732C99.3367 405.239 98.8844 404.5 98.7476 403.669C98.6108 402.837 98.8113 401.994 99.307 401.306ZM18.9382 389.759C19.282 389.286 19.7923 388.976 20.3756 388.873C20.9529 388.78 21.5485 388.917 22.0247 389.258C23.0083 389.96 23.2402 391.339 22.5184 392.321C21.8486 393.237 20.599 393.492 19.6281 392.934C19.5661 392.899 19.4939 392.857 19.4319 392.822C18.9556 392.48 18.6443 391.973 18.5404 391.393C18.4468 390.819 18.5781 390.237 18.9279 389.753L18.9382 389.759Z" fill="#F99F1B"/>
</g>
<g style="mix-blend-mode:overlay" opacity="0.38">
<path d="M35.4044 381.368C38.4616 383.123 42.3878 382.077 44.1529 379.037C44.29 378.801 44.3739 378.562 44.4741 378.318L104.062 374.31L138.798 403.064L139.836 402.961C145.597 402.407 196.299 397.529 201.072 396.257L202.017 396.005L224.061 360.988L308.932 353.187C309.699 355.257 311.128 357.09 313.193 358.275C317.893 360.973 323.931 359.373 326.65 354.691C329.369 350.009 327.744 344.01 323.044 341.313C318.345 338.616 312.301 340.226 309.588 344.898C308.967 345.966 308.6 347.096 308.423 348.254L221.134 356.283L198.855 391.658C192.505 392.75 161.506 395.904 140.358 397.935L105.689 369.233L44.4268 373.349C43.8968 372.127 43.0052 371.054 41.7658 370.343C38.7086 368.588 34.7824 369.634 33.0173 372.673C31.2523 375.713 32.3043 379.616 35.3615 381.371L35.4044 381.368ZM321.829 343.477C325.341 345.492 326.539 349.973 324.512 353.464C322.485 356.955 317.982 358.163 314.47 356.147C310.959 354.132 309.76 349.651 311.787 346.16C313.815 342.669 318.317 341.461 321.829 343.477ZM40.5624 372.486C42.4319 373.559 43.0735 375.94 41.9942 377.798C40.9149 379.657 38.5201 380.295 36.6507 379.222C34.7812 378.149 34.1395 375.768 35.2188 373.91C36.2982 372.051 38.693 371.413 40.5624 372.486Z" fill="#F99F1B"/>
</g>
<g style="mix-blend-mode:overlay" opacity="0.38">
<path d="M364.884 519.482L361.15 519.734L361.386 523.224L365.12 522.972L364.884 519.482Z" fill="#F99F1B"/>
<path d="M353.88 520.428L350.146 520.68L350.382 524.169L354.116 523.917L353.88 520.428Z" fill="#F99F1B"/>
<path d="M342.88 521.373L339.146 521.625L339.382 525.114L343.116 524.862L342.88 521.373Z" fill="#F99F1B"/>
<path d="M331.879 522.326L328.145 522.578L328.38 526.067L332.114 525.815L331.879 522.326Z" fill="#F99F1B"/>
<path d="M320.869 523.295L317.135 523.547L317.37 527.036L321.105 526.784L320.869 523.295Z" fill="#F99F1B"/>
<path d="M309.875 524.217L306.141 524.469L306.376 527.958L310.11 527.706L309.875 524.217Z" fill="#F99F1B"/>
</g>
<path d="M204.967 159.19L296.199 152.863C296.389 153.862 296.976 154.773 297.936 155.325C299.661 156.315 301.877 155.725 302.872 154.01C303.868 152.295 303.275 150.092 301.55 149.102C299.825 148.112 297.609 148.703 296.613 150.417C296.381 150.818 296.243 151.245 296.174 151.671L205.517 157.958L196.473 146.784L74.5044 161.577L74.6471 162.754L195.942 148.054L204.967 159.19ZM300.836 150.308C301.889 150.913 302.252 152.257 301.643 153.304C301.035 154.352 299.683 154.712 298.629 154.107C297.576 153.503 297.214 152.158 297.822 151.111C298.43 150.064 299.782 149.703 300.836 150.308Z" fill="#F99F1B"/>
<path d="M244.203 90.5832C245.886 91.5495 248.053 90.9723 249.025 89.2987C249.997 87.625 249.416 85.471 247.733 84.5047C246.049 83.5384 243.883 84.1156 242.911 85.7892C241.939 87.4629 242.519 89.6169 244.203 90.5832ZM247.345 85.1721C248.667 85.9309 249.111 87.6093 248.354 88.9133C247.596 90.2174 245.902 90.6687 244.59 89.9158C243.279 89.1629 242.825 87.4786 243.582 86.1746C244.339 84.8706 246.034 84.4193 247.345 85.1721Z" fill="#F99F1B"/>
<path d="M242.391 87.8505L178.707 96.2569L161.169 126.454L104.708 131.148L104.808 132.328L161.886 127.591L179.447 97.3528L242.54 89.0174L242.391 87.8505Z" fill="#F99F1B"/>
<path d="M185.464 123.005C183.739 122.015 181.524 122.605 180.528 124.32C179.532 126.035 180.126 128.238 181.851 129.228C183.575 130.218 185.791 129.627 186.787 127.913C187.145 127.297 187.287 126.625 187.257 125.965C193.413 124.898 246.049 117.803 274.425 114.02L290.614 128.281L328.045 127.875C328.218 128.905 328.807 129.859 329.788 130.422C331.513 131.412 333.729 130.822 334.725 129.107C335.721 127.392 335.127 125.19 333.402 124.2C331.677 123.21 329.462 123.8 328.466 125.515C328.251 125.884 328.115 126.285 328.048 126.685L291.06 127.086L274.805 112.773L274.535 112.81C271.174 113.263 194.998 123.425 187 124.818C186.714 124.078 186.192 123.436 185.458 123.016L185.464 123.005ZM332.704 125.401C333.758 126.006 334.12 127.35 333.512 128.397C332.904 129.445 331.552 129.805 330.498 129.2C329.445 128.596 329.082 127.251 329.69 126.204C330.299 125.157 331.651 124.797 332.704 125.401ZM182.554 128.016C181.501 127.411 181.138 126.067 181.747 125.02C182.355 123.972 183.707 123.612 184.761 124.217C185.814 124.822 186.176 126.166 185.568 127.213C184.96 128.26 183.608 128.621 182.554 128.016Z" fill="#F99F1B"/>
<path d="M187.918 186.857C187.808 186.999 187.681 187.145 187.586 187.31C186.59 189.024 187.184 191.227 188.908 192.217C190.633 193.207 192.849 192.617 193.845 190.902C194.841 189.187 194.247 186.985 192.522 185.995C191.334 185.313 189.908 185.398 188.815 186.071L177.46 175.721L112.666 183.476L112.699 183.728C112.367 182.853 111.757 182.078 110.879 181.574C108.844 180.407 106.238 181.101 105.063 183.124C103.888 185.146 104.581 187.748 106.615 188.916C108.65 190.084 111.267 189.395 112.448 187.362C112.948 186.5 113.092 185.542 112.949 184.625L177.066 176.945L187.924 186.846L187.918 186.857ZM191.818 187.206C192.872 187.811 193.234 189.155 192.626 190.202C192.018 191.25 190.666 191.61 189.612 191.005C188.559 190.401 188.196 189.056 188.805 188.009C189.413 186.962 190.765 186.602 191.818 187.206ZM107.152 187.992C105.634 187.12 105.11 185.177 105.986 183.667C106.863 182.158 108.818 181.637 110.336 182.509C111.854 183.38 112.378 185.324 111.502 186.833C110.625 188.342 108.67 188.863 107.152 187.992Z" fill="#F99F1B"/>
<path d="M300.513 196.958C301.298 197.409 302.21 197.521 303.084 197.297C303.964 197.063 304.687 196.506 305.14 195.726C305.593 194.945 305.707 194.038 305.481 193.17C305.014 191.437 303.083 190.328 301.34 190.793C300.46 191.027 299.737 191.584 299.284 192.364C298.831 193.145 298.717 194.052 298.942 194.92C299.178 195.795 299.739 196.513 300.524 196.964L300.513 196.958ZM301.546 191.623C302.214 191.445 302.907 191.555 303.465 191.876C304.023 192.196 304.466 192.737 304.644 193.401C305.007 194.746 304.208 196.121 302.856 196.482C301.503 196.842 300.119 196.047 299.757 194.703C299.395 193.359 300.194 191.983 301.546 191.623Z" fill="#F99F1B"/>
<path d="M207.757 285.204C206.084 284.244 203.934 284.816 202.968 286.48C202.753 286.849 202.617 287.25 202.56 287.656L168.809 289.929L149.222 273.717L148.975 273.739C147.68 273.859 117.24 276.786 114.552 277.502L114.324 277.562L101.842 297.395L53.7161 301.822C53.4047 300.343 52.504 298.977 51.0787 298.159C48.4243 296.635 45.0194 297.542 43.4869 300.181C41.9544 302.82 42.8667 306.205 45.5211 307.728C48.1755 309.252 51.5804 308.345 53.1129 305.706C53.6078 304.854 53.8191 303.921 53.8321 302.998L102.538 298.521L115.084 278.601C118.097 277.989 138.149 275.972 148.838 274.947L168.404 291.147L202.568 288.852C202.744 289.829 203.326 290.724 204.245 291.252C205.918 292.212 208.069 291.639 209.035 289.976C210.001 288.312 209.425 286.175 207.751 285.214L207.757 285.204ZM46.2263 306.49C44.2433 305.352 43.5623 302.826 44.7072 300.854C45.8521 298.883 48.3936 298.206 50.3766 299.344C52.3597 300.482 53.0407 303.009 51.8958 304.98C50.7508 306.952 48.2094 307.629 46.2263 306.49ZM204.847 290.215C203.742 289.58 203.362 288.171 204 287.073C204.639 285.974 206.056 285.596 207.161 286.231C208.266 286.865 208.646 288.274 208.008 289.373C207.37 290.471 205.952 290.849 204.847 290.215Z" fill="#F99F1B"/>
<path d="M196.183 57.3179C198.125 58.4324 200.601 57.7728 201.722 55.8424C202.843 53.9121 202.18 51.4503 200.238 50.3359C198.296 49.2214 195.82 49.881 194.699 51.8113C193.578 53.7417 194.242 56.2034 196.183 57.3179Z" fill="#F99F1B"/>
<path d="M333.875 226.178L324.823 241.764L206.119 249.039L194.324 238.285L129.912 246C129.446 245.048 128.699 244.222 127.718 243.659C125.064 242.136 121.659 243.043 120.126 245.681C118.594 248.32 119.506 251.705 122.16 253.229C124.815 254.752 128.22 253.845 129.752 251.206C130.492 249.933 130.649 248.477 130.324 247.14L193.924 239.52L205.683 250.24L325.219 242.908L325.535 242.885L334.903 226.754C337.17 227.713 339.87 226.881 341.134 224.704C342.5 222.353 341.694 219.33 339.318 217.966C336.943 216.603 333.913 217.41 332.541 219.772C331.277 221.948 331.892 224.684 333.871 226.161L333.875 226.178ZM122.874 252.023C120.891 250.885 120.21 248.358 121.355 246.387C122.5 244.415 125.042 243.739 127.025 244.877C129.008 246.015 129.689 248.541 128.544 250.513C127.399 252.484 124.857 253.161 122.874 252.023ZM338.613 219.204C340.307 220.177 340.892 222.347 339.914 224.031C338.936 225.715 336.753 226.296 335.059 225.324C333.365 224.352 332.774 222.192 333.758 220.498C334.742 218.803 336.919 218.232 338.613 219.204Z" fill="#F99F1B"/>
<path d="M176.851 206.366C176.851 206.366 176.857 206.355 176.863 206.345C177.859 204.63 177.265 202.428 175.54 201.438C173.815 200.448 171.6 201.038 170.604 202.753C169.608 204.467 170.202 206.67 171.926 207.66C173.29 208.442 174.943 208.228 176.08 207.265L190.043 217.962L291.874 209.957L300.99 197.296L300.017 196.6L291.223 208.803L190.4 216.73L176.846 206.349L176.851 206.366ZM172.63 206.448C171.577 205.844 171.214 204.499 171.822 203.452C172.431 202.405 173.783 202.045 174.836 202.649C175.89 203.254 176.252 204.598 175.644 205.646C175.036 206.693 173.684 207.053 172.63 206.448Z" fill="#F99F1B"/>
<path d="M220.224 180.742C218.282 179.628 215.806 180.287 214.685 182.218C213.564 184.148 214.228 186.61 216.169 187.724C218.111 188.839 220.587 188.179 221.708 186.249C221.959 185.818 222.104 185.354 222.186 184.88L266.244 180.843C266.484 181.473 266.925 182.042 267.555 182.403C269.021 183.245 270.895 182.746 271.742 181.288C272.588 179.83 272.086 177.967 270.62 177.126C269.153 176.284 267.28 176.783 266.433 178.241C266.171 178.693 266.05 179.185 266.042 179.673L222.199 183.697C222.036 182.508 221.36 181.394 220.224 180.742ZM269.916 178.337C270.711 178.794 270.982 179.798 270.523 180.588C270.064 181.379 269.054 181.648 268.258 181.192C267.463 180.735 267.193 179.731 267.652 178.94C268.111 178.15 269.121 177.881 269.916 178.337Z" fill="#F99F1B"/>
<path d="M88.6138 254.823C88.769 255.172 89.0236 255.469 89.3748 255.67C90.2733 256.186 91.4137 255.882 91.9325 254.989C92.4513 254.096 92.1457 252.962 91.2471 252.446C90.3486 251.931 89.2082 252.234 88.6894 253.128C88.594 253.292 88.5355 253.464 88.4977 253.647L59.805 256.482C59.6711 256.309 59.4987 256.156 59.2922 256.037C58.4453 255.551 57.37 255.838 56.881 256.679C56.3921 257.521 56.6802 258.59 57.5271 259.076C58.374 259.563 59.4493 259.276 59.9382 258.434C60.0813 258.188 60.1565 257.916 60.1622 257.645L88.6181 254.839L88.6138 254.823Z" fill="#F99F1B"/>
<path d="M455.015 228.2C453.073 227.085 450.597 227.745 449.476 229.675C449.183 230.179 449.023 230.716 448.958 231.254L423.933 233.251L418.389 244.717L391.638 247.174C391.474 245.985 390.799 244.872 389.663 244.22C387.721 243.105 385.245 243.765 384.124 245.695C383.003 247.625 383.666 250.087 385.608 251.202C387.55 252.316 390.026 251.656 391.147 249.726C391.397 249.295 391.543 248.831 391.625 248.358L419.171 245.837L424.715 234.37L449.021 232.426C449.232 233.533 449.892 234.555 450.955 235.166C452.897 236.28 455.373 235.621 456.494 233.69C457.616 231.76 456.952 229.298 455.01 228.184L455.015 228.2Z" fill="#F99F1B"/>
<path d="M94.2707 222.989L90.3125 223.523L90.8184 227.223L94.7765 226.689L94.2707 222.989Z" fill="#F99F1B"/>
<path d="M106.142 221.387L102.184 221.922L102.689 225.622L106.648 225.087L106.142 221.387Z" fill="#F99F1B"/>
<path d="M118.034 219.785L114.076 220.32L114.582 224.02L118.54 223.486L118.034 219.785Z" fill="#F99F1B"/>
<path d="M129.925 218.176L125.967 218.711L126.473 222.411L130.431 221.876L129.925 218.176Z" fill="#F99F1B"/>
<path d="M141.814 216.567L137.855 217.102L138.361 220.802L142.319 220.267L141.814 216.567Z" fill="#F99F1B"/>
<path d="M153.704 214.957L149.746 215.492L150.252 219.192L154.21 218.657L153.704 214.957Z" fill="#F99F1B"/>
<path d="M327.554 164.426L323.596 164.961L324.102 168.661L328.06 168.126L327.554 164.426Z" fill="#F99F1B"/>
<path d="M339.439 162.825L335.48 163.359L335.986 167.059L339.944 166.525L339.439 162.825Z" fill="#F99F1B"/>
<path d="M351.325 161.215L347.367 161.75L347.873 165.45L351.831 164.915L351.325 161.215Z" fill="#F99F1B"/>
<path d="M363.228 159.606L359.27 160.141L359.775 163.841L363.734 163.306L363.228 159.606Z" fill="#F99F1B"/>
<path d="M375.099 158.004L371.141 158.539L371.646 162.239L375.605 161.704L375.099 158.004Z" fill="#F99F1B"/>
<path d="M387.001 156.395L383.043 156.93L383.549 160.63L387.507 160.095L387.001 156.395Z" fill="#F99F1B"/>
<path d="M172.347 75.3402L168.389 75.875L168.895 79.575L172.853 79.0402L172.347 75.3402Z" fill="#F99F1B"/>
<path d="M184.222 73.7386L180.264 74.2734L180.77 77.9735L184.728 77.4386L184.222 73.7386Z" fill="#F99F1B"/>
<path d="M196.126 72.1449L192.168 72.6797L192.674 76.3797L196.632 75.8449L196.126 72.1449Z" fill="#F99F1B"/>
<path d="M208.015 70.5277L204.057 71.0625L204.563 74.7625L208.521 74.2277L208.015 70.5277Z" fill="#F99F1B"/>
<path d="M219.896 68.9183L215.938 69.4531L216.443 73.1531L220.402 72.6183L219.896 68.9183Z" fill="#F99F1B"/>
<path d="M231.796 67.3089L227.838 67.8438L228.344 71.5438L232.302 71.009L231.796 67.3089Z" fill="#F99F1B"/>
<path d="M360.371 222.218L395.11 217.131L389.992 182.596L355.254 187.683L360.371 222.218ZM393.299 215.79L361.703 220.422L357.044 189.012L388.639 184.38L393.299 215.79Z" fill="#F99F1B"/>
<path d="M365.952 214.743L387.596 211.573L384.407 190.056L362.763 193.226L365.952 214.743ZM385.964 210.376L367.16 213.137L364.383 194.444L383.187 191.683L385.964 210.376Z" fill="#F99F1B"/>
<path d="M378.649 197.753L370.52 198.945L371.718 207.027L379.848 205.835L378.649 197.753Z" fill="#F99F1B"/>
<path d="M153.931 112.618L149.72 84.2299L121.164 88.4168L125.376 116.805L153.931 112.618ZM148.62 85.7207L152.442 111.53L126.48 115.33L122.658 89.5205L148.62 85.7207Z" fill="#F99F1B"/>
<path d="M147.763 108.067L145.144 90.382L127.354 92.9856L129.973 110.671L147.763 108.067ZM144.139 91.7084L146.412 107.073L130.957 109.332L128.684 93.968L144.139 91.7084Z" fill="#F99F1B"/>
<path d="M140.406 96.7084L133.729 97.6875L134.713 104.326L141.391 103.347L140.406 96.7084Z" fill="#F99F1B"/>
<path d="M230.338 282.772L226.459 283.164L226.839 286.879L230.718 286.487L230.338 282.772Z" fill="#F99F1B"/>
<path d="M241.981 281.593L238.102 281.984L238.481 285.699L242.36 285.308L241.981 281.593Z" fill="#F99F1B"/>
<path d="M253.662 280.365L249.783 280.758L250.163 284.473L254.043 284.08L253.662 280.365Z" fill="#F99F1B"/>
<path d="M402.381 273.85C400.657 272.86 398.441 273.45 397.445 275.165C397.069 275.811 396.914 276.53 396.979 277.224L360.406 279.684L346.039 269.946L281.255 277.447C280.959 276.771 280.45 276.178 279.758 275.78C278.033 274.79 275.817 275.381 274.821 277.095C273.825 278.81 274.419 281.013 276.144 282.003C277.869 282.993 280.084 282.402 281.08 280.688C281.462 280.031 281.607 279.306 281.548 278.602L345.724 271.175L360.071 280.902L397.277 278.395C397.573 279.071 398.076 279.675 398.768 280.072C400.493 281.062 402.708 280.472 403.704 278.757C404.7 277.042 404.106 274.84 402.381 273.85ZM276.837 280.785C275.784 280.18 275.421 278.836 276.03 277.789C276.638 276.742 277.99 276.381 279.044 276.986C280.097 277.591 280.459 278.935 279.851 279.982C279.243 281.03 277.891 281.39 276.837 280.785ZM399.471 278.86C398.418 278.256 398.056 276.911 398.664 275.864C399.272 274.817 400.624 274.457 401.678 275.061C402.731 275.666 403.094 277.01 402.485 278.057C401.877 279.105 400.525 279.465 399.471 278.86Z" fill="#F99F1B"/>
<g style="mix-blend-mode:overlay" opacity="0.38">
<path d="M191.693 114.014C195.122 115.983 199.52 114.811 201.5 111.402C202.031 110.488 202.325 109.507 202.417 108.519L265.079 100.238L282.604 70.0609L337.674 65.4855C338.274 66.8014 339.262 67.944 340.605 68.7147C344.034 70.6828 348.433 69.5111 350.413 66.1022C352.392 62.6933 351.214 58.3205 347.785 56.3523C344.356 54.3842 339.957 55.5559 337.977 58.9648C337.286 60.1559 336.982 61.4604 337.028 62.7327L280.9 67.3989L263.333 97.6477L202.137 105.73C201.617 104.063 200.51 102.578 198.868 101.636C195.439 99.6677 191.04 100.839 189.06 104.248C187.081 107.657 188.259 112.03 191.688 113.998L191.693 114.014ZM346.394 58.7712C348.48 59.9687 349.196 62.6248 347.991 64.6988C346.787 66.7729 344.115 67.4846 342.029 66.2872C339.942 65.0897 339.226 62.4336 340.431 60.3595C341.636 58.2854 344.307 57.5737 346.394 58.7712ZM197.465 104.075C199.551 105.273 200.267 107.929 199.063 110.003C197.858 112.077 195.186 112.789 193.1 111.591C191.014 110.394 190.298 107.738 191.502 105.664C192.707 103.589 195.379 102.878 197.465 104.075Z" fill="#F99F1B"/>
</g>
<g style="mix-blend-mode:overlay" opacity="0.38">
<path d="M412.288 203.678C415.717 205.647 420.116 204.475 422.096 201.066C422.627 200.152 422.921 199.171 423.013 198.183L485.675 189.902L503.2 159.725L558.27 155.15C558.869 156.465 559.858 157.608 561.201 158.379C564.63 160.347 569.029 159.175 571.008 155.766C572.988 152.357 571.809 147.985 568.38 146.016C564.951 144.048 560.553 145.22 558.573 148.629C557.881 149.82 557.578 151.124 557.624 152.397L501.496 157.063L483.929 187.312L422.732 195.394C422.213 193.727 421.106 192.242 419.464 191.3C416.035 189.332 411.636 190.504 409.656 193.912C407.676 197.321 408.855 201.694 412.284 203.662L412.288 203.678ZM566.989 148.435C569.076 149.633 569.792 152.289 568.587 154.363C567.383 156.437 564.711 157.149 562.624 155.951C560.538 154.754 559.822 152.098 561.027 150.024C562.231 147.949 564.903 147.238 566.989 148.435ZM418.067 193.729C420.153 194.927 420.869 197.583 419.664 199.657C418.46 201.731 415.788 202.442 413.702 201.245C411.615 200.048 410.899 197.391 412.104 195.317C413.309 193.243 415.98 192.532 418.067 193.729Z" fill="#F99F1B"/>
</g>
<g style="mix-blend-mode:overlay" opacity="0.38">
<path d="M91.4297 286.395C91.2135 285.463 90.6475 284.659 89.8288 284.148C88.9275 283.59 87.8763 283.479 86.9254 283.741L75.4776 272.461L10.0568 277.763L10.1423 278.825C9.82829 277.919 9.24011 277.13 8.40074 276.607C7.4434 276.003 6.30079 275.812 5.17988 276.059C4.0693 276.311 3.12109 276.972 2.51765 277.94C1.90985 278.892 1.71241 280.038 1.96633 281.142C2.22026 282.246 2.88466 283.189 3.85829 283.788C3.98223 283.86 4.1165 283.937 4.24044 284.008C5.11718 284.443 6.10924 284.56 7.0732 284.347C8.18378 284.094 9.13199 283.434 9.73543 282.466C10.1019 281.882 10.3016 281.23 10.3579 280.564L74.4098 275.367L84.7133 285.511C83.8391 287.159 84.3506 289.218 85.9673 290.228C86.081 290.294 86.1842 290.353 86.2875 290.412C87.024 290.78 87.8624 290.878 88.6856 290.693C89.623 290.478 90.4317 289.916 90.9457 289.102C91.4597 288.288 91.6296 287.331 91.4194 286.389L91.4297 286.395ZM8.82974 281.891C8.37537 282.603 7.67197 283.102 6.84271 283.297C6.0194 283.482 5.16799 283.335 4.43627 282.888C3.72085 282.436 3.21808 281.737 3.02207 280.913C2.83639 280.094 2.97335 279.242 3.43367 278.52C3.88804 277.809 4.59144 277.309 5.4207 277.114C6.13593 276.95 6.88406 277.037 7.53794 277.358C7.6309 277.411 7.72385 277.464 7.82714 277.524C8.54256 277.975 9.04533 278.675 9.24134 279.499C9.42702 280.318 9.29006 281.17 8.82974 281.891ZM89.7774 288.363C89.4646 288.854 88.9734 289.202 88.3988 289.338C87.8243 289.473 87.2271 289.363 86.733 289.052C85.7033 288.407 85.3899 287.049 86.0394 286.026C86.6532 285.064 87.8913 284.734 88.8876 285.224C88.9496 285.259 89.0219 285.301 89.0839 285.336C89.5781 285.647 89.9279 286.136 90.0644 286.707C90.2009 287.278 90.0962 287.861 89.7774 288.363Z" fill="#F99F1B"/>
</g>
<g style="mix-blend-mode:overlay" opacity="0.38">
<path d="M539.193 276.513C536.136 274.759 532.21 275.805 530.445 278.844C530.308 279.08 530.224 279.319 530.123 279.563L470.535 283.571L435.799 254.818L434.762 254.92C429.001 255.474 378.299 260.353 373.526 261.624L372.581 261.876L350.537 296.893L265.666 304.694C264.898 302.624 263.47 300.791 261.404 299.606C256.705 296.909 250.667 298.508 247.948 303.19C245.229 307.873 246.854 313.871 251.553 316.568C256.253 319.265 262.297 317.655 265.01 312.984C265.63 311.916 265.998 310.785 266.175 309.627L353.464 301.599L375.743 266.224C382.093 265.131 413.091 261.977 434.239 259.946L468.909 288.648L530.171 284.532C530.701 285.754 531.592 286.827 532.832 287.538C535.889 289.293 539.815 288.247 541.58 285.208C543.345 282.169 542.293 278.265 539.236 276.511L539.193 276.513ZM252.773 314.421C249.261 312.405 248.063 307.925 250.09 304.434C252.117 300.943 256.62 299.735 260.131 301.75C263.643 303.766 264.842 308.246 262.815 311.737C260.787 315.228 256.285 316.436 252.773 314.421ZM534.035 285.395C532.166 284.322 531.524 281.941 532.603 280.083C533.683 278.224 536.078 277.586 537.947 278.659C539.816 279.732 540.458 282.113 539.379 283.972C538.299 285.83 535.905 286.468 534.035 285.395Z" fill="#F99F1B"/>
</g>
<g style="mix-blend-mode:overlay" opacity="0.38">
<path d="M213.193 134.678L209.459 134.93L209.695 138.42L213.429 138.167L213.193 134.678Z" fill="#F99F1B"/>
<path d="M224.197 133.733L220.463 133.985L220.699 137.474L224.433 137.222L224.197 133.733Z" fill="#F99F1B"/>
<path d="M235.203 132.779L231.469 133.031L231.704 136.521L235.438 136.268L235.203 132.779Z" fill="#F99F1B"/>
<path d="M246.205 131.826L242.471 132.079L242.706 135.568L246.44 135.316L246.205 131.826Z" fill="#F99F1B"/>
<path d="M257.205 130.888L253.471 131.141L253.706 134.63L257.44 134.378L257.205 130.888Z" fill="#F99F1B"/>
<path d="M268.22 129.935L264.486 130.188L264.722 133.677L268.456 133.425L268.22 129.935Z" fill="#F99F1B"/>
</g>
<g style="mix-blend-mode:overlay" opacity="0.38">
<path d="M45.2421 333.678L37.9297 334.172L38.3923 341.019L45.7047 340.525L45.2421 333.678Z" fill="#F99F1B"/>
<path d="M66.7695 331.819L59.457 332.312L59.9196 339.16L67.232 338.666L66.7695 331.819Z" fill="#F99F1B"/>
<path d="M88.3398 329.952L81.0273 330.445L81.4899 337.293L88.8023 336.799L88.3398 329.952Z" fill="#F99F1B"/>
<path d="M109.896 328.092L102.584 328.586L103.047 335.433L110.359 334.939L109.896 328.092Z" fill="#F99F1B"/>
<path d="M131.432 326.233L124.119 326.727L124.582 333.574L131.894 333.08L131.432 326.233Z" fill="#F99F1B"/>
<path d="M153.004 324.381L145.691 324.875L146.154 331.722L153.466 331.228L153.004 324.381Z" fill="#F99F1B"/>
</g>
</g>
<g opacity="0.3">
<path d="M369.634 1053.52L278.403 1059.85C278.212 1058.85 277.626 1057.94 276.665 1057.38C274.94 1056.39 272.725 1056.98 271.729 1058.7C270.733 1060.41 271.327 1062.62 273.052 1063.61C274.776 1064.6 276.992 1064.01 277.988 1062.29C278.22 1061.89 278.358 1061.46 278.427 1061.04L369.084 1054.75L378.128 1065.92L500.081 1051.14L499.938 1049.96L378.643 1064.66L369.618 1053.52L369.634 1053.52ZM273.761 1062.38C272.708 1061.78 272.345 1060.44 272.954 1059.39C273.562 1058.34 274.914 1057.98 275.967 1058.59C277.021 1059.19 277.383 1060.53 276.775 1061.58C276.167 1062.63 274.815 1062.99 273.761 1062.38Z" fill="#F99F1B"/>
<path d="M330.387 1122.11C328.704 1121.15 326.537 1121.73 325.565 1123.4C324.593 1125.07 325.174 1127.23 326.857 1128.19C328.541 1129.16 330.707 1128.58 331.679 1126.91C332.651 1125.23 332.071 1123.08 330.387 1122.11ZM327.245 1127.53C325.923 1126.77 325.479 1125.09 326.236 1123.78C326.994 1122.48 328.688 1122.03 330 1122.78C331.311 1123.53 331.765 1125.22 331.008 1126.52C330.251 1127.83 328.556 1128.28 327.245 1127.53Z" fill="#F99F1B"/>
<path d="M332.193 1124.8L395.884 1116.38L413.421 1086.19L469.882 1081.49L469.782 1080.31L412.698 1085.06L395.143 1115.29L332.04 1123.62L332.193 1124.8Z" fill="#F99F1B"/>
<path d="M389.126 1089.7C390.851 1090.69 393.067 1090.1 394.063 1088.38C395.058 1086.67 394.465 1084.46 392.74 1083.47C391.015 1082.48 388.799 1083.07 387.804 1084.79C387.446 1085.4 387.304 1086.08 387.333 1086.74C381.178 1087.8 328.542 1094.9 300.166 1098.68L283.977 1084.42L246.545 1084.83C246.372 1083.8 245.783 1082.84 244.802 1082.28C243.077 1081.29 240.862 1081.88 239.866 1083.59C238.87 1085.31 239.464 1087.51 241.188 1088.5C242.913 1089.49 245.129 1088.9 246.125 1087.19C246.339 1086.82 246.476 1086.42 246.543 1086.02L283.531 1085.61L299.786 1099.93L300.055 1099.89C303.417 1099.44 379.593 1089.28 387.59 1087.88C387.877 1088.62 388.399 1089.26 389.132 1089.69L389.126 1089.7ZM241.902 1087.3C240.849 1086.69 240.487 1085.35 241.095 1084.3C241.703 1083.25 243.055 1082.89 244.109 1083.5C245.162 1084.1 245.525 1085.45 244.916 1086.49C244.308 1087.54 242.956 1087.9 241.902 1087.3ZM392.036 1084.68C393.09 1085.29 393.452 1086.63 392.844 1087.68C392.236 1088.73 390.883 1089.09 389.83 1088.48C388.776 1087.88 388.414 1086.54 389.022 1085.49C389.631 1084.44 390.983 1084.08 392.036 1084.68Z" fill="#F99F1B"/>
<path d="M386.682 1025.85C386.792 1025.71 386.919 1025.56 387.014 1025.39C388.01 1023.68 387.416 1021.48 385.691 1020.49C383.966 1019.5 381.751 1020.09 380.755 1021.8C379.759 1023.52 380.353 1025.72 382.078 1026.71C383.265 1027.39 384.692 1027.31 385.785 1026.63L397.139 1036.98L461.934 1029.23L461.901 1028.98C462.233 1029.85 462.843 1030.63 463.721 1031.13C465.756 1032.3 468.362 1031.6 469.537 1029.58C470.712 1027.56 470.019 1024.96 467.985 1023.79C465.95 1022.62 463.333 1023.31 462.152 1025.34C461.651 1026.2 461.508 1027.16 461.65 1028.08L397.534 1035.76L386.676 1025.86L386.682 1025.85ZM382.771 1025.49C381.717 1024.89 381.355 1023.54 381.963 1022.5C382.572 1021.45 383.924 1021.09 384.977 1021.69C386.031 1022.3 386.393 1023.64 385.785 1024.69C385.177 1025.74 383.824 1026.1 382.771 1025.49ZM467.448 1024.71C468.966 1025.58 469.49 1027.53 468.613 1029.04C467.737 1030.55 465.782 1031.07 464.264 1030.2C462.745 1029.32 462.221 1027.38 463.098 1025.87C463.975 1024.36 465.93 1023.84 467.448 1024.71Z" fill="#F99F1B"/>
<path d="M274.093 1015.74C273.308 1015.29 272.396 1015.17 271.522 1015.4C270.643 1015.63 269.92 1016.19 269.467 1016.97C269.013 1017.75 268.9 1018.66 269.125 1019.53C269.592 1021.26 271.524 1022.37 273.267 1021.9C274.147 1021.67 274.87 1021.11 275.323 1020.33C275.776 1019.55 275.89 1018.64 275.664 1017.78C275.428 1016.9 274.868 1016.18 274.083 1015.73L274.093 1015.74ZM273.055 1021.08C272.387 1021.26 271.693 1021.15 271.136 1020.83C270.578 1020.51 270.135 1019.97 269.956 1019.31C269.594 1017.96 270.393 1016.59 271.745 1016.22C273.097 1015.86 274.481 1016.66 274.844 1018C275.206 1019.35 274.407 1020.72 273.055 1021.08Z" fill="#F99F1B"/>
<path d="M366.846 927.498C368.519 928.458 370.67 927.885 371.636 926.222C371.851 925.852 371.987 925.451 372.043 925.046L405.794 922.773L425.381 938.985L425.628 938.962C426.923 938.843 457.363 935.916 460.052 935.2L460.28 935.139L472.762 915.306L520.887 910.88C521.199 912.359 522.1 913.725 523.525 914.543C526.179 916.066 529.584 915.159 531.117 912.521C532.649 909.882 531.737 906.497 529.082 904.973C526.428 903.45 523.023 904.357 521.491 906.996C520.996 907.848 520.784 908.781 520.771 909.704L472.066 914.181L459.519 934.101C456.506 934.712 436.455 936.73 425.765 937.754L406.199 921.554L372.036 923.85C371.859 922.873 371.278 921.978 370.358 921.45C368.685 920.49 366.535 921.063 365.569 922.726C364.603 924.389 365.179 926.527 366.852 927.488L366.846 927.498ZM528.377 906.211C530.36 907.35 531.041 909.876 529.896 911.848C528.751 913.819 526.21 914.496 524.227 913.358C522.244 912.22 521.563 909.693 522.708 907.722C523.853 905.75 526.394 905.073 528.377 906.211ZM369.756 922.487C370.861 923.122 371.241 924.531 370.603 925.629C369.965 926.728 368.548 927.105 367.443 926.471C366.337 925.837 365.958 924.428 366.596 923.329C367.234 922.23 368.651 921.853 369.756 922.487Z" fill="#F99F1B"/>
<path d="M240.72 986.51L249.772 970.924L368.476 963.649L380.271 974.403L444.684 966.688C445.15 967.64 445.896 968.465 446.877 969.029C449.532 970.552 452.936 969.645 454.469 967.006C456.001 964.367 455.089 960.983 452.435 959.459C449.78 957.936 446.375 958.843 444.843 961.481C444.104 962.755 443.946 964.211 444.271 965.548L380.672 973.168L368.912 962.448L249.377 969.779L249.06 969.803L239.692 985.934C237.426 984.975 234.725 985.807 233.461 987.984C232.095 990.335 232.901 993.358 235.277 994.721C237.652 996.085 240.683 995.278 242.054 992.916C243.318 990.739 242.703 988.004 240.725 986.526L240.72 986.51ZM451.725 960.681C453.708 961.819 454.389 964.346 453.244 966.317C452.099 968.288 449.558 968.965 447.575 967.827C445.592 966.689 444.911 964.163 446.056 962.191C447.201 960.22 449.742 959.543 451.725 960.681ZM235.976 993.494C234.282 992.521 233.697 990.351 234.675 988.667C235.653 986.983 237.836 986.402 239.53 987.374C241.224 988.346 241.815 990.506 240.831 992.2C239.847 993.895 237.67 994.466 235.976 993.494Z" fill="#F99F1B"/>
<path d="M397.74 1006.33C397.74 1006.33 397.734 1006.34 397.728 1006.35C396.732 1008.07 397.326 1010.27 399.051 1011.26C400.776 1012.25 402.991 1011.66 403.987 1009.95C404.983 1008.23 404.389 1006.03 402.665 1005.04C401.301 1004.26 399.648 1004.47 398.51 1005.43L384.548 994.735L282.716 1002.74L273.601 1015.4L274.574 1016.1L283.368 1003.89L384.191 995.968L397.745 1006.35L397.74 1006.33ZM401.967 1006.24C403.02 1006.84 403.383 1008.19 402.774 1009.24C402.166 1010.28 400.814 1010.64 399.761 1010.04C398.707 1009.43 398.345 1008.09 398.953 1007.04C399.561 1005.99 400.913 1005.63 401.967 1006.24Z" fill="#F99F1B"/>
<path d="M354.368 1031.96C356.31 1033.07 358.786 1032.41 359.907 1030.48C361.028 1028.55 360.364 1026.09 358.423 1024.98C356.481 1023.86 354.005 1024.52 352.884 1026.45C352.633 1026.88 352.488 1027.35 352.406 1027.82L308.348 1031.86C308.108 1031.23 307.667 1030.66 307.037 1030.3C305.571 1029.46 303.697 1029.96 302.85 1031.41C302.004 1032.87 302.506 1034.73 303.972 1035.58C305.439 1036.42 307.312 1035.92 308.159 1034.46C308.421 1034.01 308.542 1033.52 308.55 1033.03L352.393 1029.01C352.556 1030.19 353.232 1031.31 354.368 1031.96ZM304.676 1034.36C303.881 1033.91 303.61 1032.9 304.069 1032.11C304.528 1031.32 305.538 1031.05 306.334 1031.51C307.129 1031.97 307.399 1032.97 306.94 1033.76C306.481 1034.55 305.471 1034.82 304.676 1034.36Z" fill="#F99F1B"/>
<path d="M119.592 984.49C121.533 985.605 124.01 984.945 125.131 983.015C125.423 982.511 125.584 981.974 125.648 981.436L150.673 979.439L156.217 967.973L182.969 965.516C183.132 966.705 183.808 967.818 184.944 968.471C186.885 969.585 189.362 968.925 190.483 966.995C191.604 965.065 190.94 962.603 188.999 961.488C187.057 960.374 184.581 961.034 183.459 962.964C183.209 963.395 183.063 963.859 182.981 964.332L155.435 966.853L149.891 978.32L125.585 980.264C125.374 979.157 124.715 978.135 123.651 977.524C121.709 976.41 119.233 977.069 118.112 979C116.991 980.93 117.654 983.392 119.596 984.506L119.592 984.49Z" fill="#F99F1B"/>
<path d="M250.513 1044.02L246.555 1044.55L247.061 1048.25L251.019 1047.72L250.513 1044.02Z" fill="#F99F1B"/>
<path d="M238.599 1045.64L234.641 1046.18L235.146 1049.88L239.105 1049.34L238.599 1045.64Z" fill="#F99F1B"/>
<path d="M226.732 1047.24L222.773 1047.77L223.279 1051.47L227.237 1050.94L226.732 1047.24Z" fill="#F99F1B"/>
<path d="M214.845 1048.82L210.887 1049.36L211.393 1053.06L215.351 1052.52L214.845 1048.82Z" fill="#F99F1B"/>
<path d="M202.952 1050.44L198.994 1050.98L199.5 1054.68L203.458 1054.14L202.952 1050.44Z" fill="#F99F1B"/>
<path d="M191.044 1052.06L187.086 1052.59L187.592 1056.29L191.55 1055.76L191.044 1052.06Z" fill="#F99F1B"/>
<path d="M214.226 990.471L179.488 995.558L184.606 1030.09L219.344 1025.01L214.226 990.471ZM181.293 996.909L212.889 992.277L217.548 1023.69L185.952 1028.32L181.293 996.909Z" fill="#F99F1B"/>
<path d="M208.645 997.946L187.001 1001.12L190.19 1022.63L211.834 1019.46L208.645 997.946ZM188.627 1002.32L207.431 999.563L210.208 1018.26L191.404 1021.02L188.627 1002.32Z" fill="#F99F1B"/>
<path d="M202.91 1005.63L194.781 1006.82L195.98 1014.9L204.109 1013.71L202.91 1005.63Z" fill="#F99F1B"/>
<path d="M420.666 1100.07L424.878 1128.46L453.433 1124.27L449.222 1095.89L420.666 1100.07ZM425.972 1126.98L422.15 1101.17L448.112 1097.37L451.934 1123.18L425.972 1126.98Z" fill="#F99F1B"/>
<path d="M347.727 925.85L343.848 926.242L344.227 929.957L348.106 929.565L347.727 925.85Z" fill="#F99F1B"/>
<path d="M336.082 927.046L332.203 927.438L332.583 931.152L336.462 930.761L336.082 927.046Z" fill="#F99F1B"/>
<path d="M324.485 928.17L320.605 928.562L320.986 932.277L324.865 931.885L324.485 928.17Z" fill="#F99F1B"/>
<path d="M172.226 938.846C173.951 939.836 176.166 939.246 177.162 937.531C177.538 936.885 177.694 936.166 177.629 935.472L214.201 933.012L228.569 942.75L293.353 935.249C293.649 935.925 294.158 936.518 294.85 936.916C296.575 937.906 298.79 937.315 299.786 935.601C300.782 933.886 300.188 931.683 298.463 930.693C296.739 929.703 294.523 930.294 293.527 932.008C293.145 932.665 293 933.39 293.059 934.094L228.883 941.521L214.537 931.794L177.331 934.301C177.035 933.625 176.532 933.021 175.84 932.624C174.115 931.634 171.899 932.224 170.903 933.939C169.907 935.654 170.501 937.856 172.226 938.846ZM297.754 931.915C298.807 932.52 299.17 933.864 298.561 934.911C297.953 935.959 296.601 936.319 295.547 935.714C294.494 935.11 294.132 933.765 294.74 932.718C295.348 931.671 296.7 931.311 297.754 931.915ZM175.136 933.836C176.189 934.44 176.552 935.785 175.944 936.832C175.335 937.879 173.983 938.239 172.93 937.635C171.876 937.03 171.514 935.686 172.122 934.639C172.73 933.591 174.082 933.231 175.136 933.836Z" fill="#F99F1B"/>
<g style="mix-blend-mode:overlay" opacity="0.38">
<path d="M382.905 1098.67C379.476 1096.71 375.078 1097.88 373.098 1101.29C372.567 1102.2 372.273 1103.18 372.181 1104.17L309.519 1112.45L291.994 1142.63L236.924 1147.2C236.324 1145.89 235.336 1144.74 233.993 1143.97C230.564 1142.01 226.165 1143.18 224.185 1146.59C222.206 1150 223.384 1154.37 226.813 1156.34C230.242 1158.3 234.641 1157.13 236.621 1153.72C237.312 1152.53 237.616 1151.23 237.57 1149.96L293.698 1145.29L311.265 1115.04L372.461 1106.96C372.981 1108.63 374.088 1110.11 375.73 1111.05C379.159 1113.02 383.558 1111.85 385.537 1108.44C387.517 1105.03 386.339 1100.66 382.91 1098.69L382.905 1098.67ZM228.204 1153.92C226.118 1152.72 225.402 1150.06 226.607 1147.99C227.811 1145.92 230.483 1145.2 232.569 1146.4C234.656 1147.6 235.371 1150.26 234.167 1152.33C232.962 1154.4 230.291 1155.12 228.204 1153.92ZM377.127 1108.62C375.041 1107.43 374.325 1104.77 375.529 1102.7C376.734 1100.62 379.406 1099.91 381.492 1101.11C383.578 1102.31 384.294 1104.96 383.09 1107.04C381.885 1109.11 379.213 1109.82 377.127 1108.62Z" fill="#F99F1B"/>
</g>
<g style="mix-blend-mode:overlay" opacity="0.38">
<path d="M162.309 1009.01C158.88 1007.04 154.482 1008.21 152.502 1011.62C151.971 1012.54 151.677 1013.52 151.585 1014.51L88.9234 1022.79L71.3979 1052.96L16.3279 1057.54C15.7288 1056.22 14.7398 1055.08 13.3971 1054.31C9.9681 1052.34 5.56943 1053.51 3.58969 1056.92C1.60995 1060.33 2.78858 1064.7 6.21759 1066.67C9.6466 1068.64 14.0453 1067.47 16.025 1064.06C16.7167 1062.87 17.0199 1061.56 16.9738 1060.29L73.1019 1055.63L90.6691 1025.38L151.866 1017.3C152.385 1018.96 153.492 1020.45 155.134 1021.39C158.563 1023.36 162.962 1022.19 164.942 1018.78C166.921 1015.37 165.743 1010.99 162.314 1009.03L162.309 1009.01ZM7.60858 1064.25C5.52226 1063.06 4.80634 1060.4 6.01089 1058.33C7.21542 1056.25 9.88721 1055.54 11.9735 1056.74C14.0599 1057.94 14.7758 1060.59 13.5712 1062.67C12.3667 1064.74 9.69491 1065.45 7.60858 1064.25ZM156.531 1018.96C154.445 1017.76 153.729 1015.11 154.934 1013.03C156.138 1010.96 158.81 1010.25 160.896 1011.44C162.983 1012.64 163.698 1015.3 162.494 1017.37C161.289 1019.45 158.618 1020.16 156.531 1018.96Z" fill="#F99F1B"/>
</g>
<g style="mix-blend-mode:overlay" opacity="0.38">
<path d="M17.1592 946.418C17.3103 947.367 17.8317 948.2 18.6103 948.757C19.4758 949.377 20.5179 949.55 21.4759 949.347L32.1766 961.321L97.8022 960.148L97.7862 959.085C98.0454 960.014 98.5891 960.833 99.3823 961.411C100.304 962.077 101.431 962.341 102.553 962.164C103.676 961.986 104.663 961.376 105.333 960.46C106.003 959.544 106.268 958.423 106.09 957.307C105.912 956.192 105.298 955.21 104.376 954.544C104.258 954.462 104.13 954.375 104.006 954.304C103.159 953.818 102.176 953.637 101.205 953.791C100.083 953.969 99.0949 954.579 98.4251 955.495C98.0173 956.055 97.7866 956.69 97.6771 957.352L33.4258 958.506L23.7908 947.733C24.7683 946.144 24.3872 944.05 22.8404 942.943C22.7327 942.868 22.6354 942.798 22.5321 942.739C21.8195 942.33 20.9844 942.179 20.1539 942.305C19.1991 942.455 18.361 942.973 17.8013 943.747C17.2357 944.532 17.0081 945.469 17.1592 946.418ZM99.307 956.111C99.8026 955.424 100.546 954.974 101.382 954.838C102.219 954.702 103.067 954.901 103.758 955.394C104.45 955.887 104.902 956.625 105.039 957.457C105.176 958.288 104.975 959.132 104.48 959.819C103.984 960.507 103.241 960.956 102.404 961.092C101.676 961.208 100.942 961.074 100.311 960.712C100.219 960.659 100.126 960.606 100.028 960.536C99.3367 960.044 98.8844 959.305 98.7476 958.473C98.6108 957.642 98.8113 956.799 99.307 956.111ZM18.9382 944.564C19.282 944.091 19.7923 943.781 20.3756 943.678C20.9529 943.585 21.5485 943.721 22.0247 944.063C23.0083 944.764 23.2402 946.143 22.5184 947.125C21.8486 948.042 20.599 948.296 19.6281 947.739C19.5661 947.704 19.4939 947.662 19.4319 947.627C18.9556 947.285 18.6443 946.777 18.5404 946.198C18.4468 945.624 18.5781 945.042 18.9279 944.558L18.9382 944.564Z" fill="#F99F1B"/>
</g>
<g style="mix-blend-mode:overlay" opacity="0.38">
<path d="M35.4063 936.173C38.4635 937.927 42.3897 936.881 44.1548 933.842C44.292 933.606 44.3759 933.367 44.4761 933.123L104.064 929.115L138.8 957.868L139.838 957.766C145.599 957.212 196.301 952.333 201.074 951.062L202.019 950.81L224.063 915.793L308.934 907.992C309.701 910.062 311.13 911.894 313.195 913.08C317.895 915.777 323.933 914.178 326.652 909.496C329.371 904.813 327.746 898.815 323.046 896.118C318.347 893.421 312.303 895.031 309.589 899.702C308.969 900.77 308.602 901.901 308.425 903.059L221.136 911.087L198.856 946.462C192.507 947.555 161.508 950.709 140.36 952.74L105.69 924.038L44.4288 928.154C43.8988 926.932 43.0072 925.859 41.7678 925.148C38.7106 923.393 34.7843 924.439 33.0193 927.478C31.2542 930.517 32.3062 934.421 35.3634 936.175L35.4063 936.173ZM321.831 898.282C325.343 900.297 326.541 904.777 324.514 908.268C322.486 911.759 317.984 912.967 314.472 910.952C310.961 908.936 309.762 904.456 311.789 900.965C313.817 897.474 318.319 896.266 321.831 898.282ZM40.5644 927.291C42.4338 928.364 43.0755 930.745 41.9962 932.603C40.9169 934.462 38.522 935.1 36.6526 934.027C34.7832 932.954 34.1415 930.573 35.2208 928.714C36.3001 926.856 38.695 926.218 40.5644 927.291Z" fill="#F99F1B"/>
</g>
<g style="mix-blend-mode:overlay" opacity="0.38">
<path d="M364.886 1074.29L361.152 1074.54L361.388 1078.03L365.122 1077.78L364.886 1074.29Z" fill="#F99F1B"/>
<path d="M353.882 1075.23L350.148 1075.48L350.384 1078.97L354.118 1078.72L353.882 1075.23Z" fill="#F99F1B"/>
<path d="M342.884 1076.18L339.15 1076.43L339.386 1079.92L343.12 1079.67L342.884 1076.18Z" fill="#F99F1B"/>
<path d="M331.88 1077.13L328.146 1077.38L328.382 1080.87L332.116 1080.62L331.88 1077.13Z" fill="#F99F1B"/>
<path d="M320.871 1078.1L317.137 1078.35L317.372 1081.84L321.106 1081.59L320.871 1078.1Z" fill="#F99F1B"/>
<path d="M309.879 1079.02L306.145 1079.27L306.38 1082.76L310.114 1082.51L309.879 1079.02Z" fill="#F99F1B"/>
</g>
<path d="M204.967 713.994L296.199 707.667C296.389 708.667 296.976 709.578 297.936 710.129C299.661 711.119 301.877 710.529 302.872 708.814C303.868 707.1 303.275 704.897 301.55 703.907C299.825 702.917 297.609 703.507 296.613 705.222C296.381 705.623 296.243 706.05 296.174 706.476L205.517 712.763L196.473 701.589L74.5044 716.382L74.6471 717.559L195.942 702.859L204.967 713.994ZM300.836 705.113C301.889 705.717 302.252 707.062 301.643 708.109C301.035 709.156 299.683 709.517 298.629 708.912C297.576 708.307 297.214 706.963 297.822 705.916C298.43 704.868 299.782 704.508 300.836 705.113Z" fill="#F99F1B"/>
<path d="M244.203 645.388C245.886 646.354 248.053 645.777 249.025 644.103C249.997 642.43 249.416 640.276 247.733 639.309C246.049 638.343 243.883 638.92 242.911 640.594C241.939 642.268 242.519 644.422 244.203 645.388ZM247.345 639.977C248.667 640.736 249.111 642.414 248.354 643.718C247.596 645.022 245.902 645.473 244.59 644.72C243.279 643.968 242.825 642.283 243.582 640.979C244.339 639.675 246.034 639.224 247.345 639.977Z" fill="#F99F1B"/>
<path d="M242.391 642.655L178.707 651.062L161.169 681.259L104.708 685.953L104.808 687.133L161.886 682.396L179.447 652.157L242.54 643.822L242.391 642.655Z" fill="#F99F1B"/>
<path d="M185.464 677.81C183.739 676.82 181.524 677.41 180.528 679.125C179.532 680.84 180.126 683.042 181.851 684.032C183.575 685.022 185.791 684.432 186.787 682.717C187.145 682.101 187.287 681.43 187.257 680.769C193.413 679.703 246.049 672.608 274.425 668.824L290.614 683.086L328.045 682.679C328.218 683.71 328.807 684.664 329.788 685.227C331.513 686.217 333.729 685.627 334.725 683.912C335.721 682.197 335.127 679.995 333.402 679.005C331.677 678.015 329.462 678.605 328.466 680.319C328.251 680.689 328.115 681.09 328.048 681.49L291.06 681.891L274.805 667.577L274.535 667.615C271.174 668.067 194.998 678.23 187 679.623C186.714 678.883 186.192 678.241 185.458 677.82L185.464 677.81ZM332.704 680.206C333.758 680.811 334.12 682.155 333.512 683.202C332.904 684.249 331.552 684.61 330.498 684.005C329.445 683.4 329.082 682.056 329.69 681.009C330.299 679.961 331.651 679.601 332.704 680.206ZM182.554 682.821C181.501 682.216 181.138 680.872 181.747 679.824C182.355 678.777 183.707 678.417 184.761 679.022C185.814 679.626 186.176 680.97 185.568 682.018C184.96 683.065 183.608 683.425 182.554 682.821Z" fill="#F99F1B"/>
<path d="M187.92 741.661C187.81 741.803 187.683 741.95 187.588 742.114C186.592 743.829 187.186 746.032 188.91 747.022C190.635 748.012 192.851 747.421 193.847 745.707C194.843 743.992 194.249 741.789 192.524 740.799C191.336 740.118 189.91 740.202 188.817 740.876L177.462 730.525L112.668 738.281L112.701 738.533C112.369 737.658 111.759 736.883 110.881 736.379C108.846 735.211 106.239 735.906 105.065 737.928C103.89 739.951 104.583 742.553 106.617 743.721C108.652 744.888 111.269 744.2 112.45 742.167C112.95 741.304 113.094 740.346 112.951 739.429L177.068 731.75L187.926 741.651L187.92 741.661ZM191.82 742.011C192.874 742.616 193.236 743.96 192.628 745.007C192.02 746.054 190.668 746.415 189.614 745.81C188.561 745.205 188.198 743.861 188.806 742.814C189.415 741.766 190.767 741.406 191.82 742.011ZM107.154 742.796C105.636 741.925 105.112 739.982 105.988 738.472C106.865 736.963 108.82 736.442 110.338 737.313C111.856 738.185 112.38 740.128 111.504 741.638C110.627 743.147 108.672 743.668 107.154 742.796Z" fill="#F99F1B"/>
<path d="M300.515 751.763C301.3 752.213 302.212 752.326 303.086 752.102C303.966 751.868 304.689 751.311 305.142 750.53C305.595 749.75 305.709 748.843 305.483 747.974C305.016 746.241 303.085 745.133 301.342 745.597C300.462 745.832 299.739 746.389 299.286 747.169C298.833 747.949 298.719 748.856 298.944 749.725C299.18 750.599 299.741 751.318 300.526 751.769L300.515 751.763ZM301.548 746.428C302.216 746.25 302.909 746.36 303.467 746.68C304.025 747 304.467 747.542 304.646 748.206C305.009 749.55 304.21 750.926 302.858 751.286C301.505 751.647 300.121 750.852 299.759 749.508C299.397 748.164 300.196 746.788 301.548 746.428Z" fill="#F99F1B"/>
<path d="M207.757 840.009C206.084 839.048 203.934 839.621 202.968 841.284C202.753 841.654 202.617 842.055 202.56 842.461L168.809 844.733L149.222 828.522L148.975 828.544C147.68 828.663 117.24 831.59 114.552 832.306L114.324 832.367L101.842 852.2L53.7161 856.627C53.4047 855.147 52.504 853.782 51.0787 852.964C48.4243 851.44 45.0194 852.347 43.4869 854.986C41.9544 857.625 42.8667 861.01 45.5211 862.533C48.1755 864.057 51.5804 863.15 53.1129 860.511C53.6078 859.659 53.8191 858.726 53.8321 857.802L102.538 853.325L115.084 833.406C118.097 832.794 138.149 830.777 148.838 829.752L168.404 845.952L202.568 843.656C202.744 844.633 203.326 845.529 204.245 846.056C205.918 847.017 208.069 846.444 209.035 844.78C210.001 843.117 209.425 840.979 207.751 840.019L207.757 840.009ZM46.2263 861.295C44.2433 860.157 43.5623 857.63 44.7072 855.659C45.8521 853.688 48.3936 853.011 50.3766 854.149C52.3597 855.287 53.0407 857.813 51.8958 859.785C50.7508 861.756 48.2094 862.433 46.2263 861.295ZM204.847 845.019C203.742 844.385 203.362 842.976 204 841.877C204.639 840.779 206.056 840.401 207.161 841.035C208.266 841.67 208.646 843.079 208.008 844.177C207.37 845.276 205.952 845.654 204.847 845.019Z" fill="#F99F1B"/>
<path d="M196.183 612.123C198.125 613.237 200.601 612.577 201.722 610.647C202.843 608.717 202.18 606.255 200.238 605.141C198.296 604.026 195.82 604.686 194.699 606.616C193.578 608.546 194.242 611.008 196.183 612.123Z" fill="#F99F1B"/>
<path d="M333.875 780.982L324.823 796.569L206.119 803.843L194.324 793.09L129.912 800.804C129.446 799.852 128.699 799.027 127.718 798.464C125.064 796.94 121.659 797.847 120.126 800.486C118.594 803.125 119.506 806.51 122.16 808.033C124.815 809.557 128.22 808.65 129.752 806.011C130.492 804.738 130.649 803.281 130.324 801.945L193.924 794.325L205.683 805.044L325.219 797.713L325.535 797.69L334.903 781.559C337.17 782.517 339.87 781.685 341.134 779.509C342.5 777.157 341.694 774.135 339.318 772.771C336.943 771.408 333.913 772.215 332.541 774.576C331.277 776.753 331.892 779.488 333.871 780.966L333.875 780.982ZM122.874 806.828C120.891 805.69 120.21 803.163 121.355 801.192C122.5 799.22 125.042 798.543 127.025 799.681C129.008 800.82 129.689 803.346 128.544 805.318C127.399 807.289 124.857 807.966 122.874 806.828ZM338.613 774.009C340.307 774.981 340.892 777.152 339.914 778.835C338.936 780.519 336.753 781.101 335.059 780.129C333.365 779.156 332.774 776.997 333.758 775.302C334.742 773.608 336.919 773.037 338.613 774.009Z" fill="#F99F1B"/>
<path d="M176.851 761.17C176.851 761.17 176.857 761.16 176.863 761.15C177.859 759.435 177.265 757.232 175.54 756.242C173.815 755.252 171.6 755.843 170.604 757.557C169.608 759.272 170.202 761.475 171.926 762.465C173.29 763.247 174.943 763.032 176.08 762.07L190.043 772.767L291.874 764.762L300.99 752.101L300.017 751.405L291.223 763.607L190.4 771.535L176.846 761.154L176.851 761.17ZM172.63 761.253C171.577 760.648 171.214 759.304 171.822 758.257C172.431 757.21 173.783 756.849 174.836 757.454C175.89 758.059 176.252 759.403 175.644 760.45C175.036 761.498 173.684 761.858 172.63 761.253Z" fill="#F99F1B"/>
<path d="M220.224 735.547C218.282 734.432 215.806 735.092 214.685 737.022C213.564 738.953 214.228 741.415 216.169 742.529C218.111 743.643 220.587 742.984 221.708 741.054C221.959 740.622 222.104 740.158 222.186 739.685L266.244 735.648C266.484 736.278 266.925 736.846 267.555 737.208C269.021 738.05 270.895 737.551 271.742 736.093C272.588 734.635 272.086 732.772 270.62 731.93C269.153 731.089 267.28 731.588 266.433 733.046C266.171 733.497 266.05 733.99 266.042 734.478L222.199 738.501C222.036 737.312 221.36 736.199 220.224 735.547ZM269.916 733.142C270.711 733.598 270.982 734.603 270.523 735.393C270.064 736.184 269.054 736.453 268.258 735.996C267.463 735.54 267.193 734.536 267.652 733.745C268.111 732.955 269.121 732.685 269.916 733.142Z" fill="#F99F1B"/>
<path d="M88.6138 809.628C88.769 809.977 89.0236 810.273 89.3748 810.475C90.2733 810.991 91.4137 810.687 91.9325 809.794C92.4513 808.9 92.1457 807.767 91.2471 807.251C90.3486 806.735 89.2082 807.039 88.6894 807.932C88.594 808.097 88.5355 808.268 88.4977 808.452L59.805 811.287C59.6711 811.114 59.4987 810.96 59.2922 810.842C58.4453 810.356 57.37 810.642 56.881 811.484C56.3921 812.326 56.6802 813.395 57.5271 813.881C58.374 814.367 59.4493 814.081 59.9382 813.239C60.0813 812.992 60.1565 812.721 60.1622 812.45L88.6181 809.644L88.6138 809.628Z" fill="#F99F1B"/>
<path d="M455.015 783.005C453.073 781.89 450.597 782.55 449.476 784.48C449.183 784.983 449.023 785.521 448.958 786.059L423.933 788.055L418.389 799.522L391.638 801.979C391.474 800.79 390.799 799.676 389.663 799.024C387.721 797.91 385.245 798.569 384.124 800.5C383.003 802.43 383.666 804.892 385.608 806.006C387.55 807.121 390.026 806.461 391.147 804.531C391.397 804.1 391.543 803.636 391.625 803.162L419.171 800.642L424.715 789.175L449.021 787.231C449.232 788.338 449.892 789.36 450.955 789.971C452.897 791.085 455.373 790.425 456.494 788.495C457.616 786.565 456.952 784.103 455.01 782.988L455.015 783.005Z" fill="#F99F1B"/>
<path d="M94.2707 777.793L90.3125 778.328L90.8184 782.028L94.7765 781.493L94.2707 777.793Z" fill="#F99F1B"/>
<path d="M106.142 776.192L102.184 776.727L102.689 780.427L106.648 779.892L106.142 776.192Z" fill="#F99F1B"/>
<path d="M118.036 774.59L114.078 775.125L114.584 778.825L118.542 778.29L118.036 774.59Z" fill="#F99F1B"/>
<path d="M129.925 772.981L125.967 773.516L126.473 777.216L130.431 776.681L129.925 772.981Z" fill="#F99F1B"/>
<path d="M141.816 771.371L137.857 771.906L138.363 775.606L142.321 775.071L141.816 771.371Z" fill="#F99F1B"/>
<path d="M153.706 769.762L149.748 770.297L150.254 773.997L154.212 773.462L153.706 769.762Z" fill="#F99F1B"/>
<path d="M327.556 719.231L323.598 719.766L324.104 723.466L328.062 722.931L327.556 719.231Z" fill="#F99F1B"/>
<path d="M339.439 717.629L335.48 718.164L335.986 721.864L339.944 721.329L339.439 717.629Z" fill="#F99F1B"/>
<path d="M351.325 716.02L347.367 716.555L347.873 720.255L351.831 719.72L351.325 716.02Z" fill="#F99F1B"/>
<path d="M363.228 714.41L359.27 714.945L359.775 718.645L363.734 718.111L363.228 714.41Z" fill="#F99F1B"/>
<path d="M375.099 712.809L371.141 713.344L371.646 717.044L375.605 716.509L375.099 712.809Z" fill="#F99F1B"/>
<path d="M387.001 711.2L383.043 711.734L383.549 715.434L387.507 714.9L387.001 711.2Z" fill="#F99F1B"/>
<path d="M172.349 630.145L168.391 630.68L168.896 634.38L172.855 633.845L172.349 630.145Z" fill="#F99F1B"/>
<path d="M184.224 628.543L180.266 629.078L180.771 632.778L184.73 632.243L184.224 628.543Z" fill="#F99F1B"/>
<path d="M196.126 626.95L192.168 627.484L192.674 631.184L196.632 630.65L196.126 626.95Z" fill="#F99F1B"/>
<path d="M208.017 625.332L204.059 625.867L204.564 629.567L208.523 629.032L208.017 625.332Z" fill="#F99F1B"/>
<path d="M219.896 623.723L215.938 624.258L216.443 627.958L220.402 627.423L219.896 623.723Z" fill="#F99F1B"/>
<path d="M231.796 622.114L227.838 622.648L228.344 626.348L232.302 625.814L231.796 622.114Z" fill="#F99F1B"/>
<path d="M360.371 777.023L395.11 771.935L389.992 737.401L355.254 742.488L360.371 777.023ZM393.299 770.595L361.703 775.227L357.044 743.817L388.639 739.184L393.299 770.595Z" fill="#F99F1B"/>
<path d="M365.952 769.548L387.596 766.378L384.407 744.861L362.763 748.031L365.952 769.548ZM385.964 765.181L367.16 767.942L364.383 749.248L383.187 746.487L385.964 765.181Z" fill="#F99F1B"/>
<path d="M378.651 752.558L370.521 753.75L371.72 761.831L379.85 760.64L378.651 752.558Z" fill="#F99F1B"/>
<path d="M153.933 667.422L149.722 639.035L121.166 643.221L125.378 671.609L153.933 667.422ZM148.622 640.525L152.444 666.335L126.482 670.135L122.66 644.325L148.622 640.525Z" fill="#F99F1B"/>
<path d="M147.763 662.864L145.144 645.179L127.354 647.782L129.973 665.468L147.763 662.864ZM144.139 646.505L146.412 661.87L130.957 664.129L128.684 648.765L144.139 646.505Z" fill="#F99F1B"/>
<path d="M140.408 651.505L133.73 652.484L134.715 659.123L141.393 658.144L140.408 651.505Z" fill="#F99F1B"/>
<path d="M230.34 837.569L226.461 837.961L226.841 841.676L230.72 841.284L230.34 837.569Z" fill="#F99F1B"/>
<path d="M241.981 836.397L238.102 836.789L238.481 840.504L242.36 840.112L241.981 836.397Z" fill="#F99F1B"/>
<path d="M253.662 835.17L249.783 835.562L250.163 839.277L254.043 838.885L253.662 835.17Z" fill="#F99F1B"/>
<path d="M402.381 828.654C400.657 827.664 398.441 828.255 397.445 829.969C397.069 830.616 396.914 831.335 396.979 832.029L360.406 834.489L346.039 824.751L281.255 832.252C280.959 831.576 280.45 830.982 279.758 830.585C278.033 829.595 275.817 830.185 274.821 831.9C273.825 833.615 274.419 835.817 276.144 836.807C277.869 837.797 280.084 837.207 281.08 835.492C281.462 834.835 281.607 834.111 281.548 833.406L345.724 825.98L360.071 835.707L397.277 833.199C397.573 833.876 398.076 834.479 398.768 834.877C400.493 835.867 402.708 835.276 403.704 833.562C404.7 831.847 404.106 829.644 402.381 828.654ZM276.837 835.59C275.784 834.985 275.421 833.641 276.03 832.594C276.638 831.546 277.99 831.186 279.044 831.791C280.097 832.395 280.459 833.74 279.851 834.787C279.243 835.834 277.891 836.194 276.837 835.59ZM399.471 833.665C398.418 833.06 398.056 831.716 398.664 830.669C399.272 829.621 400.624 829.261 401.678 829.866C402.731 830.471 403.094 831.815 402.485 832.862C401.877 833.909 400.525 834.27 399.471 833.665Z" fill="#F99F1B"/>
<g style="mix-blend-mode:overlay" opacity="0.38">
<path d="M191.693 668.819C195.122 670.787 199.52 669.616 201.5 666.207C202.031 665.293 202.325 664.312 202.417 663.324L265.079 655.042L282.604 624.866L337.674 620.29C338.274 621.606 339.262 622.749 340.605 623.519C344.034 625.487 348.433 624.316 350.413 620.907C352.392 617.498 351.214 613.125 347.785 611.157C344.356 609.189 339.957 610.361 337.977 613.769C337.286 614.961 336.982 616.265 337.028 617.537L280.9 622.204L263.333 652.452L202.137 660.534C201.617 658.867 200.51 657.383 198.868 656.441C195.439 654.472 191.04 655.644 189.06 659.053C187.081 662.462 188.259 666.835 191.688 668.803L191.693 668.819ZM346.394 613.576C348.48 614.773 349.196 617.429 347.991 619.504C346.787 621.578 344.115 622.289 342.029 621.092C339.942 619.894 339.226 617.238 340.431 615.164C341.636 613.09 344.307 612.378 346.394 613.576ZM197.465 658.88C199.551 660.077 200.267 662.734 199.063 664.808C197.858 666.882 195.186 667.593 193.1 666.396C191.014 665.198 190.298 662.542 191.502 660.468C192.707 658.394 195.379 657.682 197.465 658.88Z" fill="#F99F1B"/>
</g>
<g style="mix-blend-mode:overlay" opacity="0.38">
<path d="M412.288 758.483C415.717 760.451 420.116 759.28 422.096 755.871C422.627 754.957 422.921 753.976 423.013 752.988L485.675 744.707L503.2 714.53L558.27 709.954C558.869 711.27 559.858 712.413 561.201 713.183C564.63 715.152 569.029 713.98 571.008 710.571C572.988 707.162 571.809 702.789 568.38 700.821C564.951 698.853 560.553 700.025 558.573 703.434C557.881 704.625 557.578 705.929 557.624 707.201L501.496 711.868L483.929 742.116L422.732 750.198C422.213 748.531 421.106 747.047 419.464 746.105C416.035 744.136 411.636 745.308 409.656 748.717C407.676 752.126 408.855 756.499 412.284 758.467L412.288 758.483ZM566.989 703.24C569.076 704.437 569.792 707.094 568.587 709.168C567.383 711.242 564.711 711.953 562.624 710.756C560.538 709.558 559.822 706.902 561.027 704.828C562.231 702.754 564.903 702.042 566.989 703.24ZM418.067 748.534C420.153 749.731 420.869 752.387 419.664 754.461C418.46 756.535 415.788 757.247 413.702 756.05C411.615 754.852 410.899 752.196 412.104 750.122C413.309 748.048 415.98 747.336 418.067 748.534Z" fill="#F99F1B"/>
</g>
<g style="mix-blend-mode:overlay" opacity="0.38">
<path d="M91.4297 841.2C91.2135 840.268 90.6475 839.464 89.8288 838.953C88.9275 838.395 87.8763 838.284 86.9254 838.546L75.4776 827.266L10.0568 832.568L10.1423 833.63C9.82829 832.724 9.24011 831.935 8.40074 831.412C7.4434 830.808 6.30079 830.617 5.17988 830.864C4.0693 831.116 3.12109 831.777 2.51765 832.745C1.90985 833.696 1.71241 834.842 1.96633 835.947C2.22026 837.051 2.88466 837.993 3.85829 838.593C3.98223 838.664 4.1165 838.741 4.24044 838.812C5.11718 839.247 6.10924 839.365 7.0732 839.151C8.18378 838.899 9.13199 838.239 9.73543 837.271C10.1019 836.687 10.3016 836.035 10.3579 835.369L74.4098 830.172L84.7133 840.316C83.8391 841.963 84.3506 844.023 85.9673 845.033C86.081 845.098 86.1842 845.158 86.2875 845.217C87.024 845.585 87.8624 845.683 88.6856 845.498C89.623 845.283 90.4317 844.72 90.9457 843.907C91.4597 843.093 91.6296 842.136 91.4194 841.194L91.4297 841.2ZM8.82974 836.696C8.37537 837.407 7.67197 837.907 6.84271 838.102C6.0194 838.287 5.16799 838.14 4.43627 837.693C3.72085 837.241 3.21808 836.542 3.02207 835.717C2.83639 834.899 2.97335 834.047 3.43367 833.325C3.88804 832.614 4.59144 832.114 5.4207 831.919C6.13593 831.755 6.88406 831.842 7.53794 832.162C7.6309 832.216 7.72385 832.269 7.82714 832.328C8.54256 832.78 9.04533 833.479 9.24134 834.304C9.42702 835.122 9.29006 835.975 8.82974 836.696ZM89.7774 843.168C89.4646 843.659 88.9734 844.007 88.3988 844.142C87.8243 844.278 87.2271 844.168 86.733 843.857C85.7033 843.211 85.3899 841.854 86.0394 840.83C86.6532 839.868 87.8913 839.539 88.8876 840.028C88.9496 840.064 89.0219 840.105 89.0839 840.141C89.5781 840.452 89.9279 840.94 90.0644 841.511C90.2009 842.083 90.0962 842.666 89.7774 843.168Z" fill="#F99F1B"/>
</g>
<g style="mix-blend-mode:overlay" opacity="0.38">
<path d="M539.193 831.318C536.136 829.563 532.21 830.609 530.445 833.649C530.308 833.885 530.224 834.124 530.123 834.368L470.535 838.376L435.799 809.622L434.762 809.725C429.001 810.279 378.299 815.157 373.526 816.429L372.581 816.681L350.537 851.698L265.666 859.499C264.898 857.429 263.47 855.596 261.404 854.411C256.705 851.713 250.667 853.313 247.948 857.995C245.229 862.677 246.854 868.676 251.553 871.373C256.253 874.07 262.297 872.46 265.01 867.788C265.63 866.72 265.998 865.59 266.175 864.432L353.464 856.403L375.743 821.028C382.093 819.936 413.091 816.782 434.239 814.751L468.909 843.453L530.171 839.337C530.701 840.558 531.592 841.632 532.832 842.343C535.889 844.098 539.815 843.052 541.58 840.013C543.345 836.973 542.293 833.07 539.236 831.315L539.193 831.318ZM252.773 869.225C249.261 867.21 248.063 862.729 250.09 859.238C252.117 855.747 256.62 854.539 260.131 856.555C263.643 858.57 264.842 863.051 262.815 866.542C260.787 870.033 256.285 871.241 252.773 869.225ZM534.035 840.2C532.166 839.127 531.524 836.746 532.603 834.887C533.683 833.029 536.078 832.391 537.947 833.464C539.816 834.537 540.458 836.918 539.379 838.776C538.299 840.635 535.905 841.273 534.035 840.2Z" fill="#F99F1B"/>
</g>
<g style="mix-blend-mode:overlay" opacity="0.38">
<path d="M213.193 689.483L209.459 689.735L209.695 693.224L213.429 692.972L213.193 689.483Z" fill="#F99F1B"/>
<path d="M224.199 688.537L220.465 688.79L220.701 692.279L224.435 692.027L224.199 688.537Z" fill="#F99F1B"/>
<path d="M235.203 687.584L231.469 687.836L231.704 691.325L235.438 691.073L235.203 687.584Z" fill="#F99F1B"/>
<path d="M246.207 686.631L242.473 686.883L242.708 690.373L246.442 690.12L246.207 686.631Z" fill="#F99F1B"/>
<path d="M257.205 685.693L253.471 685.945L253.706 689.435L257.44 689.182L257.205 685.693Z" fill="#F99F1B"/>
<path d="M268.22 684.74L264.486 684.992L264.722 688.482L268.456 688.229L268.22 684.74Z" fill="#F99F1B"/>
</g>
<g style="mix-blend-mode:overlay" opacity="0.38">
<path d="M45.2421 888.483L37.9297 888.977L38.3923 895.824L45.7047 895.33L45.2421 888.483Z" fill="#F99F1B"/>
<path d="M66.7695 886.623L59.457 887.117L59.9196 893.964L67.232 893.471L66.7695 886.623Z" fill="#F99F1B"/>
<path d="M88.3398 884.756L81.0273 885.25L81.4899 892.097L88.8023 891.603L88.3398 884.756Z" fill="#F99F1B"/>
<path d="M109.896 882.897L102.584 883.391L103.047 890.238L110.359 889.744L109.896 882.897Z" fill="#F99F1B"/>
<path d="M131.432 881.037L124.119 881.531L124.582 888.379L131.894 887.885L131.432 881.037Z" fill="#F99F1B"/>
<path d="M153.004 879.186L145.691 879.68L146.154 886.527L153.466 886.033L153.004 879.186Z" fill="#F99F1B"/>
</g>
</g>
</g>
</svg>
