<svg width="48" height="48" viewBox="0 0 48 48" fill="none" xmlns="http://www.w3.org/2000/svg">
<rect width="48" height="48" rx="8" fill="#FCF4E9" fill-opacity="0.2"/>
<path d="M36.1477 18.0631H36.1476L36.1467 18.0622L34.5326 17.8319C34.4513 17.8204 34.3753 17.7849 34.3142 17.7302C34.253 17.6754 34.2095 17.6037 34.1891 17.5242C34.1687 17.4447 34.1724 17.3609 34.1996 17.2835C34.2268 17.206 34.2764 17.1384 34.3421 17.0892L35.6467 16.1107C35.7347 16.0447 35.793 15.9464 35.8085 15.8374C35.8241 15.7285 35.7957 15.6178 35.7297 15.5298L34.2359 13.538C34.1698 13.45 34.0715 13.3918 33.9626 13.3762C33.8536 13.3606 33.743 13.389 33.6549 13.455L32.3507 14.4335C32.2851 14.4833 32.2062 14.5124 32.1239 14.5172C32.0417 14.5219 31.9599 14.5021 31.889 14.4603C31.818 14.4184 31.7612 14.3563 31.7256 14.282C31.6901 14.2077 31.6774 14.1245 31.6893 14.043L31.92 12.4288C31.9278 12.3749 31.9248 12.32 31.9113 12.2672C31.8978 12.2144 31.8741 12.1648 31.8414 12.1211C31.8087 12.0775 31.7678 12.0408 31.7209 12.013C31.674 11.9852 31.6221 11.9669 31.5682 11.9592L31.5677 11.9591L29.1046 11.6072C29.0506 11.5995 28.9957 11.6024 28.9429 11.6159C28.8901 11.6294 28.8405 11.6532 28.7969 11.6858C28.7532 11.7185 28.7165 11.7594 28.6887 11.8063C28.6609 11.8532 28.6426 11.9051 28.6349 11.959V11.9591L28.4041 13.5733C28.3926 13.6545 28.3571 13.7306 28.3024 13.7917C28.2476 13.8528 28.1759 13.8963 28.0964 13.9167C28.0169 13.9371 27.9331 13.9335 27.8557 13.9062C27.7782 13.879 27.7106 13.8294 27.6614 13.7637L26.6833 12.4591C26.6173 12.3711 26.519 12.3129 26.4101 12.2973C26.3011 12.2818 26.1904 12.3101 26.1024 12.3761L24.8555 13.3119C24.2913 13.2519 23.7224 13.2519 23.1583 13.3119C19.4639 13.7341 16.5668 16.6804 16.2066 20.3814C16.1954 20.4988 16.1913 20.6154 16.1855 20.732H16.061C15.9655 20.7322 15.8729 20.7653 15.799 20.8258C15.7251 20.8863 15.6743 20.9704 15.6552 21.064L15.3684 22.4275L14.2198 21.6354C14.1399 21.5803 14.0433 21.5549 13.9466 21.5637C13.8499 21.5725 13.7594 21.6149 13.6908 21.6835L12.4459 22.9284C12.3774 22.997 12.3351 23.0874 12.3263 23.184C12.3175 23.2806 12.3428 23.3772 12.3978 23.457L13.1862 24.6035L11.8222 24.8903C11.7297 24.9105 11.6468 24.9619 11.5875 25.0358C11.5281 25.1097 11.4959 25.2017 11.4961 25.2965V26.9563C11.4961 27.0515 11.5288 27.1439 11.5888 27.2179C11.6488 27.2918 11.7324 27.3429 11.8256 27.3625L13.1895 27.6493L12.4011 28.7958C12.3461 28.8756 12.3208 28.9722 12.3296 29.0688C12.3384 29.1654 12.3807 29.2558 12.4492 29.3244L13.6941 30.5693C13.7627 30.6379 13.8533 30.6803 13.9499 30.6891C14.0466 30.6979 14.1433 30.6726 14.2232 30.6174L15.3697 29.8269L15.6564 31.1909C15.6755 31.2845 15.7263 31.3686 15.8002 31.4291C15.8742 31.4896 15.9667 31.5227 16.0622 31.5229H17.722C17.8173 31.5229 17.9096 31.4902 17.9836 31.4302C18.0576 31.3702 18.1087 31.2866 18.1283 31.1934L18.415 29.8294L19.5615 30.6178C19.6414 30.6729 19.738 30.6982 19.8345 30.6894C19.9311 30.6806 20.0216 30.6382 20.0902 30.5697L20.7346 29.9232V31.1058C20.7355 31.3959 20.8127 31.6806 20.9583 31.9314C21.104 32.1822 21.313 32.3904 21.5645 32.5349V34.8404C21.5645 35.7571 22.3076 36.5002 23.2243 36.5002H24.8841C25.8008 36.5002 26.5439 35.7571 26.5439 34.8404V32.5349C26.7954 32.3904 27.0044 32.1822 27.1501 31.9314C27.2957 31.6806 27.3729 31.3959 27.3738 31.1058V29.4634C27.3794 29.1234 27.4701 28.7901 27.6378 28.4942C27.8055 28.1983 28.0447 27.9491 28.3336 27.7696C28.678 27.5462 29.0045 27.2965 29.3104 27.0227L28.7568 26.4044C28.4832 26.6497 28.1909 26.8732 27.8825 27.0729C27.4771 27.3274 27.142 27.6796 26.9081 28.0973C26.6742 28.515 26.549 28.9848 26.5439 29.4634V31.1058C26.5439 31.5642 26.1724 31.9357 25.714 31.9357H22.3944C21.936 31.9357 21.5645 31.5642 21.5645 31.1058V29.429C21.5598 28.9594 21.4367 28.4987 21.2066 28.0893C20.9765 27.6799 20.6469 27.3352 20.2483 27.087C16.9594 25.0205 15.9685 20.6791 18.0351 17.3902C18.6659 16.3862 19.5404 15.558 20.5771 14.9826C21.6139 14.4072 22.7793 14.1033 23.965 14.099C23.9588 14.1138 23.9534 14.1289 23.9488 14.1443C23.9334 14.2532 23.9619 14.3638 24.0281 14.4517L25.0061 15.7559C25.0565 15.8211 25.0858 15.9001 25.0903 15.9824C25.0947 16.0646 25.074 16.1463 25.031 16.2165C24.9895 16.2873 24.9279 16.3441 24.854 16.3796C24.78 16.4152 24.6972 16.4279 24.616 16.4161L23.0019 16.1854C22.9479 16.1777 22.893 16.1806 22.8402 16.1941C22.7874 16.2076 22.7378 16.2314 22.6942 16.264C22.6506 16.2967 22.6138 16.3377 22.586 16.3845C22.5582 16.4314 22.5399 16.4833 22.5322 16.5372L22.5322 16.5377L22.1799 19.0021C22.1642 19.111 22.1925 19.2217 22.2585 19.3098C22.3245 19.3979 22.4228 19.4561 22.5317 19.4718L22.5322 19.4718L24.1463 19.7025C24.2276 19.7141 24.3036 19.7495 24.3647 19.8043C24.4258 19.8591 24.4694 19.9308 24.4898 20.0103C24.5101 20.0898 24.5065 20.1736 24.4793 20.251C24.452 20.3284 24.4024 20.396 24.3368 20.4453L23.0326 21.4233C22.9445 21.4894 22.8863 21.5877 22.8708 21.6966C22.8552 21.8056 22.8836 21.9162 22.9496 22.0043L24.4434 23.996C24.5095 24.0841 24.6078 24.1423 24.7167 24.1579C24.8256 24.1734 24.9363 24.1451 25.0244 24.079L26.329 23.101C26.3946 23.0519 26.4733 23.0234 26.5552 23.019C26.637 23.0145 26.7184 23.0345 26.7889 23.0763C26.8594 23.118 26.916 23.1798 26.9515 23.2537C26.987 23.3275 26.9998 23.4103 26.9883 23.4915L26.758 25.1056C26.7503 25.1596 26.7532 25.2145 26.7667 25.2673C26.7802 25.3201 26.804 25.3697 26.8366 25.4133C26.8693 25.457 26.9102 25.4937 26.9571 25.5215C27.004 25.5493 27.0559 25.5676 27.1098 25.5753H27.1099L29.5747 25.9276C29.5941 25.9301 29.6137 25.9314 29.6332 25.9314C29.7331 25.9315 29.8298 25.8955 29.9053 25.8301C29.9808 25.7647 30.0303 25.6743 30.0444 25.5753L30.2747 23.9612C30.2863 23.8799 30.3217 23.8039 30.3765 23.7428C30.4313 23.6817 30.503 23.6381 30.5825 23.6178C30.662 23.5974 30.7458 23.601 30.8232 23.6282C30.9006 23.6555 30.9683 23.7051 31.0175 23.7707L31.996 25.0749C32.062 25.163 32.1603 25.2212 32.2692 25.2367C32.3782 25.2523 32.4889 25.2239 32.5769 25.1579L34.5687 23.6641C34.6567 23.5981 34.7149 23.4997 34.7305 23.3908C34.746 23.2819 34.7177 23.1712 34.6517 23.0831L33.6736 21.779C33.6235 21.7137 33.5942 21.6347 33.5898 21.5525C33.5853 21.4703 33.6059 21.3887 33.6487 21.3184C33.6893 21.2468 33.7508 21.1893 33.8249 21.1537C33.8991 21.1181 33.9824 21.106 34.0637 21.1192L35.6778 21.3495C35.7318 21.3572 35.7867 21.3543 35.8395 21.3408C35.8923 21.3273 35.9419 21.3035 35.9855 21.2709C36.0292 21.2382 36.0659 21.1973 36.0937 21.1504C36.1215 21.1035 36.1398 21.0516 36.1476 20.9977V20.9976L36.4994 18.5328C36.5072 18.4788 36.5042 18.4239 36.4907 18.3711C36.4773 18.3183 36.4535 18.2687 36.4208 18.2251C36.3882 18.1814 36.3472 18.1447 36.3004 18.1169C36.2535 18.0891 36.2016 18.0708 36.1477 18.0631ZM22.3944 32.7656H25.714V33.5955H22.3944V32.7656ZM22.3944 34.4254H25.714V34.8404C25.714 35.2988 25.3425 35.6703 24.8841 35.6703H23.2243C22.7659 35.6703 22.3944 35.2988 22.3944 34.8404V34.4254ZM19.091 27.2696C19.3175 27.4549 19.5543 27.6274 19.8001 27.7862C20.1922 28.034 20.4873 28.4088 20.6362 28.8481L19.7462 29.7365L18.8843 29.1423C18.5069 28.8822 17.9901 28.9773 17.73 29.3547C17.6677 29.4452 17.6239 29.5472 17.6013 29.6547L17.3838 30.6909H16.3975L16.1801 29.6564C16.0857 29.2079 15.6456 28.9208 15.197 29.0152C15.0895 29.0378 14.9875 29.0816 14.897 29.1439L14.0348 29.7365L13.2787 28.9821L13.8725 28.1207C14.1329 27.7434 14.038 27.2266 13.6608 26.9663C13.5702 26.9038 13.4681 26.8599 13.3605 26.8372L12.326 26.6194V25.6334L13.3605 25.4156C13.8088 25.3205 14.0952 24.88 14.0002 24.4316C13.9776 24.3252 13.9344 24.2243 13.8729 24.1346L13.2787 23.2707L14.0348 22.5163L14.8975 23.1105C15.275 23.3703 15.7918 23.2749 16.0516 22.8974C16.1138 22.8069 16.1575 22.7051 16.1801 22.5977L16.2527 22.2524C16.3192 22.7305 16.4293 23.2015 16.5817 23.6595C15.2164 23.8223 14.2415 25.0611 14.4043 26.4265C14.567 27.7918 15.8059 28.7667 17.1712 28.6039C17.576 28.5557 17.9627 28.4087 18.2974 28.1761C18.6322 27.9434 18.9046 27.6322 19.091 27.2696ZM18.4465 26.6849C18.1367 27.5462 17.1873 27.9932 16.326 27.6834C15.4647 27.3735 15.0177 26.4242 15.3276 25.5629C15.4432 25.2413 15.6555 24.9634 15.9353 24.7671C16.2151 24.5709 16.5487 24.4659 16.8904 24.4666H16.9062C17.2878 25.2894 17.8089 26.0399 18.4465 26.6849ZM35.3824 20.4681L34.179 20.2963C33.4984 20.1991 32.8679 20.6721 32.7707 21.3527C32.724 21.6795 32.8091 22.0115 33.0072 22.2757L33.7363 23.2479L32.4084 24.2438L31.6789 23.272C31.2665 22.7219 30.4862 22.6103 29.9362 23.0228C29.6721 23.2208 29.4974 23.5157 29.4506 23.8425L29.2826 25.0475L27.6398 24.8127L27.8116 23.6093C27.909 22.9287 27.4363 22.298 26.7557 22.2006C26.5938 22.1774 26.4289 22.1864 26.2705 22.2269C26.112 22.2675 25.9631 22.3389 25.8323 22.4371L24.86 23.1661L23.8641 21.8383L24.836 21.1088C25.386 20.6963 25.4976 19.9161 25.0851 19.3661C24.8871 19.1019 24.5922 18.9273 24.2654 18.8805L23.062 18.7087L23.2969 17.0659L24.5003 17.2377C25.1808 17.3352 25.8116 16.8625 25.909 16.1819C25.9322 16.02 25.9232 15.8551 25.8827 15.6966C25.8421 15.5381 25.7707 15.3892 25.6725 15.2584L24.941 14.2853L26.2688 13.2895L26.9983 14.2617C27.4107 14.8118 28.191 14.9233 28.741 14.5109C29.0052 14.3128 29.1798 14.0179 29.2266 13.6911L29.3984 12.4878L31.0412 12.7222L30.8694 13.9256C30.7722 14.6062 31.2451 15.2367 31.9257 15.3339C32.2526 15.3806 32.5846 15.2955 32.8487 15.0974L33.8209 14.3683L34.8168 15.6962L33.8446 16.4257C33.2945 16.8381 33.1829 17.6184 33.5954 18.1684C33.7935 18.4325 34.0883 18.6072 34.4151 18.654L35.6185 18.8257L35.3824 20.4681Z" fill="#E7E8E9"/>
<path d="M29.3391 15.4477C27.5058 15.4477 26.0195 16.9339 26.0195 18.7673C26.0195 20.6007 27.5058 22.0869 29.3391 22.0869C31.1725 22.0869 32.6587 20.6007 32.6587 18.7673C32.6567 16.9348 31.1717 15.4497 29.3391 15.4477ZM29.3391 21.257C27.9641 21.257 26.8494 20.1423 26.8494 18.7673C26.8494 17.3922 27.9641 16.2776 29.3391 16.2776C30.7142 16.2776 31.8288 17.3922 31.8288 18.7673C31.8272 20.1417 30.7135 21.2554 29.3391 21.257ZM23.6394 29.8614H24.4693V31.1063H23.6394V29.8614ZM22.2393 25.7862C19.6778 24.7856 18.4124 21.8978 19.4131 19.3362C19.8009 18.3437 20.4968 17.5017 21.3986 16.934L20.955 16.2319C18.2404 17.9421 17.4261 21.5291 19.1363 24.2437C19.7986 25.2951 20.7806 26.1064 21.9381 26.5584C22.9626 26.951 23.6391 27.9344 23.6394 29.0315H24.4693C24.4706 27.5921 23.5835 26.3011 22.2393 25.7862ZM31.9384 26.9568H34.8431V27.7867H31.9384V26.9568ZM31.2579 29.765L31.7891 29.1274L34.279 31.2018L33.7478 31.8394L31.2579 29.765ZM29.4487 30.2764H30.2786V33.1811H29.4487V30.2764ZM11.9199 18.6697L15.2393 17.84L15.4405 18.6447L12.1211 19.4745L11.9199 18.6697ZM12.6092 14.4311L13.0913 13.7561L15.9957 15.8307L15.5137 16.5057L12.6092 14.4311ZM16.1646 11.7058L16.9685 11.5002L17.8173 14.8196L17.0133 15.0252L16.1646 11.7058Z" fill="#E7E8E9"/>
</svg>
