<svg width="31" height="41" viewBox="0 0 31 41" fill="none" xmlns="http://www.w3.org/2000/svg">
<path d="M29.9998 8.18961V36.2324C29.9998 38.4416 28.209 40.2324 25.9998 40.2324H4C1.79086 40.2324 0 38.4416 0 36.2324V4.23242C0 2.02328 1.79086 0.232422 4 0.232422H21.3367L29.9998 8.18961Z" fill="#344054"/>
<g filter="url(#filter0_d_5718_23024)">
<path d="M29.9998 8.18961H22.3367C21.7844 8.18961 21.3367 7.7419 21.3367 7.18961V0.232422L29.9998 8.18961Z" fill="#E4E7EC"/>
</g>
<path d="M9.59104 30.2324L8.27704 27.8474H7.90804V30.2324H6.36904V23.9144H8.95204C9.45004 23.9144 9.87304 24.0014 10.221 24.1754C10.575 24.3494 10.839 24.5894 11.013 24.8954C11.187 25.1954 11.274 25.5314 11.274 25.9034C11.274 26.3234 11.154 26.6984 10.914 27.0284C10.68 27.3584 10.332 27.5924 9.87004 27.7304L11.328 30.2324H9.59104ZM7.90804 26.7584H8.86204C9.14404 26.7584 9.35404 26.6894 9.49204 26.5514C9.63604 26.4134 9.70804 26.2184 9.70804 25.9664C9.70804 25.7264 9.63604 25.5374 9.49204 25.3994C9.35404 25.2614 9.14404 25.1924 8.86204 25.1924H7.90804V26.7584ZM16.1731 29.1164H13.8151L13.4371 30.2324H11.8261L14.1121 23.9144H15.8941L18.1801 30.2324H16.5511L16.1731 29.1164ZM15.7771 27.9284L14.9941 25.6154L14.2201 27.9284H15.7771ZM22.0979 30.2324L20.7839 27.8474H20.4149V30.2324H18.8759V23.9144H21.4589C21.9569 23.9144 22.3799 24.0014 22.7279 24.1754C23.0819 24.3494 23.3459 24.5894 23.5199 24.8954C23.6939 25.1954 23.7809 25.5314 23.7809 25.9034C23.7809 26.3234 23.6609 26.6984 23.4209 27.0284C23.1869 27.3584 22.8389 27.5924 22.3769 27.7304L23.8349 30.2324H22.0979ZM20.4149 26.7584H21.3689C21.6509 26.7584 21.8609 26.6894 21.9989 26.5514C22.1429 26.4134 22.2149 26.2184 22.2149 25.9664C22.2149 25.7264 22.1429 25.5374 21.9989 25.3994C21.8609 25.2614 21.6509 25.1924 21.3689 25.1924H20.4149V26.7584Z" fill="white"/>
<defs>
<filter id="filter0_d_5718_23024" x="18.3367" y="-0.767578" width="12.6631" height="11.957" filterUnits="userSpaceOnUse" color-interpolation-filters="sRGB">
<feFlood flood-opacity="0" result="BackgroundImageFix"/>
<feColorMatrix in="SourceAlpha" type="matrix" values="0 0 0 0 0 0 0 0 0 0 0 0 0 0 0 0 0 0 127 0" result="hardAlpha"/>
<feOffset dx="-1" dy="1"/>
<feGaussianBlur stdDeviation="1"/>
<feComposite in2="hardAlpha" operator="out"/>
<feColorMatrix type="matrix" values="0 0 0 0 0 0 0 0 0 0 0 0 0 0 0 0 0 0 0.2 0"/>
<feBlend mode="normal" in2="BackgroundImageFix" result="effect1_dropShadow_5718_23024"/>
<feBlend mode="normal" in="SourceGraphic" in2="effect1_dropShadow_5718_23024" result="shape"/>
</filter>
</defs>
</svg>
