<svg width="82" height="51" viewBox="0 0 82 51" fill="none" xmlns="http://www.w3.org/2000/svg">
<path d="M21.4648 1.79337V27.2739C21.4648 32.6465 18.423 34.8983 11.7862 34.8983C8.15178 34.8983 5.50497 33.8711 3.88528 31.8564C2.50261 30.1577 1.67302 27.3529 1.39648 23.4419L3.2137 22.7703C3.2137 29.9207 5.70249 33.081 11.8257 33.081C14.3935 33.081 16.1712 32.8045 17.2378 32.2119C18.818 31.3823 19.6081 29.7231 19.6081 27.3134V2.34643L21.4648 1.79337ZM33.7508 27.2739H29.6028C26.798 27.2739 25.3758 25.7332 25.3758 22.6913V2.34643L27.2325 1.71436V22.6518C27.2325 24.627 28.1411 25.6147 29.9583 25.6147H33.7508V27.2739ZM43.5084 2.9785C43.5084 3.84761 43.1134 4.28216 42.2838 4.28216C41.4542 4.28216 41.0196 3.84761 41.0196 2.9785C41.0196 2.14891 41.4542 1.71436 42.2838 1.71436C43.1134 1.71436 43.5084 2.14891 43.5084 2.9785ZM39.0444 2.9785C39.0444 3.84761 38.6494 4.28216 37.8198 4.28216C36.9902 4.28216 36.5556 3.84761 36.5556 2.9785C36.5556 2.14891 36.9902 1.71436 37.8198 1.71436C38.6494 1.71436 39.0444 2.14891 39.0444 2.9785ZM47.6564 27.2739H45.6417C43.1134 27.2739 41.2962 26.2862 40.1505 24.3505C39.0444 26.2862 37.1482 27.2739 34.5014 27.2739H32.4866V25.6147H34.3038C37.5432 25.6147 39.1629 23.8765 39.1629 20.3605V9.97083L41.0196 9.37826V20.5581C41.0196 23.916 42.6393 25.6147 45.9182 25.6147H47.6564V27.2739ZM54.7277 2.9785C54.7277 3.84761 54.2932 4.28216 53.4636 4.28216C52.634 4.28216 52.1994 3.84761 52.1994 2.9785C52.1994 2.14891 52.634 1.71436 53.4636 1.71436C54.2932 1.71436 54.7277 2.14891 54.7277 2.9785ZM61.167 27.2739H59.1523C56.624 27.2739 54.8068 26.2862 53.6611 24.3505C52.555 26.2862 50.6588 27.2739 48.012 27.2739H45.9972V25.6147H47.8144C51.0538 25.6147 52.6735 23.8765 52.6735 20.3605V9.97083L54.5302 9.37826V20.5581C54.5302 23.916 56.1499 25.6147 59.4288 25.6147H61.167V27.2739ZM68.3568 20.6766C68.3568 24.5875 65.8285 27.2739 61.8386 27.2739H59.2313V25.6147H61.6016C64.8804 25.6147 66.5001 23.8765 66.5001 20.3605V10.0103L68.3568 9.37826V20.6766ZM67.4087 33.5946C67.4087 34.4637 66.9742 34.8983 66.1446 34.8983C65.315 34.8983 64.9199 34.4637 64.9199 33.5946C64.9199 32.8045 65.315 32.4095 66.1446 32.4095C66.9742 32.4095 67.4087 32.8045 67.4087 33.5946ZM62.9447 33.5946C62.9447 34.4637 62.5102 34.8983 61.6806 34.8983C60.851 34.8983 60.4559 34.4637 60.4559 33.5946C60.4559 32.8045 60.851 32.4095 61.6806 32.4095C62.5102 32.4095 62.9447 32.8045 62.9447 33.5946ZM81.0378 25.9702C81.0378 28.696 80.4058 30.8293 79.1416 32.4095C77.7984 34.0687 75.9022 34.8983 73.4134 34.8983C72.1493 34.8983 70.9641 34.6612 69.858 34.1477L69.0679 32.3305C70.4111 32.9625 71.8727 33.2786 73.4134 33.2786C75.3492 33.2786 76.8108 32.528 77.7984 31.0268C78.7071 29.7627 79.1811 28.1035 79.1811 26.0492V9.97083L81.0378 9.37826V25.9702Z" fill="#A0A3A9"/>
<path d="M27.8305 0.885254V22.6532C27.8305 24.3132 28.4679 25.0215 29.9618 25.0215H34.3073C37.2167 25.0215 38.5718 23.5409 38.5718 20.3619V9.53783L41.6177 8.56576V20.5594C41.6177 23.6036 42.9853 25.0215 45.9217 25.0215H47.8179C50.7273 25.0215 52.0824 23.5409 52.0824 20.3619V9.53783L55.1282 8.56576V20.5594C55.1282 23.6036 56.4959 25.0215 59.4323 25.0215H61.605C64.5414 25.0215 65.909 23.5409 65.909 20.3619V9.58604L68.9549 8.54915V20.678C68.9549 24.9796 66.0964 27.8698 61.842 27.8698H58.6402V27.8564C56.5125 27.7441 54.846 26.9253 53.67 25.4159C52.4149 27.0452 50.5174 27.8698 48.0154 27.8698L45.4061 27.867C43.1459 27.8132 41.3859 26.9901 40.1594 25.4159C38.9043 27.0452 37.0068 27.8698 34.5048 27.8698H29.6062C26.452 27.8698 24.7847 26.0796 24.7847 22.6927V1.92214L27.8305 0.885254ZM31.8955 26.2106H29.9618C27.8206 26.2106 26.6414 24.9472 26.6414 22.6532V2.54619L25.9738 2.77347V22.6927C25.9738 25.4135 27.128 26.6807 29.6062 26.6807H31.8955V26.2106ZM45.4061 26.1926C42.123 25.9886 40.4285 24.0516 40.4285 20.5594V10.1935L39.7609 10.4065V20.3619C39.7609 24.1732 37.8896 26.1948 34.3488 26.2105V26.6807H34.5048C36.9159 26.6807 38.6429 25.7979 39.6378 24.0569L40.145 23.1693L40.6656 24.0491C41.677 25.7579 43.2294 26.6193 45.4061 26.6775V26.1926ZM58.6402 26.1766C55.5602 25.9025 53.9391 23.9746 53.9391 20.5594V10.1935L53.2715 10.4065V20.3619C53.2715 24.0289 51.5392 26.0391 48.2544 26.2001V26.6777C50.5408 26.6208 52.1867 25.7398 53.1484 24.0569L53.6556 23.1693L54.1762 24.0491C55.1442 25.6846 56.6079 26.5439 58.6402 26.6656V26.1766ZM61.842 26.6807C65.4406 26.6807 67.7657 24.3245 67.7657 20.678V10.2101L67.0981 10.4374V20.3619C67.0981 24.1309 65.255 26.1497 61.765 26.2092V26.6807H61.842ZM33.1597 26.2106H33.0846V26.6807H33.1597V26.2106ZM47.0653 26.2106H46.5952V26.6807H47.0653V26.2106ZM60.5759 26.2106H59.8293V26.6807H60.5759V26.2106ZM22.0629 0.997252V27.2752C22.0629 32.8826 18.7985 35.4942 11.7897 35.4942C7.9806 35.4942 5.16644 34.3961 3.42534 32.2303C1.95214 30.4204 1.09489 27.5589 0.806853 23.4852L0.775391 23.0402L3.81171 21.9181V22.7717C3.81171 29.6729 6.13452 32.4879 11.8292 32.4879C14.3146 32.4879 15.9905 32.228 16.9526 31.6936C18.3266 30.972 19.017 29.501 19.017 27.3147V1.90453L22.0629 0.997252ZM11.7897 34.3051C18.157 34.3051 20.8737 32.2027 20.8737 27.2752V2.59222L20.2061 2.79108V27.3147C20.2061 29.9779 19.3016 31.8032 17.5177 32.7397C16.3709 33.377 14.5594 33.677 11.8292 33.677C5.70606 33.677 2.84544 30.5666 2.63514 23.6207L2.02725 23.8453C2.32324 27.3836 3.10396 29.9518 4.34985 31.4824C5.85632 33.3563 8.35869 34.3051 11.7897 34.3051ZM37.8232 1.12117C38.9623 1.12117 39.6424 1.81601 39.6424 2.97987C39.6424 4.18621 38.9793 4.87808 37.8232 4.87808C36.6594 4.87808 35.9645 4.16847 35.9645 2.97987C35.9645 1.81601 36.6594 1.12117 37.8232 1.12117ZM37.8232 3.68896C38.2589 3.68896 38.4533 3.58658 38.4533 2.97987C38.4533 2.40696 38.2589 2.31029 37.8232 2.31029C37.3226 2.31029 37.1536 2.47925 37.1536 2.97987C37.1536 3.57929 37.3791 3.68896 37.8232 3.68896ZM42.2872 1.12117C43.4264 1.12117 44.1064 1.81601 44.1064 2.97987C44.1064 4.18621 43.4434 4.87808 42.2872 4.87808C41.1234 4.87808 40.4285 4.16847 40.4285 2.97987C40.4285 1.81601 41.1234 1.12117 42.2872 1.12117ZM42.2872 3.68896C42.7229 3.68896 42.9173 3.58658 42.9173 2.97987C42.9173 2.40696 42.7229 2.31029 42.2872 2.31029C41.7866 2.31029 41.6177 2.47925 41.6177 2.97987C41.6177 3.57929 41.8431 3.68896 42.2872 3.68896ZM53.4671 1.12117C54.6309 1.12117 55.3258 1.81601 55.3258 2.97987C55.3258 4.16847 54.6309 4.87808 53.4671 4.87808C52.3032 4.87808 51.6083 4.16847 51.6083 2.97987C51.6083 1.81601 52.3032 1.12117 53.4671 1.12117ZM53.4671 3.68896C53.9111 3.68896 54.1366 3.57929 54.1366 2.97987C54.1366 2.47925 53.9677 2.31029 53.4671 2.31029C52.9664 2.31029 52.7975 2.47925 52.7975 2.97987C52.7975 3.57929 53.023 3.68896 53.4671 3.68896ZM81.6359 8.56576V25.9716C81.6359 28.8099 80.954 31.1014 79.6093 32.7823C78.1519 34.5827 76.0692 35.4942 73.4169 35.4942C72.0433 35.4942 70.7629 35.223 69.6111 34.6883L69.4063 34.5932L67.8971 31.1221L69.3245 31.7939C70.5816 32.3854 71.9585 32.6854 73.4169 32.6854C75.155 32.6854 76.4269 32.0364 77.3052 30.7014C78.1624 29.5079 78.59 27.9499 78.59 26.0506V9.53783L81.6359 8.56576ZM73.4169 34.3051C75.7248 34.3051 77.4473 33.5631 78.6829 32.0367C79.8691 30.554 80.4467 28.5692 80.4467 25.9716V10.1935L79.7791 10.4065V26.0506C79.7791 28.2041 79.2763 29.9955 78.2847 31.3752C77.1987 33.0268 75.5563 33.8745 73.4169 33.8745C72.293 33.8745 71.2106 33.7147 70.1834 33.3983L70.3147 33.7003C71.2645 34.107 72.2819 34.3051 73.4169 34.3051ZM61.684 31.8163C62.8479 31.8163 63.5427 32.4816 63.5427 33.596C63.5427 34.7846 62.8479 35.4942 61.684 35.4942C60.5279 35.4942 59.8648 34.8023 59.8648 33.596C59.8648 32.465 60.5279 31.8163 61.684 31.8163ZM61.684 34.3051C62.1281 34.3051 62.3536 34.1954 62.3536 33.596C62.3536 33.1958 62.2534 33.0054 61.684 33.0054C61.1415 33.0054 61.0539 33.1795 61.0539 33.596C61.0539 34.2027 61.2483 34.3051 61.684 34.3051ZM66.148 31.8163C67.3119 31.8163 68.0068 32.4816 68.0068 33.596C68.0068 34.7846 67.3119 35.4942 66.148 35.4942C64.9919 35.4942 64.3288 34.8023 64.3288 33.596C64.3288 32.465 64.9919 31.8163 66.148 31.8163ZM66.148 34.3051C66.5921 34.3051 66.8176 34.1954 66.8176 33.596C66.8176 33.1958 66.7174 33.0054 66.148 33.0054C65.6055 33.0054 65.518 33.1795 65.518 33.596C65.518 34.2027 65.7123 34.3051 66.148 34.3051Z" fill="#A0A3A9"/>
<path d="M70.5176 45.478H81.5986V45.8814H70.5176V45.478Z" fill="#A0A3A9"/>
<path d="M16.1738 41.8158V49.7227H16.9581V45.113C16.9581 43.6725 18.0945 42.488 19.5671 42.472C20.0313 42.472 20.4954 42.5841 20.9116 42.8402L21.2637 42.1999C20.7355 41.8798 20.1593 41.7197 19.5671 41.7357C18.5587 41.7357 17.4383 42.1519 16.9421 43.2243L16.9101 41.8158H16.1738ZM27.6181 49.8347C28.8825 49.8347 30.259 49.3225 31.0273 48.3142L30.4671 47.866C29.8749 48.6503 28.6584 49.0665 27.6181 49.0665C25.9855 49.0665 24.5609 47.9941 24.4009 46.1374H31.5235C31.8276 43.0482 29.8429 41.6877 27.6181 41.6877C25.3932 41.6877 23.6006 43.4004 23.6006 45.7692C23.6006 48.2822 25.3932 49.8347 27.6181 49.8347ZM24.4009 45.4491C24.5769 43.5124 25.9855 42.408 27.6181 42.408C29.5228 42.408 30.8032 43.4964 30.8192 45.4491H24.4009ZM35.1568 41.8158V49.7227H35.9411V45.3211C35.9411 43.6885 37.0776 42.456 38.7102 42.44C40.4228 42.424 41.5272 43.3844 41.5272 45.177V49.7227H42.3115V45.161C42.3115 42.9682 40.8549 41.6717 38.7422 41.6717C37.6378 41.6877 36.5333 42.1359 35.9251 43.2243V41.8158H35.1568ZM46.6651 39.5109V41.8158H44.9845V42.472H46.6651V47.2898C46.6651 48.8424 47.2093 49.8347 48.8899 49.8347C49.3861 49.8347 49.8823 49.6747 50.3785 49.4346L50.1064 48.7944C49.7062 48.9864 49.2741 49.1145 48.8899 49.1145C47.6575 49.1145 47.4334 48.3622 47.4334 47.2898V42.472H50.1224V41.8158H47.4334V39.4309L46.6651 39.5109ZM60.3502 41.8158V43.5444C59.6939 42.312 58.3974 41.7197 57.117 41.7197C54.9081 41.7197 53.0995 43.3523 53.0995 45.7692C53.0995 48.1861 54.9081 49.8507 57.117 49.8507C58.3974 49.8507 59.5819 49.2745 60.3502 48.0421V49.7227H61.1344C61.1344 47.0817 61.1344 44.4567 61.1344 41.8158H60.3502ZM57.117 42.472C61.5186 42.472 61.5186 49.0825 57.117 49.0825C55.3243 49.0825 53.8838 47.754 53.8838 45.7692C53.8838 43.7845 55.3243 42.472 57.117 42.472ZM64.8638 38.5186V49.7227H65.6481V38.5186H64.8638Z" fill="#888C93"/>
<path d="M64.5943 38.2544H65.9062V49.9862H64.5943V38.2544ZM65.3786 38.7821H65.1219V49.4585H65.3786V38.7821ZM47.6915 39.1378V41.5516H50.3805V42.7355H47.6915V47.2895C47.6915 47.8621 47.7604 48.2231 47.9148 48.4598C48.0241 48.6275 48.2435 48.8503 48.8842 48.8503C49.1999 48.8503 49.5913 48.7459 49.9865 48.5562L50.2355 48.4367L50.7139 49.5623L50.4877 49.6718C49.8946 49.9587 49.3701 50.0982 48.8842 50.0982C48.4402 50.0982 48.0512 50.0313 47.7279 49.8994C47.4059 49.7679 47.1387 49.5686 46.9338 49.3068C46.5716 48.8441 46.3956 48.1842 46.3956 47.2895V42.7355H44.7149V41.5516H46.3956V39.2728L47.6915 39.1378ZM49.8528 42.0793H47.1638V39.7233L46.9232 39.7484V42.0793H45.2426V42.2079H46.9232V47.2895C46.9232 48.0618 47.0626 48.6153 47.3493 48.9815C47.6596 49.3779 48.1617 49.5706 48.8842 49.5706C49.2282 49.5706 49.6047 49.4821 50.0294 49.3009L49.9624 49.1432C49.656 49.2665 49.2719 49.378 48.8842 49.378C48.5444 49.378 48.2645 49.3265 48.0286 49.2205C47.7961 49.1161 47.6091 48.9572 47.4728 48.7481C47.199 48.3282 47.1638 47.748 47.1638 47.2895V42.2079H49.8528V42.0793ZM38.7345 41.4076H38.7365C39.8577 41.4076 40.8117 41.7517 41.4954 42.4027C42.1981 43.0719 42.5696 44.0256 42.5696 45.1607V49.9862H41.2577V45.1767C41.2577 44.7721 41.1974 44.4072 41.0785 44.092C40.9659 43.7934 40.7998 43.5377 40.5848 43.3319C40.3724 43.1286 40.1104 42.972 39.806 42.8664C39.4836 42.7545 39.1137 42.6997 38.7069 42.7035C38.3424 42.7071 37.9991 42.7765 37.6865 42.9097C37.3865 43.0376 37.1215 43.2213 36.8991 43.4556C36.4478 43.931 36.1993 44.5933 36.1993 45.3207V49.9862H34.8873V41.5516H36.1833V42.4273C36.4233 42.1792 36.7036 41.9729 37.022 41.8105C37.521 41.5559 38.1126 41.4166 38.7326 41.4076L38.7345 41.4076ZM42.0419 49.4585V45.1607C42.0419 44.1736 41.7271 43.352 41.1315 42.7848C40.5482 42.2294 39.7207 41.9356 38.7384 41.9352C38.1993 41.9433 37.6888 42.0627 37.2618 42.2805C36.7857 42.5234 36.4115 42.8842 36.1497 43.3527L35.6556 44.2369V42.0793H35.415V49.4585H35.6716V45.3207C35.6716 44.4575 35.9716 43.6661 36.5164 43.0923C36.7888 42.8054 37.1128 42.5807 37.4796 42.4243C37.8563 42.2637 38.2675 42.1801 38.7019 42.1759C38.7168 42.1757 38.7317 42.1756 38.7465 42.1756C39.6581 42.1756 40.42 42.4436 40.9497 42.9507C41.2221 43.2115 41.4316 43.5328 41.5722 43.9058C41.7136 44.2807 41.7853 44.7083 41.7853 45.1767V49.4585H42.0419ZM27.6124 41.4236C28.9396 41.4236 30.0835 41.8792 30.8334 42.7064C31.202 43.1132 31.4707 43.6036 31.632 44.1641C31.8027 44.757 31.8526 45.4295 31.7804 46.1629L31.7569 46.4009H24.6945C24.8114 47.0892 25.1293 47.6717 25.6238 48.098C26.1507 48.5522 26.8569 48.8023 27.6124 48.8023C28.1103 48.8023 28.6413 48.7002 29.1075 48.5148C29.6059 48.3166 30.0013 48.0372 30.2509 47.7067L30.4144 47.4902L31.3876 48.2688L31.2315 48.4737C30.8401 48.9874 30.2781 49.4097 29.6062 49.6951C28.9853 49.9588 28.2958 50.0982 27.6124 50.0982C26.4374 50.0982 25.3626 49.6847 24.5859 48.9337C24.1883 48.5492 23.8786 48.0883 23.6653 47.5636C23.4435 47.018 23.331 46.4141 23.331 45.7689C23.331 44.5647 23.7757 43.4581 24.583 42.653C25.378 41.8602 26.4539 41.4236 27.6124 41.4236ZM31.2742 45.8732C31.3088 45.2998 31.2587 44.7749 31.1249 44.31C30.9861 43.8276 30.7565 43.4073 30.4424 43.0608C29.7939 42.3453 28.7888 41.9512 27.6124 41.9512C26.5945 41.9512 25.651 42.3332 24.9556 43.0266C24.2483 43.732 23.8587 44.7059 23.8587 45.7689C23.8587 46.3457 23.9581 46.8827 24.1541 47.3649C24.3396 47.8211 24.6083 48.2213 24.9527 48.5543C25.6304 49.2097 26.575 49.5706 27.6124 49.5706C28.2255 49.5706 28.8437 49.4457 29.3999 49.2094C29.8974 48.9981 30.3236 48.7042 30.6464 48.3516L30.4962 48.2314C30.1956 48.5472 29.7881 48.8121 29.3024 49.0052C28.7757 49.2146 28.1755 49.33 27.6124 49.33C26.7304 49.33 25.9019 49.0344 25.2793 48.4977C24.9557 48.2187 24.6935 47.8819 24.5 47.4964C24.2978 47.0935 24.174 46.6438 24.1323 46.1597L24.1076 45.8732H31.2742ZM57.1113 41.4556C57.8132 41.4556 58.4961 41.622 59.0861 41.9368C59.4653 42.1391 59.8007 42.4013 60.0806 42.7118V41.5516H61.3926V49.9862H60.0806V48.828C59.778 49.1599 59.4317 49.4318 59.0453 49.6404C58.4629 49.9548 57.8122 50.1142 57.1113 50.1142C55.9537 50.1142 54.8804 49.6844 54.0889 48.9038C53.6921 48.5125 53.3819 48.0491 53.1669 47.5267C52.9433 46.9833 52.8299 46.3919 52.8299 45.7689C52.8299 45.1459 52.9434 44.556 53.1671 44.0156C53.3821 43.4963 53.6926 43.0365 54.09 42.6489C54.8791 41.8794 55.952 41.4556 57.1113 41.4556ZM60.6083 44.6009L60.1116 43.6681C59.965 43.3928 59.7787 43.1437 59.5579 42.9276C59.3478 42.7219 59.1054 42.5452 58.8377 42.4023C58.3239 42.1282 57.7269 41.9832 57.1113 41.9832C56.0905 41.9832 55.1484 42.3538 54.4584 43.0267C54.1125 43.364 53.8421 43.7646 53.6547 44.2175C53.4575 44.6936 53.3576 45.2156 53.3576 45.7689C53.3576 46.3227 53.4576 46.8465 53.6549 47.3259C53.8427 47.7823 54.1134 48.1868 54.4595 48.5282C55.1515 49.2107 56.0933 49.5866 57.1113 49.5866C57.7237 49.5866 58.29 49.4485 58.7946 49.1761C59.3265 48.8889 59.7726 48.4603 60.1206 47.9022L60.6083 47.1198V49.4585H60.8649V42.0793H60.6083V44.6009ZM19.6422 41.4705C20.2539 41.4705 20.8435 41.6399 21.3948 41.974L21.6111 42.1051L21.0035 43.2097L20.7676 43.0645C20.4133 42.8465 20.008 42.7358 19.563 42.7355C18.9255 42.7428 18.3325 42.9938 17.8932 43.4426C17.4567 43.8884 17.2163 44.4816 17.2163 45.1127V49.9862H15.9043V41.5516H17.1623L17.1816 42.3994C17.1968 42.3834 17.2122 42.3676 17.2279 42.352C17.4306 42.1501 17.6693 41.9786 17.9372 41.8424C18.4133 41.6003 18.9735 41.4721 19.5578 41.4716C19.5858 41.4709 19.6142 41.4705 19.6422 41.4705ZM20.9002 42.3027C20.4979 42.1005 20.0759 41.9982 19.6422 41.9982C19.6178 41.9982 19.593 41.9985 19.5685 41.9992L19.5614 41.9993C19.0586 41.9993 18.5797 42.1076 18.1764 42.3127C17.7185 42.5456 17.3819 42.8894 17.1759 43.3348L16.6985 44.3665L16.6465 42.0793H16.432V49.4585H16.6886V45.1127C16.6886 44.3427 16.9825 43.6185 17.5162 43.0734C18.0544 42.5237 18.7797 42.2163 19.5585 42.2079L19.5614 42.2079C20.0011 42.2079 20.4245 42.3023 20.8012 42.4827L20.9002 42.3027ZM27.6124 42.1438C28.6305 42.1438 29.4907 42.4406 30.1 43.0019C30.731 43.5834 31.069 44.4288 31.0774 45.4466L31.0795 45.7126H24.1063L24.1324 45.4249C24.2224 44.4352 24.6197 43.5985 25.2815 43.0055C25.5933 42.7261 25.9544 42.5098 26.3547 42.3628C26.7505 42.2175 27.1736 42.1438 27.6124 42.1438ZM30.5388 45.185C30.5132 44.8435 30.4432 44.5295 30.3298 44.2486C30.1944 43.9132 29.9968 43.6244 29.7424 43.39C29.2323 42.9199 28.4957 42.6715 27.6124 42.6715C27.2358 42.6715 26.8739 42.7343 26.5366 42.8582C26.1992 42.982 25.8954 43.1638 25.6336 43.3984C25.1371 43.8434 24.8157 44.4569 24.6947 45.185H30.5388ZM57.1113 42.2079C58.2087 42.2079 59.1331 42.5957 59.7845 43.3294C60.0758 43.6576 60.3014 44.043 60.4548 44.475C60.6018 44.8889 60.6763 45.327 60.6763 45.7769C60.6763 46.2269 60.6018 46.6649 60.4548 47.0788C60.3014 47.5108 60.0758 47.8962 59.7845 48.2244C59.1331 48.9581 58.2087 49.346 57.1113 49.346C56.1575 49.346 55.2786 48.9947 54.6365 48.357C54.3132 48.0359 54.0609 47.6543 53.8865 47.2227C53.7058 46.7755 53.6142 46.2863 53.6142 45.7689C53.6142 45.2515 53.7059 44.7631 53.8866 44.3173C54.061 43.8873 54.3135 43.5074 54.6371 43.1882C55.2781 42.556 56.1567 42.2079 57.1113 42.2079ZM57.1113 48.8183C58.0535 48.8183 58.8415 48.4918 59.3899 47.8741C59.636 47.5969 59.827 47.2699 59.9575 46.9023C60.0843 46.5452 60.1486 46.1665 60.1486 45.7769C60.1486 45.3873 60.0843 45.0087 59.9575 44.6516C59.827 44.2839 59.636 43.9569 59.3899 43.6797C58.8415 43.062 58.0535 42.7355 57.1113 42.7355C56.2963 42.7355 55.5493 43.0297 55.0077 43.5639C54.7355 43.8323 54.5229 44.1525 54.3756 44.5155C54.2205 44.8981 54.1419 45.3198 54.1419 45.7689C54.1419 46.2183 54.2206 46.6409 54.3758 47.0251C54.5232 47.39 54.736 47.7121 55.0083 47.9826C55.551 48.5215 56.2978 48.8183 57.1113 48.8183Z" fill="#888C93"/>
<path d="M0.722656 45.478H11.8037V45.8814H0.722656V45.478Z" fill="#A0A3A9"/>
</svg>
