<svg width="48" height="48" viewBox="0 0 48 48" fill="none" xmlns="http://www.w3.org/2000/svg">
<g clip-path="url(#clip0_3924_15388)">
<path d="M47.647 46.2388H0.580078V-0.828125H47.647V46.2388ZM27.8753 29.7024V36.503C27.8753 37.9151 29.02 39.0599 30.4321 39.0599H39.2503C40.6624 39.0599 41.8072 37.9151 41.8072 36.503V29.7024C41.8072 28.2903 40.6624 27.1456 39.2503 27.1456H34.3633L29.1623 18.2872C30.2885 18.0198 31.1265 17.0081 31.1265 15.8001V8.90761C31.1265 7.49551 29.9818 6.35077 28.5696 6.35077H19.7515C18.3394 6.35077 17.1946 7.49551 17.1946 8.90761V15.8001C17.1946 16.9787 17.9923 17.9704 19.077 18.2664L13.8638 27.1456H8.97675C7.56464 27.1456 6.4199 28.2903 6.4199 29.7024V36.503C6.4199 37.9151 7.56464 39.0599 8.97675 39.0599H17.7949C19.207 39.0599 20.3518 37.9151 20.3518 36.503V29.7024C20.3518 28.1583 19.5589 27.1456 17.0618 27.1456L22.2219 18.357H26.1891L31.3491 27.1456C28.8338 26.9725 27.8092 28.6245 27.8753 29.7024Z" fill="#FF8A65"/>
</g>
<defs>
<clipPath id="clip0_3924_15388">
<rect width="47.0669" height="47.0669" fill="white" transform="translate(0.591797)"/>
</clipPath>
</defs>
</svg>
