<svg width="26" height="28" viewBox="0 0 26 28" fill="none" xmlns="http://www.w3.org/2000/svg">
<g clip-path="url(#clip0_4449_87491)">
<path d="M0.892578 7.14583C0.892578 5.85717 1.93725 4.8125 3.22591 4.8125H23.6666C24.9552 4.8125 25.9999 5.85717 25.9999 7.14583V20.8542C25.9999 22.1428 24.9552 23.1875 23.6666 23.1875H3.22591C1.93725 23.1875 0.892578 22.1428 0.892578 20.8542V7.14583Z" fill="#3D9635"/>
<path d="M5.56755 8.79794C5.53067 9.44106 5.4836 10.5786 5.91984 10.6941C6.44631 10.7544 6.15522 9.57319 6.34588 9.35881C6.38197 9.25381 6.44866 9.25381 6.45415 9.38594V10.3922C6.44663 10.499 6.47244 10.6054 6.5272 10.6934C6.58196 10.7814 6.66231 10.8457 6.75466 10.8752C6.89275 10.8647 6.98455 10.8699 7.03868 11.0406C7.06144 11.6181 7.08184 12.1947 7.10302 12.7722C7.10302 12.7722 7.42549 12.8929 7.4404 11.7992C7.4058 11.3663 7.39348 10.9316 7.40352 10.4972C7.40352 10.3764 7.52906 10.3651 7.61851 10.4316C7.7566 10.5523 7.81779 10.7002 8.03121 10.6398C8.3576 10.5243 8.5514 10.3327 8.55689 10.0133C8.54883 9.7081 8.49936 9.40601 8.41017 9.11731C8.42508 9.06219 8.34583 8.92569 8.36231 8.87056C8.42037 8.98606 8.50825 8.97469 8.52786 8.87056C8.49552 8.65797 8.39653 8.4651 8.24854 8.32631C8.13242 8.19944 7.96138 8.22744 7.89939 8.49694C7.89338 8.84179 7.98781 9.17952 8.16851 9.45944C8.22363 9.6129 8.24593 9.77857 8.23363 9.94331C8.19032 9.97329 8.1382 9.98312 8.08846 9.97068C8.03872 9.95825 7.99534 9.92454 7.96765 9.87681C7.96765 9.87681 7.7056 9.63006 7.7056 9.58019C7.76847 9.32521 7.76081 9.05499 7.68363 8.80494C7.65482 8.65332 7.59613 8.51075 7.5118 8.38756C7.44746 8.29394 7.35959 8.29394 7.318 8.38756C7.22535 8.7217 7.23251 9.08036 7.3384 9.40956C7.39646 9.63006 7.48983 9.76744 7.44746 9.76744C7.41058 9.89344 7.33762 9.86019 7.28426 9.71756C7.22073 9.40944 7.19044 9.09395 7.19403 8.77781C7.16971 8.53019 7.14382 8.00256 7.01436 7.86519C6.9359 7.73306 6.81742 7.79956 6.77898 7.92556C6.76955 8.16393 6.774 8.40272 6.79232 8.64044C6.86896 9.0216 6.9227 9.40804 6.95316 9.79719C6.96415 10.3414 6.70287 10.0334 6.71778 9.75869C6.7728 9.41327 6.76854 9.05934 6.70523 8.71569C6.66207 8.57219 6.61186 8.54069 6.50672 8.56694C6.42355 8.55644 6.21171 8.84781 6.15286 9.33081C6.12103 9.48701 6.09694 9.64504 6.08068 9.80419C6.05008 10.0509 5.91984 10.2268 5.82882 9.76569C5.75036 9.42969 5.70015 8.60544 5.56755 8.79794Z" fill="white"/>
<path d="M7.00432 11.4427C6.53826 11.7341 6.08711 11.9983 5.62891 12.2731C5.70623 11.9979 5.84774 11.7505 6.03895 11.5563C6.23017 11.3621 6.46422 11.2281 6.71715 11.168C6.99961 11.1793 6.92743 11.3053 7.00432 11.4427Z" fill="white"/>
<path d="M8.75448 7.80733C8.72444 7.81439 8.69522 7.82526 8.66739 7.83971C8.59608 7.86711 8.53705 7.92424 8.50268 7.99911C8.4683 8.07399 8.46126 8.16079 8.48301 8.24133C8.61561 9.25283 8.69956 10.022 8.83216 11.0282C8.8557 11.149 8.7741 11.303 8.67524 11.2907C8.50106 11.1428 8.4579 10.8401 8.16211 10.8532C8.0367 10.8807 7.92209 10.9511 7.83421 11.0546C7.74633 11.1581 7.68954 11.2896 7.67173 11.4307C7.63165 11.6481 7.63165 11.8722 7.67173 12.0896C7.7245 12.175 7.80241 12.2372 7.89198 12.2654C7.98154 12.2935 8.0771 12.2858 8.16211 12.2436C8.29157 12.178 8.39749 12.0135 8.44613 12.0511C8.47438 12.1176 8.44143 12.6452 7.83336 13.0468C7.45753 13.2551 7.16095 13.3093 6.99932 12.9252C6.90203 12.6837 7.00717 11.7711 6.76394 11.9802C6.03975 14.3217 8.4579 14.6516 8.72545 12.0791C8.7435 12.0073 8.79764 11.9365 8.8353 11.9522C8.85413 11.9636 8.8659 11.9907 8.8706 12.0458C8.81411 14.3707 7.00089 14.5247 6.69333 13.7958C6.61839 13.5418 6.58155 13.2757 6.58427 13.0083C6.58388 12.9137 6.55639 12.8218 6.50581 12.7458C6.43284 12.6802 6.33398 12.8613 6.31201 13.1746C6.28973 13.3604 6.28238 13.5481 6.29004 13.7355C6.38655 15.5826 8.72231 14.7907 9.10442 13.2682C9.17802 12.7892 9.19778 12.3019 9.16326 11.8175H9.17111L9.1766 11.8122C9.41198 12.1255 9.73524 11.8507 9.80428 11.7457C9.81206 11.7302 9.82302 11.7169 9.83627 11.707C9.84951 11.6971 9.86467 11.6908 9.8805 11.6887C9.89633 11.6866 9.91239 11.6886 9.92737 11.6948C9.94235 11.7009 9.95583 11.7108 9.9667 11.7238C10.0123 11.7646 10.0661 11.7921 10.1235 11.8041C10.1809 11.8161 10.24 11.8122 10.2957 11.7926C10.3514 11.7731 10.4019 11.7385 10.4428 11.692C10.4836 11.6456 10.5136 11.5886 10.53 11.5261C10.5712 11.2363 10.5974 10.9442 10.6085 10.6511C10.5166 10.6738 10.4303 10.7189 10.3559 10.7832C10.3463 10.7956 10.34 10.8108 10.3378 10.827C10.3284 10.904 10.319 10.9923 10.308 11.0746C10.3065 11.082 10.3047 11.0893 10.3025 11.0965C10.2973 11.1064 10.2893 11.1141 10.2798 11.1183C10.2685 11.1259 10.2556 11.1302 10.2425 11.1308C10.2293 11.1314 10.2162 11.1283 10.2044 11.1217C10.1926 11.1152 10.1824 11.1054 10.1749 11.0934C10.1674 11.0813 10.1627 11.0673 10.1613 11.0527C10.1064 10.7395 9.87647 10.6896 9.73602 11.1848C9.63952 11.2837 9.47083 11.2995 9.452 11.1621C9.47632 10.827 9.36804 10.7832 9.15385 10.9372C9.08637 10.2775 9.01576 9.65096 8.94671 8.99121C9.03773 8.99121 9.11697 9.07346 9.20014 8.94746C9.12435 8.55635 8.99606 8.18024 8.81961 7.83183C8.81427 7.82414 8.80851 7.81684 8.80234 7.80996C8.80234 7.80996 8.80234 7.80996 8.79607 7.80383H8.78979C8.78508 7.79858 8.77881 7.79858 8.77724 7.79333C8.77567 7.78808 8.75684 7.78721 8.74664 7.79333M8.09699 11.4045C8.1254 11.4016 8.15382 11.41 8.17731 11.428C8.20081 11.4461 8.21791 11.4727 8.22566 11.5033C8.23407 11.5328 8.23603 11.564 8.23139 11.5944C8.22675 11.6249 8.21564 11.6537 8.19898 11.6783C8.18015 11.7168 8.12052 11.7002 8.07345 11.7002C8.05006 11.7028 8.02652 11.6973 8.00603 11.6845C7.98554 11.6716 7.96908 11.6521 7.95889 11.6285C7.94242 11.5681 7.98871 11.5077 8.01068 11.4587L8.01852 11.4421C8.04109 11.4216 8.0682 11.4083 8.09699 11.4036" fill="white"/>
<path d="M10.3866 7.74609C10.3293 7.75126 10.2736 7.77006 10.2234 7.80122C10.1641 7.87007 10.1267 7.95864 10.1168 8.05342C10.1069 8.14821 10.125 8.244 10.1685 8.32622C10.2603 8.37522 10.3521 8.49597 10.2901 8.55634C10.0312 8.90634 9.35405 9.48559 9.32031 9.59584V9.60109V9.60634H9.3258C9.49285 9.63877 9.66353 9.64055 9.83109 9.61159V9.60634C10.1355 9.28141 10.4148 8.92841 10.6659 8.55109C10.6322 8.51259 10.5969 8.48547 10.5616 8.44697C10.5531 8.43997 10.5463 8.43086 10.5415 8.42038C10.5368 8.40989 10.5344 8.39832 10.5344 8.38659C10.5344 8.37486 10.5368 8.36329 10.5415 8.35281C10.5463 8.34233 10.5531 8.33322 10.5616 8.32622C10.6266 8.26004 10.666 8.16826 10.6714 8.07027C10.6768 7.97229 10.6478 7.8758 10.5906 7.80122C10.5272 7.76308 10.4553 7.74607 10.3835 7.75222M10.3513 8.05409C10.3944 8.04884 10.4439 8.10397 10.469 8.16959C10.4941 8.23522 10.4815 8.31309 10.4399 8.32972C10.3984 8.34634 10.3403 8.29122 10.3121 8.21947C10.2838 8.14772 10.3003 8.07072 10.3434 8.06022C10.3434 8.06022 10.3474 8.05409 10.3513 8.05409Z" fill="white"/>
<path d="M5.6786 13.1017C5.5628 13.3296 5.49048 13.5817 5.46618 13.8422C5.44188 14.1026 5.46611 14.3659 5.53737 14.6155C5.56901 14.6668 5.61413 14.706 5.66653 14.7276C5.71892 14.7492 5.77604 14.7522 5.83003 14.7362C5.99087 14.6487 6.06541 14.2366 6.02383 14.0879C5.96969 13.9776 5.92732 13.961 5.8724 14.0546C5.75941 14.3407 5.71155 14.1421 5.70135 13.9776C5.68794 13.7062 5.69819 13.434 5.73195 13.1647C5.76098 12.939 5.73195 13.0046 5.67546 13.0982" fill="white"/>
<path d="M16.7072 12.2792C16.4601 11.6028 16.1133 10.9378 16.0011 10.6849C15.8889 10.4321 15.0596 8.92093 14.9379 8.74505C14.6673 8.34343 15.3765 8.91568 14.8477 8.1133C14.6484 7.89893 14.6367 7.88755 14.4664 7.71168C14.3879 7.63468 14.1777 7.50255 14.1431 7.72305C14.1248 7.88229 14.1309 8.04385 14.1612 8.2008C14.2144 8.34699 14.286 8.48399 14.3738 8.60768C15.2621 10.0804 16.0344 11.6361 16.6821 13.2574C16.7967 13.1918 16.7723 12.3947 16.7041 12.2792" fill="white"/>
<path d="M15.6133 14.5291C15.5631 14.5947 15.7334 14.8966 15.9554 14.8913C16.325 14.8423 16.6514 14.5781 16.9519 13.8912C17.0761 13.6556 17.1537 13.393 17.1794 13.1212C17.2172 11.818 17.1339 10.514 16.9307 9.23005C16.9179 9.14044 16.9208 9.04891 16.9393 8.96055C16.9636 8.92205 17.0445 8.96055 17.0876 8.87305C17.1519 8.78555 16.9213 8.11968 16.7895 7.86155C16.7424 7.74605 16.7259 7.66905 16.6482 7.87205C16.5543 8.10307 16.51 8.35533 16.5188 8.6088C16.6953 10.1374 16.7487 11.4832 16.8663 13.0118C16.886 13.1687 16.8554 13.3282 16.78 13.4624C16.4662 13.9093 16.0678 14.2735 15.6133 14.5291Z" fill="white"/>
<path d="M19.8472 16.7663C19.5796 16.9588 19.5796 17.1837 19.7962 17.1889C20.0171 17.1952 20.2357 17.1372 20.4303 17.0206C20.625 16.9039 20.7891 16.7328 20.9064 16.5239C21.0126 16.2527 21.0733 15.9621 21.0853 15.6664C21.1355 14.2625 21.0682 12.8564 20.8844 11.4664C20.861 11.3362 20.8487 11.2038 20.8476 11.0709C20.8727 10.9992 20.9919 11.0814 21.0327 10.9939C21.0986 10.9169 20.7236 10.307 20.5902 10.048C20.5447 9.93254 20.529 9.85554 20.4506 10.0647C20.3623 10.2951 20.3351 10.549 20.3721 10.7962C20.5701 12.3707 20.694 13.9558 20.7432 15.5448C20.734 15.678 20.7089 15.8092 20.6687 15.935C20.5678 16.1283 20.4464 16.3072 20.307 16.4679C20.1846 16.5782 19.928 16.6884 19.8448 16.7707" fill="white"/>
<path d="M20.8069 13.0283C20.8022 12.6381 20.8156 12.3021 20.8022 12.0116C20.7889 11.7211 20.6853 10.6317 20.6524 10.4007C20.6194 10.1697 20.5786 9.81269 20.5284 9.53269C20.4989 9.36962 20.4834 9.20378 20.4821 9.03744C20.5017 8.96044 20.5873 9.04269 20.6257 8.94994C20.5815 8.52163 20.4629 8.10702 20.2765 7.72931C20.2279 7.61381 20.1361 7.65231 20.0263 7.83956C19.9203 7.96031 19.9596 8.23506 19.9988 8.49931C20.2898 10.2187 20.4312 11.9655 20.4209 13.7152C20.4052 13.8526 20.8132 13.2917 20.8069 13.0283Z" fill="white"/>
<path d="M18.8461 10.8772C18.679 10.8719 18.3283 10.4703 18.2263 10.2341C18.195 10.1185 18.202 9.99434 18.2459 9.88406C18.3087 9.83418 18.4028 9.77381 18.4742 9.83418C18.4742 9.83418 18.548 9.96106 18.5338 9.97681C18.6249 10.0319 18.6649 9.99868 18.6743 9.94968C18.6798 9.87268 18.646 9.82281 18.646 9.73531C18.6845 9.48768 18.9065 9.45531 18.9913 9.60843C19.051 9.74166 19.0829 9.88824 19.0846 10.0372C19.0846 10.1089 18.9936 10.0267 18.9426 10.0433C18.8916 10.0599 18.8791 10.1308 18.8751 10.1973C18.8642 10.3784 18.8485 10.6584 18.8461 10.8728" fill="white"/>
<path d="M15.7619 13.4646C15.8089 12.9308 15.747 11.8537 15.7422 11.5396C15.7266 10.8037 15.6285 9.38006 15.5853 9.14293C15.5328 8.69231 15.7313 9.19281 15.7022 8.92943C15.6147 8.50752 15.4463 8.11172 15.2087 7.76918C15.1342 7.63706 15.1373 7.60993 15.0196 7.80243C14.9442 8.09788 14.9497 8.41173 15.0353 8.70368C15.1956 9.56633 15.3005 10.4406 15.3492 11.3199C15.3995 12.2461 15.4058 13.1746 15.368 14.1016C15.4943 14.1016 15.696 13.8391 15.7658 13.4637" fill="white"/>
<path d="M21.3801 12.616C21.0874 11.9948 20.641 11.2694 20.5233 11.0226C20.4056 10.7759 19.3989 8.92789 19.2726 8.76339C18.9046 8.28477 19.4413 8.68639 19.2036 8.30664C19.0753 8.11543 18.9296 7.93949 18.7689 7.78164C18.6834 7.71601 18.6292 7.57864 18.601 7.80352C18.5859 8.00459 18.5815 8.20648 18.5877 8.40814C18.6072 8.54486 18.6577 8.67376 18.7344 8.78264C19.7292 10.3051 20.6124 11.9144 21.3754 13.5951C21.4875 13.5295 21.4491 12.7324 21.3801 12.6221" fill="white"/>
<path d="M17.8107 18.5C17.7589 18.5174 17.7126 18.5507 17.6769 18.5961C17.6412 18.6415 17.6177 18.6971 17.6091 18.7567C17.6004 18.8163 17.6069 18.8774 17.6279 18.933C17.6488 18.9886 17.6834 19.0366 17.7276 19.0714C14.976 19.0714 10.754 19.0171 9.8525 19.0171C9.34408 19.0171 7.74271 18.9401 7.71289 18.9401C7.87217 19.2108 8.09625 19.4263 8.35972 19.5622C8.6232 19.6982 8.91554 19.7491 9.20364 19.7092C10.4261 19.7092 16.0862 19.6926 17.6946 19.6926C17.6541 19.815 17.6423 19.9468 17.6601 20.0757C17.678 20.2046 17.7249 20.3263 17.7966 20.4294L17.8037 20.4346C17.8044 20.4367 17.8057 20.4384 17.8074 20.4396C17.8091 20.4407 17.8111 20.4411 17.8131 20.4408H17.8178C17.9253 20.4731 17.9747 20.3742 18.0092 20.3086C18.4206 20.3347 18.833 20.3329 19.2442 20.3034C19.3046 20.4128 19.3658 20.5178 19.4796 20.5011C19.6797 20.446 19.8374 20.4189 19.8444 19.907C19.8444 19.907 19.8233 19.039 19.3674 19.0941C19.2591 19.1108 18.9578 19.1484 18.9578 19.1484C18.6071 19.0994 18.3482 19.0941 17.9551 19.0714C17.992 19.0171 18.0548 18.7809 17.9771 18.6977C17.9641 18.6857 17.949 18.6767 17.9329 18.6711C17.9167 18.6656 17.8998 18.6636 17.8829 18.6654H17.8751C17.8751 18.6654 17.868 18.6593 17.8664 18.654V18.6488C17.8486 18.6004 17.834 18.5507 17.8225 18.5H17.8139M18.0006 19.7425C18.4 19.7644 18.7766 19.7478 19.1775 19.7696C19.2022 19.8067 19.2146 19.8521 19.2126 19.8983C19.2106 19.9444 19.1943 19.9883 19.1665 20.0225C19.1665 20.0286 19.1665 20.0286 19.161 20.0286H19.1508C19.0206 20.0225 18.9461 20.0225 18.8158 20.0172C18.8158 20.0059 18.8111 20.0006 18.8111 19.9901C18.7797 19.8746 18.5569 19.8851 18.5035 19.9788V19.984V19.9954V20.0059C18.5025 20.0114 18.5025 20.017 18.5035 20.0225C18.3325 20.0349 18.1609 20.0275 17.9912 20.0006C17.9418 19.9236 17.9473 19.781 18.0077 19.7425" fill="white"/>
<path d="M10.8486 8.27469C10.5811 9.23106 11.0055 10.2872 11.2943 10.1874C11.5061 10.2916 11.6387 9.78669 11.7258 9.23631C11.7862 9.08231 11.8301 9.06131 11.8607 9.14269C11.8521 9.87944 11.9023 10.0448 12.053 10.2644C12.0933 10.3129 12.142 10.3517 12.1961 10.3786C12.2502 10.4054 12.3087 10.4198 12.3679 10.4208C12.4272 10.4218 12.486 10.4093 12.5408 10.3843C12.5956 10.3592 12.6453 10.322 12.6869 10.2749C12.7089 10.2531 12.949 9.95119 12.949 9.95119C12.9617 9.9329 12.9778 9.91792 12.9963 9.90725C13.0147 9.89659 13.035 9.89051 13.0557 9.88943C13.0764 9.88835 13.0971 9.89229 13.1164 9.90099C13.1356 9.90969 13.1529 9.92293 13.1671 9.93981C13.2456 10.0273 13.2346 10.1874 13.4025 10.2898C13.4917 10.3288 13.5894 10.3366 13.6826 10.312C13.7758 10.2875 13.8601 10.2318 13.9242 10.1524C14.0208 9.94944 14.0419 9.87769 14.0859 9.80244C14.1557 9.68694 14.271 9.73681 14.271 9.77531C14.2608 9.84094 14.1926 9.90131 14.2381 10.0168C14.3213 10.0938 14.3393 10.0448 14.3887 10.0282C14.559 9.92319 14.6869 9.46206 14.6869 9.46206C14.6924 9.28706 14.6171 9.30281 14.5645 9.34131C14.5119 9.37981 14.4962 9.40694 14.4303 9.45681C14.3519 9.46731 14.1863 9.53906 14.1086 9.38506C14.0255 9.19781 14.0255 8.93444 13.9619 8.74719C13.9619 8.73669 13.8544 8.45581 13.9548 8.43394C14.0043 8.44531 14.1118 8.48381 14.1306 8.36831C14.184 8.25806 14.0168 7.93956 13.9023 7.78556C13.8814 7.75324 13.8542 7.72665 13.8228 7.70778C13.7913 7.68892 13.7564 7.67828 13.7207 7.67668C13.6851 7.67508 13.6495 7.68255 13.6168 7.69854C13.5841 7.71452 13.5551 7.73859 13.5319 7.76894C13.466 7.86734 13.4313 7.98737 13.4331 8.11019C13.4184 8.18976 13.4188 8.27187 13.4342 8.35126C13.4496 8.43066 13.4797 8.5056 13.5225 8.57131C13.6797 8.85186 13.7517 9.18133 13.7281 9.51106C13.7013 9.56489 13.6619 9.6096 13.6141 9.64041C13.5662 9.67123 13.5118 9.68701 13.4566 9.68606C13.386 9.66419 13.2683 9.62569 13.2056 9.05431C13.2205 8.60416 13.1748 8.15406 13.0698 7.71906C13.0157 7.54406 12.9788 7.36906 12.8486 7.67444C12.7913 7.76948 12.7544 7.87797 12.7408 7.99147C12.7272 8.10498 12.7372 8.22045 12.7701 8.32894C12.8703 8.65556 12.8988 9.00423 12.8533 9.34569C12.8085 9.444 12.756 9.5377 12.6963 9.62569C12.6584 9.68071 12.6027 9.71719 12.5411 9.72747C12.4796 9.73774 12.4168 9.72102 12.366 9.68081C12.3102 9.64467 12.2631 9.59392 12.2288 9.53294C12.1945 9.47197 12.174 9.40259 12.1691 9.33081C12.1943 8.95685 12.1853 8.58101 12.1424 8.20906C12.064 7.99994 11.929 8.07694 11.8733 8.13731C11.6111 8.50459 11.4406 8.94257 11.379 9.40694C11.3005 9.71494 11.2221 9.62656 11.164 9.50056C11.0259 9.34131 11.0157 8.06556 10.8502 8.27556" fill="white"/>
<path d="M11.7537 10.2565C11.7537 10.2618 11.7537 10.2618 11.7459 10.2618V10.267C11.7286 10.2784 11.7059 10.3169 11.6596 10.3607C11.6203 10.4189 11.5924 10.4856 11.5775 10.5566C11.5627 10.6275 11.5612 10.7012 11.5733 10.7728C11.5733 10.8008 11.72 11.2978 11.844 11.6574C11.9478 12.0439 11.9828 12.4494 11.9467 12.8509C11.7476 13.3667 11.4134 13.8034 10.9879 14.1039C10.926 14.1391 10.8574 14.1574 10.7879 14.1574C10.7183 14.1574 10.6498 14.1391 10.5878 14.1039V14.0987C10.5493 14.0653 10.5191 14.0215 10.5002 13.9714C10.4812 13.9213 10.4741 13.8666 10.4795 13.8125C10.9083 13.517 11.245 13.0813 11.4438 12.5648C11.5378 12.275 11.5469 11.9594 11.4697 11.6635C11.4454 11.5135 11.3892 11.3722 11.3057 11.2514V11.2453C11.3598 11.2129 11.4987 11.3442 11.5223 11.2619C11.4823 11.0261 11.387 10.8063 11.2461 10.6249C11.2276 10.5945 11.2032 10.5692 11.1747 10.5508C11.1462 10.5324 11.1143 10.5214 11.0815 10.5188C11.0487 10.5161 11.0157 10.5217 10.9851 10.5352C10.9545 10.5488 10.927 10.5698 10.9048 10.5969C10.7902 10.6792 10.7659 10.9705 10.8193 11.2295C10.882 11.4159 11.0546 11.4492 11.1723 11.8342V11.8394C11.1951 11.9728 11.1881 12.1105 11.1519 12.2402C10.9466 12.5577 10.7035 12.8426 10.4293 13.0872L10.4246 13.0924V13.0977H10.4175V13.0924C10.4201 13.0505 10.4201 13.0084 10.4175 12.9664C10.4175 12.8562 10.4528 12.5919 10.4505 12.5429V12.5377C10.2449 12.7074 10.1743 13.2245 10.1367 13.3785C9.61174 13.7425 9.12076 14.164 8.67101 14.6368C8.49134 14.9868 9.90598 14.2299 10.0692 14.1424C10.0692 14.1424 10.0692 14.1424 10.0755 14.1477C10.1054 14.2613 10.1478 14.3703 10.2018 14.4723C10.284 14.6063 10.4016 14.7085 10.5383 14.7646C10.6749 14.8208 10.8239 14.8281 10.9644 14.7855C11.4291 14.5347 11.8144 14.1322 12.0691 13.6314C12.1107 13.5544 12.1782 13.494 12.2386 13.5544C12.385 13.8734 12.6098 14.1394 12.8867 14.3213C13.1636 14.5032 13.4811 14.5935 13.8023 14.5817C13.9789 14.313 13.8957 14.1757 13.8235 14.1258C13.8 14.1039 13.4422 13.928 13.3873 13.7522C13.3535 13.5929 13.4367 13.4494 13.6085 13.34C14.0993 13.281 14.583 13.1637 15.0514 12.99C15.0679 12.7737 15.1212 12.5629 15.2083 12.3688C15.2254 12.325 15.2524 12.287 15.2868 12.2585V12.2533V12.2489V12.2375L15.2083 12.1772L13.6391 12.1667C13.6235 12.1595 13.6087 12.15 13.5952 12.1387V12.1334V12.1282V12.122V12.1168V12.1115V12.1063C13.6076 12.0879 13.6249 12.0745 13.6446 12.0678C14.022 12.0074 14.6858 11.8692 14.7282 11.0615C14.7397 10.9707 14.7344 10.8782 14.7126 10.7898C14.6908 10.7013 14.6531 10.6188 14.6016 10.5472C14.5502 10.4756 14.4861 10.4166 14.4134 10.3737C14.3407 10.3307 14.2609 10.3049 14.1789 10.2977C14.0218 10.3352 13.8839 10.4393 13.7942 10.588C13.7045 10.7367 13.67 10.9183 13.698 11.0948C13.6846 11.1989 13.7286 11.4133 13.6407 11.4352C13.0632 11.5069 12.434 11.9602 12.4112 12.2822H12.4034V12.2874H12.3955L12.3892 12.2822C12.3593 12.2622 12.3356 12.2324 12.3216 12.1968C12.3075 12.1612 12.3038 12.1216 12.3108 12.0835C12.2842 11.4984 12.149 10.9257 11.9138 10.4018C11.8353 10.2977 11.7977 10.2592 11.7733 10.2539H11.7639M14.0565 10.974C14.1003 10.9688 14.1441 10.9825 14.1789 11.0125C14.2066 11.028 14.2302 11.0513 14.2471 11.0802C14.2641 11.1091 14.2738 11.1425 14.2754 11.177V11.1884V11.1937V11.1989C14.2754 11.1989 14.2699 11.2042 14.266 11.2103C14.2354 11.2488 14.1687 11.2427 14.1013 11.1937C14.0751 11.1774 14.0528 11.1545 14.036 11.1268C14.0193 11.0992 14.0086 11.0675 14.0047 11.0344V11.0283C14.0047 11.0178 14.0071 11.0125 14.0118 11.0125V11.0012C14.0118 10.9959 14.0118 10.9959 14.0197 10.9898C14.0247 10.9845 14.0306 10.9804 14.0371 10.9777C14.0435 10.975 14.0496 10.9737 14.0565 10.974ZM12.5987 12.6365H12.6168C12.8331 12.6872 13.0527 12.7182 13.2735 12.7293C13.4555 12.7459 13.545 12.9218 13.3755 12.9988C13.206 13.0758 13.046 13.1257 13.046 13.4363C13.0686 13.522 13.0686 13.6131 13.046 13.6988C13.0459 13.7011 13.0452 13.7034 13.0439 13.7053C13.0427 13.7072 13.0409 13.7086 13.0389 13.7093V13.7154V13.7207H13.035L13.0271 13.7259C13.0267 13.7276 13.0257 13.7291 13.0245 13.7302C13.0232 13.7313 13.0217 13.7319 13.0201 13.732C12.9785 13.7373 12.9204 13.6822 12.8757 13.6603C12.7557 13.5681 12.6549 13.4483 12.5799 13.309C12.5049 13.1697 12.4576 13.0141 12.441 12.8527C12.4389 12.8266 12.4414 12.8003 12.4485 12.7753C12.4556 12.7503 12.4671 12.7272 12.4823 12.7072C12.4975 12.6873 12.5161 12.6709 12.537 12.6591C12.558 12.6472 12.5808 12.6401 12.6042 12.6383" fill="white"/>
<path d="M7.54447 8.28348C7.7265 8.38761 8.06466 8.34386 8.05054 7.98073C8.05054 7.94748 8.04505 7.83811 8.04269 7.80573C8.00738 7.69636 7.9046 7.71823 7.88577 7.83373C7.87871 7.86611 7.89676 7.92736 7.87165 7.94923C7.84654 7.97111 7.79554 7.96148 7.79554 7.85998C7.79369 7.82814 7.7833 7.79766 7.76573 7.77248C7.76067 7.76649 7.75439 7.76193 7.74743 7.75919C7.74047 7.75645 7.73303 7.75561 7.72571 7.75673C7.70139 7.76198 7.70139 7.76723 7.69041 7.79436C7.68112 7.82237 7.67634 7.85199 7.67628 7.88186C7.67157 7.92036 7.65981 7.93086 7.63862 7.93698C7.61744 7.94311 7.62214 7.94223 7.60175 7.92561C7.58135 7.90898 7.57585 7.89848 7.57585 7.87398C7.57557 7.84457 7.57268 7.81526 7.56722 7.78648C7.55629 7.76987 7.54045 7.7581 7.5225 7.75323C7.42285 7.75323 7.41579 7.89673 7.42285 7.95098C7.41344 7.96236 7.4103 8.21348 7.54447 8.28698" fill="white"/>
<path d="M12.8477 11.1034C13.029 11.2076 13.4589 11.1472 13.3554 10.7954C13.3554 10.7622 13.3491 10.6528 13.3444 10.6204C13.3083 10.5111 13.2087 10.5382 13.1875 10.6484C13.182 10.6869 13.2016 10.7473 13.1757 10.7692C13.1498 10.7911 13.1019 10.7692 13.1035 10.6703C13.1017 10.64 13.0912 10.6112 13.0737 10.5881C13.0686 10.5818 13.0622 10.5771 13.0551 10.5742C13.048 10.5713 13.0404 10.5703 13.0329 10.5714C13.0094 10.5767 13.0094 10.5819 12.9952 10.6099C12.9876 10.6366 12.9831 10.6642 12.9819 10.6922C12.9819 10.7307 12.9678 10.7421 12.9458 10.7473C12.9238 10.7526 12.9301 10.7526 12.9097 10.7359C12.8893 10.7193 12.883 10.7141 12.883 10.6869C12.8841 10.6572 12.8801 10.6275 12.8713 10.5994C12.8662 10.5911 12.8598 10.5839 12.8522 10.5783C12.8447 10.5728 12.8362 10.5689 12.8273 10.5671C12.7293 10.5671 12.7246 10.7097 12.7277 10.7648C12.7222 10.7701 12.7175 11.0229 12.8509 11.0999" fill="white"/>
<path d="M15.9378 9.93612C16.1174 10.0402 16.4572 9.99124 16.443 9.62812C16.443 9.60099 16.4375 9.49074 16.4352 9.45837C16.3967 9.35337 16.2947 9.37524 16.2783 9.49074C16.2696 9.52399 16.2885 9.58437 16.2618 9.60099C16.2492 9.62287 16.1896 9.61149 16.192 9.50737C16.1885 9.47596 16.1782 9.44595 16.1622 9.41987C16.1499 9.41369 16.1363 9.41157 16.1229 9.41374C16.0986 9.41374 16.0986 9.41987 16.0845 9.44699C16.0763 9.47534 16.0716 9.50476 16.0704 9.53449C16.0704 9.56687 16.057 9.57824 16.0343 9.58349C16.0115 9.58874 16.0154 9.58874 15.999 9.57212C15.9912 9.56714 15.9848 9.56001 15.9802 9.55142C15.9757 9.54283 15.9732 9.53308 15.9731 9.52312C15.972 9.49149 15.9678 9.46009 15.9605 9.42949C15.9475 9.41862 15.9325 9.41114 15.9166 9.40762C15.8185 9.40762 15.8106 9.55024 15.8169 9.60012C15.8106 9.61062 15.8059 9.86262 15.9409 9.93524" fill="white"/>
<path d="M17.5323 12.8556C17.4241 13.0553 17.3584 13.2799 17.3402 13.5123C17.3219 13.7447 17.3517 13.9786 17.4272 14.1961C17.4951 14.4272 17.634 14.624 17.8195 14.7518C17.8466 14.7846 17.8804 14.8098 17.918 14.8253C17.9556 14.8407 17.9959 14.846 18.0357 14.8406C18.0755 14.8352 18.1136 14.8193 18.1468 14.7943C18.18 14.7693 18.2074 14.7358 18.2267 14.6967C18.411 14.4552 18.415 13.8444 18.5005 13.7237C18.5633 13.4988 18.7147 13.5364 18.7892 13.6362C18.8561 13.7527 18.9464 13.8503 19.0529 13.9214C19.0878 13.9678 19.1308 14.006 19.1791 14.0337C19.2275 14.0614 19.2803 14.0781 19.3345 14.0827C19.3888 14.0874 19.4433 14.0799 19.4949 14.0608C19.5465 14.0416 19.5941 14.0112 19.635 13.9713C19.7881 13.8631 19.8988 13.6943 19.9449 13.4988C20.0127 12.5734 20.0203 11.6438 19.9677 10.7172C19.9591 10.6515 19.7896 9.57353 19.7896 9.56303C19.7896 9.55253 19.7653 9.01353 19.748 8.88665C19.7433 8.83153 19.7331 8.81578 19.777 8.82103C19.8233 8.87615 19.828 8.8814 19.8555 8.8919C19.9018 8.90328 19.9434 8.8044 19.9159 8.71078C19.7739 8.3809 19.628 8.04578 19.4844 7.72203C19.4514 7.67215 19.4059 7.6284 19.3494 7.72728C19.3151 7.76645 19.2881 7.81285 19.2701 7.86379C19.252 7.91472 19.2433 7.96915 19.2443 8.0239C19.2576 8.26015 19.2906 8.50253 19.3024 8.73878C19.3604 9.13953 19.4177 9.5464 19.4758 9.95328C19.5291 10.816 19.5448 11.6079 19.5982 12.4707C19.5895 12.8329 19.5009 13.3229 19.4122 13.3667C19.4122 13.3667 19.2859 13.4655 19.198 13.3605C19.0782 13.1974 18.9731 13.0216 18.8842 12.8355C18.7547 12.6877 18.6684 12.7262 18.5758 12.8355C18.3485 13.2336 18.1674 13.6623 18.0368 14.1113C17.9905 14.1988 17.8657 14.2758 17.7277 14.106C17.5452 13.7239 17.478 13.2863 17.5362 12.8583" fill="white"/>
<path d="M16.0125 7.81151C16.1003 7.89607 16.1679 8.00373 16.209 8.12474C16.2501 8.24575 16.2634 8.37628 16.2479 8.50451C16.2157 8.75213 16.131 9.02951 16.069 8.98838C16.007 8.94726 16.1137 8.74076 16.051 8.51501C16.0125 8.36713 15.7936 8.10288 15.8156 8.02063C15.8065 7.99079 15.8051 7.95868 15.8118 7.92803C15.8184 7.89739 15.8327 7.86948 15.853 7.84756C15.8733 7.82563 15.8988 7.81061 15.9265 7.80422C15.9542 7.79784 15.9829 7.80037 16.0094 7.81151" fill="white"/>
<path d="M18.0564 13.1025C18.0709 12.7395 18.0593 12.3758 18.0219 12.0149C18.0125 11.7287 17.7622 9.37062 17.708 9.15099C17.6468 8.73887 17.9528 9.09586 17.9175 8.85436C17.8124 8.55161 17.5495 8.10624 17.4679 7.84286C17.4154 7.72736 17.4373 7.62849 17.3259 7.81487C17.2304 8.14827 17.1965 8.49981 17.2263 8.84824C17.5392 10.4821 17.7053 12.1467 17.7221 13.8174C17.8477 13.8174 17.9921 13.4604 18.0548 13.1025" fill="white"/>
<path d="M20.0604 10.6394C20.2111 10.7383 20.2958 11.2519 20.2801 11.3981C20.2519 11.6676 20.1742 11.9589 20.1169 11.9231C20.0597 11.8872 20.1295 11.5214 20.0997 11.4121C20.0644 11.2519 19.8643 10.9606 19.8855 10.8731C19.8455 10.6911 19.9734 10.6149 20.0604 10.6421" fill="white"/>
<path d="M9.85114 12.1628C9.9908 12.2293 10.0748 12.6081 10.0583 12.7184C10.03 12.9161 9.95549 13.1253 9.90136 13.1025C9.84722 13.0798 9.91313 12.8059 9.8841 12.7236C9.87311 12.5206 9.67696 12.4156 9.68088 12.3281C9.64401 12.1689 9.75934 12.1409 9.84957 12.1628" fill="white"/>
<path d="M6.08039 7.68546C6.28909 7.76246 6.30086 8.14746 6.28752 8.26208C6.25928 8.46596 6.18474 8.68558 6.1306 8.65846C6.07646 8.63133 6.1306 8.35571 6.10079 8.26821C6.07411 8.13783 5.89444 7.92696 5.91719 7.86133C5.87718 7.72396 5.99565 7.65746 6.08274 7.68633" fill="white"/>
<path d="M10.1922 9.49644C10.1107 9.56834 10.054 9.66954 10.0318 9.78281C10.0097 9.89609 10.0234 10.0144 10.0706 10.1177C10.0982 10.1634 10.1385 10.1978 10.1852 10.2156C10.2319 10.2334 10.2826 10.2338 10.3296 10.2166C10.4865 10.2437 10.5791 9.84819 10.5791 9.84819C10.5791 9.84819 10.5838 9.73794 10.3994 9.94707C10.3209 9.96894 10.3107 9.93044 10.2903 9.87531C10.2719 9.77223 10.2801 9.66544 10.3139 9.56732C10.3429 9.46844 10.2825 9.42469 10.1922 9.49644Z" fill="white"/>
<path d="M11.3859 7.53838C11.316 7.60164 11.2584 7.68012 11.2166 7.76903C11.1748 7.85793 11.1496 7.95541 11.1427 8.0555C11.1356 8.18675 11.116 8.18675 11.1866 8.27513C11.2392 8.36875 11.2902 8.35738 11.3922 8.2865C11.4445 8.24495 11.48 8.18207 11.4911 8.1115C11.5162 7.9575 11.3632 8.18238 11.342 8.01175C11.3208 7.84113 11.4063 7.79213 11.4989 7.63288C11.4989 7.52875 11.4989 7.45788 11.3844 7.53925" fill="white"/>
<path d="M12.3576 7.75235C12.3189 7.94953 12.2956 8.15007 12.2878 8.35172C12.2587 8.50047 12.4133 8.5661 12.4816 8.3736C12.5515 8.16436 12.5887 7.94326 12.5914 7.71997C12.56 7.49422 12.4345 7.5056 12.356 7.75235" fill="white"/>
<path d="M18.4469 11.6388C18.4688 11.6169 19.3044 10.8697 19.3044 10.8697C19.39 10.8312 19.3719 11.2547 19.3335 11.2485C19.0796 11.5612 18.7797 11.8234 18.4469 12.0238C18.4061 12.057 18.3645 11.7324 18.4469 11.6388Z" fill="white"/>
<path d="M19.2082 11.6353C19.3573 11.7289 19.4154 12.267 19.3989 12.4158C19.4044 12.7019 19.2569 12.932 19.1996 12.8997C19.1423 12.8673 19.2067 12.5427 19.1776 12.4272C19.1133 12.2521 19.0667 12.0695 19.0388 11.8829C18.9972 11.7009 19.1172 11.602 19.2082 11.6353Z" fill="white"/>
<path d="M14.2277 13.9608C14.2959 13.8639 14.375 13.7771 14.4631 13.7027C14.4901 13.688 14.5208 13.6838 14.5502 13.6908C14.5796 13.6978 14.6061 13.7155 14.6255 13.7412C14.6396 13.8401 14.5737 13.9389 14.5949 14.0763C14.6114 14.1314 14.6255 14.1979 14.7063 14.1699C14.7594 14.1175 14.8217 14.0778 14.8892 14.0532C14.9567 14.0287 15.0279 14.0199 15.0986 14.0273C15.2029 14.0273 15.2037 14.2469 15.141 14.2469C14.957 14.3049 14.779 14.384 14.6098 14.4832C14.5979 14.493 14.5844 14.5001 14.5701 14.5041C14.5557 14.5081 14.5408 14.5088 14.5262 14.5063C14.5116 14.5038 14.4976 14.498 14.485 14.4894C14.4724 14.4808 14.4615 14.4694 14.4529 14.4561C14.4367 14.4277 14.4269 14.3954 14.4243 14.3619C14.4217 14.3283 14.4264 14.2946 14.438 14.2636C14.4458 14.1533 14.4097 14.0886 14.3352 14.0991C14.2787 14.1428 14.2308 14.1647 14.2034 14.0877C14.1932 14.0273 14.1892 13.9941 14.2253 13.9608" fill="white"/>
<path d="M20.0914 14.2564C20.1152 14.2837 20.1285 14.3203 20.1285 14.3584C20.1285 14.3965 20.1152 14.433 20.0914 14.4603C20.0317 14.5321 19.9917 14.5644 19.9344 14.6353C19.9085 14.6957 19.8913 14.7832 19.9745 14.8103C20.1314 14.8654 20.4923 14.5741 20.4923 14.5627C20.5118 14.5432 20.5256 14.5175 20.5318 14.4891C20.5379 14.4606 20.5362 14.4308 20.5268 14.4034C20.4923 14.3544 20.417 14.3816 20.3652 14.3816C20.3393 14.3816 20.2593 14.3597 20.2977 14.2774C20.3244 14.2266 20.3465 14.173 20.3636 14.1173C20.3864 14.0464 20.3675 14.0027 20.2765 13.9633C20.2025 13.9497 20.1269 13.9497 20.0529 13.9633C19.9996 13.9799 19.9807 14.0132 19.9745 14.0902C19.9745 14.2109 20.038 14.2057 20.1 14.2547" fill="white"/>
</g>
<defs>
<clipPath id="clip0_4449_87491">
<rect width="25.1073" height="28" fill="white" transform="translate(0.892578)"/>
</clipPath>
</defs>
</svg>
