<svg width="40" height="40" viewBox="0 0 40 40" fill="none" xmlns="http://www.w3.org/2000/svg">
<path d="M0 4C0 1.79086 1.79086 0 4 0H36C38.2091 0 40 1.79086 40 4V36C40 38.2091 38.2091 40 36 40H4C1.79086 40 0 38.2091 0 36V4Z" fill="#EDA133"/>
<path d="M19.5834 27.4993C23.9556 27.4993 27.5 23.9549 27.5 19.5827C27.5 15.2104 23.9556 11.666 19.5834 11.666C15.2111 11.666 11.6667 15.2104 11.6667 19.5827C11.6667 23.9549 15.2111 27.4993 19.5834 27.4993Z" stroke="white" stroke-width="1.5" stroke-linecap="round" stroke-linejoin="round"/>
<path d="M28.3334 28.3327L26.6667 26.666" stroke="white" stroke-width="1.5" stroke-linecap="round" stroke-linejoin="round"/>
</svg>
