<svg width="38" height="385" viewBox="0 0 38 385" fill="none" xmlns="http://www.w3.org/2000/svg">
<g opacity="0.5">
<path d="M106.185 286.193C111.38 185.879 33.1915 89.0592 48.7816 -212.043C61.4139 -456.003 111.594 -519.122 119.269 -517.883M100.484 316.22C105.029 228.445 23.4287 117.313 39.0376 -184.14C52.2727 -439.75 111.732 -515.495 118.446 -514.411M94.7818 346.245C98.6775 271.011 13.6654 145.565 29.2923 -156.237C43.1304 -423.497 111.869 -511.866 117.623 -510.937M89.081 376.27C92.3272 313.574 3.9027 173.816 19.5474 -128.335C33.9883 -407.244 112.005 -508.241 116.802 -507.465M83.3788 406.299C85.976 356.14 -5.86031 202.068 9.8026 -100.432C24.8474 -390.993 112.143 -504.613 115.979 -503.993M77.678 436.323C79.6259 398.707 -15.6234 230.32 0.0580437 -72.5292C15.7056 -374.738 112.279 -500.985 115.157 -500.521M71.9764 466.35C73.2744 441.271 -25.3864 258.572 -9.6876 -44.6272C6.56387 -358.487 112.416 -497.358 114.334 -497.049M66.2744 496.375C66.9234 483.836 -35.1492 286.824 -19.4316 -16.7242C-2.57789 -342.234 112.553 -493.73 113.514 -493.575M112.69 -490.103C112.69 -490.103 -11.7197 -325.981 -29.177 11.1785C-44.9123 315.078 60.5734 526.401 60.5734 526.401" stroke="#EB971B" stroke-width="2.00452"/>
</g>
</svg>
