<svg width="272" height="1342" viewBox="0 0 272 1342" fill="none" xmlns="http://www.w3.org/2000/svg">
<g opacity="0.67">
<g opacity="0.3">
<path d="M370.071 566.462L278.84 573.639C278.649 572.506 278.063 571.472 277.103 570.847C275.378 569.724 273.162 570.393 272.166 572.338C271.171 574.283 271.764 576.782 273.489 577.905C275.214 579.028 277.429 578.358 278.425 576.413C278.658 575.959 278.796 575.474 278.864 574.991L369.521 567.859L378.566 580.534L500.518 563.759L500.375 562.424L379.08 579.099L370.055 566.467L370.071 566.462ZM274.199 576.519C273.145 575.833 272.783 574.308 273.391 573.12C273.999 571.932 275.351 571.523 276.405 572.209C277.458 572.895 277.821 574.42 277.213 575.608C276.604 576.796 275.252 577.205 274.199 576.519Z" fill="#F99F1B"/>
<path d="M389.564 607.496C391.289 608.619 393.504 607.949 394.5 606.004C395.496 604.059 394.902 601.56 393.177 600.437C391.453 599.314 389.237 599.984 388.241 601.929C387.883 602.628 387.741 603.389 387.771 604.139C381.615 605.349 328.979 613.397 300.603 617.689L284.414 601.511L246.983 601.972C246.81 600.803 246.221 599.721 245.24 599.082C243.515 597.959 241.299 598.629 240.303 600.574C239.307 602.519 239.901 605.018 241.626 606.141C243.351 607.264 245.566 606.594 246.562 604.649C246.777 604.23 246.913 603.775 246.98 603.322L283.968 602.867L300.223 619.103L300.493 619.061C303.854 618.548 380.03 607.019 388.028 605.439C388.314 606.278 388.836 607.007 389.57 607.484L389.564 607.496ZM242.34 604.773C241.286 604.087 240.924 602.562 241.532 601.374C242.141 600.186 243.493 599.778 244.546 600.463C245.6 601.149 245.962 602.674 245.354 603.862C244.746 605.05 243.393 605.459 242.34 604.773ZM392.474 601.812C393.527 602.498 393.89 604.023 393.281 605.211C392.673 606.399 391.321 606.807 390.267 606.121C389.214 605.435 388.852 603.911 389.46 602.722C390.068 601.534 391.42 601.126 392.474 601.812Z" fill="#F99F1B"/>
<path d="M274.529 523.605C273.744 523.094 272.832 522.966 271.958 523.22C271.078 523.486 270.355 524.118 269.902 525.003C269.449 525.888 269.335 526.917 269.561 527.902C270.028 529.868 271.959 531.126 273.703 530.599C274.582 530.333 275.305 529.701 275.758 528.816C276.212 527.931 276.325 526.902 276.1 525.917C275.864 524.925 275.304 524.109 274.519 523.598L274.529 523.605ZM273.49 529.669C272.822 529.871 272.129 529.745 271.571 529.382C271.014 529.019 270.571 528.405 270.392 527.651C270.029 526.127 270.828 524.566 272.181 524.157C273.533 523.749 274.917 524.65 275.279 526.175C275.641 527.699 274.842 529.26 273.49 529.669Z" fill="#F99F1B"/>
<path d="M241.158 490.448L250.21 472.767L368.914 464.515L380.709 476.714L445.121 467.963C445.587 469.043 446.334 469.979 447.315 470.618C449.969 472.346 453.374 471.317 454.907 468.324C456.439 465.33 455.527 461.49 452.872 459.762C450.218 458.034 446.813 459.063 445.281 462.056C444.541 463.501 444.384 465.153 444.709 466.669L381.109 475.313L369.35 463.153L249.814 471.469L249.497 471.496L240.129 489.794C237.863 488.707 235.163 489.651 233.898 492.12C232.533 494.787 233.339 498.216 235.714 499.763C238.09 501.31 241.12 500.394 242.492 497.715C243.756 495.246 243.141 492.143 241.162 490.467L241.158 490.448ZM452.163 461.148C454.146 462.439 454.827 465.305 453.682 467.542C452.537 469.778 449.995 470.546 448.012 469.255C446.029 467.964 445.348 465.098 446.493 462.861C447.638 460.625 450.18 459.857 452.163 461.148ZM236.414 498.37C234.72 497.267 234.135 494.805 235.113 492.895C236.091 490.985 238.274 490.325 239.968 491.428C241.661 492.531 242.252 494.981 241.268 496.903C240.285 498.825 238.108 499.473 236.414 498.37Z" fill="#F99F1B"/>
<path d="M120.029 488.16C121.971 489.424 124.447 488.676 125.568 486.486C125.861 485.915 126.021 485.305 126.086 484.695L151.111 482.43L156.655 469.423L183.406 466.636C183.57 467.985 184.245 469.248 185.381 469.987C187.323 471.252 189.799 470.503 190.92 468.314C192.041 466.124 191.378 463.331 189.436 462.067C187.494 460.803 185.018 461.551 183.897 463.741C183.647 464.23 183.501 464.756 183.419 465.293L155.873 468.153L150.329 481.16L126.023 483.365C125.812 482.11 125.152 480.95 124.089 480.258C122.147 478.993 119.67 479.742 118.549 481.931C117.428 484.121 118.092 486.914 120.034 488.178L120.029 488.16Z" fill="#F99F1B"/>
<path d="M250.95 555.683L246.992 556.29L247.498 560.487L251.456 559.881L250.95 555.683Z" fill="#F99F1B"/>
<path d="M239.036 557.53L235.078 558.137L235.584 562.334L239.542 561.727L239.036 557.53Z" fill="#F99F1B"/>
<path d="M227.169 559.335L223.211 559.941L223.717 564.139L227.675 563.532L227.169 559.335Z" fill="#F99F1B"/>
<path d="M215.282 561.138L211.324 561.745L211.83 565.942L215.788 565.336L215.282 561.138Z" fill="#F99F1B"/>
<path d="M203.39 562.973L199.432 563.58L199.938 567.777L203.896 567.171L203.39 562.973Z" fill="#F99F1B"/>
<path d="M191.484 564.806L187.525 565.413L188.031 569.61L191.989 569.004L191.484 564.806Z" fill="#F99F1B"/>
<path d="M214.664 494.94L179.926 500.711L185.043 539.886L219.781 534.115L214.664 494.94ZM181.73 502.243L213.326 496.988L217.986 532.619L186.39 537.874L181.73 502.243Z" fill="#F99F1B"/>
<path d="M209.083 503.419L187.439 507.016L190.628 531.424L212.272 527.828L209.083 503.419ZM189.065 508.385L207.868 505.253L210.645 526.458L191.842 529.59L189.065 508.385Z" fill="#F99F1B"/>
<path d="M203.346 512.132L195.217 513.484L196.416 522.652L204.545 521.3L203.346 512.132Z" fill="#F99F1B"/>
<path d="M172.663 436.379C174.388 437.502 176.604 436.832 177.6 434.887C177.975 434.153 178.131 433.338 178.066 432.551L214.639 429.76L229.006 440.807L293.79 432.298C294.086 433.065 294.595 433.738 295.287 434.189C297.012 435.312 299.228 434.642 300.224 432.697C301.219 430.752 300.626 428.253 298.901 427.13C297.176 426.007 294.96 426.677 293.965 428.622C293.583 429.367 293.438 430.189 293.497 430.988L229.321 439.412L214.974 428.379L177.768 431.223C177.472 430.456 176.969 429.771 176.277 429.32C174.552 428.197 172.337 428.867 171.341 430.812C170.345 432.757 170.939 435.256 172.663 436.379ZM298.191 428.516C299.245 429.202 299.607 430.727 298.999 431.915C298.391 433.103 297.038 433.512 295.985 432.826C294.931 432.14 294.569 430.615 295.177 429.427C295.786 428.239 297.138 427.83 298.191 428.516ZM175.573 430.695C176.627 431.381 176.989 432.906 176.381 434.094C175.773 435.282 174.421 435.69 173.367 435.004C172.314 434.318 171.951 432.794 172.56 431.605C173.168 430.417 174.52 430.009 175.573 430.695Z" fill="#F99F1B"/>
<g style="mix-blend-mode:overlay" opacity="0.38">
<path d="M383.343 617.685C379.914 615.452 375.515 616.781 373.535 620.648C373.005 621.685 372.71 622.798 372.619 623.918L309.957 633.313L292.431 667.545L237.361 672.735C236.762 671.242 235.773 669.946 234.43 669.072C231.001 666.839 226.603 668.168 224.623 672.035C222.643 675.902 223.822 680.863 227.251 683.095C230.68 685.328 235.078 683.999 237.058 680.132C237.75 678.781 238.053 677.301 238.007 675.858L294.135 670.564L311.702 636.251L372.899 627.083C373.418 628.974 374.525 630.657 376.168 631.727C379.597 633.959 383.995 632.63 385.975 628.763C387.955 624.896 386.776 619.936 383.347 617.703L383.343 617.685ZM228.642 680.351C226.555 678.993 225.84 675.98 227.044 673.627C228.249 671.274 230.92 670.467 233.007 671.825C235.093 673.184 235.809 676.197 234.604 678.55C233.4 680.902 230.728 681.71 228.642 680.351ZM377.564 628.971C375.478 627.613 374.762 624.6 375.967 622.247C377.171 619.894 379.843 619.087 381.929 620.445C384.016 621.804 384.732 624.817 383.527 627.169C382.323 629.522 379.651 630.329 377.564 628.971Z" fill="#F99F1B"/>
</g>
<g style="mix-blend-mode:overlay" opacity="0.38">
<path d="M162.747 515.974C159.318 513.741 154.919 515.07 152.94 518.937C152.409 519.974 152.115 521.087 152.023 522.207L89.3608 531.602L71.8354 565.834L16.7654 571.024C16.1663 569.531 15.1773 568.235 13.8346 567.361C10.4056 565.128 6.00692 566.457 4.02718 570.324C2.04745 574.191 3.22608 579.152 6.65509 581.384C10.0841 583.617 14.4828 582.288 16.4625 578.421C17.1542 577.07 17.4574 575.59 17.4113 574.147L73.5394 568.853L91.1066 534.54L152.303 525.372C152.822 527.263 153.93 528.946 155.572 530.016C159.001 532.248 163.4 530.919 165.379 527.052C167.359 523.185 166.18 518.225 162.751 515.992L162.747 515.974ZM8.04608 578.64C5.95976 577.282 5.24384 574.269 6.44838 571.916C7.65292 569.563 10.3247 568.756 12.411 570.115C14.4974 571.473 15.2133 574.486 14.0087 576.839C12.8042 579.192 10.1324 579.999 8.04608 578.64ZM156.969 527.26C154.882 525.902 154.167 522.889 155.371 520.536C156.576 518.183 159.247 517.376 161.334 518.734C163.42 520.093 164.136 523.106 162.931 525.458C161.727 527.811 159.055 528.619 156.969 527.26Z" fill="#F99F1B"/>
</g>
<g style="mix-blend-mode:overlay" opacity="0.38">
<path d="M17.5987 444.965C17.7497 446.042 18.2711 446.987 19.0497 447.618C19.9153 448.322 20.9574 448.519 21.9154 448.288L32.616 461.871L98.2417 460.541L98.2257 459.335C98.4849 460.389 99.0285 461.317 99.8218 461.974C100.743 462.729 101.871 463.028 102.993 462.827C104.115 462.626 105.103 461.933 105.773 460.894C106.442 459.855 106.708 458.583 106.529 457.318C106.351 456.053 105.737 454.938 104.816 454.183C104.698 454.091 104.569 453.992 104.445 453.911C103.598 453.36 102.615 453.154 101.644 453.33C100.522 453.531 99.5343 454.223 98.8646 455.263C98.4567 455.898 98.2261 456.617 98.1166 457.369L33.8653 458.678L24.2303 446.457C25.2078 444.655 24.8266 442.279 23.2798 441.024C23.1722 440.938 23.0749 440.859 22.9716 440.792C22.2589 440.328 21.4238 440.157 20.5934 440.299C19.6386 440.47 18.8005 441.058 18.2408 441.936C17.6752 442.825 17.4476 443.889 17.5987 444.965ZM99.7464 455.961C100.242 455.181 100.985 454.671 101.822 454.517C102.658 454.362 103.506 454.589 104.198 455.148C104.889 455.707 105.342 456.545 105.478 457.488C105.615 458.431 105.415 459.388 104.919 460.167C104.423 460.947 103.68 461.457 102.844 461.612C102.116 461.743 101.381 461.591 100.751 461.181C100.658 461.12 100.565 461.06 100.468 460.981C99.7761 460.422 99.3238 459.584 99.187 458.641C99.0502 457.697 99.2507 456.741 99.7464 455.961ZM19.3777 442.862C19.7215 442.325 20.2318 441.974 20.815 441.857C21.3924 441.751 21.9879 441.906 22.4642 442.294C23.4477 443.09 23.6797 444.654 22.9579 445.768C22.2881 446.807 21.0384 447.096 20.0676 446.464C20.0056 446.424 19.9333 446.377 19.8713 446.336C19.3951 445.949 19.0837 445.373 18.9798 444.715C18.8862 444.064 19.0175 443.404 19.3673 442.856L19.3777 442.862Z" fill="#F99F1B"/>
</g>
<g style="mix-blend-mode:overlay" opacity="0.38">
<path d="M35.8438 433.347C38.901 435.337 42.8272 434.151 44.5923 430.703C44.7295 430.435 44.8134 430.164 44.9136 429.887L104.502 425.34L139.238 457.958L140.275 457.841C146.037 457.213 196.738 451.679 201.511 450.237L202.456 449.951L224.5 410.228L309.372 401.379C310.139 403.727 311.567 405.806 313.633 407.151C318.332 410.211 324.37 408.396 327.089 403.085C329.809 397.774 328.183 390.969 323.484 387.909C318.784 384.85 312.74 386.676 310.027 391.976C309.407 393.187 309.039 394.47 308.863 395.783L221.573 404.891L199.294 445.019C192.944 446.258 161.946 449.836 140.798 452.141L106.128 419.582L44.8663 424.25C44.3363 422.865 43.4446 421.647 42.2052 420.84C39.1481 418.85 35.2218 420.036 33.4568 423.484C31.6917 426.932 32.7437 431.359 35.8009 433.35L35.8438 433.347ZM322.268 390.364C325.78 392.65 326.979 397.733 324.951 401.693C322.924 405.653 318.422 407.023 314.91 404.737C311.398 402.451 310.199 397.368 312.227 393.408C314.254 389.448 318.757 388.078 322.268 390.364ZM41.0019 423.272C42.8713 424.489 43.513 427.189 42.4337 429.298C41.3544 431.406 38.9595 432.129 37.0901 430.912C35.2207 429.695 34.579 426.994 35.6583 424.886C36.7376 422.778 39.1324 422.054 41.0019 423.272Z" fill="#F99F1B"/>
</g>
<path d="M205.405 181.309L296.636 174.131C296.827 175.265 297.413 176.299 298.374 176.924C300.098 178.047 302.314 177.378 303.31 175.433C304.306 173.487 303.712 170.989 301.987 169.866C300.262 168.743 298.047 169.412 297.051 171.357C296.818 171.812 296.68 172.296 296.612 172.78L205.955 179.912L196.91 167.236L74.942 184.016L75.0846 185.352L196.38 168.677L205.405 181.309ZM301.273 171.234C302.327 171.919 302.689 173.444 302.081 174.632C301.473 175.82 300.12 176.229 299.067 175.543C298.013 174.857 297.651 173.332 298.259 172.144C298.868 170.956 300.22 170.548 301.273 171.234Z" fill="#F99F1B"/>
<path d="M244.642 103.487C246.326 104.584 248.493 103.929 249.465 102.03C250.437 100.132 249.856 97.6882 248.172 96.5921C246.489 95.4959 244.322 96.1507 243.35 98.0492C242.378 99.9478 242.959 102.391 244.642 103.487ZM247.785 97.3492C249.107 98.2099 249.551 100.114 248.793 101.593C248.036 103.072 246.342 103.584 245.03 102.73C243.718 101.876 243.264 99.9656 244.022 98.4863C244.779 97.0071 246.473 96.4951 247.785 97.3492Z" fill="#F99F1B"/>
<path d="M242.829 100.382L179.144 109.918L161.607 144.173L105.146 149.498L105.246 150.836L162.324 145.463L179.885 111.161L242.978 101.705L242.829 100.382Z" fill="#F99F1B"/>
<path d="M185.902 140.268C184.177 139.145 181.961 139.814 180.965 141.759C179.97 143.705 180.563 146.203 182.288 147.326C184.013 148.449 186.229 147.78 187.224 145.835C187.582 145.136 187.724 144.374 187.695 143.625C193.85 142.415 246.486 134.366 274.862 130.075L291.051 146.253L328.483 145.792C328.656 146.96 329.245 148.042 330.226 148.681C331.951 149.804 334.166 149.135 335.162 147.19C336.158 145.245 335.564 142.746 333.84 141.623C332.115 140.5 329.899 141.169 328.903 143.115C328.689 143.534 328.552 143.989 328.485 144.442L291.497 144.897L275.242 128.66L274.973 128.702C271.611 129.216 195.435 140.744 187.438 142.324C187.151 141.485 186.629 140.757 185.896 140.279L185.902 140.268ZM333.142 142.986C334.195 143.672 334.558 145.197 333.949 146.385C333.341 147.573 331.989 147.981 330.936 147.295C329.882 146.609 329.52 145.084 330.128 143.896C330.736 142.708 332.088 142.3 333.142 142.986ZM182.992 145.952C181.938 145.266 181.576 143.741 182.184 142.553C182.792 141.365 184.145 140.956 185.198 141.642C186.252 142.328 186.614 143.853 186.006 145.041C185.397 146.229 184.045 146.638 182.992 145.952Z" fill="#F99F1B"/>
<path d="M188.357 212.698C188.247 212.86 188.121 213.026 188.025 213.212C187.029 215.157 187.623 217.656 189.348 218.779C191.073 219.902 193.288 219.233 194.284 217.287C195.28 215.342 194.686 212.844 192.962 211.721C191.774 210.947 190.347 211.044 189.254 211.807L177.9 200.066L113.106 208.864L113.138 209.15C112.807 208.157 112.196 207.278 111.318 206.706C109.284 205.382 106.677 206.169 105.502 208.464C104.328 210.758 105.02 213.71 107.055 215.034C109.089 216.359 111.706 215.578 112.887 213.272C113.388 212.294 113.531 211.207 113.389 210.167L177.505 201.455L188.363 212.687L188.357 212.698ZM192.258 213.095C193.311 213.781 193.674 215.306 193.065 216.494C192.457 217.682 191.105 218.091 190.052 217.405C188.998 216.719 188.636 215.194 189.244 214.006C189.852 212.818 191.204 212.409 192.258 213.095ZM107.591 213.986C106.073 212.998 105.549 210.793 106.426 209.081C107.302 207.369 109.257 206.778 110.776 207.766C112.294 208.755 112.818 210.96 111.941 212.672C111.065 214.384 109.11 214.975 107.591 213.986Z" fill="#F99F1B"/>
<path d="M208.195 324.261C206.522 323.171 204.371 323.821 203.405 325.708C203.19 326.127 203.054 326.582 202.998 327.042L169.247 329.62L149.66 311.23L149.413 311.256C148.118 311.391 117.678 314.711 114.989 315.523L114.761 315.592L102.279 338.09L54.1536 343.112C53.8422 341.434 52.9415 339.885 51.5162 338.957C48.8618 337.228 45.4569 338.257 43.9244 341.251C42.3919 344.244 43.3042 348.084 45.9586 349.812C48.613 351.54 52.0179 350.511 53.5504 347.518C54.0453 346.551 54.2566 345.493 54.2696 344.445L102.975 339.367L115.522 316.771C118.535 316.077 138.586 313.789 149.276 312.626L168.842 331.003L203.005 328.398C203.182 329.507 203.763 330.523 204.683 331.121C206.356 332.211 208.506 331.561 209.472 329.674C210.438 327.787 209.862 325.362 208.189 324.272L208.195 324.261ZM46.6638 348.408C44.6808 347.116 43.9998 344.25 45.1447 342.014C46.2896 339.778 48.8311 339.01 50.8141 340.301C52.7972 341.592 53.4782 344.458 52.3333 346.694C51.1883 348.931 48.6469 349.699 46.6638 348.408ZM205.285 329.945C204.18 329.225 203.8 327.627 204.438 326.38C205.076 325.134 206.493 324.706 207.599 325.425C208.704 326.145 209.083 327.743 208.445 328.99C207.807 330.236 206.39 330.664 205.285 329.945Z" fill="#F99F1B"/>
<path d="M196.623 65.7467C198.564 67.011 201.041 66.2627 202.162 64.073C203.283 61.8832 202.619 59.0907 200.678 57.8264C198.736 56.5622 196.26 57.3105 195.139 59.5002C194.018 61.6899 194.681 64.4825 196.623 65.7467Z" fill="#F99F1B"/>
<path d="M334.312 257.304L325.26 274.985L206.556 283.237L194.762 271.038L130.349 279.789C129.883 278.709 129.137 277.773 128.156 277.134C125.501 275.406 122.096 276.435 120.564 279.428C119.031 282.422 119.944 286.262 122.598 287.99C125.252 289.718 128.657 288.689 130.19 285.696C130.929 284.252 131.087 282.599 130.761 281.083L194.361 272.439L206.121 284.599L325.656 276.283L325.973 276.256L335.341 257.958C337.607 259.045 340.308 258.101 341.572 255.632C342.937 252.965 342.131 249.536 339.756 247.989C337.38 246.442 334.35 247.358 332.979 250.037C331.715 252.506 332.329 255.609 334.308 257.285L334.312 257.304ZM123.312 286.622C121.329 285.331 120.648 282.465 121.793 280.229C122.938 277.992 125.479 277.224 127.462 278.516C129.445 279.807 130.126 282.673 128.981 284.909C127.836 287.145 125.295 287.913 123.312 286.622ZM339.051 249.394C340.745 250.496 341.329 252.958 340.352 254.868C339.374 256.779 337.191 257.438 335.497 256.335C333.803 255.233 333.212 252.782 334.196 250.861C335.18 248.939 337.357 248.291 339.051 249.394Z" fill="#F99F1B"/>
<path d="M177.288 234.829C177.288 234.829 177.294 234.818 177.3 234.806C178.296 232.861 177.702 230.362 175.977 229.239C174.253 228.116 172.037 228.786 171.041 230.731C170.045 232.676 170.639 235.175 172.364 236.298C173.727 237.185 175.381 236.942 176.518 235.85L190.48 247.984L292.312 238.903L301.428 224.541L300.455 223.752L291.66 237.594L190.838 246.586L177.284 234.811L177.288 234.829ZM173.068 234.923C172.014 234.237 171.652 232.712 172.26 231.524C172.868 230.336 174.22 229.928 175.274 230.614C176.327 231.299 176.69 232.824 176.081 234.012C175.473 235.2 174.121 235.609 173.068 234.923Z" fill="#F99F1B"/>
<path d="M220.662 205.763C218.72 204.499 216.244 205.248 215.123 207.437C214.002 209.627 214.665 212.42 216.607 213.684C218.548 214.948 221.025 214.2 222.146 212.01C222.396 211.521 222.542 210.994 222.624 210.458L266.681 205.878C266.921 206.593 267.362 207.237 267.992 207.648C269.459 208.603 271.332 208.036 272.179 206.382C273.026 204.729 272.524 202.616 271.057 201.661C269.591 200.706 267.717 201.272 266.87 202.926C266.608 203.438 266.488 203.997 266.479 204.551L222.637 209.115C222.473 207.766 221.798 206.503 220.662 205.763ZM270.354 203.035C271.149 203.553 271.42 204.692 270.96 205.589C270.501 206.486 269.491 206.791 268.696 206.273C267.901 205.755 267.63 204.616 268.089 203.72C268.548 202.823 269.558 202.517 270.354 203.035Z" fill="#F99F1B"/>
<path d="M89.0513 289.799C89.2065 290.195 89.4611 290.531 89.8123 290.76C90.7108 291.345 91.8512 291 92.37 289.987C92.8888 288.974 92.5832 287.688 91.6847 287.103C90.7861 286.518 89.6457 286.862 89.1269 287.875C89.0315 288.062 88.973 288.257 88.9352 288.465L60.2425 291.681C60.1086 291.485 59.9362 291.31 59.7297 291.176C58.8828 290.625 57.8075 290.949 57.3185 291.905C56.8296 292.86 57.1177 294.072 57.9646 294.624C58.8115 295.175 59.8868 294.85 60.3757 293.895C60.5188 293.616 60.594 293.307 60.5997 293L89.0556 289.817L89.0513 289.799Z" fill="#F99F1B"/>
<path d="M94.7082 253.685L90.75 254.292L91.2559 258.489L95.214 257.882L94.7082 253.685Z" fill="#F99F1B"/>
<path d="M106.579 251.868L102.621 252.475L103.127 256.672L107.085 256.065L106.579 251.868Z" fill="#F99F1B"/>
<path d="M118.472 250.052L114.514 250.659L115.02 254.856L118.978 254.25L118.472 250.052Z" fill="#F99F1B"/>
<path d="M130.362 248.222L126.404 248.829L126.91 253.026L130.868 252.42L130.362 248.222Z" fill="#F99F1B"/>
<path d="M142.253 246.401L138.295 247.008L138.801 251.205L142.759 250.598L142.253 246.401Z" fill="#F99F1B"/>
<path d="M154.144 244.572L150.186 245.179L150.691 249.376L154.65 248.769L154.144 244.572Z" fill="#F99F1B"/>
<path d="M172.786 86.1941L168.828 86.8008L169.334 90.998L173.292 90.3913L172.786 86.1941Z" fill="#F99F1B"/>
<path d="M184.659 84.3767L180.701 84.9834L181.207 89.1806L185.165 88.5739L184.659 84.3767Z" fill="#F99F1B"/>
<path d="M196.564 82.5681L192.605 83.1748L193.111 87.372L197.069 86.7653L196.564 82.5681Z" fill="#F99F1B"/>
<path d="M208.452 80.738L204.494 81.3447L205 85.542L208.958 84.9353L208.452 80.738Z" fill="#F99F1B"/>
<path d="M220.333 78.9099L216.375 79.5166L216.881 83.7138L220.839 83.1071L220.333 78.9099Z" fill="#F99F1B"/>
<path d="M232.234 77.0867L228.275 77.6934L228.781 81.8906L232.739 81.2839L232.234 77.0867Z" fill="#F99F1B"/>
<path d="M154.369 128.481L150.157 96.2782L121.602 101.028L125.814 133.23L154.369 128.481ZM149.057 97.9693L152.88 127.247L126.918 131.557L123.096 102.28L149.057 97.9693Z" fill="#F99F1B"/>
<path d="M148.2 123.315L145.581 103.253L127.792 106.207L130.411 126.268L148.2 123.315ZM144.577 104.758L146.85 122.187L131.394 124.75L129.122 107.321L144.577 104.758Z" fill="#F99F1B"/>
<path d="M140.844 110.429L134.166 111.54L135.151 119.071L141.829 117.96L140.844 110.429Z" fill="#F99F1B"/>
<path d="M230.776 321.496L226.896 321.94L227.276 326.155L231.155 325.71L230.776 321.496Z" fill="#F99F1B"/>
<path d="M242.42 320.16L238.541 320.604L238.921 324.819L242.8 324.374L242.42 320.16Z" fill="#F99F1B"/>
<path d="M254.1 318.774L250.221 319.219L250.601 323.433L254.48 322.988L254.1 318.774Z" fill="#F99F1B"/>
<g style="mix-blend-mode:overlay" opacity="0.38">
<path d="M192.13 130.067C195.559 132.299 199.958 130.97 201.938 127.103C202.468 126.067 202.763 124.954 202.854 123.833L265.516 114.439L283.042 80.2069L338.112 75.0168C338.711 76.5095 339.7 77.8056 341.043 78.6798C344.472 80.9124 348.87 79.5833 350.85 75.7163C352.83 71.8493 351.651 66.8888 348.222 64.6563C344.793 62.4237 340.394 63.7528 338.415 67.6198C337.723 68.9709 337.42 70.4507 337.466 71.894L281.338 77.1873L263.771 111.501L202.574 120.669C202.055 118.778 200.948 117.094 199.305 116.025C195.876 113.792 191.478 115.121 189.498 118.988C187.518 122.855 188.697 127.816 192.126 130.048L192.13 130.067ZM346.831 67.4001C348.917 68.7585 349.633 71.7716 348.429 74.1243C347.224 76.4771 344.553 77.2845 342.466 75.9261C340.38 74.5677 339.664 71.5547 340.869 69.2019C342.073 66.8491 344.745 66.0418 346.831 67.4001ZM197.903 118.792C199.989 120.15 200.705 123.163 199.5 125.516C198.296 127.869 195.624 128.676 193.538 127.318C191.451 125.96 190.735 122.947 191.94 120.594C193.144 118.241 195.816 117.434 197.903 118.792Z" fill="#F99F1B"/>
</g>
<g style="mix-blend-mode:overlay" opacity="0.38">
<path d="M91.8672 325.612C91.651 324.555 91.0851 323.643 90.2664 323.063C89.365 322.43 88.3138 322.304 87.3629 322.601L75.9151 309.806L10.4943 315.82L10.5798 317.024C10.2658 315.997 9.6776 315.102 8.83824 314.508C7.8809 313.823 6.73829 313.607 5.61738 313.887C4.5068 314.173 3.55859 314.922 2.95515 316.02C2.34735 317.1 2.14991 318.4 2.40383 319.653C2.65776 320.905 3.32216 321.974 4.29579 322.655C4.41973 322.736 4.554 322.823 4.67794 322.904C5.55468 323.397 6.54674 323.53 7.5107 323.288C8.62128 323.002 9.56949 322.253 10.1729 321.155C10.5394 320.492 10.7391 319.753 10.7954 318.997L74.8473 313.102L85.1509 324.609C84.2766 326.478 84.7881 328.814 86.4049 329.96C86.5185 330.034 86.6218 330.101 86.725 330.169C87.4615 330.586 88.2999 330.697 89.1232 330.488C90.0605 330.244 90.8692 329.606 91.3832 328.682C91.8972 327.759 92.0672 326.674 91.8569 325.605L91.8672 325.612ZM9.26724 320.503C8.81287 321.31 8.10947 321.877 7.2802 322.098C6.45691 322.307 5.60549 322.141 4.87377 321.633C4.15835 321.121 3.65558 320.328 3.45957 319.393C3.27389 318.464 3.41085 317.497 3.87117 316.679C4.32554 315.872 5.02894 315.305 5.8582 315.084C6.57343 314.897 7.32156 314.996 7.97544 315.36C8.0684 315.42 8.16135 315.481 8.26464 315.548C8.98006 316.061 9.48283 316.854 9.67884 317.789C9.86452 318.717 9.72756 319.684 9.26724 320.503ZM90.2149 327.844C89.9021 328.401 89.4109 328.796 88.8363 328.95C88.2618 329.104 87.6646 328.979 87.1705 328.626C86.1408 327.894 85.8274 326.354 86.4769 325.193C87.0907 324.102 88.3289 323.727 89.3252 324.283C89.3871 324.323 89.4594 324.37 89.5214 324.411C90.0156 324.763 90.3654 325.317 90.5019 325.965C90.6384 326.613 90.5337 327.275 90.2149 327.844Z" fill="#F99F1B"/>
</g>
<g style="mix-blend-mode:overlay" opacity="0.38">
<path d="M539.631 314.405C536.574 312.414 532.647 313.601 530.882 317.048C530.745 317.316 530.661 317.588 530.561 317.864L470.973 322.411L436.237 289.793L435.199 289.91C429.438 290.538 378.736 296.072 373.963 297.515L373.018 297.8L350.974 337.523L266.103 346.372C265.336 344.024 263.908 341.945 261.842 340.6C257.142 337.541 251.104 339.355 248.385 344.667C245.666 349.978 247.291 356.782 251.991 359.842C256.69 362.902 262.734 361.075 265.448 355.776C266.068 354.564 266.435 353.282 266.612 351.968L353.901 342.861L376.181 302.732C382.53 301.493 413.529 297.915 434.677 295.611L469.347 328.17L530.608 323.501C531.138 324.887 532.03 326.104 533.269 326.911C536.327 328.902 540.253 327.715 542.018 324.268C543.783 320.82 542.731 316.392 539.674 314.402L539.631 314.405ZM253.211 357.406C249.699 355.119 248.5 350.037 250.527 346.077C252.555 342.117 257.057 340.747 260.569 343.033C264.081 345.319 265.279 350.402 263.252 354.362C261.225 358.322 256.722 359.692 253.211 357.406ZM534.473 324.48C532.603 323.263 531.962 320.562 533.041 318.454C534.12 316.346 536.515 315.622 538.384 316.839C540.254 318.056 540.896 320.757 539.816 322.865C538.737 324.973 536.342 325.697 534.473 324.48Z" fill="#F99F1B"/>
</g>
<g style="mix-blend-mode:overlay" opacity="0.38">
<path d="M213.661 153.508L209.898 153.501L210.105 157.738L213.868 157.745L213.661 153.508Z" fill="#F99F1B"/>
<path d="M224.665 152.438L220.902 152.431L221.109 156.668L224.872 156.675L224.665 152.438Z" fill="#F99F1B"/>
<path d="M235.669 151.355L231.906 151.348L232.113 155.585L235.876 155.592L235.669 151.355Z" fill="#F99F1B"/>
<path d="M246.673 150.272L242.91 150.265L243.117 154.502L246.88 154.509L246.673 150.272Z" fill="#F99F1B"/>
<path d="M257.671 149.213L253.908 149.206L254.115 153.443L257.878 153.45L257.671 149.213Z" fill="#F99F1B"/>
<path d="M268.689 148.128L264.926 148.121L265.133 152.358L268.895 152.365L268.689 148.128Z" fill="#F99F1B"/>
</g>
<g style="mix-blend-mode:overlay" opacity="0.38">
<path d="M45.736 379.265L38.3672 379.251L38.7734 387.564L46.1422 387.579L45.736 379.265Z" fill="#F99F1B"/>
<path d="M67.2633 377.155L59.8945 377.141L60.3008 385.454L67.6695 385.468L67.2633 377.155Z" fill="#F99F1B"/>
<path d="M88.8336 375.043L81.4648 375.028L81.8711 383.342L89.2398 383.356L88.8336 375.043Z" fill="#F99F1B"/>
<path d="M110.39 372.925L103.021 372.911L103.428 381.224L110.796 381.239L110.39 372.925Z" fill="#F99F1B"/>
<path d="M131.925 370.821L124.557 370.807L124.963 379.12L132.332 379.134L131.925 370.821Z" fill="#F99F1B"/>
<path d="M153.498 368.721L146.129 368.707L146.535 377.02L153.904 377.035L153.498 368.721Z" fill="#F99F1B"/>
</g>
</g>
<g opacity="0.3">
<path d="M370.071 1195.82L278.84 1202.99C278.649 1201.86 278.063 1200.83 277.103 1200.2C275.378 1199.08 273.162 1199.75 272.166 1201.69C271.171 1203.64 271.764 1206.14 273.489 1207.26C275.214 1208.38 277.429 1207.71 278.425 1205.77C278.658 1205.31 278.796 1204.83 278.864 1204.35L369.521 1197.21L378.566 1209.89L500.518 1193.11L500.375 1191.78L379.08 1208.45L370.055 1195.82L370.071 1195.82ZM274.199 1205.87C273.145 1205.19 272.783 1203.66 273.391 1202.47C273.999 1201.29 275.351 1200.88 276.405 1201.56C277.458 1202.25 277.821 1203.77 277.213 1204.96C276.604 1206.15 275.252 1206.56 274.199 1205.87Z" fill="#F99F1B"/>
<path d="M389.564 1236.85C391.289 1237.97 393.504 1237.3 394.5 1235.36C395.496 1233.41 394.902 1230.91 393.177 1229.79C391.453 1228.67 389.237 1229.34 388.241 1231.28C387.883 1231.98 387.741 1232.74 387.771 1233.49C381.615 1234.7 328.979 1242.75 300.603 1247.04L284.414 1230.87L246.983 1231.33C246.81 1230.16 246.221 1229.08 245.24 1228.44C243.515 1227.31 241.299 1227.98 240.303 1229.93C239.307 1231.87 239.901 1234.37 241.626 1235.5C243.351 1236.62 245.566 1235.95 246.562 1234C246.777 1233.58 246.913 1233.13 246.98 1232.68L283.968 1232.22L300.223 1248.46L300.493 1248.42C303.854 1247.9 380.03 1236.37 388.028 1234.79C388.314 1235.63 388.836 1236.36 389.57 1236.84L389.564 1236.85ZM242.34 1234.13C241.286 1233.44 240.924 1231.92 241.532 1230.73C242.141 1229.54 243.493 1229.13 244.546 1229.82C245.6 1230.5 245.962 1232.03 245.354 1233.22C244.746 1234.4 243.393 1234.81 242.34 1234.13ZM392.474 1231.17C393.527 1231.85 393.89 1233.38 393.281 1234.57C392.673 1235.75 391.321 1236.16 390.267 1235.48C389.214 1234.79 388.852 1233.27 389.46 1232.08C390.068 1230.89 391.42 1230.48 392.474 1231.17Z" fill="#F99F1B"/>
<path d="M274.531 1152.96C273.746 1152.45 272.834 1152.32 271.96 1152.58C271.08 1152.84 270.357 1153.47 269.904 1154.36C269.451 1155.24 269.337 1156.27 269.563 1157.26C270.03 1159.22 271.961 1160.48 273.704 1159.95C274.584 1159.69 275.307 1159.06 275.76 1158.17C276.214 1157.29 276.327 1156.26 276.102 1155.27C275.866 1154.28 275.306 1153.46 274.521 1152.95L274.531 1152.96ZM273.492 1159.02C272.824 1159.23 272.131 1159.1 271.573 1158.74C271.015 1158.37 270.573 1157.76 270.394 1157.01C270.031 1155.48 270.83 1153.92 272.183 1153.51C273.535 1153.1 274.919 1154.01 275.281 1155.53C275.643 1157.05 274.844 1158.62 273.492 1159.02Z" fill="#F99F1B"/>
<path d="M241.158 1119.8L250.21 1102.12L368.914 1093.87L380.709 1106.07L445.121 1097.32C445.587 1098.4 446.334 1099.33 447.315 1099.97C449.969 1101.7 453.374 1100.67 454.907 1097.68C456.439 1094.68 455.527 1090.84 452.872 1089.12C450.218 1087.39 446.813 1088.42 445.281 1091.41C444.541 1092.86 444.384 1094.51 444.709 1096.02L381.109 1104.67L369.35 1092.51L249.814 1100.82L249.497 1100.85L240.129 1119.15C237.863 1118.06 235.163 1119.01 233.898 1121.47C232.533 1124.14 233.339 1127.57 235.714 1129.12C238.09 1130.66 241.12 1129.75 242.492 1127.07C243.756 1124.6 243.141 1121.5 241.162 1119.82L241.158 1119.8ZM452.163 1090.5C454.146 1091.79 454.827 1094.66 453.682 1096.9C452.537 1099.13 449.995 1099.9 448.012 1098.61C446.029 1097.32 445.348 1094.45 446.493 1092.22C447.638 1089.98 450.18 1089.21 452.163 1090.5ZM236.414 1127.72C234.72 1126.62 234.135 1124.16 235.113 1122.25C236.091 1120.34 238.274 1119.68 239.968 1120.78C241.661 1121.89 242.252 1124.34 241.268 1126.26C240.285 1128.18 238.108 1128.83 236.414 1127.72Z" fill="#F99F1B"/>
<path d="M120.029 1117.51C121.971 1118.78 124.447 1118.03 125.568 1115.84C125.861 1115.27 126.021 1114.66 126.086 1114.05L151.111 1111.78L156.655 1098.78L183.406 1095.99C183.57 1097.34 184.245 1098.6 185.381 1099.34C187.323 1100.61 189.799 1099.86 190.92 1097.67C192.041 1095.48 191.378 1092.69 189.436 1091.42C187.494 1090.16 185.018 1090.91 183.897 1093.1C183.647 1093.58 183.501 1094.11 183.419 1094.65L155.873 1097.51L150.329 1110.51L126.023 1112.72C125.812 1111.46 125.152 1110.3 124.089 1109.61C122.147 1108.35 119.67 1109.1 118.549 1111.29C117.428 1113.48 118.092 1116.27 120.034 1117.53L120.029 1117.51Z" fill="#F99F1B"/>
<path d="M250.95 1185.04L246.992 1185.64L247.498 1189.84L251.456 1189.24L250.95 1185.04Z" fill="#F99F1B"/>
<path d="M239.038 1186.88L235.08 1187.49L235.586 1191.69L239.544 1191.08L239.038 1186.88Z" fill="#F99F1B"/>
<path d="M227.171 1188.69L223.213 1189.3L223.719 1193.49L227.677 1192.89L227.171 1188.69Z" fill="#F99F1B"/>
<path d="M215.282 1190.49L211.324 1191.1L211.83 1195.3L215.788 1194.69L215.282 1190.49Z" fill="#F99F1B"/>
<path d="M203.39 1192.33L199.432 1192.93L199.938 1197.13L203.896 1196.52L203.39 1192.33Z" fill="#F99F1B"/>
<path d="M191.484 1194.16L187.525 1194.77L188.031 1198.96L191.989 1198.36L191.484 1194.16Z" fill="#F99F1B"/>
<path d="M214.664 1124.29L179.926 1130.07L185.043 1169.24L219.781 1163.47L214.664 1124.29ZM181.73 1131.6L213.326 1126.34L217.986 1161.97L186.39 1167.23L181.73 1131.6Z" fill="#F99F1B"/>
<path d="M209.083 1132.77L187.439 1136.37L190.628 1160.78L212.272 1157.18L209.083 1132.77ZM189.065 1137.74L207.868 1134.61L210.645 1155.81L191.842 1158.94L189.065 1137.74Z" fill="#F99F1B"/>
<path d="M203.346 1141.49L195.217 1142.84L196.416 1152.01L204.545 1150.65L203.346 1141.49Z" fill="#F99F1B"/>
<path d="M172.663 1065.73C174.388 1066.86 176.604 1066.19 177.6 1064.24C177.975 1063.51 178.131 1062.69 178.066 1061.91L214.639 1059.11L229.006 1070.16L293.79 1061.65C294.086 1062.42 294.595 1063.09 295.287 1063.54C297.012 1064.67 299.228 1064 300.224 1062.05C301.219 1060.11 300.626 1057.61 298.901 1056.48C297.176 1055.36 294.96 1056.03 293.965 1057.98C293.583 1058.72 293.438 1059.54 293.497 1060.34L229.321 1068.77L214.974 1057.73L177.768 1060.58C177.472 1059.81 176.969 1059.13 176.277 1058.67C174.552 1057.55 172.337 1058.22 171.341 1060.17C170.345 1062.11 170.939 1064.61 172.663 1065.73ZM298.191 1057.87C299.245 1058.56 299.607 1060.08 298.999 1061.27C298.391 1062.46 297.038 1062.87 295.985 1062.18C294.931 1061.49 294.569 1059.97 295.177 1058.78C295.786 1057.59 297.138 1057.18 298.191 1057.87ZM175.573 1060.05C176.627 1060.74 176.989 1062.26 176.381 1063.45C175.773 1064.64 174.421 1065.04 173.367 1064.36C172.314 1063.67 171.951 1062.15 172.56 1060.96C173.168 1059.77 174.52 1059.36 175.573 1060.05Z" fill="#F99F1B"/>
<g style="mix-blend-mode:overlay" opacity="0.38">
<path d="M383.343 1247.04C379.914 1244.81 375.515 1246.14 373.535 1250C373.005 1251.04 372.71 1252.15 372.619 1253.27L309.957 1262.67L292.431 1296.9L237.361 1302.09C236.762 1300.6 235.773 1299.3 234.43 1298.43C231.001 1296.19 226.603 1297.52 224.623 1301.39C222.643 1305.26 223.822 1310.22 227.251 1312.45C230.68 1314.68 235.078 1313.35 237.058 1309.49C237.75 1308.14 238.053 1306.66 238.007 1305.21L294.135 1299.92L311.702 1265.61L372.899 1256.44C373.418 1258.33 374.525 1260.01 376.168 1261.08C379.597 1263.31 383.995 1261.98 385.975 1258.12C387.955 1254.25 386.776 1249.29 383.347 1247.06L383.343 1247.04ZM228.642 1309.71C226.555 1308.35 225.84 1305.33 227.044 1302.98C228.249 1300.63 230.92 1299.82 233.007 1301.18C235.093 1302.54 235.809 1305.55 234.604 1307.9C233.4 1310.26 230.728 1311.06 228.642 1309.71ZM377.564 1258.33C375.478 1256.97 374.762 1253.95 375.967 1251.6C377.171 1249.25 379.843 1248.44 381.929 1249.8C384.016 1251.16 384.732 1254.17 383.527 1256.52C382.323 1258.88 379.651 1259.68 377.564 1258.33Z" fill="#F99F1B"/>
</g>
<g style="mix-blend-mode:overlay" opacity="0.38">
<path d="M162.747 1145.33C159.318 1143.1 154.919 1144.42 152.94 1148.29C152.409 1149.33 152.115 1150.44 152.023 1151.56L89.3608 1160.96L71.8354 1195.19L16.7654 1200.38C16.1663 1198.89 15.1773 1197.59 13.8346 1196.72C10.4056 1194.48 6.00692 1195.81 4.02718 1199.68C2.04745 1203.55 3.22608 1208.51 6.65509 1210.74C10.0841 1212.97 14.4828 1211.64 16.4625 1207.78C17.1542 1206.42 17.4574 1204.94 17.4113 1203.5L73.5394 1198.21L91.1066 1163.89L152.303 1154.73C152.822 1156.62 153.93 1158.3 155.572 1159.37C159.001 1161.6 163.4 1160.27 165.379 1156.41C167.359 1152.54 166.18 1147.58 162.751 1145.35L162.747 1145.33ZM8.04608 1207.99C5.95976 1206.64 5.24384 1203.62 6.44838 1201.27C7.65292 1198.92 10.3247 1198.11 12.411 1199.47C14.4974 1200.83 15.2133 1203.84 14.0087 1206.19C12.8042 1208.55 10.1324 1209.35 8.04608 1207.99ZM156.969 1156.61C154.882 1155.26 154.167 1152.24 155.371 1149.89C156.576 1147.54 159.247 1146.73 161.334 1148.09C163.42 1149.45 164.136 1152.46 162.931 1154.81C161.727 1157.17 159.055 1157.97 156.969 1156.61Z" fill="#F99F1B"/>
</g>
<g style="mix-blend-mode:overlay" opacity="0.38">
<path d="M17.5987 1074.32C17.7497 1075.4 18.2711 1076.34 19.0497 1076.97C19.9153 1077.68 20.9574 1077.87 21.9154 1077.64L32.616 1091.23L98.2417 1089.9L98.2257 1088.69C98.4849 1089.74 99.0285 1090.67 99.8218 1091.33C100.743 1092.08 101.871 1092.38 102.993 1092.18C104.115 1091.98 105.103 1091.29 105.773 1090.25C106.442 1089.21 106.708 1087.94 106.529 1086.67C106.351 1085.41 105.737 1084.29 104.816 1083.54C104.698 1083.45 104.569 1083.35 104.445 1083.27C103.598 1082.71 102.615 1082.51 101.644 1082.68C100.522 1082.89 99.5343 1083.58 98.8646 1084.62C98.4567 1085.25 98.2261 1085.97 98.1166 1086.72L33.8653 1088.03L24.2303 1075.81C25.2078 1074.01 24.8266 1071.63 23.2798 1070.38C23.1722 1070.29 23.0749 1070.21 22.9716 1070.15C22.2589 1069.68 21.4238 1069.51 20.5934 1069.65C19.6386 1069.82 18.8005 1070.41 18.2408 1071.29C17.6752 1072.18 17.4476 1073.24 17.5987 1074.32ZM99.7464 1085.32C100.242 1084.54 100.985 1084.03 101.822 1083.87C102.658 1083.72 103.506 1083.94 104.198 1084.5C104.889 1085.06 105.342 1085.9 105.478 1086.84C105.615 1087.79 105.415 1088.74 104.919 1089.52C104.423 1090.3 103.68 1090.81 102.844 1090.97C102.116 1091.1 101.381 1090.95 100.751 1090.54C100.658 1090.47 100.565 1090.41 100.468 1090.34C99.7761 1089.78 99.3238 1088.94 99.187 1088C99.0502 1087.05 99.2507 1086.1 99.7464 1085.32ZM19.3777 1072.22C19.7215 1071.68 20.2318 1071.33 20.815 1071.21C21.3924 1071.11 21.9879 1071.26 22.4642 1071.65C23.4477 1072.44 23.6797 1074.01 22.9579 1075.12C22.2881 1076.16 21.0384 1076.45 20.0676 1075.82C20.0056 1075.78 19.9333 1075.73 19.8713 1075.69C19.3951 1075.3 19.0837 1074.73 18.9798 1074.07C18.8862 1073.42 19.0175 1072.76 19.3673 1072.21L19.3777 1072.22Z" fill="#F99F1B"/>
</g>
<g style="mix-blend-mode:overlay" opacity="0.38">
<path d="M35.8438 1062.7C38.901 1064.69 42.8272 1063.51 44.5923 1060.06C44.7295 1059.79 44.8134 1059.52 44.9136 1059.24L104.502 1054.69L139.238 1087.31L140.275 1087.2C146.037 1086.57 196.738 1081.03 201.511 1079.59L202.456 1079.31L224.5 1039.58L309.372 1030.73C310.139 1033.08 311.567 1035.16 313.633 1036.51C318.332 1039.57 324.37 1037.75 327.089 1032.44C329.809 1027.13 328.183 1020.32 323.484 1017.26C318.784 1014.2 312.74 1016.03 310.027 1021.33C309.407 1022.54 309.039 1023.82 308.863 1025.14L221.573 1034.25L199.294 1074.37C192.944 1075.61 161.946 1079.19 140.798 1081.49L106.128 1048.94L44.8663 1053.6C44.3363 1052.22 43.4446 1051 42.2052 1050.19C39.1481 1048.2 35.2218 1049.39 33.4568 1052.84C31.6917 1056.29 32.7437 1060.71 35.8009 1062.7L35.8438 1062.7ZM322.268 1019.72C325.78 1022 326.979 1027.09 324.951 1031.05C322.924 1035.01 318.422 1036.38 314.91 1034.09C311.398 1031.81 310.199 1026.72 312.227 1022.76C314.254 1018.8 318.757 1017.43 322.268 1019.72ZM41.0019 1052.63C42.8713 1053.84 43.513 1056.54 42.4337 1058.65C41.3544 1060.76 38.9595 1061.48 37.0901 1060.27C35.2207 1059.05 34.579 1056.35 35.6583 1054.24C36.7376 1052.13 39.1324 1051.41 41.0019 1052.63Z" fill="#F99F1B"/>
</g>
<path d="M205.405 810.663L296.636 803.486C296.827 804.619 297.413 805.653 298.374 806.279C300.098 807.402 302.314 806.732 303.31 804.787C304.306 802.842 303.712 800.343 301.987 799.22C300.262 798.097 298.047 798.767 297.051 800.712C296.818 801.166 296.68 801.651 296.612 802.134L205.955 809.266L196.91 796.591L74.942 813.371L75.0846 814.706L196.38 798.031L205.405 810.663ZM301.273 800.588C302.327 801.274 302.689 802.799 302.081 803.987C301.473 805.175 300.12 805.583 299.067 804.898C298.013 804.212 297.651 802.687 298.259 801.499C298.868 800.311 300.22 799.902 301.273 800.588Z" fill="#F99F1B"/>
<path d="M244.642 732.842C246.326 733.938 248.493 733.283 249.465 731.385C250.437 729.486 249.856 727.043 248.172 725.947C246.489 724.85 244.322 725.505 243.35 727.404C242.378 729.302 242.959 731.746 244.642 732.842ZM247.785 726.704C249.107 727.564 249.551 729.468 248.793 730.948C248.036 732.427 246.342 732.939 245.03 732.085C243.718 731.231 243.264 729.32 244.022 727.841C244.779 726.362 246.473 725.85 247.785 726.704Z" fill="#F99F1B"/>
<path d="M242.829 729.736L179.144 739.272L161.607 773.528L105.146 778.853L105.246 780.191L162.324 774.817L179.885 740.515L242.978 731.06L242.829 729.736Z" fill="#F99F1B"/>
<path d="M185.902 769.622C184.177 768.499 181.961 769.169 180.965 771.114C179.97 773.059 180.563 775.558 182.288 776.681C184.013 777.804 186.229 777.134 187.224 775.189C187.582 774.49 187.724 773.729 187.695 772.979C193.85 771.769 246.486 763.721 274.862 759.429L291.051 775.607L328.483 775.146C328.656 776.315 329.245 777.397 330.226 778.036C331.951 779.159 334.166 778.489 335.162 776.544C336.158 774.599 335.564 772.1 333.84 770.977C332.115 769.854 329.899 770.524 328.903 772.469C328.689 772.888 328.552 773.343 328.485 773.797L291.497 774.251L275.242 758.015L274.973 758.057C271.611 758.57 195.435 770.099 187.438 771.679C187.151 770.84 186.629 770.111 185.896 769.634L185.902 769.622ZM333.142 772.34C334.195 773.026 334.558 774.551 333.949 775.739C333.341 776.927 331.989 777.336 330.936 776.65C329.882 775.964 329.52 774.439 330.128 773.251C330.736 772.063 332.088 771.654 333.142 772.34ZM182.992 775.306C181.938 774.62 181.576 773.096 182.184 771.907C182.792 770.719 184.145 770.311 185.198 770.997C186.252 771.683 186.614 773.208 186.006 774.396C185.397 775.584 184.045 775.992 182.992 775.306Z" fill="#F99F1B"/>
<path d="M188.357 842.053C188.247 842.214 188.121 842.38 188.025 842.567C187.029 844.512 187.623 847.011 189.348 848.134C191.073 849.257 193.288 848.587 194.284 846.642C195.28 844.697 194.686 842.198 192.962 841.075C191.774 840.302 190.347 840.398 189.254 841.162L177.9 829.421L113.106 838.219L113.138 838.504C112.807 837.511 112.196 836.633 111.318 836.061C109.284 834.736 106.677 835.524 105.502 837.818C104.328 840.113 105.02 843.064 107.055 844.389C109.089 845.714 111.706 844.933 112.887 842.627C113.388 841.648 113.531 840.561 113.389 839.521L177.505 830.81L188.363 842.041L188.357 842.053ZM192.258 842.45C193.311 843.135 193.674 844.66 193.065 845.848C192.457 847.036 191.105 847.445 190.052 846.759C188.998 846.073 188.636 844.548 189.244 843.36C189.852 842.172 191.204 841.764 192.258 842.45ZM107.591 843.341C106.073 842.352 105.549 840.147 106.426 838.435C107.302 836.723 109.257 836.132 110.776 837.121C112.294 838.109 112.818 840.314 111.941 842.026C111.065 843.738 109.11 844.329 107.591 843.341Z" fill="#F99F1B"/>
<path d="M208.195 953.615C206.522 952.526 204.371 953.176 203.405 955.063C203.19 955.482 203.054 955.937 202.998 956.397L169.247 958.975L149.66 940.585L149.413 940.61C148.118 940.745 117.678 944.066 114.989 944.878L114.761 944.947L102.279 967.445L54.1536 972.466C53.8422 970.788 52.9415 969.239 51.5162 968.311C48.8618 966.583 45.4569 967.612 43.9244 970.605C42.3919 973.598 43.3042 977.438 45.9586 979.167C48.613 980.895 52.0179 979.866 53.5504 976.872C54.0453 975.906 54.2566 974.848 54.2696 973.8L102.975 968.721L115.522 946.125C118.535 945.431 138.586 943.143 149.276 941.981L168.842 960.357L203.005 957.753C203.182 958.862 203.763 959.877 204.683 960.476C206.356 961.565 208.506 960.915 209.472 959.028C210.438 957.141 209.862 954.716 208.189 953.627L208.195 953.615ZM46.6638 977.762C44.6808 976.471 43.9998 973.605 45.1447 971.369C46.2896 969.132 48.8311 968.364 50.8141 969.655C52.7972 970.947 53.4782 973.813 52.3333 976.049C51.1883 978.285 48.6469 979.053 46.6638 977.762ZM205.285 959.299C204.18 958.58 203.8 956.981 204.438 955.735C205.076 954.489 206.493 954.06 207.599 954.78C208.704 955.499 209.083 957.098 208.445 958.344C207.807 959.59 206.39 960.019 205.285 959.299Z" fill="#F99F1B"/>
<path d="M196.623 695.101C198.564 696.365 201.041 695.617 202.162 693.427C203.283 691.238 202.619 688.445 200.678 687.181C198.736 685.917 196.26 686.665 195.139 688.855C194.018 691.044 194.681 693.837 196.623 695.101Z" fill="#F99F1B"/>
<path d="M334.312 886.658L325.26 904.339L206.556 912.591L194.762 900.392L130.349 909.144C129.883 908.064 129.137 907.128 128.156 906.489C125.501 904.761 122.096 905.789 120.564 908.783C119.031 911.776 119.944 915.616 122.598 917.344C125.252 919.073 128.657 918.044 130.19 915.05C130.929 913.606 131.087 911.954 130.761 910.437L194.361 901.793L206.121 913.954L325.656 905.637L325.973 905.611L335.341 887.312C337.607 888.4 340.308 887.456 341.572 884.986C342.937 882.319 342.131 878.89 339.756 877.344C337.38 875.797 334.35 876.713 332.979 879.391C331.715 881.861 332.329 884.963 334.308 886.64L334.312 886.658ZM123.312 915.977C121.329 914.686 120.648 911.819 121.793 909.583C122.938 907.347 125.479 906.579 127.462 907.87C129.445 909.161 130.126 912.027 128.981 914.264C127.836 916.5 125.295 917.268 123.312 915.977ZM339.051 878.748C340.745 879.851 341.329 882.313 340.352 884.223C339.374 886.133 337.191 886.793 335.497 885.69C333.803 884.587 333.212 882.137 334.196 880.215C335.18 878.293 337.357 877.645 339.051 878.748Z" fill="#F99F1B"/>
<path d="M177.288 864.184C177.288 864.184 177.294 864.172 177.3 864.16C178.296 862.215 177.702 859.717 175.977 858.594C174.253 857.471 172.037 858.14 171.041 860.085C170.045 862.03 170.639 864.529 172.364 865.652C173.727 866.54 175.381 866.296 176.518 865.204L190.48 877.339L292.312 868.258L301.428 853.895L300.455 853.106L291.66 866.948L190.838 875.941L177.284 864.165L177.288 864.184ZM173.068 864.278C172.014 863.592 171.652 862.067 172.26 860.879C172.868 859.691 174.22 859.282 175.274 859.968C176.327 860.654 176.69 862.179 176.081 863.367C175.473 864.555 174.121 864.964 173.068 864.278Z" fill="#F99F1B"/>
<path d="M220.662 835.117C218.72 833.853 216.244 834.601 215.123 836.791C214.002 838.98 214.665 841.773 216.607 843.037C218.548 844.302 221.025 843.553 222.146 841.364C222.396 840.874 222.542 840.348 222.624 839.811L266.681 835.231C266.921 835.946 267.362 836.591 267.992 837.001C269.459 837.956 271.332 837.39 272.179 835.736C273.026 834.082 272.524 831.969 271.057 831.014C269.591 830.059 267.717 830.626 266.87 832.28C266.608 832.792 266.488 833.35 266.479 833.904L222.637 838.468C222.473 837.12 221.798 835.857 220.662 835.117ZM270.354 832.389C271.149 832.907 271.42 834.046 270.96 834.943C270.501 835.839 269.491 836.145 268.696 835.627C267.901 835.109 267.63 833.97 268.089 833.073C268.548 832.176 269.558 831.871 270.354 832.389Z" fill="#F99F1B"/>
<path d="M89.0513 919.153C89.2065 919.549 89.4611 919.886 89.8123 920.114C90.7108 920.699 91.8512 920.355 92.37 919.341C92.8888 918.328 92.5832 917.042 91.6847 916.457C90.7861 915.872 89.6457 916.217 89.1269 917.23C89.0315 917.416 88.973 917.611 88.9352 917.82L60.2425 921.035C60.1086 920.839 59.9362 920.665 59.7297 920.53C58.8828 919.979 57.8075 920.304 57.3185 921.259C56.8296 922.214 57.1177 923.427 57.9646 923.978C58.8115 924.53 59.8868 924.205 60.3757 923.25C60.5188 922.97 60.594 922.662 60.5997 922.355L89.0556 919.171L89.0513 919.153Z" fill="#F99F1B"/>
<path d="M94.7082 883.04L90.75 883.646L91.2559 887.844L95.214 887.237L94.7082 883.04Z" fill="#F99F1B"/>
<path d="M106.579 881.222L102.621 881.829L103.127 886.026L107.085 885.42L106.579 881.222Z" fill="#F99F1B"/>
<path d="M118.472 879.407L114.514 880.014L115.02 884.211L118.978 883.604L118.472 879.407Z" fill="#F99F1B"/>
<path d="M130.362 877.577L126.404 878.184L126.91 882.381L130.868 881.774L130.362 877.577Z" fill="#F99F1B"/>
<path d="M142.253 875.756L138.295 876.362L138.801 880.56L142.759 879.953L142.253 875.756Z" fill="#F99F1B"/>
<path d="M154.144 873.927L150.186 874.533L150.691 878.73L154.65 878.124L154.144 873.927Z" fill="#F99F1B"/>
<path d="M172.786 715.549L168.828 716.155L169.334 720.352L173.292 719.746L172.786 715.549Z" fill="#F99F1B"/>
<path d="M184.659 713.731L180.701 714.338L181.207 718.535L185.165 717.928L184.659 713.731Z" fill="#F99F1B"/>
<path d="M196.564 711.923L192.605 712.529L193.111 716.727L197.069 716.12L196.564 711.923Z" fill="#F99F1B"/>
<path d="M208.452 710.093L204.494 710.699L205 714.896L208.958 714.29L208.452 710.093Z" fill="#F99F1B"/>
<path d="M220.333 708.264L216.375 708.871L216.881 713.068L220.839 712.462L220.333 708.264Z" fill="#F99F1B"/>
<path d="M232.234 706.441L228.275 707.048L228.781 711.245L232.739 710.638L232.234 706.441Z" fill="#F99F1B"/>
<path d="M154.369 757.835L150.157 725.633L121.602 730.382L125.814 762.585L154.369 757.835ZM149.057 727.324L152.88 756.602L126.918 760.912L123.096 731.634L149.057 727.324Z" fill="#F99F1B"/>
<path d="M148.2 752.669L145.581 732.608L127.792 735.561L130.411 755.623L148.2 752.669ZM144.577 734.112L146.85 751.542L131.394 754.105L129.122 736.676L144.577 734.112Z" fill="#F99F1B"/>
<path d="M140.844 739.784L134.166 740.895L135.151 748.425L141.829 747.315L140.844 739.784Z" fill="#F99F1B"/>
<path d="M230.776 950.851L226.896 951.295L227.276 955.509L231.155 955.065L230.776 950.851Z" fill="#F99F1B"/>
<path d="M242.42 949.514L238.541 949.958L238.921 954.172L242.8 953.728L242.42 949.514Z" fill="#F99F1B"/>
<path d="M254.1 948.128L250.221 948.573L250.601 952.787L254.48 952.342L254.1 948.128Z" fill="#F99F1B"/>
<g style="mix-blend-mode:overlay" opacity="0.38">
<path d="M192.13 759.421C195.559 761.654 199.958 760.325 201.938 756.458C202.468 755.421 202.763 754.308 202.854 753.188L265.516 743.793L283.042 709.561L338.112 704.371C338.711 705.864 339.7 707.16 341.043 708.034C344.472 710.267 348.87 708.938 350.85 705.071C352.83 701.204 351.651 696.243 348.222 694.011C344.793 691.778 340.394 693.107 338.415 696.974C337.723 698.325 337.42 699.805 337.466 701.248L281.338 706.542L263.771 740.855L202.574 750.023C202.055 748.132 200.948 746.449 199.305 745.379C195.876 743.147 191.478 744.476 189.498 748.343C187.518 752.21 188.697 757.17 192.126 759.403L192.13 759.421ZM346.831 696.755C348.917 698.113 349.633 701.126 348.429 703.479C347.224 705.832 344.553 706.639 342.466 705.281C340.38 703.922 339.664 700.909 340.869 698.556C342.073 696.204 344.745 695.396 346.831 696.755ZM197.903 748.147C199.989 749.505 200.705 752.518 199.5 754.871C198.296 757.224 195.624 758.031 193.538 756.673C191.451 755.314 190.735 752.301 191.94 749.948C193.144 747.596 195.816 746.788 197.903 748.147Z" fill="#F99F1B"/>
</g>
<g style="mix-blend-mode:overlay" opacity="0.38">
<path d="M91.8672 954.966C91.651 953.909 91.0851 952.997 90.2664 952.418C89.365 951.784 88.3138 951.659 87.3629 951.956L75.9151 939.16L10.4943 945.174L10.5798 946.379C10.2658 945.351 9.6776 944.456 8.83824 943.863C7.8809 943.177 6.73829 942.962 5.61738 943.241C4.5068 943.528 3.55859 944.277 2.95515 945.375C2.34735 946.454 2.14991 947.755 2.40383 949.007C2.65776 950.259 3.32216 951.329 4.29579 952.009C4.41973 952.09 4.554 952.177 4.67794 952.258C5.55468 952.751 6.54674 952.885 7.5107 952.643C8.62128 952.356 9.56949 951.607 10.1729 950.509C10.5394 949.847 10.7391 949.107 10.7954 948.352L74.8473 942.456L85.1509 953.963C84.2766 955.832 84.7881 958.169 86.4049 959.315C86.5185 959.389 86.6218 959.456 86.725 959.523C87.4615 959.941 88.2999 960.051 89.1232 959.842C90.0605 959.598 90.8692 958.96 91.3832 958.037C91.8972 957.113 92.0672 956.028 91.8569 954.96L91.8672 954.966ZM9.26724 949.857C8.81287 950.664 8.10947 951.231 7.2802 951.452C6.45691 951.661 5.60549 951.495 4.87377 950.988C4.15835 950.476 3.65558 949.682 3.45957 948.747C3.27389 947.819 3.41085 946.852 3.87117 946.033C4.32554 945.227 5.02894 944.66 5.8582 944.439C6.57343 944.252 7.32156 944.351 7.97544 944.714C8.0684 944.775 8.16135 944.835 8.26464 944.903C8.98006 945.415 9.48283 946.208 9.67884 947.143C9.86452 948.072 9.72756 949.039 9.26724 949.857ZM90.2149 957.198C89.9021 957.756 89.4109 958.15 88.8363 958.304C88.2618 958.458 87.6646 958.333 87.1705 957.981C86.1408 957.248 85.8274 955.708 86.4769 954.547C87.0907 953.456 88.3289 953.082 89.3252 953.637C89.3871 953.678 89.4594 953.725 89.5214 953.765C90.0156 954.118 90.3654 954.672 90.5019 955.32C90.6384 955.968 90.5337 956.63 90.2149 957.198Z" fill="#F99F1B"/>
</g>
<g style="mix-blend-mode:overlay" opacity="0.38">
<path d="M539.631 943.759C536.574 941.769 532.647 942.955 530.882 946.403C530.745 946.671 530.661 946.942 530.561 947.219L470.973 951.766L436.237 919.148L435.199 919.265C429.438 919.893 378.736 925.427 373.963 926.869L373.018 927.155L350.974 966.878L266.103 975.727C265.336 973.379 263.908 971.3 261.842 969.955C257.142 966.895 251.104 968.71 248.385 974.021C245.666 979.332 247.291 986.137 251.991 989.197C256.69 992.256 262.734 990.43 265.448 985.13C266.068 983.919 266.435 982.636 266.612 981.323L353.901 972.215L376.181 932.087C382.53 930.848 413.529 927.27 434.677 924.965L469.347 957.524L530.608 952.856C531.138 954.241 532.03 955.459 533.269 956.266C536.327 958.256 540.253 957.07 542.018 953.622C543.783 950.174 542.731 945.747 539.674 943.756L539.631 943.759ZM253.211 986.76C249.699 984.474 248.5 979.392 250.527 975.431C252.555 971.471 257.057 970.101 260.569 972.387C264.081 974.674 265.279 979.756 263.252 983.716C261.225 987.676 256.722 989.047 253.211 986.76ZM534.473 953.834C532.603 952.617 531.962 949.917 533.041 947.808C534.12 945.7 536.515 944.977 538.384 946.194C540.254 947.411 540.896 950.112 539.816 952.22C538.737 954.328 536.342 955.052 534.473 953.834Z" fill="#F99F1B"/>
</g>
<g style="mix-blend-mode:overlay" opacity="0.38">
<path d="M213.661 782.864L209.898 782.856L210.105 787.093L213.868 787.101L213.661 782.864Z" fill="#F99F1B"/>
<path d="M224.667 781.793L220.904 781.786L221.111 786.023L224.874 786.03L224.667 781.793Z" fill="#F99F1B"/>
<path d="M235.669 780.709L231.906 780.702L232.113 784.939L235.876 784.946L235.669 780.709Z" fill="#F99F1B"/>
<path d="M246.675 779.626L242.912 779.619L243.119 783.856L246.882 783.863L246.675 779.626Z" fill="#F99F1B"/>
<path d="M257.671 778.569L253.908 778.562L254.115 782.798L257.878 782.806L257.671 778.569Z" fill="#F99F1B"/>
<path d="M268.689 777.484L264.926 777.477L265.133 781.714L268.895 781.721L268.689 777.484Z" fill="#F99F1B"/>
</g>
<g style="mix-blend-mode:overlay" opacity="0.38">
<path d="M45.736 1008.62L38.3672 1008.61L38.7734 1016.92L46.1422 1016.93L45.736 1008.62Z" fill="#F99F1B"/>
<path d="M67.2633 1006.51L59.8945 1006.5L60.3008 1014.81L67.6695 1014.82L67.2633 1006.51Z" fill="#F99F1B"/>
<path d="M88.8336 1004.4L81.4648 1004.38L81.8711 1012.7L89.2398 1012.71L88.8336 1004.4Z" fill="#F99F1B"/>
<path d="M110.39 1002.28L103.021 1002.26L103.428 1010.58L110.796 1010.59L110.39 1002.28Z" fill="#F99F1B"/>
<path d="M131.925 1000.18L124.557 1000.16L124.963 1008.47L132.332 1008.49L131.925 1000.18Z" fill="#F99F1B"/>
<path d="M153.498 998.076L146.129 998.062L146.535 1006.37L153.904 1006.39L153.498 998.076Z" fill="#F99F1B"/>
</g>
</g>
</g>
</svg>
