<svg width="57" height="57" viewBox="0 0 57 57" fill="none" xmlns="http://www.w3.org/2000/svg">
<path fill-rule="evenodd" clip-rule="evenodd" d="M32.7443 19.0829C33.6164 19.3567 34.4572 19.7048 35.2551 20.1232C35.5053 20.2523 35.6305 20.5261 35.5718 20.7998C35.2433 22.2899 35.6579 23.909 36.8155 25.0666C37.9731 26.2242 39.5922 26.6388 41.0823 26.3142C41.356 26.2516 41.6298 26.3807 41.7589 26.631C42.1773 27.4249 42.5254 28.2657 42.7992 29.1378C42.8852 29.4077 42.7835 29.6893 42.5449 29.8418C41.2583 30.6631 40.4096 32.1023 40.4096 33.741C40.4096 35.3757 41.2583 36.8149 42.5449 37.6362C42.7835 37.7887 42.8852 38.0703 42.7992 38.3402C42.5254 39.2123 42.1773 40.0531 41.7589 40.847C41.6298 41.0973 41.356 41.2264 41.0823 41.1638C39.5922 40.8392 37.9731 41.2538 36.8155 42.4114C35.6579 43.569 35.2433 45.1881 35.5718 46.6782C35.6305 46.9519 35.5053 47.2257 35.2551 47.3547C34.4572 47.7732 33.6203 48.1213 32.7443 48.395C32.4783 48.4811 32.1928 48.3755 32.0442 48.1408C31.2229 46.8542 29.7837 46.0016 28.1451 46.0016C26.5064 46.0016 25.0672 46.8542 24.2459 48.1408C24.0934 48.3755 23.8118 48.4811 23.5419 48.395C22.6698 48.1213 21.8329 47.7732 21.0351 47.3547C20.7848 47.2257 20.6596 46.9519 20.7183 46.6782C21.0468 45.1881 20.6322 43.569 19.4707 42.4114C18.3131 41.2538 16.694 40.8392 15.2078 41.1638C14.9302 41.2264 14.6603 41.0973 14.5273 40.847C14.1128 40.0531 13.7608 39.2123 13.4871 38.3402C13.4049 38.0703 13.5066 37.7887 13.7452 37.6362C15.0279 36.8149 15.8805 35.3757 15.8805 33.741C15.8805 32.1023 15.0279 30.6631 13.7452 29.8418C13.5066 29.6893 13.4049 29.4077 13.4871 29.1378C13.7608 28.2657 14.1128 27.4249 14.5273 26.631C14.6603 26.3807 14.9302 26.2516 15.2078 26.3142C16.694 26.6388 18.3131 26.2242 19.4707 25.0666C20.6322 23.909 21.0468 22.2899 20.7183 20.7998C20.6596 20.5261 20.7848 20.2523 21.0351 20.1232C21.8329 19.7048 22.6698 19.3567 23.5419 19.0829C23.8118 18.9969 24.0934 19.1025 24.2459 19.3372C25.0672 20.6238 26.5064 21.4764 28.1451 21.4764C29.7837 21.4764 31.2229 20.6238 32.0442 19.3372C32.1928 19.1025 32.4783 18.9969 32.7443 19.0829Z" stroke="#F7D5A5" stroke-width="1.24676" stroke-miterlimit="2.613" stroke-linecap="round" stroke-linejoin="round"/>
<path fill-rule="evenodd" clip-rule="evenodd" d="M28.1471 26.6316C32.0854 26.6316 35.2806 29.8229 35.2806 33.7651C35.2806 37.7033 32.0854 40.8985 28.1471 40.8985C24.205 40.8985 21.0137 37.7033 21.0137 33.7651C21.0137 29.8229 24.205 26.6316 28.1471 26.6316Z" stroke="#F7D5A5" stroke-width="0.83244" stroke-miterlimit="2.613" stroke-linecap="round" stroke-linejoin="round"/>
<path fill-rule="evenodd" clip-rule="evenodd" d="M4.66484 1.30469H51.4938C53.6839 1.30469 55.436 3.09587 55.436 5.25077V52.0797C55.436 54.2698 53.6839 56.0219 51.4938 56.0219H4.66484C2.50994 56.0219 0.71875 54.2698 0.71875 52.0797V5.25077C0.71875 3.09587 2.50994 1.30469 4.66484 1.30469Z" stroke="#DADADA" stroke-width="1.24676" stroke-miterlimit="2.613" stroke-linecap="round" stroke-linejoin="round"/>
<path fill-rule="evenodd" clip-rule="evenodd" d="M16.4225 4.56812C17.2282 4.56812 17.8461 5.18604 17.8461 5.99168C17.8461 6.75821 17.2282 7.38004 16.4225 7.38004C15.656 7.38004 15.0342 6.75821 15.0342 5.99168C15.0342 5.18604 15.656 4.56812 16.4225 4.56812ZM11.9367 4.56812C12.7033 4.56812 13.3251 5.18604 13.3251 5.99168C13.3251 6.75821 12.7033 7.38004 11.9367 7.38004C11.1311 7.38004 10.5132 6.75821 10.5132 5.99168C10.5132 5.18604 11.1311 4.56812 11.9367 4.56812ZM7.41184 4.56812C8.17838 4.56812 8.80021 5.18604 8.80021 5.99168C8.80021 6.75821 8.17838 7.38004 7.41184 7.38004C6.61011 7.38004 5.98828 6.75821 5.98828 5.99168C5.98828 5.18604 6.61011 4.56812 7.41184 4.56812Z" stroke="#DADADA" stroke-width="0.83244" stroke-miterlimit="2.613" stroke-linecap="round" stroke-linejoin="round"/>
<path d="M27.5449 6.03003H50.1538" stroke="#DADADA" stroke-width="1.24676" stroke-miterlimit="2.613" stroke-linecap="round" stroke-linejoin="round"/>
<path d="M0.71875 10.74H55.436" stroke="#DADADA" stroke-width="1.24676" stroke-miterlimit="2.613" stroke-linecap="round" stroke-linejoin="round"/>
</svg>
