<svg width="623" height="528" viewBox="0 0 623 528" fill="none" xmlns="http://www.w3.org/2000/svg">
<g opacity="0.15">
<path d="M472.791 266.366L527.871 187.236C527.235 186.665 526.883 185.775 527.004 184.694C527.223 182.754 528.884 181.007 530.706 180.803C532.528 180.598 533.834 182.012 533.615 183.953C533.397 185.894 531.736 187.641 529.914 187.845C529.488 187.893 529.095 187.845 528.741 187.735L474.008 266.368L477.301 278.941L398.979 382.181L398.184 381.581L476.078 278.895L472.804 266.354L472.791 266.366ZM532.317 184.099C532.45 182.913 531.654 182.05 530.541 182.175C529.428 182.3 528.414 183.366 528.281 184.551C528.147 185.737 528.944 186.6 530.057 186.475C531.17 186.35 532.184 185.284 532.317 184.099Z" fill="#F99F1B"/>
<path d="M545.351 258.736C545.564 256.841 547.189 255.133 548.967 254.934C550.746 254.734 552.023 256.117 551.81 258.011C551.596 259.906 549.972 261.614 548.193 261.813C546.415 262.013 545.138 260.63 545.351 258.736ZM551.1 258.091C551.268 256.603 550.268 255.534 548.882 255.689C547.497 255.845 546.226 257.18 546.06 258.656C545.894 260.132 546.893 261.213 548.278 261.058C549.664 260.903 550.934 259.567 551.1 258.091Z" fill="#F99F1B"/>
<path d="M546.377 261.457L504.958 315.097L472.874 318.695L438.209 367.355L437.389 366.793L472.438 317.596L504.554 313.995L545.584 260.846L546.377 261.457Z" fill="#F99F1B"/>
<path d="M488.859 298.32C488.64 300.261 486.979 302.008 485.157 302.212C483.335 302.416 482.029 301.002 482.248 299.061C482.466 297.121 484.127 295.374 485.949 295.17C486.604 295.096 487.18 295.238 487.654 295.529C491.845 290.447 526.178 246.173 544.656 222.288L543.019 202.082L563.994 168.738C563.325 168.17 562.943 167.261 563.067 166.157C563.286 164.216 564.947 162.469 566.769 162.265C568.591 162.06 569.897 163.475 569.678 165.415C569.46 167.356 567.798 169.103 565.977 169.307C565.584 169.351 565.211 169.313 564.878 169.212L544.152 202.161L545.791 222.448L545.614 222.674C543.422 225.501 493.812 289.618 488.363 296.219C488.753 296.771 488.941 297.496 488.848 298.321L488.859 298.32ZM568.39 165.571C568.523 164.386 567.726 163.523 566.613 163.648C565.501 163.772 564.487 164.839 564.353 166.024C564.22 167.209 565.017 168.072 566.13 167.947C567.242 167.823 568.256 166.757 568.39 165.571ZM483.535 298.917C483.402 300.102 484.199 300.965 485.311 300.841C486.424 300.716 487.438 299.65 487.571 298.464C487.705 297.279 486.908 296.416 485.795 296.541C484.682 296.666 483.668 297.732 483.535 298.917Z" fill="#F99F1B"/>
<path d="M442.854 270.551C442.688 270.593 442.51 270.647 442.335 270.667C440.513 270.871 439.207 269.457 439.426 267.516C439.644 265.576 441.306 263.829 443.127 263.625C444.949 263.42 446.255 264.834 446.037 266.775C445.886 268.111 445.036 269.354 443.933 270.063L445.339 284.374L403.8 339.267L403.632 339.137C404.098 339.784 404.335 340.641 404.224 341.629C403.966 343.918 402.012 345.973 399.863 346.214C397.714 346.455 396.166 344.793 396.424 342.504C396.682 340.214 398.637 338.148 400.797 337.905C401.714 337.803 402.504 338.058 403.105 338.553L444.212 284.237L442.865 270.55L442.854 270.551ZM444.751 266.908C444.884 265.722 444.087 264.859 442.974 264.984C441.862 265.109 440.848 266.175 440.714 267.36C440.581 268.546 441.378 269.409 442.491 269.284C443.603 269.159 444.617 268.093 444.751 266.908ZM397.406 342.394C397.214 344.102 398.366 345.35 399.969 345.17C401.573 344.99 403.039 343.449 403.231 341.74C403.423 340.032 402.271 338.784 400.668 338.964C399.064 339.144 397.598 340.685 397.406 342.394Z" fill="#F99F1B"/>
<path d="M497.543 165.706C497.642 164.822 498.062 163.961 498.711 163.268C499.371 162.575 500.183 162.151 501.012 162.058C501.841 161.965 502.577 162.227 503.096 162.776C504.124 163.889 503.879 166.062 502.572 167.436C501.913 168.13 501.1 168.554 500.271 168.647C499.442 168.74 498.707 168.478 498.187 167.928C497.668 167.367 497.445 166.577 497.544 165.694L497.543 165.706ZM502.081 166.918C502.582 166.391 502.883 165.726 502.954 165.099C503.024 164.471 502.867 163.858 502.473 163.432C501.676 162.569 500.215 162.732 499.201 163.799C498.187 164.865 498.012 166.422 498.809 167.285C499.605 168.148 501.067 167.984 502.081 166.918Z" fill="#F99F1B"/>
<path d="M380.863 213.387C380.651 215.269 379.039 216.965 377.271 217.163C376.879 217.207 376.506 217.168 376.174 217.056L355.848 246.358L357.054 270.387L356.901 270.599C356.098 271.711 337.115 297.786 335.099 299.906L334.928 300.085L313.323 303.311L283.46 344.617C284.386 345.489 284.901 346.842 284.721 348.446C284.385 351.432 281.832 354.117 279.028 354.431C276.224 354.746 274.218 352.573 274.554 349.586C274.89 346.599 277.443 343.915 280.246 343.601C281.152 343.499 281.961 343.684 282.653 344.042L312.873 302.237L334.577 298.989C336.695 296.537 349.266 279.396 355.929 270.238L354.72 246.232L375.291 216.57C374.664 216.021 374.321 215.141 374.437 214.107C374.649 212.225 376.262 210.529 378.029 210.331C379.796 210.133 381.064 211.505 380.852 213.388L380.863 213.387ZM275.861 349.451C275.61 351.682 277.108 353.304 279.203 353.069C281.297 352.834 283.203 350.831 283.454 348.599C283.705 346.368 282.207 344.746 280.113 344.981C278.018 345.216 276.112 347.22 275.861 349.451ZM375.539 213.984C375.399 215.227 376.235 216.132 377.402 216.001C378.569 215.87 379.632 214.752 379.772 213.509C379.912 212.266 379.076 211.361 377.909 211.492C376.742 211.623 375.679 212.74 375.539 213.984Z" fill="#F99F1B"/>
<path d="M543.505 315.052C543.751 312.867 545.607 310.915 547.658 310.685C549.709 310.455 551.169 312.035 550.923 314.22C550.677 316.405 548.82 318.357 546.769 318.587C544.718 318.817 543.259 317.236 543.505 315.052Z" fill="#F99F1B"/>
<path d="M494.294 124.135L477.734 125.992L406.778 229.334L408.24 244.202L366.943 298.769C367.392 299.568 367.592 300.566 367.468 301.67C367.132 304.657 364.579 307.341 361.775 307.656C358.971 307.97 356.964 305.797 357.3 302.811C357.636 299.824 360.19 297.14 362.993 296.825C364.346 296.673 365.513 297.116 366.325 297.943L407.103 244.065L405.647 229.243L477.103 125.179L477.296 124.905L494.434 122.983C494.975 120.57 497.084 118.486 499.396 118.227C501.894 117.947 503.691 119.88 503.391 122.552C503.09 125.225 500.818 127.614 498.309 127.896C495.996 128.155 494.307 126.509 494.303 124.145L494.294 124.135ZM358.599 302.665C358.348 304.896 359.845 306.518 361.94 306.283C364.035 306.048 365.94 304.045 366.191 301.813C366.442 299.582 364.944 297.96 362.85 298.195C360.755 298.43 358.85 300.434 358.599 302.665ZM502.094 122.686C502.308 120.781 501.022 119.387 499.232 119.588C497.443 119.789 495.806 121.51 495.592 123.416C495.378 125.321 496.653 126.716 498.453 126.514C500.253 126.312 501.879 124.592 502.094 122.686Z" fill="#F99F1B"/>
<path d="M422.276 272.622C422.276 272.622 422.287 272.621 422.298 272.619C424.12 272.415 425.426 273.829 425.207 275.77C424.989 277.711 423.327 279.457 421.506 279.662C419.684 279.866 418.378 278.452 418.596 276.511C418.769 274.977 419.841 273.583 421.183 272.951L420.96 256.166L483.139 168.22L497.565 165.133L497.543 166.283L483.636 169.265L422.072 256.34L422.286 272.632L422.276 272.622ZM419.873 276.368C419.739 277.553 420.536 278.416 421.649 278.292C422.762 278.167 423.776 277.101 423.909 275.915C424.042 274.73 423.245 273.867 422.133 273.992C421.02 274.117 420.006 275.183 419.873 276.368Z" fill="#F99F1B"/>
<path d="M465.228 244.064C464.982 246.249 463.125 248.201 461.074 248.431C459.023 248.661 457.564 247.081 457.81 244.896C458.055 242.712 459.912 240.759 461.963 240.529C462.421 240.478 462.846 240.533 463.242 240.65L490.57 202.83C490.234 202.362 490.057 201.74 490.136 201.031C490.322 199.381 491.727 197.904 493.276 197.73C494.825 197.556 495.929 198.752 495.744 200.402C495.558 202.052 494.153 203.529 492.604 203.703C492.124 203.757 491.693 203.668 491.326 203.479L464.127 241.113C464.919 241.735 465.372 242.786 465.228 244.064ZM494.456 200.546C494.557 199.652 493.962 199.007 493.122 199.101C492.282 199.195 491.524 199.992 491.424 200.887C491.323 201.781 491.918 202.426 492.758 202.332C493.598 202.238 494.356 201.441 494.456 200.546Z" fill="#F99F1B"/>
<path d="M337.584 332.18C337.411 331.901 337.331 331.554 337.376 331.159C337.489 330.148 338.345 329.249 339.294 329.143C340.243 329.036 340.915 329.764 340.801 330.775C340.687 331.786 339.832 332.685 338.883 332.792C338.709 332.811 338.549 332.795 338.392 332.755L320.442 357.303C320.496 357.492 320.515 357.708 320.489 357.94C320.382 358.893 319.576 359.741 318.681 359.841C317.786 359.942 317.153 359.256 317.26 358.303C317.367 357.35 318.173 356.502 319.068 356.402C319.33 356.372 319.573 356.414 319.777 356.517L337.574 332.17L337.584 332.18Z" fill="#F99F1B"/>
<path d="M559.692 14.8937C559.447 17.0784 557.59 19.0307 555.539 19.2607C555.004 19.3206 554.517 19.2491 554.082 19.0913L538.78 40.6922L527.213 41.0599L510.616 64.0222C511.408 64.6448 511.86 65.6956 511.717 66.9739C511.471 69.1586 509.614 71.111 507.563 71.341C505.512 71.5709 504.053 69.9905 504.298 67.8058C504.544 65.6211 506.401 63.6687 508.452 63.4388C508.91 63.3874 509.335 63.443 509.731 63.5592L526.815 39.9112L538.381 39.5435L553.247 18.5653C552.543 17.9329 552.149 16.9329 552.284 15.7359C552.529 13.5512 554.386 11.5989 556.437 11.3689C558.488 11.1389 559.948 12.7193 559.702 14.9041L559.692 14.8937Z" fill="#F99F1B"/>
<path d="M359.259 341.289L361.842 337.96L364.307 339.896L361.724 343.225L359.259 341.289Z" fill="#F99F1B"/>
<path d="M367.003 331.297L369.586 327.968L372.051 329.904L369.468 333.233L367.003 331.297Z" fill="#F99F1B"/>
<path d="M374.768 321.282L377.352 317.952L379.817 319.888L377.234 323.217L374.768 321.282Z" fill="#F99F1B"/>
<path d="M382.526 311.289L385.109 307.96L387.575 309.896L384.992 313.225L382.526 311.289Z" fill="#F99F1B"/>
<path d="M390.288 301.305L392.871 297.976L395.337 299.911L392.753 303.241L390.288 301.305Z" fill="#F99F1B"/>
<path d="M398.05 291.313L400.633 287.983L403.098 289.919L400.515 293.249L398.05 291.313Z" fill="#F99F1B"/>
<path d="M531.538 155.953L534.121 152.624L536.587 154.56L534.003 157.889L531.538 155.953Z" fill="#F99F1B"/>
<path d="M539.331 145.93L541.914 142.601L544.379 144.536L541.796 147.866L539.331 145.93Z" fill="#F99F1B"/>
<path d="M547.057 135.938L549.641 132.608L552.106 134.544L549.523 137.874L547.057 135.938Z" fill="#F99F1B"/>
<path d="M554.811 125.946L557.395 122.616L559.86 124.552L557.277 127.881L554.811 125.946Z" fill="#F99F1B"/>
<path d="M562.577 115.938L565.16 112.608L567.626 114.544L565.042 117.874L562.577 115.938Z" fill="#F99F1B"/>
<path d="M570.35 105.93L572.934 102.601L575.399 104.536L572.816 107.866L570.35 105.93Z" fill="#F99F1B"/>
<path d="M511.917 330.563L514.5 327.233L516.965 329.169L514.382 332.499L511.917 330.563Z" fill="#F99F1B"/>
<path d="M519.651 320.578L522.234 317.249L524.7 319.185L522.117 322.514L519.651 320.578Z" fill="#F99F1B"/>
<path d="M527.421 310.555L530.004 307.226L532.469 309.161L529.886 312.491L527.421 310.555Z" fill="#F99F1B"/>
<path d="M535.171 300.547L537.754 297.218L540.219 299.154L537.636 302.483L535.171 300.547Z" fill="#F99F1B"/>
<path d="M542.917 290.563L545.5 287.233L547.965 289.169L545.382 292.499L542.917 290.563Z" fill="#F99F1B"/>
<path d="M550.71 280.555L553.293 277.226L555.758 279.161L553.175 282.491L550.71 280.555Z" fill="#F99F1B"/>
<path d="M511.858 101.992L534.817 72.9346L557.605 91.3541L534.646 120.411L511.858 101.992ZM534.822 75.0912L513.936 101.518L534.66 118.276L555.546 91.8489L534.822 75.0912Z" fill="#F99F1B"/>
<path d="M520.493 99.9989L534.799 81.8947L548.997 93.3717L534.691 111.476L520.493 99.9989ZM534.796 83.8341L522.363 99.5597L534.694 109.536L547.127 93.8109L534.796 83.8341Z" fill="#F99F1B"/>
<path d="M529.353 97.931L534.727 91.1318L540.059 95.4435L534.685 102.243L529.353 97.931Z" fill="#F99F1B"/>
<path d="M479.137 330.707L497.866 345.853L478.99 369.736L460.26 354.591L479.137 330.707ZM496.164 346.239L479.132 332.475L461.975 354.192L479.007 367.956L496.164 346.239Z" fill="#F99F1B"/>
<path d="M479.113 338.073L490.784 347.504L479.028 362.385L467.357 352.954L479.113 338.073ZM489.247 347.86L479.106 339.668L468.894 352.598L479.035 360.789L489.247 347.86Z" fill="#F99F1B"/>
<path d="M474.621 351.256L479.035 345.671L483.415 349.213L479.001 354.798L474.621 351.256Z" fill="#F99F1B"/>
<path d="M390.203 195.604L392.637 192.288L395.183 194.117L392.749 197.433L390.203 195.604Z" fill="#F99F1B"/>
<path d="M397.512 185.651L399.945 182.335L402.492 184.164L400.058 187.48L397.512 185.651Z" fill="#F99F1B"/>
<path d="M404.75 175.713L407.184 172.397L409.729 174.227L407.296 177.542L404.75 175.713Z" fill="#F99F1B"/>
<path d="M496.761 43.7077C496.542 45.6484 494.881 47.3952 493.059 47.5995C492.372 47.6766 491.753 47.528 491.274 47.1916L469.25 78.9437L468.538 95.7071L427.194 150.692C427.533 151.228 427.692 151.922 427.604 152.7C427.386 154.641 425.724 156.388 423.902 156.592C422.081 156.797 420.775 155.382 420.993 153.442C421.211 151.501 422.873 149.754 424.695 149.55C425.393 149.472 426.01 149.632 426.5 149.967L467.453 95.4961L468.162 78.7559L490.57 46.4558C490.232 45.92 490.062 45.2277 490.15 44.4491C490.368 42.5084 492.03 40.7616 493.851 40.5573C495.673 40.353 496.979 41.767 496.761 43.7077ZM422.291 153.296C422.158 154.482 422.955 155.345 424.068 155.22C425.18 155.095 426.194 154.029 426.328 152.844C426.461 151.658 425.664 150.795 424.551 150.92C423.439 151.045 422.425 152.111 422.291 153.296ZM491.437 44.3047C491.304 45.49 492.101 46.353 493.213 46.2283C494.326 46.1035 495.34 45.0374 495.474 43.8521C495.607 42.6667 494.81 41.8037 493.697 41.9285C492.584 42.0533 491.57 43.1194 491.437 44.3047Z" fill="#F99F1B"/>
<g style="mix-blend-mode:overlay" opacity="0.38">
<path d="M498.957 296.354C499.391 292.496 502.689 289.028 506.311 288.622C507.282 288.513 508.172 288.642 508.955 288.956L549.706 236.183L581.768 232.588L615.576 185.125C614.931 184.062 614.63 182.719 614.8 181.208C615.234 177.35 618.532 173.882 622.154 173.476C625.776 173.069 628.369 175.877 627.935 179.735C627.501 183.593 624.202 187.061 620.58 187.467C619.315 187.609 618.18 187.358 617.262 186.807L582.801 235.18L550.663 238.784L510.87 290.325C511.819 291.458 512.309 293.044 512.101 294.891C511.667 298.75 508.368 302.217 504.746 302.624C501.125 303.03 498.532 300.222 498.966 296.364L498.957 296.354ZM625.372 180.011C625.636 177.663 624.062 175.958 621.858 176.205C619.654 176.452 617.651 178.559 617.387 180.906C617.123 183.254 618.697 184.959 620.901 184.712C623.105 184.465 625.108 182.358 625.372 180.011ZM509.528 295.168C509.792 292.821 508.217 291.116 506.013 291.363C503.81 291.61 501.806 293.717 501.542 296.064C501.278 298.411 502.853 300.117 505.056 299.869C507.26 299.622 509.263 297.516 509.528 295.168Z" fill="#F99F1B"/>
</g>
<g style="mix-blend-mode:overlay" opacity="0.38">
<path d="M554.293 62.9555C554.727 59.0973 558.025 55.6294 561.647 55.2232C562.618 55.1144 563.508 55.244 564.291 55.5578L605.042 2.78464L637.104 -0.81077L670.912 -48.2731C670.267 -49.3367 669.966 -50.6799 670.136 -52.1906C670.57 -56.0487 673.868 -59.5167 677.49 -59.9228C681.112 -60.329 683.705 -57.5216 683.271 -53.6635C682.837 -49.8054 679.538 -46.3374 675.916 -45.9313C674.651 -45.7894 673.516 -46.0407 672.598 -46.5918L638.137 1.78129L605.999 5.38526L566.205 56.9266C567.155 58.0593 567.645 59.6452 567.437 61.493C567.003 65.3511 563.704 68.819 560.082 69.2252C556.461 69.6313 553.868 66.824 554.302 62.9659L554.293 62.9555ZM680.708 -53.3876C680.972 -55.735 679.398 -57.4402 677.194 -57.1931C674.99 -56.946 672.987 -54.8396 672.723 -52.4921C672.459 -50.1447 674.033 -48.4395 676.237 -48.6866C678.441 -48.9338 680.444 -51.0402 680.708 -53.3876ZM564.863 61.7701C565.128 59.4226 563.553 57.7174 561.349 57.9646C559.146 58.2117 557.142 60.3181 556.878 62.6655C556.614 65.013 558.189 66.7182 560.392 66.471C562.596 66.2239 564.599 64.1175 564.863 61.7701Z" fill="#F99F1B"/>
</g>
<g style="mix-blend-mode:overlay" opacity="0.38">
<path d="M315.734 317.021C316.306 317.588 316.59 318.416 316.517 319.354C316.433 320.384 315.935 321.37 315.215 322.116L317.259 336.884L277.195 393.32L276.455 392.818C276.953 393.462 277.214 394.305 277.138 395.266C277.057 396.365 276.567 397.464 275.766 398.369C274.965 399.262 273.951 399.846 272.9 399.998C271.859 400.161 270.899 399.878 270.221 399.209C269.542 398.539 269.21 397.566 269.303 396.454C269.318 396.315 269.335 396.164 269.351 396.024C269.513 395.065 269.973 394.13 270.664 393.353C271.465 392.46 272.478 391.876 273.529 391.724C274.165 391.629 274.759 391.712 275.284 391.928L314.514 336.675L312.681 323.387C310.976 323.509 309.731 322.226 309.874 320.374C309.889 320.246 309.902 320.13 309.915 320.014C310.049 319.207 310.439 318.418 311.031 317.755C311.708 317.002 312.572 316.503 313.46 316.369C314.347 316.235 315.151 316.466 315.733 317.032L315.734 317.021ZM273.466 392.763C272.688 392.885 271.929 393.314 271.326 393.979C270.734 394.642 270.373 395.462 270.301 396.297C270.24 397.118 270.481 397.848 270.985 398.354C271.489 398.848 272.197 399.067 272.986 398.944C273.765 398.823 274.524 398.393 275.127 397.729C275.644 397.155 275.992 396.45 276.116 395.736C276.127 395.632 276.139 395.527 276.152 395.411C276.212 394.59 275.971 393.859 275.468 393.353C274.964 392.859 274.256 392.64 273.466 392.763ZM313.361 317.723C312.824 317.806 312.295 318.106 311.877 318.566C311.459 319.026 311.211 319.605 311.168 320.172C311.079 321.352 311.912 322.177 313.03 322.005C314.083 321.841 315.011 320.865 315.198 319.777C315.206 319.707 315.215 319.626 315.223 319.556C315.265 318.989 315.096 318.48 314.748 318.129C314.4 317.778 313.909 317.638 313.361 317.723Z" fill="#F99F1B"/>
</g>
<g style="mix-blend-mode:overlay" opacity="0.38">
<path d="M570.354 -79.8309C569.967 -76.3912 567.022 -73.2957 563.793 -72.9336C563.542 -72.9055 563.319 -72.9263 563.082 -72.9342L527.199 -21.2002L529.342 21.4159L528.693 22.3034C525.1 27.2386 493.479 70.6691 489.9 74.4325L489.191 75.1774L451.043 80.8781L398.383 153.724C399.494 155.24 400.065 157.253 399.804 159.578C399.209 164.865 394.687 169.629 389.713 170.187C384.738 170.745 381.187 166.886 381.782 161.598C382.377 156.311 386.909 151.546 391.873 150.989C393.007 150.862 394.049 150.986 395.005 151.292L449.17 76.3723L487.713 70.6043C492.03 65.3584 511.49 38.8737 524.676 20.7572L522.536 -21.7788L559.423 -74.9678C558.809 -75.9317 558.506 -77.1599 558.663 -78.5544C559.05 -81.9942 561.994 -85.0896 565.223 -85.4517C568.452 -85.8138 570.766 -83.308 570.379 -79.8683L570.354 -79.8309ZM384.058 161.378C383.613 165.329 386.274 168.197 389.983 167.781C393.693 167.365 397.075 163.819 397.52 159.868C397.964 155.917 395.303 153.048 391.594 153.464C387.885 153.88 384.502 157.427 384.058 161.378ZM560.917 -78.7728C560.681 -76.6694 562.092 -75.1409 564.067 -75.3624C566.041 -75.5838 567.837 -77.4719 568.074 -79.5753C568.31 -81.6786 566.899 -83.2071 564.924 -82.9857C562.95 -82.7642 561.154 -80.8761 560.917 -78.7728Z" fill="#F99F1B"/>
</g>
<g style="mix-blend-mode:overlay" opacity="0.38">
<path d="M490.754 270.567L493.283 267.304L495.606 268.703L493.077 271.967L490.754 270.567Z" fill="#F99F1B"/>
<path d="M497.535 261.099L500.064 257.835L502.387 259.234L499.858 262.498L497.535 261.099Z" fill="#F99F1B"/>
<path d="M504.305 251.622L506.834 248.358L509.157 249.758L506.628 253.021L504.305 251.622Z" fill="#F99F1B"/>
<path d="M511.09 242.146L513.619 238.882L515.942 240.281L513.413 243.545L511.09 242.146Z" fill="#F99F1B"/>
<path d="M517.898 232.7L520.428 229.437L522.751 230.836L520.221 234.1L517.898 232.7Z" fill="#F99F1B"/>
<path d="M524.648 223.224L527.178 219.96L529.501 221.359L526.971 224.623L524.648 223.224Z" fill="#F99F1B"/>
</g>
<g style="mix-blend-mode:overlay" opacity="0.38">
<path d="M245.764 342.851L250.717 336.46L255.275 339.206L250.322 345.597L245.764 342.851Z" fill="#F99F1B"/>
<path d="M259.084 324.304L264.037 317.913L268.595 320.659L263.643 327.05L259.084 324.304Z" fill="#F99F1B"/>
<path d="M272.362 305.749L277.314 299.358L281.873 302.104L276.92 308.495L272.362 305.749Z" fill="#F99F1B"/>
<path d="M285.643 287.195L290.596 280.804L295.154 283.549L290.201 289.94L285.643 287.195Z" fill="#F99F1B"/>
<path d="M298.924 268.663L303.877 262.272L308.435 265.018L303.483 271.409L298.924 268.663Z" fill="#F99F1B"/>
<path d="M312.209 250.109L317.162 243.718L321.72 246.463L316.768 252.854L312.209 250.109Z" fill="#F99F1B"/>
</g>
<path d="M311.903 -17.0819L256.823 62.0482C257.459 62.6194 257.811 63.5093 257.69 64.5901C257.472 66.5308 255.81 68.2776 253.988 68.4819C252.166 68.6862 250.861 67.2721 251.079 65.3314C251.297 63.3907 252.959 61.6439 254.781 61.4396C255.206 61.3919 255.599 61.4396 255.953 61.5491L310.686 -17.0831L307.393 -29.6568L385.728 -132.909L386.522 -132.31L308.628 -29.6232L311.903 -17.0819ZM252.368 65.1754C252.234 66.3608 253.031 67.2238 254.144 67.099C255.257 66.9742 256.271 65.9081 256.404 64.7228C256.537 63.5375 255.74 62.6745 254.628 62.7993C253.515 62.924 252.501 63.9901 252.368 65.1754Z" fill="#F99F1B"/>
<path d="M295.845 -49.0387C296.063 -50.9794 297.724 -52.7262 299.546 -52.9305C301.368 -53.1348 302.674 -51.7208 302.456 -49.7801C302.237 -47.8394 300.576 -46.0926 298.754 -45.8883C298.099 -45.8149 297.523 -45.9568 297.049 -46.2479C292.858 -41.1653 258.525 3.10871 240.047 26.9934L241.684 47.1997L220.709 80.5438C221.378 81.1113 221.76 82.0208 221.636 83.1248C221.418 85.0655 219.756 86.8123 217.934 87.0166C216.113 87.2209 214.807 85.8068 215.025 83.8662C215.243 81.9255 216.905 80.1787 218.727 79.9744C219.119 79.9303 219.492 79.9688 219.825 80.0692L240.551 47.1201L238.913 26.8338L239.089 26.6075C241.281 23.7799 290.891 -40.3365 296.341 -46.9372C295.95 -47.4901 295.763 -48.2149 295.856 -49.0399L295.845 -49.0387ZM216.301 83.723C216.168 84.9084 216.965 85.7713 218.078 85.6466C219.19 85.5218 220.204 84.4557 220.338 83.2704C220.471 82.0851 219.674 81.2221 218.561 81.3469C217.449 81.4716 216.435 82.5377 216.301 83.723ZM301.168 -49.6357C301.302 -50.821 300.505 -51.684 299.392 -51.5593C298.279 -51.4345 297.265 -50.3684 297.132 -49.1831C296.999 -47.9978 297.795 -47.1348 298.908 -47.2595C300.021 -47.3843 301.035 -48.4504 301.168 -49.6357Z" fill="#F99F1B"/>
<path d="M287.152 83.5806C287.053 84.4638 286.632 85.3256 285.984 86.018C285.324 86.7115 284.511 87.1354 283.682 87.2284C282.853 87.3214 282.118 87.0596 281.598 86.5097C280.571 85.3972 280.815 83.2241 282.122 81.8498C282.782 81.1562 283.595 80.7323 284.424 80.6393C285.253 80.5464 285.988 80.8081 286.508 81.358C287.026 81.9194 287.25 82.7091 287.151 83.5922L287.152 83.5806ZM282.624 82.3672C282.123 82.8938 281.822 83.5586 281.752 84.1862C281.681 84.8137 281.838 85.4272 282.232 85.8535C283.029 86.7164 284.491 86.5525 285.505 85.4864C286.519 84.4204 286.694 82.8632 285.897 82.0002C285.1 81.1372 283.638 81.3011 282.624 82.3672Z" fill="#F99F1B"/>
<path d="M403.833 35.9129C404.044 34.0303 405.657 32.3349 407.424 32.1367C407.817 32.0927 408.19 32.1312 408.522 32.2431L428.848 2.94184L427.641 -21.0877L427.794 -21.2999C428.598 -22.4112 447.581 -48.4868 449.597 -50.6061L449.768 -50.7859L471.372 -54.0118L501.235 -95.3175C500.31 -96.1891 499.794 -97.5426 499.975 -99.1463C500.311 -102.133 502.864 -104.817 505.667 -105.132C508.471 -105.446 510.478 -103.273 510.142 -100.286C509.806 -97.2999 507.253 -94.6154 504.449 -94.301C503.544 -94.1995 502.735 -94.3842 502.043 -94.7426L471.822 -52.9378L450.118 -49.6893C448 -47.2372 435.43 -30.0963 428.766 -20.9384L429.975 3.06781L409.404 32.7293C410.032 33.2786 410.374 34.1581 410.258 35.1924C410.046 37.0749 408.434 38.7704 406.666 38.9686C404.899 39.1667 403.632 37.7943 403.844 35.9117L403.833 35.9129ZM508.834 -100.151C509.085 -102.382 507.587 -104.004 505.493 -103.77C503.398 -103.535 501.492 -101.531 501.241 -99.2998C500.99 -97.0686 502.488 -95.4466 504.583 -95.6814C506.677 -95.9163 508.583 -97.92 508.834 -100.151ZM409.156 35.3159C409.296 34.0725 408.461 33.1679 407.294 33.2988C406.126 33.4297 405.063 34.5471 404.924 35.7906C404.784 37.034 405.619 37.9386 406.786 37.8077C407.954 37.6768 409.016 36.5593 409.156 35.3159Z" fill="#F99F1B"/>
<path d="M290.406 125.161L306.966 123.304L377.922 19.9612L376.46 5.09383L417.757 -49.4732C417.308 -50.272 417.108 -51.2708 417.232 -52.3748C417.568 -55.3613 420.121 -58.0458 422.925 -58.3602C425.729 -58.6746 427.735 -56.5015 427.399 -53.5149C427.063 -50.5284 424.51 -47.8439 421.707 -47.5295C420.354 -47.3778 419.187 -47.8206 418.375 -48.6475L377.597 5.23021L379.053 20.0523L307.596 124.117L307.404 124.391L290.266 126.312C289.725 128.725 287.616 130.809 285.304 131.068C282.805 131.349 281.009 129.416 281.309 126.743C281.61 124.07 283.882 121.681 286.391 121.4C288.704 121.141 290.393 122.787 290.396 125.15L290.406 125.161ZM426.111 -53.359C426.362 -55.5902 424.864 -57.2122 422.769 -56.9773C420.675 -56.7424 418.769 -54.7387 418.518 -52.5075C418.267 -50.2763 419.765 -48.6543 421.86 -48.8892C423.954 -49.124 425.86 -51.1277 426.111 -53.359ZM282.617 126.608C282.403 128.514 283.689 129.907 285.478 129.706C287.267 129.506 288.904 127.785 289.119 125.879C289.333 123.973 288.058 122.579 286.258 122.78C284.458 122.982 282.831 124.702 282.617 126.608Z" fill="#F99F1B"/>
<path d="M362.43 -23.328C362.43 -23.328 362.419 -23.3268 362.408 -23.3255C360.587 -23.1213 359.281 -24.5353 359.499 -26.476C359.717 -28.4167 361.379 -30.1635 363.201 -30.3678C365.022 -30.5721 366.328 -29.158 366.11 -27.2173C365.937 -25.6834 364.865 -24.2895 363.523 -23.6571L363.746 -6.87225L301.567 81.0744L287.141 84.1608L287.163 83.0109L301.071 80.0285L362.634 -7.04594L362.421 -23.3384L362.43 -23.328ZM364.823 -27.073C364.956 -28.2583 364.159 -29.1213 363.046 -28.9965C361.934 -28.8718 360.92 -27.8057 360.786 -26.6204C360.653 -25.435 361.45 -24.572 362.563 -24.6968C363.675 -24.8216 364.689 -25.8877 364.823 -27.073Z" fill="#F99F1B"/>
<path d="M319.471 5.22192C319.717 3.03719 321.574 1.08488 323.625 0.854886C325.675 0.624898 327.135 2.20532 326.889 4.39004C326.643 6.57477 324.786 8.52709 322.736 8.75708C322.277 8.80846 321.853 8.75281 321.457 8.63661L294.129 46.4566C294.464 46.9239 294.642 47.5466 294.562 48.2554C294.377 49.9056 292.972 51.3827 291.423 51.5564C289.874 51.7301 288.769 50.5344 288.955 48.8842C289.141 47.2341 290.546 45.757 292.095 45.5833C292.575 45.5294 293.006 45.6187 293.373 45.8071L320.571 8.17361C319.78 7.55098 319.327 6.50021 319.471 5.22192ZM290.242 48.7399C290.142 49.6347 290.737 50.2793 291.577 50.1851C292.417 50.0909 293.174 49.2946 293.275 48.3998C293.376 47.505 292.78 46.8603 291.94 46.9545C291.1 47.0487 290.343 47.8451 290.242 48.7399Z" fill="#F99F1B"/>
<path d="M224.996 234.394C225.241 232.21 227.098 230.257 229.149 230.027C229.684 229.967 230.171 230.039 230.606 230.197L245.908 208.596L257.475 208.228L274.072 185.266C273.28 184.643 272.827 183.592 272.971 182.314C273.217 180.129 275.074 178.177 277.125 177.947C279.176 177.717 280.635 179.297 280.389 181.482C280.144 183.667 278.287 185.619 276.236 185.849C275.778 185.901 275.353 185.845 274.957 185.729L257.873 209.377L246.306 209.744L231.441 230.723C232.145 231.355 232.539 232.355 232.404 233.552C232.158 235.737 230.301 237.689 228.251 237.919C226.2 238.149 224.74 236.569 224.986 234.384L224.996 234.394Z" fill="#F99F1B"/>
<path d="M248.089 94.7581L250.672 91.4287L253.137 93.3645L250.554 96.6939L248.089 94.7581Z" fill="#F99F1B"/>
<path d="M240.339 104.742L242.922 101.413L245.387 103.349L242.804 106.678L240.339 104.742Z" fill="#F99F1B"/>
<path d="M232.569 114.735L235.152 111.405L237.618 113.341L235.035 116.671L232.569 114.735Z" fill="#F99F1B"/>
<path d="M224.815 124.766L227.398 121.437L229.864 123.372L227.281 126.702L224.815 124.766Z" fill="#F99F1B"/>
<path d="M217.073 134.758L219.656 131.429L222.122 133.365L219.538 136.694L217.073 134.758Z" fill="#F99F1B"/>
<path d="M209.3 144.75L211.883 141.421L214.348 143.357L211.765 146.686L209.3 144.75Z" fill="#F99F1B"/>
<path d="M272.832 147.284L249.873 176.341L227.084 157.922L250.043 128.864L272.832 147.284ZM249.879 174.183L270.765 147.757L250.04 130.999L229.154 157.426L249.879 174.183Z" fill="#F99F1B"/>
<path d="M264.198 149.286L249.893 167.39L235.694 155.913L250 137.809L264.198 149.286ZM249.906 165.449L262.339 149.724L250.008 139.747L237.575 155.473L249.906 165.449Z" fill="#F99F1B"/>
<path d="M244.579 153.853L249.953 147.054L255.285 151.365L249.911 158.165L244.579 153.853Z" fill="#F99F1B"/>
<path d="M389.559 55.1588L391.992 51.8428L394.538 53.6715L392.105 56.9876L389.559 55.1588Z" fill="#F99F1B"/>
<path d="M382.258 65.112L384.691 61.7959L387.238 63.6246L384.804 66.9407L382.258 65.112Z" fill="#F99F1B"/>
<path d="M374.898 75.0804L377.332 71.7646L379.878 73.5939L377.444 76.9097L374.898 75.0804Z" fill="#F99F1B"/>
<path d="M287.921 205.59C288.139 203.65 289.801 201.903 291.622 201.698C292.31 201.621 292.928 201.77 293.408 202.106L315.431 170.354L316.143 153.591L357.487 98.6055C357.149 98.0697 356.99 97.3761 357.078 96.5975C357.296 94.6568 358.957 92.91 360.779 92.7057C362.601 92.5014 363.907 93.9155 363.689 95.8562C363.47 97.7968 361.809 99.5437 359.987 99.748C359.289 99.8263 358.671 99.666 358.181 99.3309L317.229 153.802L316.52 170.542L294.111 202.842C294.45 203.378 294.619 204.07 294.532 204.849C294.313 206.79 292.652 208.536 290.83 208.741C289.008 208.945 287.702 207.531 287.921 205.59ZM362.403 95.9889C362.536 94.8036 361.739 93.9406 360.626 94.0654C359.513 94.1901 358.5 95.2562 358.366 96.4415C358.233 97.6269 359.03 98.4899 360.142 98.3651C361.255 98.2403 362.269 97.1742 362.403 95.9889ZM293.244 204.993C293.378 203.808 292.581 202.945 291.468 203.07C290.355 203.194 289.341 204.261 289.208 205.446C289.075 206.631 289.872 207.494 290.984 207.369C292.097 207.245 293.111 206.179 293.244 204.993Z" fill="#F99F1B"/>
<g style="mix-blend-mode:overlay" opacity="0.38">
<path d="M285.734 -47.0581C285.3 -43.2 282.002 -39.732 278.38 -39.3259C277.409 -39.217 276.519 -39.3467 275.735 -39.6604L234.985 13.1127L202.923 16.7081L169.114 64.1705C169.759 65.2341 170.061 66.5772 169.891 68.0879C169.457 71.9461 166.158 75.414 162.536 75.8202C158.915 76.2263 156.322 73.419 156.756 69.5608C157.19 65.7027 160.489 62.2348 164.11 61.8286C165.376 61.6867 166.511 61.9381 167.429 62.4892L201.89 14.1161L234.028 10.5121L273.821 -41.0292C272.871 -42.162 272.382 -43.7479 272.59 -45.5956C273.024 -49.4537 276.322 -52.9217 279.944 -53.3278C283.566 -53.734 286.159 -50.9267 285.724 -47.0685L285.734 -47.0581ZM159.318 69.285C159.054 71.6324 160.629 73.3376 162.833 73.0905C165.036 72.8434 167.04 70.7369 167.304 68.3895C167.568 66.0421 165.993 64.3369 163.79 64.584C161.586 64.8311 159.582 66.9376 159.318 69.285ZM275.174 -45.8739C274.91 -43.5265 276.485 -41.8213 278.688 -42.0684C280.892 -42.3155 282.895 -44.422 283.16 -46.7694C283.424 -49.1168 281.849 -50.822 279.645 -50.5749C277.442 -50.3278 275.438 -48.2213 275.174 -45.8739Z" fill="#F99F1B"/>
</g>
<g style="mix-blend-mode:overlay" opacity="0.38">
<path d="M230.406 186.34C229.972 190.198 226.673 193.666 223.052 194.073C222.081 194.181 221.19 194.052 220.407 193.738L179.657 246.511L147.595 250.107L113.786 297.569C114.431 298.633 114.733 299.976 114.563 301.486C114.129 305.344 110.83 308.812 107.208 309.219C103.586 309.625 100.994 306.817 101.428 302.959C101.862 299.101 105.16 295.633 108.782 295.227C110.048 295.085 111.183 295.337 112.101 295.888L146.561 247.514L178.7 243.911L218.493 192.369C217.543 191.236 217.054 189.651 217.262 187.803C217.696 183.945 220.994 180.477 224.616 180.071C228.238 179.664 230.83 182.472 230.396 186.33L230.406 186.34ZM103.99 302.683C103.726 305.031 105.301 306.736 107.505 306.489C109.708 306.242 111.712 304.135 111.976 301.788C112.24 299.44 110.665 297.735 108.462 297.982C106.258 298.23 104.254 300.336 103.99 302.683ZM219.835 187.526C219.571 189.873 221.146 191.578 223.349 191.331C225.553 191.084 227.556 188.978 227.82 186.63C228.085 184.283 226.51 182.578 224.306 182.825C222.103 183.072 220.099 185.178 219.835 187.526Z" fill="#F99F1B"/>
</g>
<g style="mix-blend-mode:overlay" opacity="0.38">
<path d="M196.668 341.327C196.048 340.811 195.718 340.011 195.735 339.091C195.753 338.067 196.2 337.065 196.88 336.289L193.908 321.912L231.023 263.637L231.803 264.078C231.257 263.473 230.95 262.659 230.959 261.717C230.974 260.625 231.401 259.51 232.153 258.577C232.904 257.643 233.902 257.004 234.952 256.771C236.001 256.539 236.979 256.75 237.708 257.357C238.437 257.964 238.826 258.907 238.811 259.999C238.806 260.137 238.8 260.287 238.784 260.426C238.677 261.379 238.268 262.331 237.618 263.139C236.866 264.072 235.868 264.712 234.818 264.944C234.178 265.085 233.58 265.037 233.028 264.87L196.686 321.922L199.356 334.864C201.074 334.625 202.417 335.806 202.384 337.634C202.38 337.76 202.378 337.875 202.365 337.992C202.275 338.793 201.925 339.601 201.373 340.294C200.735 341.089 199.887 341.631 199.004 341.822C198.11 342.014 197.289 341.842 196.668 341.327ZM234.849 263.908C235.633 263.74 236.377 263.255 236.939 262.561C237.502 261.867 237.823 261.027 237.839 260.211C237.856 259.394 237.558 258.694 237.016 258.238C236.475 257.782 235.739 257.624 234.955 257.792C234.172 257.96 233.428 258.445 232.865 259.139C232.377 259.745 232.07 260.456 231.991 261.165C231.979 261.27 231.967 261.374 231.965 261.489C231.948 262.306 232.247 263.007 232.788 263.462C233.329 263.918 234.065 264.076 234.849 263.908ZM199.037 340.476C199.578 340.358 200.089 340.025 200.488 339.544C200.876 339.065 201.104 338.477 201.113 337.914C201.136 336.752 200.242 335.992 199.114 336.245C198.065 336.477 197.186 337.494 197.063 338.586C197.055 338.656 197.046 338.737 197.038 338.807C197.029 339.37 197.233 339.852 197.606 340.178C197.98 340.491 198.484 340.607 199.036 340.488L199.037 340.476Z" fill="#F99F1B"/>
</g>
<g style="mix-blend-mode:overlay" opacity="0.38">
<path d="M214.344 329.123C214.731 325.683 217.675 322.587 220.904 322.225C221.155 322.197 221.379 322.218 221.615 322.226L257.498 270.492L255.356 227.876L256.005 226.988C259.598 222.053 291.218 178.623 294.798 174.859L295.506 174.114L333.654 168.414L386.314 95.5675C385.203 94.0513 384.632 92.0384 384.894 89.7143C385.488 84.4268 390.01 79.6628 394.984 79.1049C399.959 78.5471 403.51 82.4058 402.916 87.6933C402.321 92.9808 397.788 97.746 392.825 98.3026C391.69 98.4299 390.649 98.3057 389.692 97.9999L335.528 172.919L296.985 178.687C292.667 183.933 273.208 210.418 260.021 228.535L262.162 271.071L225.275 324.26C225.888 325.223 226.191 326.452 226.034 327.846C225.647 331.286 222.703 334.381 219.474 334.743C216.245 335.106 213.931 332.6 214.318 329.16L214.344 329.123ZM400.649 87.9245C401.094 83.9734 398.433 81.1049 394.723 81.5209C391.014 81.9368 387.632 85.483 387.187 89.4341C386.743 93.3852 389.404 96.2537 393.113 95.8378C396.822 95.4218 400.205 91.8756 400.649 87.9245ZM223.78 328.065C224.017 325.961 222.605 324.433 220.631 324.654C218.656 324.876 216.86 326.764 216.624 328.867C216.387 330.97 217.799 332.499 219.773 332.277C221.748 332.056 223.544 330.168 223.78 328.065Z" fill="#F99F1B"/>
</g>
<g style="mix-blend-mode:overlay" opacity="0.38">
<path d="M275.541 -0.46281L278.07 -3.72656L280.393 -2.32729L277.864 0.936464L275.541 -0.46281Z" fill="#F99F1B"/>
<path d="M268.756 8.98249L271.285 5.71875L273.608 7.11802L271.079 10.3818L268.756 8.98249Z" fill="#F99F1B"/>
<path d="M261.99 18.4747L264.52 15.2109L266.843 16.6102L264.313 19.874L261.99 18.4747Z" fill="#F99F1B"/>
<path d="M255.193 27.9434L257.723 24.6797L260.046 26.079L257.516 29.3427L255.193 27.9434Z" fill="#F99F1B"/>
</g>
<g style="mix-blend-mode:overlay" opacity="0.38">
<path d="M462.983 2.81176L467.936 -3.5791L472.494 -0.83338L467.541 5.55748L462.983 2.81176Z" fill="#F99F1B"/>
</g>
</g>
</svg>
