<svg width="128" height="53" viewBox="0 0 128 53" fill="none" xmlns="http://www.w3.org/2000/svg">
<path d="M127.672 16.7661H0.519531V41.223H127.672V16.7661Z" fill="url(#paint0_linear_1933_2164)"/>
<path d="M83.3334 36.5208C82.4822 36.5208 81.7933 36.3905 81.2639 36.1245C80.7345 35.8611 80.3222 35.51 80.027 35.0711C79.729 34.6322 79.5295 34.1268 79.4258 33.5522C79.322 32.9803 79.2715 32.3764 79.2715 31.746V4.56787H76.9333C76.4305 4.56787 75.9517 4.61043 75.5021 4.69556C75.0499 4.77802 74.6536 4.919 74.3131 5.12117C73.9699 5.32068 73.6986 5.58136 73.4991 5.90323C73.2996 6.22511 73.2012 6.6188 73.2012 7.08165V22.0579C73.422 22.3878 73.6747 22.6964 73.954 22.9757C75.0473 24.0716 76.5635 24.75 78.2341 24.75C76.1353 24.75 74.2865 25.8193 73.2012 27.442V31.746C73.2012 32.4935 73.2491 33.2436 73.3448 33.9991C73.4432 34.7519 73.6188 35.4807 73.8768 36.183C74.1349 36.8853 74.4833 37.5423 74.9222 38.1541C75.3585 38.7686 75.9145 39.3006 76.5848 39.7502C77.2551 40.2024 78.0611 40.5588 79.0002 40.8249C79.9418 41.0882 81.0431 41.2212 82.3067 41.2212H94.8729V36.5208H83.3334Z" fill="#A0A3A9"/>
<path d="M93.7051 36.527H94.3036C95.1016 36.527 95.756 36.402 96.2667 36.1493C96.7748 35.8992 97.1818 35.5588 97.4851 35.1331C97.7883 34.7075 97.9985 34.2207 98.1128 33.6728C98.2299 33.1248 98.2857 32.5555 98.2857 31.9623V19.2923C98.2857 18.7497 98.4055 18.3187 98.6422 17.9969C98.8816 17.675 99.1875 17.4276 99.5599 17.252C99.935 17.0791 100.347 16.9594 100.797 16.8956C101.249 16.8317 101.68 16.7918 102.092 16.7785H104.375V31.9623C104.375 32.4784 104.34 32.9865 104.268 33.4892C104.196 33.992 104.098 34.4947 103.968 34.9975C104.263 35.4098 104.633 35.7396 105.069 35.9844C105.508 36.2291 106.016 36.3515 106.596 36.3515C107.125 36.3515 107.577 36.269 107.958 36.0988C108.338 35.9312 108.649 35.7024 108.897 35.4124C109.142 35.1225 109.32 34.7873 109.429 34.4069C109.538 34.0265 109.594 33.6249 109.594 33.1993V19.2897C109.594 18.8241 109.69 18.4358 109.884 18.1192C110.078 17.8027 110.339 17.5446 110.666 17.3451C110.996 17.1456 111.384 16.9993 111.836 16.9115C112.288 16.8238 112.765 16.7759 113.267 16.7759H115.414V32.7524C115.414 33.2046 115.478 33.6462 115.608 34.0771C115.736 34.508 115.933 34.8937 116.199 35.2289C116.462 35.5641 116.8 35.8354 117.215 36.0402C117.627 36.2477 118.117 36.3488 118.683 36.3488C119.25 36.3488 119.726 36.2584 120.114 36.0775C120.5 35.8966 120.814 35.6519 121.053 35.3433C121.293 35.0347 121.463 34.6729 121.567 34.2606C121.671 33.8483 121.721 33.4174 121.721 32.9652V19.2897C121.721 18.8241 121.82 18.4331 122.022 18.1112C122.221 17.7894 122.493 17.5313 122.833 17.3372C123.174 17.143 123.567 17.002 124.011 16.9115C124.456 16.8211 124.929 16.7759 125.432 16.7759H127.656V34.1063C127.656 35.189 127.483 36.1679 127.134 37.0457C126.786 37.9236 126.296 38.6711 125.666 39.2882C125.033 39.908 124.275 40.3842 123.384 40.7193C122.495 41.0545 121.514 41.2221 120.444 41.2221C119.697 41.2221 119.003 41.1396 118.367 40.9694C117.728 40.8018 117.148 40.5757 116.627 40.2937C116.106 40.0091 115.635 39.6713 115.215 39.2776C114.794 38.8839 114.432 38.4689 114.121 38.03C113.89 38.4822 113.603 38.8998 113.262 39.2855C112.922 39.6713 112.515 40.0117 112.044 40.3017C111.573 40.5916 111.036 40.8177 110.429 40.9774C109.823 41.1396 109.139 41.2194 108.378 41.2194C107.681 41.2194 107.037 41.1396 106.444 40.9774C105.851 40.8151 105.314 40.5943 104.83 40.3097C104.345 40.025 103.917 39.6979 103.545 39.3228C103.172 38.9477 102.848 38.5487 102.579 38.1231C101.882 39.102 100.967 39.8628 99.8339 40.4054C98.7007 40.9481 97.3255 41.2168 95.7161 41.2168H93.7051V36.519V36.527Z" fill="#A0A3A9"/>
<path d="M26.8007 26.2232C27.3035 26.2232 27.777 26.2684 28.2212 26.3589C28.6654 26.4493 29.0591 26.5903 29.3996 26.7845C29.7401 26.9787 30.0114 27.2367 30.2109 27.5586C30.4104 27.8804 30.5115 28.2741 30.5115 28.737C30.5115 29.4845 30.5115 30.232 30.5009 30.9794C30.4956 31.7269 30.5009 39.4066 30.5115 40.1541C30.5115 40.6063 30.5594 41.0825 30.6552 41.5852C30.7509 42.088 30.8893 42.5588 31.0701 42.9977C31.4319 43.8729 31.9719 44.5246 32.6955 44.9502C33.4163 45.3758 34.3846 45.5886 35.5949 45.5886C36.8053 45.5886 37.7709 45.3758 38.4865 44.9502C39.202 44.5246 39.7394 43.8729 40.1011 42.9977C40.282 42.5721 40.4203 42.1039 40.5161 41.5959C40.6119 41.0878 40.6624 40.6063 40.6624 40.1541V19.2804C40.6624 18.7377 40.7821 18.3068 41.0189 17.9849C41.2583 17.6631 41.5642 17.4157 41.9366 17.2401C42.309 17.0672 42.724 16.9475 43.1735 16.8836C43.6257 16.8198 44.0567 16.7799 44.469 16.7666H46.7514V36.5177H51.0634V41.2155H46.6742C46.5465 42.5295 46.2513 43.7425 45.7937 44.8518C45.3362 45.9611 44.6658 46.9187 43.7827 47.722C42.8995 48.528 41.769 49.1558 40.3884 49.608C39.0078 50.0603 37.3213 50.2837 35.3236 50.2837C34.5495 50.2837 33.7808 50.2278 33.012 50.1188C32.2459 50.0097 31.5064 49.8421 30.7988 49.616C30.0886 49.3899 29.4182 49.1 28.7878 48.7462C28.1547 48.3924 27.5961 47.9641 27.1066 47.4613C26.6172 46.9586 26.2022 46.392 25.859 45.7589C25.5185 45.1258 25.2392 44.4767 25.0264 43.8064C24.8136 43.136 24.6593 42.4657 24.5636 41.7954C24.4678 41.125 24.4199 40.4946 24.4199 39.9014V26.2206H26.8007V26.2232Z" fill="#A0A3A9"/>
<path d="M71.385 21.6784V16.7759H69.0069C68.5042 16.7759 68.0307 16.8211 67.5864 16.9115C67.1422 17.002 66.7485 17.143 66.408 17.3372C66.0649 17.5287 65.7935 17.7867 65.594 18.1086C65.3945 18.4331 65.2961 18.8241 65.2961 19.2897V31.9543C65.2961 32.5475 65.2349 33.1168 65.1126 33.6648C64.9875 34.2128 64.78 34.6996 64.4821 35.1252C64.1868 35.5508 63.7799 35.8886 63.2638 36.1387C62.7477 36.3914 62.0907 36.5164 61.2927 36.5164H49.9102V41.2141H62.7052C63.6841 41.2141 64.5699 41.1157 65.3626 40.9162C66.1553 40.7167 66.8629 40.4294 67.4907 40.0543C68.1158 39.6819 68.6558 39.2297 69.1133 38.7003C69.5709 38.1736 69.9539 37.5804 70.2651 36.9234C70.6376 36.1227 70.9195 35.306 71.1057 34.4681C71.2919 33.6302 71.385 32.7923 71.385 31.9543V27.8232C71.1164 27.3444 70.7839 26.9108 70.3981 26.5251C69.3022 25.4291 67.7886 24.7508 66.1154 24.7508C67.7886 24.7508 69.3022 24.0725 70.3981 22.9765C70.7839 22.5908 71.1164 22.1546 71.385 21.6784Z" fill="#A0A3A9"/>
<path d="M35.176 14.9361C37.2181 14.9361 38.8736 13.2806 38.8736 11.2385C38.8736 9.19645 37.2181 7.54102 35.176 7.54102C33.134 7.54102 31.4785 9.19645 31.4785 11.2385C31.4785 13.2806 33.134 14.9361 35.176 14.9361Z" fill="#A0A3A9"/>
<path d="M54.9143 50.4951C56.9564 50.4951 58.6118 48.8397 58.6118 46.7976C58.6118 44.7555 56.9564 43.1001 54.9143 43.1001C52.8722 43.1001 51.2168 44.7555 51.2168 46.7976C51.2168 48.8397 52.8722 50.4951 54.9143 50.4951Z" fill="#A0A3A9"/>
<path d="M64.5823 50.4951C66.6244 50.4951 68.2798 48.8397 68.2798 46.7976C68.2798 44.7555 66.6244 43.1001 64.5823 43.1001C62.5402 43.1001 60.8848 44.7555 60.8848 46.7976C60.8848 48.8397 62.5402 50.4951 64.5823 50.4951Z" fill="#A0A3A9"/>
<path d="M113.489 7.73196C115.531 7.73196 117.186 6.07652 117.186 4.03444C117.186 1.99235 115.531 0.336914 113.489 0.336914C111.446 0.336914 109.791 1.99235 109.791 4.03444C109.791 6.07652 111.446 7.73196 113.489 7.73196Z" fill="#A0A3A9"/>
<path d="M108.608 14.8369C110.65 14.8369 112.305 13.1815 112.305 11.1394C112.305 9.09733 110.65 7.44189 108.608 7.44189C106.566 7.44189 104.91 9.09733 104.91 11.1394C104.91 13.1815 106.566 14.8369 108.608 14.8369Z" fill="#A0A3A9"/>
<path d="M118.375 14.8369C120.417 14.8369 122.073 13.1815 122.073 11.1394C122.073 9.09733 120.417 7.44189 118.375 7.44189C116.333 7.44189 114.678 9.09733 114.678 11.1394C114.678 13.1815 116.333 14.8369 118.375 14.8369Z" fill="#A0A3A9"/>
<path d="M78.6156 50.4854H77.2802C77.1366 51.1345 76.8386 51.6559 76.3838 52.0416C75.8996 52.4566 75.3064 52.6614 74.6042 52.6614H74.5856C73.7317 52.6614 73.0507 52.3714 72.5426 51.7915C72.0585 51.2436 71.8164 50.544 71.8164 49.6954V48.9346C71.8164 48.634 71.8696 48.4292 71.9787 48.3228C72.0877 48.2164 72.2686 48.1658 72.5346 48.1658C72.6889 48.1658 72.8645 48.2057 73.0587 48.2882C72.915 48.6579 72.8432 49.1288 72.8432 49.698C72.8432 50.3178 72.9842 50.8419 73.2635 51.2648C73.58 51.7383 74.0243 51.9724 74.5935 51.9724C75.1628 51.9724 75.5911 51.733 75.9103 51.2542C76.1896 50.8366 76.3306 50.3178 76.3306 49.698V45.2451C76.3306 44.9471 76.3838 44.745 76.4928 44.6359C76.6019 44.5268 76.7854 44.4736 77.0488 44.4736C77.2084 44.4736 77.3893 44.5135 77.5861 44.596C77.4345 44.9658 77.3574 45.4366 77.3574 46.0058V49.7938H78.6129V50.4854H78.6156Z" fill="#A0A3A9"/>
<path d="M81.7358 49.7939V50.4855H81.648C81.0095 50.4855 80.5015 50.2648 80.1264 49.8205C79.7566 50.2648 79.2459 50.4855 78.5995 50.4855H78.5117V49.7939H78.5915C79.2752 49.7939 79.6157 49.2965 79.6157 48.299V46.8864C79.6157 46.5859 79.6689 46.381 79.7779 46.2746C79.887 46.1709 80.0705 46.1177 80.3339 46.1177C80.4882 46.1177 80.6637 46.1576 80.8579 46.24C80.7143 46.6098 80.6425 47.0806 80.6425 47.6499V48.3016C80.6425 48.7458 80.7223 49.097 80.8792 49.3603C81.0574 49.6529 81.3155 49.7966 81.6586 49.7966H81.7384L81.7358 49.7939ZM78.94 51.9645C78.8256 51.8502 78.7697 51.7118 78.7697 51.5443C78.7697 51.3767 78.8283 51.2437 78.948 51.1293C79.0677 51.0255 79.2113 50.9723 79.3816 50.9723C79.5359 50.9723 79.6689 51.0255 79.7832 51.1293C79.8976 51.2437 79.9535 51.382 79.9535 51.5443C79.9535 51.7065 79.895 51.8475 79.7753 51.9566C79.6556 52.071 79.5172 52.1268 79.3603 52.1268C79.1954 52.1268 79.0544 52.0736 78.94 51.9645ZM80.4616 51.9645C80.3472 51.8502 80.2913 51.7118 80.2913 51.5443C80.2913 51.3767 80.3498 51.2437 80.4695 51.1293C80.5893 51.0255 80.7329 50.9723 80.9031 50.9723C81.0574 50.9723 81.1931 51.0255 81.3048 51.1293C81.4192 51.2437 81.4751 51.382 81.4751 51.5443C81.4751 51.7065 81.4165 51.8475 81.2968 51.9566C81.1771 52.071 81.0415 52.1268 80.8845 52.1268C80.7143 52.1268 80.5733 52.0736 80.4616 51.9645Z" fill="#A0A3A9"/>
<path d="M90.9663 49.7948V50.4865H90.9184C90.28 50.4865 89.7719 50.2657 89.3968 49.8214C89.0217 50.2657 88.511 50.4865 87.8646 50.4865H87.8566C87.2182 50.4865 86.7101 50.2657 86.335 49.8214C85.96 50.2657 85.4492 50.4865 84.8028 50.4865H84.7895C84.1511 50.4865 83.643 50.2657 83.268 49.8214C82.8982 50.2657 82.3901 50.4865 81.7464 50.4865H81.7012V49.7948H81.7358C82.4194 49.7948 82.7599 49.2974 82.7599 48.2999V47.5311C82.7599 47.2332 82.8131 47.031 82.9168 46.9219C83.0259 46.8129 83.2094 46.7597 83.4728 46.7597C83.6297 46.7597 83.8053 46.7996 84.0021 46.8767C83.8585 47.2518 83.7867 47.7226 83.7867 48.2892V48.2972C83.7867 48.7414 83.8638 49.0926 84.0181 49.3559C84.199 49.6485 84.4597 49.7922 84.8002 49.7922C85.4785 49.7922 85.819 49.2947 85.819 48.2972V47.5284C85.819 47.2305 85.8722 47.0284 85.9813 46.9193C86.0903 46.8102 86.2712 46.757 86.5292 46.757C86.6888 46.757 86.8697 46.7969 87.0666 46.8741C86.9149 47.2491 86.8378 47.72 86.8378 48.2866V48.2946C86.8378 48.7388 86.9203 49.0899 87.0825 49.3533C87.2607 49.6459 87.5188 49.7895 87.8619 49.7895C88.5349 49.7895 88.8728 49.2921 88.8728 48.2946V46.882C88.8728 46.5815 88.9286 46.3766 89.043 46.2702C89.1521 46.1665 89.333 46.1133 89.591 46.1133C89.7506 46.1133 89.9315 46.1532 90.1283 46.2356C89.9794 46.6054 89.9049 47.0762 89.9049 47.6455V48.3052C89.9102 48.7494 89.99 49.1006 90.1443 49.3639C90.3252 49.6485 90.5859 49.7922 90.9237 49.7922H90.9636L90.9663 49.7948Z" fill="#A0A3A9"/>
<path d="M95.3195 48.9452C95.6494 49.0091 95.8143 49.1687 95.8143 49.4267C95.8143 49.7619 95.6254 50.0306 95.2503 50.2354C94.9418 50.395 94.5747 50.4801 94.1491 50.4854H90.8984V49.7938H92.295C91.9678 49.3948 91.8055 48.892 91.8055 48.2882C91.8055 47.6844 91.9838 47.155 92.3402 46.748C92.7206 46.3251 93.2234 46.1149 93.8485 46.1149C94.2767 46.1202 94.6465 46.2027 94.9604 46.365C95.3381 46.5698 95.5243 46.8385 95.5243 47.171C95.5243 47.4263 95.3594 47.5886 95.0296 47.6578C94.963 47.3279 94.7981 47.0858 94.5348 46.9316C94.3911 46.8464 94.1836 46.8039 93.9097 46.8039H93.8485C93.5186 46.8039 93.2606 46.9502 93.0744 47.2454C92.9148 47.5088 92.835 47.8599 92.835 48.2988C92.835 48.7378 92.9121 49.0942 93.0664 49.3576C93.2473 49.6502 93.508 49.7938 93.8485 49.7938H94.2023C94.4842 49.7938 94.6944 49.7539 94.8327 49.6714C95.0961 49.5145 95.2583 49.2724 95.3222 48.9452H95.3195ZM93.3697 45.4685C93.2553 45.3594 93.1994 45.2238 93.1994 45.0562C93.1994 44.8886 93.2579 44.7529 93.3776 44.6439C93.4973 44.5295 93.6383 44.4736 93.7979 44.4736C93.9575 44.4736 94.0985 44.5295 94.2129 44.6439C94.3246 44.7529 94.3778 44.8886 94.3778 45.0562C94.3778 45.2238 94.3193 45.3541 94.1996 45.4685C94.0826 45.5776 93.9442 45.6308 93.7793 45.6308C93.6144 45.6308 93.4814 45.5776 93.367 45.4685H93.3697Z" fill="#A0A3A9"/>
<path d="M111.132 49.7922V50.4838H111.087C110.448 50.4838 109.94 50.263 109.565 49.8188C109.19 50.263 108.677 50.4838 108.03 50.4838H108.022C107.384 50.4838 106.876 50.263 106.501 49.8188C106.131 50.263 105.62 50.4838 104.969 50.4838H103.841C103.697 51.1329 103.399 51.6542 102.944 52.04C102.46 52.4549 101.867 52.6598 101.165 52.6598H101.146C100.292 52.6598 99.6112 52.3698 99.1032 51.7899C98.619 51.2419 98.377 50.5423 98.377 49.6938V48.933C98.377 48.6324 98.4302 48.4276 98.5392 48.3212C98.643 48.2174 98.8292 48.1642 99.0952 48.1642C99.2495 48.1642 99.425 48.2041 99.6192 48.2866C99.4756 48.6563 99.4037 49.1272 99.4037 49.6964C99.4037 50.3162 99.5447 50.8403 99.824 51.2632C100.143 51.7367 100.585 51.9708 101.154 51.9708C101.723 51.9708 102.152 51.734 102.471 51.2632C102.75 50.8403 102.891 50.3189 102.891 49.6964V47.5258C102.891 47.2279 102.944 47.0257 103.053 46.9166C103.162 46.8076 103.346 46.7544 103.609 46.7544C103.769 46.7544 103.95 46.7969 104.147 46.882C103.995 47.2518 103.921 47.72 103.921 48.2866V49.7922H104.971C105.65 49.7922 105.99 49.2974 105.99 48.3052V47.5258C105.99 47.2279 106.043 47.0257 106.152 46.9166C106.261 46.8076 106.445 46.7544 106.708 46.7544C106.865 46.7544 107.041 46.7969 107.238 46.882C107.094 47.2518 107.022 47.72 107.022 48.2866V48.2946C107.022 48.7388 107.099 49.0899 107.254 49.3533C107.435 49.6459 107.695 49.7895 108.033 49.7895C108.709 49.7895 109.052 49.2947 109.057 48.3025V46.882C109.057 46.5815 109.11 46.3766 109.219 46.2702C109.329 46.1665 109.509 46.1133 109.767 46.1133C109.927 46.1133 110.108 46.1532 110.305 46.2356C110.153 46.6054 110.076 47.0762 110.076 47.6455V48.3052C110.081 48.7494 110.164 49.1006 110.321 49.3639C110.499 49.6485 110.757 49.7922 111.1 49.7922H111.135H111.132Z" fill="#A0A3A9"/>
<path d="M112.873 46.1133C113.03 46.1133 113.206 46.1532 113.403 46.2356C113.259 46.6054 113.187 47.0762 113.187 47.6455V48.3052C113.182 48.933 113.001 49.4437 112.65 49.8401C112.28 50.2683 111.777 50.4838 111.144 50.4838H111.102V49.7922H111.136C111.82 49.7922 112.16 49.2947 112.16 48.2972V46.8847C112.16 46.5841 112.213 46.3793 112.317 46.2729C112.426 46.1691 112.61 46.1159 112.873 46.1159V46.1133ZM112.666 51.1275C112.785 51.2366 112.844 51.3749 112.844 51.5425C112.844 51.7101 112.785 51.8458 112.666 51.9548C112.546 52.0692 112.402 52.1251 112.237 52.1251C112.083 52.1251 111.95 52.0692 111.836 51.9548C111.716 51.8458 111.658 51.7101 111.658 51.5425C111.658 51.3749 111.716 51.2419 111.836 51.1275C111.961 51.0238 112.102 50.9706 112.256 50.9706C112.41 50.9706 112.554 51.0238 112.668 51.1275H112.666Z" fill="#A0A3A9"/>
<path d="M121.817 49.7922V50.4838H120.69C120.684 51.1116 120.503 51.6223 120.152 52.016C119.782 52.4469 119.28 52.6624 118.647 52.6624H117.99C117.615 52.6624 117.38 52.5534 117.29 52.3379C117.271 52.3006 117.263 52.2581 117.263 52.2155C117.263 52.0745 117.351 51.9176 117.527 51.7394C117.67 51.8936 117.87 51.9708 118.131 51.9708H118.639C119.312 51.9708 119.652 51.476 119.657 50.4838H118.639C118.006 50.4838 117.503 50.2683 117.133 49.8401C116.774 49.4304 116.596 48.917 116.596 48.2946C116.596 47.6721 116.774 47.1507 117.133 46.7464C117.508 46.3234 118.011 46.1133 118.639 46.1133C119.266 46.1133 119.782 46.3234 120.152 46.7464C120.511 47.1507 120.69 47.6668 120.69 48.2946V49.7895H121.817V49.7922ZM119.655 48.2972C119.655 47.8556 119.575 47.5045 119.415 47.2438C119.235 46.9485 118.974 46.8022 118.636 46.8022C118.298 46.8022 118.048 46.9485 117.862 47.2438C117.702 47.5125 117.623 47.8636 117.623 48.2972C117.623 48.7308 117.702 49.0926 117.862 49.3559C118.037 49.6485 118.296 49.7922 118.636 49.7922H119.655V48.2972Z" fill="#A0A3A9"/>
<path d="M124.812 46.1133C125.445 46.1133 125.95 46.3234 126.325 46.7464C126.685 47.1454 126.863 47.6588 126.863 48.2866C126.863 48.9144 126.687 49.4384 126.333 49.8401C125.958 50.2683 125.445 50.4838 124.799 50.4838C124.152 50.4838 123.652 50.263 123.277 49.8188C122.907 50.263 122.399 50.4838 121.755 50.4838H121.713V49.7922H121.755C122.431 49.7922 122.772 49.2947 122.772 48.2972V48.2892C122.772 47.6694 122.95 47.156 123.306 46.749C123.681 46.3261 124.184 46.1159 124.815 46.1159L124.812 46.1133ZM124.812 49.7922C125.49 49.7922 125.831 49.2947 125.831 48.2972C125.831 47.8556 125.751 47.5045 125.591 47.2438C125.41 46.9485 125.15 46.8022 124.812 46.8022C124.474 46.8022 124.219 46.9485 124.038 47.2438C123.878 47.5072 123.798 47.8583 123.798 48.2972C123.798 48.7361 123.876 49.0926 124.03 49.3559C124.211 49.6485 124.471 49.7922 124.812 49.7922Z" fill="#A0A3A9"/>
<defs>
<linearGradient id="paint0_linear_1933_2164" x1="0.519531" y1="28.9945" x2="127.672" y2="28.9945" gradientUnits="userSpaceOnUse">
<stop stop-color="#A0A3A9"/>
<stop offset="0.02" stop-color="#A0A3A9"/>
<stop offset="0.04" stop-color="#A0A3A9"/>
<stop offset="0.06" stop-color="#A0A3A9"/>
<stop offset="0.43" stop-color="#F6FCFD"/>
<stop offset="0.58" stop-color="#FDFEFE"/>
<stop offset="1" stop-color="white"/>
</linearGradient>
</defs>
</svg>
