<svg width="96" height="17" viewBox="0 0 96 17" fill="none" xmlns="http://www.w3.org/2000/svg">
<g clip-path="url(#clip0_3718_14284)">
<path d="M5.57886 5.33012L7.78027 0.924474C7.84437 0.796536 7.94291 0.689025 8.06479 0.614035C8.18667 0.539046 8.32705 0.499555 8.47015 0.500004C8.61315 0.500044 8.75336 0.539624 8.87528 0.614368C8.99719 0.689111 9.09607 0.796109 9.16097 0.923533L11.3614 5.33012L16.2829 6.04071C16.4244 6.06048 16.5575 6.11944 16.6673 6.21091C16.7771 6.30238 16.8591 6.42273 16.904 6.55836C16.9485 6.69377 16.9537 6.83899 16.919 6.97723C16.8844 7.11548 16.8113 7.24109 16.7083 7.33953L13.1487 10.7673L13.9892 15.6087C14.0965 16.2299 13.4358 16.7033 12.8711 16.4106L8.47015 14.1235L4.06921 16.4106C3.5045 16.7042 2.8438 16.2308 2.95203 15.6078L3.7925 10.7664L0.232034 7.33859C0.129661 7.23952 0.0572525 7.11363 0.0230992 6.97533C-0.0110541 6.83702 -0.00557218 6.69189 0.0389174 6.55656C0.083407 6.42122 0.165106 6.30115 0.274661 6.21009C0.384216 6.11902 0.5172 6.06065 0.658387 6.04165L5.57886 5.33012Z" fill="url(#paint0_radial_3718_14284)"/>
<path d="M25.3435 5.33012L27.5449 0.924476C27.6089 0.796469 27.7075 0.688897 27.8294 0.613896C27.9512 0.538894 28.0917 0.499448 28.2348 0.500006C28.3778 0.500047 28.518 0.539626 28.6399 0.61437C28.7618 0.689113 28.8607 0.796111 28.9256 0.923535L31.1261 5.33012L36.0475 6.04071C36.189 6.06048 36.3222 6.11944 36.4319 6.21091C36.5417 6.30238 36.6237 6.42273 36.6687 6.55836C36.7131 6.69377 36.7183 6.83899 36.6837 6.97724C36.649 7.11548 36.576 7.24109 36.4729 7.33954L32.9134 10.7673L33.7539 15.6087C33.8612 16.2299 33.2004 16.7033 32.6357 16.4106L28.2348 14.1235L23.8339 16.4106C23.2692 16.7042 22.6084 16.2308 22.7157 15.6078L23.5562 10.7664L19.9967 7.33859C19.8943 7.23953 19.8219 7.11363 19.7877 6.97533C19.7536 6.83702 19.7591 6.69189 19.8036 6.55656C19.8481 6.42123 19.9298 6.30115 20.0393 6.21009C20.1489 6.11903 20.2818 6.06065 20.423 6.04165L25.3435 5.33012Z" fill="url(#paint1_radial_3718_14284)"/>
<path d="M45.1082 5.33012L47.3096 0.924476C47.3736 0.796469 47.4721 0.688897 47.594 0.613896C47.7159 0.538894 47.8563 0.499448 47.9994 0.500006C48.1425 0.500047 48.2827 0.539626 48.4046 0.61437C48.5265 0.689113 48.6254 0.796111 48.6903 0.923535L50.8907 5.33012L55.8122 6.04071C55.9537 6.06048 56.0868 6.11944 56.1966 6.21091C56.3064 6.30238 56.3884 6.42273 56.4333 6.55836C56.4778 6.69377 56.483 6.83899 56.4483 6.97724C56.4137 7.11548 56.3406 7.24109 56.2376 7.33954L52.678 10.7673L53.5185 15.6087C53.6258 16.2299 52.9651 16.7033 52.4004 16.4106L47.9994 14.1235L43.5985 16.4106C43.0338 16.7042 42.3731 16.2308 42.4804 15.6078L43.3218 10.7664L39.7613 7.33859C39.659 7.23953 39.5865 7.11363 39.5524 6.97533C39.5182 6.83702 39.5237 6.69189 39.5682 6.55656C39.6127 6.42123 39.6944 6.30115 39.804 6.21009C39.9135 6.11903 40.0465 6.06065 40.1877 6.04165L45.1082 5.33012Z" fill="url(#paint2_radial_3718_14284)"/>
<path d="M64.8728 5.33012L67.0742 0.924476C67.1382 0.796469 67.2367 0.688897 67.3586 0.613896C67.4805 0.538894 67.621 0.499448 67.7641 0.500006C67.9071 0.500047 68.0473 0.539626 68.1692 0.61437C68.2911 0.689113 68.39 0.796111 68.4549 0.923535L70.6554 5.33012L75.5768 6.04071C75.7183 6.06048 75.8515 6.11944 75.9612 6.21091C76.071 6.30238 76.153 6.42273 76.198 6.55836C76.2424 6.69377 76.2476 6.83899 76.213 6.97724C76.1783 7.11548 76.1053 7.24109 76.0022 7.33954L72.4427 10.7673L73.2832 15.6087C73.3904 16.2299 72.7297 16.7033 72.165 16.4106L67.7641 14.1235L63.3632 16.4106C62.7984 16.7042 62.1377 16.2308 62.245 15.6078L63.0855 10.7664L59.526 7.33859C59.4236 7.23953 59.3512 7.11363 59.317 6.97533C59.2829 6.83702 59.2884 6.69189 59.3329 6.55656C59.3774 6.42123 59.4591 6.30115 59.5686 6.21009C59.6782 6.11903 59.8111 6.06065 59.9523 6.04165L64.8728 5.33012Z" fill="url(#paint3_radial_3718_14284)"/>
<path d="M84.6374 5.33012L86.8389 0.924476C86.9029 0.796469 87.0014 0.688897 87.1233 0.613896C87.2452 0.538894 87.3856 0.499448 87.5287 0.500006C87.6717 0.500047 87.8119 0.539626 87.9339 0.61437C88.0558 0.689113 88.1547 0.796111 88.2196 0.923535L90.42 5.33012L95.3414 6.04071C95.4828 6.0608 95.6159 6.11986 95.7256 6.21129C95.8353 6.30272 95.9174 6.4229 95.9626 6.55836C96.0071 6.69377 96.0123 6.83899 95.9776 6.97724C95.943 7.11548 95.8699 7.24109 95.7669 7.33954L92.2073 10.7673L93.0478 15.6087C93.1551 16.2299 92.4944 16.7033 91.9297 16.4106L87.5287 14.1235L83.1278 16.4106C82.5631 16.7042 81.9024 16.2308 82.0097 15.6078L82.8502 10.7664L79.2906 7.33859C79.1883 7.23953 79.1158 7.11363 79.0817 6.97533C79.0475 6.83702 79.053 6.69189 79.0975 6.55656C79.142 6.42123 79.2237 6.30115 79.3333 6.21009C79.4428 6.11903 79.5758 6.06065 79.717 6.04165L84.6374 5.33012Z" fill="url(#paint4_radial_3718_14284)"/>
</g>
<defs>
<radialGradient id="paint0_radial_3718_14284" cx="0" cy="0" r="1" gradientUnits="userSpaceOnUse" gradientTransform="translate(15.3532 1.75052) rotate(136.637) scale(20.0255 15.0921)">
<stop stop-color="#FF9937"/>
<stop offset="0.895" stop-color="#FE6A2E"/>
</radialGradient>
<radialGradient id="paint1_radial_3718_14284" cx="0" cy="0" r="1" gradientUnits="userSpaceOnUse" gradientTransform="translate(35.1175 1.74965) rotate(136.637) scale(20.0255 15.0921)">
<stop stop-color="#FF9937"/>
<stop offset="0.895" stop-color="#FE6A2E"/>
</radialGradient>
<radialGradient id="paint2_radial_3718_14284" cx="0" cy="0" r="1" gradientUnits="userSpaceOnUse" gradientTransform="translate(54.8825 1.75042) rotate(136.637) scale(20.0255 15.0921)">
<stop stop-color="#FF9937"/>
<stop offset="0.895" stop-color="#FE6A2E"/>
</radialGradient>
<radialGradient id="paint3_radial_3718_14284" cx="0" cy="0" r="1" gradientUnits="userSpaceOnUse" gradientTransform="translate(74.6468 1.74956) rotate(136.637) scale(20.0255 15.0921)">
<stop stop-color="#FF9937"/>
<stop offset="0.895" stop-color="#FE6A2E"/>
</radialGradient>
<radialGradient id="paint4_radial_3718_14284" cx="0" cy="0" r="1" gradientUnits="userSpaceOnUse" gradientTransform="translate(94.4117 1.75032) rotate(136.637) scale(20.0255 15.0921)">
<stop stop-color="#FF9937"/>
<stop offset="0.895" stop-color="#FE6A2E"/>
</radialGradient>
<clipPath id="clip0_3718_14284">
<rect width="96" height="16" fill="white" transform="translate(0 0.5)"/>
</clipPath>
</defs>
</svg>
