<svg width="48" height="48" viewBox="0 0 48 48" fill="none" xmlns="http://www.w3.org/2000/svg">
<rect width="48" height="48" rx="8" fill="#FCF4E9" fill-opacity="0.2"/>
<path d="M33.6915 12.6743C33.3943 12.6442 33.095 12.7055 32.8336 12.8502C32.7706 12.6457 32.6628 12.4579 32.5183 12.3002C32.3737 12.1426 32.1958 12.019 31.9975 11.9386C31.7993 11.8582 31.5857 11.8229 31.3721 11.8353C31.1585 11.8477 30.9504 11.9074 30.7628 12.0102C30.6601 11.6923 30.4515 11.4193 30.1717 11.2368C29.8919 11.0544 29.558 10.9735 29.2257 11.0077C29.0058 11.0327 28.7947 11.1078 28.6084 11.2273C28.4222 11.3468 28.2659 11.5074 28.1515 11.6968C27.9805 11.5702 27.7833 11.4833 27.5745 11.4426C27.3656 11.4018 27.1502 11.4082 26.9441 11.4612C26.738 11.5142 26.5464 11.6125 26.3831 11.749C26.2198 11.8855 26.089 12.0567 26.0003 12.2502H21.897C21.821 12.2496 21.7465 12.2284 21.6816 12.1889L19.997 11.181C19.8033 11.064 19.5816 11.0015 19.3553 11.0002H13.185C12.8166 10.9952 12.4593 11.1258 12.1808 11.367C11.9024 11.6081 11.7222 11.9432 11.6746 12.3085C11.6445 12.6058 11.7058 12.9053 11.8504 13.1668C11.6459 13.2298 11.458 13.3374 11.3003 13.482C11.1426 13.6266 11.0191 13.8045 10.9387 14.0028C10.8583 14.2011 10.8231 14.4148 10.8355 14.6283C10.848 14.8419 10.9079 15.0501 11.0108 15.2376C10.6925 15.3399 10.4191 15.5486 10.2365 15.8286C10.0538 16.1087 9.97313 16.443 10.0079 16.7755C10.0328 16.9954 10.1079 17.2066 10.2274 17.3929C10.3469 17.5791 10.5076 17.7354 10.6971 17.8497C10.4858 18.1414 10.3887 18.5005 10.4246 18.8589C10.4538 19.1039 10.545 19.3375 10.6895 19.5376C10.834 19.7377 11.027 19.8977 11.2504 20.0026V24.1042C11.2497 24.1799 11.2283 24.2539 11.1887 24.3184L10.1721 26.0117C10.0614 26.2048 10.0023 26.423 10.0004 26.6455V32.8159C9.99576 33.1841 10.1265 33.5413 10.3677 33.8197C10.6089 34.098 10.9439 34.2781 11.3091 34.3258C11.6063 34.3552 11.9054 34.2939 12.1671 34.15C12.23 34.3545 12.3378 34.5424 12.4824 34.7001C12.627 34.8578 12.805 34.9813 13.0033 35.0617C13.2016 35.1421 13.4153 35.1773 13.6289 35.1649C13.8425 35.1524 14.0507 35.0925 14.2383 34.9896C14.3324 35.2834 14.5175 35.5396 14.7668 35.7213C15.0162 35.9029 15.3169 36.0005 15.6254 36C15.8723 36.0001 16.1149 35.9359 16.3296 35.8138C16.5442 35.6918 16.7234 35.516 16.8495 35.3038C17.0207 35.4304 17.218 35.5172 17.427 35.558C17.6361 35.5987 17.8515 35.5923 18.0578 35.5393C18.264 35.4862 18.4558 35.3878 18.6192 35.2513C18.7826 35.1148 18.9135 34.9435 19.0024 34.75H23.1036C23.1795 34.7504 23.2541 34.7717 23.3191 34.8113L25.0036 35.82C25.1974 35.9367 25.419 35.9987 25.6453 35.9996H31.8157C32.184 36.0045 32.5414 35.874 32.8198 35.6328C33.0982 35.3916 33.2784 35.0565 33.3261 34.6913C33.3561 34.3941 33.2948 34.0948 33.1502 33.8333C33.3547 33.7704 33.5426 33.6627 33.7003 33.5181C33.858 33.3735 33.9816 33.1957 34.062 32.9974C34.1423 32.7991 34.1776 32.5854 34.1651 32.3718C34.1526 32.1582 34.0927 31.9501 33.9898 31.7625C34.308 31.6603 34.5813 31.4517 34.7639 31.1719C34.9465 30.892 35.0273 30.5578 34.9927 30.2255C34.9678 30.0056 34.8927 29.7944 34.7732 29.6081C34.6538 29.4219 34.4931 29.2656 34.3036 29.1513C34.5148 28.8596 34.6119 28.5005 34.5761 28.1421C34.5466 27.8974 34.4553 27.6641 34.3108 27.4643C34.1663 27.2645 33.9734 27.1048 33.7502 27.0001V22.8959C33.7511 22.8201 33.7723 22.7459 33.8115 22.6809L34.8206 20.9968C34.9373 20.803 34.9994 20.5809 35.0002 20.3547V14.1843C35.0049 13.816 34.8742 13.4588 34.6329 13.1805C34.3917 12.9022 34.0567 12.7221 33.6915 12.6743ZM10.8371 16.693C10.8275 16.6057 10.8365 16.5174 10.8634 16.4338C10.8903 16.3501 10.9345 16.2731 10.9931 16.2078C11.0518 16.1424 11.1236 16.0901 11.2038 16.0543C11.284 16.0185 11.3709 16.0001 11.4587 16.0001H14.167C14.2775 16.0001 14.3835 15.9562 14.4617 15.8781C14.5398 15.8 14.5837 15.694 14.5837 15.5835C14.5837 15.473 14.5398 15.367 14.4617 15.2888C14.3835 15.2107 14.2775 15.1668 14.167 15.1668H12.2921C12.2042 15.167 12.1173 15.1487 12.0371 15.1131C11.9568 15.0775 11.8849 15.0253 11.8262 14.9601C11.7674 14.8948 11.723 14.8179 11.696 14.7343C11.6689 14.6508 11.6598 14.5625 11.6691 14.4751C11.6949 14.3147 11.7786 14.1693 11.9044 14.0664C12.0301 13.9635 12.1893 13.9103 12.3516 13.9168H15.0004C15.1109 13.9168 15.2169 13.8729 15.295 13.7948C15.3731 13.7166 15.417 13.6107 15.417 13.5001C15.417 13.3896 15.3731 13.2837 15.295 13.2055C15.2169 13.1274 15.1109 13.0835 15.0004 13.0835H13.1254C13.0376 13.0837 12.9507 13.0654 12.8704 13.0298C12.7901 12.9941 12.7183 12.942 12.6595 12.8767C12.6007 12.8115 12.5563 12.7346 12.5293 12.651C12.5022 12.5675 12.4931 12.4791 12.5025 12.3918C12.5281 12.2313 12.6118 12.0859 12.7376 11.9829C12.8634 11.88 13.0226 11.8269 13.185 11.8335H19.3553C19.4313 11.8341 19.5056 11.8554 19.5703 11.8952L21.2553 12.9043C21.4491 13.0206 21.6707 13.0827 21.897 13.0835H25.8336V16.7872L25.112 16.1964C24.8498 15.9963 24.5249 15.8963 24.1956 15.9144C23.8664 15.9325 23.5544 16.0675 23.3157 16.2951C23.1364 16.469 23.0105 16.6904 22.9527 16.9334C22.8949 17.1764 22.9077 17.4308 22.9895 17.6668H21.5924C21.2645 17.6682 20.9502 17.7984 20.7174 18.0293L16.7962 21.9184L16.7879 21.9268L16.6145 22.0984C16.5169 22.1939 16.3855 22.2469 16.2489 22.246C16.1124 22.2451 15.9817 22.1902 15.8854 22.0934C15.7969 22.0046 15.7439 21.8866 15.7362 21.7615C15.7285 21.6364 15.7668 21.5128 15.8437 21.4138L16.9895 20.0139C17.0394 19.9528 17.071 19.8788 17.0806 19.8006C17.0901 19.7223 17.0772 19.6429 17.0435 19.5716C17.0097 19.5004 16.9564 19.4402 16.8898 19.398C16.8231 19.3558 16.7459 19.3335 16.667 19.3334H11.935C11.7729 19.3398 11.614 19.2865 11.4885 19.1837C11.363 19.0809 11.2795 18.9357 11.2537 18.7755C11.2443 18.6883 11.2534 18.6 11.2803 18.5165C11.3073 18.433 11.3515 18.3561 11.4102 18.2908C11.4688 18.2255 11.5405 18.1733 11.6207 18.1376C11.7008 18.1019 11.7876 18.0834 11.8754 18.0835H14.167C14.2775 18.0835 14.3835 18.0396 14.4617 17.9614C14.5398 17.8833 14.5837 17.7773 14.5837 17.6668C14.5837 17.5563 14.5398 17.4503 14.4617 17.3722C14.3835 17.294 14.2775 17.2501 14.167 17.2501H11.5183C11.3563 17.2564 11.1977 17.2032 11.0722 17.1006C10.9467 16.998 10.8631 16.853 10.8371 16.693ZM27.5003 24.6072L23.6961 28.3796C23.6196 28.4561 23.516 28.4992 23.4078 28.4996H21.3928L17.6208 24.6972C17.5441 24.6206 17.5008 24.5168 17.5003 24.4084V22.3918L21.3032 18.6205C21.3799 18.5437 21.4839 18.5004 21.5924 18.5001H23.6091L27.3811 22.3026C27.4572 22.3796 27.5 22.4835 27.5003 22.5918V24.6072ZM17.772 34.7467C17.6853 34.756 17.5976 34.7469 17.5146 34.7199C17.4317 34.6929 17.3554 34.6486 17.2908 34.59C17.2258 34.5311 17.1739 34.4594 17.1382 34.3793C17.1026 34.2993 17.084 34.2127 17.0837 34.125V31.8334C17.0837 31.7229 17.0398 31.6169 16.9616 31.5387C16.8835 31.4606 16.7775 31.4167 16.667 31.4167C16.5565 31.4167 16.4505 31.4606 16.3724 31.5387C16.2943 31.6169 16.2504 31.7229 16.2504 31.8334V34.4829C16.2559 34.6456 16.2017 34.8047 16.098 34.9302C15.9943 35.0557 15.8483 35.1389 15.6874 35.1642C15.5124 35.1833 15.3374 35.1263 15.2074 35.0075C15.1424 34.9486 15.0903 34.8767 15.0547 34.7965C15.019 34.7162 15.0005 34.6295 15.0004 34.5417V31.8334C15.0004 31.7229 14.9565 31.6169 14.8783 31.5387C14.8002 31.4606 14.6942 31.4167 14.5837 31.4167C14.4732 31.4167 14.3672 31.4606 14.2891 31.5387C14.2109 31.6169 14.167 31.7229 14.167 31.8334V33.7133C14.1665 33.8007 14.1476 33.887 14.1117 33.9666C14.0757 34.0462 14.0235 34.1175 13.9583 34.1756C13.8931 34.2338 13.8165 34.2777 13.7333 34.3044C13.6501 34.3312 13.5622 34.3402 13.4754 34.3308C13.315 34.3052 13.1695 34.2216 13.0666 34.0959C12.9637 33.9702 12.9105 33.8111 12.917 33.6488V31C12.917 30.8895 12.8731 30.7835 12.795 30.7054C12.7169 30.6273 12.6109 30.5834 12.5004 30.5834C12.3899 30.5834 12.2839 30.6273 12.2058 30.7054C12.1276 30.7835 12.0837 30.8895 12.0837 31V32.8788C12.0833 32.9662 12.0646 33.0526 12.0288 33.1323C11.9929 33.2121 11.9407 33.2834 11.8756 33.3417C11.8104 33.4 11.7338 33.444 11.6506 33.4709C11.5673 33.4977 11.4794 33.5068 11.3925 33.4975C11.2321 33.4719 11.0867 33.3883 10.9837 33.2627C10.8808 33.1371 10.8274 32.9781 10.8337 32.8159V26.6455C10.8346 26.5705 10.8541 26.4967 10.8908 26.4313L11.9046 24.7455C12.0206 24.5516 12.0825 24.3302 12.0837 24.1042V20.1668H15.787L15.1958 20.8888C15.0103 21.1145 14.9034 21.3945 14.8914 21.6864C14.8795 21.9782 14.963 22.266 15.1294 22.5061C15.2958 22.7462 15.5359 22.9255 15.8134 23.0167C16.0909 23.108 16.3906 23.1062 16.667 23.0118V24.4084C16.6684 24.7363 16.7986 25.0506 17.0295 25.2834L20.9153 29.2C20.9198 29.205 20.9246 29.2097 20.9295 29.2142L21.0991 29.385C21.1705 29.4577 21.2188 29.5499 21.238 29.65C21.2571 29.75 21.2463 29.8535 21.2068 29.9474C21.1673 30.0413 21.1009 30.1215 21.016 30.1778C20.931 30.2341 20.8314 30.264 20.7295 30.2638C20.6161 30.2643 20.5059 30.2262 20.417 30.1559L19.0174 29.0105C18.9564 28.9595 18.8821 28.9271 18.8032 28.917C18.7244 28.9069 18.6443 28.9195 18.5724 28.9535C18.5005 28.9874 18.4398 29.0413 18.3975 29.1086C18.3552 29.1759 18.3331 29.2539 18.3337 29.3334V34.0654C18.3392 34.2279 18.2852 34.3869 18.1818 34.5124C18.0783 34.6378 17.9326 34.7212 17.772 34.7467ZM34.1636 30.3071C34.1731 30.3944 34.1641 30.4828 34.1373 30.5664C34.1104 30.65 34.0661 30.727 34.0075 30.7924C33.9488 30.8578 33.877 30.9101 33.7968 30.9458C33.7166 30.9816 33.6297 31.0001 33.5419 31H30.8336C30.7231 31 30.6171 31.0439 30.539 31.1221C30.4608 31.2002 30.4169 31.3062 30.4169 31.4167C30.4169 31.5272 30.4608 31.6332 30.539 31.7113C30.6171 31.7895 30.7231 31.8334 30.8336 31.8334H32.7086C32.7964 31.8331 32.8833 31.8515 32.9636 31.8871C33.0438 31.9227 33.1157 31.9748 33.1745 32.0401C33.2333 32.1054 33.2776 32.1823 33.3047 32.2658C33.3317 32.3494 33.3409 32.4377 33.3315 32.525C33.3057 32.6855 33.222 32.8309 33.0963 32.9338C32.9705 33.0367 32.8114 33.0899 32.649 33.0833H30.0003C29.8898 33.0833 29.7838 33.1272 29.7056 33.2054C29.6275 33.2835 29.5836 33.3895 29.5836 33.5C29.5836 33.6105 29.6275 33.7165 29.7056 33.7946C29.7838 33.8728 29.8898 33.9167 30.0003 33.9167H31.8753C31.9631 33.9165 32.05 33.9348 32.1302 33.9704C32.2105 34.006 32.2824 34.0582 32.3412 34.1234C32.3999 34.1887 32.4443 34.2656 32.4713 34.3491C32.4984 34.4327 32.5075 34.521 32.4982 34.6083C32.4725 34.7688 32.3888 34.9143 32.263 35.0172C32.1372 35.1201 31.9781 35.1733 31.8157 35.1667H25.6453C25.5693 35.1661 25.495 35.1448 25.4303 35.105L23.7453 34.0958C23.5514 33.9796 23.3297 33.9177 23.1036 33.9167H19.167V30.2121L19.8887 30.8029C20.1505 31.0038 20.4756 31.1042 20.8051 31.0861C21.1345 31.068 21.4467 30.9325 21.6849 30.7042C21.8643 30.5305 21.9903 30.3093 22.0483 30.0665C22.1063 29.8237 22.0939 29.5694 22.0124 29.3334H23.4082C23.7361 29.332 24.0504 29.2018 24.2832 28.9709L28.2032 25.0834L28.2178 25.0692L28.3874 24.9026C28.485 24.8071 28.6164 24.7541 28.753 24.755C28.8895 24.7559 29.0202 24.8108 29.1165 24.9076C29.2999 25.0913 29.3174 25.3826 29.1582 25.5872L28.0124 26.9871C27.9628 27.0481 27.9314 27.1219 27.922 27.1999C27.9125 27.278 27.9253 27.3571 27.9589 27.4281C27.9925 27.4992 28.0455 27.5593 28.1118 27.6015C28.1781 27.6437 28.255 27.6663 28.3336 27.6667H33.0657C33.2278 27.6604 33.3866 27.7136 33.5121 27.8164C33.6376 27.9192 33.7212 28.0644 33.7469 28.2246C33.7563 28.3119 33.7473 28.4001 33.7203 28.4837C33.6934 28.5672 33.6491 28.6441 33.5905 28.7094C33.5318 28.7747 33.4601 28.8269 33.3799 28.8626C33.2998 28.8983 33.213 28.9167 33.1252 28.9167H30.8336C30.7231 28.9167 30.6171 28.9606 30.539 29.0387C30.4608 29.1169 30.4169 29.2229 30.4169 29.3334C30.4169 29.4439 30.4608 29.5499 30.539 29.628C30.6171 29.7061 30.7231 29.75 30.8336 29.75H33.4836C33.6453 29.7441 33.8037 29.7974 33.9289 29.9C34.0541 30.0026 34.1376 30.1473 34.1636 30.3071ZM34.1669 20.3547C34.1661 20.4305 34.1452 20.5047 34.1057 20.5697L33.0961 22.2547C32.9799 22.4485 32.918 22.67 32.9169 22.8959V26.8334H29.2124L29.8036 26.1113C30.0109 25.8523 30.1153 25.5258 30.0969 25.1946C30.0786 24.8633 29.9387 24.5505 29.704 24.3159C29.5254 24.1445 29.3036 24.0246 29.0624 23.969C28.8211 23.9134 28.5693 23.9241 28.3336 24.0001V22.5918C28.3322 22.2638 28.202 21.9496 27.9711 21.7168L24.0836 17.7943L24.0757 17.7864L23.9036 17.613C23.8553 17.5653 23.817 17.5084 23.7911 17.4456C23.7651 17.3829 23.752 17.3155 23.7524 17.2476C23.7529 17.1797 23.767 17.1126 23.7938 17.0502C23.8206 16.9878 23.8597 16.9314 23.9086 16.8843C23.9988 16.7982 24.1166 16.7468 24.241 16.7392C24.3655 16.7316 24.4886 16.7682 24.5886 16.8426L25.9882 17.988C26.0492 18.0374 26.1229 18.0685 26.2008 18.0778C26.2787 18.0872 26.3576 18.0743 26.4285 18.0407C26.4995 18.0072 26.5595 17.9543 26.6016 17.8881C26.6438 17.822 26.6665 17.7452 26.667 17.6668V12.9347C26.6607 12.7726 26.7141 12.6138 26.8169 12.4882C26.9198 12.3627 27.0651 12.2792 27.2253 12.2535C27.3125 12.2441 27.4007 12.2532 27.4842 12.2802C27.5676 12.3072 27.6445 12.3515 27.7097 12.4101C27.775 12.4687 27.8271 12.5404 27.8628 12.6206C27.8985 12.7007 27.917 12.7874 27.9169 12.8752V15.1668C27.9169 15.2773 27.9608 15.3833 28.039 15.4614C28.1171 15.5396 28.2231 15.5835 28.3336 15.5835C28.4441 15.5835 28.5501 15.5396 28.6282 15.4614C28.7064 15.3833 28.7503 15.2773 28.7503 15.1668V12.5181C28.744 12.3559 28.7973 12.197 28.9002 12.0715C29.003 11.946 29.1483 11.8625 29.3086 11.8368C29.3958 11.8275 29.484 11.8366 29.5675 11.8636C29.651 11.8905 29.7278 11.9348 29.7931 11.9934C29.8583 12.0521 29.9105 12.1238 29.9462 12.2039C29.9819 12.284 30.0003 12.3708 30.0003 12.4585V15.1668C30.0003 15.2773 30.0442 15.3833 30.1223 15.4614C30.2004 15.5396 30.3064 15.5835 30.4169 15.5835C30.5274 15.5835 30.6334 15.5396 30.7116 15.4614C30.7897 15.3833 30.8336 15.2773 30.8336 15.1668V13.2918C30.8334 13.204 30.8518 13.1172 30.8874 13.037C30.9231 12.9567 30.9752 12.8849 31.0405 12.8262C31.1057 12.7675 31.1826 12.7231 31.2662 12.6961C31.3497 12.6691 31.438 12.66 31.5253 12.6693C31.8573 12.7227 32.0969 13.0152 32.0836 13.3514V16.0001C32.0836 16.1106 32.1275 16.2166 32.2056 16.2948C32.2838 16.3729 32.3897 16.4168 32.5002 16.4168C32.6108 16.4168 32.7167 16.3729 32.7949 16.2948C32.873 16.2166 32.9169 16.1106 32.9169 16.0001V14.1251C32.9168 14.0374 32.9351 13.9505 32.9708 13.8703C33.0064 13.7901 33.0586 13.7183 33.1238 13.6595C33.1891 13.6008 33.266 13.5565 33.3495 13.5294C33.433 13.5024 33.5213 13.4933 33.6086 13.5027C33.9402 13.556 34.1798 13.8485 34.1669 14.1843V20.3547Z" fill="#E7E8E9"/>
</svg>
