<svg width="495" height="324" viewBox="0 0 495 324" fill="none" xmlns="http://www.w3.org/2000/svg">
<path d="M51.666 297.949H111.829V302.831H51.666V297.949Z" fill="#E7EBF2"/>
<path d="M55.3845 287.009C55.8905 285.454 57.3397 284.402 58.9745 284.402H104.677C106.312 284.402 107.761 285.454 108.267 287.009L111.829 297.946H51.8232L55.3845 287.009Z" fill="#E7EBF2"/>
<path d="M33.082 90.375V108.802H205.38L188.686 91.9499L33.082 90.375Z" stroke="#E7EBF2" stroke-width="2" stroke-miterlimit="10" stroke-linejoin="round"/>
<path d="M130.886 108.801V91.9492L150.099 108.801V91.9492L169.472 108.801V91.9492L188.686 108.801V92.5792V91.9492" stroke="#E7EBF2" stroke-width="2" stroke-miterlimit="10" stroke-linejoin="round"/>
<path d="M53.7129 108.799V90.6875" stroke="#E7EBF2" stroke-width="2" stroke-miterlimit="10" stroke-linejoin="round"/>
<path d="M111.514 91.9492V108.801L92.2998 91.9492" stroke="#E7EBF2" stroke-width="2" stroke-miterlimit="10" stroke-linejoin="round"/>
<path d="M92.2998 91.9492V108.801" stroke="#E7EBF2" stroke-width="2" stroke-miterlimit="10" stroke-linejoin="round"/>
<path d="M71.5098 276.522H92.1415V73.197L81.7469 63.5898L71.5098 73.197V276.522Z" stroke="#E7EBF2" stroke-width="2" stroke-miterlimit="10" stroke-linejoin="round"/>
<path d="M92.1415 74.3086H71.5098" stroke="#E7EBF2" stroke-width="2" stroke-miterlimit="10"/>
<path d="M92.1415 126.281H71.5098" stroke="#E7EBF2" stroke-width="2" stroke-miterlimit="10" stroke-linejoin="round"/>
<path d="M92.1415 142.977H71.5098" stroke="#E7EBF2" stroke-width="2" stroke-miterlimit="10"/>
<path d="M92.1415 159.516H71.5098" stroke="#E7EBF2" stroke-width="2" stroke-miterlimit="10"/>
<path d="M92.1415 176.199H71.5098" stroke="#E7EBF2" stroke-width="2" stroke-miterlimit="10"/>
<path d="M92.1415 192.895H71.5098" stroke="#E7EBF2" stroke-width="2" stroke-miterlimit="10"/>
<path d="M92.1415 209.59H71.5098" stroke="#E7EBF2" stroke-width="2" stroke-miterlimit="10"/>
<path d="M92.1415 226.125H71.5098" stroke="#E7EBF2" stroke-width="2" stroke-miterlimit="10"/>
<path d="M92.1415 242.82H71.5098" stroke="#E7EBF2" stroke-width="2" stroke-miterlimit="10"/>
<path d="M92.1415 259.516H71.5098" stroke="#E7EBF2" stroke-width="2" stroke-miterlimit="10"/>
<path d="M173.408 91.7812L81.747 63.5898L38.1211 90.5213" stroke="#E7EBF2" stroke-width="2" stroke-miterlimit="10" stroke-linejoin="round"/>
<path d="M92.2989 108.801L71.5098 91.0039" stroke="#E7EBF2" stroke-width="2" stroke-miterlimit="10" stroke-linejoin="round"/>
<path d="M72.1396 109.43L91.6689 125.651" stroke="#E7EBF2" stroke-width="2" stroke-miterlimit="10" stroke-linejoin="round"/>
<path d="M72.1396 74.625L91.8265 90.3744" stroke="#E7EBF2" stroke-width="2" stroke-miterlimit="10" stroke-linejoin="round"/>
<path d="M54.3428 91.0039L70.7222 108.486" stroke="#E7EBF2" stroke-width="2" stroke-miterlimit="10" stroke-linejoin="round"/>
<path d="M53.241 108.486L33.2393 91.0039" stroke="#E7EBF2" stroke-width="2" stroke-miterlimit="10" stroke-linejoin="round"/>
<path d="M112.144 91.7891L130.255 108.011" stroke="#E7EBF2" stroke-width="2" stroke-miterlimit="10" stroke-linejoin="round"/>
<path d="M72.2969 126.754L91.6686 142.347" stroke="#E7EBF2" stroke-width="2" stroke-miterlimit="10" stroke-linejoin="round"/>
<path d="M72.2969 143.605L91.6686 158.881" stroke="#E7EBF2" stroke-width="2" stroke-miterlimit="10" stroke-linejoin="round"/>
<path d="M72.1396 160.145L91.6689 175.579" stroke="#E7EBF2" stroke-width="2" stroke-miterlimit="10" stroke-linejoin="round"/>
<path d="M72.1396 176.996L91.6689 192.273" stroke="#E7EBF2" stroke-width="2" stroke-miterlimit="10" stroke-linejoin="round"/>
<path d="M72.1396 193.531L91.6689 208.808" stroke="#E7EBF2" stroke-width="2" stroke-miterlimit="10" stroke-linejoin="round"/>
<path d="M72.1396 210.062L91.6689 225.497" stroke="#E7EBF2" stroke-width="2" stroke-miterlimit="10" stroke-linejoin="round"/>
<path d="M72.1396 226.758L91.6689 242.192" stroke="#E7EBF2" stroke-width="2" stroke-miterlimit="10" stroke-linejoin="round"/>
<path d="M72.1396 243.449L91.6689 258.884" stroke="#E7EBF2" stroke-width="2" stroke-miterlimit="10" stroke-linejoin="round"/>
<path d="M72.1396 260.305L91.6689 275.582" stroke="#E7EBF2" stroke-width="2" stroke-miterlimit="10" stroke-linejoin="round"/>
<path d="M62.0571 276.367H101.436C102.826 276.367 103.953 277.494 103.953 278.884V284.399H59.54V278.884C59.54 277.494 60.6669 276.367 62.0571 276.367Z" fill="#E7EBF2"/>
<path d="M114.663 124.077L102.851 135.889C102.064 136.676 100.961 137.149 100.016 137.149H70.4072V109.43H116.081V121.084C115.766 122.344 115.451 123.289 114.663 124.077Z" fill="#E7EBF2"/>
<path d="M87.7542 122.013H76.4118C75.7168 122.013 75.1533 121.449 75.1533 120.754V115.239C75.1533 114.544 75.7168 113.98 76.4118 113.98H87.7542C88.4493 113.98 89.0127 114.544 89.0127 115.239V120.754C89.0127 121.449 88.4493 122.013 87.7542 122.013Z" fill="white"/>
<path d="M105.671 122.013H94.3288C93.6337 122.013 93.0703 121.449 93.0703 120.754V115.239C93.0703 114.544 93.6337 113.98 94.3288 113.98H105.671C106.366 113.98 106.93 114.544 106.93 115.239V120.754C106.93 121.449 106.366 122.013 105.671 122.013Z" fill="white"/>
<path d="M36.1684 253.59H29.9932V303.987H36.1684V253.59Z" fill="#B9C0D0"/>
<path d="M79.9927 253.59H73.8174V303.987H79.9927V253.59Z" fill="#B9C0D0"/>
<path d="M266.447 302.197C249.714 302.594 229.793 302.197 215.65 301.997C201.507 302.396 181.587 302.594 164.854 302.197C181.388 292.833 186.966 275.504 187.961 263.949H243.139C244.335 275.504 249.913 292.833 266.447 302.197Z" fill="url(#paint0_linear_3191_14568)"/>
<path d="M319.434 118.929V262.155C319.434 265.741 316.645 268.331 313.258 268.331H118.041C114.654 268.331 111.865 265.542 111.865 262.155V118.929C111.865 115.543 114.654 112.754 118.041 112.754H313.258C316.645 112.754 319.434 115.343 319.434 118.929Z" fill="#E8EDF8"/>
<path d="M319.434 118.929V242.434H112.064V118.929C112.064 115.543 114.853 112.754 118.24 112.754H313.457C316.645 112.754 319.434 115.343 319.434 118.929Z" fill="#B9C0D0"/>
<path d="M312.062 120.324H119.435V235.263H311.863V120.324H312.062Z" fill="white"/>
<path d="M215.649 260.359C218.509 260.359 220.829 258.041 220.829 255.18C220.829 252.319 218.509 250 215.649 250C212.788 250 210.47 252.319 210.47 255.18C210.47 258.041 212.788 260.359 215.649 260.359Z" fill="#B9C0D0"/>
<path d="M433.316 259.164H427.938V303.387H433.316V259.164Z" fill="#B9C0D0"/>
<path d="M471.762 259.164H466.383V303.387H471.762V259.164Z" fill="#B9C0D0"/>
<path d="M478.535 261.16H421.962V279.287H478.535V261.16Z" fill="#E8EDF8"/>
<path d="M435.707 261.16L429.73 279.287H422.957L428.735 261.16H435.707Z" fill="url(#paint1_linear_3191_14568)"/>
<path d="M449.451 261.16L443.474 279.287H436.702L442.479 261.16H449.451Z" fill="url(#paint2_linear_3191_14568)"/>
<path d="M463.195 261.16L457.22 279.287H450.446L456.224 261.16H463.195Z" fill="url(#paint3_linear_3191_14568)"/>
<path d="M476.94 261.16L470.965 279.287H464.191L469.968 261.16H476.94Z" fill="url(#paint4_linear_3191_14568)"/>
<path d="M87.7612 255.977H23.2197V276.694H87.7612V255.977Z" fill="#E8EDF8"/>
<path d="M38.7586 255.977L31.9857 276.494H24.2168L30.9896 255.977H38.7586Z" fill="url(#paint5_linear_3191_14568)"/>
<path d="M54.4949 255.977L47.7221 276.494H39.9531L46.5269 255.977H54.4949Z" fill="url(#paint6_linear_3191_14568)"/>
<path d="M70.2322 255.977L63.4594 276.494H55.6904L62.2642 255.977H70.2322Z" fill="url(#paint7_linear_3191_14568)"/>
<path d="M85.9685 255.977L79.1956 276.494H71.4268L78.0004 255.977H85.9685Z" fill="url(#paint8_linear_3191_14568)"/>
<path d="M240.948 57.1797V81.4822" stroke="#BBC1CF" stroke-width="2" stroke-miterlimit="10" stroke-linejoin="round"/>
<path d="M241.047 92.0418C244.954 92.0418 248.12 88.8756 248.12 84.97C248.12 81.0645 244.954 77.8984 241.047 77.8984C237.142 77.8984 233.976 81.0645 233.976 84.97C233.976 88.8756 237.142 92.0418 241.047 92.0418Z" fill="#B9C0D0"/>
<path d="M234.176 103.792C234.176 108.174 238.159 111.76 242.94 110.564C245.53 109.967 247.522 107.975 248.12 105.385C248.917 101.6 246.726 98.0148 243.339 97.0187C242.143 96.6204 241.347 95.6244 241.347 94.23V88.0547" stroke="#BBC1CF" stroke-width="2" stroke-miterlimit="10" stroke-linejoin="round"/>
<path d="M413.059 297.41H336.964V303.586H413.059V297.41Z" fill="url(#paint9_linear_3191_14568)"/>
<path d="M408.13 282.888C407.624 281.333 406.175 280.281 404.54 280.281H345.283C343.648 280.281 342.198 281.333 341.692 282.888L336.964 297.412H412.86L408.13 282.888Z" fill="#CAD0DD"/>
<path d="M436.564 34.8633V58.1698H218.637L239.752 36.8553L436.564 34.8633Z" stroke="#BBC1CF" stroke-width="2" stroke-miterlimit="10" stroke-linejoin="round"/>
<path d="M312.859 58.1738V36.8594L288.557 58.1738V36.8594L264.055 58.1738V36.8594L239.752 58.1738V37.6561V36.8594" stroke="#BBC1CF" stroke-width="2" stroke-miterlimit="10" stroke-linejoin="round"/>
<path d="M410.468 58.1739V35.2656" stroke="#BBC1CF" stroke-width="2" stroke-miterlimit="10" stroke-linejoin="round"/>
<path d="M337.361 36.8594V58.1738L361.665 36.8594" stroke="#BBC1CF" stroke-width="2" stroke-miterlimit="10" stroke-linejoin="round"/>
<path d="M361.665 36.8594V58.1738" stroke="#BBC1CF" stroke-width="2" stroke-miterlimit="10" stroke-linejoin="round"/>
<path d="M387.96 270.321H361.864V13.1514L375.012 1L387.96 13.1514V270.321Z" stroke="#BBC1CF" stroke-width="2" stroke-miterlimit="10" stroke-linejoin="round"/>
<path d="M361.864 14.5469H387.96" stroke="#BBC1CF" stroke-width="2" stroke-miterlimit="10"/>
<path d="M361.864 80.2852H387.96" stroke="#BBC1CF" stroke-width="2" stroke-miterlimit="10" stroke-linejoin="round"/>
<path d="M361.864 101.395H387.96" stroke="#BBC1CF" stroke-width="2" stroke-miterlimit="10"/>
<path d="M361.864 122.32H387.96" stroke="#BBC1CF" stroke-width="2" stroke-miterlimit="10"/>
<path d="M361.864 143.43H387.96" stroke="#BBC1CF" stroke-width="2" stroke-miterlimit="10"/>
<path d="M361.864 164.547H387.96" stroke="#BBC1CF" stroke-width="2" stroke-miterlimit="10"/>
<path d="M361.864 185.656H387.96" stroke="#BBC1CF" stroke-width="2" stroke-miterlimit="10"/>
<path d="M361.864 206.582H387.96" stroke="#BBC1CF" stroke-width="2" stroke-miterlimit="10"/>
<path d="M361.864 227.691H387.96" stroke="#BBC1CF" stroke-width="2" stroke-miterlimit="10"/>
<path d="M361.864 248.809H387.96" stroke="#BBC1CF" stroke-width="2" stroke-miterlimit="10"/>
<path d="M259.075 36.6571L375.011 1L430.189 35.0635" stroke="#BBC1CF" stroke-width="2" stroke-miterlimit="10" stroke-linejoin="round"/>
<path d="M361.665 58.17L387.959 35.6602" stroke="#BBC1CF" stroke-width="2" stroke-miterlimit="10" stroke-linejoin="round"/>
<path d="M387.162 58.9688L362.461 79.4866" stroke="#BBC1CF" stroke-width="2" stroke-miterlimit="10" stroke-linejoin="round"/>
<path d="M387.161 14.9414L362.262 34.8616" stroke="#BBC1CF" stroke-width="2" stroke-miterlimit="10" stroke-linejoin="round"/>
<path d="M409.671 35.6602L388.955 57.7715" stroke="#BBC1CF" stroke-width="2" stroke-miterlimit="10" stroke-linejoin="round"/>
<path d="M411.066 57.7715L436.365 35.6602" stroke="#BBC1CF" stroke-width="2" stroke-miterlimit="10" stroke-linejoin="round"/>
<path d="M336.564 36.6602L313.655 57.178" stroke="#BBC1CF" stroke-width="2" stroke-miterlimit="10" stroke-linejoin="round"/>
<path d="M386.963 80.8867L362.461 100.608" stroke="#BBC1CF" stroke-width="2" stroke-miterlimit="10" stroke-linejoin="round"/>
<path d="M386.963 102.191L362.461 121.514" stroke="#BBC1CF" stroke-width="2" stroke-miterlimit="10" stroke-linejoin="round"/>
<path d="M387.162 123.117L362.461 142.639" stroke="#BBC1CF" stroke-width="2" stroke-miterlimit="10" stroke-linejoin="round"/>
<path d="M387.162 144.422L362.461 163.745" stroke="#BBC1CF" stroke-width="2" stroke-miterlimit="10" stroke-linejoin="round"/>
<path d="M387.162 165.344L362.461 184.666" stroke="#BBC1CF" stroke-width="2" stroke-miterlimit="10" stroke-linejoin="round"/>
<path d="M387.162 186.258L362.461 205.779" stroke="#BBC1CF" stroke-width="2" stroke-miterlimit="10" stroke-linejoin="round"/>
<path d="M387.162 207.375L362.461 226.897" stroke="#BBC1CF" stroke-width="2" stroke-miterlimit="10" stroke-linejoin="round"/>
<path d="M387.162 228.488L362.461 248.009" stroke="#BBC1CF" stroke-width="2" stroke-miterlimit="10" stroke-linejoin="round"/>
<path d="M387.162 249.801L362.461 269.123" stroke="#BBC1CF" stroke-width="2" stroke-miterlimit="10" stroke-linejoin="round"/>
<path d="M400.582 270.125H349.441C348.05 270.125 346.924 271.253 346.924 272.642V280.285H403.099V272.642C403.099 271.253 401.971 270.125 400.582 270.125Z" fill="url(#paint10_linear_3191_14568)"/>
<path d="M154.096 228.289H129.395C127.403 228.289 125.81 226.695 125.81 224.703V129.485C125.81 127.493 127.403 125.898 129.395 125.898H154.096C156.088 125.898 157.681 127.493 157.681 129.485V224.703C157.681 226.695 156.088 228.289 154.096 228.289Z" fill="#E8EDF8"/>
<path d="M141.745 145.026C145.046 145.026 147.722 142.351 147.722 139.051C147.722 135.75 145.046 133.074 141.745 133.074C138.445 133.074 135.77 135.75 135.77 139.051C135.77 142.351 138.445 145.026 141.745 145.026Z" fill="url(#paint11_linear_3191_14568)"/>
<path d="M152.303 153.789H131.188C130.79 153.789 130.59 153.589 130.59 153.191V151.598C130.59 151.199 130.79 151 131.188 151H152.104C152.503 151 152.702 151.199 152.702 151.598V153.191C152.901 153.589 152.503 153.789 152.303 153.789Z" fill="url(#paint12_linear_3191_14568)"/>
<path d="M152.303 162.156H131.188C130.79 162.156 130.59 161.957 130.59 161.56V159.965C130.59 159.567 130.79 159.367 131.188 159.367H152.104C152.503 159.367 152.702 159.567 152.702 159.965V161.56C152.901 161.957 152.503 162.156 152.303 162.156Z" fill="url(#paint13_linear_3191_14568)"/>
<path d="M152.303 170.523H131.188C130.79 170.523 130.59 170.323 130.59 169.925V168.332C130.59 167.933 130.79 167.734 131.188 167.734H152.104C152.503 167.734 152.702 167.933 152.702 168.332V169.925C152.901 170.323 152.503 170.523 152.303 170.523Z" fill="url(#paint14_linear_3191_14568)"/>
<path d="M152.303 179.086H131.188C130.79 179.086 130.59 178.886 130.59 178.488V176.893C130.59 176.496 130.79 176.297 131.188 176.297H152.104C152.503 176.297 152.702 176.496 152.702 176.893V178.488C152.901 178.687 152.503 179.086 152.303 179.086Z" fill="url(#paint15_linear_3191_14568)"/>
<path d="M152.303 187.453H131.188C130.79 187.453 130.59 187.253 130.59 186.855V185.262C130.59 184.863 130.79 184.664 131.188 184.664H152.104C152.503 184.664 152.702 184.863 152.702 185.262V186.855C152.901 187.054 152.503 187.453 152.303 187.453Z" fill="url(#paint16_linear_3191_14568)"/>
<path d="M152.303 195.82H131.188C130.79 195.82 130.59 195.621 130.59 195.222V193.629C130.59 193.231 130.79 193.031 131.188 193.031H152.104C152.503 193.031 152.702 193.231 152.702 193.629V195.222C152.901 195.621 152.503 195.82 152.303 195.82Z" fill="url(#paint17_linear_3191_14568)"/>
<path d="M148.519 204.187H135.172C134.773 204.187 134.574 203.988 134.574 203.591V201.996C134.574 201.599 134.773 201.398 135.172 201.398H148.519C148.918 201.398 149.116 201.599 149.116 201.996V203.591C149.116 203.988 148.717 204.187 148.519 204.187Z" fill="url(#paint18_linear_3191_14568)"/>
<path d="M228.399 213.945H175.212V216.933H228.399V213.945Z" fill="url(#paint19_linear_3191_14568)"/>
<path d="M204.096 221.918H175.212V224.906H204.096V221.918Z" fill="url(#paint20_linear_3191_14568)"/>
<path d="M292.342 213.945H239.156V216.933H292.342V213.945Z" fill="url(#paint21_linear_3191_14568)"/>
<path d="M268.04 221.918H239.156V224.906H268.04V221.918Z" fill="url(#paint22_linear_3191_14568)"/>
<path d="M194.419 116.837L236.588 108.447C239.679 107.785 242.77 108.447 245.198 109.993L277.652 128.759" stroke="#BBC1CF" stroke-width="2" stroke-miterlimit="10" stroke-linejoin="round"/>
<g filter="url(#filter0_d_3191_14568)">
<path d="M277.189 217.732L170.377 201.616C167.066 201.174 164.859 198.083 165.299 194.771L176.117 117.72C176.559 114.408 179.65 112.2 182.962 112.642L289.774 128.759C293.085 129.2 295.292 132.291 294.852 135.603L284.034 212.654C283.592 215.745 280.501 218.174 277.189 217.732Z" fill="white"/>
</g>
<path d="M273.69 208.96L178.21 194.048C175.511 193.688 173.711 191.168 174.071 188.47L182.888 125.669C183.248 122.97 185.768 121.17 188.466 121.53L283.947 136.443C286.647 136.803 288.446 139.321 288.086 142.021L279.269 204.822C278.909 207.341 276.39 209.32 273.69 208.96Z" fill="#EFF3FB"/>
<path d="M333.377 77.4945L348.317 92.4346C349.313 93.4307 350.707 94.0282 351.903 94.0282H389.352V58.9688H331.584V73.7096C331.983 75.3033 332.381 76.4985 333.377 77.4945Z" fill="#B9C0D0"/>
<path d="M367.079 74.8819H382.092C382.788 74.8819 383.35 74.3185 383.35 73.6234V65.9812C383.35 65.2861 382.788 64.7227 382.092 64.7227H367.079C366.384 64.7227 365.82 65.2861 365.82 65.9812V73.6234C365.82 74.3185 366.384 74.8819 367.079 74.8819Z" fill="white"/>
<path d="M344.418 74.8819H359.431C360.125 74.8819 360.689 74.3185 360.689 73.6234V65.9812C360.689 65.2861 360.125 64.7227 359.431 64.7227H344.418C343.723 64.7227 343.159 65.2861 343.159 65.9812V73.6234C343.159 74.3185 343.723 74.8819 344.418 74.8819Z" fill="white"/>
<path d="M2.10547 303.988H492.895" stroke="#CDD6E1" stroke-width="3" stroke-miterlimit="10" stroke-linecap="round" stroke-linejoin="round"/>
<path d="M171.816 302.4H144.924L146.118 299.411L148.907 291.842L151.298 285.267L154.087 277.699L156.079 272.519C156.477 271.523 157.474 270.727 158.469 270.727C159.465 270.727 160.461 271.324 160.859 272.519L162.851 277.699L165.64 285.267L168.031 291.842L170.82 299.411L171.816 302.4Z" fill="#E8EDF8"/>
<path d="M165.647 285.264H151.312L154.007 277.895H162.915L165.647 285.264Z" fill="url(#paint23_linear_3191_14568)"/>
<path d="M170.81 299.406H146.109L148.898 291.836H168.021L170.81 299.406Z" fill="url(#paint24_linear_3191_14568)"/>
<path d="M171.814 302.399H144.722C143.926 302.399 143.129 301.801 143.129 300.805C143.129 300.009 143.727 299.211 144.722 299.211H171.814C172.611 299.211 173.408 299.809 173.408 300.805C173.408 301.801 172.81 302.399 171.814 302.399Z" fill="#E8EDF8"/>
<path d="M319.184 302.4H292.291L293.487 299.411L296.275 291.842L298.665 285.267L301.454 277.699L303.446 272.519C303.845 271.523 304.841 270.727 305.838 270.727C306.833 270.727 307.829 271.324 308.228 272.519L310.22 277.699L313.009 285.267L315.399 291.842L318.187 299.411L319.184 302.4Z" fill="#E8EDF8"/>
<path d="M313.017 285.264H298.683L301.377 277.895H310.285L313.017 285.264Z" fill="url(#paint25_linear_3191_14568)"/>
<path d="M318.178 299.406H293.478L296.266 291.836H315.39L318.178 299.406Z" fill="url(#paint26_linear_3191_14568)"/>
<path d="M319.185 302.399H292.093C291.297 302.399 290.5 301.801 290.5 300.805C290.5 300.009 291.098 299.211 292.093 299.211H319.185C319.982 299.211 320.779 299.809 320.779 300.805C320.779 301.801 320.181 302.399 319.185 302.399Z" fill="#E8EDF8"/>
<path d="M209.781 167.557C212.603 167.986 215.351 165.963 215.78 163.141C216.208 160.321 214.184 157.572 211.364 157.143C208.544 156.715 205.794 158.739 205.366 161.559C204.937 164.38 206.961 167.128 209.781 167.557Z" fill="#989FB0"/>
<path d="M249.702 173.624C252.523 174.053 255.273 172.029 255.701 169.209C256.13 166.387 254.106 163.639 251.286 163.21C248.464 162.782 245.715 164.805 245.286 167.626C244.826 170.662 246.882 173.196 249.702 173.624Z" fill="#989FB0"/>
<path d="M212.989 145.102L200.595 149.545L201.705 152.644L214.099 148.2L212.989 145.102Z" fill="#989FB0"/>
<path d="M252.415 151.008L250.435 153.637L260.951 161.56L262.932 158.931L252.415 151.008Z" fill="#989FB0"/>
<path d="M227.896 182.741C231.251 183.251 234.28 181.624 234.663 179.108C235.046 176.592 232.636 174.138 229.28 173.629C225.926 173.119 222.896 174.746 222.513 177.262C222.132 179.778 224.541 182.232 227.896 182.741Z" fill="#989FB0"/>
<path d="M143.731 322H408.366" stroke="#CDD6E1" stroke-width="3" stroke-miterlimit="10" stroke-linecap="round" stroke-linejoin="round"/>
<path d="M57.6562 322H91.0993" stroke="#CDD6E1" stroke-width="3" stroke-miterlimit="10" stroke-linecap="round" stroke-linejoin="round"/>
<defs>
<filter id="filter0_d_3191_14568" x="143.243" y="107.586" width="173.665" height="149.199" filterUnits="userSpaceOnUse" color-interpolation-filters="sRGB">
<feFlood flood-opacity="0" result="BackgroundImageFix"/>
<feColorMatrix in="SourceAlpha" type="matrix" values="0 0 0 0 0 0 0 0 0 0 0 0 0 0 0 0 0 0 127 0" result="hardAlpha"/>
<feOffset dy="17"/>
<feGaussianBlur stdDeviation="11"/>
<feColorMatrix type="matrix" values="0 0 0 0 0.397708 0 0 0 0 0.47749 0 0 0 0 0.575 0 0 0 0.37 0"/>
<feBlend mode="normal" in2="BackgroundImageFix" result="effect1_dropShadow_3191_14568"/>
<feBlend mode="normal" in="SourceGraphic" in2="effect1_dropShadow_3191_14568" result="shape"/>
</filter>
<linearGradient id="paint0_linear_3191_14568" x1="215.739" y1="301.247" x2="215.739" y2="267.025" gradientUnits="userSpaceOnUse">
<stop stop-color="#F5F8FF"/>
<stop offset="0.9913" stop-color="#D8E0EB"/>
</linearGradient>
<linearGradient id="paint1_linear_3191_14568" x1="429.333" y1="261.16" x2="429.333" y2="279.287" gradientUnits="userSpaceOnUse">
<stop stop-color="#E3E8F0"/>
<stop offset="1" stop-color="#CCD3DE"/>
</linearGradient>
<linearGradient id="paint2_linear_3191_14568" x1="443.077" y1="261.16" x2="443.077" y2="279.287" gradientUnits="userSpaceOnUse">
<stop stop-color="#E3E8F0"/>
<stop offset="1" stop-color="#CCD3DE"/>
</linearGradient>
<linearGradient id="paint3_linear_3191_14568" x1="456.821" y1="261.16" x2="456.821" y2="279.287" gradientUnits="userSpaceOnUse">
<stop stop-color="#E3E8F0"/>
<stop offset="1" stop-color="#CCD3DE"/>
</linearGradient>
<linearGradient id="paint4_linear_3191_14568" x1="470.566" y1="261.16" x2="470.566" y2="279.287" gradientUnits="userSpaceOnUse">
<stop stop-color="#E3E8F0"/>
<stop offset="1" stop-color="#CCD3DE"/>
</linearGradient>
<linearGradient id="paint5_linear_3191_14568" x1="31.4877" y1="255.977" x2="31.4877" y2="276.494" gradientUnits="userSpaceOnUse">
<stop stop-color="#E3E8F0"/>
<stop offset="1" stop-color="#CCD3DE"/>
</linearGradient>
<linearGradient id="paint6_linear_3191_14568" x1="47.2239" y1="255.977" x2="47.2239" y2="276.494" gradientUnits="userSpaceOnUse">
<stop stop-color="#E3E8F0"/>
<stop offset="1" stop-color="#CCD3DE"/>
</linearGradient>
<linearGradient id="paint7_linear_3191_14568" x1="62.9612" y1="255.977" x2="62.9612" y2="276.494" gradientUnits="userSpaceOnUse">
<stop stop-color="#E3E8F0"/>
<stop offset="1" stop-color="#CCD3DE"/>
</linearGradient>
<linearGradient id="paint8_linear_3191_14568" x1="78.6976" y1="255.977" x2="78.6976" y2="276.494" gradientUnits="userSpaceOnUse">
<stop stop-color="#E3E8F0"/>
<stop offset="1" stop-color="#CCD3DE"/>
</linearGradient>
<linearGradient id="paint9_linear_3191_14568" x1="336.895" y1="300.382" x2="412.93" y2="300.382" gradientUnits="userSpaceOnUse">
<stop stop-color="#B0BACC"/>
<stop offset="1" stop-color="#969EAE"/>
</linearGradient>
<linearGradient id="paint10_linear_3191_14568" x1="347.004" y1="275.279" x2="403.124" y2="275.279" gradientUnits="userSpaceOnUse">
<stop stop-color="#B0BACC"/>
<stop offset="1" stop-color="#969EAE"/>
</linearGradient>
<linearGradient id="paint11_linear_3191_14568" x1="145.484" y1="133.074" x2="137.953" y2="133.074" gradientUnits="userSpaceOnUse">
<stop stop-color="#E3E8F0"/>
<stop offset="1" stop-color="#CCD3DE"/>
</linearGradient>
<linearGradient id="paint12_linear_3191_14568" x1="148.605" y1="151" x2="134.641" y2="151" gradientUnits="userSpaceOnUse">
<stop stop-color="#E3E8F0"/>
<stop offset="1" stop-color="#CCD3DE"/>
</linearGradient>
<linearGradient id="paint13_linear_3191_14568" x1="148.605" y1="159.367" x2="134.641" y2="159.367" gradientUnits="userSpaceOnUse">
<stop stop-color="#E3E8F0"/>
<stop offset="1" stop-color="#CCD3DE"/>
</linearGradient>
<linearGradient id="paint14_linear_3191_14568" x1="148.605" y1="167.734" x2="134.641" y2="167.734" gradientUnits="userSpaceOnUse">
<stop stop-color="#E3E8F0"/>
<stop offset="1" stop-color="#CCD3DE"/>
</linearGradient>
<linearGradient id="paint15_linear_3191_14568" x1="148.605" y1="176.297" x2="134.641" y2="176.297" gradientUnits="userSpaceOnUse">
<stop stop-color="#E3E8F0"/>
<stop offset="1" stop-color="#CCD3DE"/>
</linearGradient>
<linearGradient id="paint16_linear_3191_14568" x1="148.605" y1="184.664" x2="134.641" y2="184.664" gradientUnits="userSpaceOnUse">
<stop stop-color="#E3E8F0"/>
<stop offset="1" stop-color="#CCD3DE"/>
</linearGradient>
<linearGradient id="paint17_linear_3191_14568" x1="148.605" y1="193.031" x2="134.641" y2="193.031" gradientUnits="userSpaceOnUse">
<stop stop-color="#E3E8F0"/>
<stop offset="1" stop-color="#CCD3DE"/>
</linearGradient>
<linearGradient id="paint18_linear_3191_14568" x1="146.394" y1="201.398" x2="137.232" y2="201.398" gradientUnits="userSpaceOnUse">
<stop stop-color="#E3E8F0"/>
<stop offset="1" stop-color="#CCD3DE"/>
</linearGradient>
<linearGradient id="paint19_linear_3191_14568" x1="218.441" y1="213.945" x2="184.931" y2="213.945" gradientUnits="userSpaceOnUse">
<stop stop-color="#E3E8F0"/>
<stop offset="1" stop-color="#CCD3DE"/>
</linearGradient>
<linearGradient id="paint20_linear_3191_14568" x1="198.688" y1="221.918" x2="180.49" y2="221.918" gradientUnits="userSpaceOnUse">
<stop stop-color="#E3E8F0"/>
<stop offset="1" stop-color="#CCD3DE"/>
</linearGradient>
<linearGradient id="paint21_linear_3191_14568" x1="282.385" y1="213.945" x2="248.876" y2="213.945" gradientUnits="userSpaceOnUse">
<stop stop-color="#E3E8F0"/>
<stop offset="1" stop-color="#CCD3DE"/>
</linearGradient>
<linearGradient id="paint22_linear_3191_14568" x1="262.633" y1="221.918" x2="244.434" y2="221.918" gradientUnits="userSpaceOnUse">
<stop stop-color="#E3E8F0"/>
<stop offset="1" stop-color="#CCD3DE"/>
</linearGradient>
<linearGradient id="paint23_linear_3191_14568" x1="162.964" y1="277.895" x2="153.933" y2="277.895" gradientUnits="userSpaceOnUse">
<stop stop-color="#E3E8F0"/>
<stop offset="1" stop-color="#CCD3DE"/>
</linearGradient>
<linearGradient id="paint24_linear_3191_14568" x1="166.185" y1="291.836" x2="150.622" y2="291.836" gradientUnits="userSpaceOnUse">
<stop stop-color="#E3E8F0"/>
<stop offset="1" stop-color="#CCD3DE"/>
</linearGradient>
<linearGradient id="paint25_linear_3191_14568" x1="310.333" y1="277.895" x2="301.303" y2="277.895" gradientUnits="userSpaceOnUse">
<stop stop-color="#E3E8F0"/>
<stop offset="1" stop-color="#CCD3DE"/>
</linearGradient>
<linearGradient id="paint26_linear_3191_14568" x1="313.555" y1="291.836" x2="297.992" y2="291.836" gradientUnits="userSpaceOnUse">
<stop stop-color="#E3E8F0"/>
<stop offset="1" stop-color="#CCD3DE"/>
</linearGradient>
</defs>
</svg>
