<svg width="221" height="19" viewBox="0 0 221 19" fill="none" xmlns="http://www.w3.org/2000/svg">
<path d="M2.02587 12.7915C24.4086 12.735 46.8528 10.0068 69.0846 7.02288C78.6754 5.7356 88.2542 4.268 97.8061 2.59533C100.149 2.18498 98.5594 2.224 97.5329 2.59601C93.9126 3.90805 90.5546 6.72021 87.0747 8.50455C82.2591 10.9738 75.7646 12.2377 71.5209 16.1227C69.5561 17.9216 76.3748 17.3087 78.809 17.0658C96.0875 15.3422 113.273 12.8925 130.381 9.41328C139.487 7.56144 148.534 5.28969 157.642 3.46231C160.438 2.90114 153.198 4.29279 152.635 4.49301C149.396 5.64572 146.847 7.72957 143.951 9.71837C141.441 11.4425 144.216 10.4129 146.275 10.3346C170.31 9.42093 194.687 6.71194 218.474 2.29066C221.285 1.76812 215.398 3.64868 214.289 4.11111" stroke="#F2B660" stroke-width="3" stroke-linecap="round"/>
</svg>
