<svg width="81" height="81" viewBox="0 0 81 81" fill="none" xmlns="http://www.w3.org/2000/svg">
<rect x="0.150391" y="0.125" width="80" height="80" rx="8" fill="#FAEAD1"/>
<path d="M52.3152 54.0598C48.772 56.1868 45.05 57.6253 40.9802 58.0812C36.4759 58.5857 32.18 57.7881 28.0666 55.9562C21.5135 53.0379 16.495 48.2991 12.3121 42.5811C12.0034 42.1591 11.8486 41.7648 12.2059 41.2743C16.8111 34.9516 22.3093 29.7041 29.7894 26.9327C36.8378 24.3212 43.697 24.9802 50.327 28.4114C55.3236 30.9973 59.3447 34.7424 62.8646 39.0692C63.3828 39.7062 63.8436 40.3897 64.3622 41.0262C64.8385 41.6108 64.7706 42.1268 64.3362 42.7063C61.6193 46.3305 58.5564 49.6125 54.8933 52.3019C54.072 52.905 53.2113 53.4545 52.3152 54.0598ZM49.4331 29.8945C43.0063 26.574 36.4068 26.0714 29.6678 28.8148C23.3156 31.4007 18.4418 35.8526 14.3293 41.2302C14.0019 41.6583 13.9654 41.97 14.3098 42.418C18.1832 47.4575 22.7611 51.6469 28.6047 54.3115C34.5738 57.0333 40.6369 57.2639 46.7593 54.8773C53.2777 52.3363 58.222 47.8019 62.4456 42.3704C62.7321 42.0019 62.7558 41.7221 62.4535 41.3271C58.8989 36.6836 54.7529 32.7166 49.4331 29.8945Z" fill="black"/>
<path d="M59.5526 24.616C60.1726 25.2872 60.9408 25.5802 61.7147 25.8582C62.0226 25.9688 62.3243 26.0908 62.2965 26.4785C62.2732 26.8018 62.0199 26.9577 61.7302 27.0335C60.0177 27.4815 58.9259 28.5453 58.4866 30.2706C58.4072 30.5826 58.2676 30.8825 57.8779 30.8695C57.4996 30.8569 57.3649 30.5589 57.2763 30.2492C56.8024 28.5925 55.7726 27.4947 54.0853 27.0464C53.7625 26.9607 53.5003 26.785 53.5153 26.4085C53.5289 26.0649 53.809 25.9426 54.0855 25.8626C55.7458 25.3818 56.8223 24.3378 57.2542 22.6441C57.3393 22.3103 57.4993 21.9929 57.9313 22.0001C58.3867 22.0077 58.4433 22.3886 58.5498 22.6994C58.7801 23.3712 59.013 24.0382 59.5526 24.616ZM58.28 27.5851C58.6628 27.2573 59.0457 26.9295 59.3979 26.6278C58.9299 25.8869 58.4069 25.3725 57.8362 25.0347C56.2325 26.2791 56.2143 26.463 57.5072 27.642C57.758 27.8708 57.9569 27.9836 58.28 27.5851Z" fill="#F5AE46"/>
<path d="M13.1728 55.9569C12.7763 54.561 13.2795 53.426 14.4446 52.9665C15.4748 52.5601 16.6815 53.0227 17.1912 54.0194C17.7502 55.1124 17.357 56.4374 16.2984 57.0277C15.1842 57.649 13.9609 57.2507 13.1728 55.9569ZM15.0605 55.5738C15.465 55.6578 15.7238 55.4803 15.7845 55.0918C15.8221 54.8517 15.6399 54.6776 15.4152 54.5924C15.1871 54.5059 14.9669 54.5401 14.812 54.7403C14.5725 55.05 14.6746 55.3081 15.0605 55.5738Z" fill="black"/>
<path d="M63.4138 31.7979C64.1892 31.5201 64.6545 31.0284 64.8945 30.3054C64.9823 30.0407 65.0829 29.7385 65.4399 29.7363C65.7932 29.7342 65.8938 30.019 65.9927 30.2918C66.2479 30.9963 66.6909 31.5068 67.4294 31.7444C67.6951 31.8299 67.9707 31.9677 67.9975 32.3082C68.0271 32.6843 67.7265 32.7613 67.4604 32.8603C66.7605 33.1206 66.2465 33.5696 65.9793 34.284C65.8795 34.5506 65.7632 34.8182 65.4027 34.8167C65.074 34.8153 64.9769 34.5634 64.8936 34.3263C64.6305 33.5777 64.1075 33.1201 63.3834 32.8196C62.6691 32.5232 62.6774 32.2998 63.4138 31.7979Z" fill="black"/>
<path d="M30.9695 52.3527C25.1746 48.3279 23.6638 40.1854 27.6156 34.5226C31.8756 28.418 39.8136 26.9911 45.9141 31.2334C51.6237 35.204 53.0222 43.3628 48.9804 49.1228C44.8269 55.042 36.8797 56.4857 30.9695 52.3527ZM41.1267 52.6262C46.9904 51.0648 50.6462 45.2231 49.3645 39.4632C47.995 33.3087 42.2676 29.4974 36.057 30.7821C30.2868 31.9757 26.3523 37.2477 27.2511 43.2467C28.2691 50.0412 34.2328 54.02 41.1267 52.6262Z" fill="black"/>
<path d="M45.0723 39.0144C45.2595 38.8498 45.3625 38.6563 45.5955 38.6746C47.1036 41.0797 46.4487 45.6756 43.0864 48.1701C39.7978 50.6098 34.9705 50.0485 32.2691 46.8513C29.5591 43.6441 29.8318 38.9183 32.8781 36.0087C35.8182 33.2005 40.4046 33.3354 42.456 35.146C41.6623 35.7418 41.0143 36.4487 41.1161 37.5276C41.1739 38.1411 41.4504 38.6502 41.8839 39.0961C42.531 39.7616 44.2919 40.0415 45.0723 39.0144Z" fill="#F5AE46"/>
</svg>
