<svg width="600" height="167" viewBox="0 0 600 167" fill="none" xmlns="http://www.w3.org/2000/svg">
<g clip-path="url(#clip0_2609_93186)">
<path d="M47.6707 27.0122C47.6707 29.2318 47.2528 31.0267 46.2868 32.4174C45.4579 33.8013 44.211 34.9111 42.8203 35.7401C41.4296 36.569 39.7717 36.9869 37.9699 37.261C36.1682 37.535 34.2294 37.6789 32.4276 37.6789H3.34594C1.82506 37.6789 0.989258 36.8499 0.989258 35.1852V2.63012C0.989258 1.10924 1.81821 0.273438 3.34594 0.273438H32.0234C34.2431 0.273438 36.3189 0.410454 38.1207 0.691337C39.9224 0.96537 41.5872 1.52029 42.971 2.35608C44.3549 3.19188 45.3277 4.29486 46.0197 5.67873C46.7116 7.06259 47.1295 8.86436 47.1295 10.9402C47.1295 12.7419 46.8554 14.4067 46.1567 15.6535C45.4647 17.0374 44.2179 18.1472 42.4161 18.9762C43.937 19.5311 45.1839 20.497 46.1567 21.6069C47.2665 22.9907 47.6776 24.6555 47.6776 27.0122H47.6707ZM40.7445 27.1492C40.7445 26.1764 40.6075 25.3474 40.4705 24.6555C40.3335 23.9635 39.7786 23.4086 39.2236 22.9907C38.6687 22.5728 37.7028 22.2988 36.5929 22.0179C35.4831 21.737 33.9622 21.7439 32.2975 21.7439H7.77841V32.1366H32.8524C34.5171 32.1366 35.901 31.9995 36.867 31.8625C37.8398 31.7255 38.6687 31.3076 39.2236 31.0336C39.7786 30.6157 40.1965 30.2046 40.3335 29.5127C40.4705 28.8208 40.7514 28.1288 40.7514 27.156L40.7445 27.1492ZM8.05245 16.0714H32.5715C34.0924 16.0714 35.3392 16.0714 36.4491 15.9344C37.4219 15.7974 38.3878 15.5165 38.9428 15.2425C39.4977 14.9684 40.0526 14.4135 40.3266 13.7216C40.6007 13.0297 40.7445 12.2007 40.7445 11.0909C40.7445 10.2619 40.6075 9.42612 40.4705 8.73419C40.3335 8.04226 39.9156 7.48734 39.3607 7.21331C38.8057 6.79541 37.9768 6.52138 37.004 6.38436C36.0312 6.24735 34.6473 6.11033 32.9894 6.11033H8.05245V16.0851V16.0714Z" fill="#EB971C"/>
<path d="M89.5085 8.3125C90.6183 8.3125 91.4473 8.44952 92.0022 8.7304C92.5571 9.00443 92.8311 9.70321 92.8311 10.6692V28.68C92.8311 34.6333 87.9808 37.6819 78.2869 37.6819H65.9554C56.2615 37.6819 51.4111 34.6333 51.4111 28.68V10.6692C51.4111 9.69636 51.6852 9.00443 52.2401 8.7304C52.795 8.45637 53.6239 8.3125 54.7338 8.3125C55.8436 8.3125 56.6726 8.44952 57.2275 8.7304C57.7824 9.00443 58.0564 9.70321 58.0564 10.6692V28.68C58.0564 29.7898 58.7484 30.6187 59.9952 31.3107C61.242 32.0026 63.4617 32.4205 66.2294 32.4205H78.143C81.0546 32.4205 83.1304 32.0026 84.3772 31.3107C85.6241 30.6187 86.316 29.6459 86.316 28.68V10.6692C86.316 9.69636 86.5901 9.00443 87.145 8.7304C87.5629 8.45637 88.3918 8.3125 89.5017 8.3125H89.5085Z" fill="#EB971C"/>
<path d="M96.7119 16.3411C96.7119 13.9844 97.6847 12.0456 99.7605 10.6617C101.836 9.27787 104.885 8.58594 108.906 8.58594H115.97C116.798 8.58594 117.216 8.72295 117.49 9.27787C117.764 9.83279 117.908 10.3877 117.908 11.2166C117.908 12.0456 117.771 12.7375 117.49 13.1554C117.21 13.5733 116.661 13.8474 115.97 13.8474H108.906C106.968 13.8474 105.44 14.1214 104.611 14.5393C103.782 14.9572 103.227 15.6491 103.227 16.4781V17.8619C103.227 18.6909 103.645 19.2458 104.611 19.8007C105.577 20.3556 107.105 20.4927 109.18 20.4927H120.539C125.389 20.4927 128.849 21.1846 130.932 22.5684C133.008 23.9523 134.117 25.8911 134.117 28.3848V30.0495C134.117 31.2964 133.843 32.4062 133.288 33.3722C132.733 34.3381 131.905 35.1739 130.658 35.8659C129.548 36.5578 128.027 37.1127 126.088 37.3868C124.149 37.6608 122.074 37.9417 119.436 37.9417H98.6576C97.8286 37.9417 97.4107 37.8047 97.1367 37.2497C96.8626 36.6948 96.7188 36.1399 96.7188 35.311C96.7188 34.482 96.8558 33.7901 97.1367 33.3722C97.4176 32.9543 97.9656 32.6802 98.6576 32.6802H120.546C121.93 32.6802 123.04 32.6802 124.012 32.5432C124.985 32.4062 125.677 32.2692 126.232 31.9883C126.787 31.7143 127.205 31.4334 127.342 31.1594C127.616 30.8853 127.616 30.4674 127.616 30.0495V28.2478C127.616 27.8299 127.479 27.4188 127.342 27.1379C127.205 26.8571 126.787 26.583 126.232 26.309C125.677 26.035 124.985 25.8911 124.156 25.7541C123.327 25.6171 122.217 25.6171 120.834 25.6171H109.338C105.18 25.6171 101.994 24.9251 99.9181 23.5413C97.8423 22.1574 96.7325 20.3556 96.7325 17.999V16.3342L96.7119 16.3411Z" fill="#EB971C"/>
<path d="M137.159 3.32264C137.159 2.21281 137.433 1.38386 138.132 0.828948C138.831 0.274033 139.797 0 141.181 0C142.564 0 143.674 0.274033 144.229 0.828948C144.784 1.38386 145.202 2.21281 145.202 3.32264C145.202 4.43248 144.928 5.26142 144.229 5.81634C143.53 6.37126 142.564 6.64529 141.181 6.64529C139.797 6.64529 138.687 6.37126 138.132 5.81634C137.577 5.26142 137.159 4.43248 137.159 3.32264ZM144.64 35.4667C144.64 36.4395 144.366 37.1314 143.811 37.4054C143.256 37.6795 142.427 37.8233 141.318 37.8233C140.208 37.8233 139.379 37.6863 138.824 37.4054C138.269 37.1314 137.995 36.4326 137.995 35.4667V11.0846C137.995 10.1118 138.269 9.41987 138.824 9.14584C139.379 8.8718 140.208 8.72794 141.318 8.72794C142.427 8.72794 143.256 8.86495 143.811 9.14584C144.366 9.41987 144.64 10.1187 144.64 11.0846V35.4667Z" fill="#EB971C"/>
<path d="M152.54 37.8069C151.431 37.8069 150.602 37.6699 150.047 37.389C149.492 37.115 149.218 36.4162 149.218 35.4503V17.4395C149.218 11.4861 154.068 8.4375 163.762 8.4375H174.984C184.678 8.4375 189.528 11.4861 189.528 17.4395V35.4503C189.528 36.4231 189.254 37.115 188.699 37.389C188.144 37.6631 187.315 37.8069 186.205 37.8069C185.095 37.8069 184.267 37.6699 183.712 37.389C183.157 37.115 182.883 36.4162 182.883 35.4503V17.4395C182.883 16.3296 182.191 15.5007 180.944 14.8088C179.697 14.1168 177.477 13.6989 174.71 13.6989H163.906C160.994 13.6989 158.919 14.1168 157.672 14.8088C156.425 15.5007 155.733 16.4735 155.733 17.4395V35.4503C155.733 36.4231 155.459 37.115 154.904 37.389C154.349 37.6631 153.657 37.8069 152.547 37.8069H152.54Z" fill="#EB971C"/>
<path d="M200.468 26.0382V28.6689C200.468 29.6417 201.16 30.6077 202.407 31.2996C203.654 31.9916 205.874 32.4095 208.641 32.4095H214.601C215.43 32.4095 215.848 32.5465 216.122 33.1014C216.396 33.5193 216.396 34.2112 216.396 35.0402C216.396 35.8691 216.259 36.5611 216.122 36.979C215.848 37.3969 215.43 37.6709 214.601 37.6709H208.504C198.81 37.6709 193.96 34.6223 193.96 28.6689V17.4473C193.96 11.4939 198.81 8.44531 208.504 8.44531H220.418C225.542 8.44531 229.283 9.13724 231.639 10.665C233.996 12.1927 235.106 14.4055 235.106 17.4541V23.4075C235.106 24.3803 234.969 25.0722 234.551 25.4833C234.133 25.8943 233.304 26.0382 232.057 26.0382H200.475H200.468ZM200.468 20.9069H228.454V17.4404C228.454 16.1936 227.762 15.3646 226.515 14.6727C225.268 13.9808 223.192 13.6999 220.144 13.6999H208.648C205.737 13.6999 203.661 14.1178 202.414 14.8097C201.167 15.5016 200.475 16.4745 200.475 17.4404V20.9069H200.468Z" fill="#EB971C"/>
<path d="M238.282 16.3411C238.282 13.9844 239.254 12.0456 241.33 10.6617C243.406 9.27787 246.455 8.58594 250.476 8.58594H257.539C258.368 8.58594 258.786 8.72295 259.06 9.27787C259.334 9.83279 259.478 10.3877 259.478 11.2166C259.478 12.0456 259.341 12.7375 259.06 13.1554C258.779 13.5733 258.231 13.8474 257.539 13.8474H250.476C248.537 13.8474 247.009 14.1214 246.181 14.5393C245.352 14.9572 244.797 15.6491 244.797 16.4781V17.8619C244.797 18.6909 245.352 19.2458 246.181 19.8007C247.153 20.3556 248.674 20.4927 250.75 20.4927H262.109C266.959 20.4927 270.419 21.1846 272.501 22.5684C274.584 23.9523 275.687 25.8911 275.687 28.3848V30.0495C275.687 31.2964 275.413 32.4062 274.858 33.3722C274.303 34.345 273.474 35.1739 272.227 35.8659C271.117 36.5578 269.597 37.1127 267.658 37.3868C265.719 37.6608 263.643 37.9417 261.006 37.9417H240.09C239.261 37.9417 238.843 37.8047 238.569 37.2497C238.295 36.6948 238.151 36.1399 238.151 35.311C238.151 34.482 238.288 33.7901 238.569 33.3722C238.85 32.9543 239.398 32.6802 240.09 32.6802H261.978C263.362 32.6802 264.472 32.6802 265.445 32.5432C266.418 32.4062 267.11 32.2692 267.665 31.9883C268.22 31.7074 268.494 31.4334 268.775 31.1594C269.055 30.8853 269.049 30.4674 269.049 30.0495V28.2478C269.049 27.8299 268.912 27.4188 268.775 27.1379C268.637 26.8571 268.22 26.583 267.665 26.309C267.11 26.035 266.418 25.8911 265.589 25.7541C264.76 25.6171 263.65 25.6171 262.266 25.6171H250.771C246.612 25.6171 243.426 24.9251 241.351 23.5413C239.275 22.1574 238.165 20.3556 238.165 17.999L238.302 16.3342L238.282 16.3411Z" fill="#EB971C"/>
<path d="M279.01 16.3411C279.01 13.9844 279.983 12.0456 282.059 10.6617C284.134 9.27787 287.183 8.58594 291.204 8.58594H298.268C299.097 8.58594 299.515 8.72295 299.789 9.27787C300.063 9.83279 300.206 10.3877 300.206 11.2166C300.206 12.0456 300.069 12.7375 299.789 13.1554C299.508 13.5733 298.96 13.8474 298.268 13.8474H291.204C289.266 13.8474 287.738 14.1214 286.909 14.5393C286.08 14.9572 285.525 15.6491 285.525 16.4781V17.8619C285.525 18.6909 286.08 19.2458 286.909 19.8007C287.882 20.3556 289.403 20.4927 291.479 20.4927H302.837C307.688 20.4927 311.147 21.1846 313.23 22.5684C315.312 23.9523 316.415 25.8911 316.415 28.3848V30.0495C316.415 31.2964 316.141 32.4062 315.587 33.3722C315.032 34.345 314.203 35.1739 312.956 35.8659C311.846 36.5578 310.325 37.1127 308.386 37.3868C306.448 37.6608 304.372 37.9417 301.734 37.9417H280.819C279.99 37.9417 279.572 37.8047 279.298 37.2497C279.024 36.6948 278.88 36.1399 278.88 35.311C278.88 34.482 279.017 33.7901 279.298 33.3722C279.579 32.9543 280.127 32.6802 280.819 32.6802H302.707C304.091 32.6802 305.201 32.6802 306.174 32.5432C307.146 32.4062 307.838 32.2692 308.393 31.9883C308.948 31.7074 309.222 31.4334 309.503 31.1594C309.784 30.8853 309.777 30.4674 309.777 30.0495V28.2478C309.777 27.8299 309.64 27.4188 309.503 27.1379C309.366 26.8571 308.948 26.583 308.393 26.309C307.838 26.035 307.146 25.8911 306.317 25.7541C305.488 25.6171 304.379 25.6171 302.995 25.6171H291.499C287.341 25.6171 284.155 24.9251 282.079 23.5413C280.003 22.1574 278.894 20.3556 278.894 17.999L279.031 16.3342L279.01 16.3411Z" fill="#EB971C"/>
<path d="M385.127 27.0122C385.127 29.2318 384.709 31.0267 383.743 32.4174C382.914 33.8013 381.667 34.9111 380.276 35.7401C378.893 36.569 377.228 36.9869 375.426 37.261C373.624 37.535 371.685 37.6789 369.884 37.6789H340.795C339.274 37.6789 338.438 36.8499 338.438 35.1852V2.63012C338.438 1.10924 339.267 0.273438 340.795 0.273438H369.473C371.692 0.273438 373.768 0.410454 375.57 0.691337C377.372 0.96537 379.036 1.52029 380.42 2.35608C381.804 3.18503 382.777 4.29486 383.469 5.67873C384.161 7.06259 384.579 8.86436 384.579 10.9402C384.579 12.7419 384.305 14.4067 383.606 15.6535C382.914 17.0374 381.667 18.1472 379.865 18.9762C381.386 19.5311 382.633 20.497 383.606 21.6069C384.579 22.9907 385.127 24.6555 385.127 27.0122ZM378.057 27.1492C378.057 26.1764 377.92 25.3474 377.783 24.6555C377.646 23.9635 377.091 23.4086 376.536 22.9907C375.844 22.5728 375.015 22.2988 373.905 22.0179C372.795 21.737 371.274 21.7439 369.61 21.7439H345.228V32.1366H370.302C371.966 32.1366 373.35 31.9995 374.316 31.8625C375.289 31.7255 376.118 31.3076 376.673 31.0336C377.228 30.6157 377.646 30.2046 377.783 29.5127C377.92 28.8208 378.057 28.1288 378.057 27.156V27.1492ZM345.365 16.0714H369.884C371.405 16.0714 372.651 16.0714 373.761 15.9344C374.734 15.7974 375.7 15.5165 376.255 15.2425C376.81 14.9684 377.365 14.4135 377.639 13.7216C377.913 13.0297 378.057 12.2007 378.057 11.0909C378.057 10.2619 377.92 9.42612 377.783 8.73419C377.646 8.04226 377.228 7.48734 376.673 7.21331C376.118 6.79541 375.289 6.52138 374.316 6.38436C373.343 6.24735 371.96 6.11033 370.302 6.11033H345.502L345.365 16.0851V16.0714Z" fill="#EB971C"/>
<path d="M426.821 8.3125C427.931 8.3125 428.76 8.44952 429.315 8.7304C429.87 9.00443 430.144 9.70321 430.144 10.6692V28.68C430.144 34.6333 425.293 37.6819 415.599 37.6819H403.268C393.574 37.6819 388.724 34.6333 388.724 28.68V10.6692C388.724 9.69636 388.998 9.00443 389.553 8.7304C390.108 8.45637 390.936 8.3125 392.046 8.3125C393.156 8.3125 393.985 8.44952 394.54 8.7304C395.095 9.00443 395.369 9.70321 395.369 10.6692V28.68C395.369 29.7898 396.061 30.6187 397.308 31.3107C398.555 32.0026 400.774 32.4205 403.542 32.4205H415.456C418.367 32.4205 420.443 32.0026 421.69 31.3107C422.937 30.6187 423.629 29.6459 423.629 28.68V10.6692C423.629 9.69636 423.903 9.00443 424.458 8.7304C425.012 8.45637 425.704 8.3125 426.814 8.3125H426.821Z" fill="#EB971C"/>
<path d="M433.884 3.32264C433.884 2.21281 434.158 1.38386 434.857 0.828948C435.555 0.274033 436.521 0 437.905 0C439.289 0 440.399 0.274033 440.954 0.828948C441.509 1.38386 441.927 2.21281 441.927 3.32264C441.927 4.43248 441.653 5.26142 440.954 5.81634C440.255 6.37126 439.289 6.64529 437.905 6.64529C436.521 6.64529 435.412 6.37126 434.857 5.81634C434.302 5.26142 433.884 4.43248 433.884 3.32264ZM441.365 35.4667C441.365 36.4395 441.091 37.1314 440.536 37.4054C439.981 37.6795 439.152 37.8233 438.042 37.8233C436.932 37.8233 436.103 37.6863 435.549 37.4054C434.994 37.1314 434.72 36.4326 434.72 35.4667V11.0846C434.72 10.1118 434.994 9.41987 435.549 9.14584C436.103 8.8718 436.932 8.72794 438.042 8.72794C439.152 8.72794 439.981 8.86495 440.536 9.14584C441.091 9.42672 441.365 10.1187 441.365 11.0846V35.4667Z" fill="#EB971C"/>
<path d="M452.72 35.4625C452.72 36.4353 452.446 37.1272 451.892 37.4012C451.337 37.6753 450.508 37.8191 449.398 37.8191C448.288 37.8191 447.459 37.6821 446.904 37.4012C446.349 37.1272 446.075 36.4284 446.075 35.4625V2.48949C446.075 1.51668 446.349 0.824745 446.904 0.550712C447.459 0.27668 448.288 0.132812 449.398 0.132812C450.508 0.132812 451.337 0.269829 451.892 0.550712C452.446 0.824745 452.72 1.52353 452.72 2.48949V35.4625Z" fill="#EB971C"/>
<path d="M492.067 2.48949C492.067 1.51668 492.341 0.824745 492.896 0.550712C493.451 0.27668 494.28 0.132812 495.389 0.132812C496.499 0.132812 497.328 0.269829 497.883 0.550712C498.438 0.824745 498.712 1.52353 498.712 2.48949V28.6733C498.712 34.6267 493.862 37.6753 484.168 37.6753H471.836C462.142 37.6753 457.292 34.6267 457.292 28.6733V17.4517C457.292 11.4983 462.142 8.4497 471.836 8.4497H492.341L492.067 2.49634V2.48949ZM471.843 13.7111C468.932 13.7111 466.856 14.129 465.609 14.821C464.362 15.5129 463.67 16.4857 463.67 17.4517V28.6733C463.67 29.6461 464.362 30.6121 465.609 31.304C466.856 31.9959 469.075 32.4138 471.843 32.4138H483.757C486.668 32.4138 488.744 31.9959 489.991 31.304C491.238 30.6121 491.93 29.6393 491.93 28.6733V13.7111H471.843Z" fill="#EB971C"/>
<path d="M502.46 3.32264C502.46 2.21281 502.734 1.38386 503.433 0.828948C504.132 0.274033 505.098 0 506.481 0C507.865 0 508.975 0.274033 509.53 0.828948C510.085 1.38386 510.503 2.21281 510.503 3.32264C510.503 4.43248 510.229 5.26142 509.53 5.81634C508.831 6.37126 507.865 6.64529 506.481 6.64529C505.098 6.64529 503.988 6.37126 503.433 5.81634C502.878 5.26142 502.46 4.43248 502.46 3.32264ZM509.797 35.4667C509.797 36.4395 509.523 37.1314 508.968 37.4054C508.413 37.6795 507.584 37.8233 506.475 37.8233C505.365 37.8233 504.536 37.6863 503.981 37.4054C503.426 37.1314 503.152 36.4326 503.152 35.4667V11.0846C503.152 10.1118 503.426 9.41987 503.981 9.14584C504.536 8.8718 505.365 8.72794 506.475 8.72794C507.584 8.72794 508.413 8.86495 508.968 9.14584C509.523 9.42672 509.797 10.1187 509.797 11.0846V35.4667Z" fill="#EB971C"/>
<path d="M517.693 37.8069C516.583 37.8069 515.754 37.6699 515.199 37.389C514.644 37.115 514.37 36.4162 514.37 35.4503V17.4395C514.37 11.4861 519.22 8.4375 528.914 8.4375H540.136C549.83 8.4375 554.68 11.4861 554.68 17.4395V35.4503C554.68 36.4231 554.406 37.115 553.851 37.389C553.296 37.6631 552.467 37.8069 551.358 37.8069C550.248 37.8069 549.419 37.6699 548.864 37.389C548.309 37.115 548.035 36.4162 548.035 35.4503V17.4395C548.035 16.3296 547.343 15.5007 546.096 14.8088C544.849 14.1168 542.63 13.6989 539.862 13.6989H529.058C526.147 13.6989 524.071 14.1168 522.824 14.8088C521.577 15.5007 520.885 16.4735 520.885 17.4395V35.4503C520.885 36.4231 520.611 37.115 520.056 37.389C519.638 37.6631 518.809 37.8069 517.7 37.8069H517.693Z" fill="#EB971C"/>
<path d="M579.62 46.1378C578.791 46.1378 578.373 45.8637 578.099 45.4458C577.825 45.0279 577.825 44.336 577.825 43.507C577.825 42.6781 577.962 41.9862 578.099 41.5683C578.236 41.1504 578.791 40.8763 579.62 40.8763H586.683C589.177 40.8763 590.978 40.6023 591.944 39.9035C592.917 39.2116 593.465 38.3826 593.465 37.1358V36.8618H573.653C563.959 36.8618 559.108 33.8131 559.108 27.8598V17.3301C559.108 11.3767 563.959 8.32812 573.653 8.32812H585.429C595.123 8.32812 599.974 11.3767 599.974 17.3301V36.9988C599.974 40.0474 598.864 42.2602 596.507 43.6509C594.287 45.1718 590.965 45.8706 586.532 45.8706L579.606 46.1446L579.62 46.1378ZM593.609 31.8675V17.4603C593.609 16.4874 592.917 15.5215 591.67 14.8295C590.423 14.1376 588.204 13.7197 585.436 13.7197H574.077C571.166 13.7197 569.09 14.1376 567.843 14.8295C566.596 15.5215 565.904 16.4943 565.904 17.4603V27.99C565.904 29.0998 566.596 29.9287 567.843 30.6207C569.09 31.3126 571.31 31.7305 574.077 31.7305H593.609V31.8675Z" fill="#EB971C"/>
</g>
<g clip-path="url(#clip1_2609_93186)">
<path d="M47.6707 87.0083C47.6707 89.2279 47.2528 91.0228 46.2868 92.4135C45.4579 93.7974 44.211 94.9072 42.8203 95.7362C41.4296 96.5651 39.7717 96.983 37.9699 97.2571C36.1682 97.5311 34.2294 97.675 32.4276 97.675H3.34594C1.82506 97.675 0.989258 96.846 0.989258 95.1813V62.6262C0.989258 61.1053 1.81821 60.2695 3.34594 60.2695H32.0234C34.2431 60.2695 36.3189 60.4065 38.1207 60.6874C39.9224 60.9615 41.5872 61.5164 42.971 62.3522C44.3549 63.188 45.3277 64.291 46.0197 65.6748C46.7116 67.0587 47.1295 68.8605 47.1295 70.9362C47.1295 72.738 46.8554 74.4028 46.1567 75.6496C45.4647 77.0335 44.2179 78.1433 42.4161 78.9723C43.937 79.5272 45.1839 80.4931 46.1567 81.603C47.2665 82.9868 47.6776 84.6516 47.6776 87.0083H47.6707ZM40.7445 87.1453C40.7445 86.1725 40.6075 85.3435 40.4705 84.6516C40.3335 83.9596 39.7786 83.4047 39.2236 82.9868C38.6687 82.5689 37.7028 82.2949 36.5929 82.014C35.4831 81.7331 33.9622 81.74 32.2975 81.74H7.77841V92.1327H32.8524C34.5171 92.1327 35.901 91.9956 36.867 91.8586C37.8398 91.7216 38.6687 91.3037 39.2236 91.0297C39.7786 90.6118 40.1965 90.2007 40.3335 89.5088C40.4705 88.8169 40.7514 88.1249 40.7514 87.1521L40.7445 87.1453ZM8.05245 76.0675H32.5715C34.0924 76.0675 35.3392 76.0675 36.4491 75.9305C37.4219 75.7935 38.3878 75.5126 38.9428 75.2386C39.4977 74.9645 40.0526 74.4096 40.3266 73.7177C40.6007 73.0257 40.7445 72.1968 40.7445 71.087C40.7445 70.258 40.6075 69.4222 40.4705 68.7303C40.3335 68.0384 39.9156 67.4834 39.3607 67.2094C38.8057 66.7915 37.9768 66.5175 37.004 66.3805C36.0312 66.2434 34.6473 66.1064 32.9894 66.1064H8.05245V76.0812V76.0675Z" fill="#EB971C"/>
<path d="M89.5085 68.3008C90.6183 68.3008 91.4473 68.4378 92.0022 68.7187C92.5571 68.9927 92.8311 69.6915 92.8311 70.6575V88.6682C92.8311 94.6216 87.9808 97.6702 78.2869 97.6702H65.9554C56.2615 97.6702 51.4111 94.6216 51.4111 88.6682V70.6575C51.4111 69.6846 51.6852 68.9927 52.2401 68.7187C52.795 68.4446 53.6239 68.3008 54.7338 68.3008C55.8436 68.3008 56.6726 68.4378 57.2275 68.7187C57.7824 68.9927 58.0564 69.6915 58.0564 70.6575V88.6682C58.0564 89.7781 58.7484 90.607 59.9952 91.299C61.242 91.9909 63.4617 92.4088 66.2294 92.4088H78.143C81.0546 92.4088 83.1304 91.9909 84.3772 91.299C85.6241 90.607 86.316 89.6342 86.316 88.6682V70.6575C86.316 69.6846 86.5901 68.9927 87.145 68.7187C87.5629 68.4446 88.3918 68.3008 89.5017 68.3008H89.5085Z" fill="#EB971C"/>
<path d="M96.7119 76.3293C96.7119 73.9727 97.6847 72.0339 99.7605 70.65C101.836 69.2662 104.885 68.5742 108.906 68.5742H115.97C116.798 68.5742 117.216 68.7112 117.49 69.2662C117.764 69.8211 117.908 70.376 117.908 71.2049C117.908 72.0339 117.771 72.7258 117.49 73.1437C117.21 73.5616 116.661 73.8356 115.97 73.8356H108.906C106.968 73.8356 105.44 74.1097 104.611 74.5276C103.782 74.9455 103.227 75.6374 103.227 76.4664V77.8502C103.227 78.6792 103.645 79.2341 104.611 79.789C105.577 80.3439 107.105 80.4809 109.18 80.4809H120.539C125.389 80.4809 128.849 81.1729 130.932 82.5567C133.008 83.9406 134.117 85.8794 134.117 88.3731V90.0378C134.117 91.2847 133.843 92.3945 133.288 93.3605C132.733 94.3264 131.905 95.1622 130.658 95.8542C129.548 96.5461 128.027 97.101 126.088 97.375C124.149 97.6491 122.074 97.93 119.436 97.93H98.6576C97.8286 97.93 97.4107 97.7929 97.1367 97.238C96.8626 96.6831 96.7188 96.1282 96.7188 95.2992C96.7188 94.4703 96.8558 93.7784 97.1367 93.3605C97.4176 92.9426 97.9656 92.6685 98.6576 92.6685H120.546C121.93 92.6685 123.04 92.6685 124.012 92.5315C124.985 92.3945 125.677 92.2575 126.232 91.9766C126.787 91.7026 127.205 91.4217 127.342 91.1476C127.616 90.8736 127.616 90.4557 127.616 90.0378V88.2361C127.616 87.8182 127.479 87.4071 127.342 87.1262C127.205 86.8453 126.787 86.5713 126.232 86.2973C125.677 86.0232 124.985 85.8794 124.156 85.7424C123.327 85.6053 122.217 85.6053 120.834 85.6053H109.338C105.18 85.6053 101.994 84.9134 99.9181 83.5295C97.8423 82.1457 96.7325 80.3439 96.7325 77.9872V76.3225L96.7119 76.3293Z" fill="#EB971C"/>
<path d="M137.159 63.3109C137.159 62.2011 137.433 61.3721 138.132 60.8172C138.831 60.2623 139.797 59.9883 141.181 59.9883C142.564 59.9883 143.674 60.2623 144.229 60.8172C144.784 61.3721 145.202 62.2011 145.202 63.3109C145.202 64.4208 144.928 65.2497 144.229 65.8046C143.53 66.3595 142.564 66.6336 141.181 66.6336C139.797 66.6336 138.687 66.3595 138.132 65.8046C137.577 65.2497 137.159 64.4208 137.159 63.3109ZM144.64 95.4549C144.64 96.4278 144.366 97.1197 143.811 97.3937C143.256 97.6678 142.427 97.8116 141.318 97.8116C140.208 97.8116 139.379 97.6746 138.824 97.3937C138.269 97.1197 137.995 96.4209 137.995 95.4549V71.0729C137.995 70.1001 138.269 69.4081 138.824 69.1341C139.379 68.8601 140.208 68.7162 141.318 68.7162C142.427 68.7162 143.256 68.8532 143.811 69.1341C144.366 69.4081 144.64 70.1069 144.64 71.0729V95.4549Z" fill="#EB971C"/>
<path d="M152.54 97.803C151.431 97.803 150.602 97.666 150.047 97.3851C149.492 97.1111 149.218 96.4123 149.218 95.4464V77.4356C149.218 71.4822 154.068 68.4336 163.762 68.4336H174.984C184.678 68.4336 189.528 71.4822 189.528 77.4356V95.4464C189.528 96.4192 189.254 97.1111 188.699 97.3851C188.144 97.6592 187.315 97.803 186.205 97.803C185.095 97.803 184.267 97.666 183.712 97.3851C183.157 97.1111 182.883 96.4123 182.883 95.4464V77.4356C182.883 76.3257 182.191 75.4968 180.944 74.8049C179.697 74.1129 177.477 73.695 174.71 73.695H163.906C160.994 73.695 158.919 74.1129 157.672 74.8049C156.425 75.4968 155.733 76.4696 155.733 77.4356V95.4464C155.733 96.4192 155.459 97.1111 154.904 97.3851C154.349 97.6592 153.657 97.803 152.547 97.803H152.54Z" fill="#EB971C"/>
<path d="M200.468 86.0343V88.665C200.468 89.6378 201.16 90.6038 202.407 91.2957C203.654 91.9877 205.874 92.4056 208.641 92.4056H214.601C215.43 92.4056 215.848 92.5426 216.122 93.0975C216.396 93.5154 216.396 94.2073 216.396 95.0363C216.396 95.8652 216.259 96.5571 216.122 96.975C215.848 97.3929 215.43 97.667 214.601 97.667H208.504C198.81 97.667 193.96 94.6184 193.96 88.665V77.4434C193.96 71.49 198.81 68.4414 208.504 68.4414H220.418C225.542 68.4414 229.283 69.1333 231.639 70.6611C233.996 72.1888 235.106 74.4016 235.106 77.4502V83.4036C235.106 84.3764 234.969 85.0683 234.551 85.4794C234.133 85.8904 233.304 86.0343 232.057 86.0343H200.475H200.468ZM200.468 80.903H228.454V77.4365C228.454 76.1897 227.762 75.3607 226.515 74.6688C225.268 73.9769 223.192 73.696 220.144 73.696H208.648C205.737 73.696 203.661 74.1139 202.414 74.8058C201.167 75.4977 200.475 76.4706 200.475 77.4365V80.903H200.468Z" fill="#EB971C"/>
<path d="M238.282 76.3293C238.282 73.9727 239.254 72.0339 241.33 70.65C243.406 69.2662 246.455 68.5742 250.476 68.5742H257.539C258.368 68.5742 258.786 68.7112 259.06 69.2662C259.334 69.8211 259.478 70.376 259.478 71.2049C259.478 72.0339 259.341 72.7258 259.06 73.1437C258.779 73.5616 258.231 73.8356 257.539 73.8356H250.476C248.537 73.8356 247.009 74.1097 246.181 74.5276C245.352 74.9455 244.797 75.6374 244.797 76.4664V77.8502C244.797 78.6792 245.352 79.2341 246.181 79.789C247.153 80.3439 248.674 80.4809 250.75 80.4809H262.109C266.959 80.4809 270.419 81.1729 272.501 82.5567C274.584 83.9406 275.687 85.8794 275.687 88.3731V90.0378C275.687 91.2847 275.413 92.3945 274.858 93.3605C274.303 94.3333 273.474 95.1622 272.227 95.8542C271.117 96.5461 269.597 97.101 267.658 97.375C265.719 97.6491 263.643 97.93 261.006 97.93H240.09C239.261 97.93 238.843 97.7929 238.569 97.238C238.295 96.6831 238.151 96.1282 238.151 95.2992C238.151 94.4703 238.288 93.7784 238.569 93.3605C238.85 92.9426 239.398 92.6685 240.09 92.6685H261.978C263.362 92.6685 264.472 92.6685 265.445 92.5315C266.418 92.3945 267.11 92.2575 267.665 91.9766C268.22 91.6957 268.494 91.4217 268.775 91.1476C269.055 90.8736 269.049 90.4557 269.049 90.0378V88.2361C269.049 87.8182 268.912 87.4071 268.775 87.1262C268.637 86.8453 268.22 86.5713 267.665 86.2973C267.11 86.0232 266.418 85.8794 265.589 85.7424C264.76 85.6053 263.65 85.6053 262.266 85.6053H250.771C246.612 85.6053 243.426 84.9134 241.351 83.5295C239.275 82.1457 238.165 80.3439 238.165 77.9872L238.302 76.3225L238.282 76.3293Z" fill="#EB971C"/>
<path d="M279.01 76.3293C279.01 73.9727 279.983 72.0339 282.059 70.65C284.134 69.2662 287.183 68.5742 291.204 68.5742H298.268C299.097 68.5742 299.515 68.7112 299.789 69.2662C300.063 69.8211 300.206 70.376 300.206 71.2049C300.206 72.0339 300.069 72.7258 299.789 73.1437C299.508 73.5616 298.96 73.8356 298.268 73.8356H291.204C289.266 73.8356 287.738 74.1097 286.909 74.5276C286.08 74.9455 285.525 75.6374 285.525 76.4664V77.8502C285.525 78.6792 286.08 79.2341 286.909 79.789C287.882 80.3439 289.403 80.4809 291.479 80.4809H302.837C307.688 80.4809 311.147 81.1729 313.23 82.5567C315.312 83.9406 316.415 85.8794 316.415 88.3731V90.0378C316.415 91.2847 316.141 92.3945 315.587 93.3605C315.032 94.3333 314.203 95.1622 312.956 95.8542C311.846 96.5461 310.325 97.101 308.386 97.375C306.448 97.6491 304.372 97.93 301.734 97.93H280.819C279.99 97.93 279.572 97.7929 279.298 97.238C279.024 96.6831 278.88 96.1282 278.88 95.2992C278.88 94.4703 279.017 93.7784 279.298 93.3605C279.579 92.9426 280.127 92.6685 280.819 92.6685H302.707C304.091 92.6685 305.201 92.6685 306.174 92.5315C307.146 92.3945 307.838 92.2575 308.393 91.9766C308.948 91.6957 309.222 91.4217 309.503 91.1476C309.784 90.8736 309.777 90.4557 309.777 90.0378V88.2361C309.777 87.8182 309.64 87.4071 309.503 87.1262C309.366 86.8453 308.948 86.5713 308.393 86.2973C307.838 86.0232 307.146 85.8794 306.317 85.7424C305.488 85.6053 304.379 85.6053 302.995 85.6053H291.499C287.341 85.6053 284.155 84.9134 282.079 83.5295C280.003 82.1457 278.894 80.3439 278.894 77.9872L279.031 76.3225L279.01 76.3293Z" fill="#EB971C"/>
<path d="M385.127 87.0083C385.127 89.2279 384.709 91.0228 383.743 92.4135C382.914 93.7974 381.667 94.9072 380.276 95.7362C378.893 96.5651 377.228 96.983 375.426 97.2571C373.624 97.5311 371.685 97.675 369.884 97.675H340.795C339.274 97.675 338.438 96.846 338.438 95.1813V62.6262C338.438 61.1053 339.267 60.2695 340.795 60.2695H369.473C371.692 60.2695 373.768 60.4065 375.57 60.6874C377.372 60.9615 379.036 61.5164 380.42 62.3522C381.804 63.1811 382.777 64.291 383.469 65.6748C384.161 67.0587 384.579 68.8605 384.579 70.9362C384.579 72.738 384.305 74.4028 383.606 75.6496C382.914 77.0335 381.667 78.1433 379.865 78.9723C381.386 79.5272 382.633 80.4931 383.606 81.603C384.579 82.9868 385.127 84.6516 385.127 87.0083ZM378.057 87.1453C378.057 86.1725 377.92 85.3435 377.783 84.6516C377.646 83.9596 377.091 83.4047 376.536 82.9868C375.844 82.5689 375.015 82.2949 373.905 82.014C372.795 81.7331 371.274 81.74 369.61 81.74H345.228V92.1327H370.302C371.966 92.1327 373.35 91.9956 374.316 91.8586C375.289 91.7216 376.118 91.3037 376.673 91.0297C377.228 90.6118 377.646 90.2007 377.783 89.5088C377.92 88.8169 378.057 88.1249 378.057 87.1521V87.1453ZM345.365 76.0675H369.884C371.405 76.0675 372.651 76.0675 373.761 75.9305C374.734 75.7935 375.7 75.5126 376.255 75.2386C376.81 74.9645 377.365 74.4096 377.639 73.7177C377.913 73.0257 378.057 72.1968 378.057 71.087C378.057 70.258 377.92 69.4222 377.783 68.7303C377.646 68.0384 377.228 67.4834 376.673 67.2094C376.118 66.7915 375.289 66.5175 374.316 66.3805C373.343 66.2434 371.96 66.1064 370.302 66.1064H345.502L345.365 76.0812V76.0675Z" fill="#EB971C"/>
<path d="M426.821 68.3008C427.931 68.3008 428.76 68.4378 429.315 68.7187C429.87 68.9927 430.144 69.6915 430.144 70.6575V88.6682C430.144 94.6216 425.293 97.6702 415.599 97.6702H403.268C393.574 97.6702 388.724 94.6216 388.724 88.6682V70.6575C388.724 69.6846 388.998 68.9927 389.553 68.7187C390.108 68.4446 390.936 68.3008 392.046 68.3008C393.156 68.3008 393.985 68.4378 394.54 68.7187C395.095 68.9927 395.369 69.6915 395.369 70.6575V88.6682C395.369 89.7781 396.061 90.607 397.308 91.299C398.555 91.9909 400.774 92.4088 403.542 92.4088H415.456C418.367 92.4088 420.443 91.9909 421.69 91.299C422.937 90.607 423.629 89.6342 423.629 88.6682V70.6575C423.629 69.6846 423.903 68.9927 424.458 68.7187C425.012 68.4446 425.704 68.3008 426.814 68.3008H426.821Z" fill="#EB971C"/>
<path d="M433.884 63.3109C433.884 62.2011 434.158 61.3721 434.857 60.8172C435.555 60.2623 436.521 59.9883 437.905 59.9883C439.289 59.9883 440.399 60.2623 440.954 60.8172C441.509 61.3721 441.927 62.2011 441.927 63.3109C441.927 64.4208 441.653 65.2497 440.954 65.8046C440.255 66.3595 439.289 66.6336 437.905 66.6336C436.521 66.6336 435.412 66.3595 434.857 65.8046C434.302 65.2497 433.884 64.4208 433.884 63.3109ZM441.365 95.4549C441.365 96.4278 441.091 97.1197 440.536 97.3937C439.981 97.6678 439.152 97.8116 438.042 97.8116C436.932 97.8116 436.103 97.6746 435.549 97.3937C434.994 97.1197 434.72 96.4209 434.72 95.4549V71.0729C434.72 70.1001 434.994 69.4081 435.549 69.1341C436.103 68.8601 436.932 68.7162 438.042 68.7162C439.152 68.7162 439.981 68.8532 440.536 69.1341C441.091 69.415 441.365 70.1069 441.365 71.0729V95.4549Z" fill="#EB971C"/>
<path d="M452.72 95.4507C452.72 96.4236 452.446 97.1155 451.892 97.3895C451.337 97.6635 450.508 97.8074 449.398 97.8074C448.288 97.8074 447.459 97.6704 446.904 97.3895C446.349 97.1155 446.075 96.4167 446.075 95.4507V62.4778C446.075 61.505 446.349 60.813 446.904 60.539C447.459 60.265 448.288 60.1211 449.398 60.1211C450.508 60.1211 451.337 60.2581 451.892 60.539C452.446 60.813 452.72 61.5118 452.72 62.4778V95.4507Z" fill="#EB971C"/>
<path d="M492.067 62.4778C492.067 61.505 492.341 60.813 492.896 60.539C493.451 60.265 494.28 60.1211 495.389 60.1211C496.499 60.1211 497.328 60.2581 497.883 60.539C498.438 60.813 498.712 61.5118 498.712 62.4778V88.6616C498.712 94.6149 493.862 97.6636 484.168 97.6636H471.836C462.142 97.6636 457.292 94.6149 457.292 88.6616V77.4399C457.292 71.4866 462.142 68.438 471.836 68.438H492.341L492.067 62.4846V62.4778ZM471.843 73.6994C468.932 73.6994 466.856 74.1173 465.609 74.8092C464.362 75.5012 463.67 76.474 463.67 77.4399V88.6616C463.67 89.6344 464.362 90.6004 465.609 91.2923C466.856 91.9842 469.075 92.4021 471.843 92.4021H483.757C486.668 92.4021 488.744 91.9842 489.991 91.2923C491.238 90.6004 491.93 89.6275 491.93 88.6616V73.6994H471.843Z" fill="#EB971C"/>
<path d="M502.46 63.3109C502.46 62.2011 502.734 61.3721 503.433 60.8172C504.132 60.2623 505.098 59.9883 506.481 59.9883C507.865 59.9883 508.975 60.2623 509.53 60.8172C510.085 61.3721 510.503 62.2011 510.503 63.3109C510.503 64.4208 510.229 65.2497 509.53 65.8046C508.831 66.3595 507.865 66.6336 506.481 66.6336C505.098 66.6336 503.988 66.3595 503.433 65.8046C502.878 65.2497 502.46 64.4208 502.46 63.3109ZM509.797 95.4549C509.797 96.4278 509.523 97.1197 508.968 97.3937C508.413 97.6678 507.584 97.8116 506.475 97.8116C505.365 97.8116 504.536 97.6746 503.981 97.3937C503.426 97.1197 503.152 96.4209 503.152 95.4549V71.0729C503.152 70.1001 503.426 69.4081 503.981 69.1341C504.536 68.8601 505.365 68.7162 506.475 68.7162C507.584 68.7162 508.413 68.8532 508.968 69.1341C509.523 69.415 509.797 70.1069 509.797 71.0729V95.4549Z" fill="#EB971C"/>
<path d="M517.693 97.803C516.583 97.803 515.754 97.666 515.199 97.3851C514.644 97.1111 514.37 96.4123 514.37 95.4464V77.4356C514.37 71.4822 519.22 68.4336 528.914 68.4336H540.136C549.83 68.4336 554.68 71.4822 554.68 77.4356V95.4464C554.68 96.4192 554.406 97.1111 553.851 97.3851C553.296 97.6592 552.467 97.803 551.358 97.803C550.248 97.803 549.419 97.666 548.864 97.3851C548.309 97.1111 548.035 96.4123 548.035 95.4464V77.4356C548.035 76.3257 547.343 75.4968 546.096 74.8049C544.849 74.1129 542.63 73.695 539.862 73.695H529.058C526.147 73.695 524.071 74.1129 522.824 74.8049C521.577 75.4968 520.885 76.4696 520.885 77.4356V95.4464C520.885 96.4192 520.611 97.1111 520.056 97.3851C519.638 97.6592 518.809 97.803 517.7 97.803H517.693Z" fill="#EB971C"/>
<path d="M579.62 106.126C578.791 106.126 578.373 105.852 578.099 105.434C577.825 105.016 577.825 104.324 577.825 103.495C577.825 102.666 577.962 101.974 578.099 101.557C578.236 101.139 578.791 100.865 579.62 100.865H586.683C589.177 100.865 590.978 100.591 591.944 99.8918C592.917 99.1999 593.465 98.3709 593.465 97.1241V96.85H573.653C563.959 96.85 559.108 93.8014 559.108 87.8481V77.3184C559.108 71.365 563.959 68.3164 573.653 68.3164H585.429C595.123 68.3164 599.974 71.365 599.974 77.3184V96.9871C599.974 100.036 598.864 102.248 596.507 103.639C594.287 105.16 590.965 105.859 586.532 105.859L579.606 106.133L579.62 106.126ZM593.609 91.8558V77.4485C593.609 76.4757 592.917 75.5098 591.67 74.8178C590.423 74.1259 588.204 73.708 585.436 73.708H574.077C571.166 73.708 569.09 74.1259 567.843 74.8178C566.596 75.5098 565.904 76.4826 565.904 77.4485V87.9782C565.904 89.0881 566.596 89.917 567.843 90.6089C569.09 91.3009 571.31 91.7188 574.077 91.7188H593.609V91.8558Z" fill="#EB971C"/>
</g>
<g clip-path="url(#clip2_2609_93186)">
<path d="M47.6707 146.988C47.6707 149.208 47.2528 151.003 46.2868 152.394C45.4579 153.777 44.211 154.887 42.8203 155.716C41.4296 156.545 39.7717 156.963 37.9699 157.237C36.1682 157.511 34.2294 157.655 32.4276 157.655H3.34594C1.82506 157.655 0.989258 156.826 0.989258 155.161V122.606C0.989258 121.085 1.81821 120.25 3.34594 120.25H32.0234C34.2431 120.25 36.3189 120.387 38.1207 120.667C39.9224 120.941 41.5872 121.496 42.971 122.332C44.3549 123.168 45.3277 124.271 46.0197 125.655C46.7116 127.039 47.1295 128.84 47.1295 130.916C47.1295 132.718 46.8554 134.383 46.1567 135.63C45.4647 137.013 44.2179 138.123 42.4161 138.952C43.937 139.507 45.1839 140.473 46.1567 141.583C47.2665 142.967 47.6776 144.632 47.6776 146.988H47.6707ZM40.7445 147.125C40.7445 146.152 40.6075 145.323 40.4705 144.632C40.3335 143.94 39.7786 143.385 39.2236 142.967C38.6687 142.549 37.7028 142.275 36.5929 141.994C35.4831 141.713 33.9622 141.72 32.2975 141.72H7.77841V152.113H32.8524C34.5171 152.113 35.901 151.976 36.867 151.839C37.8398 151.702 38.6687 151.284 39.2236 151.01C39.7786 150.592 40.1965 150.181 40.3335 149.489C40.4705 148.797 40.7514 148.105 40.7514 147.132L40.7445 147.125ZM8.05245 136.047H32.5715C34.0924 136.047 35.3392 136.047 36.4491 135.91C37.4219 135.773 38.3878 135.493 38.9428 135.219C39.4977 134.945 40.0526 134.39 40.3266 133.698C40.6007 133.006 40.7445 132.177 40.7445 131.067C40.7445 130.238 40.6075 129.402 40.4705 128.71C40.3335 128.018 39.9156 127.463 39.3607 127.189C38.8057 126.771 37.9768 126.497 37.004 126.36C36.0312 126.223 34.6473 126.086 32.9894 126.086H8.05245V136.061V136.047Z" fill="#EB971C"/>
<path d="M89.5085 128.281C90.6183 128.281 91.4473 128.418 92.0022 128.699C92.5571 128.973 92.8311 129.671 92.8311 130.637V148.648C92.8311 154.602 87.9808 157.65 78.2869 157.65H65.9554C56.2615 157.65 51.4111 154.602 51.4111 148.648V130.637C51.4111 129.665 51.6852 128.973 52.2401 128.699C52.795 128.425 53.6239 128.281 54.7338 128.281C55.8436 128.281 56.6726 128.418 57.2275 128.699C57.7824 128.973 58.0564 129.671 58.0564 130.637V148.648C58.0564 149.758 58.7484 150.587 59.9952 151.279C61.242 151.971 63.4617 152.389 66.2294 152.389H78.143C81.0546 152.389 83.1304 151.971 84.3772 151.279C85.6241 150.587 86.316 149.614 86.316 148.648V130.637C86.316 129.665 86.5901 128.973 87.145 128.699C87.5629 128.425 88.3918 128.281 89.5017 128.281H89.5085Z" fill="#EB971C"/>
<path d="M96.7119 136.333C96.7119 133.976 97.6847 132.037 99.7605 130.653C101.836 129.27 104.885 128.578 108.906 128.578H115.97C116.798 128.578 117.216 128.715 117.49 129.27C117.764 129.824 117.908 130.379 117.908 131.208C117.908 132.037 117.771 132.729 117.49 133.147C117.21 133.565 116.661 133.839 115.97 133.839H108.906C106.968 133.839 105.44 134.113 104.611 134.531C103.782 134.949 103.227 135.641 103.227 136.47V137.854C103.227 138.683 103.645 139.238 104.611 139.792C105.577 140.347 107.105 140.484 109.18 140.484H120.539C125.389 140.484 128.849 141.176 130.932 142.56C133.008 143.944 134.117 145.883 134.117 148.376V150.041C134.117 151.288 133.843 152.398 133.288 153.364C132.733 154.33 131.905 155.166 130.658 155.858C129.548 156.55 128.027 157.104 126.088 157.378C124.149 157.652 122.074 157.933 119.436 157.933H98.6576C97.8286 157.933 97.4107 157.796 97.1367 157.241C96.8626 156.687 96.7188 156.132 96.7188 155.303C96.7188 154.474 96.8558 153.782 97.1367 153.364C97.4176 152.946 97.9656 152.672 98.6576 152.672H120.546C121.93 152.672 123.04 152.672 124.012 152.535C124.985 152.398 125.677 152.261 126.232 151.98C126.787 151.706 127.205 151.425 127.342 151.151C127.616 150.877 127.616 150.459 127.616 150.041V148.239C127.616 147.822 127.479 147.411 127.342 147.13C127.205 146.849 126.787 146.575 126.232 146.301C125.677 146.027 124.985 145.883 124.156 145.746C123.327 145.609 122.217 145.609 120.834 145.609H109.338C105.18 145.609 101.994 144.917 99.9181 143.533C97.8423 142.149 96.7325 140.347 96.7325 137.991V136.326L96.7119 136.333Z" fill="#EB971C"/>
<path d="M137.159 123.299C137.159 122.189 137.433 121.36 138.132 120.805C138.831 120.25 139.797 119.976 141.181 119.976C142.564 119.976 143.674 120.25 144.229 120.805C144.784 121.36 145.202 122.189 145.202 123.299C145.202 124.409 144.928 125.237 144.229 125.792C143.53 126.347 142.564 126.621 141.181 126.621C139.797 126.621 138.687 126.347 138.132 125.792C137.577 125.237 137.159 124.409 137.159 123.299ZM144.64 155.443C144.64 156.416 144.366 157.107 143.811 157.382C143.256 157.656 142.427 157.799 141.318 157.799C140.208 157.799 139.379 157.662 138.824 157.382C138.269 157.107 137.995 156.409 137.995 155.443V131.061C137.995 130.088 138.269 129.396 138.824 129.122C139.379 128.848 140.208 128.704 141.318 128.704C142.427 128.704 143.256 128.841 143.811 129.122C144.366 129.396 144.64 130.095 144.64 131.061V155.443Z" fill="#EB971C"/>
<path d="M152.54 157.799C151.431 157.799 150.602 157.662 150.047 157.381C149.492 157.107 149.218 156.408 149.218 155.442V137.431C149.218 131.478 154.068 128.429 163.762 128.429H174.984C184.678 128.429 189.528 131.478 189.528 137.431V155.442C189.528 156.415 189.254 157.107 188.699 157.381C188.144 157.655 187.315 157.799 186.205 157.799C185.095 157.799 184.267 157.662 183.712 157.381C183.157 157.107 182.883 156.408 182.883 155.442V137.431C182.883 136.321 182.191 135.492 180.944 134.8C179.697 134.109 177.477 133.691 174.71 133.691H163.906C160.994 133.691 158.919 134.109 157.672 134.8C156.425 135.492 155.733 136.465 155.733 137.431V155.442C155.733 156.415 155.459 157.107 154.904 157.381C154.349 157.655 153.657 157.799 152.547 157.799H152.54Z" fill="#EB971C"/>
<path d="M200.468 146.03V148.661C200.468 149.633 201.16 150.599 202.407 151.291C203.654 151.983 205.874 152.401 208.641 152.401H214.601C215.43 152.401 215.848 152.538 216.122 153.093C216.396 153.511 216.396 154.203 216.396 155.032C216.396 155.861 216.259 156.553 216.122 156.971C215.848 157.389 215.43 157.663 214.601 157.663H208.504C198.81 157.663 193.96 154.614 193.96 148.661V137.439C193.96 131.486 198.81 128.437 208.504 128.437H220.418C225.542 128.437 229.283 129.129 231.639 130.657C233.996 132.184 235.106 134.397 235.106 137.446V143.399C235.106 144.372 234.969 145.064 234.551 145.475C234.133 145.886 233.304 146.03 232.057 146.03H200.475H200.468ZM200.468 140.899H228.454V137.432C228.454 136.185 227.762 135.356 226.515 134.664C225.268 133.972 223.192 133.692 220.144 133.692H208.648C205.737 133.692 203.661 134.109 202.414 134.801C201.167 135.493 200.475 136.466 200.475 137.432V140.899H200.468Z" fill="#EB971C"/>
<path d="M238.282 136.333C238.282 133.976 239.254 132.037 241.33 130.653C243.406 129.27 246.455 128.578 250.476 128.578H257.539C258.368 128.578 258.786 128.715 259.06 129.27C259.334 129.824 259.478 130.379 259.478 131.208C259.478 132.037 259.341 132.729 259.06 133.147C258.779 133.565 258.231 133.839 257.539 133.839H250.476C248.537 133.839 247.009 134.113 246.181 134.531C245.352 134.949 244.797 135.641 244.797 136.47V137.854C244.797 138.683 245.352 139.238 246.181 139.792C247.153 140.347 248.674 140.484 250.75 140.484H262.109C266.959 140.484 270.419 141.176 272.501 142.56C274.584 143.944 275.687 145.883 275.687 148.376V150.041C275.687 151.288 275.413 152.398 274.858 153.364C274.303 154.337 273.474 155.166 272.227 155.858C271.117 156.55 269.597 157.104 267.658 157.378C265.719 157.652 263.643 157.933 261.006 157.933H240.09C239.261 157.933 238.843 157.796 238.569 157.241C238.295 156.687 238.151 156.132 238.151 155.303C238.151 154.474 238.288 153.782 238.569 153.364C238.85 152.946 239.398 152.672 240.09 152.672H261.978C263.362 152.672 264.472 152.672 265.445 152.535C266.418 152.398 267.11 152.261 267.665 151.98C268.22 151.699 268.494 151.425 268.775 151.151C269.055 150.877 269.049 150.459 269.049 150.041V148.239C269.049 147.822 268.912 147.411 268.775 147.13C268.637 146.849 268.22 146.575 267.665 146.301C267.11 146.027 266.418 145.883 265.589 145.746C264.76 145.609 263.65 145.609 262.266 145.609H250.771C246.612 145.609 243.426 144.917 241.351 143.533C239.275 142.149 238.165 140.347 238.165 137.991L238.302 136.326L238.282 136.333Z" fill="#EB971C"/>
<path d="M279.01 136.333C279.01 133.976 279.983 132.037 282.059 130.653C284.134 129.27 287.183 128.578 291.204 128.578H298.268C299.097 128.578 299.515 128.715 299.789 129.27C300.063 129.824 300.206 130.379 300.206 131.208C300.206 132.037 300.069 132.729 299.789 133.147C299.508 133.565 298.96 133.839 298.268 133.839H291.204C289.266 133.839 287.738 134.113 286.909 134.531C286.08 134.949 285.525 135.641 285.525 136.47V137.854C285.525 138.683 286.08 139.238 286.909 139.792C287.882 140.347 289.403 140.484 291.479 140.484H302.837C307.688 140.484 311.147 141.176 313.23 142.56C315.312 143.944 316.415 145.883 316.415 148.376V150.041C316.415 151.288 316.141 152.398 315.587 153.364C315.032 154.337 314.203 155.166 312.956 155.858C311.846 156.55 310.325 157.104 308.386 157.378C306.448 157.652 304.372 157.933 301.734 157.933H280.819C279.99 157.933 279.572 157.796 279.298 157.241C279.024 156.687 278.88 156.132 278.88 155.303C278.88 154.474 279.017 153.782 279.298 153.364C279.579 152.946 280.127 152.672 280.819 152.672H302.707C304.091 152.672 305.201 152.672 306.174 152.535C307.146 152.398 307.838 152.261 308.393 151.98C308.948 151.699 309.222 151.425 309.503 151.151C309.784 150.877 309.777 150.459 309.777 150.041V148.239C309.777 147.822 309.64 147.411 309.503 147.13C309.366 146.849 308.948 146.575 308.393 146.301C307.838 146.027 307.146 145.883 306.317 145.746C305.488 145.609 304.379 145.609 302.995 145.609H291.499C287.341 145.609 284.155 144.917 282.079 143.533C280.003 142.149 278.894 140.347 278.894 137.991L279.031 136.326L279.01 136.333Z" fill="#EB971C"/>
<path d="M385.127 146.988C385.127 149.208 384.709 151.003 383.743 152.394C382.914 153.777 381.667 154.887 380.276 155.716C378.893 156.545 377.228 156.963 375.426 157.237C373.624 157.511 371.685 157.655 369.884 157.655H340.795C339.274 157.655 338.438 156.826 338.438 155.161V122.606C338.438 121.085 339.267 120.25 340.795 120.25H369.473C371.692 120.25 373.768 120.387 375.57 120.667C377.372 120.941 379.036 121.496 380.42 122.332C381.804 123.161 382.777 124.271 383.469 125.655C384.161 127.039 384.579 128.84 384.579 130.916C384.579 132.718 384.305 134.383 383.606 135.63C382.914 137.013 381.667 138.123 379.865 138.952C381.386 139.507 382.633 140.473 383.606 141.583C384.579 142.967 385.127 144.632 385.127 146.988ZM378.057 147.125C378.057 146.152 377.92 145.323 377.783 144.632C377.646 143.94 377.091 143.385 376.536 142.967C375.844 142.549 375.015 142.275 373.905 141.994C372.795 141.713 371.274 141.72 369.61 141.72H345.228V152.113H370.302C371.966 152.113 373.35 151.976 374.316 151.839C375.289 151.702 376.118 151.284 376.673 151.01C377.228 150.592 377.646 150.181 377.783 149.489C377.92 148.797 378.057 148.105 378.057 147.132V147.125ZM345.365 136.047H369.884C371.405 136.047 372.651 136.047 373.761 135.91C374.734 135.773 375.7 135.493 376.255 135.219C376.81 134.945 377.365 134.39 377.639 133.698C377.913 133.006 378.057 132.177 378.057 131.067C378.057 130.238 377.92 129.402 377.783 128.71C377.646 128.018 377.228 127.463 376.673 127.189C376.118 126.771 375.289 126.497 374.316 126.36C373.343 126.223 371.96 126.086 370.302 126.086H345.502L345.365 136.061V136.047Z" fill="#EB971C"/>
<path d="M426.821 128.281C427.931 128.281 428.76 128.418 429.315 128.699C429.87 128.973 430.144 129.671 430.144 130.637V148.648C430.144 154.602 425.293 157.65 415.599 157.65H403.268C393.574 157.65 388.724 154.602 388.724 148.648V130.637C388.724 129.665 388.998 128.973 389.553 128.699C390.108 128.425 390.936 128.281 392.046 128.281C393.156 128.281 393.985 128.418 394.54 128.699C395.095 128.973 395.369 129.671 395.369 130.637V148.648C395.369 149.758 396.061 150.587 397.308 151.279C398.555 151.971 400.774 152.389 403.542 152.389H415.456C418.367 152.389 420.443 151.971 421.69 151.279C422.937 150.587 423.629 149.614 423.629 148.648V130.637C423.629 129.665 423.903 128.973 424.458 128.699C425.012 128.425 425.704 128.281 426.814 128.281H426.821Z" fill="#EB971C"/>
<path d="M433.884 123.299C433.884 122.189 434.158 121.36 434.857 120.805C435.555 120.25 436.521 119.976 437.905 119.976C439.289 119.976 440.399 120.25 440.954 120.805C441.509 121.36 441.927 122.189 441.927 123.299C441.927 124.409 441.653 125.237 440.954 125.792C440.255 126.347 439.289 126.621 437.905 126.621C436.521 126.621 435.412 126.347 434.857 125.792C434.302 125.237 433.884 124.409 433.884 123.299ZM441.365 155.443C441.365 156.416 441.091 157.107 440.536 157.382C439.981 157.656 439.152 157.799 438.042 157.799C436.932 157.799 436.103 157.662 435.549 157.382C434.994 157.107 434.72 156.409 434.72 155.443V131.061C434.72 130.088 434.994 129.396 435.549 129.122C436.103 128.848 436.932 128.704 438.042 128.704C439.152 128.704 439.981 128.841 440.536 129.122C441.091 129.403 441.365 130.095 441.365 131.061V155.443Z" fill="#EB971C"/>
<path d="M452.72 155.446C452.72 156.419 452.446 157.111 451.892 157.385C451.337 157.659 450.508 157.803 449.398 157.803C448.288 157.803 447.459 157.666 446.904 157.385C446.349 157.111 446.075 156.412 446.075 155.446V122.473C446.075 121.501 446.349 120.809 446.904 120.535C447.459 120.261 448.288 120.117 449.398 120.117C450.508 120.117 451.337 120.254 451.892 120.535C452.446 120.809 452.72 121.507 452.72 122.473V155.446Z" fill="#EB971C"/>
<path d="M492.067 122.473C492.067 121.501 492.341 120.809 492.896 120.535C493.451 120.261 494.28 120.117 495.389 120.117C496.499 120.117 497.328 120.254 497.883 120.535C498.438 120.809 498.712 121.507 498.712 122.473V148.657C498.712 154.611 493.862 157.659 484.168 157.659H471.836C462.142 157.659 457.292 154.611 457.292 148.657V137.436C457.292 131.482 462.142 128.434 471.836 128.434H492.341L492.067 122.48V122.473ZM471.843 133.695C468.932 133.695 466.856 134.113 465.609 134.805C464.362 135.497 463.67 136.47 463.67 137.436V148.657C463.67 149.63 464.362 150.596 465.609 151.288C466.856 151.98 469.075 152.398 471.843 152.398H483.757C486.668 152.398 488.744 151.98 489.991 151.288C491.238 150.596 491.93 149.623 491.93 148.657V133.695H471.843Z" fill="#EB971C"/>
<path d="M502.46 123.299C502.46 122.189 502.734 121.36 503.433 120.805C504.132 120.25 505.098 119.976 506.481 119.976C507.865 119.976 508.975 120.25 509.53 120.805C510.085 121.36 510.503 122.189 510.503 123.299C510.503 124.409 510.229 125.237 509.53 125.792C508.831 126.347 507.865 126.621 506.481 126.621C505.098 126.621 503.988 126.347 503.433 125.792C502.878 125.237 502.46 124.409 502.46 123.299ZM509.797 155.443C509.797 156.416 509.523 157.107 508.968 157.382C508.413 157.656 507.584 157.799 506.475 157.799C505.365 157.799 504.536 157.662 503.981 157.382C503.426 157.107 503.152 156.409 503.152 155.443V131.061C503.152 130.088 503.426 129.396 503.981 129.122C504.536 128.848 505.365 128.704 506.475 128.704C507.584 128.704 508.413 128.841 508.968 129.122C509.523 129.403 509.797 130.095 509.797 131.061V155.443Z" fill="#EB971C"/>
<path d="M517.693 157.799C516.583 157.799 515.754 157.662 515.199 157.381C514.644 157.107 514.37 156.408 514.37 155.442V137.431C514.37 131.478 519.22 128.429 528.914 128.429H540.136C549.83 128.429 554.68 131.478 554.68 137.431V155.442C554.68 156.415 554.406 157.107 553.851 157.381C553.296 157.655 552.467 157.799 551.358 157.799C550.248 157.799 549.419 157.662 548.864 157.381C548.309 157.107 548.035 156.408 548.035 155.442V137.431C548.035 136.321 547.343 135.492 546.096 134.8C544.849 134.109 542.63 133.691 539.862 133.691H529.058C526.147 133.691 524.071 134.109 522.824 134.8C521.577 135.492 520.885 136.465 520.885 137.431V155.442C520.885 156.415 520.611 157.107 520.056 157.381C519.638 157.655 518.809 157.799 517.7 157.799H517.693Z" fill="#EB971C"/>
<path d="M579.62 166.114C578.791 166.114 578.373 165.84 578.099 165.422C577.825 165.004 577.825 164.312 577.825 163.483C577.825 162.654 577.962 161.962 578.099 161.544C578.236 161.126 578.791 160.852 579.62 160.852H586.683C589.177 160.852 590.978 160.578 591.944 159.88C592.917 159.188 593.465 158.359 593.465 157.112V156.838H573.653C563.959 156.838 559.108 153.789 559.108 147.836V137.306C559.108 131.353 563.959 128.304 573.653 128.304H585.429C595.123 128.304 599.974 131.353 599.974 137.306V156.975C599.974 160.023 598.864 162.236 596.507 163.627C594.287 165.148 590.965 165.847 586.532 165.847L579.606 166.121L579.62 166.114ZM593.609 151.844V137.436C593.609 136.464 592.917 135.498 591.67 134.806C590.423 134.114 588.204 133.696 585.436 133.696H574.077C571.166 133.696 569.09 134.114 567.843 134.806C566.596 135.498 565.904 136.47 565.904 137.436V147.966C565.904 149.076 566.596 149.905 567.843 150.597C569.09 151.289 571.31 151.707 574.077 151.707H593.609V151.844Z" fill="#EB971C"/>
</g>
<defs>
<clipPath id="clip0_2609_93186">
<rect width="598.989" height="46.1325" fill="white" transform="translate(0.989258)"/>
</clipPath>
<clipPath id="clip1_2609_93186">
<rect width="598.989" height="46.1325" fill="white" transform="translate(0.989258 59.9883)"/>
</clipPath>
<clipPath id="clip2_2609_93186">
<rect width="598.989" height="46.1325" fill="white" transform="translate(0.989258 119.976)"/>
</clipPath>
</defs>
</svg>
