<svg width="31" height="41" viewBox="0 0 31 41" fill="none" xmlns="http://www.w3.org/2000/svg">
<path d="M29.9998 8.18961V36.2324C29.9998 38.4416 28.209 40.2324 25.9998 40.2324H4C1.79086 40.2324 0 38.4416 0 36.2324V4.23242C0 2.02328 1.79086 0.232422 4 0.232422H21.3367L29.9998 8.18961Z" fill="#6172F3"/>
<g clip-path="url(#clip0_5718_22969)">
<path d="M14.9999 32.8988C18.6818 32.8988 21.6666 29.914 21.6666 26.2321C21.6666 22.5502 18.6818 19.5654 14.9999 19.5654C11.318 19.5654 8.33325 22.5502 8.33325 26.2321C8.33325 29.914 11.318 32.8988 14.9999 32.8988Z" stroke="white" stroke-width="1.33333" stroke-linecap="round" stroke-linejoin="round"/>
<path d="M13.6667 23.5654L17.6667 26.2321L13.6667 28.8988V23.5654Z" stroke="white" stroke-width="1.33333" stroke-linecap="round" stroke-linejoin="round"/>
</g>
<g filter="url(#filter0_d_5718_22969)">
<path d="M29.9998 8.18961H22.3367C21.7844 8.18961 21.3367 7.7419 21.3367 7.18961V0.232422L29.9998 8.18961Z" fill="#C7D7FE"/>
</g>
<defs>
<filter id="filter0_d_5718_22969" x="18.3367" y="-0.767578" width="12.6631" height="11.957" filterUnits="userSpaceOnUse" color-interpolation-filters="sRGB">
<feFlood flood-opacity="0" result="BackgroundImageFix"/>
<feColorMatrix in="SourceAlpha" type="matrix" values="0 0 0 0 0 0 0 0 0 0 0 0 0 0 0 0 0 0 127 0" result="hardAlpha"/>
<feOffset dx="-1" dy="1"/>
<feGaussianBlur stdDeviation="1"/>
<feComposite in2="hardAlpha" operator="out"/>
<feColorMatrix type="matrix" values="0 0 0 0 0 0 0 0 0 0 0 0 0 0 0 0 0 0 0.2 0"/>
<feBlend mode="normal" in2="BackgroundImageFix" result="effect1_dropShadow_5718_22969"/>
<feBlend mode="normal" in="SourceGraphic" in2="effect1_dropShadow_5718_22969" result="shape"/>
</filter>
<clipPath id="clip0_5718_22969">
<rect width="16" height="16" fill="white" transform="translate(7 18.2324)"/>
</clipPath>
</defs>
</svg>
