<svg width="69" height="68" viewBox="0 0 69 68" fill="none" xmlns="http://www.w3.org/2000/svg">
<g filter="url(#filter0_d_3872_97176)">
<g clip-path="url(#clip0_3872_97176)">
<rect x="4.5" y="4" width="60" height="60" rx="30" fill="url(#paint0_radial_3872_97176)"/>
<path d="M44.6354 39.6885C43.1654 39.6885 41.9273 40.6986 41.578 42.0611H40.9626C40.6251 42.0611 40.3507 41.7867 40.3507 41.4492V37.6487H42.7547C45.5317 37.6487 47.791 35.3894 47.791 32.6124C47.791 29.8353 45.5317 27.5761 42.7547 27.5761C42.5057 27.5761 42.2579 27.5946 42.0129 27.6309C41.0538 24.3235 38.0147 22 34.4999 22C30.9851 22 27.9461 24.3235 26.987 27.6309C26.7414 27.5944 26.4934 27.576 26.2451 27.5761C23.4682 27.5761 21.2089 29.8354 21.2089 32.6122C21.2089 35.3892 23.4682 37.6484 26.2452 37.6484H28.6492V41.4492C28.6492 41.7865 28.3748 42.0611 28.0373 42.0611H27.4218C27.0726 40.6986 25.8345 39.6885 24.3645 39.6885C22.6245 39.6885 21.2089 41.1043 21.2089 42.8443C21.2089 44.5843 22.6245 46 24.3645 46C25.8345 46 27.0726 44.99 27.4218 43.6273H28.0373C29.2383 43.6273 30.2155 42.6502 30.2155 41.4492V37.6487H33.7167V39.7871C32.3543 40.1363 31.3443 41.3746 31.3443 42.8443C31.3443 44.5844 32.7599 46 34.4999 46C36.24 46 37.6556 44.5844 37.6556 42.8443C37.6556 41.3746 36.6454 40.1363 35.2832 39.7871V37.6487H38.7844V41.4492C38.7844 42.6502 39.7615 43.6273 40.9626 43.6273H41.578C41.9273 44.99 43.1654 46 44.6354 46C46.3754 46 47.791 44.5844 47.791 42.8443C47.791 41.1042 46.3754 39.6885 44.6354 39.6885ZM24.3645 44.4337C23.4882 44.4337 22.7751 43.7206 22.7751 42.8443C22.7751 41.9678 23.4882 41.2549 24.3645 41.2549C25.241 41.2549 25.9539 41.9677 25.9539 42.8443C25.9539 43.7206 25.2411 44.4337 24.3645 44.4337ZM36.0893 42.8443C36.0893 43.7206 35.3762 44.4337 34.4999 44.4337C33.6236 44.4337 32.9105 43.7206 32.9105 42.8443C32.9105 41.9678 33.6236 41.2549 34.4999 41.2549C35.3762 41.2549 36.0893 41.9677 36.0893 42.8443ZM22.7752 32.6122C22.7752 30.6989 24.3317 29.1424 26.2452 29.1424C26.6128 29.1424 26.9767 29.2004 27.3263 29.315C27.4327 29.3499 27.5454 29.3616 27.6568 29.3492C27.7681 29.3368 27.8755 29.3007 27.9716 29.2433C28.0678 29.1858 28.1505 29.1085 28.2142 29.0163C28.278 28.9242 28.3212 28.8195 28.3409 28.7092C28.8764 25.7292 31.4666 23.5663 34.4999 23.5663C37.5333 23.5663 40.1235 25.7292 40.6589 28.7092C40.6787 28.8195 40.7219 28.9242 40.7856 29.0164C40.8493 29.1085 40.9321 29.1859 41.0282 29.2433C41.1244 29.3007 41.2318 29.3368 41.3431 29.3492C41.4545 29.3616 41.5671 29.3499 41.6736 29.315C42.0225 29.2006 42.3875 29.1423 42.7547 29.1424C44.668 29.1424 46.2247 30.6989 46.2247 32.6122C46.2247 34.5257 44.6682 36.0822 42.7547 36.0822H26.2452C24.3317 36.0822 22.7752 34.5257 22.7752 32.6122ZM44.6353 44.4337C43.7588 44.4337 43.0459 43.7206 43.0459 42.8443C43.0459 41.9678 43.7588 41.2547 44.6354 41.2547C45.5117 41.2547 46.2247 41.9678 46.2247 42.8443C46.2247 43.7207 45.5117 44.4337 44.6354 44.4337H44.6353Z" fill="#2A313D"/>
<rect x="5" y="4.5" width="59" height="59" rx="29.5" stroke="#F3F3F1"/>
</g>
</g>
<defs>
<filter id="filter0_d_3872_97176" x="0.5" y="0" width="68" height="68" filterUnits="userSpaceOnUse" color-interpolation-filters="sRGB">
<feFlood flood-opacity="0" result="BackgroundImageFix"/>
<feColorMatrix in="SourceAlpha" type="matrix" values="0 0 0 0 0 0 0 0 0 0 0 0 0 0 0 0 0 0 127 0" result="hardAlpha"/>
<feMorphology radius="1" operator="dilate" in="SourceAlpha" result="effect1_dropShadow_3872_97176"/>
<feOffset/>
<feGaussianBlur stdDeviation="1.5"/>
<feComposite in2="hardAlpha" operator="out"/>
<feColorMatrix type="matrix" values="0 0 0 0 0.952941 0 0 0 0 0.952941 0 0 0 0 0.945098 0 0 0 1 0"/>
<feBlend mode="normal" in2="BackgroundImageFix" result="effect1_dropShadow_3872_97176"/>
<feBlend mode="normal" in="SourceGraphic" in2="effect1_dropShadow_3872_97176" result="shape"/>
</filter>
<radialGradient id="paint0_radial_3872_97176" cx="0" cy="0" r="1" gradientUnits="userSpaceOnUse" gradientTransform="translate(34.5 34) scale(39.6 20.4)">
<stop stop-color="#F0ECE7"/>
<stop offset="1" stop-color="white"/>
</radialGradient>
<clipPath id="clip0_3872_97176">
<rect x="4.5" y="4" width="60" height="60" rx="30" fill="white"/>
</clipPath>
</defs>
</svg>
